solid cover_bat_in
facet normal -1.705886914673339e-16 -5.2675907252834246e-17 -1.0
  outer loop
    vertex 19.000000000000014 57.0 0.0
    vertex 2.255973186038318e-14 0.0 5.639932965095795e-15
    vertex 0.0 57.000000804186406 0.0
  endloop
endfacet
facet normal -1.705886914673339e-16 -5.2675907252834246e-17 -1.0
  outer loop
    vertex 2.255973186038318e-14 0.0 5.639932965095795e-15
    vertex 19.000000000000014 57.0 0.0
    vertex 4.800000000000025 1.6999999999999997 4.5824455341403335e-15
  endloop
endfacet
facet normal -1.705886914673339e-16 -5.2675907252834246e-17 -1.0
  outer loop
    vertex 4.800000000000025 1.6999999999999997 4.5824455341403335e-15
    vertex 19.000000000000014 57.0 0.0
    vertex 14.200000000000019 1.6999999999999997 1.762479051592436e-15
  endloop
endfacet
facet normal -1.705886914673339e-16 -5.2675907252834246e-17 -1.0
  outer loop
    vertex 14.200000000000019 1.6999999999999997 1.762479051592436e-15
    vertex 19.000000000000014 57.0 0.0
    vertex 14.200000000000019 0.0 1.762479051592436e-15
  endloop
endfacet
facet normal -1.705886914673339e-16 -5.2675907252834246e-17 -1.0
  outer loop
    vertex 14.200000000000019 0.0 1.762479051592436e-15
    vertex 19.000000000000014 57.0 0.0
    vertex 17.300000000000015 30.199999999999996 3.524958103184872e-16
  endloop
endfacet
facet normal -1.705886914673339e-16 -5.2675907252834246e-17 -1.0
  outer loop
    vertex 17.300000000000015 30.199999999999996 3.524958103184872e-16
    vertex 19.000000000000014 57.0 0.0
    vertex 19.000000000000014 30.199999999999996 3.524958103184872e-16
  endloop
endfacet
facet normal -1.705886914673339e-16 -5.2675907252834246e-17 -1.0
  outer loop
    vertex 14.200000000000019 0.0 1.762479051592436e-15
    vertex 17.300000000000015 19.8 3.524958103184872e-16
    vertex 19.000000000000014 0.0 0.0
  endloop
endfacet
facet normal -1.705886914673339e-16 -5.2675907252834246e-17 -1.0
  outer loop
    vertex 17.300000000000015 19.8 3.524958103184872e-16
    vertex 14.200000000000019 0.0 1.762479051592436e-15
    vertex 17.300000000000015 30.199999999999996 3.524958103184872e-16
  endloop
endfacet
facet normal -1.705886914673339e-16 -5.2675907252834246e-17 -1.0
  outer loop
    vertex 19.000000000000014 0.0 0.0
    vertex 17.300000000000015 19.8 3.524958103184872e-16
    vertex 19.000000000000014 19.8 3.524958103184872e-16
  endloop
endfacet
facet normal -1.705886914673339e-16 -5.2675907252834246e-17 -1.0
  outer loop
    vertex 4.800000000000025 0.0 4.5824455341403335e-15
    vertex 2.255973186038318e-14 0.0 5.639932965095795e-15
    vertex 4.800000000000025 1.6999999999999997 4.5824455341403335e-15
  endloop
endfacet
facet normal 1.0 0.0 0.0
  outer loop
    vertex 19.000000000000014 19.8 3.524958103184872e-16
    vertex 19.000000000000014 0.0 2.0
    vertex 19.000000000000014 0.0 0.0
  endloop
endfacet
facet normal 1.0 0.0 0.0
  outer loop
    vertex 19.000000000000014 0.0 2.0
    vertex 19.000000000000014 19.8 3.524958103184872e-16
    vertex 19.000000000000014 19.8 2.0
  endloop
endfacet
facet normal 4.232560062901232e-08 0.9999999999999992 -4.9473102466986395e-17
  outer loop
    vertex 0.0 57.000000804186406 2.0
    vertex 19.000000000000014 57.0 0.0
    vertex 0.0 57.000000804186406 0.0
  endloop
endfacet
facet normal 4.232560062901232e-08 0.9999999999999992 -4.9473102466986395e-17
  outer loop
    vertex 19.000000000000014 57.0 0.0
    vertex 0.0 57.000000804186406 2.0
    vertex 19.000000000000014 57.0 2.0
  endloop
endfacet
facet normal -1.0 -3.957847638964641e-16 1.484192896021416e-16
  outer loop
    vertex 0.0 57.000000804186406 2.0
    vertex 2.255973186038318e-14 0.0 5.639932965095795e-15
    vertex 2.255973186038318e-14 0.0 2.0000000000000058
  endloop
endfacet
facet normal -1.0 -3.957847638964641e-16 1.484192896021416e-16
  outer loop
    vertex 2.255973186038318e-14 0.0 5.639932965095795e-15
    vertex 0.0 57.000000804186406 2.0
    vertex 0.0 57.000000804186406 0.0
  endloop
endfacet
facet normal 0.0 -1.0 0.0
  outer loop
    vertex 4.800000000000025 0.0 2.0000000000000044
    vertex 2.255973186038318e-14 0.0 5.639932965095795e-15
    vertex 4.800000000000025 0.0 4.5824455341403335e-15
  endloop
endfacet
facet normal 0.0 -1.0 0.0
  outer loop
    vertex 2.255973186038318e-14 0.0 5.639932965095795e-15
    vertex 4.800000000000025 0.0 2.0000000000000044
    vertex 2.255973186038318e-14 0.0 2.0000000000000058
  endloop
endfacet
facet normal -1.0 0.0 0.0
  outer loop
    vertex 14.200000000000019 1.6999999999999997 2.0000000000000018
    vertex 14.200000000000019 0.0 1.762479051592436e-15
    vertex 14.200000000000019 0.0 2.0000000000000018
  endloop
endfacet
facet normal -1.0 0.0 0.0
  outer loop
    vertex 14.200000000000019 0.0 1.762479051592436e-15
    vertex 14.200000000000019 1.6999999999999997 2.0000000000000018
    vertex 14.200000000000019 1.6999999999999997 1.762479051592436e-15
  endloop
endfacet
facet normal 9.698190791850213e-61 -1.0 3.267159843663569e-45
  outer loop
    vertex 14.200000000000019 1.6999999999999997 2.0000000000000018
    vertex 4.800000000000025 1.6999999999999997 4.5824455341403335e-15
    vertex 14.200000000000019 1.6999999999999997 1.762479051592436e-15
  endloop
endfacet
facet normal 9.698190791850213e-61 -1.0 3.267159843663569e-45
  outer loop
    vertex 4.800000000000025 1.6999999999999997 4.5824455341403335e-15
    vertex 14.200000000000019 1.6999999999999997 2.0000000000000018
    vertex 4.800000000000025 1.6999999999999997 2.0000000000000044
  endloop
endfacet
facet normal 1.0 0.0 0.0
  outer loop
    vertex 4.800000000000025 1.6999999999999997 4.5824455341403335e-15
    vertex 4.800000000000025 0.0 2.0000000000000044
    vertex 4.800000000000025 0.0 4.5824455341403335e-15
  endloop
endfacet
facet normal 1.0 0.0 0.0
  outer loop
    vertex 4.800000000000025 0.0 2.0000000000000044
    vertex 4.800000000000025 1.6999999999999997 4.5824455341403335e-15
    vertex 4.800000000000025 1.6999999999999997 2.0000000000000044
  endloop
endfacet
facet normal 0.0 -1.0 0.0
  outer loop
    vertex 19.000000000000014 0.0 2.0
    vertex 14.200000000000019 0.0 1.762479051592436e-15
    vertex 19.000000000000014 0.0 0.0
  endloop
endfacet
facet normal 0.0 -1.0 0.0
  outer loop
    vertex 14.200000000000019 0.0 1.762479051592436e-15
    vertex 19.000000000000014 0.0 2.0
    vertex 14.200000000000019 0.0 2.0000000000000018
  endloop
endfacet
facet normal 1.771671716546732e-16 4.922541732659387e-17 1.0
  outer loop
    vertex 19.000000000000014 0.0 2.0
    vertex 14.200000000000019 1.6999999999999997 2.0000000000000018
    vertex 14.200000000000019 0.0 2.0000000000000018
  endloop
endfacet
facet normal 1.771671716546732e-16 4.922541732659387e-17 1.0
  outer loop
    vertex 14.200000000000019 1.6999999999999997 2.0000000000000018
    vertex 19.000000000000014 0.0 2.0
    vertex 17.300000000000015 19.8 2.0
  endloop
endfacet
facet normal 1.771671716546732e-16 4.922541732659387e-17 1.0
  outer loop
    vertex 17.300000000000015 19.8 2.0
    vertex 19.000000000000014 0.0 2.0
    vertex 19.000000000000014 19.8 2.0
  endloop
endfacet
facet normal 1.771671716546732e-16 4.922541732659387e-17 1.0
  outer loop
    vertex 2.255973186038318e-14 0.0 2.0000000000000058
    vertex 19.000000000000014 57.0 2.0
    vertex 0.0 57.000000804186406 2.0
  endloop
endfacet
facet normal 1.771671716546732e-16 4.922541732659387e-17 1.0
  outer loop
    vertex 19.000000000000014 57.0 2.0
    vertex 2.255973186038318e-14 0.0 2.0000000000000058
    vertex 4.800000000000025 1.6999999999999997 2.0000000000000044
  endloop
endfacet
facet normal 1.771671716546732e-16 4.922541732659387e-17 1.0
  outer loop
    vertex 4.800000000000025 1.6999999999999997 2.0000000000000044
    vertex 2.255973186038318e-14 0.0 2.0000000000000058
    vertex 4.800000000000025 0.0 2.0000000000000044
  endloop
endfacet
facet normal 1.771671716546732e-16 4.922541732659387e-17 1.0
  outer loop
    vertex 19.000000000000014 57.0 2.0
    vertex 4.800000000000025 1.6999999999999997 2.0000000000000044
    vertex 14.200000000000019 1.6999999999999997 2.0000000000000018
  endloop
endfacet
facet normal 1.771671716546732e-16 4.922541732659387e-17 1.0
  outer loop
    vertex 19.000000000000014 57.0 2.0
    vertex 14.200000000000019 1.6999999999999997 2.0000000000000018
    vertex 17.300000000000015 30.199999999999996 2.0
  endloop
endfacet
facet normal 1.771671716546732e-16 4.922541732659387e-17 1.0
  outer loop
    vertex 17.300000000000015 30.199999999999996 2.0
    vertex 14.200000000000019 1.6999999999999997 2.0000000000000018
    vertex 17.300000000000015 19.8 2.0
  endloop
endfacet
facet normal 1.771671716546732e-16 4.922541732659387e-17 1.0
  outer loop
    vertex 19.000000000000014 57.0 2.0
    vertex 17.300000000000015 30.199999999999996 2.0
    vertex 19.000000000000014 30.199999999999996 2.0
  endloop
endfacet
facet normal 0.0 -1.0 0.0
  outer loop
    vertex 19.000000000000014 30.199999999999996 2.0
    vertex 17.300000000000015 30.199999999999996 3.524958103184872e-16
    vertex 19.000000000000014 30.199999999999996 3.524958103184872e-16
  endloop
endfacet
facet normal 0.0 -1.0 0.0
  outer loop
    vertex 17.300000000000015 30.199999999999996 3.524958103184872e-16
    vertex 19.000000000000014 30.199999999999996 2.0
    vertex 17.300000000000015 30.199999999999996 2.0
  endloop
endfacet
facet normal 1.0 0.0 0.0
  outer loop
    vertex 17.300000000000015 30.199999999999996 3.524958103184872e-16
    vertex 17.300000000000015 19.8 2.0
    vertex 17.300000000000015 19.8 3.524958103184872e-16
  endloop
endfacet
facet normal 1.0 0.0 0.0
  outer loop
    vertex 17.300000000000015 19.8 2.0
    vertex 17.300000000000015 30.199999999999996 3.524958103184872e-16
    vertex 17.300000000000015 30.199999999999996 2.0
  endloop
endfacet
facet normal 0.0 1.0 0.0
  outer loop
    vertex 17.300000000000015 19.8 2.0
    vertex 19.000000000000014 19.8 3.524958103184872e-16
    vertex 17.300000000000015 19.8 3.524958103184872e-16
  endloop
endfacet
facet normal 0.0 1.0 0.0
  outer loop
    vertex 19.000000000000014 19.8 3.524958103184872e-16
    vertex 17.300000000000015 19.8 2.0
    vertex 19.000000000000014 19.8 2.0
  endloop
endfacet
facet normal 1.0 0.0 0.0
  outer loop
    vertex 19.000000000000014 57.0 0.0
    vertex 19.000000000000014 30.199999999999996 2.0
    vertex 19.000000000000014 30.199999999999996 3.524958103184872e-16
  endloop
endfacet
facet normal 1.0 0.0 0.0
  outer loop
    vertex 19.000000000000014 30.199999999999996 2.0
    vertex 19.000000000000014 57.0 0.0
    vertex 19.000000000000014 57.0 2.0
  endloop
endfacet
endsolid cover_bat_in
