solid cover_bat_out
facet normal 1.0 0.0 0.0
  outer loop
    vertex 20.500000000000025 57.0 0.0
    vertex 20.500000000000025 1.5000000000000029 2.000000000000003
    vertex 20.500000000000025 1.5000000000000029 2.996214387707141e-15
  endloop
endfacet
facet normal 1.0 0.0 0.0
  outer loop
    vertex 20.500000000000025 1.5000000000000029 2.000000000000003
    vertex 20.500000000000025 57.0 0.0
    vertex 20.500000000000025 57.0 2.0
  endloop
endfacet
facet normal 0.0 -1.0 0.0
  outer loop
    vertex 20.500000000000025 1.5000000000000029 2.000000000000003
    vertex 2.255973186038318e-14 1.5000000000000029 5.992428775414282e-15
    vertex 20.500000000000025 1.5000000000000029 2.996214387707141e-15
  endloop
endfacet
facet normal 0.0 -1.0 0.0
  outer loop
    vertex 2.255973186038318e-14 1.5000000000000029 5.992428775414282e-15
    vertex 20.500000000000025 1.5000000000000029 2.000000000000003
    vertex 15.500000000000028 1.5000000000000029 2.0000000000000036
  endloop
endfacet
facet normal 0.0 -1.0 0.0
  outer loop
    vertex 2.255973186038318e-14 1.5000000000000029 5.992428775414282e-15
    vertex 15.500000000000028 1.5000000000000029 2.0000000000000036
    vertex 2.255973186038318e-14 1.5000000000000029 2.000000000000006
  endloop
endfacet
facet normal 0.0 -1.0 0.0
  outer loop
    vertex 2.255973186038318e-14 1.5000000000000029 2.000000000000006
    vertex 15.500000000000028 1.5000000000000029 2.0000000000000036
    vertex 5.000000000000008 1.5000000000000029 2.0000000000000053
  endloop
endfacet
facet normal 1.4796172773855824e-16 5.703103692429336e-17 1.0
  outer loop
    vertex 20.500000000000025 1.5000000000000029 2.000000000000003
    vertex 15.500000000000028 3.000000000000003 2.0000000000000036
    vertex 15.500000000000028 1.5000000000000029 2.0000000000000036
  endloop
endfacet
facet normal 1.4796172773855824e-16 5.703103692429336e-17 1.0
  outer loop
    vertex 2.255973186038318e-14 1.5000000000000029 2.000000000000006
    vertex 6.578791603675711 57.0 2.0000000000000018
    vertex 0.0 57.0 2.000000000000003
  endloop
endfacet
facet normal 1.4796172773855824e-16 5.703103692429336e-17 1.0
  outer loop
    vertex 6.578791603675711 57.0 2.0000000000000018
    vertex 2.255973186038318e-14 1.5000000000000029 2.000000000000006
    vertex 5.000000000000008 3.000000000000003 2.0000000000000053
  endloop
endfacet
facet normal 1.4796172773855824e-16 5.703103692429336e-17 1.0
  outer loop
    vertex 5.000000000000008 3.000000000000003 2.0000000000000053
    vertex 2.255973186038318e-14 1.5000000000000029 2.000000000000006
    vertex 5.000000000000008 1.5000000000000029 2.0000000000000053
  endloop
endfacet
facet normal 1.4796172773855824e-16 5.703103692429336e-17 1.0
  outer loop
    vertex 6.578791603675711 57.0 2.0000000000000018
    vertex 5.000000000000008 3.000000000000003 2.0000000000000053
    vertex 15.500000000000028 3.000000000000003 2.0000000000000036
  endloop
endfacet
facet normal 1.4796172773855824e-16 5.703103692429336e-17 1.0
  outer loop
    vertex 6.578791603675711 57.0 2.0000000000000018
    vertex 15.500000000000028 3.000000000000003 2.0000000000000036
    vertex 6.785898384862253 56.50000000000001 2.0000000000000018
  endloop
endfacet
facet normal 1.4796172773855824e-16 5.703103692429336e-17 1.0
  outer loop
    vertex 6.785898384862253 56.50000000000001 2.0000000000000018
    vertex 15.500000000000028 3.000000000000003 2.0000000000000036
    vertex 7.421572875253818 55.67157287525381 2.0000000000000018
  endloop
endfacet
facet normal 1.4796172773855824e-16 5.703103692429336e-17 1.0
  outer loop
    vertex 7.421572875253818 55.67157287525381 2.0000000000000018
    vertex 15.500000000000028 3.000000000000003 2.0000000000000036
    vertex 8.250000000000007 55.03589838486225 2.0000000000000018
  endloop
endfacet
facet normal 1.4796172773855824e-16 5.703103692429336e-17 1.0
  outer loop
    vertex 8.250000000000007 55.03589838486225 2.0000000000000018
    vertex 15.500000000000028 3.000000000000003 2.0000000000000036
    vertex 9.21472381958993 54.63629669484374 2.0000000000000018
  endloop
endfacet
facet normal 1.4796172773855824e-16 5.703103692429336e-17 1.0
  outer loop
    vertex 9.21472381958993 54.63629669484374 2.0000000000000018
    vertex 15.500000000000028 3.000000000000003 2.0000000000000036
    vertex 10.250000000000014 54.500000000000014 2.0000000000000018
  endloop
endfacet
facet normal 1.4796172773855824e-16 5.703103692429336e-17 1.0
  outer loop
    vertex 10.250000000000014 54.500000000000014 2.0000000000000018
    vertex 15.500000000000028 3.000000000000003 2.0000000000000036
    vertex 11.285276180410095 54.63629669484374 2.0000000000000013
  endloop
endfacet
facet normal 1.4796172773855824e-16 5.703103692429336e-17 1.0
  outer loop
    vertex 11.285276180410095 54.63629669484374 2.0000000000000013
    vertex 15.500000000000028 3.000000000000003 2.0000000000000036
    vertex 12.250000000000018 55.03589838486225 2.0000000000000013
  endloop
endfacet
facet normal 1.4796172773855824e-16 5.703103692429336e-17 1.0
  outer loop
    vertex 12.250000000000018 55.03589838486225 2.0000000000000013
    vertex 15.500000000000028 3.000000000000003 2.0000000000000036
    vertex 13.078427124746206 55.67157287525381 2.0000000000000013
  endloop
endfacet
facet normal 1.4796172773855824e-16 5.703103692429336e-17 1.0
  outer loop
    vertex 13.078427124746206 55.67157287525381 2.0000000000000013
    vertex 15.500000000000028 3.000000000000003 2.0000000000000036
    vertex 13.714101615137771 56.50000000000001 2.000000000000001
  endloop
endfacet
facet normal 1.4796172773855824e-16 5.703103692429336e-17 1.0
  outer loop
    vertex 13.714101615137771 56.50000000000001 2.000000000000001
    vertex 15.500000000000028 3.000000000000003 2.0000000000000036
    vertex 13.921208396324316 57.0 2.000000000000001
  endloop
endfacet
facet normal 1.4796172773855824e-16 5.703103692429336e-17 1.0
  outer loop
    vertex 13.921208396324316 57.0 2.000000000000001
    vertex 15.500000000000028 3.000000000000003 2.0000000000000036
    vertex 20.500000000000025 57.0 2.0
  endloop
endfacet
facet normal 1.4796172773855824e-16 5.703103692429336e-17 1.0
  outer loop
    vertex 20.500000000000025 57.0 2.0
    vertex 15.500000000000028 3.000000000000003 2.0000000000000036
    vertex 20.500000000000025 1.5000000000000029 2.000000000000003
  endloop
endfacet
facet normal -1.0 -3.957847694804067e-16 1.7439059128714004e-31
  outer loop
    vertex 0.0 57.0 2.000000000000003
    vertex 2.255973186038318e-14 1.5000000000000029 5.992428775414282e-15
    vertex 2.255973186038318e-14 1.5000000000000029 2.000000000000006
  endloop
endfacet
facet normal -1.0 -3.957847694804067e-16 1.7439059128714004e-31
  outer loop
    vertex 2.255973186038318e-14 1.5000000000000029 5.992428775414282e-15
    vertex 0.0 57.0 2.000000000000003
    vertex 0.0 57.0 2.908090435127519e-15
  endloop
endfacet
facet normal -1.6785514777070782e-16 0.0 -1.0
  outer loop
    vertex 15.500000000000028 1.5000000000000029 2.0000000000000036
    vertex 5.000000000000008 0.0 2.0000000000000053
    vertex 5.000000000000008 1.5000000000000029 2.0000000000000053
  endloop
endfacet
facet normal -1.6785514777070782e-16 0.0 -1.0
  outer loop
    vertex 5.000000000000008 0.0 2.0000000000000053
    vertex 15.500000000000028 1.5000000000000029 2.0000000000000036
    vertex 15.500000000000028 0.0 2.0000000000000036
  endloop
endfacet
facet normal 0.0 -1.0 0.0
  outer loop
    vertex 15.500000000000028 0.0 3.500000000000004
    vertex 5.000000000000008 0.0 2.0000000000000053
    vertex 15.500000000000028 0.0 2.0000000000000036
  endloop
endfacet
facet normal 0.0 -1.0 0.0
  outer loop
    vertex 5.000000000000008 0.0 2.0000000000000053
    vertex 15.500000000000028 0.0 3.500000000000004
    vertex 5.000000000000008 0.0 3.5000000000000058
  endloop
endfacet
facet normal -1.0 0.0 0.0
  outer loop
    vertex 5.000000000000008 1.5000000000000029 3.5000000000000058
    vertex 5.000000000000008 0.0 2.0000000000000053
    vertex 5.000000000000008 0.0 3.5000000000000058
  endloop
endfacet
facet normal -1.0 0.0 0.0
  outer loop
    vertex 5.000000000000008 0.0 2.0000000000000053
    vertex 5.000000000000008 1.5000000000000029 3.5000000000000058
    vertex 5.000000000000008 1.5000000000000029 2.0000000000000053
  endloop
endfacet
facet normal -1.0 0.0 0.0
  outer loop
    vertex 5.000000000000008 1.5000000000000029 2.0000000000000053
    vertex 5.000000000000008 1.5000000000000029 3.5000000000000058
    vertex 5.000000000000008 3.000000000000003 2.0000000000000053
  endloop
endfacet
facet normal 1.0 0.0 0.0
  outer loop
    vertex 15.500000000000028 1.5000000000000029 2.0000000000000036
    vertex 15.500000000000028 0.0 3.500000000000004
    vertex 15.500000000000028 0.0 2.0000000000000036
  endloop
endfacet
facet normal 1.0 0.0 0.0
  outer loop
    vertex 15.500000000000028 0.0 3.500000000000004
    vertex 15.500000000000028 1.5000000000000029 2.0000000000000036
    vertex 15.500000000000028 1.5000000000000029 3.500000000000004
  endloop
endfacet
facet normal 1.0 0.0 0.0
  outer loop
    vertex 15.500000000000028 1.5000000000000029 3.500000000000004
    vertex 15.500000000000028 1.5000000000000029 2.0000000000000036
    vertex 15.500000000000028 3.000000000000003 2.0000000000000036
  endloop
endfacet
facet normal 1.3428411821656622e-16 0.0 1.0
  outer loop
    vertex 15.500000000000028 0.0 3.500000000000004
    vertex 5.000000000000008 1.5000000000000029 3.5000000000000058
    vertex 5.000000000000008 0.0 3.5000000000000058
  endloop
endfacet
facet normal 1.3428411821656622e-16 0.0 1.0
  outer loop
    vertex 5.000000000000008 1.5000000000000029 3.5000000000000058
    vertex 15.500000000000028 0.0 3.500000000000004
    vertex 15.500000000000028 1.5000000000000029 3.500000000000004
  endloop
endfacet
facet normal 1.1125916372582564e-16 0.7071067811865476 0.7071067811865476
  outer loop
    vertex 5.000000000000008 3.000000000000003 2.0000000000000053
    vertex 15.500000000000028 1.5000000000000029 3.500000000000004
    vertex 15.500000000000028 3.000000000000003 2.0000000000000036
  endloop
endfacet
facet normal 1.1125916372582564e-16 0.7071067811865476 0.7071067811865476
  outer loop
    vertex 15.500000000000028 1.5000000000000029 3.500000000000004
    vertex 5.000000000000008 3.000000000000003 2.0000000000000053
    vertex 5.000000000000008 1.5000000000000029 3.5000000000000058
  endloop
endfacet
facet normal 0.0 1.0 0.0
  outer loop
    vertex 0.0 57.0 2.908090435127519e-15
    vertex 6.578791603675711 57.0 2.0000000000000018
    vertex 6.578791603675711 57.0 2.026850909331301e-15
  endloop
endfacet
facet normal 0.0 1.0 0.0
  outer loop
    vertex 6.578791603675711 57.0 2.0000000000000018
    vertex 0.0 57.0 2.908090435127519e-15
    vertex 0.0 57.0 2.000000000000003
  endloop
endfacet
facet normal 0.0 1.0 0.0
  outer loop
    vertex 13.921208396324316 57.0 8.81239525796218e-16
    vertex 20.500000000000025 57.0 2.0
    vertex 20.500000000000025 57.0 0.0
  endloop
endfacet
facet normal 0.0 1.0 0.0
  outer loop
    vertex 20.500000000000025 57.0 2.0
    vertex 13.921208396324316 57.0 8.81239525796218e-16
    vertex 13.921208396324316 57.0 2.000000000000001
  endloop
endfacet
facet normal -0.13052619222005216 0.9914448613738105 1.8211736606585274e-18
  outer loop
    vertex 10.250000000000014 54.500000000000014 1.5862311464331924e-15
    vertex 11.285276180410095 54.63629669484374 2.0000000000000013
    vertex 11.285276180410095 54.63629669484374 1.4099832412739487e-15
  endloop
endfacet
facet normal -0.13052619222005216 0.9914448613738105 1.8211736606585274e-18
  outer loop
    vertex 11.285276180410095 54.63629669484374 2.0000000000000013
    vertex 10.250000000000014 54.500000000000014 1.5862311464331924e-15
    vertex 10.250000000000014 54.500000000000014 2.0000000000000018
  endloop
endfacet
facet normal -0.7933533402912347 0.6087614290087214 -9.683929885444352e-18
  outer loop
    vertex 13.714101615137771 56.50000000000001 2.000000000000001
    vertex 13.078427124746206 55.67157287525381 1.1456113835350834e-15
    vertex 13.078427124746206 55.67157287525381 2.0000000000000013
  endloop
endfacet
facet normal -0.7933533402912347 0.6087614290087214 -9.683929885444352e-18
  outer loop
    vertex 13.078427124746206 55.67157287525381 1.1456113835350834e-15
    vertex 13.714101615137771 56.50000000000001 2.000000000000001
    vertex 13.714101615137771 56.50000000000001 9.693634783758397e-16
  endloop
endfacet
facet normal 0.6087614290087179 0.7933533402912372 -3.2279766284815553e-18
  outer loop
    vertex 7.421572875253818 55.67157287525381 1.9387269567516795e-15
    vertex 8.250000000000007 55.03589838486225 2.0000000000000018
    vertex 8.250000000000007 55.03589838486225 1.8506030041720577e-15
  endloop
endfacet
facet normal 0.6087614290087179 0.7933533402912372 -3.2279766284815553e-18
  outer loop
    vertex 8.250000000000007 55.03589838486225 2.0000000000000018
    vertex 7.421572875253818 55.67157287525381 1.9387269567516795e-15
    vertex 7.421572875253818 55.67157287525381 2.0000000000000018
  endloop
endfacet
facet normal 0.7933533402912347 0.6087614290087213 -1.0645470061543682e-17
  outer loop
    vertex 6.785898384862253 56.50000000000001 2.026850909331301e-15
    vertex 7.421572875253818 55.67157287525381 2.0000000000000018
    vertex 7.421572875253818 55.67157287525381 1.9387269567516795e-15
  endloop
endfacet
facet normal 0.7933533402912347 0.6087614290087213 -1.0645470061543682e-17
  outer loop
    vertex 7.421572875253818 55.67157287525381 2.0000000000000018
    vertex 6.785898384862253 56.50000000000001 2.026850909331301e-15
    vertex 6.785898384862253 56.50000000000001 2.0000000000000018
  endloop
endfacet
facet normal 0.3826834323650894 0.9238795325112868 -4.157889557786921e-18
  outer loop
    vertex 8.250000000000007 55.03589838486225 1.8506030041720577e-15
    vertex 9.21472381958993 54.63629669484374 2.0000000000000018
    vertex 9.21472381958993 54.63629669484374 1.762479051592436e-15
  endloop
endfacet
facet normal 0.3826834323650894 0.9238795325112868 -4.157889557786921e-18
  outer loop
    vertex 9.21472381958993 54.63629669484374 2.0000000000000018
    vertex 8.250000000000007 55.03589838486225 1.8506030041720577e-15
    vertex 8.250000000000007 55.03589838486225 2.0000000000000018
  endloop
endfacet
facet normal -0.3826834323650894 0.9238795325112868 1.3859631859289746e-18
  outer loop
    vertex 11.285276180410095 54.63629669484374 1.4099832412739487e-15
    vertex 12.250000000000018 55.03589838486225 2.0000000000000013
    vertex 12.250000000000018 55.03589838486225 1.233735336114705e-15
  endloop
endfacet
facet normal -0.3826834323650894 0.9238795325112868 1.3859631859289746e-18
  outer loop
    vertex 12.250000000000018 55.03589838486225 2.0000000000000013
    vertex 11.285276180410095 54.63629669484374 1.4099832412739487e-15
    vertex 11.285276180410095 54.63629669484374 2.0000000000000013
  endloop
endfacet
facet normal -0.6087614290087179 0.7933533402912372 3.2279766284815553e-18
  outer loop
    vertex 12.250000000000018 55.03589838486225 1.233735336114705e-15
    vertex 13.078427124746206 55.67157287525381 2.0000000000000013
    vertex 13.078427124746206 55.67157287525381 1.1456113835350834e-15
  endloop
endfacet
facet normal -0.6087614290087179 0.7933533402912372 3.2279766284815553e-18
  outer loop
    vertex 13.078427124746206 55.67157287525381 2.0000000000000013
    vertex 12.250000000000018 55.03589838486225 1.233735336114705e-15
    vertex 12.250000000000018 55.03589838486225 2.0000000000000013
  endloop
endfacet
facet normal 0.13052619222005146 0.9914448613738105 2.397861789224028e-18
  outer loop
    vertex 9.21472381958993 54.63629669484374 1.762479051592436e-15
    vertex 10.250000000000014 54.500000000000014 2.0000000000000018
    vertex 10.250000000000014 54.500000000000014 1.5862311464331924e-15
  endloop
endfacet
facet normal 0.13052619222005146 0.9914448613738105 2.397861789224028e-18
  outer loop
    vertex 10.250000000000014 54.500000000000014 2.0000000000000018
    vertex 9.21472381958993 54.63629669484374 1.762479051592436e-15
    vertex 9.21472381958993 54.63629669484374 2.0000000000000018
  endloop
endfacet
facet normal -1.463556427320085e-16 -5.468280154165947e-17 -1.0
  outer loop
    vertex 6.578791603675711 57.0 2.026850909331301e-15
    vertex 2.255973186038318e-14 1.5000000000000029 5.992428775414282e-15
    vertex 0.0 57.0 2.908090435127519e-15
  endloop
endfacet
facet normal -1.463556427320085e-16 -5.468280154165947e-17 -1.0
  outer loop
    vertex 2.255973186038318e-14 1.5000000000000029 5.992428775414282e-15
    vertex 6.578791603675711 57.0 2.026850909331301e-15
    vertex 20.500000000000025 1.5000000000000029 2.996214387707141e-15
  endloop
endfacet
facet normal -1.463556427320085e-16 -5.468280154165947e-17 -1.0
  outer loop
    vertex 20.500000000000025 1.5000000000000029 2.996214387707141e-15
    vertex 6.578791603675711 57.0 2.026850909331301e-15
    vertex 6.785898384862253 56.50000000000001 2.026850909331301e-15
  endloop
endfacet
facet normal -1.463556427320085e-16 -5.468280154165947e-17 -1.0
  outer loop
    vertex 20.500000000000025 1.5000000000000029 2.996214387707141e-15
    vertex 6.785898384862253 56.50000000000001 2.026850909331301e-15
    vertex 7.421572875253818 55.67157287525381 1.9387269567516795e-15
  endloop
endfacet
facet normal -1.463556427320085e-16 -5.468280154165947e-17 -1.0
  outer loop
    vertex 20.500000000000025 1.5000000000000029 2.996214387707141e-15
    vertex 7.421572875253818 55.67157287525381 1.9387269567516795e-15
    vertex 8.250000000000007 55.03589838486225 1.8506030041720577e-15
  endloop
endfacet
facet normal -1.463556427320085e-16 -5.468280154165947e-17 -1.0
  outer loop
    vertex 20.500000000000025 1.5000000000000029 2.996214387707141e-15
    vertex 8.250000000000007 55.03589838486225 1.8506030041720577e-15
    vertex 9.21472381958993 54.63629669484374 1.762479051592436e-15
  endloop
endfacet
facet normal -1.463556427320085e-16 -5.468280154165947e-17 -1.0
  outer loop
    vertex 20.500000000000025 1.5000000000000029 2.996214387707141e-15
    vertex 9.21472381958993 54.63629669484374 1.762479051592436e-15
    vertex 10.250000000000014 54.500000000000014 1.5862311464331924e-15
  endloop
endfacet
facet normal -1.463556427320085e-16 -5.468280154165947e-17 -1.0
  outer loop
    vertex 20.500000000000025 1.5000000000000029 2.996214387707141e-15
    vertex 10.250000000000014 54.500000000000014 1.5862311464331924e-15
    vertex 11.285276180410095 54.63629669484374 1.4099832412739487e-15
  endloop
endfacet
facet normal -1.463556427320085e-16 -5.468280154165947e-17 -1.0
  outer loop
    vertex 20.500000000000025 1.5000000000000029 2.996214387707141e-15
    vertex 11.285276180410095 54.63629669484374 1.4099832412739487e-15
    vertex 12.250000000000018 55.03589838486225 1.233735336114705e-15
  endloop
endfacet
facet normal -1.463556427320085e-16 -5.468280154165947e-17 -1.0
  outer loop
    vertex 20.500000000000025 1.5000000000000029 2.996214387707141e-15
    vertex 12.250000000000018 55.03589838486225 1.233735336114705e-15
    vertex 13.078427124746206 55.67157287525381 1.1456113835350834e-15
  endloop
endfacet
facet normal -1.463556427320085e-16 -5.468280154165947e-17 -1.0
  outer loop
    vertex 20.500000000000025 1.5000000000000029 2.996214387707141e-15
    vertex 13.078427124746206 55.67157287525381 1.1456113835350834e-15
    vertex 13.714101615137771 56.50000000000001 9.693634783758397e-16
  endloop
endfacet
facet normal -1.463556427320085e-16 -5.468280154165947e-17 -1.0
  outer loop
    vertex 20.500000000000025 1.5000000000000029 2.996214387707141e-15
    vertex 13.714101615137771 56.50000000000001 9.693634783758397e-16
    vertex 13.921208396324316 57.0 8.81239525796218e-16
  endloop
endfacet
facet normal -1.463556427320085e-16 -5.468280154165947e-17 -1.0
  outer loop
    vertex 20.500000000000025 1.5000000000000029 2.996214387707141e-15
    vertex 13.921208396324316 57.0 8.81239525796218e-16
    vertex 20.500000000000025 57.0 0.0
  endloop
endfacet
facet normal -0.9238795325112868 0.38268343236508945 9.509935581546451e-32
  outer loop
    vertex 13.921208396324316 57.0 2.000000000000001
    vertex 13.714101615137771 56.50000000000001 9.693634783758397e-16
    vertex 13.714101615137771 56.50000000000001 2.000000000000001
  endloop
endfacet
facet normal -0.9238795325112868 0.38268343236508945 9.509935581546451e-32
  outer loop
    vertex 13.714101615137771 56.50000000000001 9.693634783758397e-16
    vertex 13.921208396324316 57.0 2.000000000000001
    vertex 13.921208396324316 57.0 8.81239525796218e-16
  endloop
endfacet
facet normal 0.9238795325112888 0.38268343236508495 0.0
  outer loop
    vertex 6.578791603675711 57.0 2.026850909331301e-15
    vertex 6.785898384862253 56.50000000000001 2.0000000000000018
    vertex 6.785898384862253 56.50000000000001 2.026850909331301e-15
  endloop
endfacet
facet normal 0.9238795325112888 0.38268343236508495 0.0
  outer loop
    vertex 6.785898384862253 56.50000000000001 2.0000000000000018
    vertex 6.578791603675711 57.0 2.026850909331301e-15
    vertex 6.578791603675711 57.0 2.0000000000000018
  endloop
endfacet
endsolid cover_bat_out
