solid mouse
facet normal 1.0 -2.1363382443544616e-16 -8.812395258673253e-16
  outer loop
    vertex 18.600000000000026 16.000000000698936 2.6627605773099637e-09
    vertex 18.600000000000026 2.799999999999991 4.200000000465978
    vertex 18.600000000000026 2.800000000698961 4.659809552109984e-10
  endloop
endfacet
facet normal 1.0 -2.1363382443544616e-16 -8.812395258673253e-16
  outer loop
    vertex 18.600000000000026 2.799999999999991 4.200000000465978
    vertex 18.600000000000026 16.000000000698936 2.6627605773099637e-09
    vertex 18.600000000000033 15.999999999999968 4.200000002662756
  endloop
endfacet
facet normal 3.555327074501912e-26 -1.6642154321289127e-10 1.0
  outer loop
    vertex 5.300000000000024 4.900000000166409 3.200000000815482
    vertex 4.8000000000000025 13.900000000166392 3.2000000023132755
    vertex 4.8000000000000025 4.900000000166409 3.200000000815482
  endloop
endfacet
facet normal 3.555327074501912e-26 -1.6642154321289127e-10 1.0
  outer loop
    vertex 4.8000000000000025 13.900000000166392 3.2000000023132755
    vertex 5.300000000000024 4.900000000166409 3.200000000815482
    vertex 5.300000000000024 13.900000000166392 3.2000000023132755
  endloop
endfacet
facet normal 1.4665724182911995e-25 1.0 1.6642154321289127e-10
  outer loop
    vertex 2.800000000000006 18.80000000069893 3.128743647495824e-09
    vertex 15.800000000000033 18.79999999999996 4.200000003128738
    vertex 15.800000000000027 18.80000000069893 3.128742237512583e-09
  endloop
endfacet
facet normal 1.4665724182911995e-25 1.0 1.6642154321289127e-10
  outer loop
    vertex 15.800000000000033 18.79999999999996 4.200000003128738
    vertex 2.800000000000006 18.80000000069893 3.128743647495824e-09
    vertex 2.800000000000006 18.79999999999996 4.200000003128744
  endloop
endfacet
facet normal 3.555327074501912e-26 -1.6642154321289127e-10 1.0
  outer loop
    vertex 13.800000000000031 4.900000000166409 3.2000000008154874
    vertex 13.30000000000001 13.900000000166392 3.200000002313281
    vertex 13.30000000000001 4.900000000166409 3.2000000008154874
  endloop
endfacet
facet normal 3.555327074501912e-26 -1.6642154321289127e-10 1.0
  outer loop
    vertex 13.30000000000001 13.900000000166392 3.200000002313281
    vertex 13.800000000000031 4.900000000166409 3.2000000008154874
    vertex 13.800000000000031 13.900000000166392 3.200000002313281
  endloop
endfacet
facet normal 1.0 -1.4665724182320312e-25 -3.555327076942604e-26
  outer loop
    vertex 4.8000000000000025 13.900000000166392 3.2000000023132755
    vertex 4.8000000000000025 4.899999999999987 4.200000000815479
    vertex 4.8000000000000025 4.900000000166409 3.200000000815482
  endloop
endfacet
facet normal 1.0 -1.4665724182320312e-25 -3.555327076942604e-26
  outer loop
    vertex 4.8000000000000025 4.899999999999987 4.200000000815479
    vertex 4.8000000000000025 13.900000000166392 3.2000000023132755
    vertex 4.8000000000000025 13.899999999999972 4.200000002313273
  endloop
endfacet
facet normal 1.0 -1.4665724182320312e-25 -3.555327076942604e-26
  outer loop
    vertex 5.300000000000024 13.900000000366099 2.000000002313275
    vertex 5.300000000000024 4.900000000166409 3.200000000815482
    vertex 5.300000000000024 4.900000000366115 2.000000000815481
  endloop
endfacet
facet normal 1.0 -1.4665724182320312e-25 -3.555327076942604e-26
  outer loop
    vertex 5.300000000000024 4.900000000166409 3.200000000815482
    vertex 5.300000000000024 13.900000000366099 2.000000002313275
    vertex 5.300000000000024 13.900000000166392 3.2000000023132755
  endloop
endfacet
facet normal -4.440091457251854e-16 1.6642235769184693e-10 -1.0
  outer loop
    vertex 3.0000000000000058 15.800000000366095 2.0000000026294753
    vertex 5.300000000000024 13.900000000366099 2.000000002313275
    vertex 3.0000000000000058 3.0000000003661182 2.0000000004992797
  endloop
endfacet
facet normal -4.440091457251854e-16 1.6642235769184693e-10 -1.0
  outer loop
    vertex 5.300000000000024 13.900000000366099 2.000000002313275
    vertex 3.0000000000000058 15.800000000366095 2.0000000026294753
    vertex 15.600000000000028 15.800000000366095 2.000000002629481
  endloop
endfacet
facet normal -4.440091457251854e-16 1.6642235769184693e-10 -1.0
  outer loop
    vertex 5.300000000000024 13.900000000366099 2.000000002313275
    vertex 15.600000000000028 15.800000000366095 2.000000002629481
    vertex 13.30000000000001 13.900000000366099 2.0000000023132802
  endloop
endfacet
facet normal -4.440091457251854e-16 1.6642235769184693e-10 -1.0
  outer loop
    vertex 13.30000000000001 13.900000000366099 2.0000000023132802
    vertex 15.600000000000028 15.800000000366095 2.000000002629481
    vertex 13.30000000000001 4.900000000366115 2.0000000008154837
  endloop
endfacet
facet normal -4.440091457251854e-16 1.6642235769184693e-10 -1.0
  outer loop
    vertex 3.0000000000000058 3.0000000003661182 2.0000000004992797
    vertex 5.300000000000024 4.900000000366115 2.000000000815481
    vertex 15.600000000000028 3.0000000003661182 2.000000000499263
  endloop
endfacet
facet normal -4.440091457251854e-16 1.6642235769184693e-10 -1.0
  outer loop
    vertex 5.300000000000024 4.900000000366115 2.000000000815481
    vertex 3.0000000000000058 3.0000000003661182 2.0000000004992797
    vertex 5.300000000000024 13.900000000366099 2.000000002313275
  endloop
endfacet
facet normal -4.440091457251854e-16 1.6642235769184693e-10 -1.0
  outer loop
    vertex 15.600000000000028 3.0000000003661182 2.000000000499263
    vertex 5.300000000000024 4.900000000366115 2.000000000815481
    vertex 13.30000000000001 4.900000000366115 2.0000000008154837
  endloop
endfacet
facet normal -4.440091457251854e-16 1.6642235769184693e-10 -1.0
  outer loop
    vertex 15.600000000000028 3.0000000003661182 2.000000000499263
    vertex 13.30000000000001 4.900000000366115 2.0000000008154837
    vertex 15.600000000000028 15.800000000366095 2.000000002629481
  endloop
endfacet
facet normal -1.0 1.4665724182320312e-25 3.555327076942604e-26
  outer loop
    vertex 13.800000000000031 13.899999999999972 4.2000000023132795
    vertex 13.800000000000031 4.900000000166409 3.2000000008154874
    vertex 13.800000000000031 4.899999999999987 4.200000000815485
  endloop
endfacet
facet normal -1.0 1.4665724182320312e-25 3.555327076942604e-26
  outer loop
    vertex 13.800000000000031 4.900000000166409 3.2000000008154874
    vertex 13.800000000000031 13.899999999999972 4.2000000023132795
    vertex 13.800000000000031 13.900000000166392 3.200000002313281
  endloop
endfacet
facet normal -1.0 4.399734866491441e-25 -1.7624790515568844e-15
  outer loop
    vertex 2.8000000000000007 2.799999999999991 4.200000000465992
    vertex 2.800000000000006 6.989665735090939e-10 1.1632361740510077e-14
    vertex 2.8000000000000007 -3.907985048946897e-15 4.200000000000008
  endloop
endfacet
facet normal -1.0 4.399734866491441e-25 -1.7624790515568844e-15
  outer loop
    vertex 2.800000000000006 6.989665735090939e-10 1.1632361740510077e-14
    vertex 2.8000000000000007 2.799999999999991 4.200000000465992
    vertex 2.800000000000006 2.800000000698961 4.659950550434111e-10
  endloop
endfacet
facet normal -1.0 1.4665724182320312e-25 3.555327076942604e-26
  outer loop
    vertex 2.800000000000006 18.79999999999996 4.200000003128744
    vertex 2.800000000000006 16.000000000698936 2.6627591673267225e-09
    vertex 2.800000000000006 15.999999999999968 4.200000002662759
  endloop
endfacet
facet normal -1.0 1.4665724182320312e-25 3.555327076942604e-26
  outer loop
    vertex 2.800000000000006 16.000000000698936 2.6627591673267225e-09
    vertex 2.800000000000006 18.79999999999996 4.200000003128744
    vertex 2.800000000000006 18.80000000069893 3.128743647495824e-09
  endloop
endfacet
facet normal -1.0 1.4665724182320312e-25 3.555327076942604e-26
  outer loop
    vertex 13.30000000000001 13.900000000166392 3.200000002313281
    vertex 13.30000000000001 4.900000000366115 2.0000000008154837
    vertex 13.30000000000001 4.900000000166409 3.2000000008154874
  endloop
endfacet
facet normal -1.0 1.4665724182320312e-25 3.555327076942604e-26
  outer loop
    vertex 13.30000000000001 4.900000000366115 2.0000000008154837
    vertex 13.30000000000001 13.900000000166392 3.200000002313281
    vertex 13.30000000000001 13.900000000366099 2.0000000023132802
  endloop
endfacet
facet normal -1.0 2.1363382472876224e-16 -8.812395257251116e-16
  outer loop
    vertex 5.639932967556081e-15 15.999999999999968 4.200000002662764
    vertex 5.6399329654708825e-15 2.800000000698961 4.659936450601698e-10
    vertex 5.244107435055967e-25 2.799999999999991 4.20000000046599
  endloop
endfacet
facet normal -1.0 2.1363382472876224e-16 -8.812395257251116e-16
  outer loop
    vertex 5.6399329654708825e-15 2.800000000698961 4.659936450601698e-10
    vertex 5.639932967556081e-15 15.999999999999968 4.200000002662764
    vertex 5.6399329674067574e-15 16.000000000698936 2.6627648072596877e-09
  endloop
endfacet
facet normal 1.0 -1.4665724182320312e-25 -3.555327076942604e-26
  outer loop
    vertex 15.800000000000027 2.800000000698961 4.659781352445158e-10
    vertex 15.800000000000027 -3.907985048946897e-15 4.1999999999999975
    vertex 15.800000000000027 6.989665735090939e-10 3.524958103184872e-16
  endloop
endfacet
facet normal 1.0 -1.4665724182320312e-25 -3.555327076942604e-26
  outer loop
    vertex 15.800000000000027 -3.907985048946897e-15 4.1999999999999975
    vertex 15.800000000000027 2.800000000698961 4.659781352445158e-10
    vertex 15.800000000000027 2.799999999999991 4.200000000465978
  endloop
endfacet
facet normal -1.4665724182911995e-25 -1.0 -1.6642154321289127e-10
  outer loop
    vertex 13.800000000000031 13.899999999999972 4.2000000023132795
    vertex 13.30000000000001 13.900000000166392 3.200000002313281
    vertex 13.800000000000031 13.900000000166392 3.200000002313281
  endloop
endfacet
facet normal -1.4665724182911995e-25 -1.0 -1.6642154321289127e-10
  outer loop
    vertex 13.30000000000001 13.900000000166392 3.200000002313281
    vertex 13.800000000000031 13.899999999999972 4.2000000023132795
    vertex 4.8000000000000025 13.899999999999972 4.200000002313273
  endloop
endfacet
facet normal -1.4665724182911995e-25 -1.0 -1.6642154321289127e-10
  outer loop
    vertex 13.30000000000001 13.900000000366099 2.0000000023132802
    vertex 5.300000000000024 13.900000000166392 3.2000000023132755
    vertex 5.300000000000024 13.900000000366099 2.000000002313275
  endloop
endfacet
facet normal -1.4665724182911995e-25 -1.0 -1.6642154321289127e-10
  outer loop
    vertex 5.300000000000024 13.900000000166392 3.2000000023132755
    vertex 13.30000000000001 13.900000000366099 2.0000000023132802
    vertex 13.30000000000001 13.900000000166392 3.200000002313281
  endloop
endfacet
facet normal -1.4665724182911995e-25 -1.0 -1.6642154321289127e-10
  outer loop
    vertex 5.300000000000024 13.900000000166392 3.2000000023132755
    vertex 13.30000000000001 13.900000000166392 3.200000002313281
    vertex 4.8000000000000025 13.900000000166392 3.2000000023132755
  endloop
endfacet
facet normal -1.4665724182911995e-25 -1.0 -1.6642154321289127e-10
  outer loop
    vertex 4.8000000000000025 13.900000000166392 3.2000000023132755
    vertex 13.30000000000001 13.900000000166392 3.200000002313281
    vertex 4.8000000000000025 13.899999999999972 4.200000002313273
  endloop
endfacet
facet normal 1.4665724182911995e-25 1.0 1.6642154321289127e-10
  outer loop
    vertex 4.8000000000000025 4.899999999999987 4.200000000815479
    vertex 5.300000000000024 4.900000000166409 3.200000000815482
    vertex 4.8000000000000025 4.900000000166409 3.200000000815482
  endloop
endfacet
facet normal 1.4665724182911995e-25 1.0 1.6642154321289127e-10
  outer loop
    vertex 5.300000000000024 4.900000000166409 3.200000000815482
    vertex 4.8000000000000025 4.899999999999987 4.200000000815479
    vertex 13.30000000000001 4.900000000166409 3.2000000008154874
  endloop
endfacet
facet normal 1.4665724182911995e-25 1.0 1.6642154321289127e-10
  outer loop
    vertex 13.30000000000001 4.900000000166409 3.2000000008154874
    vertex 4.8000000000000025 4.899999999999987 4.200000000815479
    vertex 13.800000000000031 4.900000000166409 3.2000000008154874
  endloop
endfacet
facet normal 1.4665724182911995e-25 1.0 1.6642154321289127e-10
  outer loop
    vertex 13.800000000000031 4.900000000166409 3.2000000008154874
    vertex 4.8000000000000025 4.899999999999987 4.200000000815479
    vertex 13.800000000000031 4.899999999999987 4.200000000815485
  endloop
endfacet
facet normal 1.4665724182911995e-25 1.0 1.6642154321289127e-10
  outer loop
    vertex 5.300000000000024 4.900000000166409 3.200000000815482
    vertex 13.30000000000001 4.900000000366115 2.0000000008154837
    vertex 5.300000000000024 4.900000000366115 2.000000000815481
  endloop
endfacet
facet normal 1.4665724182911995e-25 1.0 1.6642154321289127e-10
  outer loop
    vertex 13.30000000000001 4.900000000366115 2.0000000008154837
    vertex 5.300000000000024 4.900000000166409 3.200000000815482
    vertex 13.30000000000001 4.900000000166409 3.2000000008154874
  endloop
endfacet
facet normal -1.4665724182911995e-25 -1.0 -1.6642154321289127e-10
  outer loop
    vertex 18.600000000000026 2.800000000698961 4.659809552109984e-10
    vertex 15.800000000000027 2.799999999999991 4.200000000465978
    vertex 15.800000000000027 2.800000000698961 4.659781352445158e-10
  endloop
endfacet
facet normal -1.4665724182911995e-25 -1.0 -1.6642154321289127e-10
  outer loop
    vertex 15.800000000000027 2.799999999999991 4.200000000465978
    vertex 18.600000000000026 2.800000000698961 4.659809552109984e-10
    vertex 18.600000000000026 2.799999999999991 4.200000000465978
  endloop
endfacet
facet normal -1.0 1.4665724182320312e-25 3.555327076942604e-26
  outer loop
    vertex 15.600000000000028 15.800000000366095 2.000000002629481
    vertex 15.600000000000028 3.000000000698961 4.992625521338389e-10
    vertex 15.600000000000028 3.0000000003661182 2.000000000499263
  endloop
endfacet
facet normal -1.0 1.4665724182320312e-25 3.555327076942604e-26
  outer loop
    vertex 15.600000000000028 3.000000000698961 4.992625521338389e-10
    vertex 15.600000000000028 15.800000000366095 2.000000002629481
    vertex 15.600000000000028 15.800000000698937 2.629480037874554e-09
  endloop
endfacet
facet normal 1.4665724182911995e-25 1.0 1.6642154321289127e-10
  outer loop
    vertex 3.0000000000000058 3.000000000698961 4.992794719327343e-10
    vertex 15.600000000000028 3.0000000003661182 2.000000000499263
    vertex 15.600000000000028 3.000000000698961 4.992625521338389e-10
  endloop
endfacet
facet normal 1.4665724182911995e-25 1.0 1.6642154321289127e-10
  outer loop
    vertex 15.600000000000028 3.0000000003661182 2.000000000499263
    vertex 3.0000000000000058 3.000000000698961 4.992794719327343e-10
    vertex 3.0000000000000058 3.0000000003661182 2.0000000004992797
  endloop
endfacet
facet normal 1.0 -1.4665724182320312e-25 -3.555327076942604e-26
  outer loop
    vertex 3.0000000000000058 15.800000000698937 2.629474397941589e-09
    vertex 3.0000000000000058 3.0000000003661182 2.0000000004992797
    vertex 3.0000000000000058 3.000000000698961 4.992794719327343e-10
  endloop
endfacet
facet normal 1.0 -1.4665724182320312e-25 -3.555327076942604e-26
  outer loop
    vertex 3.0000000000000058 3.0000000003661182 2.0000000004992797
    vertex 3.0000000000000058 15.800000000698937 2.629474397941589e-09
    vertex 3.0000000000000058 15.800000000366095 2.0000000026294753
  endloop
endfacet
facet normal -1.4665724182911995e-25 -1.0 -1.6642154321289127e-10
  outer loop
    vertex 15.600000000000028 15.800000000698937 2.629480037874554e-09
    vertex 3.0000000000000058 15.800000000366095 2.0000000026294753
    vertex 3.0000000000000058 15.800000000698937 2.629474397941589e-09
  endloop
endfacet
facet normal -1.4665724182911995e-25 -1.0 -1.6642154321289127e-10
  outer loop
    vertex 3.0000000000000058 15.800000000366095 2.0000000026294753
    vertex 15.600000000000028 15.800000000698937 2.629480037874554e-09
    vertex 15.600000000000028 15.800000000366095 2.000000002629481
  endloop
endfacet
facet normal 1.0 1.46655480643669e-25 -1.762479051627992e-15
  outer loop
    vertex 15.800000000000027 18.80000000069893 3.128742237512583e-09
    vertex 15.800000000000033 15.999999999999968 4.200000002662761
    vertex 15.800000000000027 16.000000000698936 2.6627648072596877e-09
  endloop
endfacet
facet normal 1.0 1.46655480643669e-25 -1.762479051627992e-15
  outer loop
    vertex 15.800000000000033 15.999999999999968 4.200000002662761
    vertex 15.800000000000027 18.80000000069893 3.128742237512583e-09
    vertex 15.800000000000033 18.79999999999996 4.200000003128738
  endloop
endfacet
facet normal 1.4665724182911995e-25 1.0 1.6642154321289127e-10
  outer loop
    vertex 15.800000000000027 16.000000000698936 2.6627648072596877e-09
    vertex 18.600000000000033 15.999999999999968 4.200000002662756
    vertex 18.600000000000026 16.000000000698936 2.6627605773099637e-09
  endloop
endfacet
facet normal 1.4665724182911995e-25 1.0 1.6642154321289127e-10
  outer loop
    vertex 18.600000000000033 15.999999999999968 4.200000002662756
    vertex 15.800000000000027 16.000000000698936 2.6627648072596877e-09
    vertex 15.800000000000033 15.999999999999968 4.200000002662761
  endloop
endfacet
facet normal -1.4665724182911995e-25 -1.0 -1.6642154321289127e-10
  outer loop
    vertex 15.800000000000027 -3.907985048946897e-15 4.1999999999999975
    vertex 2.800000000000006 6.989665735090939e-10 1.1632361740510077e-14
    vertex 15.800000000000027 6.989665735090939e-10 3.524958103184872e-16
  endloop
endfacet
facet normal -1.4665724182911995e-25 -1.0 -1.6642154321289127e-10
  outer loop
    vertex 2.800000000000006 6.989665735090939e-10 1.1632361740510077e-14
    vertex 15.800000000000027 -3.907985048946897e-15 4.1999999999999975
    vertex 2.8000000000000007 -3.907985048946897e-15 4.200000000000008
  endloop
endfacet
facet normal 1.4665724182911995e-25 1.0 1.6642154321289127e-10
  outer loop
    vertex 5.6399329674067574e-15 16.000000000698936 2.6627648072596877e-09
    vertex 2.800000000000006 15.999999999999968 4.200000002662759
    vertex 2.800000000000006 16.000000000698936 2.6627591673267225e-09
  endloop
endfacet
facet normal 1.4665724182911995e-25 1.0 1.6642154321289127e-10
  outer loop
    vertex 2.800000000000006 15.999999999999968 4.200000002662759
    vertex 5.6399329674067574e-15 16.000000000698936 2.6627648072596877e-09
    vertex 5.639932967556081e-15 15.999999999999968 4.200000002662764
  endloop
endfacet
facet normal -4.97143205602442e-16 1.6642229892457945e-10 -1.0
  outer loop
    vertex 15.800000000000027 18.80000000069893 3.128742237512583e-09
    vertex 2.800000000000006 16.000000000698936 2.6627591673267225e-09
    vertex 2.800000000000006 18.80000000069893 3.128743647495824e-09
  endloop
endfacet
facet normal -4.97143205602442e-16 1.6642229892457945e-10 -1.0
  outer loop
    vertex 2.800000000000006 16.000000000698936 2.6627591673267225e-09
    vertex 15.800000000000027 18.80000000069893 3.128742237512583e-09
    vertex 3.0000000000000058 15.800000000698937 2.629474397941589e-09
  endloop
endfacet
facet normal -4.97143205602442e-16 1.6642229892457945e-10 -1.0
  outer loop
    vertex 2.800000000000006 16.000000000698936 2.6627591673267225e-09
    vertex 3.0000000000000058 15.800000000698937 2.629474397941589e-09
    vertex 2.800000000000006 2.800000000698961 4.659950550434111e-10
  endloop
endfacet
facet normal -4.97143205602442e-16 1.6642229892457945e-10 -1.0
  outer loop
    vertex 2.800000000000006 2.800000000698961 4.659950550434111e-10
    vertex 3.0000000000000058 15.800000000698937 2.629474397941589e-09
    vertex 2.800000000000006 6.989665735090939e-10 1.1632361740510077e-14
  endloop
endfacet
facet normal -4.97143205602442e-16 1.6642229892457945e-10 -1.0
  outer loop
    vertex 3.0000000000000058 15.800000000698937 2.629474397941589e-09
    vertex 15.800000000000027 18.80000000069893 3.128742237512583e-09
    vertex 15.600000000000028 15.800000000698937 2.629480037874554e-09
  endloop
endfacet
facet normal -4.97143205602442e-16 1.6642229892457945e-10 -1.0
  outer loop
    vertex 15.600000000000028 15.800000000698937 2.629480037874554e-09
    vertex 15.800000000000027 18.80000000069893 3.128742237512583e-09
    vertex 15.600000000000028 3.000000000698961 4.992625521338389e-10
  endloop
endfacet
facet normal -4.97143205602442e-16 1.6642229892457945e-10 -1.0
  outer loop
    vertex 18.600000000000026 16.000000000698936 2.6627605773099637e-09
    vertex 15.800000000000027 2.800000000698961 4.659781352445158e-10
    vertex 15.800000000000027 16.000000000698936 2.6627648072596877e-09
  endloop
endfacet
facet normal -4.97143205602442e-16 1.6642229892457945e-10 -1.0
  outer loop
    vertex 15.800000000000027 2.800000000698961 4.659781352445158e-10
    vertex 18.600000000000026 16.000000000698936 2.6627605773099637e-09
    vertex 18.600000000000026 2.800000000698961 4.659809552109984e-10
  endloop
endfacet
facet normal -4.97143205602442e-16 1.6642229892457945e-10 -1.0
  outer loop
    vertex 2.800000000000006 6.989665735090939e-10 1.1632361740510077e-14
    vertex 3.0000000000000058 3.000000000698961 4.992794719327343e-10
    vertex 15.800000000000027 6.989665735090939e-10 3.524958103184872e-16
  endloop
endfacet
facet normal -4.97143205602442e-16 1.6642229892457945e-10 -1.0
  outer loop
    vertex 3.0000000000000058 3.000000000698961 4.992794719327343e-10
    vertex 2.800000000000006 6.989665735090939e-10 1.1632361740510077e-14
    vertex 3.0000000000000058 15.800000000698937 2.629474397941589e-09
  endloop
endfacet
facet normal -4.97143205602442e-16 1.6642229892457945e-10 -1.0
  outer loop
    vertex 15.800000000000027 6.989665735090939e-10 3.524958103184872e-16
    vertex 3.0000000000000058 3.000000000698961 4.992794719327343e-10
    vertex 15.600000000000028 3.000000000698961 4.992625521338389e-10
  endloop
endfacet
facet normal -4.97143205602442e-16 1.6642229892457945e-10 -1.0
  outer loop
    vertex 15.800000000000027 6.989665735090939e-10 3.524958103184872e-16
    vertex 15.600000000000028 3.000000000698961 4.992625521338389e-10
    vertex 15.800000000000027 18.80000000069893 3.128742237512583e-09
  endloop
endfacet
facet normal -4.97143205602442e-16 1.6642229892457945e-10 -1.0
  outer loop
    vertex 15.800000000000027 6.989665735090939e-10 3.524958103184872e-16
    vertex 15.800000000000027 18.80000000069893 3.128742237512583e-09
    vertex 15.800000000000027 16.000000000698936 2.6627648072596877e-09
  endloop
endfacet
facet normal -4.97143205602442e-16 1.6642229892457945e-10 -1.0
  outer loop
    vertex 15.800000000000027 6.989665735090939e-10 3.524958103184872e-16
    vertex 15.800000000000027 16.000000000698936 2.6627648072596877e-09
    vertex 15.800000000000027 2.800000000698961 4.659781352445158e-10
  endloop
endfacet
facet normal -4.97143205602442e-16 1.6642229892457945e-10 -1.0
  outer loop
    vertex 2.800000000000006 16.000000000698936 2.6627591673267225e-09
    vertex 5.6399329654708825e-15 2.800000000698961 4.659936450601698e-10
    vertex 5.6399329674067574e-15 16.000000000698936 2.6627648072596877e-09
  endloop
endfacet
facet normal -4.97143205602442e-16 1.6642229892457945e-10 -1.0
  outer loop
    vertex 5.6399329654708825e-15 2.800000000698961 4.659936450601698e-10
    vertex 2.800000000000006 16.000000000698936 2.6627591673267225e-09
    vertex 2.800000000000006 2.800000000698961 4.659950550434111e-10
  endloop
endfacet
facet normal -1.4665724182911995e-25 -1.0 -1.6642154321289127e-10
  outer loop
    vertex 2.800000000000006 2.800000000698961 4.659950550434111e-10
    vertex 5.244107435055967e-25 2.799999999999991 4.20000000046599
    vertex 5.6399329654708825e-15 2.800000000698961 4.659936450601698e-10
  endloop
endfacet
facet normal -1.4665724182911995e-25 -1.0 -1.6642154321289127e-10
  outer loop
    vertex 5.244107435055967e-25 2.799999999999991 4.20000000046599
    vertex 2.800000000000006 2.800000000698961 4.659950550434111e-10
    vertex 2.8000000000000007 2.799999999999991 4.200000000465992
  endloop
endfacet
facet normal 5.689738794899207e-16 -1.6642230734217236e-10 1.0
  outer loop
    vertex 15.800000000000027 -3.907985048946897e-15 4.1999999999999975
    vertex 2.8000000000000007 2.799999999999991 4.200000000465992
    vertex 2.8000000000000007 -3.907985048946897e-15 4.200000000000008
  endloop
endfacet
facet normal 5.689738794899207e-16 -1.6642230734217236e-10 1.0
  outer loop
    vertex 2.8000000000000007 2.799999999999991 4.200000000465992
    vertex 15.800000000000027 -3.907985048946897e-15 4.1999999999999975
    vertex 4.8000000000000025 4.899999999999987 4.200000000815479
  endloop
endfacet
facet normal 5.689738794899207e-16 -1.6642230734217236e-10 1.0
  outer loop
    vertex 2.8000000000000007 2.799999999999991 4.200000000465992
    vertex 4.8000000000000025 4.899999999999987 4.200000000815479
    vertex 2.800000000000006 15.999999999999968 4.200000002662759
  endloop
endfacet
facet normal 5.689738794899207e-16 -1.6642230734217236e-10 1.0
  outer loop
    vertex 2.800000000000006 15.999999999999968 4.200000002662759
    vertex 4.8000000000000025 4.899999999999987 4.200000000815479
    vertex 2.800000000000006 18.79999999999996 4.200000003128744
  endloop
endfacet
facet normal 5.689738794899207e-16 -1.6642230734217236e-10 1.0
  outer loop
    vertex 4.8000000000000025 4.899999999999987 4.200000000815479
    vertex 15.800000000000027 -3.907985048946897e-15 4.1999999999999975
    vertex 13.800000000000031 4.899999999999987 4.200000000815485
  endloop
endfacet
facet normal 5.689738794899207e-16 -1.6642230734217236e-10 1.0
  outer loop
    vertex 13.800000000000031 4.899999999999987 4.200000000815485
    vertex 15.800000000000027 -3.907985048946897e-15 4.1999999999999975
    vertex 13.800000000000031 13.899999999999972 4.2000000023132795
  endloop
endfacet
facet normal 5.689738794899207e-16 -1.6642230734217236e-10 1.0
  outer loop
    vertex 18.600000000000026 2.799999999999991 4.200000000465978
    vertex 15.800000000000033 15.999999999999968 4.200000002662761
    vertex 15.800000000000027 2.799999999999991 4.200000000465978
  endloop
endfacet
facet normal 5.689738794899207e-16 -1.6642230734217236e-10 1.0
  outer loop
    vertex 15.800000000000033 15.999999999999968 4.200000002662761
    vertex 18.600000000000026 2.799999999999991 4.200000000465978
    vertex 18.600000000000033 15.999999999999968 4.200000002662756
  endloop
endfacet
facet normal 5.689738794899207e-16 -1.6642230734217236e-10 1.0
  outer loop
    vertex 2.800000000000006 18.79999999999996 4.200000003128744
    vertex 4.8000000000000025 13.899999999999972 4.200000002313273
    vertex 15.800000000000033 18.79999999999996 4.200000003128738
  endloop
endfacet
facet normal 5.689738794899207e-16 -1.6642230734217236e-10 1.0
  outer loop
    vertex 4.8000000000000025 13.899999999999972 4.200000002313273
    vertex 2.800000000000006 18.79999999999996 4.200000003128744
    vertex 4.8000000000000025 4.899999999999987 4.200000000815479
  endloop
endfacet
facet normal 5.689738794899207e-16 -1.6642230734217236e-10 1.0
  outer loop
    vertex 15.800000000000033 18.79999999999996 4.200000003128738
    vertex 4.8000000000000025 13.899999999999972 4.200000002313273
    vertex 13.800000000000031 13.899999999999972 4.2000000023132795
  endloop
endfacet
facet normal 5.689738794899207e-16 -1.6642230734217236e-10 1.0
  outer loop
    vertex 15.800000000000033 18.79999999999996 4.200000003128738
    vertex 13.800000000000031 13.899999999999972 4.2000000023132795
    vertex 15.800000000000027 2.799999999999991 4.200000000465978
  endloop
endfacet
facet normal 5.689738794899207e-16 -1.6642230734217236e-10 1.0
  outer loop
    vertex 15.800000000000027 2.799999999999991 4.200000000465978
    vertex 13.800000000000031 13.899999999999972 4.2000000023132795
    vertex 15.800000000000027 -3.907985048946897e-15 4.1999999999999975
  endloop
endfacet
facet normal 5.689738794899207e-16 -1.6642230734217236e-10 1.0
  outer loop
    vertex 15.800000000000033 18.79999999999996 4.200000003128738
    vertex 15.800000000000027 2.799999999999991 4.200000000465978
    vertex 15.800000000000033 15.999999999999968 4.200000002662761
  endloop
endfacet
facet normal 5.689738794899207e-16 -1.6642230734217236e-10 1.0
  outer loop
    vertex 2.8000000000000007 2.799999999999991 4.200000000465992
    vertex 5.639932967556081e-15 15.999999999999968 4.200000002662764
    vertex 5.244107435055967e-25 2.799999999999991 4.20000000046599
  endloop
endfacet
facet normal 5.689738794899207e-16 -1.6642230734217236e-10 1.0
  outer loop
    vertex 5.639932967556081e-15 15.999999999999968 4.200000002662764
    vertex 2.8000000000000007 2.799999999999991 4.200000000465992
    vertex 2.800000000000006 15.999999999999968 4.200000002662759
  endloop
endfacet
endsolid mouse
