%FSLAX45Y45*%
G04 Gerber Fmt 4.5, Leading zero omitted, Abs format (unit mm)*
G04 Created by KiCad (PCBNEW (5.1.5-0-10_14)) date 2019-12-07 21:20:43*
%MOMM*%
%LPD*%
G04 APERTURE LIST*
%TA.AperFunction,Profile*%
%ADD10C,0.050000*%
%TD*%
%ADD11C,0.200000*%
%ADD12C,0.300000*%
G04 APERTURE END LIST*
D10*
X13528000Y-9034000D02*
X12788000Y-9034000D01*
X12788000Y-9874000D02*
X13528000Y-9874000D01*
X13528000Y-9874000D02*
X13528000Y-9034000D01*
X12788000Y-9034000D02*
X12788000Y-9874000D01*
D11*
D12*
X13071928Y-10342214D02*
X13071928Y-10042214D01*
X13143357Y-10042214D01*
X13186214Y-10056500D01*
X13214786Y-10085072D01*
X13229071Y-10113643D01*
X13243357Y-10170786D01*
X13243357Y-10213643D01*
X13229071Y-10270786D01*
X13214786Y-10299357D01*
X13186214Y-10327929D01*
X13143357Y-10342214D01*
X13071928Y-10342214D01*
X13371928Y-10342214D02*
X13371928Y-10142214D01*
X13371928Y-10199357D02*
X13386214Y-10170786D01*
X13400500Y-10156500D01*
X13429071Y-10142214D01*
X13457643Y-10142214D01*
X13557643Y-10342214D02*
X13557643Y-10142214D01*
X13557643Y-10042214D02*
X13543357Y-10056500D01*
X13557643Y-10070786D01*
X13571928Y-10056500D01*
X13557643Y-10042214D01*
X13557643Y-10070786D01*
X13743357Y-10342214D02*
X13714786Y-10327929D01*
X13700500Y-10299357D01*
X13700500Y-10042214D01*
X13900500Y-10342214D02*
X13871928Y-10327929D01*
X13857643Y-10299357D01*
X13857643Y-10042214D01*
X14243357Y-10342214D02*
X14243357Y-10042214D01*
X14343357Y-10256500D01*
X14443357Y-10042214D01*
X14443357Y-10342214D01*
X14714786Y-10342214D02*
X14714786Y-10185072D01*
X14700500Y-10156500D01*
X14671928Y-10142214D01*
X14614786Y-10142214D01*
X14586214Y-10156500D01*
X14714786Y-10327929D02*
X14686214Y-10342214D01*
X14614786Y-10342214D01*
X14586214Y-10327929D01*
X14571928Y-10299357D01*
X14571928Y-10270786D01*
X14586214Y-10242214D01*
X14614786Y-10227929D01*
X14686214Y-10227929D01*
X14714786Y-10213643D01*
X14857643Y-10142214D02*
X14857643Y-10442214D01*
X14857643Y-10156500D02*
X14886214Y-10142214D01*
X14943357Y-10142214D01*
X14971928Y-10156500D01*
X14986214Y-10170786D01*
X15000500Y-10199357D01*
X15000500Y-10285072D01*
X14986214Y-10313643D01*
X14971928Y-10327929D01*
X14943357Y-10342214D01*
X14886214Y-10342214D01*
X14857643Y-10327929D01*
X15129071Y-10313643D02*
X15143357Y-10327929D01*
X15129071Y-10342214D01*
X15114786Y-10327929D01*
X15129071Y-10313643D01*
X15129071Y-10342214D01*
X15129071Y-10156500D02*
X15143357Y-10170786D01*
X15129071Y-10185072D01*
X15114786Y-10170786D01*
X15129071Y-10156500D01*
X15129071Y-10185072D01*
M02*
