G04 #@! TF.GenerationSoftware,KiCad,Pcbnew,(5.0.1-3-g963ef8bb5)*
G04 #@! TF.CreationDate,2019-03-18T17:32:53-03:00*
G04 #@! TF.ProjectId,NNC_monitor,4E4E435F6D6F6E69746F722E6B696361,rev?*
G04 #@! TF.SameCoordinates,Original*
G04 #@! TF.FileFunction,Copper,L2,Bot,Signal*
G04 #@! TF.FilePolarity,Positive*
%FSLAX46Y46*%
G04 Gerber Fmt 4.6, Leading zero omitted, Abs format (unit mm)*
G04 Created by KiCad (PCBNEW (5.0.1-3-g963ef8bb5)) date Monday, March 18, 2019 at 05:32:53 PM*
%MOMM*%
%LPD*%
G01*
G04 APERTURE LIST*
G04 #@! TA.AperFunction,ComponentPad*
%ADD10R,1.700000X1.700000*%
G04 #@! TD*
G04 #@! TA.AperFunction,ComponentPad*
%ADD11O,1.700000X1.700000*%
G04 #@! TD*
G04 #@! TA.AperFunction,ComponentPad*
%ADD12O,1.600000X1.600000*%
G04 #@! TD*
G04 #@! TA.AperFunction,ComponentPad*
%ADD13R,1.600000X1.600000*%
G04 #@! TD*
G04 #@! TA.AperFunction,ComponentPad*
%ADD14C,1.300000*%
G04 #@! TD*
G04 #@! TA.AperFunction,ComponentPad*
%ADD15R,1.300000X1.300000*%
G04 #@! TD*
G04 #@! TA.AperFunction,ComponentPad*
%ADD16C,1.998980*%
G04 #@! TD*
G04 #@! TA.AperFunction,ComponentPad*
%ADD17C,1.510000*%
G04 #@! TD*
G04 #@! TA.AperFunction,ComponentPad*
%ADD18R,1.510000X1.510000*%
G04 #@! TD*
G04 #@! TA.AperFunction,ComponentPad*
%ADD19O,1.740000X2.200000*%
G04 #@! TD*
G04 #@! TA.AperFunction,Conductor*
%ADD20C,0.100000*%
G04 #@! TD*
G04 #@! TA.AperFunction,ComponentPad*
%ADD21C,1.740000*%
G04 #@! TD*
G04 #@! TA.AperFunction,Conductor*
%ADD22C,1.000000*%
G04 #@! TD*
G04 #@! TA.AperFunction,Conductor*
%ADD23C,0.250000*%
G04 #@! TD*
G04 #@! TA.AperFunction,Conductor*
%ADD24C,0.254000*%
G04 #@! TD*
G04 APERTURE END LIST*
D10*
G04 #@! TO.P,J13,1*
G04 #@! TO.N,3V3*
X78500000Y-56050000D03*
D11*
G04 #@! TO.P,J13,2*
X78500000Y-58590000D03*
G04 #@! TD*
G04 #@! TO.P,J15,3*
G04 #@! TO.N,Net-(J15-Pad3)*
X119500000Y-50920000D03*
G04 #@! TO.P,J15,2*
G04 #@! TO.N,Net-(J15-Pad2)*
X119500000Y-53460000D03*
D10*
G04 #@! TO.P,J15,1*
G04 #@! TO.N,Net-(J15-Pad1)*
X119500000Y-56000000D03*
G04 #@! TD*
D11*
G04 #@! TO.P,J8,2*
G04 #@! TO.N,+5V*
X78500000Y-79040000D03*
D10*
G04 #@! TO.P,J8,1*
X78500000Y-76500000D03*
G04 #@! TD*
G04 #@! TO.P,J10,1*
G04 #@! TO.N,+5V*
X78500000Y-70000000D03*
D11*
G04 #@! TO.P,J10,2*
X78500000Y-72540000D03*
G04 #@! TD*
G04 #@! TO.P,J14,6*
G04 #@! TO.N,D13*
X136500000Y-60800000D03*
G04 #@! TO.P,J14,5*
G04 #@! TO.N,D12*
X136500000Y-63340000D03*
G04 #@! TO.P,J14,4*
G04 #@! TO.N,D11*
X136500000Y-65880000D03*
G04 #@! TO.P,J14,3*
G04 #@! TO.N,D10*
X136500000Y-68420000D03*
G04 #@! TO.P,J14,2*
G04 #@! TO.N,D9*
X136500000Y-70960000D03*
D10*
G04 #@! TO.P,J14,1*
G04 #@! TO.N,D8*
X136500000Y-73500000D03*
G04 #@! TD*
D11*
G04 #@! TO.P,J12,2*
G04 #@! TO.N,RESET*
X78500000Y-65040000D03*
D10*
G04 #@! TO.P,J12,1*
G04 #@! TO.N,IOREF*
X78500000Y-62500000D03*
G04 #@! TD*
D11*
G04 #@! TO.P,J11,6*
G04 #@! TO.N,A0*
X78500000Y-82800000D03*
G04 #@! TO.P,J11,5*
G04 #@! TO.N,A1*
X78500000Y-85340000D03*
G04 #@! TO.P,J11,4*
G04 #@! TO.N,A2*
X78500000Y-87880000D03*
G04 #@! TO.P,J11,3*
G04 #@! TO.N,A3*
X78500000Y-90420000D03*
G04 #@! TO.P,J11,2*
G04 #@! TO.N,A4_SDA*
X78500000Y-92960000D03*
D10*
G04 #@! TO.P,J11,1*
G04 #@! TO.N,A5_SCL*
X78500000Y-95500000D03*
G04 #@! TD*
D11*
G04 #@! TO.P,J9,2*
G04 #@! TO.N,3V3*
X78450000Y-51990000D03*
D10*
G04 #@! TO.P,J9,1*
X78450000Y-49450000D03*
G04 #@! TD*
D11*
G04 #@! TO.P,J8,2*
G04 #@! TO.N,+5V*
X78500000Y-45540000D03*
D10*
G04 #@! TO.P,J8,1*
X78500000Y-43000000D03*
G04 #@! TD*
D11*
G04 #@! TO.P,J7,3*
G04 #@! TO.N,GND*
X136500000Y-45580000D03*
G04 #@! TO.P,J7,2*
X136500000Y-43040000D03*
D10*
G04 #@! TO.P,J7,1*
X136500000Y-40500000D03*
G04 #@! TD*
D11*
G04 #@! TO.P,J6,8*
G04 #@! TO.N,D7*
X136500000Y-77720000D03*
G04 #@! TO.P,J6,7*
G04 #@! TO.N,D6*
X136500000Y-80260000D03*
G04 #@! TO.P,J6,6*
G04 #@! TO.N,D5*
X136500000Y-82800000D03*
G04 #@! TO.P,J6,5*
G04 #@! TO.N,D4*
X136500000Y-85340000D03*
G04 #@! TO.P,J6,4*
G04 #@! TO.N,D3*
X136500000Y-87880000D03*
G04 #@! TO.P,J6,3*
G04 #@! TO.N,D2*
X136500000Y-90420000D03*
G04 #@! TO.P,J6,2*
G04 #@! TO.N,D1_TX*
X136500000Y-92960000D03*
D10*
G04 #@! TO.P,J6,1*
G04 #@! TO.N,D0_RX*
X136500000Y-95500000D03*
G04 #@! TD*
D11*
G04 #@! TO.P,J5,3*
G04 #@! TO.N,SCL*
X136500000Y-50920000D03*
G04 #@! TO.P,J5,2*
G04 #@! TO.N,SDA*
X136500000Y-53460000D03*
D10*
G04 #@! TO.P,J5,1*
G04 #@! TO.N,AREF*
X136500000Y-56000000D03*
G04 #@! TD*
D12*
G04 #@! TO.P,A1,32*
G04 #@! TO.N,SCL*
X131760000Y-50860000D03*
G04 #@! TO.P,A1,31*
G04 #@! TO.N,SDA*
X131760000Y-53400000D03*
D13*
G04 #@! TO.P,A1,1*
G04 #@! TO.N,Net-(A1-Pad1)*
X83500000Y-60000000D03*
D12*
G04 #@! TO.P,A1,17*
G04 #@! TO.N,D2*
X131760000Y-90480000D03*
G04 #@! TO.P,A1,2*
G04 #@! TO.N,IOREF*
X83500000Y-62540000D03*
G04 #@! TO.P,A1,18*
G04 #@! TO.N,D3*
X131760000Y-87940000D03*
G04 #@! TO.P,A1,3*
G04 #@! TO.N,RESET*
X83500000Y-65080000D03*
G04 #@! TO.P,A1,19*
G04 #@! TO.N,D4*
X131760000Y-85400000D03*
G04 #@! TO.P,A1,4*
G04 #@! TO.N,3V3*
X83500000Y-67620000D03*
G04 #@! TO.P,A1,20*
G04 #@! TO.N,D5*
X131760000Y-82860000D03*
G04 #@! TO.P,A1,5*
G04 #@! TO.N,+5V*
X83500000Y-70160000D03*
G04 #@! TO.P,A1,21*
G04 #@! TO.N,D6*
X131760000Y-80320000D03*
G04 #@! TO.P,A1,6*
G04 #@! TO.N,Net-(A1-Pad6)*
X83500000Y-72700000D03*
G04 #@! TO.P,A1,22*
G04 #@! TO.N,D7*
X131760000Y-77780000D03*
G04 #@! TO.P,A1,7*
G04 #@! TO.N,Net-(A1-Pad7)*
X83500000Y-75240000D03*
G04 #@! TO.P,A1,23*
G04 #@! TO.N,D8*
X131760000Y-73720000D03*
G04 #@! TO.P,A1,8*
G04 #@! TO.N,Net-(A1-Pad8)*
X83500000Y-77780000D03*
G04 #@! TO.P,A1,24*
G04 #@! TO.N,D9*
X131760000Y-71180000D03*
G04 #@! TO.P,A1,9*
G04 #@! TO.N,A0*
X83500000Y-82860000D03*
G04 #@! TO.P,A1,25*
G04 #@! TO.N,D10*
X131760000Y-68640000D03*
G04 #@! TO.P,A1,10*
G04 #@! TO.N,A1*
X83500000Y-85400000D03*
G04 #@! TO.P,A1,26*
G04 #@! TO.N,D11*
X131760000Y-66100000D03*
G04 #@! TO.P,A1,11*
G04 #@! TO.N,A2*
X83500000Y-87940000D03*
G04 #@! TO.P,A1,27*
G04 #@! TO.N,D12*
X131760000Y-63560000D03*
G04 #@! TO.P,A1,12*
G04 #@! TO.N,A3*
X83500000Y-90480000D03*
G04 #@! TO.P,A1,28*
G04 #@! TO.N,D13*
X131760000Y-61020000D03*
G04 #@! TO.P,A1,13*
G04 #@! TO.N,A4_SDA*
X83500000Y-93020000D03*
G04 #@! TO.P,A1,29*
G04 #@! TO.N,GND*
X131760000Y-58480000D03*
G04 #@! TO.P,A1,14*
G04 #@! TO.N,A5_SCL*
X83500000Y-95560000D03*
G04 #@! TO.P,A1,30*
G04 #@! TO.N,AREF*
X131760000Y-55940000D03*
G04 #@! TO.P,A1,15*
G04 #@! TO.N,D0_RX*
X131760000Y-95560000D03*
G04 #@! TO.P,A1,16*
G04 #@! TO.N,D1_TX*
X131760000Y-93020000D03*
G04 #@! TD*
D14*
G04 #@! TO.P,C1,2*
G04 #@! TO.N,Net-(C1-Pad2)*
X91750000Y-63500000D03*
D15*
G04 #@! TO.P,C1,1*
G04 #@! TO.N,Net-(C1-Pad1)*
X91750000Y-66000000D03*
G04 #@! TD*
D16*
G04 #@! TO.P,R5,2*
G04 #@! TO.N,Net-(C1-Pad2)*
X99000000Y-63420000D03*
G04 #@! TO.P,R5,1*
G04 #@! TO.N,Net-(C1-Pad1)*
X99000000Y-73580000D03*
G04 #@! TD*
D12*
G04 #@! TO.P,U1,14*
G04 #@! TO.N,Net-(J15-Pad2)*
X113030000Y-50800000D03*
G04 #@! TO.P,U1,13*
G04 #@! TO.N,Net-(J15-Pad3)*
X113030000Y-53340000D03*
G04 #@! TO.P,U1,12*
G04 #@! TO.N,Net-(J15-Pad1)*
X113030000Y-55880000D03*
G04 #@! TO.P,U1,11*
G04 #@! TO.N,GND*
X113030000Y-58420000D03*
G04 #@! TO.P,U1,10*
G04 #@! TO.N,Net-(U1-Pad1)*
X113030000Y-60960000D03*
G04 #@! TO.P,U1,9*
G04 #@! TO.N,Net-(C2-Pad2)*
X113030000Y-63500000D03*
G04 #@! TO.P,U1,8*
G04 #@! TO.N,A0*
X113030000Y-66040000D03*
G04 #@! TO.P,U1,7*
G04 #@! TO.N,Net-(C1-Pad1)*
X105410000Y-66040000D03*
G04 #@! TO.P,U1,6*
G04 #@! TO.N,Net-(C1-Pad2)*
X105410000Y-63500000D03*
G04 #@! TO.P,U1,5*
G04 #@! TO.N,Net-(U1-Pad1)*
X105410000Y-60960000D03*
G04 #@! TO.P,U1,4*
G04 #@! TO.N,+5V*
X105410000Y-58420000D03*
G04 #@! TO.P,U1,3*
G04 #@! TO.N,Net-(R3-Pad2)*
X105410000Y-55880000D03*
G04 #@! TO.P,U1,2*
G04 #@! TO.N,Net-(U1-Pad1)*
X105410000Y-53340000D03*
G04 #@! TO.P,U1,1*
X105410000Y-50800000D03*
G04 #@! TD*
D17*
G04 #@! TO.P,RV1,2*
G04 #@! TO.N,Net-(C2-Pad2)*
X116840000Y-82550000D03*
D18*
G04 #@! TO.P,RV1,1*
G04 #@! TO.N,Net-(C1-Pad1)*
X114300000Y-80010000D03*
D17*
G04 #@! TO.P,RV1,3*
G04 #@! TO.N,A0*
X119380000Y-80010000D03*
G04 #@! TD*
D16*
G04 #@! TO.P,R6,2*
G04 #@! TO.N,A1*
X108750000Y-99080000D03*
G04 #@! TO.P,R6,1*
G04 #@! TO.N,+5V*
X108750000Y-88920000D03*
G04 #@! TD*
G04 #@! TO.P,R4,2*
G04 #@! TO.N,GND*
X94000000Y-45330000D03*
G04 #@! TO.P,R4,1*
G04 #@! TO.N,Net-(R3-Pad2)*
X94000000Y-35170000D03*
G04 #@! TD*
G04 #@! TO.P,R3,2*
G04 #@! TO.N,Net-(R3-Pad2)*
X86360000Y-35170000D03*
G04 #@! TO.P,R3,1*
G04 #@! TO.N,+5V*
X86360000Y-45330000D03*
G04 #@! TD*
G04 #@! TO.P,R2,2*
G04 #@! TO.N,Net-(J1-Pad2)*
X101000000Y-99080000D03*
G04 #@! TO.P,R2,1*
G04 #@! TO.N,+5V*
X101000000Y-88920000D03*
G04 #@! TD*
G04 #@! TO.P,R1,2*
G04 #@! TO.N,Net-(C3-Pad1)*
X94250000Y-99080000D03*
G04 #@! TO.P,R1,1*
G04 #@! TO.N,+5V*
X94250000Y-88920000D03*
G04 #@! TD*
D19*
G04 #@! TO.P,J4,4*
G04 #@! TO.N,GND*
X90370000Y-106500000D03*
G04 #@! TO.P,J4,3*
G04 #@! TO.N,A5_SCL*
X87830000Y-106500000D03*
G04 #@! TO.P,J4,2*
G04 #@! TO.N,A4_SDA*
X85290000Y-106500000D03*
D20*
G04 #@! TD*
G04 #@! TO.N,+5V*
G04 #@! TO.C,J4*
G36*
X83394505Y-105401204D02*
X83418773Y-105404804D01*
X83442572Y-105410765D01*
X83465671Y-105419030D01*
X83487850Y-105429520D01*
X83508893Y-105442132D01*
X83528599Y-105456747D01*
X83546777Y-105473223D01*
X83563253Y-105491401D01*
X83577868Y-105511107D01*
X83590480Y-105532150D01*
X83600970Y-105554329D01*
X83609235Y-105577428D01*
X83615196Y-105601227D01*
X83618796Y-105625495D01*
X83620000Y-105649999D01*
X83620000Y-107350001D01*
X83618796Y-107374505D01*
X83615196Y-107398773D01*
X83609235Y-107422572D01*
X83600970Y-107445671D01*
X83590480Y-107467850D01*
X83577868Y-107488893D01*
X83563253Y-107508599D01*
X83546777Y-107526777D01*
X83528599Y-107543253D01*
X83508893Y-107557868D01*
X83487850Y-107570480D01*
X83465671Y-107580970D01*
X83442572Y-107589235D01*
X83418773Y-107595196D01*
X83394505Y-107598796D01*
X83370001Y-107600000D01*
X82129999Y-107600000D01*
X82105495Y-107598796D01*
X82081227Y-107595196D01*
X82057428Y-107589235D01*
X82034329Y-107580970D01*
X82012150Y-107570480D01*
X81991107Y-107557868D01*
X81971401Y-107543253D01*
X81953223Y-107526777D01*
X81936747Y-107508599D01*
X81922132Y-107488893D01*
X81909520Y-107467850D01*
X81899030Y-107445671D01*
X81890765Y-107422572D01*
X81884804Y-107398773D01*
X81881204Y-107374505D01*
X81880000Y-107350001D01*
X81880000Y-105649999D01*
X81881204Y-105625495D01*
X81884804Y-105601227D01*
X81890765Y-105577428D01*
X81899030Y-105554329D01*
X81909520Y-105532150D01*
X81922132Y-105511107D01*
X81936747Y-105491401D01*
X81953223Y-105473223D01*
X81971401Y-105456747D01*
X81991107Y-105442132D01*
X82012150Y-105429520D01*
X82034329Y-105419030D01*
X82057428Y-105410765D01*
X82081227Y-105404804D01*
X82105495Y-105401204D01*
X82129999Y-105400000D01*
X83370001Y-105400000D01*
X83394505Y-105401204D01*
X83394505Y-105401204D01*
G37*
D21*
G04 #@! TO.P,J4,1*
G04 #@! TO.N,+5V*
X82750000Y-106500000D03*
G04 #@! TD*
D19*
G04 #@! TO.P,J3,3*
G04 #@! TO.N,GND*
X133080000Y-106500000D03*
G04 #@! TO.P,J3,2*
G04 #@! TO.N,D2*
X130540000Y-106500000D03*
D20*
G04 #@! TD*
G04 #@! TO.N,+5V*
G04 #@! TO.C,J3*
G36*
X128644505Y-105401204D02*
X128668773Y-105404804D01*
X128692572Y-105410765D01*
X128715671Y-105419030D01*
X128737850Y-105429520D01*
X128758893Y-105442132D01*
X128778599Y-105456747D01*
X128796777Y-105473223D01*
X128813253Y-105491401D01*
X128827868Y-105511107D01*
X128840480Y-105532150D01*
X128850970Y-105554329D01*
X128859235Y-105577428D01*
X128865196Y-105601227D01*
X128868796Y-105625495D01*
X128870000Y-105649999D01*
X128870000Y-107350001D01*
X128868796Y-107374505D01*
X128865196Y-107398773D01*
X128859235Y-107422572D01*
X128850970Y-107445671D01*
X128840480Y-107467850D01*
X128827868Y-107488893D01*
X128813253Y-107508599D01*
X128796777Y-107526777D01*
X128778599Y-107543253D01*
X128758893Y-107557868D01*
X128737850Y-107570480D01*
X128715671Y-107580970D01*
X128692572Y-107589235D01*
X128668773Y-107595196D01*
X128644505Y-107598796D01*
X128620001Y-107600000D01*
X127379999Y-107600000D01*
X127355495Y-107598796D01*
X127331227Y-107595196D01*
X127307428Y-107589235D01*
X127284329Y-107580970D01*
X127262150Y-107570480D01*
X127241107Y-107557868D01*
X127221401Y-107543253D01*
X127203223Y-107526777D01*
X127186747Y-107508599D01*
X127172132Y-107488893D01*
X127159520Y-107467850D01*
X127149030Y-107445671D01*
X127140765Y-107422572D01*
X127134804Y-107398773D01*
X127131204Y-107374505D01*
X127130000Y-107350001D01*
X127130000Y-105649999D01*
X127131204Y-105625495D01*
X127134804Y-105601227D01*
X127140765Y-105577428D01*
X127149030Y-105554329D01*
X127159520Y-105532150D01*
X127172132Y-105511107D01*
X127186747Y-105491401D01*
X127203223Y-105473223D01*
X127221401Y-105456747D01*
X127241107Y-105442132D01*
X127262150Y-105429520D01*
X127284329Y-105419030D01*
X127307428Y-105410765D01*
X127331227Y-105404804D01*
X127355495Y-105401204D01*
X127379999Y-105400000D01*
X128620001Y-105400000D01*
X128644505Y-105401204D01*
X128644505Y-105401204D01*
G37*
D21*
G04 #@! TO.P,J3,1*
G04 #@! TO.N,+5V*
X128000000Y-106500000D03*
G04 #@! TD*
D19*
G04 #@! TO.P,J2,2*
G04 #@! TO.N,GND*
X101600000Y-106680000D03*
D20*
G04 #@! TD*
G04 #@! TO.N,A1*
G04 #@! TO.C,J2*
G36*
X99704505Y-105581204D02*
X99728773Y-105584804D01*
X99752572Y-105590765D01*
X99775671Y-105599030D01*
X99797850Y-105609520D01*
X99818893Y-105622132D01*
X99838599Y-105636747D01*
X99856777Y-105653223D01*
X99873253Y-105671401D01*
X99887868Y-105691107D01*
X99900480Y-105712150D01*
X99910970Y-105734329D01*
X99919235Y-105757428D01*
X99925196Y-105781227D01*
X99928796Y-105805495D01*
X99930000Y-105829999D01*
X99930000Y-107530001D01*
X99928796Y-107554505D01*
X99925196Y-107578773D01*
X99919235Y-107602572D01*
X99910970Y-107625671D01*
X99900480Y-107647850D01*
X99887868Y-107668893D01*
X99873253Y-107688599D01*
X99856777Y-107706777D01*
X99838599Y-107723253D01*
X99818893Y-107737868D01*
X99797850Y-107750480D01*
X99775671Y-107760970D01*
X99752572Y-107769235D01*
X99728773Y-107775196D01*
X99704505Y-107778796D01*
X99680001Y-107780000D01*
X98439999Y-107780000D01*
X98415495Y-107778796D01*
X98391227Y-107775196D01*
X98367428Y-107769235D01*
X98344329Y-107760970D01*
X98322150Y-107750480D01*
X98301107Y-107737868D01*
X98281401Y-107723253D01*
X98263223Y-107706777D01*
X98246747Y-107688599D01*
X98232132Y-107668893D01*
X98219520Y-107647850D01*
X98209030Y-107625671D01*
X98200765Y-107602572D01*
X98194804Y-107578773D01*
X98191204Y-107554505D01*
X98190000Y-107530001D01*
X98190000Y-105829999D01*
X98191204Y-105805495D01*
X98194804Y-105781227D01*
X98200765Y-105757428D01*
X98209030Y-105734329D01*
X98219520Y-105712150D01*
X98232132Y-105691107D01*
X98246747Y-105671401D01*
X98263223Y-105653223D01*
X98281401Y-105636747D01*
X98301107Y-105622132D01*
X98322150Y-105609520D01*
X98344329Y-105599030D01*
X98367428Y-105590765D01*
X98391227Y-105584804D01*
X98415495Y-105581204D01*
X98439999Y-105580000D01*
X99680001Y-105580000D01*
X99704505Y-105581204D01*
X99704505Y-105581204D01*
G37*
D21*
G04 #@! TO.P,J2,1*
G04 #@! TO.N,A1*
X99060000Y-106680000D03*
G04 #@! TD*
D19*
G04 #@! TO.P,J1,4*
G04 #@! TO.N,GND*
X111630000Y-106500000D03*
G04 #@! TO.P,J1,3*
X114170000Y-106500000D03*
G04 #@! TO.P,J1,2*
G04 #@! TO.N,Net-(J1-Pad2)*
X116710000Y-106500000D03*
D20*
G04 #@! TD*
G04 #@! TO.N,Net-(C3-Pad1)*
G04 #@! TO.C,J1*
G36*
X119894505Y-105401204D02*
X119918773Y-105404804D01*
X119942572Y-105410765D01*
X119965671Y-105419030D01*
X119987850Y-105429520D01*
X120008893Y-105442132D01*
X120028599Y-105456747D01*
X120046777Y-105473223D01*
X120063253Y-105491401D01*
X120077868Y-105511107D01*
X120090480Y-105532150D01*
X120100970Y-105554329D01*
X120109235Y-105577428D01*
X120115196Y-105601227D01*
X120118796Y-105625495D01*
X120120000Y-105649999D01*
X120120000Y-107350001D01*
X120118796Y-107374505D01*
X120115196Y-107398773D01*
X120109235Y-107422572D01*
X120100970Y-107445671D01*
X120090480Y-107467850D01*
X120077868Y-107488893D01*
X120063253Y-107508599D01*
X120046777Y-107526777D01*
X120028599Y-107543253D01*
X120008893Y-107557868D01*
X119987850Y-107570480D01*
X119965671Y-107580970D01*
X119942572Y-107589235D01*
X119918773Y-107595196D01*
X119894505Y-107598796D01*
X119870001Y-107600000D01*
X118629999Y-107600000D01*
X118605495Y-107598796D01*
X118581227Y-107595196D01*
X118557428Y-107589235D01*
X118534329Y-107580970D01*
X118512150Y-107570480D01*
X118491107Y-107557868D01*
X118471401Y-107543253D01*
X118453223Y-107526777D01*
X118436747Y-107508599D01*
X118422132Y-107488893D01*
X118409520Y-107467850D01*
X118399030Y-107445671D01*
X118390765Y-107422572D01*
X118384804Y-107398773D01*
X118381204Y-107374505D01*
X118380000Y-107350001D01*
X118380000Y-105649999D01*
X118381204Y-105625495D01*
X118384804Y-105601227D01*
X118390765Y-105577428D01*
X118399030Y-105554329D01*
X118409520Y-105532150D01*
X118422132Y-105511107D01*
X118436747Y-105491401D01*
X118453223Y-105473223D01*
X118471401Y-105456747D01*
X118491107Y-105442132D01*
X118512150Y-105429520D01*
X118534329Y-105419030D01*
X118557428Y-105410765D01*
X118581227Y-105404804D01*
X118605495Y-105401204D01*
X118629999Y-105400000D01*
X119870001Y-105400000D01*
X119894505Y-105401204D01*
X119894505Y-105401204D01*
G37*
D21*
G04 #@! TO.P,J1,1*
G04 #@! TO.N,Net-(C3-Pad1)*
X119250000Y-106500000D03*
G04 #@! TD*
D14*
G04 #@! TO.P,C3,2*
G04 #@! TO.N,Net-(C1-Pad2)*
X99000000Y-79500000D03*
D15*
G04 #@! TO.P,C3,1*
G04 #@! TO.N,Net-(C3-Pad1)*
X99000000Y-82000000D03*
G04 #@! TD*
D14*
G04 #@! TO.P,C2,2*
G04 #@! TO.N,Net-(C2-Pad2)*
X119380000Y-63540000D03*
D15*
G04 #@! TO.P,C2,1*
G04 #@! TO.N,A0*
X119380000Y-66040000D03*
G04 #@! TD*
D22*
G04 #@! TO.N,Net-(C1-Pad2)*
X89000000Y-63500000D02*
X91750000Y-63500000D01*
X89000000Y-79500000D02*
X89000000Y-63500000D01*
X99000000Y-79500000D02*
X89000000Y-79500000D01*
G04 #@! TO.N,Net-(C1-Pad1)*
X114300000Y-80010000D02*
X106010000Y-80010000D01*
X105410000Y-79410000D02*
X105410000Y-66040000D01*
X106010000Y-80010000D02*
X105410000Y-79410000D01*
G04 #@! TO.N,Net-(R3-Pad2)*
X105410000Y-55880000D02*
X90620000Y-55880000D01*
X90000000Y-55260000D02*
X90620000Y-55880000D01*
X90000000Y-35170000D02*
X90000000Y-55260000D01*
X86360000Y-35170000D02*
X90000000Y-35170000D01*
X90000000Y-35170000D02*
X94000000Y-35170000D01*
G04 #@! TO.N,+5V*
X86010000Y-69850000D02*
X83820000Y-69850000D01*
X86360000Y-69500000D02*
X86010000Y-69850000D01*
X86360000Y-55880000D02*
X86360000Y-69500000D01*
X93980000Y-88900000D02*
X86460000Y-88900000D01*
X86460000Y-88900000D02*
X86360000Y-88800000D01*
X86360000Y-55880000D02*
X86360000Y-45330000D01*
X86440000Y-58420000D02*
X86360000Y-58500000D01*
X105410000Y-58420000D02*
X86440000Y-58420000D01*
X86360000Y-58500000D02*
X86360000Y-55880000D01*
X86360000Y-88800000D02*
X86360000Y-58500000D01*
X94250000Y-88920000D02*
X108750000Y-88920000D01*
X82750000Y-106500000D02*
X82750000Y-104250000D01*
X86360000Y-100640000D02*
X86360000Y-88800000D01*
X82750000Y-104250000D02*
X86360000Y-100640000D01*
X85700000Y-70160000D02*
X86010000Y-69850000D01*
X83500000Y-70160000D02*
X85700000Y-70160000D01*
X86150000Y-45540000D02*
X86360000Y-45330000D01*
X78500000Y-45540000D02*
X86150000Y-45540000D01*
X78500000Y-45540000D02*
X78500000Y-43000000D01*
X78660000Y-70160000D02*
X78500000Y-70000000D01*
X83500000Y-70160000D02*
X78660000Y-70160000D01*
X78500000Y-70000000D02*
X78500000Y-72540000D01*
G04 #@! TO.N,GND*
X94000000Y-45330000D02*
X122420000Y-45330000D01*
X122420000Y-58340000D02*
X122500000Y-58420000D01*
X113030000Y-58420000D02*
X122500000Y-58420000D01*
X127500000Y-58420000D02*
X127500000Y-101750000D01*
X101600000Y-101850000D02*
X101500000Y-101750000D01*
X101600000Y-106680000D02*
X101600000Y-101850000D01*
X127500000Y-101750000D02*
X115500000Y-101750000D01*
X101500000Y-101750000D02*
X90500000Y-101750000D01*
X90370000Y-101880000D02*
X90500000Y-101750000D01*
X90370000Y-106500000D02*
X90370000Y-101880000D01*
X127500000Y-101750000D02*
X132000000Y-101750000D01*
X132000000Y-101750000D02*
X133080000Y-102830000D01*
X115500000Y-101750000D02*
X114250000Y-101750000D01*
X111630000Y-101870000D02*
X111750000Y-101750000D01*
X111750000Y-101750000D02*
X101500000Y-101750000D01*
X114250000Y-101750000D02*
X111750000Y-101750000D01*
X114250000Y-105320000D02*
X114250000Y-101750000D01*
X114170000Y-105400000D02*
X114250000Y-105320000D01*
X122500000Y-58420000D02*
X127500000Y-58420000D01*
X122420000Y-45330000D02*
X122420000Y-58340000D01*
D23*
X127500000Y-58420000D02*
X127560000Y-58480000D01*
D22*
X131700000Y-58420000D02*
X131760000Y-58480000D01*
X113030000Y-58420000D02*
X131700000Y-58420000D01*
X133080000Y-102830000D02*
X133080000Y-106500000D01*
X122420000Y-45330000D02*
X134830000Y-45330000D01*
X136500000Y-45580000D02*
X136500000Y-40500000D01*
X135080000Y-45580000D02*
X136500000Y-45580000D01*
X134830000Y-45330000D02*
X135080000Y-45580000D01*
X111630000Y-106500000D02*
X114170000Y-106500000D01*
G04 #@! TD*
D24*
G04 #@! TO.N,GND*
G36*
X139340000Y-112840000D02*
X75660000Y-112840000D01*
X75660000Y-82800000D01*
X76985908Y-82800000D01*
X77101161Y-83379418D01*
X77429375Y-83870625D01*
X77727761Y-84070000D01*
X77429375Y-84269375D01*
X77101161Y-84760582D01*
X76985908Y-85340000D01*
X77101161Y-85919418D01*
X77429375Y-86410625D01*
X77727761Y-86610000D01*
X77429375Y-86809375D01*
X77101161Y-87300582D01*
X76985908Y-87880000D01*
X77101161Y-88459418D01*
X77429375Y-88950625D01*
X77727761Y-89150000D01*
X77429375Y-89349375D01*
X77101161Y-89840582D01*
X76985908Y-90420000D01*
X77101161Y-90999418D01*
X77429375Y-91490625D01*
X77727761Y-91690000D01*
X77429375Y-91889375D01*
X77101161Y-92380582D01*
X76985908Y-92960000D01*
X77101161Y-93539418D01*
X77429375Y-94030625D01*
X77447619Y-94042816D01*
X77402235Y-94051843D01*
X77192191Y-94192191D01*
X77051843Y-94402235D01*
X77002560Y-94650000D01*
X77002560Y-96350000D01*
X77051843Y-96597765D01*
X77192191Y-96807809D01*
X77402235Y-96948157D01*
X77650000Y-96997440D01*
X79350000Y-96997440D01*
X79597765Y-96948157D01*
X79807809Y-96807809D01*
X79948157Y-96597765D01*
X79997440Y-96350000D01*
X79997440Y-94650000D01*
X79948157Y-94402235D01*
X79807809Y-94192191D01*
X79597765Y-94051843D01*
X79552381Y-94042816D01*
X79570625Y-94030625D01*
X79898839Y-93539418D01*
X80014092Y-92960000D01*
X79898839Y-92380582D01*
X79570625Y-91889375D01*
X79272239Y-91690000D01*
X79570625Y-91490625D01*
X79898839Y-90999418D01*
X80014092Y-90420000D01*
X79898839Y-89840582D01*
X79570625Y-89349375D01*
X79272239Y-89150000D01*
X79570625Y-88950625D01*
X79898839Y-88459418D01*
X80014092Y-87880000D01*
X79898839Y-87300582D01*
X79570625Y-86809375D01*
X79272239Y-86610000D01*
X79570625Y-86410625D01*
X79898839Y-85919418D01*
X80014092Y-85340000D01*
X79898839Y-84760582D01*
X79570625Y-84269375D01*
X79272239Y-84070000D01*
X79570625Y-83870625D01*
X79898839Y-83379418D01*
X80002157Y-82860000D01*
X82036887Y-82860000D01*
X82148260Y-83419909D01*
X82465423Y-83894577D01*
X82817758Y-84130000D01*
X82465423Y-84365423D01*
X82148260Y-84840091D01*
X82036887Y-85400000D01*
X82148260Y-85959909D01*
X82465423Y-86434577D01*
X82817758Y-86670000D01*
X82465423Y-86905423D01*
X82148260Y-87380091D01*
X82036887Y-87940000D01*
X82148260Y-88499909D01*
X82465423Y-88974577D01*
X82817758Y-89210000D01*
X82465423Y-89445423D01*
X82148260Y-89920091D01*
X82036887Y-90480000D01*
X82148260Y-91039909D01*
X82465423Y-91514577D01*
X82817758Y-91750000D01*
X82465423Y-91985423D01*
X82148260Y-92460091D01*
X82036887Y-93020000D01*
X82148260Y-93579909D01*
X82465423Y-94054577D01*
X82817758Y-94290000D01*
X82465423Y-94525423D01*
X82148260Y-95000091D01*
X82036887Y-95560000D01*
X82148260Y-96119909D01*
X82465423Y-96594577D01*
X82940091Y-96911740D01*
X83358667Y-96995000D01*
X83641333Y-96995000D01*
X84059909Y-96911740D01*
X84534577Y-96594577D01*
X84851740Y-96119909D01*
X84963113Y-95560000D01*
X84851740Y-95000091D01*
X84534577Y-94525423D01*
X84182242Y-94290000D01*
X84534577Y-94054577D01*
X84851740Y-93579909D01*
X84963113Y-93020000D01*
X84851740Y-92460091D01*
X84534577Y-91985423D01*
X84182242Y-91750000D01*
X84534577Y-91514577D01*
X84851740Y-91039909D01*
X84963113Y-90480000D01*
X84851740Y-89920091D01*
X84534577Y-89445423D01*
X84182242Y-89210000D01*
X84534577Y-88974577D01*
X84851740Y-88499909D01*
X84963113Y-87940000D01*
X84851740Y-87380091D01*
X84534577Y-86905423D01*
X84182242Y-86670000D01*
X84534577Y-86434577D01*
X84851740Y-85959909D01*
X84963113Y-85400000D01*
X84851740Y-84840091D01*
X84534577Y-84365423D01*
X84182242Y-84130000D01*
X84534577Y-83894577D01*
X84851740Y-83419909D01*
X84963113Y-82860000D01*
X84851740Y-82300091D01*
X84534577Y-81825423D01*
X84059909Y-81508260D01*
X83641333Y-81425000D01*
X83358667Y-81425000D01*
X82940091Y-81508260D01*
X82465423Y-81825423D01*
X82148260Y-82300091D01*
X82036887Y-82860000D01*
X80002157Y-82860000D01*
X80014092Y-82800000D01*
X79898839Y-82220582D01*
X79570625Y-81729375D01*
X79079418Y-81401161D01*
X78646256Y-81315000D01*
X78353744Y-81315000D01*
X77920582Y-81401161D01*
X77429375Y-81729375D01*
X77101161Y-82220582D01*
X76985908Y-82800000D01*
X75660000Y-82800000D01*
X75660000Y-79040000D01*
X76985908Y-79040000D01*
X77101161Y-79619418D01*
X77429375Y-80110625D01*
X77920582Y-80438839D01*
X78353744Y-80525000D01*
X78646256Y-80525000D01*
X79079418Y-80438839D01*
X79570625Y-80110625D01*
X79898839Y-79619418D01*
X80014092Y-79040000D01*
X79898839Y-78460582D01*
X79570625Y-77969375D01*
X79552381Y-77957184D01*
X79597765Y-77948157D01*
X79807809Y-77807809D01*
X79948157Y-77597765D01*
X79997440Y-77350000D01*
X79997440Y-75650000D01*
X79948157Y-75402235D01*
X79807809Y-75192191D01*
X79597765Y-75051843D01*
X79350000Y-75002560D01*
X77650000Y-75002560D01*
X77402235Y-75051843D01*
X77192191Y-75192191D01*
X77051843Y-75402235D01*
X77002560Y-75650000D01*
X77002560Y-77350000D01*
X77051843Y-77597765D01*
X77192191Y-77807809D01*
X77402235Y-77948157D01*
X77447619Y-77957184D01*
X77429375Y-77969375D01*
X77101161Y-78460582D01*
X76985908Y-79040000D01*
X75660000Y-79040000D01*
X75660000Y-65040000D01*
X76985908Y-65040000D01*
X77101161Y-65619418D01*
X77429375Y-66110625D01*
X77920582Y-66438839D01*
X78353744Y-66525000D01*
X78646256Y-66525000D01*
X79079418Y-66438839D01*
X79570625Y-66110625D01*
X79898839Y-65619418D01*
X80014092Y-65040000D01*
X79898839Y-64460582D01*
X79570625Y-63969375D01*
X79552381Y-63957184D01*
X79597765Y-63948157D01*
X79807809Y-63807809D01*
X79948157Y-63597765D01*
X79997440Y-63350000D01*
X79997440Y-61650000D01*
X79948157Y-61402235D01*
X79807809Y-61192191D01*
X79597765Y-61051843D01*
X79350000Y-61002560D01*
X77650000Y-61002560D01*
X77402235Y-61051843D01*
X77192191Y-61192191D01*
X77051843Y-61402235D01*
X77002560Y-61650000D01*
X77002560Y-63350000D01*
X77051843Y-63597765D01*
X77192191Y-63807809D01*
X77402235Y-63948157D01*
X77447619Y-63957184D01*
X77429375Y-63969375D01*
X77101161Y-64460582D01*
X76985908Y-65040000D01*
X75660000Y-65040000D01*
X75660000Y-58590000D01*
X76985908Y-58590000D01*
X77101161Y-59169418D01*
X77429375Y-59660625D01*
X77920582Y-59988839D01*
X78353744Y-60075000D01*
X78646256Y-60075000D01*
X79079418Y-59988839D01*
X79570625Y-59660625D01*
X79898839Y-59169418D01*
X80014092Y-58590000D01*
X79898839Y-58010582D01*
X79570625Y-57519375D01*
X79552381Y-57507184D01*
X79597765Y-57498157D01*
X79807809Y-57357809D01*
X79948157Y-57147765D01*
X79997440Y-56900000D01*
X79997440Y-55200000D01*
X79948157Y-54952235D01*
X79807809Y-54742191D01*
X79597765Y-54601843D01*
X79350000Y-54552560D01*
X77650000Y-54552560D01*
X77402235Y-54601843D01*
X77192191Y-54742191D01*
X77051843Y-54952235D01*
X77002560Y-55200000D01*
X77002560Y-56900000D01*
X77051843Y-57147765D01*
X77192191Y-57357809D01*
X77402235Y-57498157D01*
X77447619Y-57507184D01*
X77429375Y-57519375D01*
X77101161Y-58010582D01*
X76985908Y-58590000D01*
X75660000Y-58590000D01*
X75660000Y-51990000D01*
X76935908Y-51990000D01*
X77051161Y-52569418D01*
X77379375Y-53060625D01*
X77870582Y-53388839D01*
X78303744Y-53475000D01*
X78596256Y-53475000D01*
X79029418Y-53388839D01*
X79520625Y-53060625D01*
X79848839Y-52569418D01*
X79964092Y-51990000D01*
X79848839Y-51410582D01*
X79520625Y-50919375D01*
X79502381Y-50907184D01*
X79547765Y-50898157D01*
X79757809Y-50757809D01*
X79898157Y-50547765D01*
X79947440Y-50300000D01*
X79947440Y-48600000D01*
X79898157Y-48352235D01*
X79757809Y-48142191D01*
X79547765Y-48001843D01*
X79300000Y-47952560D01*
X77600000Y-47952560D01*
X77352235Y-48001843D01*
X77142191Y-48142191D01*
X77001843Y-48352235D01*
X76952560Y-48600000D01*
X76952560Y-50300000D01*
X77001843Y-50547765D01*
X77142191Y-50757809D01*
X77352235Y-50898157D01*
X77397619Y-50907184D01*
X77379375Y-50919375D01*
X77051161Y-51410582D01*
X76935908Y-51990000D01*
X75660000Y-51990000D01*
X75660000Y-45540000D01*
X76985908Y-45540000D01*
X77101161Y-46119418D01*
X77429375Y-46610625D01*
X77920582Y-46938839D01*
X78353744Y-47025000D01*
X78646256Y-47025000D01*
X79079418Y-46938839D01*
X79474281Y-46675000D01*
X85225001Y-46675000D01*
X85225000Y-55768217D01*
X85225000Y-58388216D01*
X85202765Y-58500000D01*
X85225000Y-58611782D01*
X85225001Y-62760582D01*
X85225001Y-68715000D01*
X84444148Y-68715000D01*
X84534577Y-68654577D01*
X84851740Y-68179909D01*
X84963113Y-67620000D01*
X84851740Y-67060091D01*
X84534577Y-66585423D01*
X84182242Y-66350000D01*
X84534577Y-66114577D01*
X84851740Y-65639909D01*
X84963113Y-65080000D01*
X84851740Y-64520091D01*
X84534577Y-64045423D01*
X84182242Y-63810000D01*
X84534577Y-63574577D01*
X84851740Y-63099909D01*
X84963113Y-62540000D01*
X84851740Y-61980091D01*
X84534577Y-61505423D01*
X84413894Y-61424785D01*
X84547765Y-61398157D01*
X84757809Y-61257809D01*
X84898157Y-61047765D01*
X84947440Y-60800000D01*
X84947440Y-59200000D01*
X84898157Y-58952235D01*
X84757809Y-58742191D01*
X84547765Y-58601843D01*
X84300000Y-58552560D01*
X82700000Y-58552560D01*
X82452235Y-58601843D01*
X82242191Y-58742191D01*
X82101843Y-58952235D01*
X82052560Y-59200000D01*
X82052560Y-60800000D01*
X82101843Y-61047765D01*
X82242191Y-61257809D01*
X82452235Y-61398157D01*
X82586106Y-61424785D01*
X82465423Y-61505423D01*
X82148260Y-61980091D01*
X82036887Y-62540000D01*
X82148260Y-63099909D01*
X82465423Y-63574577D01*
X82817758Y-63810000D01*
X82465423Y-64045423D01*
X82148260Y-64520091D01*
X82036887Y-65080000D01*
X82148260Y-65639909D01*
X82465423Y-66114577D01*
X82817758Y-66350000D01*
X82465423Y-66585423D01*
X82148260Y-67060091D01*
X82036887Y-67620000D01*
X82148260Y-68179909D01*
X82465423Y-68654577D01*
X82817758Y-68890000D01*
X82615717Y-69025000D01*
X79972576Y-69025000D01*
X79948157Y-68902235D01*
X79807809Y-68692191D01*
X79597765Y-68551843D01*
X79350000Y-68502560D01*
X77650000Y-68502560D01*
X77402235Y-68551843D01*
X77192191Y-68692191D01*
X77051843Y-68902235D01*
X77002560Y-69150000D01*
X77002560Y-70850000D01*
X77051843Y-71097765D01*
X77192191Y-71307809D01*
X77365001Y-71423278D01*
X77365001Y-71565718D01*
X77101161Y-71960582D01*
X76985908Y-72540000D01*
X77101161Y-73119418D01*
X77429375Y-73610625D01*
X77920582Y-73938839D01*
X78353744Y-74025000D01*
X78646256Y-74025000D01*
X79079418Y-73938839D01*
X79570625Y-73610625D01*
X79898839Y-73119418D01*
X80014092Y-72540000D01*
X79898839Y-71960582D01*
X79635000Y-71565719D01*
X79635000Y-71423277D01*
X79807809Y-71307809D01*
X79816368Y-71295000D01*
X82615717Y-71295000D01*
X82817758Y-71430000D01*
X82465423Y-71665423D01*
X82148260Y-72140091D01*
X82036887Y-72700000D01*
X82148260Y-73259909D01*
X82465423Y-73734577D01*
X82817758Y-73970000D01*
X82465423Y-74205423D01*
X82148260Y-74680091D01*
X82036887Y-75240000D01*
X82148260Y-75799909D01*
X82465423Y-76274577D01*
X82817758Y-76510000D01*
X82465423Y-76745423D01*
X82148260Y-77220091D01*
X82036887Y-77780000D01*
X82148260Y-78339909D01*
X82465423Y-78814577D01*
X82940091Y-79131740D01*
X83358667Y-79215000D01*
X83641333Y-79215000D01*
X84059909Y-79131740D01*
X84534577Y-78814577D01*
X84851740Y-78339909D01*
X84963113Y-77780000D01*
X84851740Y-77220091D01*
X84534577Y-76745423D01*
X84182242Y-76510000D01*
X84534577Y-76274577D01*
X84851740Y-75799909D01*
X84963113Y-75240000D01*
X84851740Y-74680091D01*
X84534577Y-74205423D01*
X84182242Y-73970000D01*
X84534577Y-73734577D01*
X84851740Y-73259909D01*
X84963113Y-72700000D01*
X84851740Y-72140091D01*
X84534577Y-71665423D01*
X84182242Y-71430000D01*
X84384283Y-71295000D01*
X85225001Y-71295000D01*
X85225000Y-88688217D01*
X85202765Y-88800000D01*
X85225001Y-88911788D01*
X85225000Y-100169868D01*
X82026480Y-103368389D01*
X81931712Y-103431711D01*
X81746085Y-103709522D01*
X81680854Y-103807146D01*
X81592765Y-104250000D01*
X81615001Y-104361788D01*
X81615001Y-104935508D01*
X81495414Y-105015414D01*
X81300873Y-105306564D01*
X81232560Y-105649999D01*
X81232560Y-107350001D01*
X81300873Y-107693436D01*
X81495414Y-107984586D01*
X81786564Y-108179127D01*
X82129999Y-108247440D01*
X83370001Y-108247440D01*
X83713436Y-108179127D01*
X84004586Y-107984586D01*
X84161413Y-107749878D01*
X84204956Y-107815044D01*
X84702779Y-108147678D01*
X85290000Y-108264484D01*
X85877222Y-108147678D01*
X86375044Y-107815044D01*
X86560000Y-107538237D01*
X86744956Y-107815044D01*
X87242779Y-108147678D01*
X87830000Y-108264484D01*
X88417222Y-108147678D01*
X88915044Y-107815044D01*
X89107159Y-107527522D01*
X89399509Y-107890533D01*
X89917500Y-108173584D01*
X90009969Y-108191302D01*
X90243000Y-108070246D01*
X90243000Y-106627000D01*
X90497000Y-106627000D01*
X90497000Y-108070246D01*
X90730031Y-108191302D01*
X90822500Y-108173584D01*
X91340491Y-107890533D01*
X91710734Y-107430802D01*
X91876862Y-106864380D01*
X91720582Y-106627000D01*
X90497000Y-106627000D01*
X90243000Y-106627000D01*
X90223000Y-106627000D01*
X90223000Y-106373000D01*
X90243000Y-106373000D01*
X90243000Y-104929754D01*
X90497000Y-104929754D01*
X90497000Y-106373000D01*
X91720582Y-106373000D01*
X91876862Y-106135620D01*
X91787226Y-105829999D01*
X97542560Y-105829999D01*
X97542560Y-107530001D01*
X97610873Y-107873436D01*
X97805414Y-108164586D01*
X98096564Y-108359127D01*
X98439999Y-108427440D01*
X99680001Y-108427440D01*
X100023436Y-108359127D01*
X100314586Y-108164586D01*
X100491737Y-107899462D01*
X100629509Y-108070533D01*
X101147500Y-108353584D01*
X101239969Y-108371302D01*
X101473000Y-108250246D01*
X101473000Y-106807000D01*
X101727000Y-106807000D01*
X101727000Y-108250246D01*
X101960031Y-108371302D01*
X102052500Y-108353584D01*
X102570491Y-108070533D01*
X102940734Y-107610802D01*
X103106862Y-107044380D01*
X102988359Y-106864380D01*
X110123138Y-106864380D01*
X110289266Y-107430802D01*
X110659509Y-107890533D01*
X111177500Y-108173584D01*
X111269969Y-108191302D01*
X111503000Y-108070246D01*
X111503000Y-106627000D01*
X111757000Y-106627000D01*
X111757000Y-108070246D01*
X111990031Y-108191302D01*
X112082500Y-108173584D01*
X112600491Y-107890533D01*
X112900000Y-107518632D01*
X113199509Y-107890533D01*
X113717500Y-108173584D01*
X113809969Y-108191302D01*
X114043000Y-108070246D01*
X114043000Y-106627000D01*
X111757000Y-106627000D01*
X111503000Y-106627000D01*
X110279418Y-106627000D01*
X110123138Y-106864380D01*
X102988359Y-106864380D01*
X102950582Y-106807000D01*
X101727000Y-106807000D01*
X101473000Y-106807000D01*
X101453000Y-106807000D01*
X101453000Y-106553000D01*
X101473000Y-106553000D01*
X101473000Y-105109754D01*
X101727000Y-105109754D01*
X101727000Y-106553000D01*
X102950582Y-106553000D01*
X103106862Y-106315620D01*
X103054070Y-106135620D01*
X110123138Y-106135620D01*
X110279418Y-106373000D01*
X111503000Y-106373000D01*
X111503000Y-104929754D01*
X111757000Y-104929754D01*
X111757000Y-106373000D01*
X114043000Y-106373000D01*
X114043000Y-104929754D01*
X114297000Y-104929754D01*
X114297000Y-106373000D01*
X114317000Y-106373000D01*
X114317000Y-106627000D01*
X114297000Y-106627000D01*
X114297000Y-108070246D01*
X114530031Y-108191302D01*
X114622500Y-108173584D01*
X115140491Y-107890533D01*
X115432841Y-107527522D01*
X115624956Y-107815044D01*
X116122778Y-108147678D01*
X116710000Y-108264484D01*
X117297221Y-108147678D01*
X117795044Y-107815044D01*
X117838587Y-107749878D01*
X117995414Y-107984586D01*
X118286564Y-108179127D01*
X118629999Y-108247440D01*
X119870001Y-108247440D01*
X120213436Y-108179127D01*
X120504586Y-107984586D01*
X120699127Y-107693436D01*
X120767440Y-107350001D01*
X120767440Y-105649999D01*
X126482560Y-105649999D01*
X126482560Y-107350001D01*
X126550873Y-107693436D01*
X126745414Y-107984586D01*
X127036564Y-108179127D01*
X127379999Y-108247440D01*
X128620001Y-108247440D01*
X128963436Y-108179127D01*
X129254586Y-107984586D01*
X129411413Y-107749878D01*
X129454956Y-107815044D01*
X129952779Y-108147678D01*
X130540000Y-108264484D01*
X131127222Y-108147678D01*
X131625044Y-107815044D01*
X131817159Y-107527522D01*
X132109509Y-107890533D01*
X132627500Y-108173584D01*
X132719969Y-108191302D01*
X132953000Y-108070246D01*
X132953000Y-106627000D01*
X133207000Y-106627000D01*
X133207000Y-108070246D01*
X133440031Y-108191302D01*
X133532500Y-108173584D01*
X134050491Y-107890533D01*
X134420734Y-107430802D01*
X134586862Y-106864380D01*
X134430582Y-106627000D01*
X133207000Y-106627000D01*
X132953000Y-106627000D01*
X132933000Y-106627000D01*
X132933000Y-106373000D01*
X132953000Y-106373000D01*
X132953000Y-104929754D01*
X133207000Y-104929754D01*
X133207000Y-106373000D01*
X134430582Y-106373000D01*
X134586862Y-106135620D01*
X134420734Y-105569198D01*
X134050491Y-105109467D01*
X133532500Y-104826416D01*
X133440031Y-104808698D01*
X133207000Y-104929754D01*
X132953000Y-104929754D01*
X132719969Y-104808698D01*
X132627500Y-104826416D01*
X132109509Y-105109467D01*
X131817160Y-105472477D01*
X131625044Y-105184956D01*
X131127221Y-104852322D01*
X130540000Y-104735516D01*
X129952778Y-104852322D01*
X129454956Y-105184956D01*
X129411414Y-105250122D01*
X129254586Y-105015414D01*
X128963436Y-104820873D01*
X128620001Y-104752560D01*
X127379999Y-104752560D01*
X127036564Y-104820873D01*
X126745414Y-105015414D01*
X126550873Y-105306564D01*
X126482560Y-105649999D01*
X120767440Y-105649999D01*
X120699127Y-105306564D01*
X120504586Y-105015414D01*
X120213436Y-104820873D01*
X119870001Y-104752560D01*
X118629999Y-104752560D01*
X118286564Y-104820873D01*
X117995414Y-105015414D01*
X117838586Y-105250122D01*
X117795044Y-105184956D01*
X117297222Y-104852322D01*
X116710000Y-104735516D01*
X116122779Y-104852322D01*
X115624956Y-105184956D01*
X115432840Y-105472477D01*
X115140491Y-105109467D01*
X114622500Y-104826416D01*
X114530031Y-104808698D01*
X114297000Y-104929754D01*
X114043000Y-104929754D01*
X113809969Y-104808698D01*
X113717500Y-104826416D01*
X113199509Y-105109467D01*
X112900000Y-105481368D01*
X112600491Y-105109467D01*
X112082500Y-104826416D01*
X111990031Y-104808698D01*
X111757000Y-104929754D01*
X111503000Y-104929754D01*
X111269969Y-104808698D01*
X111177500Y-104826416D01*
X110659509Y-105109467D01*
X110289266Y-105569198D01*
X110123138Y-106135620D01*
X103054070Y-106135620D01*
X102940734Y-105749198D01*
X102570491Y-105289467D01*
X102052500Y-105006416D01*
X101960031Y-104988698D01*
X101727000Y-105109754D01*
X101473000Y-105109754D01*
X101239969Y-104988698D01*
X101147500Y-105006416D01*
X100629509Y-105289467D01*
X100491737Y-105460538D01*
X100314586Y-105195414D01*
X100023436Y-105000873D01*
X99680001Y-104932560D01*
X98439999Y-104932560D01*
X98096564Y-105000873D01*
X97805414Y-105195414D01*
X97610873Y-105486564D01*
X97542560Y-105829999D01*
X91787226Y-105829999D01*
X91710734Y-105569198D01*
X91340491Y-105109467D01*
X90822500Y-104826416D01*
X90730031Y-104808698D01*
X90497000Y-104929754D01*
X90243000Y-104929754D01*
X90009969Y-104808698D01*
X89917500Y-104826416D01*
X89399509Y-105109467D01*
X89107160Y-105472477D01*
X88915044Y-105184956D01*
X88417221Y-104852322D01*
X87830000Y-104735516D01*
X87242778Y-104852322D01*
X86744956Y-105184956D01*
X86560000Y-105461763D01*
X86375044Y-105184956D01*
X85877221Y-104852322D01*
X85290000Y-104735516D01*
X84702778Y-104852322D01*
X84204956Y-105184956D01*
X84161414Y-105250122D01*
X84004586Y-105015414D01*
X83885000Y-104935509D01*
X83885000Y-104720131D01*
X87083522Y-101521610D01*
X87178289Y-101458289D01*
X87429146Y-101082855D01*
X87495000Y-100751783D01*
X87495000Y-100751782D01*
X87517235Y-100640000D01*
X87495000Y-100528217D01*
X87495000Y-98754880D01*
X92615510Y-98754880D01*
X92615510Y-99405120D01*
X92864346Y-100005864D01*
X93324136Y-100465654D01*
X93924880Y-100714490D01*
X94575120Y-100714490D01*
X95175864Y-100465654D01*
X95635654Y-100005864D01*
X95884490Y-99405120D01*
X95884490Y-98754880D01*
X99365510Y-98754880D01*
X99365510Y-99405120D01*
X99614346Y-100005864D01*
X100074136Y-100465654D01*
X100674880Y-100714490D01*
X101325120Y-100714490D01*
X101925864Y-100465654D01*
X102385654Y-100005864D01*
X102634490Y-99405120D01*
X102634490Y-98754880D01*
X107115510Y-98754880D01*
X107115510Y-99405120D01*
X107364346Y-100005864D01*
X107824136Y-100465654D01*
X108424880Y-100714490D01*
X109075120Y-100714490D01*
X109675864Y-100465654D01*
X110135654Y-100005864D01*
X110384490Y-99405120D01*
X110384490Y-98754880D01*
X110135654Y-98154136D01*
X109675864Y-97694346D01*
X109075120Y-97445510D01*
X108424880Y-97445510D01*
X107824136Y-97694346D01*
X107364346Y-98154136D01*
X107115510Y-98754880D01*
X102634490Y-98754880D01*
X102385654Y-98154136D01*
X101925864Y-97694346D01*
X101325120Y-97445510D01*
X100674880Y-97445510D01*
X100074136Y-97694346D01*
X99614346Y-98154136D01*
X99365510Y-98754880D01*
X95884490Y-98754880D01*
X95635654Y-98154136D01*
X95175864Y-97694346D01*
X94575120Y-97445510D01*
X93924880Y-97445510D01*
X93324136Y-97694346D01*
X92864346Y-98154136D01*
X92615510Y-98754880D01*
X87495000Y-98754880D01*
X87495000Y-90035000D01*
X93053482Y-90035000D01*
X93324136Y-90305654D01*
X93924880Y-90554490D01*
X94575120Y-90554490D01*
X95175864Y-90305654D01*
X95426518Y-90055000D01*
X99823482Y-90055000D01*
X100074136Y-90305654D01*
X100674880Y-90554490D01*
X101325120Y-90554490D01*
X101925864Y-90305654D01*
X102176518Y-90055000D01*
X107573482Y-90055000D01*
X107824136Y-90305654D01*
X108424880Y-90554490D01*
X109075120Y-90554490D01*
X109675864Y-90305654D01*
X110135654Y-89845864D01*
X110384490Y-89245120D01*
X110384490Y-88594880D01*
X110135654Y-87994136D01*
X109675864Y-87534346D01*
X109075120Y-87285510D01*
X108424880Y-87285510D01*
X107824136Y-87534346D01*
X107573482Y-87785000D01*
X102176518Y-87785000D01*
X101925864Y-87534346D01*
X101325120Y-87285510D01*
X100674880Y-87285510D01*
X100074136Y-87534346D01*
X99823482Y-87785000D01*
X95426518Y-87785000D01*
X95175864Y-87534346D01*
X94575120Y-87285510D01*
X93924880Y-87285510D01*
X93324136Y-87534346D01*
X93093482Y-87765000D01*
X87495000Y-87765000D01*
X87495000Y-69611783D01*
X87517235Y-69500000D01*
X87495000Y-69388217D01*
X87495000Y-63500000D01*
X87842765Y-63500000D01*
X87865001Y-63611788D01*
X87865000Y-79388217D01*
X87842765Y-79500000D01*
X87930854Y-79942855D01*
X88121311Y-80227894D01*
X88181711Y-80318289D01*
X88557145Y-80569146D01*
X89000000Y-80657235D01*
X89111783Y-80635000D01*
X98382265Y-80635000D01*
X98545369Y-80702560D01*
X98350000Y-80702560D01*
X98102235Y-80751843D01*
X97892191Y-80892191D01*
X97751843Y-81102235D01*
X97702560Y-81350000D01*
X97702560Y-82650000D01*
X97751843Y-82897765D01*
X97892191Y-83107809D01*
X98102235Y-83248157D01*
X98350000Y-83297440D01*
X99650000Y-83297440D01*
X99897765Y-83248157D01*
X100107809Y-83107809D01*
X100248157Y-82897765D01*
X100297440Y-82650000D01*
X100297440Y-82273512D01*
X115450000Y-82273512D01*
X115450000Y-82826488D01*
X115661615Y-83337372D01*
X116052628Y-83728385D01*
X116563512Y-83940000D01*
X117116488Y-83940000D01*
X117627372Y-83728385D01*
X118018385Y-83337372D01*
X118230000Y-82826488D01*
X118230000Y-82273512D01*
X118018385Y-81762628D01*
X117627372Y-81371615D01*
X117116488Y-81160000D01*
X116563512Y-81160000D01*
X116052628Y-81371615D01*
X115661615Y-81762628D01*
X115450000Y-82273512D01*
X100297440Y-82273512D01*
X100297440Y-81350000D01*
X100248157Y-81102235D01*
X100107809Y-80892191D01*
X99897765Y-80751843D01*
X99650000Y-80702560D01*
X99454631Y-80702560D01*
X99727894Y-80589371D01*
X100089371Y-80227894D01*
X100285000Y-79755602D01*
X100285000Y-79244398D01*
X100089371Y-78772106D01*
X99727894Y-78410629D01*
X99255602Y-78215000D01*
X98744398Y-78215000D01*
X98382265Y-78365000D01*
X90135000Y-78365000D01*
X90135000Y-73254880D01*
X97365510Y-73254880D01*
X97365510Y-73905120D01*
X97614346Y-74505864D01*
X98074136Y-74965654D01*
X98674880Y-75214490D01*
X99325120Y-75214490D01*
X99925864Y-74965654D01*
X100385654Y-74505864D01*
X100634490Y-73905120D01*
X100634490Y-73254880D01*
X100385654Y-72654136D01*
X99925864Y-72194346D01*
X99325120Y-71945510D01*
X98674880Y-71945510D01*
X98074136Y-72194346D01*
X97614346Y-72654136D01*
X97365510Y-73254880D01*
X90135000Y-73254880D01*
X90135000Y-64635000D01*
X91132265Y-64635000D01*
X91295369Y-64702560D01*
X91100000Y-64702560D01*
X90852235Y-64751843D01*
X90642191Y-64892191D01*
X90501843Y-65102235D01*
X90452560Y-65350000D01*
X90452560Y-66650000D01*
X90501843Y-66897765D01*
X90642191Y-67107809D01*
X90852235Y-67248157D01*
X91100000Y-67297440D01*
X92400000Y-67297440D01*
X92647765Y-67248157D01*
X92857809Y-67107809D01*
X92998157Y-66897765D01*
X93047440Y-66650000D01*
X93047440Y-65350000D01*
X92998157Y-65102235D01*
X92857809Y-64892191D01*
X92647765Y-64751843D01*
X92400000Y-64702560D01*
X92204631Y-64702560D01*
X92477894Y-64589371D01*
X92839371Y-64227894D01*
X93035000Y-63755602D01*
X93035000Y-63244398D01*
X92973068Y-63094880D01*
X97365510Y-63094880D01*
X97365510Y-63745120D01*
X97614346Y-64345864D01*
X98074136Y-64805654D01*
X98674880Y-65054490D01*
X99325120Y-65054490D01*
X99925864Y-64805654D01*
X100385654Y-64345864D01*
X100634490Y-63745120D01*
X100634490Y-63094880D01*
X100385654Y-62494136D01*
X99925864Y-62034346D01*
X99325120Y-61785510D01*
X98674880Y-61785510D01*
X98074136Y-62034346D01*
X97614346Y-62494136D01*
X97365510Y-63094880D01*
X92973068Y-63094880D01*
X92839371Y-62772106D01*
X92477894Y-62410629D01*
X92005602Y-62215000D01*
X91494398Y-62215000D01*
X91132265Y-62365000D01*
X89111783Y-62365000D01*
X89000000Y-62342765D01*
X88888217Y-62365000D01*
X88557145Y-62430854D01*
X88181711Y-62681711D01*
X87930854Y-63057145D01*
X87842765Y-63500000D01*
X87495000Y-63500000D01*
X87495000Y-59555000D01*
X104525717Y-59555000D01*
X104727758Y-59690000D01*
X104375423Y-59925423D01*
X104058260Y-60400091D01*
X103946887Y-60960000D01*
X104058260Y-61519909D01*
X104375423Y-61994577D01*
X104727758Y-62230000D01*
X104375423Y-62465423D01*
X104058260Y-62940091D01*
X103946887Y-63500000D01*
X104058260Y-64059909D01*
X104375423Y-64534577D01*
X104727758Y-64770000D01*
X104375423Y-65005423D01*
X104058260Y-65480091D01*
X103946887Y-66040000D01*
X104058260Y-66599909D01*
X104275001Y-66924285D01*
X104275000Y-79298217D01*
X104252765Y-79410000D01*
X104321509Y-79755602D01*
X104340854Y-79852854D01*
X104591711Y-80228289D01*
X104686482Y-80291613D01*
X105128387Y-80733518D01*
X105191711Y-80828289D01*
X105567145Y-81079146D01*
X106009999Y-81167235D01*
X106121782Y-81145000D01*
X113035200Y-81145000D01*
X113087191Y-81222809D01*
X113297235Y-81363157D01*
X113545000Y-81412440D01*
X115055000Y-81412440D01*
X115302765Y-81363157D01*
X115512809Y-81222809D01*
X115653157Y-81012765D01*
X115702440Y-80765000D01*
X115702440Y-79733512D01*
X117990000Y-79733512D01*
X117990000Y-80286488D01*
X118201615Y-80797372D01*
X118592628Y-81188385D01*
X119103512Y-81400000D01*
X119656488Y-81400000D01*
X120167372Y-81188385D01*
X120558385Y-80797372D01*
X120770000Y-80286488D01*
X120770000Y-79733512D01*
X120558385Y-79222628D01*
X120167372Y-78831615D01*
X119656488Y-78620000D01*
X119103512Y-78620000D01*
X118592628Y-78831615D01*
X118201615Y-79222628D01*
X117990000Y-79733512D01*
X115702440Y-79733512D01*
X115702440Y-79255000D01*
X115653157Y-79007235D01*
X115512809Y-78797191D01*
X115302765Y-78656843D01*
X115055000Y-78607560D01*
X113545000Y-78607560D01*
X113297235Y-78656843D01*
X113087191Y-78797191D01*
X113035200Y-78875000D01*
X106545000Y-78875000D01*
X106545000Y-77780000D01*
X130296887Y-77780000D01*
X130408260Y-78339909D01*
X130725423Y-78814577D01*
X131077758Y-79050000D01*
X130725423Y-79285423D01*
X130408260Y-79760091D01*
X130296887Y-80320000D01*
X130408260Y-80879909D01*
X130725423Y-81354577D01*
X131077758Y-81590000D01*
X130725423Y-81825423D01*
X130408260Y-82300091D01*
X130296887Y-82860000D01*
X130408260Y-83419909D01*
X130725423Y-83894577D01*
X131077758Y-84130000D01*
X130725423Y-84365423D01*
X130408260Y-84840091D01*
X130296887Y-85400000D01*
X130408260Y-85959909D01*
X130725423Y-86434577D01*
X131077758Y-86670000D01*
X130725423Y-86905423D01*
X130408260Y-87380091D01*
X130296887Y-87940000D01*
X130408260Y-88499909D01*
X130725423Y-88974577D01*
X131077758Y-89210000D01*
X130725423Y-89445423D01*
X130408260Y-89920091D01*
X130296887Y-90480000D01*
X130408260Y-91039909D01*
X130725423Y-91514577D01*
X131077758Y-91750000D01*
X130725423Y-91985423D01*
X130408260Y-92460091D01*
X130296887Y-93020000D01*
X130408260Y-93579909D01*
X130725423Y-94054577D01*
X131077758Y-94290000D01*
X130725423Y-94525423D01*
X130408260Y-95000091D01*
X130296887Y-95560000D01*
X130408260Y-96119909D01*
X130725423Y-96594577D01*
X131200091Y-96911740D01*
X131618667Y-96995000D01*
X131901333Y-96995000D01*
X132319909Y-96911740D01*
X132794577Y-96594577D01*
X133111740Y-96119909D01*
X133223113Y-95560000D01*
X133111740Y-95000091D01*
X132794577Y-94525423D01*
X132442242Y-94290000D01*
X132794577Y-94054577D01*
X133111740Y-93579909D01*
X133223113Y-93020000D01*
X133111740Y-92460091D01*
X132794577Y-91985423D01*
X132442242Y-91750000D01*
X132794577Y-91514577D01*
X133111740Y-91039909D01*
X133223113Y-90480000D01*
X133111740Y-89920091D01*
X132794577Y-89445423D01*
X132442242Y-89210000D01*
X132794577Y-88974577D01*
X133111740Y-88499909D01*
X133223113Y-87940000D01*
X133111740Y-87380091D01*
X132794577Y-86905423D01*
X132442242Y-86670000D01*
X132794577Y-86434577D01*
X133111740Y-85959909D01*
X133223113Y-85400000D01*
X133111740Y-84840091D01*
X132794577Y-84365423D01*
X132442242Y-84130000D01*
X132794577Y-83894577D01*
X133111740Y-83419909D01*
X133223113Y-82860000D01*
X133111740Y-82300091D01*
X132794577Y-81825423D01*
X132442242Y-81590000D01*
X132794577Y-81354577D01*
X133111740Y-80879909D01*
X133223113Y-80320000D01*
X133111740Y-79760091D01*
X132794577Y-79285423D01*
X132442242Y-79050000D01*
X132794577Y-78814577D01*
X133111740Y-78339909D01*
X133223113Y-77780000D01*
X133211179Y-77720000D01*
X134985908Y-77720000D01*
X135101161Y-78299418D01*
X135429375Y-78790625D01*
X135727761Y-78990000D01*
X135429375Y-79189375D01*
X135101161Y-79680582D01*
X134985908Y-80260000D01*
X135101161Y-80839418D01*
X135429375Y-81330625D01*
X135727761Y-81530000D01*
X135429375Y-81729375D01*
X135101161Y-82220582D01*
X134985908Y-82800000D01*
X135101161Y-83379418D01*
X135429375Y-83870625D01*
X135727761Y-84070000D01*
X135429375Y-84269375D01*
X135101161Y-84760582D01*
X134985908Y-85340000D01*
X135101161Y-85919418D01*
X135429375Y-86410625D01*
X135727761Y-86610000D01*
X135429375Y-86809375D01*
X135101161Y-87300582D01*
X134985908Y-87880000D01*
X135101161Y-88459418D01*
X135429375Y-88950625D01*
X135727761Y-89150000D01*
X135429375Y-89349375D01*
X135101161Y-89840582D01*
X134985908Y-90420000D01*
X135101161Y-90999418D01*
X135429375Y-91490625D01*
X135727761Y-91690000D01*
X135429375Y-91889375D01*
X135101161Y-92380582D01*
X134985908Y-92960000D01*
X135101161Y-93539418D01*
X135429375Y-94030625D01*
X135447619Y-94042816D01*
X135402235Y-94051843D01*
X135192191Y-94192191D01*
X135051843Y-94402235D01*
X135002560Y-94650000D01*
X135002560Y-96350000D01*
X135051843Y-96597765D01*
X135192191Y-96807809D01*
X135402235Y-96948157D01*
X135650000Y-96997440D01*
X137350000Y-96997440D01*
X137597765Y-96948157D01*
X137807809Y-96807809D01*
X137948157Y-96597765D01*
X137997440Y-96350000D01*
X137997440Y-94650000D01*
X137948157Y-94402235D01*
X137807809Y-94192191D01*
X137597765Y-94051843D01*
X137552381Y-94042816D01*
X137570625Y-94030625D01*
X137898839Y-93539418D01*
X138014092Y-92960000D01*
X137898839Y-92380582D01*
X137570625Y-91889375D01*
X137272239Y-91690000D01*
X137570625Y-91490625D01*
X137898839Y-90999418D01*
X138014092Y-90420000D01*
X137898839Y-89840582D01*
X137570625Y-89349375D01*
X137272239Y-89150000D01*
X137570625Y-88950625D01*
X137898839Y-88459418D01*
X138014092Y-87880000D01*
X137898839Y-87300582D01*
X137570625Y-86809375D01*
X137272239Y-86610000D01*
X137570625Y-86410625D01*
X137898839Y-85919418D01*
X138014092Y-85340000D01*
X137898839Y-84760582D01*
X137570625Y-84269375D01*
X137272239Y-84070000D01*
X137570625Y-83870625D01*
X137898839Y-83379418D01*
X138014092Y-82800000D01*
X137898839Y-82220582D01*
X137570625Y-81729375D01*
X137272239Y-81530000D01*
X137570625Y-81330625D01*
X137898839Y-80839418D01*
X138014092Y-80260000D01*
X137898839Y-79680582D01*
X137570625Y-79189375D01*
X137272239Y-78990000D01*
X137570625Y-78790625D01*
X137898839Y-78299418D01*
X138014092Y-77720000D01*
X137898839Y-77140582D01*
X137570625Y-76649375D01*
X137079418Y-76321161D01*
X136646256Y-76235000D01*
X136353744Y-76235000D01*
X135920582Y-76321161D01*
X135429375Y-76649375D01*
X135101161Y-77140582D01*
X134985908Y-77720000D01*
X133211179Y-77720000D01*
X133111740Y-77220091D01*
X132794577Y-76745423D01*
X132319909Y-76428260D01*
X131901333Y-76345000D01*
X131618667Y-76345000D01*
X131200091Y-76428260D01*
X130725423Y-76745423D01*
X130408260Y-77220091D01*
X130296887Y-77780000D01*
X106545000Y-77780000D01*
X106545000Y-66924283D01*
X106761740Y-66599909D01*
X106873113Y-66040000D01*
X106761740Y-65480091D01*
X106444577Y-65005423D01*
X106092242Y-64770000D01*
X106444577Y-64534577D01*
X106761740Y-64059909D01*
X106873113Y-63500000D01*
X106761740Y-62940091D01*
X106444577Y-62465423D01*
X106092242Y-62230000D01*
X106444577Y-61994577D01*
X106761740Y-61519909D01*
X106873113Y-60960000D01*
X111566887Y-60960000D01*
X111678260Y-61519909D01*
X111995423Y-61994577D01*
X112347758Y-62230000D01*
X111995423Y-62465423D01*
X111678260Y-62940091D01*
X111566887Y-63500000D01*
X111678260Y-64059909D01*
X111995423Y-64534577D01*
X112347758Y-64770000D01*
X111995423Y-65005423D01*
X111678260Y-65480091D01*
X111566887Y-66040000D01*
X111678260Y-66599909D01*
X111995423Y-67074577D01*
X112470091Y-67391740D01*
X112888667Y-67475000D01*
X113171333Y-67475000D01*
X113589909Y-67391740D01*
X114064577Y-67074577D01*
X114381740Y-66599909D01*
X114493113Y-66040000D01*
X114381740Y-65480091D01*
X114321544Y-65390000D01*
X118082560Y-65390000D01*
X118082560Y-66690000D01*
X118131843Y-66937765D01*
X118272191Y-67147809D01*
X118482235Y-67288157D01*
X118730000Y-67337440D01*
X120030000Y-67337440D01*
X120277765Y-67288157D01*
X120487809Y-67147809D01*
X120628157Y-66937765D01*
X120677440Y-66690000D01*
X120677440Y-65390000D01*
X120628157Y-65142235D01*
X120487809Y-64932191D01*
X120277765Y-64791843D01*
X120030000Y-64742560D01*
X119834631Y-64742560D01*
X120107894Y-64629371D01*
X120469371Y-64267894D01*
X120665000Y-63795602D01*
X120665000Y-63284398D01*
X120469371Y-62812106D01*
X120107894Y-62450629D01*
X119635602Y-62255000D01*
X119124398Y-62255000D01*
X118652106Y-62450629D01*
X118290629Y-62812106D01*
X118095000Y-63284398D01*
X118095000Y-63795602D01*
X118290629Y-64267894D01*
X118652106Y-64629371D01*
X118925369Y-64742560D01*
X118730000Y-64742560D01*
X118482235Y-64791843D01*
X118272191Y-64932191D01*
X118131843Y-65142235D01*
X118082560Y-65390000D01*
X114321544Y-65390000D01*
X114064577Y-65005423D01*
X113712242Y-64770000D01*
X114064577Y-64534577D01*
X114381740Y-64059909D01*
X114493113Y-63500000D01*
X114381740Y-62940091D01*
X114064577Y-62465423D01*
X113712242Y-62230000D01*
X114064577Y-61994577D01*
X114381740Y-61519909D01*
X114481178Y-61020000D01*
X130296887Y-61020000D01*
X130408260Y-61579909D01*
X130725423Y-62054577D01*
X131077758Y-62290000D01*
X130725423Y-62525423D01*
X130408260Y-63000091D01*
X130296887Y-63560000D01*
X130408260Y-64119909D01*
X130725423Y-64594577D01*
X131077758Y-64830000D01*
X130725423Y-65065423D01*
X130408260Y-65540091D01*
X130296887Y-66100000D01*
X130408260Y-66659909D01*
X130725423Y-67134577D01*
X131077758Y-67370000D01*
X130725423Y-67605423D01*
X130408260Y-68080091D01*
X130296887Y-68640000D01*
X130408260Y-69199909D01*
X130725423Y-69674577D01*
X131077758Y-69910000D01*
X130725423Y-70145423D01*
X130408260Y-70620091D01*
X130296887Y-71180000D01*
X130408260Y-71739909D01*
X130725423Y-72214577D01*
X131077758Y-72450000D01*
X130725423Y-72685423D01*
X130408260Y-73160091D01*
X130296887Y-73720000D01*
X130408260Y-74279909D01*
X130725423Y-74754577D01*
X131200091Y-75071740D01*
X131618667Y-75155000D01*
X131901333Y-75155000D01*
X132319909Y-75071740D01*
X132794577Y-74754577D01*
X133111740Y-74279909D01*
X133223113Y-73720000D01*
X133111740Y-73160091D01*
X132794577Y-72685423D01*
X132442242Y-72450000D01*
X132794577Y-72214577D01*
X133111740Y-71739909D01*
X133223113Y-71180000D01*
X133111740Y-70620091D01*
X132794577Y-70145423D01*
X132442242Y-69910000D01*
X132794577Y-69674577D01*
X133111740Y-69199909D01*
X133223113Y-68640000D01*
X133111740Y-68080091D01*
X132794577Y-67605423D01*
X132442242Y-67370000D01*
X132794577Y-67134577D01*
X133111740Y-66659909D01*
X133223113Y-66100000D01*
X133111740Y-65540091D01*
X132794577Y-65065423D01*
X132442242Y-64830000D01*
X132794577Y-64594577D01*
X133111740Y-64119909D01*
X133223113Y-63560000D01*
X133111740Y-63000091D01*
X132794577Y-62525423D01*
X132442242Y-62290000D01*
X132794577Y-62054577D01*
X133111740Y-61579909D01*
X133223113Y-61020000D01*
X133179353Y-60800000D01*
X134985908Y-60800000D01*
X135101161Y-61379418D01*
X135429375Y-61870625D01*
X135727761Y-62070000D01*
X135429375Y-62269375D01*
X135101161Y-62760582D01*
X134985908Y-63340000D01*
X135101161Y-63919418D01*
X135429375Y-64410625D01*
X135727761Y-64610000D01*
X135429375Y-64809375D01*
X135101161Y-65300582D01*
X134985908Y-65880000D01*
X135101161Y-66459418D01*
X135429375Y-66950625D01*
X135727761Y-67150000D01*
X135429375Y-67349375D01*
X135101161Y-67840582D01*
X134985908Y-68420000D01*
X135101161Y-68999418D01*
X135429375Y-69490625D01*
X135727761Y-69690000D01*
X135429375Y-69889375D01*
X135101161Y-70380582D01*
X134985908Y-70960000D01*
X135101161Y-71539418D01*
X135429375Y-72030625D01*
X135447619Y-72042816D01*
X135402235Y-72051843D01*
X135192191Y-72192191D01*
X135051843Y-72402235D01*
X135002560Y-72650000D01*
X135002560Y-74350000D01*
X135051843Y-74597765D01*
X135192191Y-74807809D01*
X135402235Y-74948157D01*
X135650000Y-74997440D01*
X137350000Y-74997440D01*
X137597765Y-74948157D01*
X137807809Y-74807809D01*
X137948157Y-74597765D01*
X137997440Y-74350000D01*
X137997440Y-72650000D01*
X137948157Y-72402235D01*
X137807809Y-72192191D01*
X137597765Y-72051843D01*
X137552381Y-72042816D01*
X137570625Y-72030625D01*
X137898839Y-71539418D01*
X138014092Y-70960000D01*
X137898839Y-70380582D01*
X137570625Y-69889375D01*
X137272239Y-69690000D01*
X137570625Y-69490625D01*
X137898839Y-68999418D01*
X138014092Y-68420000D01*
X137898839Y-67840582D01*
X137570625Y-67349375D01*
X137272239Y-67150000D01*
X137570625Y-66950625D01*
X137898839Y-66459418D01*
X138014092Y-65880000D01*
X137898839Y-65300582D01*
X137570625Y-64809375D01*
X137272239Y-64610000D01*
X137570625Y-64410625D01*
X137898839Y-63919418D01*
X138014092Y-63340000D01*
X137898839Y-62760582D01*
X137570625Y-62269375D01*
X137272239Y-62070000D01*
X137570625Y-61870625D01*
X137898839Y-61379418D01*
X138014092Y-60800000D01*
X137898839Y-60220582D01*
X137570625Y-59729375D01*
X137079418Y-59401161D01*
X136646256Y-59315000D01*
X136353744Y-59315000D01*
X135920582Y-59401161D01*
X135429375Y-59729375D01*
X135101161Y-60220582D01*
X134985908Y-60800000D01*
X133179353Y-60800000D01*
X133111740Y-60460091D01*
X132794577Y-59985423D01*
X132410892Y-59729053D01*
X132615134Y-59632389D01*
X132991041Y-59217423D01*
X133151904Y-58829039D01*
X133029915Y-58607000D01*
X131887000Y-58607000D01*
X131887000Y-58627000D01*
X131633000Y-58627000D01*
X131633000Y-58607000D01*
X130490085Y-58607000D01*
X130368096Y-58829039D01*
X130528959Y-59217423D01*
X130904866Y-59632389D01*
X131109108Y-59729053D01*
X130725423Y-59985423D01*
X130408260Y-60460091D01*
X130296887Y-61020000D01*
X114481178Y-61020000D01*
X114493113Y-60960000D01*
X114381740Y-60400091D01*
X114064577Y-59925423D01*
X113680892Y-59669053D01*
X113885134Y-59572389D01*
X114261041Y-59157423D01*
X114421904Y-58769039D01*
X114299915Y-58547000D01*
X113157000Y-58547000D01*
X113157000Y-58567000D01*
X112903000Y-58567000D01*
X112903000Y-58547000D01*
X111760085Y-58547000D01*
X111638096Y-58769039D01*
X111798959Y-59157423D01*
X112174866Y-59572389D01*
X112379108Y-59669053D01*
X111995423Y-59925423D01*
X111678260Y-60400091D01*
X111566887Y-60960000D01*
X106873113Y-60960000D01*
X106761740Y-60400091D01*
X106444577Y-59925423D01*
X106092242Y-59690000D01*
X106444577Y-59454577D01*
X106761740Y-58979909D01*
X106873113Y-58420000D01*
X106761740Y-57860091D01*
X106444577Y-57385423D01*
X106092242Y-57150000D01*
X106444577Y-56914577D01*
X106761740Y-56439909D01*
X106873113Y-55880000D01*
X106761740Y-55320091D01*
X106444577Y-54845423D01*
X106092242Y-54610000D01*
X106444577Y-54374577D01*
X106761740Y-53899909D01*
X106873113Y-53340000D01*
X106761740Y-52780091D01*
X106444577Y-52305423D01*
X106092242Y-52070000D01*
X106444577Y-51834577D01*
X106761740Y-51359909D01*
X106873113Y-50800000D01*
X111566887Y-50800000D01*
X111678260Y-51359909D01*
X111995423Y-51834577D01*
X112347758Y-52070000D01*
X111995423Y-52305423D01*
X111678260Y-52780091D01*
X111566887Y-53340000D01*
X111678260Y-53899909D01*
X111995423Y-54374577D01*
X112347758Y-54610000D01*
X111995423Y-54845423D01*
X111678260Y-55320091D01*
X111566887Y-55880000D01*
X111678260Y-56439909D01*
X111995423Y-56914577D01*
X112379108Y-57170947D01*
X112174866Y-57267611D01*
X111798959Y-57682577D01*
X111638096Y-58070961D01*
X111760085Y-58293000D01*
X112903000Y-58293000D01*
X112903000Y-58273000D01*
X113157000Y-58273000D01*
X113157000Y-58293000D01*
X114299915Y-58293000D01*
X114421904Y-58070961D01*
X114261041Y-57682577D01*
X113885134Y-57267611D01*
X113680892Y-57170947D01*
X114064577Y-56914577D01*
X114381740Y-56439909D01*
X114493113Y-55880000D01*
X114381740Y-55320091D01*
X114064577Y-54845423D01*
X113712242Y-54610000D01*
X114064577Y-54374577D01*
X114381740Y-53899909D01*
X114493113Y-53340000D01*
X114381740Y-52780091D01*
X114064577Y-52305423D01*
X113712242Y-52070000D01*
X114064577Y-51834577D01*
X114381740Y-51359909D01*
X114469243Y-50920000D01*
X117985908Y-50920000D01*
X118101161Y-51499418D01*
X118429375Y-51990625D01*
X118727761Y-52190000D01*
X118429375Y-52389375D01*
X118101161Y-52880582D01*
X117985908Y-53460000D01*
X118101161Y-54039418D01*
X118429375Y-54530625D01*
X118447619Y-54542816D01*
X118402235Y-54551843D01*
X118192191Y-54692191D01*
X118051843Y-54902235D01*
X118002560Y-55150000D01*
X118002560Y-56850000D01*
X118051843Y-57097765D01*
X118192191Y-57307809D01*
X118402235Y-57448157D01*
X118650000Y-57497440D01*
X120350000Y-57497440D01*
X120597765Y-57448157D01*
X120807809Y-57307809D01*
X120948157Y-57097765D01*
X120997440Y-56850000D01*
X120997440Y-55150000D01*
X120948157Y-54902235D01*
X120807809Y-54692191D01*
X120597765Y-54551843D01*
X120552381Y-54542816D01*
X120570625Y-54530625D01*
X120898839Y-54039418D01*
X121014092Y-53460000D01*
X120898839Y-52880582D01*
X120570625Y-52389375D01*
X120272239Y-52190000D01*
X120570625Y-51990625D01*
X120898839Y-51499418D01*
X121014092Y-50920000D01*
X121002158Y-50860000D01*
X130296887Y-50860000D01*
X130408260Y-51419909D01*
X130725423Y-51894577D01*
X131077758Y-52130000D01*
X130725423Y-52365423D01*
X130408260Y-52840091D01*
X130296887Y-53400000D01*
X130408260Y-53959909D01*
X130725423Y-54434577D01*
X131077758Y-54670000D01*
X130725423Y-54905423D01*
X130408260Y-55380091D01*
X130296887Y-55940000D01*
X130408260Y-56499909D01*
X130725423Y-56974577D01*
X131109108Y-57230947D01*
X130904866Y-57327611D01*
X130528959Y-57742577D01*
X130368096Y-58130961D01*
X130490085Y-58353000D01*
X131633000Y-58353000D01*
X131633000Y-58333000D01*
X131887000Y-58333000D01*
X131887000Y-58353000D01*
X133029915Y-58353000D01*
X133151904Y-58130961D01*
X132991041Y-57742577D01*
X132615134Y-57327611D01*
X132410892Y-57230947D01*
X132794577Y-56974577D01*
X133111740Y-56499909D01*
X133223113Y-55940000D01*
X133111740Y-55380091D01*
X132794577Y-54905423D01*
X132442242Y-54670000D01*
X132794577Y-54434577D01*
X133111740Y-53959909D01*
X133223113Y-53400000D01*
X133111740Y-52840091D01*
X132794577Y-52365423D01*
X132442242Y-52130000D01*
X132794577Y-51894577D01*
X133111740Y-51419909D01*
X133211178Y-50920000D01*
X134985908Y-50920000D01*
X135101161Y-51499418D01*
X135429375Y-51990625D01*
X135727761Y-52190000D01*
X135429375Y-52389375D01*
X135101161Y-52880582D01*
X134985908Y-53460000D01*
X135101161Y-54039418D01*
X135429375Y-54530625D01*
X135447619Y-54542816D01*
X135402235Y-54551843D01*
X135192191Y-54692191D01*
X135051843Y-54902235D01*
X135002560Y-55150000D01*
X135002560Y-56850000D01*
X135051843Y-57097765D01*
X135192191Y-57307809D01*
X135402235Y-57448157D01*
X135650000Y-57497440D01*
X137350000Y-57497440D01*
X137597765Y-57448157D01*
X137807809Y-57307809D01*
X137948157Y-57097765D01*
X137997440Y-56850000D01*
X137997440Y-55150000D01*
X137948157Y-54902235D01*
X137807809Y-54692191D01*
X137597765Y-54551843D01*
X137552381Y-54542816D01*
X137570625Y-54530625D01*
X137898839Y-54039418D01*
X138014092Y-53460000D01*
X137898839Y-52880582D01*
X137570625Y-52389375D01*
X137272239Y-52190000D01*
X137570625Y-51990625D01*
X137898839Y-51499418D01*
X138014092Y-50920000D01*
X137898839Y-50340582D01*
X137570625Y-49849375D01*
X137079418Y-49521161D01*
X136646256Y-49435000D01*
X136353744Y-49435000D01*
X135920582Y-49521161D01*
X135429375Y-49849375D01*
X135101161Y-50340582D01*
X134985908Y-50920000D01*
X133211178Y-50920000D01*
X133223113Y-50860000D01*
X133111740Y-50300091D01*
X132794577Y-49825423D01*
X132319909Y-49508260D01*
X131901333Y-49425000D01*
X131618667Y-49425000D01*
X131200091Y-49508260D01*
X130725423Y-49825423D01*
X130408260Y-50300091D01*
X130296887Y-50860000D01*
X121002158Y-50860000D01*
X120898839Y-50340582D01*
X120570625Y-49849375D01*
X120079418Y-49521161D01*
X119646256Y-49435000D01*
X119353744Y-49435000D01*
X118920582Y-49521161D01*
X118429375Y-49849375D01*
X118101161Y-50340582D01*
X117985908Y-50920000D01*
X114469243Y-50920000D01*
X114493113Y-50800000D01*
X114381740Y-50240091D01*
X114064577Y-49765423D01*
X113589909Y-49448260D01*
X113171333Y-49365000D01*
X112888667Y-49365000D01*
X112470091Y-49448260D01*
X111995423Y-49765423D01*
X111678260Y-50240091D01*
X111566887Y-50800000D01*
X106873113Y-50800000D01*
X106761740Y-50240091D01*
X106444577Y-49765423D01*
X105969909Y-49448260D01*
X105551333Y-49365000D01*
X105268667Y-49365000D01*
X104850091Y-49448260D01*
X104375423Y-49765423D01*
X104058260Y-50240091D01*
X103946887Y-50800000D01*
X104058260Y-51359909D01*
X104375423Y-51834577D01*
X104727758Y-52070000D01*
X104375423Y-52305423D01*
X104058260Y-52780091D01*
X103946887Y-53340000D01*
X104058260Y-53899909D01*
X104375423Y-54374577D01*
X104727758Y-54610000D01*
X104525717Y-54745000D01*
X91135000Y-54745000D01*
X91135000Y-46482163D01*
X93027443Y-46482163D01*
X93126042Y-46748965D01*
X93735582Y-46975401D01*
X94385377Y-46951341D01*
X94873958Y-46748965D01*
X94972557Y-46482163D01*
X94000000Y-45509605D01*
X93027443Y-46482163D01*
X91135000Y-46482163D01*
X91135000Y-45065582D01*
X92354599Y-45065582D01*
X92378659Y-45715377D01*
X92581035Y-46203958D01*
X92847837Y-46302557D01*
X93820395Y-45330000D01*
X94179605Y-45330000D01*
X95152163Y-46302557D01*
X95418965Y-46203958D01*
X95518177Y-45936890D01*
X135058524Y-45936890D01*
X135228355Y-46346924D01*
X135618642Y-46775183D01*
X136143108Y-47021486D01*
X136373000Y-46900819D01*
X136373000Y-45707000D01*
X136627000Y-45707000D01*
X136627000Y-46900819D01*
X136856892Y-47021486D01*
X137381358Y-46775183D01*
X137771645Y-46346924D01*
X137941476Y-45936890D01*
X137820155Y-45707000D01*
X136627000Y-45707000D01*
X136373000Y-45707000D01*
X135179845Y-45707000D01*
X135058524Y-45936890D01*
X95518177Y-45936890D01*
X95645401Y-45594418D01*
X95621341Y-44944623D01*
X95418965Y-44456042D01*
X95152163Y-44357443D01*
X94179605Y-45330000D01*
X93820395Y-45330000D01*
X92847837Y-44357443D01*
X92581035Y-44456042D01*
X92354599Y-45065582D01*
X91135000Y-45065582D01*
X91135000Y-44177837D01*
X93027443Y-44177837D01*
X94000000Y-45150395D01*
X94972557Y-44177837D01*
X94873958Y-43911035D01*
X94264418Y-43684599D01*
X93614623Y-43708659D01*
X93126042Y-43911035D01*
X93027443Y-44177837D01*
X91135000Y-44177837D01*
X91135000Y-43396890D01*
X135058524Y-43396890D01*
X135228355Y-43806924D01*
X135618642Y-44235183D01*
X135777954Y-44310000D01*
X135618642Y-44384817D01*
X135228355Y-44813076D01*
X135058524Y-45223110D01*
X135179845Y-45453000D01*
X136373000Y-45453000D01*
X136373000Y-43167000D01*
X136627000Y-43167000D01*
X136627000Y-45453000D01*
X137820155Y-45453000D01*
X137941476Y-45223110D01*
X137771645Y-44813076D01*
X137381358Y-44384817D01*
X137222046Y-44310000D01*
X137381358Y-44235183D01*
X137771645Y-43806924D01*
X137941476Y-43396890D01*
X137820155Y-43167000D01*
X136627000Y-43167000D01*
X136373000Y-43167000D01*
X135179845Y-43167000D01*
X135058524Y-43396890D01*
X91135000Y-43396890D01*
X91135000Y-40785750D01*
X135015000Y-40785750D01*
X135015000Y-41476310D01*
X135111673Y-41709699D01*
X135290302Y-41888327D01*
X135499878Y-41975136D01*
X135228355Y-42273076D01*
X135058524Y-42683110D01*
X135179845Y-42913000D01*
X136373000Y-42913000D01*
X136373000Y-40627000D01*
X136627000Y-40627000D01*
X136627000Y-42913000D01*
X137820155Y-42913000D01*
X137941476Y-42683110D01*
X137771645Y-42273076D01*
X137500122Y-41975136D01*
X137709698Y-41888327D01*
X137888327Y-41709699D01*
X137985000Y-41476310D01*
X137985000Y-40785750D01*
X137826250Y-40627000D01*
X136627000Y-40627000D01*
X136373000Y-40627000D01*
X135173750Y-40627000D01*
X135015000Y-40785750D01*
X91135000Y-40785750D01*
X91135000Y-39523690D01*
X135015000Y-39523690D01*
X135015000Y-40214250D01*
X135173750Y-40373000D01*
X136373000Y-40373000D01*
X136373000Y-39173750D01*
X136627000Y-39173750D01*
X136627000Y-40373000D01*
X137826250Y-40373000D01*
X137985000Y-40214250D01*
X137985000Y-39523690D01*
X137888327Y-39290301D01*
X137709698Y-39111673D01*
X137476309Y-39015000D01*
X136785750Y-39015000D01*
X136627000Y-39173750D01*
X136373000Y-39173750D01*
X136214250Y-39015000D01*
X135523691Y-39015000D01*
X135290302Y-39111673D01*
X135111673Y-39290301D01*
X135015000Y-39523690D01*
X91135000Y-39523690D01*
X91135000Y-36305000D01*
X92823482Y-36305000D01*
X93074136Y-36555654D01*
X93674880Y-36804490D01*
X94325120Y-36804490D01*
X94925864Y-36555654D01*
X95385654Y-36095864D01*
X95634490Y-35495120D01*
X95634490Y-34844880D01*
X95385654Y-34244136D01*
X94925864Y-33784346D01*
X94325120Y-33535510D01*
X93674880Y-33535510D01*
X93074136Y-33784346D01*
X92823482Y-34035000D01*
X90111783Y-34035000D01*
X90000000Y-34012765D01*
X89888217Y-34035000D01*
X87536518Y-34035000D01*
X87285864Y-33784346D01*
X86685120Y-33535510D01*
X86034880Y-33535510D01*
X85434136Y-33784346D01*
X84974346Y-34244136D01*
X84725510Y-34844880D01*
X84725510Y-35495120D01*
X84974346Y-36095864D01*
X85434136Y-36555654D01*
X86034880Y-36804490D01*
X86685120Y-36804490D01*
X87285864Y-36555654D01*
X87536518Y-36305000D01*
X88865000Y-36305000D01*
X88865001Y-55148212D01*
X88842765Y-55260000D01*
X88930854Y-55702854D01*
X88930855Y-55702855D01*
X89181712Y-56078289D01*
X89276480Y-56141611D01*
X89738387Y-56603518D01*
X89801711Y-56698289D01*
X90177145Y-56949146D01*
X90508217Y-57015000D01*
X90619999Y-57037235D01*
X90731781Y-57015000D01*
X104525717Y-57015000D01*
X104727758Y-57150000D01*
X104525717Y-57285000D01*
X87495000Y-57285000D01*
X87495000Y-46506518D01*
X87745654Y-46255864D01*
X87994490Y-45655120D01*
X87994490Y-45004880D01*
X87745654Y-44404136D01*
X87285864Y-43944346D01*
X86685120Y-43695510D01*
X86034880Y-43695510D01*
X85434136Y-43944346D01*
X84974346Y-44404136D01*
X84973988Y-44405000D01*
X79662354Y-44405000D01*
X79807809Y-44307809D01*
X79948157Y-44097765D01*
X79997440Y-43850000D01*
X79997440Y-42150000D01*
X79948157Y-41902235D01*
X79807809Y-41692191D01*
X79597765Y-41551843D01*
X79350000Y-41502560D01*
X77650000Y-41502560D01*
X77402235Y-41551843D01*
X77192191Y-41692191D01*
X77051843Y-41902235D01*
X77002560Y-42150000D01*
X77002560Y-43850000D01*
X77051843Y-44097765D01*
X77192191Y-44307809D01*
X77365000Y-44423277D01*
X77365000Y-44565718D01*
X77101161Y-44960582D01*
X76985908Y-45540000D01*
X75660000Y-45540000D01*
X75660000Y-25660000D01*
X139340001Y-25660000D01*
X139340000Y-112840000D01*
X139340000Y-112840000D01*
G37*
X139340000Y-112840000D02*
X75660000Y-112840000D01*
X75660000Y-82800000D01*
X76985908Y-82800000D01*
X77101161Y-83379418D01*
X77429375Y-83870625D01*
X77727761Y-84070000D01*
X77429375Y-84269375D01*
X77101161Y-84760582D01*
X76985908Y-85340000D01*
X77101161Y-85919418D01*
X77429375Y-86410625D01*
X77727761Y-86610000D01*
X77429375Y-86809375D01*
X77101161Y-87300582D01*
X76985908Y-87880000D01*
X77101161Y-88459418D01*
X77429375Y-88950625D01*
X77727761Y-89150000D01*
X77429375Y-89349375D01*
X77101161Y-89840582D01*
X76985908Y-90420000D01*
X77101161Y-90999418D01*
X77429375Y-91490625D01*
X77727761Y-91690000D01*
X77429375Y-91889375D01*
X77101161Y-92380582D01*
X76985908Y-92960000D01*
X77101161Y-93539418D01*
X77429375Y-94030625D01*
X77447619Y-94042816D01*
X77402235Y-94051843D01*
X77192191Y-94192191D01*
X77051843Y-94402235D01*
X77002560Y-94650000D01*
X77002560Y-96350000D01*
X77051843Y-96597765D01*
X77192191Y-96807809D01*
X77402235Y-96948157D01*
X77650000Y-96997440D01*
X79350000Y-96997440D01*
X79597765Y-96948157D01*
X79807809Y-96807809D01*
X79948157Y-96597765D01*
X79997440Y-96350000D01*
X79997440Y-94650000D01*
X79948157Y-94402235D01*
X79807809Y-94192191D01*
X79597765Y-94051843D01*
X79552381Y-94042816D01*
X79570625Y-94030625D01*
X79898839Y-93539418D01*
X80014092Y-92960000D01*
X79898839Y-92380582D01*
X79570625Y-91889375D01*
X79272239Y-91690000D01*
X79570625Y-91490625D01*
X79898839Y-90999418D01*
X80014092Y-90420000D01*
X79898839Y-89840582D01*
X79570625Y-89349375D01*
X79272239Y-89150000D01*
X79570625Y-88950625D01*
X79898839Y-88459418D01*
X80014092Y-87880000D01*
X79898839Y-87300582D01*
X79570625Y-86809375D01*
X79272239Y-86610000D01*
X79570625Y-86410625D01*
X79898839Y-85919418D01*
X80014092Y-85340000D01*
X79898839Y-84760582D01*
X79570625Y-84269375D01*
X79272239Y-84070000D01*
X79570625Y-83870625D01*
X79898839Y-83379418D01*
X80002157Y-82860000D01*
X82036887Y-82860000D01*
X82148260Y-83419909D01*
X82465423Y-83894577D01*
X82817758Y-84130000D01*
X82465423Y-84365423D01*
X82148260Y-84840091D01*
X82036887Y-85400000D01*
X82148260Y-85959909D01*
X82465423Y-86434577D01*
X82817758Y-86670000D01*
X82465423Y-86905423D01*
X82148260Y-87380091D01*
X82036887Y-87940000D01*
X82148260Y-88499909D01*
X82465423Y-88974577D01*
X82817758Y-89210000D01*
X82465423Y-89445423D01*
X82148260Y-89920091D01*
X82036887Y-90480000D01*
X82148260Y-91039909D01*
X82465423Y-91514577D01*
X82817758Y-91750000D01*
X82465423Y-91985423D01*
X82148260Y-92460091D01*
X82036887Y-93020000D01*
X82148260Y-93579909D01*
X82465423Y-94054577D01*
X82817758Y-94290000D01*
X82465423Y-94525423D01*
X82148260Y-95000091D01*
X82036887Y-95560000D01*
X82148260Y-96119909D01*
X82465423Y-96594577D01*
X82940091Y-96911740D01*
X83358667Y-96995000D01*
X83641333Y-96995000D01*
X84059909Y-96911740D01*
X84534577Y-96594577D01*
X84851740Y-96119909D01*
X84963113Y-95560000D01*
X84851740Y-95000091D01*
X84534577Y-94525423D01*
X84182242Y-94290000D01*
X84534577Y-94054577D01*
X84851740Y-93579909D01*
X84963113Y-93020000D01*
X84851740Y-92460091D01*
X84534577Y-91985423D01*
X84182242Y-91750000D01*
X84534577Y-91514577D01*
X84851740Y-91039909D01*
X84963113Y-90480000D01*
X84851740Y-89920091D01*
X84534577Y-89445423D01*
X84182242Y-89210000D01*
X84534577Y-88974577D01*
X84851740Y-88499909D01*
X84963113Y-87940000D01*
X84851740Y-87380091D01*
X84534577Y-86905423D01*
X84182242Y-86670000D01*
X84534577Y-86434577D01*
X84851740Y-85959909D01*
X84963113Y-85400000D01*
X84851740Y-84840091D01*
X84534577Y-84365423D01*
X84182242Y-84130000D01*
X84534577Y-83894577D01*
X84851740Y-83419909D01*
X84963113Y-82860000D01*
X84851740Y-82300091D01*
X84534577Y-81825423D01*
X84059909Y-81508260D01*
X83641333Y-81425000D01*
X83358667Y-81425000D01*
X82940091Y-81508260D01*
X82465423Y-81825423D01*
X82148260Y-82300091D01*
X82036887Y-82860000D01*
X80002157Y-82860000D01*
X80014092Y-82800000D01*
X79898839Y-82220582D01*
X79570625Y-81729375D01*
X79079418Y-81401161D01*
X78646256Y-81315000D01*
X78353744Y-81315000D01*
X77920582Y-81401161D01*
X77429375Y-81729375D01*
X77101161Y-82220582D01*
X76985908Y-82800000D01*
X75660000Y-82800000D01*
X75660000Y-79040000D01*
X76985908Y-79040000D01*
X77101161Y-79619418D01*
X77429375Y-80110625D01*
X77920582Y-80438839D01*
X78353744Y-80525000D01*
X78646256Y-80525000D01*
X79079418Y-80438839D01*
X79570625Y-80110625D01*
X79898839Y-79619418D01*
X80014092Y-79040000D01*
X79898839Y-78460582D01*
X79570625Y-77969375D01*
X79552381Y-77957184D01*
X79597765Y-77948157D01*
X79807809Y-77807809D01*
X79948157Y-77597765D01*
X79997440Y-77350000D01*
X79997440Y-75650000D01*
X79948157Y-75402235D01*
X79807809Y-75192191D01*
X79597765Y-75051843D01*
X79350000Y-75002560D01*
X77650000Y-75002560D01*
X77402235Y-75051843D01*
X77192191Y-75192191D01*
X77051843Y-75402235D01*
X77002560Y-75650000D01*
X77002560Y-77350000D01*
X77051843Y-77597765D01*
X77192191Y-77807809D01*
X77402235Y-77948157D01*
X77447619Y-77957184D01*
X77429375Y-77969375D01*
X77101161Y-78460582D01*
X76985908Y-79040000D01*
X75660000Y-79040000D01*
X75660000Y-65040000D01*
X76985908Y-65040000D01*
X77101161Y-65619418D01*
X77429375Y-66110625D01*
X77920582Y-66438839D01*
X78353744Y-66525000D01*
X78646256Y-66525000D01*
X79079418Y-66438839D01*
X79570625Y-66110625D01*
X79898839Y-65619418D01*
X80014092Y-65040000D01*
X79898839Y-64460582D01*
X79570625Y-63969375D01*
X79552381Y-63957184D01*
X79597765Y-63948157D01*
X79807809Y-63807809D01*
X79948157Y-63597765D01*
X79997440Y-63350000D01*
X79997440Y-61650000D01*
X79948157Y-61402235D01*
X79807809Y-61192191D01*
X79597765Y-61051843D01*
X79350000Y-61002560D01*
X77650000Y-61002560D01*
X77402235Y-61051843D01*
X77192191Y-61192191D01*
X77051843Y-61402235D01*
X77002560Y-61650000D01*
X77002560Y-63350000D01*
X77051843Y-63597765D01*
X77192191Y-63807809D01*
X77402235Y-63948157D01*
X77447619Y-63957184D01*
X77429375Y-63969375D01*
X77101161Y-64460582D01*
X76985908Y-65040000D01*
X75660000Y-65040000D01*
X75660000Y-58590000D01*
X76985908Y-58590000D01*
X77101161Y-59169418D01*
X77429375Y-59660625D01*
X77920582Y-59988839D01*
X78353744Y-60075000D01*
X78646256Y-60075000D01*
X79079418Y-59988839D01*
X79570625Y-59660625D01*
X79898839Y-59169418D01*
X80014092Y-58590000D01*
X79898839Y-58010582D01*
X79570625Y-57519375D01*
X79552381Y-57507184D01*
X79597765Y-57498157D01*
X79807809Y-57357809D01*
X79948157Y-57147765D01*
X79997440Y-56900000D01*
X79997440Y-55200000D01*
X79948157Y-54952235D01*
X79807809Y-54742191D01*
X79597765Y-54601843D01*
X79350000Y-54552560D01*
X77650000Y-54552560D01*
X77402235Y-54601843D01*
X77192191Y-54742191D01*
X77051843Y-54952235D01*
X77002560Y-55200000D01*
X77002560Y-56900000D01*
X77051843Y-57147765D01*
X77192191Y-57357809D01*
X77402235Y-57498157D01*
X77447619Y-57507184D01*
X77429375Y-57519375D01*
X77101161Y-58010582D01*
X76985908Y-58590000D01*
X75660000Y-58590000D01*
X75660000Y-51990000D01*
X76935908Y-51990000D01*
X77051161Y-52569418D01*
X77379375Y-53060625D01*
X77870582Y-53388839D01*
X78303744Y-53475000D01*
X78596256Y-53475000D01*
X79029418Y-53388839D01*
X79520625Y-53060625D01*
X79848839Y-52569418D01*
X79964092Y-51990000D01*
X79848839Y-51410582D01*
X79520625Y-50919375D01*
X79502381Y-50907184D01*
X79547765Y-50898157D01*
X79757809Y-50757809D01*
X79898157Y-50547765D01*
X79947440Y-50300000D01*
X79947440Y-48600000D01*
X79898157Y-48352235D01*
X79757809Y-48142191D01*
X79547765Y-48001843D01*
X79300000Y-47952560D01*
X77600000Y-47952560D01*
X77352235Y-48001843D01*
X77142191Y-48142191D01*
X77001843Y-48352235D01*
X76952560Y-48600000D01*
X76952560Y-50300000D01*
X77001843Y-50547765D01*
X77142191Y-50757809D01*
X77352235Y-50898157D01*
X77397619Y-50907184D01*
X77379375Y-50919375D01*
X77051161Y-51410582D01*
X76935908Y-51990000D01*
X75660000Y-51990000D01*
X75660000Y-45540000D01*
X76985908Y-45540000D01*
X77101161Y-46119418D01*
X77429375Y-46610625D01*
X77920582Y-46938839D01*
X78353744Y-47025000D01*
X78646256Y-47025000D01*
X79079418Y-46938839D01*
X79474281Y-46675000D01*
X85225001Y-46675000D01*
X85225000Y-55768217D01*
X85225000Y-58388216D01*
X85202765Y-58500000D01*
X85225000Y-58611782D01*
X85225001Y-62760582D01*
X85225001Y-68715000D01*
X84444148Y-68715000D01*
X84534577Y-68654577D01*
X84851740Y-68179909D01*
X84963113Y-67620000D01*
X84851740Y-67060091D01*
X84534577Y-66585423D01*
X84182242Y-66350000D01*
X84534577Y-66114577D01*
X84851740Y-65639909D01*
X84963113Y-65080000D01*
X84851740Y-64520091D01*
X84534577Y-64045423D01*
X84182242Y-63810000D01*
X84534577Y-63574577D01*
X84851740Y-63099909D01*
X84963113Y-62540000D01*
X84851740Y-61980091D01*
X84534577Y-61505423D01*
X84413894Y-61424785D01*
X84547765Y-61398157D01*
X84757809Y-61257809D01*
X84898157Y-61047765D01*
X84947440Y-60800000D01*
X84947440Y-59200000D01*
X84898157Y-58952235D01*
X84757809Y-58742191D01*
X84547765Y-58601843D01*
X84300000Y-58552560D01*
X82700000Y-58552560D01*
X82452235Y-58601843D01*
X82242191Y-58742191D01*
X82101843Y-58952235D01*
X82052560Y-59200000D01*
X82052560Y-60800000D01*
X82101843Y-61047765D01*
X82242191Y-61257809D01*
X82452235Y-61398157D01*
X82586106Y-61424785D01*
X82465423Y-61505423D01*
X82148260Y-61980091D01*
X82036887Y-62540000D01*
X82148260Y-63099909D01*
X82465423Y-63574577D01*
X82817758Y-63810000D01*
X82465423Y-64045423D01*
X82148260Y-64520091D01*
X82036887Y-65080000D01*
X82148260Y-65639909D01*
X82465423Y-66114577D01*
X82817758Y-66350000D01*
X82465423Y-66585423D01*
X82148260Y-67060091D01*
X82036887Y-67620000D01*
X82148260Y-68179909D01*
X82465423Y-68654577D01*
X82817758Y-68890000D01*
X82615717Y-69025000D01*
X79972576Y-69025000D01*
X79948157Y-68902235D01*
X79807809Y-68692191D01*
X79597765Y-68551843D01*
X79350000Y-68502560D01*
X77650000Y-68502560D01*
X77402235Y-68551843D01*
X77192191Y-68692191D01*
X77051843Y-68902235D01*
X77002560Y-69150000D01*
X77002560Y-70850000D01*
X77051843Y-71097765D01*
X77192191Y-71307809D01*
X77365001Y-71423278D01*
X77365001Y-71565718D01*
X77101161Y-71960582D01*
X76985908Y-72540000D01*
X77101161Y-73119418D01*
X77429375Y-73610625D01*
X77920582Y-73938839D01*
X78353744Y-74025000D01*
X78646256Y-74025000D01*
X79079418Y-73938839D01*
X79570625Y-73610625D01*
X79898839Y-73119418D01*
X80014092Y-72540000D01*
X79898839Y-71960582D01*
X79635000Y-71565719D01*
X79635000Y-71423277D01*
X79807809Y-71307809D01*
X79816368Y-71295000D01*
X82615717Y-71295000D01*
X82817758Y-71430000D01*
X82465423Y-71665423D01*
X82148260Y-72140091D01*
X82036887Y-72700000D01*
X82148260Y-73259909D01*
X82465423Y-73734577D01*
X82817758Y-73970000D01*
X82465423Y-74205423D01*
X82148260Y-74680091D01*
X82036887Y-75240000D01*
X82148260Y-75799909D01*
X82465423Y-76274577D01*
X82817758Y-76510000D01*
X82465423Y-76745423D01*
X82148260Y-77220091D01*
X82036887Y-77780000D01*
X82148260Y-78339909D01*
X82465423Y-78814577D01*
X82940091Y-79131740D01*
X83358667Y-79215000D01*
X83641333Y-79215000D01*
X84059909Y-79131740D01*
X84534577Y-78814577D01*
X84851740Y-78339909D01*
X84963113Y-77780000D01*
X84851740Y-77220091D01*
X84534577Y-76745423D01*
X84182242Y-76510000D01*
X84534577Y-76274577D01*
X84851740Y-75799909D01*
X84963113Y-75240000D01*
X84851740Y-74680091D01*
X84534577Y-74205423D01*
X84182242Y-73970000D01*
X84534577Y-73734577D01*
X84851740Y-73259909D01*
X84963113Y-72700000D01*
X84851740Y-72140091D01*
X84534577Y-71665423D01*
X84182242Y-71430000D01*
X84384283Y-71295000D01*
X85225001Y-71295000D01*
X85225000Y-88688217D01*
X85202765Y-88800000D01*
X85225001Y-88911788D01*
X85225000Y-100169868D01*
X82026480Y-103368389D01*
X81931712Y-103431711D01*
X81746085Y-103709522D01*
X81680854Y-103807146D01*
X81592765Y-104250000D01*
X81615001Y-104361788D01*
X81615001Y-104935508D01*
X81495414Y-105015414D01*
X81300873Y-105306564D01*
X81232560Y-105649999D01*
X81232560Y-107350001D01*
X81300873Y-107693436D01*
X81495414Y-107984586D01*
X81786564Y-108179127D01*
X82129999Y-108247440D01*
X83370001Y-108247440D01*
X83713436Y-108179127D01*
X84004586Y-107984586D01*
X84161413Y-107749878D01*
X84204956Y-107815044D01*
X84702779Y-108147678D01*
X85290000Y-108264484D01*
X85877222Y-108147678D01*
X86375044Y-107815044D01*
X86560000Y-107538237D01*
X86744956Y-107815044D01*
X87242779Y-108147678D01*
X87830000Y-108264484D01*
X88417222Y-108147678D01*
X88915044Y-107815044D01*
X89107159Y-107527522D01*
X89399509Y-107890533D01*
X89917500Y-108173584D01*
X90009969Y-108191302D01*
X90243000Y-108070246D01*
X90243000Y-106627000D01*
X90497000Y-106627000D01*
X90497000Y-108070246D01*
X90730031Y-108191302D01*
X90822500Y-108173584D01*
X91340491Y-107890533D01*
X91710734Y-107430802D01*
X91876862Y-106864380D01*
X91720582Y-106627000D01*
X90497000Y-106627000D01*
X90243000Y-106627000D01*
X90223000Y-106627000D01*
X90223000Y-106373000D01*
X90243000Y-106373000D01*
X90243000Y-104929754D01*
X90497000Y-104929754D01*
X90497000Y-106373000D01*
X91720582Y-106373000D01*
X91876862Y-106135620D01*
X91787226Y-105829999D01*
X97542560Y-105829999D01*
X97542560Y-107530001D01*
X97610873Y-107873436D01*
X97805414Y-108164586D01*
X98096564Y-108359127D01*
X98439999Y-108427440D01*
X99680001Y-108427440D01*
X100023436Y-108359127D01*
X100314586Y-108164586D01*
X100491737Y-107899462D01*
X100629509Y-108070533D01*
X101147500Y-108353584D01*
X101239969Y-108371302D01*
X101473000Y-108250246D01*
X101473000Y-106807000D01*
X101727000Y-106807000D01*
X101727000Y-108250246D01*
X101960031Y-108371302D01*
X102052500Y-108353584D01*
X102570491Y-108070533D01*
X102940734Y-107610802D01*
X103106862Y-107044380D01*
X102988359Y-106864380D01*
X110123138Y-106864380D01*
X110289266Y-107430802D01*
X110659509Y-107890533D01*
X111177500Y-108173584D01*
X111269969Y-108191302D01*
X111503000Y-108070246D01*
X111503000Y-106627000D01*
X111757000Y-106627000D01*
X111757000Y-108070246D01*
X111990031Y-108191302D01*
X112082500Y-108173584D01*
X112600491Y-107890533D01*
X112900000Y-107518632D01*
X113199509Y-107890533D01*
X113717500Y-108173584D01*
X113809969Y-108191302D01*
X114043000Y-108070246D01*
X114043000Y-106627000D01*
X111757000Y-106627000D01*
X111503000Y-106627000D01*
X110279418Y-106627000D01*
X110123138Y-106864380D01*
X102988359Y-106864380D01*
X102950582Y-106807000D01*
X101727000Y-106807000D01*
X101473000Y-106807000D01*
X101453000Y-106807000D01*
X101453000Y-106553000D01*
X101473000Y-106553000D01*
X101473000Y-105109754D01*
X101727000Y-105109754D01*
X101727000Y-106553000D01*
X102950582Y-106553000D01*
X103106862Y-106315620D01*
X103054070Y-106135620D01*
X110123138Y-106135620D01*
X110279418Y-106373000D01*
X111503000Y-106373000D01*
X111503000Y-104929754D01*
X111757000Y-104929754D01*
X111757000Y-106373000D01*
X114043000Y-106373000D01*
X114043000Y-104929754D01*
X114297000Y-104929754D01*
X114297000Y-106373000D01*
X114317000Y-106373000D01*
X114317000Y-106627000D01*
X114297000Y-106627000D01*
X114297000Y-108070246D01*
X114530031Y-108191302D01*
X114622500Y-108173584D01*
X115140491Y-107890533D01*
X115432841Y-107527522D01*
X115624956Y-107815044D01*
X116122778Y-108147678D01*
X116710000Y-108264484D01*
X117297221Y-108147678D01*
X117795044Y-107815044D01*
X117838587Y-107749878D01*
X117995414Y-107984586D01*
X118286564Y-108179127D01*
X118629999Y-108247440D01*
X119870001Y-108247440D01*
X120213436Y-108179127D01*
X120504586Y-107984586D01*
X120699127Y-107693436D01*
X120767440Y-107350001D01*
X120767440Y-105649999D01*
X126482560Y-105649999D01*
X126482560Y-107350001D01*
X126550873Y-107693436D01*
X126745414Y-107984586D01*
X127036564Y-108179127D01*
X127379999Y-108247440D01*
X128620001Y-108247440D01*
X128963436Y-108179127D01*
X129254586Y-107984586D01*
X129411413Y-107749878D01*
X129454956Y-107815044D01*
X129952779Y-108147678D01*
X130540000Y-108264484D01*
X131127222Y-108147678D01*
X131625044Y-107815044D01*
X131817159Y-107527522D01*
X132109509Y-107890533D01*
X132627500Y-108173584D01*
X132719969Y-108191302D01*
X132953000Y-108070246D01*
X132953000Y-106627000D01*
X133207000Y-106627000D01*
X133207000Y-108070246D01*
X133440031Y-108191302D01*
X133532500Y-108173584D01*
X134050491Y-107890533D01*
X134420734Y-107430802D01*
X134586862Y-106864380D01*
X134430582Y-106627000D01*
X133207000Y-106627000D01*
X132953000Y-106627000D01*
X132933000Y-106627000D01*
X132933000Y-106373000D01*
X132953000Y-106373000D01*
X132953000Y-104929754D01*
X133207000Y-104929754D01*
X133207000Y-106373000D01*
X134430582Y-106373000D01*
X134586862Y-106135620D01*
X134420734Y-105569198D01*
X134050491Y-105109467D01*
X133532500Y-104826416D01*
X133440031Y-104808698D01*
X133207000Y-104929754D01*
X132953000Y-104929754D01*
X132719969Y-104808698D01*
X132627500Y-104826416D01*
X132109509Y-105109467D01*
X131817160Y-105472477D01*
X131625044Y-105184956D01*
X131127221Y-104852322D01*
X130540000Y-104735516D01*
X129952778Y-104852322D01*
X129454956Y-105184956D01*
X129411414Y-105250122D01*
X129254586Y-105015414D01*
X128963436Y-104820873D01*
X128620001Y-104752560D01*
X127379999Y-104752560D01*
X127036564Y-104820873D01*
X126745414Y-105015414D01*
X126550873Y-105306564D01*
X126482560Y-105649999D01*
X120767440Y-105649999D01*
X120699127Y-105306564D01*
X120504586Y-105015414D01*
X120213436Y-104820873D01*
X119870001Y-104752560D01*
X118629999Y-104752560D01*
X118286564Y-104820873D01*
X117995414Y-105015414D01*
X117838586Y-105250122D01*
X117795044Y-105184956D01*
X117297222Y-104852322D01*
X116710000Y-104735516D01*
X116122779Y-104852322D01*
X115624956Y-105184956D01*
X115432840Y-105472477D01*
X115140491Y-105109467D01*
X114622500Y-104826416D01*
X114530031Y-104808698D01*
X114297000Y-104929754D01*
X114043000Y-104929754D01*
X113809969Y-104808698D01*
X113717500Y-104826416D01*
X113199509Y-105109467D01*
X112900000Y-105481368D01*
X112600491Y-105109467D01*
X112082500Y-104826416D01*
X111990031Y-104808698D01*
X111757000Y-104929754D01*
X111503000Y-104929754D01*
X111269969Y-104808698D01*
X111177500Y-104826416D01*
X110659509Y-105109467D01*
X110289266Y-105569198D01*
X110123138Y-106135620D01*
X103054070Y-106135620D01*
X102940734Y-105749198D01*
X102570491Y-105289467D01*
X102052500Y-105006416D01*
X101960031Y-104988698D01*
X101727000Y-105109754D01*
X101473000Y-105109754D01*
X101239969Y-104988698D01*
X101147500Y-105006416D01*
X100629509Y-105289467D01*
X100491737Y-105460538D01*
X100314586Y-105195414D01*
X100023436Y-105000873D01*
X99680001Y-104932560D01*
X98439999Y-104932560D01*
X98096564Y-105000873D01*
X97805414Y-105195414D01*
X97610873Y-105486564D01*
X97542560Y-105829999D01*
X91787226Y-105829999D01*
X91710734Y-105569198D01*
X91340491Y-105109467D01*
X90822500Y-104826416D01*
X90730031Y-104808698D01*
X90497000Y-104929754D01*
X90243000Y-104929754D01*
X90009969Y-104808698D01*
X89917500Y-104826416D01*
X89399509Y-105109467D01*
X89107160Y-105472477D01*
X88915044Y-105184956D01*
X88417221Y-104852322D01*
X87830000Y-104735516D01*
X87242778Y-104852322D01*
X86744956Y-105184956D01*
X86560000Y-105461763D01*
X86375044Y-105184956D01*
X85877221Y-104852322D01*
X85290000Y-104735516D01*
X84702778Y-104852322D01*
X84204956Y-105184956D01*
X84161414Y-105250122D01*
X84004586Y-105015414D01*
X83885000Y-104935509D01*
X83885000Y-104720131D01*
X87083522Y-101521610D01*
X87178289Y-101458289D01*
X87429146Y-101082855D01*
X87495000Y-100751783D01*
X87495000Y-100751782D01*
X87517235Y-100640000D01*
X87495000Y-100528217D01*
X87495000Y-98754880D01*
X92615510Y-98754880D01*
X92615510Y-99405120D01*
X92864346Y-100005864D01*
X93324136Y-100465654D01*
X93924880Y-100714490D01*
X94575120Y-100714490D01*
X95175864Y-100465654D01*
X95635654Y-100005864D01*
X95884490Y-99405120D01*
X95884490Y-98754880D01*
X99365510Y-98754880D01*
X99365510Y-99405120D01*
X99614346Y-100005864D01*
X100074136Y-100465654D01*
X100674880Y-100714490D01*
X101325120Y-100714490D01*
X101925864Y-100465654D01*
X102385654Y-100005864D01*
X102634490Y-99405120D01*
X102634490Y-98754880D01*
X107115510Y-98754880D01*
X107115510Y-99405120D01*
X107364346Y-100005864D01*
X107824136Y-100465654D01*
X108424880Y-100714490D01*
X109075120Y-100714490D01*
X109675864Y-100465654D01*
X110135654Y-100005864D01*
X110384490Y-99405120D01*
X110384490Y-98754880D01*
X110135654Y-98154136D01*
X109675864Y-97694346D01*
X109075120Y-97445510D01*
X108424880Y-97445510D01*
X107824136Y-97694346D01*
X107364346Y-98154136D01*
X107115510Y-98754880D01*
X102634490Y-98754880D01*
X102385654Y-98154136D01*
X101925864Y-97694346D01*
X101325120Y-97445510D01*
X100674880Y-97445510D01*
X100074136Y-97694346D01*
X99614346Y-98154136D01*
X99365510Y-98754880D01*
X95884490Y-98754880D01*
X95635654Y-98154136D01*
X95175864Y-97694346D01*
X94575120Y-97445510D01*
X93924880Y-97445510D01*
X93324136Y-97694346D01*
X92864346Y-98154136D01*
X92615510Y-98754880D01*
X87495000Y-98754880D01*
X87495000Y-90035000D01*
X93053482Y-90035000D01*
X93324136Y-90305654D01*
X93924880Y-90554490D01*
X94575120Y-90554490D01*
X95175864Y-90305654D01*
X95426518Y-90055000D01*
X99823482Y-90055000D01*
X100074136Y-90305654D01*
X100674880Y-90554490D01*
X101325120Y-90554490D01*
X101925864Y-90305654D01*
X102176518Y-90055000D01*
X107573482Y-90055000D01*
X107824136Y-90305654D01*
X108424880Y-90554490D01*
X109075120Y-90554490D01*
X109675864Y-90305654D01*
X110135654Y-89845864D01*
X110384490Y-89245120D01*
X110384490Y-88594880D01*
X110135654Y-87994136D01*
X109675864Y-87534346D01*
X109075120Y-87285510D01*
X108424880Y-87285510D01*
X107824136Y-87534346D01*
X107573482Y-87785000D01*
X102176518Y-87785000D01*
X101925864Y-87534346D01*
X101325120Y-87285510D01*
X100674880Y-87285510D01*
X100074136Y-87534346D01*
X99823482Y-87785000D01*
X95426518Y-87785000D01*
X95175864Y-87534346D01*
X94575120Y-87285510D01*
X93924880Y-87285510D01*
X93324136Y-87534346D01*
X93093482Y-87765000D01*
X87495000Y-87765000D01*
X87495000Y-69611783D01*
X87517235Y-69500000D01*
X87495000Y-69388217D01*
X87495000Y-63500000D01*
X87842765Y-63500000D01*
X87865001Y-63611788D01*
X87865000Y-79388217D01*
X87842765Y-79500000D01*
X87930854Y-79942855D01*
X88121311Y-80227894D01*
X88181711Y-80318289D01*
X88557145Y-80569146D01*
X89000000Y-80657235D01*
X89111783Y-80635000D01*
X98382265Y-80635000D01*
X98545369Y-80702560D01*
X98350000Y-80702560D01*
X98102235Y-80751843D01*
X97892191Y-80892191D01*
X97751843Y-81102235D01*
X97702560Y-81350000D01*
X97702560Y-82650000D01*
X97751843Y-82897765D01*
X97892191Y-83107809D01*
X98102235Y-83248157D01*
X98350000Y-83297440D01*
X99650000Y-83297440D01*
X99897765Y-83248157D01*
X100107809Y-83107809D01*
X100248157Y-82897765D01*
X100297440Y-82650000D01*
X100297440Y-82273512D01*
X115450000Y-82273512D01*
X115450000Y-82826488D01*
X115661615Y-83337372D01*
X116052628Y-83728385D01*
X116563512Y-83940000D01*
X117116488Y-83940000D01*
X117627372Y-83728385D01*
X118018385Y-83337372D01*
X118230000Y-82826488D01*
X118230000Y-82273512D01*
X118018385Y-81762628D01*
X117627372Y-81371615D01*
X117116488Y-81160000D01*
X116563512Y-81160000D01*
X116052628Y-81371615D01*
X115661615Y-81762628D01*
X115450000Y-82273512D01*
X100297440Y-82273512D01*
X100297440Y-81350000D01*
X100248157Y-81102235D01*
X100107809Y-80892191D01*
X99897765Y-80751843D01*
X99650000Y-80702560D01*
X99454631Y-80702560D01*
X99727894Y-80589371D01*
X100089371Y-80227894D01*
X100285000Y-79755602D01*
X100285000Y-79244398D01*
X100089371Y-78772106D01*
X99727894Y-78410629D01*
X99255602Y-78215000D01*
X98744398Y-78215000D01*
X98382265Y-78365000D01*
X90135000Y-78365000D01*
X90135000Y-73254880D01*
X97365510Y-73254880D01*
X97365510Y-73905120D01*
X97614346Y-74505864D01*
X98074136Y-74965654D01*
X98674880Y-75214490D01*
X99325120Y-75214490D01*
X99925864Y-74965654D01*
X100385654Y-74505864D01*
X100634490Y-73905120D01*
X100634490Y-73254880D01*
X100385654Y-72654136D01*
X99925864Y-72194346D01*
X99325120Y-71945510D01*
X98674880Y-71945510D01*
X98074136Y-72194346D01*
X97614346Y-72654136D01*
X97365510Y-73254880D01*
X90135000Y-73254880D01*
X90135000Y-64635000D01*
X91132265Y-64635000D01*
X91295369Y-64702560D01*
X91100000Y-64702560D01*
X90852235Y-64751843D01*
X90642191Y-64892191D01*
X90501843Y-65102235D01*
X90452560Y-65350000D01*
X90452560Y-66650000D01*
X90501843Y-66897765D01*
X90642191Y-67107809D01*
X90852235Y-67248157D01*
X91100000Y-67297440D01*
X92400000Y-67297440D01*
X92647765Y-67248157D01*
X92857809Y-67107809D01*
X92998157Y-66897765D01*
X93047440Y-66650000D01*
X93047440Y-65350000D01*
X92998157Y-65102235D01*
X92857809Y-64892191D01*
X92647765Y-64751843D01*
X92400000Y-64702560D01*
X92204631Y-64702560D01*
X92477894Y-64589371D01*
X92839371Y-64227894D01*
X93035000Y-63755602D01*
X93035000Y-63244398D01*
X92973068Y-63094880D01*
X97365510Y-63094880D01*
X97365510Y-63745120D01*
X97614346Y-64345864D01*
X98074136Y-64805654D01*
X98674880Y-65054490D01*
X99325120Y-65054490D01*
X99925864Y-64805654D01*
X100385654Y-64345864D01*
X100634490Y-63745120D01*
X100634490Y-63094880D01*
X100385654Y-62494136D01*
X99925864Y-62034346D01*
X99325120Y-61785510D01*
X98674880Y-61785510D01*
X98074136Y-62034346D01*
X97614346Y-62494136D01*
X97365510Y-63094880D01*
X92973068Y-63094880D01*
X92839371Y-62772106D01*
X92477894Y-62410629D01*
X92005602Y-62215000D01*
X91494398Y-62215000D01*
X91132265Y-62365000D01*
X89111783Y-62365000D01*
X89000000Y-62342765D01*
X88888217Y-62365000D01*
X88557145Y-62430854D01*
X88181711Y-62681711D01*
X87930854Y-63057145D01*
X87842765Y-63500000D01*
X87495000Y-63500000D01*
X87495000Y-59555000D01*
X104525717Y-59555000D01*
X104727758Y-59690000D01*
X104375423Y-59925423D01*
X104058260Y-60400091D01*
X103946887Y-60960000D01*
X104058260Y-61519909D01*
X104375423Y-61994577D01*
X104727758Y-62230000D01*
X104375423Y-62465423D01*
X104058260Y-62940091D01*
X103946887Y-63500000D01*
X104058260Y-64059909D01*
X104375423Y-64534577D01*
X104727758Y-64770000D01*
X104375423Y-65005423D01*
X104058260Y-65480091D01*
X103946887Y-66040000D01*
X104058260Y-66599909D01*
X104275001Y-66924285D01*
X104275000Y-79298217D01*
X104252765Y-79410000D01*
X104321509Y-79755602D01*
X104340854Y-79852854D01*
X104591711Y-80228289D01*
X104686482Y-80291613D01*
X105128387Y-80733518D01*
X105191711Y-80828289D01*
X105567145Y-81079146D01*
X106009999Y-81167235D01*
X106121782Y-81145000D01*
X113035200Y-81145000D01*
X113087191Y-81222809D01*
X113297235Y-81363157D01*
X113545000Y-81412440D01*
X115055000Y-81412440D01*
X115302765Y-81363157D01*
X115512809Y-81222809D01*
X115653157Y-81012765D01*
X115702440Y-80765000D01*
X115702440Y-79733512D01*
X117990000Y-79733512D01*
X117990000Y-80286488D01*
X118201615Y-80797372D01*
X118592628Y-81188385D01*
X119103512Y-81400000D01*
X119656488Y-81400000D01*
X120167372Y-81188385D01*
X120558385Y-80797372D01*
X120770000Y-80286488D01*
X120770000Y-79733512D01*
X120558385Y-79222628D01*
X120167372Y-78831615D01*
X119656488Y-78620000D01*
X119103512Y-78620000D01*
X118592628Y-78831615D01*
X118201615Y-79222628D01*
X117990000Y-79733512D01*
X115702440Y-79733512D01*
X115702440Y-79255000D01*
X115653157Y-79007235D01*
X115512809Y-78797191D01*
X115302765Y-78656843D01*
X115055000Y-78607560D01*
X113545000Y-78607560D01*
X113297235Y-78656843D01*
X113087191Y-78797191D01*
X113035200Y-78875000D01*
X106545000Y-78875000D01*
X106545000Y-77780000D01*
X130296887Y-77780000D01*
X130408260Y-78339909D01*
X130725423Y-78814577D01*
X131077758Y-79050000D01*
X130725423Y-79285423D01*
X130408260Y-79760091D01*
X130296887Y-80320000D01*
X130408260Y-80879909D01*
X130725423Y-81354577D01*
X131077758Y-81590000D01*
X130725423Y-81825423D01*
X130408260Y-82300091D01*
X130296887Y-82860000D01*
X130408260Y-83419909D01*
X130725423Y-83894577D01*
X131077758Y-84130000D01*
X130725423Y-84365423D01*
X130408260Y-84840091D01*
X130296887Y-85400000D01*
X130408260Y-85959909D01*
X130725423Y-86434577D01*
X131077758Y-86670000D01*
X130725423Y-86905423D01*
X130408260Y-87380091D01*
X130296887Y-87940000D01*
X130408260Y-88499909D01*
X130725423Y-88974577D01*
X131077758Y-89210000D01*
X130725423Y-89445423D01*
X130408260Y-89920091D01*
X130296887Y-90480000D01*
X130408260Y-91039909D01*
X130725423Y-91514577D01*
X131077758Y-91750000D01*
X130725423Y-91985423D01*
X130408260Y-92460091D01*
X130296887Y-93020000D01*
X130408260Y-93579909D01*
X130725423Y-94054577D01*
X131077758Y-94290000D01*
X130725423Y-94525423D01*
X130408260Y-95000091D01*
X130296887Y-95560000D01*
X130408260Y-96119909D01*
X130725423Y-96594577D01*
X131200091Y-96911740D01*
X131618667Y-96995000D01*
X131901333Y-96995000D01*
X132319909Y-96911740D01*
X132794577Y-96594577D01*
X133111740Y-96119909D01*
X133223113Y-95560000D01*
X133111740Y-95000091D01*
X132794577Y-94525423D01*
X132442242Y-94290000D01*
X132794577Y-94054577D01*
X133111740Y-93579909D01*
X133223113Y-93020000D01*
X133111740Y-92460091D01*
X132794577Y-91985423D01*
X132442242Y-91750000D01*
X132794577Y-91514577D01*
X133111740Y-91039909D01*
X133223113Y-90480000D01*
X133111740Y-89920091D01*
X132794577Y-89445423D01*
X132442242Y-89210000D01*
X132794577Y-88974577D01*
X133111740Y-88499909D01*
X133223113Y-87940000D01*
X133111740Y-87380091D01*
X132794577Y-86905423D01*
X132442242Y-86670000D01*
X132794577Y-86434577D01*
X133111740Y-85959909D01*
X133223113Y-85400000D01*
X133111740Y-84840091D01*
X132794577Y-84365423D01*
X132442242Y-84130000D01*
X132794577Y-83894577D01*
X133111740Y-83419909D01*
X133223113Y-82860000D01*
X133111740Y-82300091D01*
X132794577Y-81825423D01*
X132442242Y-81590000D01*
X132794577Y-81354577D01*
X133111740Y-80879909D01*
X133223113Y-80320000D01*
X133111740Y-79760091D01*
X132794577Y-79285423D01*
X132442242Y-79050000D01*
X132794577Y-78814577D01*
X133111740Y-78339909D01*
X133223113Y-77780000D01*
X133211179Y-77720000D01*
X134985908Y-77720000D01*
X135101161Y-78299418D01*
X135429375Y-78790625D01*
X135727761Y-78990000D01*
X135429375Y-79189375D01*
X135101161Y-79680582D01*
X134985908Y-80260000D01*
X135101161Y-80839418D01*
X135429375Y-81330625D01*
X135727761Y-81530000D01*
X135429375Y-81729375D01*
X135101161Y-82220582D01*
X134985908Y-82800000D01*
X135101161Y-83379418D01*
X135429375Y-83870625D01*
X135727761Y-84070000D01*
X135429375Y-84269375D01*
X135101161Y-84760582D01*
X134985908Y-85340000D01*
X135101161Y-85919418D01*
X135429375Y-86410625D01*
X135727761Y-86610000D01*
X135429375Y-86809375D01*
X135101161Y-87300582D01*
X134985908Y-87880000D01*
X135101161Y-88459418D01*
X135429375Y-88950625D01*
X135727761Y-89150000D01*
X135429375Y-89349375D01*
X135101161Y-89840582D01*
X134985908Y-90420000D01*
X135101161Y-90999418D01*
X135429375Y-91490625D01*
X135727761Y-91690000D01*
X135429375Y-91889375D01*
X135101161Y-92380582D01*
X134985908Y-92960000D01*
X135101161Y-93539418D01*
X135429375Y-94030625D01*
X135447619Y-94042816D01*
X135402235Y-94051843D01*
X135192191Y-94192191D01*
X135051843Y-94402235D01*
X135002560Y-94650000D01*
X135002560Y-96350000D01*
X135051843Y-96597765D01*
X135192191Y-96807809D01*
X135402235Y-96948157D01*
X135650000Y-96997440D01*
X137350000Y-96997440D01*
X137597765Y-96948157D01*
X137807809Y-96807809D01*
X137948157Y-96597765D01*
X137997440Y-96350000D01*
X137997440Y-94650000D01*
X137948157Y-94402235D01*
X137807809Y-94192191D01*
X137597765Y-94051843D01*
X137552381Y-94042816D01*
X137570625Y-94030625D01*
X137898839Y-93539418D01*
X138014092Y-92960000D01*
X137898839Y-92380582D01*
X137570625Y-91889375D01*
X137272239Y-91690000D01*
X137570625Y-91490625D01*
X137898839Y-90999418D01*
X138014092Y-90420000D01*
X137898839Y-89840582D01*
X137570625Y-89349375D01*
X137272239Y-89150000D01*
X137570625Y-88950625D01*
X137898839Y-88459418D01*
X138014092Y-87880000D01*
X137898839Y-87300582D01*
X137570625Y-86809375D01*
X137272239Y-86610000D01*
X137570625Y-86410625D01*
X137898839Y-85919418D01*
X138014092Y-85340000D01*
X137898839Y-84760582D01*
X137570625Y-84269375D01*
X137272239Y-84070000D01*
X137570625Y-83870625D01*
X137898839Y-83379418D01*
X138014092Y-82800000D01*
X137898839Y-82220582D01*
X137570625Y-81729375D01*
X137272239Y-81530000D01*
X137570625Y-81330625D01*
X137898839Y-80839418D01*
X138014092Y-80260000D01*
X137898839Y-79680582D01*
X137570625Y-79189375D01*
X137272239Y-78990000D01*
X137570625Y-78790625D01*
X137898839Y-78299418D01*
X138014092Y-77720000D01*
X137898839Y-77140582D01*
X137570625Y-76649375D01*
X137079418Y-76321161D01*
X136646256Y-76235000D01*
X136353744Y-76235000D01*
X135920582Y-76321161D01*
X135429375Y-76649375D01*
X135101161Y-77140582D01*
X134985908Y-77720000D01*
X133211179Y-77720000D01*
X133111740Y-77220091D01*
X132794577Y-76745423D01*
X132319909Y-76428260D01*
X131901333Y-76345000D01*
X131618667Y-76345000D01*
X131200091Y-76428260D01*
X130725423Y-76745423D01*
X130408260Y-77220091D01*
X130296887Y-77780000D01*
X106545000Y-77780000D01*
X106545000Y-66924283D01*
X106761740Y-66599909D01*
X106873113Y-66040000D01*
X106761740Y-65480091D01*
X106444577Y-65005423D01*
X106092242Y-64770000D01*
X106444577Y-64534577D01*
X106761740Y-64059909D01*
X106873113Y-63500000D01*
X106761740Y-62940091D01*
X106444577Y-62465423D01*
X106092242Y-62230000D01*
X106444577Y-61994577D01*
X106761740Y-61519909D01*
X106873113Y-60960000D01*
X111566887Y-60960000D01*
X111678260Y-61519909D01*
X111995423Y-61994577D01*
X112347758Y-62230000D01*
X111995423Y-62465423D01*
X111678260Y-62940091D01*
X111566887Y-63500000D01*
X111678260Y-64059909D01*
X111995423Y-64534577D01*
X112347758Y-64770000D01*
X111995423Y-65005423D01*
X111678260Y-65480091D01*
X111566887Y-66040000D01*
X111678260Y-66599909D01*
X111995423Y-67074577D01*
X112470091Y-67391740D01*
X112888667Y-67475000D01*
X113171333Y-67475000D01*
X113589909Y-67391740D01*
X114064577Y-67074577D01*
X114381740Y-66599909D01*
X114493113Y-66040000D01*
X114381740Y-65480091D01*
X114321544Y-65390000D01*
X118082560Y-65390000D01*
X118082560Y-66690000D01*
X118131843Y-66937765D01*
X118272191Y-67147809D01*
X118482235Y-67288157D01*
X118730000Y-67337440D01*
X120030000Y-67337440D01*
X120277765Y-67288157D01*
X120487809Y-67147809D01*
X120628157Y-66937765D01*
X120677440Y-66690000D01*
X120677440Y-65390000D01*
X120628157Y-65142235D01*
X120487809Y-64932191D01*
X120277765Y-64791843D01*
X120030000Y-64742560D01*
X119834631Y-64742560D01*
X120107894Y-64629371D01*
X120469371Y-64267894D01*
X120665000Y-63795602D01*
X120665000Y-63284398D01*
X120469371Y-62812106D01*
X120107894Y-62450629D01*
X119635602Y-62255000D01*
X119124398Y-62255000D01*
X118652106Y-62450629D01*
X118290629Y-62812106D01*
X118095000Y-63284398D01*
X118095000Y-63795602D01*
X118290629Y-64267894D01*
X118652106Y-64629371D01*
X118925369Y-64742560D01*
X118730000Y-64742560D01*
X118482235Y-64791843D01*
X118272191Y-64932191D01*
X118131843Y-65142235D01*
X118082560Y-65390000D01*
X114321544Y-65390000D01*
X114064577Y-65005423D01*
X113712242Y-64770000D01*
X114064577Y-64534577D01*
X114381740Y-64059909D01*
X114493113Y-63500000D01*
X114381740Y-62940091D01*
X114064577Y-62465423D01*
X113712242Y-62230000D01*
X114064577Y-61994577D01*
X114381740Y-61519909D01*
X114481178Y-61020000D01*
X130296887Y-61020000D01*
X130408260Y-61579909D01*
X130725423Y-62054577D01*
X131077758Y-62290000D01*
X130725423Y-62525423D01*
X130408260Y-63000091D01*
X130296887Y-63560000D01*
X130408260Y-64119909D01*
X130725423Y-64594577D01*
X131077758Y-64830000D01*
X130725423Y-65065423D01*
X130408260Y-65540091D01*
X130296887Y-66100000D01*
X130408260Y-66659909D01*
X130725423Y-67134577D01*
X131077758Y-67370000D01*
X130725423Y-67605423D01*
X130408260Y-68080091D01*
X130296887Y-68640000D01*
X130408260Y-69199909D01*
X130725423Y-69674577D01*
X131077758Y-69910000D01*
X130725423Y-70145423D01*
X130408260Y-70620091D01*
X130296887Y-71180000D01*
X130408260Y-71739909D01*
X130725423Y-72214577D01*
X131077758Y-72450000D01*
X130725423Y-72685423D01*
X130408260Y-73160091D01*
X130296887Y-73720000D01*
X130408260Y-74279909D01*
X130725423Y-74754577D01*
X131200091Y-75071740D01*
X131618667Y-75155000D01*
X131901333Y-75155000D01*
X132319909Y-75071740D01*
X132794577Y-74754577D01*
X133111740Y-74279909D01*
X133223113Y-73720000D01*
X133111740Y-73160091D01*
X132794577Y-72685423D01*
X132442242Y-72450000D01*
X132794577Y-72214577D01*
X133111740Y-71739909D01*
X133223113Y-71180000D01*
X133111740Y-70620091D01*
X132794577Y-70145423D01*
X132442242Y-69910000D01*
X132794577Y-69674577D01*
X133111740Y-69199909D01*
X133223113Y-68640000D01*
X133111740Y-68080091D01*
X132794577Y-67605423D01*
X132442242Y-67370000D01*
X132794577Y-67134577D01*
X133111740Y-66659909D01*
X133223113Y-66100000D01*
X133111740Y-65540091D01*
X132794577Y-65065423D01*
X132442242Y-64830000D01*
X132794577Y-64594577D01*
X133111740Y-64119909D01*
X133223113Y-63560000D01*
X133111740Y-63000091D01*
X132794577Y-62525423D01*
X132442242Y-62290000D01*
X132794577Y-62054577D01*
X133111740Y-61579909D01*
X133223113Y-61020000D01*
X133179353Y-60800000D01*
X134985908Y-60800000D01*
X135101161Y-61379418D01*
X135429375Y-61870625D01*
X135727761Y-62070000D01*
X135429375Y-62269375D01*
X135101161Y-62760582D01*
X134985908Y-63340000D01*
X135101161Y-63919418D01*
X135429375Y-64410625D01*
X135727761Y-64610000D01*
X135429375Y-64809375D01*
X135101161Y-65300582D01*
X134985908Y-65880000D01*
X135101161Y-66459418D01*
X135429375Y-66950625D01*
X135727761Y-67150000D01*
X135429375Y-67349375D01*
X135101161Y-67840582D01*
X134985908Y-68420000D01*
X135101161Y-68999418D01*
X135429375Y-69490625D01*
X135727761Y-69690000D01*
X135429375Y-69889375D01*
X135101161Y-70380582D01*
X134985908Y-70960000D01*
X135101161Y-71539418D01*
X135429375Y-72030625D01*
X135447619Y-72042816D01*
X135402235Y-72051843D01*
X135192191Y-72192191D01*
X135051843Y-72402235D01*
X135002560Y-72650000D01*
X135002560Y-74350000D01*
X135051843Y-74597765D01*
X135192191Y-74807809D01*
X135402235Y-74948157D01*
X135650000Y-74997440D01*
X137350000Y-74997440D01*
X137597765Y-74948157D01*
X137807809Y-74807809D01*
X137948157Y-74597765D01*
X137997440Y-74350000D01*
X137997440Y-72650000D01*
X137948157Y-72402235D01*
X137807809Y-72192191D01*
X137597765Y-72051843D01*
X137552381Y-72042816D01*
X137570625Y-72030625D01*
X137898839Y-71539418D01*
X138014092Y-70960000D01*
X137898839Y-70380582D01*
X137570625Y-69889375D01*
X137272239Y-69690000D01*
X137570625Y-69490625D01*
X137898839Y-68999418D01*
X138014092Y-68420000D01*
X137898839Y-67840582D01*
X137570625Y-67349375D01*
X137272239Y-67150000D01*
X137570625Y-66950625D01*
X137898839Y-66459418D01*
X138014092Y-65880000D01*
X137898839Y-65300582D01*
X137570625Y-64809375D01*
X137272239Y-64610000D01*
X137570625Y-64410625D01*
X137898839Y-63919418D01*
X138014092Y-63340000D01*
X137898839Y-62760582D01*
X137570625Y-62269375D01*
X137272239Y-62070000D01*
X137570625Y-61870625D01*
X137898839Y-61379418D01*
X138014092Y-60800000D01*
X137898839Y-60220582D01*
X137570625Y-59729375D01*
X137079418Y-59401161D01*
X136646256Y-59315000D01*
X136353744Y-59315000D01*
X135920582Y-59401161D01*
X135429375Y-59729375D01*
X135101161Y-60220582D01*
X134985908Y-60800000D01*
X133179353Y-60800000D01*
X133111740Y-60460091D01*
X132794577Y-59985423D01*
X132410892Y-59729053D01*
X132615134Y-59632389D01*
X132991041Y-59217423D01*
X133151904Y-58829039D01*
X133029915Y-58607000D01*
X131887000Y-58607000D01*
X131887000Y-58627000D01*
X131633000Y-58627000D01*
X131633000Y-58607000D01*
X130490085Y-58607000D01*
X130368096Y-58829039D01*
X130528959Y-59217423D01*
X130904866Y-59632389D01*
X131109108Y-59729053D01*
X130725423Y-59985423D01*
X130408260Y-60460091D01*
X130296887Y-61020000D01*
X114481178Y-61020000D01*
X114493113Y-60960000D01*
X114381740Y-60400091D01*
X114064577Y-59925423D01*
X113680892Y-59669053D01*
X113885134Y-59572389D01*
X114261041Y-59157423D01*
X114421904Y-58769039D01*
X114299915Y-58547000D01*
X113157000Y-58547000D01*
X113157000Y-58567000D01*
X112903000Y-58567000D01*
X112903000Y-58547000D01*
X111760085Y-58547000D01*
X111638096Y-58769039D01*
X111798959Y-59157423D01*
X112174866Y-59572389D01*
X112379108Y-59669053D01*
X111995423Y-59925423D01*
X111678260Y-60400091D01*
X111566887Y-60960000D01*
X106873113Y-60960000D01*
X106761740Y-60400091D01*
X106444577Y-59925423D01*
X106092242Y-59690000D01*
X106444577Y-59454577D01*
X106761740Y-58979909D01*
X106873113Y-58420000D01*
X106761740Y-57860091D01*
X106444577Y-57385423D01*
X106092242Y-57150000D01*
X106444577Y-56914577D01*
X106761740Y-56439909D01*
X106873113Y-55880000D01*
X106761740Y-55320091D01*
X106444577Y-54845423D01*
X106092242Y-54610000D01*
X106444577Y-54374577D01*
X106761740Y-53899909D01*
X106873113Y-53340000D01*
X106761740Y-52780091D01*
X106444577Y-52305423D01*
X106092242Y-52070000D01*
X106444577Y-51834577D01*
X106761740Y-51359909D01*
X106873113Y-50800000D01*
X111566887Y-50800000D01*
X111678260Y-51359909D01*
X111995423Y-51834577D01*
X112347758Y-52070000D01*
X111995423Y-52305423D01*
X111678260Y-52780091D01*
X111566887Y-53340000D01*
X111678260Y-53899909D01*
X111995423Y-54374577D01*
X112347758Y-54610000D01*
X111995423Y-54845423D01*
X111678260Y-55320091D01*
X111566887Y-55880000D01*
X111678260Y-56439909D01*
X111995423Y-56914577D01*
X112379108Y-57170947D01*
X112174866Y-57267611D01*
X111798959Y-57682577D01*
X111638096Y-58070961D01*
X111760085Y-58293000D01*
X112903000Y-58293000D01*
X112903000Y-58273000D01*
X113157000Y-58273000D01*
X113157000Y-58293000D01*
X114299915Y-58293000D01*
X114421904Y-58070961D01*
X114261041Y-57682577D01*
X113885134Y-57267611D01*
X113680892Y-57170947D01*
X114064577Y-56914577D01*
X114381740Y-56439909D01*
X114493113Y-55880000D01*
X114381740Y-55320091D01*
X114064577Y-54845423D01*
X113712242Y-54610000D01*
X114064577Y-54374577D01*
X114381740Y-53899909D01*
X114493113Y-53340000D01*
X114381740Y-52780091D01*
X114064577Y-52305423D01*
X113712242Y-52070000D01*
X114064577Y-51834577D01*
X114381740Y-51359909D01*
X114469243Y-50920000D01*
X117985908Y-50920000D01*
X118101161Y-51499418D01*
X118429375Y-51990625D01*
X118727761Y-52190000D01*
X118429375Y-52389375D01*
X118101161Y-52880582D01*
X117985908Y-53460000D01*
X118101161Y-54039418D01*
X118429375Y-54530625D01*
X118447619Y-54542816D01*
X118402235Y-54551843D01*
X118192191Y-54692191D01*
X118051843Y-54902235D01*
X118002560Y-55150000D01*
X118002560Y-56850000D01*
X118051843Y-57097765D01*
X118192191Y-57307809D01*
X118402235Y-57448157D01*
X118650000Y-57497440D01*
X120350000Y-57497440D01*
X120597765Y-57448157D01*
X120807809Y-57307809D01*
X120948157Y-57097765D01*
X120997440Y-56850000D01*
X120997440Y-55150000D01*
X120948157Y-54902235D01*
X120807809Y-54692191D01*
X120597765Y-54551843D01*
X120552381Y-54542816D01*
X120570625Y-54530625D01*
X120898839Y-54039418D01*
X121014092Y-53460000D01*
X120898839Y-52880582D01*
X120570625Y-52389375D01*
X120272239Y-52190000D01*
X120570625Y-51990625D01*
X120898839Y-51499418D01*
X121014092Y-50920000D01*
X121002158Y-50860000D01*
X130296887Y-50860000D01*
X130408260Y-51419909D01*
X130725423Y-51894577D01*
X131077758Y-52130000D01*
X130725423Y-52365423D01*
X130408260Y-52840091D01*
X130296887Y-53400000D01*
X130408260Y-53959909D01*
X130725423Y-54434577D01*
X131077758Y-54670000D01*
X130725423Y-54905423D01*
X130408260Y-55380091D01*
X130296887Y-55940000D01*
X130408260Y-56499909D01*
X130725423Y-56974577D01*
X131109108Y-57230947D01*
X130904866Y-57327611D01*
X130528959Y-57742577D01*
X130368096Y-58130961D01*
X130490085Y-58353000D01*
X131633000Y-58353000D01*
X131633000Y-58333000D01*
X131887000Y-58333000D01*
X131887000Y-58353000D01*
X133029915Y-58353000D01*
X133151904Y-58130961D01*
X132991041Y-57742577D01*
X132615134Y-57327611D01*
X132410892Y-57230947D01*
X132794577Y-56974577D01*
X133111740Y-56499909D01*
X133223113Y-55940000D01*
X133111740Y-55380091D01*
X132794577Y-54905423D01*
X132442242Y-54670000D01*
X132794577Y-54434577D01*
X133111740Y-53959909D01*
X133223113Y-53400000D01*
X133111740Y-52840091D01*
X132794577Y-52365423D01*
X132442242Y-52130000D01*
X132794577Y-51894577D01*
X133111740Y-51419909D01*
X133211178Y-50920000D01*
X134985908Y-50920000D01*
X135101161Y-51499418D01*
X135429375Y-51990625D01*
X135727761Y-52190000D01*
X135429375Y-52389375D01*
X135101161Y-52880582D01*
X134985908Y-53460000D01*
X135101161Y-54039418D01*
X135429375Y-54530625D01*
X135447619Y-54542816D01*
X135402235Y-54551843D01*
X135192191Y-54692191D01*
X135051843Y-54902235D01*
X135002560Y-55150000D01*
X135002560Y-56850000D01*
X135051843Y-57097765D01*
X135192191Y-57307809D01*
X135402235Y-57448157D01*
X135650000Y-57497440D01*
X137350000Y-57497440D01*
X137597765Y-57448157D01*
X137807809Y-57307809D01*
X137948157Y-57097765D01*
X137997440Y-56850000D01*
X137997440Y-55150000D01*
X137948157Y-54902235D01*
X137807809Y-54692191D01*
X137597765Y-54551843D01*
X137552381Y-54542816D01*
X137570625Y-54530625D01*
X137898839Y-54039418D01*
X138014092Y-53460000D01*
X137898839Y-52880582D01*
X137570625Y-52389375D01*
X137272239Y-52190000D01*
X137570625Y-51990625D01*
X137898839Y-51499418D01*
X138014092Y-50920000D01*
X137898839Y-50340582D01*
X137570625Y-49849375D01*
X137079418Y-49521161D01*
X136646256Y-49435000D01*
X136353744Y-49435000D01*
X135920582Y-49521161D01*
X135429375Y-49849375D01*
X135101161Y-50340582D01*
X134985908Y-50920000D01*
X133211178Y-50920000D01*
X133223113Y-50860000D01*
X133111740Y-50300091D01*
X132794577Y-49825423D01*
X132319909Y-49508260D01*
X131901333Y-49425000D01*
X131618667Y-49425000D01*
X131200091Y-49508260D01*
X130725423Y-49825423D01*
X130408260Y-50300091D01*
X130296887Y-50860000D01*
X121002158Y-50860000D01*
X120898839Y-50340582D01*
X120570625Y-49849375D01*
X120079418Y-49521161D01*
X119646256Y-49435000D01*
X119353744Y-49435000D01*
X118920582Y-49521161D01*
X118429375Y-49849375D01*
X118101161Y-50340582D01*
X117985908Y-50920000D01*
X114469243Y-50920000D01*
X114493113Y-50800000D01*
X114381740Y-50240091D01*
X114064577Y-49765423D01*
X113589909Y-49448260D01*
X113171333Y-49365000D01*
X112888667Y-49365000D01*
X112470091Y-49448260D01*
X111995423Y-49765423D01*
X111678260Y-50240091D01*
X111566887Y-50800000D01*
X106873113Y-50800000D01*
X106761740Y-50240091D01*
X106444577Y-49765423D01*
X105969909Y-49448260D01*
X105551333Y-49365000D01*
X105268667Y-49365000D01*
X104850091Y-49448260D01*
X104375423Y-49765423D01*
X104058260Y-50240091D01*
X103946887Y-50800000D01*
X104058260Y-51359909D01*
X104375423Y-51834577D01*
X104727758Y-52070000D01*
X104375423Y-52305423D01*
X104058260Y-52780091D01*
X103946887Y-53340000D01*
X104058260Y-53899909D01*
X104375423Y-54374577D01*
X104727758Y-54610000D01*
X104525717Y-54745000D01*
X91135000Y-54745000D01*
X91135000Y-46482163D01*
X93027443Y-46482163D01*
X93126042Y-46748965D01*
X93735582Y-46975401D01*
X94385377Y-46951341D01*
X94873958Y-46748965D01*
X94972557Y-46482163D01*
X94000000Y-45509605D01*
X93027443Y-46482163D01*
X91135000Y-46482163D01*
X91135000Y-45065582D01*
X92354599Y-45065582D01*
X92378659Y-45715377D01*
X92581035Y-46203958D01*
X92847837Y-46302557D01*
X93820395Y-45330000D01*
X94179605Y-45330000D01*
X95152163Y-46302557D01*
X95418965Y-46203958D01*
X95518177Y-45936890D01*
X135058524Y-45936890D01*
X135228355Y-46346924D01*
X135618642Y-46775183D01*
X136143108Y-47021486D01*
X136373000Y-46900819D01*
X136373000Y-45707000D01*
X136627000Y-45707000D01*
X136627000Y-46900819D01*
X136856892Y-47021486D01*
X137381358Y-46775183D01*
X137771645Y-46346924D01*
X137941476Y-45936890D01*
X137820155Y-45707000D01*
X136627000Y-45707000D01*
X136373000Y-45707000D01*
X135179845Y-45707000D01*
X135058524Y-45936890D01*
X95518177Y-45936890D01*
X95645401Y-45594418D01*
X95621341Y-44944623D01*
X95418965Y-44456042D01*
X95152163Y-44357443D01*
X94179605Y-45330000D01*
X93820395Y-45330000D01*
X92847837Y-44357443D01*
X92581035Y-44456042D01*
X92354599Y-45065582D01*
X91135000Y-45065582D01*
X91135000Y-44177837D01*
X93027443Y-44177837D01*
X94000000Y-45150395D01*
X94972557Y-44177837D01*
X94873958Y-43911035D01*
X94264418Y-43684599D01*
X93614623Y-43708659D01*
X93126042Y-43911035D01*
X93027443Y-44177837D01*
X91135000Y-44177837D01*
X91135000Y-43396890D01*
X135058524Y-43396890D01*
X135228355Y-43806924D01*
X135618642Y-44235183D01*
X135777954Y-44310000D01*
X135618642Y-44384817D01*
X135228355Y-44813076D01*
X135058524Y-45223110D01*
X135179845Y-45453000D01*
X136373000Y-45453000D01*
X136373000Y-43167000D01*
X136627000Y-43167000D01*
X136627000Y-45453000D01*
X137820155Y-45453000D01*
X137941476Y-45223110D01*
X137771645Y-44813076D01*
X137381358Y-44384817D01*
X137222046Y-44310000D01*
X137381358Y-44235183D01*
X137771645Y-43806924D01*
X137941476Y-43396890D01*
X137820155Y-43167000D01*
X136627000Y-43167000D01*
X136373000Y-43167000D01*
X135179845Y-43167000D01*
X135058524Y-43396890D01*
X91135000Y-43396890D01*
X91135000Y-40785750D01*
X135015000Y-40785750D01*
X135015000Y-41476310D01*
X135111673Y-41709699D01*
X135290302Y-41888327D01*
X135499878Y-41975136D01*
X135228355Y-42273076D01*
X135058524Y-42683110D01*
X135179845Y-42913000D01*
X136373000Y-42913000D01*
X136373000Y-40627000D01*
X136627000Y-40627000D01*
X136627000Y-42913000D01*
X137820155Y-42913000D01*
X137941476Y-42683110D01*
X137771645Y-42273076D01*
X137500122Y-41975136D01*
X137709698Y-41888327D01*
X137888327Y-41709699D01*
X137985000Y-41476310D01*
X137985000Y-40785750D01*
X137826250Y-40627000D01*
X136627000Y-40627000D01*
X136373000Y-40627000D01*
X135173750Y-40627000D01*
X135015000Y-40785750D01*
X91135000Y-40785750D01*
X91135000Y-39523690D01*
X135015000Y-39523690D01*
X135015000Y-40214250D01*
X135173750Y-40373000D01*
X136373000Y-40373000D01*
X136373000Y-39173750D01*
X136627000Y-39173750D01*
X136627000Y-40373000D01*
X137826250Y-40373000D01*
X137985000Y-40214250D01*
X137985000Y-39523690D01*
X137888327Y-39290301D01*
X137709698Y-39111673D01*
X137476309Y-39015000D01*
X136785750Y-39015000D01*
X136627000Y-39173750D01*
X136373000Y-39173750D01*
X136214250Y-39015000D01*
X135523691Y-39015000D01*
X135290302Y-39111673D01*
X135111673Y-39290301D01*
X135015000Y-39523690D01*
X91135000Y-39523690D01*
X91135000Y-36305000D01*
X92823482Y-36305000D01*
X93074136Y-36555654D01*
X93674880Y-36804490D01*
X94325120Y-36804490D01*
X94925864Y-36555654D01*
X95385654Y-36095864D01*
X95634490Y-35495120D01*
X95634490Y-34844880D01*
X95385654Y-34244136D01*
X94925864Y-33784346D01*
X94325120Y-33535510D01*
X93674880Y-33535510D01*
X93074136Y-33784346D01*
X92823482Y-34035000D01*
X90111783Y-34035000D01*
X90000000Y-34012765D01*
X89888217Y-34035000D01*
X87536518Y-34035000D01*
X87285864Y-33784346D01*
X86685120Y-33535510D01*
X86034880Y-33535510D01*
X85434136Y-33784346D01*
X84974346Y-34244136D01*
X84725510Y-34844880D01*
X84725510Y-35495120D01*
X84974346Y-36095864D01*
X85434136Y-36555654D01*
X86034880Y-36804490D01*
X86685120Y-36804490D01*
X87285864Y-36555654D01*
X87536518Y-36305000D01*
X88865000Y-36305000D01*
X88865001Y-55148212D01*
X88842765Y-55260000D01*
X88930854Y-55702854D01*
X88930855Y-55702855D01*
X89181712Y-56078289D01*
X89276480Y-56141611D01*
X89738387Y-56603518D01*
X89801711Y-56698289D01*
X90177145Y-56949146D01*
X90508217Y-57015000D01*
X90619999Y-57037235D01*
X90731781Y-57015000D01*
X104525717Y-57015000D01*
X104727758Y-57150000D01*
X104525717Y-57285000D01*
X87495000Y-57285000D01*
X87495000Y-46506518D01*
X87745654Y-46255864D01*
X87994490Y-45655120D01*
X87994490Y-45004880D01*
X87745654Y-44404136D01*
X87285864Y-43944346D01*
X86685120Y-43695510D01*
X86034880Y-43695510D01*
X85434136Y-43944346D01*
X84974346Y-44404136D01*
X84973988Y-44405000D01*
X79662354Y-44405000D01*
X79807809Y-44307809D01*
X79948157Y-44097765D01*
X79997440Y-43850000D01*
X79997440Y-42150000D01*
X79948157Y-41902235D01*
X79807809Y-41692191D01*
X79597765Y-41551843D01*
X79350000Y-41502560D01*
X77650000Y-41502560D01*
X77402235Y-41551843D01*
X77192191Y-41692191D01*
X77051843Y-41902235D01*
X77002560Y-42150000D01*
X77002560Y-43850000D01*
X77051843Y-44097765D01*
X77192191Y-44307809D01*
X77365000Y-44423277D01*
X77365000Y-44565718D01*
X77101161Y-44960582D01*
X76985908Y-45540000D01*
X75660000Y-45540000D01*
X75660000Y-25660000D01*
X139340001Y-25660000D01*
X139340000Y-112840000D01*
G04 #@! TD*
M02*
