G04 #@! TF.GenerationSoftware,KiCad,Pcbnew,(5.0.1-3-g963ef8bb5)*
G04 #@! TF.CreationDate,2019-03-18T17:32:53-03:00*
G04 #@! TF.ProjectId,NNC_monitor,4E4E435F6D6F6E69746F722E6B696361,rev?*
G04 #@! TF.SameCoordinates,Original*
G04 #@! TF.FileFunction,Legend,Top*
G04 #@! TF.FilePolarity,Positive*
%FSLAX46Y46*%
G04 Gerber Fmt 4.6, Leading zero omitted, Abs format (unit mm)*
G04 Created by KiCad (PCBNEW (5.0.1-3-g963ef8bb5)) date Monday, March 18, 2019 at 05:32:53 PM*
%MOMM*%
%LPD*%
G01*
G04 APERTURE LIST*
%ADD10C,0.150000*%
%ADD11C,0.120000*%
%ADD12C,0.250000*%
G04 APERTURE END LIST*
D10*
X81997619Y-55811904D02*
X81997619Y-56430952D01*
X81616666Y-56097619D01*
X81616666Y-56240476D01*
X81569047Y-56335714D01*
X81521428Y-56383333D01*
X81426190Y-56430952D01*
X81188095Y-56430952D01*
X81092857Y-56383333D01*
X81045238Y-56335714D01*
X80997619Y-56240476D01*
X80997619Y-55954761D01*
X81045238Y-55859523D01*
X81092857Y-55811904D01*
X81997619Y-56716666D02*
X80997619Y-57050000D01*
X81997619Y-57383333D01*
X81997619Y-57621428D02*
X81997619Y-58240476D01*
X81616666Y-57907142D01*
X81616666Y-58050000D01*
X81569047Y-58145238D01*
X81521428Y-58192857D01*
X81426190Y-58240476D01*
X81188095Y-58240476D01*
X81092857Y-58192857D01*
X81045238Y-58145238D01*
X80997619Y-58050000D01*
X80997619Y-57764285D01*
X81045238Y-57669047D01*
X81092857Y-57621428D01*
D11*
X134500000Y-32000000D02*
X134500000Y-39000000D01*
X81000000Y-73500000D02*
X81000000Y-75000000D01*
X81000000Y-74000000D02*
X81000000Y-73500000D01*
X81000000Y-56000000D02*
X81000000Y-68500000D01*
X81000000Y-47000000D02*
X81000000Y-50500000D01*
X124500000Y-47500000D02*
X124500000Y-49000000D01*
X112000000Y-47500000D02*
X124500000Y-47500000D01*
D10*
X121880952Y-56452380D02*
X121880952Y-55452380D01*
X122357142Y-56452380D02*
X122357142Y-55452380D01*
X122928571Y-56452380D01*
X122928571Y-55452380D01*
X123833333Y-55785714D02*
X123833333Y-56452380D01*
X123595238Y-55404761D02*
X123357142Y-56119047D01*
X123976190Y-56119047D01*
X124357142Y-56071428D02*
X125119047Y-56071428D01*
X124738095Y-56452380D02*
X124738095Y-55690476D01*
X121880952Y-53952380D02*
X121880952Y-52952380D01*
X122357142Y-53952380D02*
X122357142Y-52952380D01*
X122928571Y-53952380D01*
X122928571Y-52952380D01*
X123833333Y-53285714D02*
X123833333Y-53952380D01*
X123595238Y-52904761D02*
X123357142Y-53619047D01*
X123976190Y-53619047D01*
X124357142Y-53571428D02*
X125119047Y-53571428D01*
X122023809Y-49952380D02*
X122214285Y-49952380D01*
X122309523Y-50000000D01*
X122404761Y-50095238D01*
X122452380Y-50285714D01*
X122452380Y-50619047D01*
X122404761Y-50809523D01*
X122309523Y-50904761D01*
X122214285Y-50952380D01*
X122023809Y-50952380D01*
X121928571Y-50904761D01*
X121833333Y-50809523D01*
X121785714Y-50619047D01*
X121785714Y-50285714D01*
X121833333Y-50095238D01*
X121928571Y-50000000D01*
X122023809Y-49952380D01*
X122880952Y-49952380D02*
X122880952Y-50761904D01*
X122928571Y-50857142D01*
X122976190Y-50904761D01*
X123071428Y-50952380D01*
X123261904Y-50952380D01*
X123357142Y-50904761D01*
X123404761Y-50857142D01*
X123452380Y-50761904D01*
X123452380Y-49952380D01*
X123785714Y-49952380D02*
X124357142Y-49952380D01*
X124071428Y-50952380D02*
X124071428Y-49952380D01*
X125119047Y-50285714D02*
X125119047Y-50952380D01*
X124880952Y-49904761D02*
X124642857Y-50619047D01*
X125261904Y-50619047D01*
D12*
X98785714Y-35952380D02*
X98785714Y-34952380D01*
X99357142Y-35952380D01*
X99357142Y-34952380D01*
X99833333Y-35952380D02*
X99833333Y-34952380D01*
X100404761Y-35952380D01*
X100404761Y-34952380D01*
X101452380Y-35857142D02*
X101404761Y-35904761D01*
X101261904Y-35952380D01*
X101166666Y-35952380D01*
X101023809Y-35904761D01*
X100928571Y-35809523D01*
X100880952Y-35714285D01*
X100833333Y-35523809D01*
X100833333Y-35380952D01*
X100880952Y-35190476D01*
X100928571Y-35095238D01*
X101023809Y-35000000D01*
X101166666Y-34952380D01*
X101261904Y-34952380D01*
X101404761Y-35000000D01*
X101452380Y-35047619D01*
X102595238Y-35904761D02*
X102738095Y-35952380D01*
X102976190Y-35952380D01*
X103071428Y-35904761D01*
X103119047Y-35857142D01*
X103166666Y-35761904D01*
X103166666Y-35666666D01*
X103119047Y-35571428D01*
X103071428Y-35523809D01*
X102976190Y-35476190D01*
X102785714Y-35428571D01*
X102690476Y-35380952D01*
X102642857Y-35333333D01*
X102595238Y-35238095D01*
X102595238Y-35142857D01*
X102642857Y-35047619D01*
X102690476Y-35000000D01*
X102785714Y-34952380D01*
X103023809Y-34952380D01*
X103166666Y-35000000D01*
X103595238Y-34952380D02*
X103595238Y-35761904D01*
X103642857Y-35857142D01*
X103690476Y-35904761D01*
X103785714Y-35952380D01*
X103976190Y-35952380D01*
X104071428Y-35904761D01*
X104119047Y-35857142D01*
X104166666Y-35761904D01*
X104166666Y-34952380D01*
X105214285Y-35952380D02*
X104880952Y-35476190D01*
X104642857Y-35952380D02*
X104642857Y-34952380D01*
X105023809Y-34952380D01*
X105119047Y-35000000D01*
X105166666Y-35047619D01*
X105214285Y-35142857D01*
X105214285Y-35285714D01*
X105166666Y-35380952D01*
X105119047Y-35428571D01*
X105023809Y-35476190D01*
X104642857Y-35476190D01*
X106166666Y-35000000D02*
X106071428Y-34952380D01*
X105928571Y-34952380D01*
X105785714Y-35000000D01*
X105690476Y-35095238D01*
X105642857Y-35190476D01*
X105595238Y-35380952D01*
X105595238Y-35523809D01*
X105642857Y-35714285D01*
X105690476Y-35809523D01*
X105785714Y-35904761D01*
X105928571Y-35952380D01*
X106023809Y-35952380D01*
X106166666Y-35904761D01*
X106214285Y-35857142D01*
X106214285Y-35523809D01*
X106023809Y-35523809D01*
X106642857Y-35428571D02*
X106976190Y-35428571D01*
X107119047Y-35952380D02*
X106642857Y-35952380D01*
X106642857Y-34952380D01*
X107119047Y-34952380D01*
X108119047Y-35952380D02*
X107785714Y-35476190D01*
X107547619Y-35952380D02*
X107547619Y-34952380D01*
X107928571Y-34952380D01*
X108023809Y-35000000D01*
X108071428Y-35047619D01*
X108119047Y-35142857D01*
X108119047Y-35285714D01*
X108071428Y-35380952D01*
X108023809Y-35428571D01*
X107928571Y-35476190D01*
X107547619Y-35476190D01*
X108738095Y-35476190D02*
X108738095Y-35952380D01*
X108404761Y-34952380D02*
X108738095Y-35476190D01*
X109071428Y-34952380D01*
X110166666Y-35952380D02*
X110166666Y-34952380D01*
X110500000Y-35666666D01*
X110833333Y-34952380D01*
X110833333Y-35952380D01*
X111500000Y-34952380D02*
X111690476Y-34952380D01*
X111785714Y-35000000D01*
X111880952Y-35095238D01*
X111928571Y-35285714D01*
X111928571Y-35619047D01*
X111880952Y-35809523D01*
X111785714Y-35904761D01*
X111690476Y-35952380D01*
X111500000Y-35952380D01*
X111404761Y-35904761D01*
X111309523Y-35809523D01*
X111261904Y-35619047D01*
X111261904Y-35285714D01*
X111309523Y-35095238D01*
X111404761Y-35000000D01*
X111500000Y-34952380D01*
X112357142Y-35952380D02*
X112357142Y-34952380D01*
X112928571Y-35952380D01*
X112928571Y-34952380D01*
X113404761Y-35952380D02*
X113404761Y-34952380D01*
X113738095Y-34952380D02*
X114309523Y-34952380D01*
X114023809Y-35952380D02*
X114023809Y-34952380D01*
X114833333Y-34952380D02*
X115023809Y-34952380D01*
X115119047Y-35000000D01*
X115214285Y-35095238D01*
X115261904Y-35285714D01*
X115261904Y-35619047D01*
X115214285Y-35809523D01*
X115119047Y-35904761D01*
X115023809Y-35952380D01*
X114833333Y-35952380D01*
X114738095Y-35904761D01*
X114642857Y-35809523D01*
X114595238Y-35619047D01*
X114595238Y-35285714D01*
X114642857Y-35095238D01*
X114738095Y-35000000D01*
X114833333Y-34952380D01*
X116261904Y-35952380D02*
X115928571Y-35476190D01*
X115690476Y-35952380D02*
X115690476Y-34952380D01*
X116071428Y-34952380D01*
X116166666Y-35000000D01*
X116214285Y-35047619D01*
X116261904Y-35142857D01*
X116261904Y-35285714D01*
X116214285Y-35380952D01*
X116166666Y-35428571D01*
X116071428Y-35476190D01*
X115690476Y-35476190D01*
D11*
X81000000Y-41500000D02*
X81000000Y-32000000D01*
X81000000Y-98000000D02*
X81000000Y-80500000D01*
X81000000Y-32000000D02*
X84000000Y-32000000D01*
X83000000Y-98000000D02*
X81000000Y-98000000D01*
X86000000Y-101000000D02*
X83000000Y-98000000D01*
X118500000Y-101000000D02*
X86000000Y-101000000D01*
X121000000Y-98500000D02*
X118500000Y-101000000D01*
X132500000Y-98500000D02*
X121000000Y-98500000D01*
X134500000Y-96500000D02*
X132500000Y-98500000D01*
X134500000Y-47000000D02*
X134500000Y-96500000D01*
X125000000Y-32000000D02*
X134500000Y-32000000D01*
X125000000Y-25500000D02*
X125000000Y-32000000D01*
X124500000Y-25500000D02*
X125000000Y-25500000D01*
X113500000Y-25500000D02*
X124500000Y-25500000D01*
X113500000Y-32000000D02*
X113500000Y-25500000D01*
X93000000Y-32000000D02*
X113500000Y-32000000D01*
X93000000Y-30000000D02*
X93000000Y-32000000D01*
X84000000Y-30000000D02*
X93000000Y-30000000D01*
X84000000Y-32000000D02*
X84000000Y-30000000D01*
D10*
X92285714Y-26547619D02*
X92095238Y-26547619D01*
X92000000Y-26595238D01*
X91952380Y-26642857D01*
X91857142Y-26785714D01*
X91809523Y-26976190D01*
X91809523Y-27357142D01*
X91857142Y-27452380D01*
X91904761Y-27500000D01*
X92000000Y-27547619D01*
X92190476Y-27547619D01*
X92285714Y-27500000D01*
X92333333Y-27452380D01*
X92380952Y-27357142D01*
X92380952Y-27119047D01*
X92333333Y-27023809D01*
X92285714Y-26976190D01*
X92190476Y-26928571D01*
X92000000Y-26928571D01*
X91904761Y-26976190D01*
X91857142Y-27023809D01*
X91809523Y-27119047D01*
X91476190Y-27214285D02*
X91238095Y-26547619D01*
X91000000Y-27214285D01*
X89857142Y-26928571D02*
X89095238Y-26928571D01*
X87333333Y-26547619D02*
X87904761Y-26547619D01*
X87619047Y-26547619D02*
X87619047Y-27547619D01*
X87714285Y-27404761D01*
X87809523Y-27309523D01*
X87904761Y-27261904D01*
X86952380Y-27452380D02*
X86904761Y-27500000D01*
X86809523Y-27547619D01*
X86571428Y-27547619D01*
X86476190Y-27500000D01*
X86428571Y-27452380D01*
X86380952Y-27357142D01*
X86380952Y-27261904D01*
X86428571Y-27119047D01*
X87000000Y-26547619D01*
X86380952Y-26547619D01*
X86047619Y-27214285D02*
X85809523Y-26547619D01*
X85571428Y-27214285D01*
X81547619Y-71309523D02*
X81547619Y-70833333D01*
X81071428Y-70785714D01*
X81119047Y-70833333D01*
X81166666Y-70928571D01*
X81166666Y-71166666D01*
X81119047Y-71261904D01*
X81071428Y-71309523D01*
X80976190Y-71357142D01*
X80738095Y-71357142D01*
X80642857Y-71309523D01*
X80595238Y-71261904D01*
X80547619Y-71166666D01*
X80547619Y-70928571D01*
X80595238Y-70833333D01*
X80642857Y-70785714D01*
X81547619Y-71642857D02*
X80547619Y-71976190D01*
X81547619Y-72309523D01*
X81697619Y-49011904D02*
X81697619Y-49630952D01*
X81316666Y-49297619D01*
X81316666Y-49440476D01*
X81269047Y-49535714D01*
X81221428Y-49583333D01*
X81126190Y-49630952D01*
X80888095Y-49630952D01*
X80792857Y-49583333D01*
X80745238Y-49535714D01*
X80697619Y-49440476D01*
X80697619Y-49154761D01*
X80745238Y-49059523D01*
X80792857Y-49011904D01*
X81697619Y-49916666D02*
X80697619Y-50250000D01*
X81697619Y-50583333D01*
X81697619Y-50821428D02*
X81697619Y-51440476D01*
X81316666Y-51107142D01*
X81316666Y-51250000D01*
X81269047Y-51345238D01*
X81221428Y-51392857D01*
X81126190Y-51440476D01*
X80888095Y-51440476D01*
X80792857Y-51392857D01*
X80745238Y-51345238D01*
X80697619Y-51250000D01*
X80697619Y-50964285D01*
X80745238Y-50869047D01*
X80792857Y-50821428D01*
X133000000Y-43761904D02*
X132952380Y-43857142D01*
X132952380Y-44000000D01*
X133000000Y-44142857D01*
X133095238Y-44238095D01*
X133190476Y-44285714D01*
X133380952Y-44333333D01*
X133523809Y-44333333D01*
X133714285Y-44285714D01*
X133809523Y-44238095D01*
X133904761Y-44142857D01*
X133952380Y-44000000D01*
X133952380Y-43904761D01*
X133904761Y-43761904D01*
X133857142Y-43714285D01*
X133523809Y-43714285D01*
X133523809Y-43904761D01*
X133952380Y-43285714D02*
X132952380Y-43285714D01*
X133952380Y-42714285D01*
X132952380Y-42714285D01*
X133952380Y-42238095D02*
X132952380Y-42238095D01*
X132952380Y-42000000D01*
X133000000Y-41857142D01*
X133095238Y-41761904D01*
X133190476Y-41714285D01*
X133380952Y-41666666D01*
X133523809Y-41666666D01*
X133714285Y-41714285D01*
X133809523Y-41761904D01*
X133904761Y-41857142D01*
X133952380Y-42000000D01*
X133952380Y-42238095D01*
X81547619Y-43809523D02*
X81547619Y-43333333D01*
X81071428Y-43285714D01*
X81119047Y-43333333D01*
X81166666Y-43428571D01*
X81166666Y-43666666D01*
X81119047Y-43761904D01*
X81071428Y-43809523D01*
X80976190Y-43857142D01*
X80738095Y-43857142D01*
X80642857Y-43809523D01*
X80595238Y-43761904D01*
X80547619Y-43666666D01*
X80547619Y-43428571D01*
X80595238Y-43333333D01*
X80642857Y-43285714D01*
X81547619Y-44142857D02*
X80547619Y-44476190D01*
X81547619Y-44809523D01*
X99168928Y-37778571D02*
X98835595Y-37778571D01*
X98835595Y-38302380D02*
X98835595Y-37302380D01*
X99311785Y-37302380D01*
X100168928Y-38302380D02*
X99692738Y-38302380D01*
X99692738Y-37302380D01*
X100454642Y-38016666D02*
X100930833Y-38016666D01*
X100359404Y-38302380D02*
X100692738Y-37302380D01*
X101026071Y-38302380D01*
X101216547Y-37302380D02*
X101549880Y-38302380D01*
X101883214Y-37302380D01*
X102216547Y-38302380D02*
X102216547Y-37302380D01*
X102883214Y-37302380D02*
X103073690Y-37302380D01*
X103168928Y-37350000D01*
X103264166Y-37445238D01*
X103311785Y-37635714D01*
X103311785Y-37969047D01*
X103264166Y-38159523D01*
X103168928Y-38254761D01*
X103073690Y-38302380D01*
X102883214Y-38302380D01*
X102787976Y-38254761D01*
X102692738Y-38159523D01*
X102645119Y-37969047D01*
X102645119Y-37635714D01*
X102692738Y-37445238D01*
X102787976Y-37350000D01*
X102883214Y-37302380D01*
X104502261Y-38302380D02*
X104502261Y-37302380D01*
X104835595Y-38016666D01*
X105168928Y-37302380D01*
X105168928Y-38302380D01*
X105835595Y-37302380D02*
X106026071Y-37302380D01*
X106121309Y-37350000D01*
X106216547Y-37445238D01*
X106264166Y-37635714D01*
X106264166Y-37969047D01*
X106216547Y-38159523D01*
X106121309Y-38254761D01*
X106026071Y-38302380D01*
X105835595Y-38302380D01*
X105740357Y-38254761D01*
X105645119Y-38159523D01*
X105597500Y-37969047D01*
X105597500Y-37635714D01*
X105645119Y-37445238D01*
X105740357Y-37350000D01*
X105835595Y-37302380D01*
X106692738Y-37302380D02*
X106692738Y-38111904D01*
X106740357Y-38207142D01*
X106787976Y-38254761D01*
X106883214Y-38302380D01*
X107073690Y-38302380D01*
X107168928Y-38254761D01*
X107216547Y-38207142D01*
X107264166Y-38111904D01*
X107264166Y-37302380D01*
X108311785Y-38302380D02*
X107978452Y-37826190D01*
X107740357Y-38302380D02*
X107740357Y-37302380D01*
X108121309Y-37302380D01*
X108216547Y-37350000D01*
X108264166Y-37397619D01*
X108311785Y-37492857D01*
X108311785Y-37635714D01*
X108264166Y-37730952D01*
X108216547Y-37778571D01*
X108121309Y-37826190D01*
X107740357Y-37826190D01*
X108692738Y-38016666D02*
X109168928Y-38016666D01*
X108597500Y-38302380D02*
X108930833Y-37302380D01*
X109264166Y-38302380D01*
X109787976Y-37302380D02*
X109978452Y-37302380D01*
X110073690Y-37350000D01*
X110168928Y-37445238D01*
X110216547Y-37635714D01*
X110216547Y-37969047D01*
X110168928Y-38159523D01*
X110073690Y-38254761D01*
X109978452Y-38302380D01*
X109787976Y-38302380D01*
X109692738Y-38254761D01*
X109597500Y-38159523D01*
X109549880Y-37969047D01*
X109549880Y-37635714D01*
X109597500Y-37445238D01*
X109692738Y-37350000D01*
X109787976Y-37302380D01*
X98835595Y-39952380D02*
X98835595Y-38952380D01*
X99407023Y-39952380D01*
X99407023Y-38952380D01*
X99883214Y-39952380D02*
X99883214Y-38952380D01*
X100454642Y-39952380D01*
X100454642Y-38952380D01*
X101502261Y-39857142D02*
X101454642Y-39904761D01*
X101311785Y-39952380D01*
X101216547Y-39952380D01*
X101073690Y-39904761D01*
X100978452Y-39809523D01*
X100930833Y-39714285D01*
X100883214Y-39523809D01*
X100883214Y-39380952D01*
X100930833Y-39190476D01*
X100978452Y-39095238D01*
X101073690Y-39000000D01*
X101216547Y-38952380D01*
X101311785Y-38952380D01*
X101454642Y-39000000D01*
X101502261Y-39047619D01*
X102692738Y-39571428D02*
X103454642Y-39571428D01*
X104692738Y-38952380D02*
X104692738Y-39761904D01*
X104740357Y-39857142D01*
X104787976Y-39904761D01*
X104883214Y-39952380D01*
X105073690Y-39952380D01*
X105168928Y-39904761D01*
X105216547Y-39857142D01*
X105264166Y-39761904D01*
X105264166Y-38952380D01*
X106073690Y-39428571D02*
X105740357Y-39428571D01*
X105740357Y-39952380D02*
X105740357Y-38952380D01*
X106216547Y-38952380D01*
X106597500Y-39952380D02*
X106597500Y-38952380D01*
X106930833Y-39666666D01*
X107264166Y-38952380D01*
X107264166Y-39952380D01*
X108264166Y-39000000D02*
X108168928Y-38952380D01*
X108026071Y-38952380D01*
X107883214Y-39000000D01*
X107787976Y-39095238D01*
X107740357Y-39190476D01*
X107692738Y-39380952D01*
X107692738Y-39523809D01*
X107740357Y-39714285D01*
X107787976Y-39809523D01*
X107883214Y-39904761D01*
X108026071Y-39952380D01*
X108121309Y-39952380D01*
X108264166Y-39904761D01*
X108311785Y-39857142D01*
X108311785Y-39523809D01*
X108121309Y-39523809D01*
X99121309Y-40602380D02*
X99121309Y-41316666D01*
X99073690Y-41459523D01*
X98978452Y-41554761D01*
X98835595Y-41602380D01*
X98740357Y-41602380D01*
X99549880Y-41316666D02*
X100026071Y-41316666D01*
X99454642Y-41602380D02*
X99787976Y-40602380D01*
X100121309Y-41602380D01*
X100454642Y-41602380D02*
X100454642Y-40602380D01*
X101026071Y-41602380D01*
X101026071Y-40602380D01*
X102216547Y-40554761D02*
X101359404Y-41840476D01*
X102502261Y-40697619D02*
X102549880Y-40650000D01*
X102645119Y-40602380D01*
X102883214Y-40602380D01*
X102978452Y-40650000D01*
X103026071Y-40697619D01*
X103073690Y-40792857D01*
X103073690Y-40888095D01*
X103026071Y-41030952D01*
X102454642Y-41602380D01*
X103073690Y-41602380D01*
X103692738Y-40602380D02*
X103787976Y-40602380D01*
X103883214Y-40650000D01*
X103930833Y-40697619D01*
X103978452Y-40792857D01*
X104026071Y-40983333D01*
X104026071Y-41221428D01*
X103978452Y-41411904D01*
X103930833Y-41507142D01*
X103883214Y-41554761D01*
X103787976Y-41602380D01*
X103692738Y-41602380D01*
X103597500Y-41554761D01*
X103549880Y-41507142D01*
X103502261Y-41411904D01*
X103454642Y-41221428D01*
X103454642Y-40983333D01*
X103502261Y-40792857D01*
X103549880Y-40697619D01*
X103597500Y-40650000D01*
X103692738Y-40602380D01*
X104978452Y-41602380D02*
X104407023Y-41602380D01*
X104692738Y-41602380D02*
X104692738Y-40602380D01*
X104597500Y-40745238D01*
X104502261Y-40840476D01*
X104407023Y-40888095D01*
X105454642Y-41602380D02*
X105645119Y-41602380D01*
X105740357Y-41554761D01*
X105787976Y-41507142D01*
X105883214Y-41364285D01*
X105930833Y-41173809D01*
X105930833Y-40792857D01*
X105883214Y-40697619D01*
X105835595Y-40650000D01*
X105740357Y-40602380D01*
X105549880Y-40602380D01*
X105454642Y-40650000D01*
X105407023Y-40697619D01*
X105359404Y-40792857D01*
X105359404Y-41030952D01*
X105407023Y-41126190D01*
X105454642Y-41173809D01*
X105549880Y-41221428D01*
X105740357Y-41221428D01*
X105835595Y-41173809D01*
X105883214Y-41126190D01*
X105930833Y-41030952D01*
X120761904Y-29047619D02*
X120761904Y-28238095D01*
X120714285Y-28142857D01*
X120666666Y-28095238D01*
X120571428Y-28047619D01*
X120380952Y-28047619D01*
X120285714Y-28095238D01*
X120238095Y-28142857D01*
X120190476Y-28238095D01*
X120190476Y-29047619D01*
X119761904Y-28095238D02*
X119619047Y-28047619D01*
X119380952Y-28047619D01*
X119285714Y-28095238D01*
X119238095Y-28142857D01*
X119190476Y-28238095D01*
X119190476Y-28333333D01*
X119238095Y-28428571D01*
X119285714Y-28476190D01*
X119380952Y-28523809D01*
X119571428Y-28571428D01*
X119666666Y-28619047D01*
X119714285Y-28666666D01*
X119761904Y-28761904D01*
X119761904Y-28857142D01*
X119714285Y-28952380D01*
X119666666Y-29000000D01*
X119571428Y-29047619D01*
X119333333Y-29047619D01*
X119190476Y-29000000D01*
X118428571Y-28571428D02*
X118285714Y-28523809D01*
X118238095Y-28476190D01*
X118190476Y-28380952D01*
X118190476Y-28238095D01*
X118238095Y-28142857D01*
X118285714Y-28095238D01*
X118380952Y-28047619D01*
X118761904Y-28047619D01*
X118761904Y-29047619D01*
X118428571Y-29047619D01*
X118333333Y-29000000D01*
X118285714Y-28952380D01*
X118238095Y-28857142D01*
X118238095Y-28761904D01*
X118285714Y-28666666D01*
X118333333Y-28619047D01*
X118428571Y-28571428D01*
X118761904Y-28571428D01*
X91309523Y-28047619D02*
X91309523Y-29047619D01*
X90928571Y-29047619D01*
X90833333Y-29000000D01*
X90785714Y-28952380D01*
X90738095Y-28857142D01*
X90738095Y-28714285D01*
X90785714Y-28619047D01*
X90833333Y-28571428D01*
X90928571Y-28523809D01*
X91309523Y-28523809D01*
X90119047Y-29047619D02*
X89928571Y-29047619D01*
X89833333Y-29000000D01*
X89738095Y-28904761D01*
X89690476Y-28714285D01*
X89690476Y-28380952D01*
X89738095Y-28190476D01*
X89833333Y-28095238D01*
X89928571Y-28047619D01*
X90119047Y-28047619D01*
X90214285Y-28095238D01*
X90309523Y-28190476D01*
X90357142Y-28380952D01*
X90357142Y-28714285D01*
X90309523Y-28904761D01*
X90214285Y-29000000D01*
X90119047Y-29047619D01*
X89357142Y-29047619D02*
X89119047Y-28047619D01*
X88928571Y-28761904D01*
X88738095Y-28047619D01*
X88500000Y-29047619D01*
X88119047Y-28571428D02*
X87785714Y-28571428D01*
X87642857Y-28047619D02*
X88119047Y-28047619D01*
X88119047Y-29047619D01*
X87642857Y-29047619D01*
X86642857Y-28047619D02*
X86976190Y-28523809D01*
X87214285Y-28047619D02*
X87214285Y-29047619D01*
X86833333Y-29047619D01*
X86738095Y-29000000D01*
X86690476Y-28952380D01*
X86642857Y-28857142D01*
X86642857Y-28714285D01*
X86690476Y-28619047D01*
X86738095Y-28571428D01*
X86833333Y-28523809D01*
X87214285Y-28523809D01*
X126880952Y-56166666D02*
X127357142Y-56166666D01*
X126785714Y-56452380D02*
X127119047Y-55452380D01*
X127452380Y-56452380D01*
X128357142Y-56452380D02*
X128023809Y-55976190D01*
X127785714Y-56452380D02*
X127785714Y-55452380D01*
X128166666Y-55452380D01*
X128261904Y-55500000D01*
X128309523Y-55547619D01*
X128357142Y-55642857D01*
X128357142Y-55785714D01*
X128309523Y-55880952D01*
X128261904Y-55928571D01*
X128166666Y-55976190D01*
X127785714Y-55976190D01*
X128785714Y-55928571D02*
X129119047Y-55928571D01*
X129261904Y-56452380D02*
X128785714Y-56452380D01*
X128785714Y-55452380D01*
X129261904Y-55452380D01*
X130023809Y-55928571D02*
X129690476Y-55928571D01*
X129690476Y-56452380D02*
X129690476Y-55452380D01*
X130166666Y-55452380D01*
X126785714Y-53904761D02*
X126928571Y-53952380D01*
X127166666Y-53952380D01*
X127261904Y-53904761D01*
X127309523Y-53857142D01*
X127357142Y-53761904D01*
X127357142Y-53666666D01*
X127309523Y-53571428D01*
X127261904Y-53523809D01*
X127166666Y-53476190D01*
X126976190Y-53428571D01*
X126880952Y-53380952D01*
X126833333Y-53333333D01*
X126785714Y-53238095D01*
X126785714Y-53142857D01*
X126833333Y-53047619D01*
X126880952Y-53000000D01*
X126976190Y-52952380D01*
X127214285Y-52952380D01*
X127357142Y-53000000D01*
X127785714Y-53952380D02*
X127785714Y-52952380D01*
X128023809Y-52952380D01*
X128166666Y-53000000D01*
X128261904Y-53095238D01*
X128309523Y-53190476D01*
X128357142Y-53380952D01*
X128357142Y-53523809D01*
X128309523Y-53714285D01*
X128261904Y-53809523D01*
X128166666Y-53904761D01*
X128023809Y-53952380D01*
X127785714Y-53952380D01*
X128738095Y-53666666D02*
X129214285Y-53666666D01*
X128642857Y-53952380D02*
X128976190Y-52952380D01*
X129309523Y-53952380D01*
X126809523Y-51404761D02*
X126952380Y-51452380D01*
X127190476Y-51452380D01*
X127285714Y-51404761D01*
X127333333Y-51357142D01*
X127380952Y-51261904D01*
X127380952Y-51166666D01*
X127333333Y-51071428D01*
X127285714Y-51023809D01*
X127190476Y-50976190D01*
X127000000Y-50928571D01*
X126904761Y-50880952D01*
X126857142Y-50833333D01*
X126809523Y-50738095D01*
X126809523Y-50642857D01*
X126857142Y-50547619D01*
X126904761Y-50500000D01*
X127000000Y-50452380D01*
X127238095Y-50452380D01*
X127380952Y-50500000D01*
X128380952Y-51357142D02*
X128333333Y-51404761D01*
X128190476Y-51452380D01*
X128095238Y-51452380D01*
X127952380Y-51404761D01*
X127857142Y-51309523D01*
X127809523Y-51214285D01*
X127761904Y-51023809D01*
X127761904Y-50880952D01*
X127809523Y-50690476D01*
X127857142Y-50595238D01*
X127952380Y-50500000D01*
X128095238Y-50452380D01*
X128190476Y-50452380D01*
X128333333Y-50500000D01*
X128380952Y-50547619D01*
X129285714Y-51452380D02*
X128809523Y-51452380D01*
X128809523Y-50452380D01*
X86071428Y-65452380D02*
X85738095Y-64976190D01*
X85500000Y-65452380D02*
X85500000Y-64452380D01*
X85880952Y-64452380D01*
X85976190Y-64500000D01*
X86023809Y-64547619D01*
X86071428Y-64642857D01*
X86071428Y-64785714D01*
X86023809Y-64880952D01*
X85976190Y-64928571D01*
X85880952Y-64976190D01*
X85500000Y-64976190D01*
X86452380Y-65404761D02*
X86595238Y-65452380D01*
X86833333Y-65452380D01*
X86928571Y-65404761D01*
X86976190Y-65357142D01*
X87023809Y-65261904D01*
X87023809Y-65166666D01*
X86976190Y-65071428D01*
X86928571Y-65023809D01*
X86833333Y-64976190D01*
X86642857Y-64928571D01*
X86547619Y-64880952D01*
X86500000Y-64833333D01*
X86452380Y-64738095D01*
X86452380Y-64642857D01*
X86500000Y-64547619D01*
X86547619Y-64500000D01*
X86642857Y-64452380D01*
X86880952Y-64452380D01*
X87023809Y-64500000D01*
X87309523Y-64452380D02*
X87880952Y-64452380D01*
X87595238Y-65452380D02*
X87595238Y-64452380D01*
D11*
G04 #@! TO.C,J13*
X77170000Y-57320000D02*
X79830000Y-57320000D01*
X77170000Y-57320000D02*
X77170000Y-59920000D01*
X77170000Y-59920000D02*
X79830000Y-59920000D01*
X79830000Y-57320000D02*
X79830000Y-59920000D01*
X79830000Y-54720000D02*
X79830000Y-56050000D01*
X78500000Y-54720000D02*
X79830000Y-54720000D01*
G04 #@! TO.C,J15*
X119500000Y-57330000D02*
X118170000Y-57330000D01*
X118170000Y-57330000D02*
X118170000Y-56000000D01*
X118170000Y-54730000D02*
X118170000Y-49590000D01*
X120830000Y-49590000D02*
X118170000Y-49590000D01*
X120830000Y-54730000D02*
X120830000Y-49590000D01*
X120830000Y-54730000D02*
X118170000Y-54730000D01*
G04 #@! TO.C,J8*
X78500000Y-75170000D02*
X79830000Y-75170000D01*
X79830000Y-75170000D02*
X79830000Y-76500000D01*
X79830000Y-77770000D02*
X79830000Y-80370000D01*
X77170000Y-80370000D02*
X79830000Y-80370000D01*
X77170000Y-77770000D02*
X77170000Y-80370000D01*
X77170000Y-77770000D02*
X79830000Y-77770000D01*
G04 #@! TO.C,J10*
X77170000Y-71270000D02*
X79830000Y-71270000D01*
X77170000Y-71270000D02*
X77170000Y-73870000D01*
X77170000Y-73870000D02*
X79830000Y-73870000D01*
X79830000Y-71270000D02*
X79830000Y-73870000D01*
X79830000Y-68670000D02*
X79830000Y-70000000D01*
X78500000Y-68670000D02*
X79830000Y-68670000D01*
G04 #@! TO.C,J14*
X136500000Y-74830000D02*
X135170000Y-74830000D01*
X135170000Y-74830000D02*
X135170000Y-73500000D01*
X135170000Y-72230000D02*
X135170000Y-59470000D01*
X137830000Y-59470000D02*
X135170000Y-59470000D01*
X137830000Y-72230000D02*
X137830000Y-59470000D01*
X137830000Y-72230000D02*
X135170000Y-72230000D01*
G04 #@! TO.C,J12*
X78500000Y-61170000D02*
X79830000Y-61170000D01*
X79830000Y-61170000D02*
X79830000Y-62500000D01*
X79830000Y-63770000D02*
X79830000Y-66370000D01*
X77170000Y-66370000D02*
X79830000Y-66370000D01*
X77170000Y-63770000D02*
X77170000Y-66370000D01*
X77170000Y-63770000D02*
X79830000Y-63770000D01*
G04 #@! TO.C,J11*
X78500000Y-96830000D02*
X77170000Y-96830000D01*
X77170000Y-96830000D02*
X77170000Y-95500000D01*
X77170000Y-94230000D02*
X77170000Y-81470000D01*
X79830000Y-81470000D02*
X77170000Y-81470000D01*
X79830000Y-94230000D02*
X79830000Y-81470000D01*
X79830000Y-94230000D02*
X77170000Y-94230000D01*
G04 #@! TO.C,J9*
X78450000Y-48120000D02*
X79780000Y-48120000D01*
X79780000Y-48120000D02*
X79780000Y-49450000D01*
X79780000Y-50720000D02*
X79780000Y-53320000D01*
X77120000Y-53320000D02*
X79780000Y-53320000D01*
X77120000Y-50720000D02*
X77120000Y-53320000D01*
X77120000Y-50720000D02*
X79780000Y-50720000D01*
G04 #@! TO.C,J8*
X78500000Y-41670000D02*
X79830000Y-41670000D01*
X79830000Y-41670000D02*
X79830000Y-43000000D01*
X79830000Y-44270000D02*
X79830000Y-46870000D01*
X77170000Y-46870000D02*
X79830000Y-46870000D01*
X77170000Y-44270000D02*
X77170000Y-46870000D01*
X77170000Y-44270000D02*
X79830000Y-44270000D01*
G04 #@! TO.C,J7*
X136500000Y-39170000D02*
X137830000Y-39170000D01*
X137830000Y-39170000D02*
X137830000Y-40500000D01*
X137830000Y-41770000D02*
X137830000Y-46910000D01*
X135170000Y-46910000D02*
X137830000Y-46910000D01*
X135170000Y-41770000D02*
X135170000Y-46910000D01*
X135170000Y-41770000D02*
X137830000Y-41770000D01*
G04 #@! TO.C,J6*
X136500000Y-96830000D02*
X135170000Y-96830000D01*
X135170000Y-96830000D02*
X135170000Y-95500000D01*
X135170000Y-94230000D02*
X135170000Y-76390000D01*
X137830000Y-76390000D02*
X135170000Y-76390000D01*
X137830000Y-94230000D02*
X137830000Y-76390000D01*
X137830000Y-94230000D02*
X135170000Y-94230000D01*
G04 #@! TO.C,J5*
X136500000Y-57330000D02*
X135170000Y-57330000D01*
X135170000Y-57330000D02*
X135170000Y-56000000D01*
X135170000Y-54730000D02*
X135170000Y-49590000D01*
X137830000Y-49590000D02*
X135170000Y-49590000D01*
X137830000Y-54730000D02*
X137830000Y-49590000D01*
X137830000Y-54730000D02*
X135170000Y-54730000D01*
D10*
G04 #@! TO.C,C1*
X93000000Y-63250000D02*
X93000000Y-66250000D01*
X90500000Y-66250000D02*
X90500000Y-63250000D01*
G04 #@! TO.C,R5*
X99000000Y-65960000D02*
X99000000Y-64690000D01*
X99000000Y-71040000D02*
X99000000Y-72310000D01*
X100270000Y-71040000D02*
X97730000Y-71040000D01*
X100270000Y-65960000D02*
X100270000Y-71040000D01*
X97730000Y-65960000D02*
X100270000Y-65960000D01*
X97730000Y-71040000D02*
X97730000Y-65960000D01*
G04 #@! TO.C,U1*
X105545000Y-49775000D02*
X104610000Y-49775000D01*
X105545000Y-68335000D02*
X112895000Y-68335000D01*
X105545000Y-48505000D02*
X112895000Y-48505000D01*
X105545000Y-68335000D02*
X105545000Y-67065000D01*
X112895000Y-68335000D02*
X112895000Y-67065000D01*
X112895000Y-48505000D02*
X112895000Y-49775000D01*
X105545000Y-48505000D02*
X105545000Y-49775000D01*
G04 #@! TO.C,RV1*
X118641735Y-79135000D02*
G75*
G03X118641735Y-79135000I-1801735J0D01*
G01*
X112075000Y-84775000D02*
X112075000Y-75245000D01*
X121605000Y-84775000D02*
X112075000Y-84775000D01*
X121605000Y-75245000D02*
X121605000Y-84775000D01*
X112075000Y-75245000D02*
X121605000Y-75245000D01*
X115140000Y-79515000D02*
X118540000Y-79515000D01*
X115140000Y-78755000D02*
X118540000Y-78755000D01*
G04 #@! TO.C,R6*
X108750000Y-96540000D02*
X108750000Y-97810000D01*
X108750000Y-91460000D02*
X108750000Y-90190000D01*
X107480000Y-91460000D02*
X110020000Y-91460000D01*
X107480000Y-96540000D02*
X107480000Y-91460000D01*
X110020000Y-96540000D02*
X107480000Y-96540000D01*
X110020000Y-91460000D02*
X110020000Y-96540000D01*
G04 #@! TO.C,R4*
X94000000Y-42790000D02*
X94000000Y-44060000D01*
X94000000Y-37710000D02*
X94000000Y-36440000D01*
X92730000Y-37710000D02*
X95270000Y-37710000D01*
X92730000Y-42790000D02*
X92730000Y-37710000D01*
X95270000Y-42790000D02*
X92730000Y-42790000D01*
X95270000Y-37710000D02*
X95270000Y-42790000D01*
G04 #@! TO.C,R3*
X86360000Y-37710000D02*
X86360000Y-36440000D01*
X86360000Y-42790000D02*
X86360000Y-44060000D01*
X87630000Y-42790000D02*
X85090000Y-42790000D01*
X87630000Y-37710000D02*
X87630000Y-42790000D01*
X85090000Y-37710000D02*
X87630000Y-37710000D01*
X85090000Y-42790000D02*
X85090000Y-37710000D01*
G04 #@! TO.C,R2*
X101000000Y-96540000D02*
X101000000Y-97810000D01*
X101000000Y-91460000D02*
X101000000Y-90190000D01*
X99730000Y-91460000D02*
X102270000Y-91460000D01*
X99730000Y-96540000D02*
X99730000Y-91460000D01*
X102270000Y-96540000D02*
X99730000Y-96540000D01*
X102270000Y-91460000D02*
X102270000Y-96540000D01*
G04 #@! TO.C,R1*
X94250000Y-96540000D02*
X94250000Y-97810000D01*
X94250000Y-91460000D02*
X94250000Y-90190000D01*
X92980000Y-91460000D02*
X95520000Y-91460000D01*
X92980000Y-96540000D02*
X92980000Y-91460000D01*
X95520000Y-96540000D02*
X92980000Y-96540000D01*
X95520000Y-91460000D02*
X95520000Y-96540000D01*
D11*
G04 #@! TO.C,J4*
X91170000Y-104070000D02*
X91170000Y-103470000D01*
X89570000Y-104070000D02*
X91170000Y-104070000D01*
X89570000Y-103470000D02*
X89570000Y-104070000D01*
X88630000Y-104070000D02*
X88630000Y-103470000D01*
X87030000Y-104070000D02*
X88630000Y-104070000D01*
X87030000Y-103470000D02*
X87030000Y-104070000D01*
X86090000Y-104070000D02*
X86090000Y-103470000D01*
X84490000Y-104070000D02*
X86090000Y-104070000D01*
X84490000Y-103470000D02*
X84490000Y-104070000D01*
X83550000Y-104070000D02*
X83550000Y-103470000D01*
X81950000Y-104070000D02*
X83550000Y-104070000D01*
X81950000Y-103470000D02*
X81950000Y-104070000D01*
X90120000Y-109490000D02*
X90120000Y-108490000D01*
X83000000Y-109490000D02*
X83000000Y-108490000D01*
X90120000Y-107960000D02*
X90370000Y-108490000D01*
X83000000Y-107960000D02*
X90120000Y-107960000D01*
X82750000Y-108490000D02*
X83000000Y-107960000D01*
X90370000Y-108490000D02*
X90370000Y-109490000D01*
X82750000Y-108490000D02*
X90370000Y-108490000D01*
X82750000Y-109490000D02*
X82750000Y-108490000D01*
X81080000Y-104500000D02*
X81080000Y-108500000D01*
X91750000Y-103470000D02*
X81370000Y-103470000D01*
X91750000Y-109490000D02*
X91750000Y-103470000D01*
X81370000Y-109490000D02*
X91750000Y-109490000D01*
X81370000Y-103470000D02*
X81370000Y-109490000D01*
G04 #@! TO.C,J3*
X133880000Y-104070000D02*
X133880000Y-103470000D01*
X132280000Y-104070000D02*
X133880000Y-104070000D01*
X132280000Y-103470000D02*
X132280000Y-104070000D01*
X131340000Y-104070000D02*
X131340000Y-103470000D01*
X129740000Y-104070000D02*
X131340000Y-104070000D01*
X129740000Y-103470000D02*
X129740000Y-104070000D01*
X128800000Y-104070000D02*
X128800000Y-103470000D01*
X127200000Y-104070000D02*
X128800000Y-104070000D01*
X127200000Y-103470000D02*
X127200000Y-104070000D01*
X132830000Y-109490000D02*
X132830000Y-108490000D01*
X128250000Y-109490000D02*
X128250000Y-108490000D01*
X132830000Y-107960000D02*
X133080000Y-108490000D01*
X128250000Y-107960000D02*
X132830000Y-107960000D01*
X128000000Y-108490000D02*
X128250000Y-107960000D01*
X133080000Y-108490000D02*
X133080000Y-109490000D01*
X128000000Y-108490000D02*
X133080000Y-108490000D01*
X128000000Y-109490000D02*
X128000000Y-108490000D01*
X126330000Y-104500000D02*
X126330000Y-108500000D01*
X134460000Y-103470000D02*
X126620000Y-103470000D01*
X134460000Y-109490000D02*
X134460000Y-103470000D01*
X126620000Y-109490000D02*
X134460000Y-109490000D01*
X126620000Y-103470000D02*
X126620000Y-109490000D01*
G04 #@! TO.C,J2*
X102400000Y-104250000D02*
X102400000Y-103650000D01*
X100800000Y-104250000D02*
X102400000Y-104250000D01*
X100800000Y-103650000D02*
X100800000Y-104250000D01*
X99860000Y-104250000D02*
X99860000Y-103650000D01*
X98260000Y-104250000D02*
X99860000Y-104250000D01*
X98260000Y-103650000D02*
X98260000Y-104250000D01*
X101350000Y-109670000D02*
X101350000Y-108670000D01*
X99310000Y-109670000D02*
X99310000Y-108670000D01*
X101350000Y-108140000D02*
X101600000Y-108670000D01*
X99310000Y-108140000D02*
X101350000Y-108140000D01*
X99060000Y-108670000D02*
X99310000Y-108140000D01*
X101600000Y-108670000D02*
X101600000Y-109670000D01*
X99060000Y-108670000D02*
X101600000Y-108670000D01*
X99060000Y-109670000D02*
X99060000Y-108670000D01*
X97390000Y-104680000D02*
X97390000Y-108680000D01*
X102980000Y-103650000D02*
X97680000Y-103650000D01*
X102980000Y-109670000D02*
X102980000Y-103650000D01*
X97680000Y-109670000D02*
X102980000Y-109670000D01*
X97680000Y-103650000D02*
X97680000Y-109670000D01*
G04 #@! TO.C,J1*
X110830000Y-108930000D02*
X110830000Y-109530000D01*
X112430000Y-108930000D02*
X110830000Y-108930000D01*
X112430000Y-109530000D02*
X112430000Y-108930000D01*
X113370000Y-108930000D02*
X113370000Y-109530000D01*
X114970000Y-108930000D02*
X113370000Y-108930000D01*
X114970000Y-109530000D02*
X114970000Y-108930000D01*
X115910000Y-108930000D02*
X115910000Y-109530000D01*
X117510000Y-108930000D02*
X115910000Y-108930000D01*
X117510000Y-109530000D02*
X117510000Y-108930000D01*
X118450000Y-108930000D02*
X118450000Y-109530000D01*
X120050000Y-108930000D02*
X118450000Y-108930000D01*
X120050000Y-109530000D02*
X120050000Y-108930000D01*
X111880000Y-103510000D02*
X111880000Y-104510000D01*
X119000000Y-103510000D02*
X119000000Y-104510000D01*
X111880000Y-105040000D02*
X111630000Y-104510000D01*
X119000000Y-105040000D02*
X111880000Y-105040000D01*
X119250000Y-104510000D02*
X119000000Y-105040000D01*
X111630000Y-104510000D02*
X111630000Y-103510000D01*
X119250000Y-104510000D02*
X111630000Y-104510000D01*
X119250000Y-103510000D02*
X119250000Y-104510000D01*
X120920000Y-108500000D02*
X120920000Y-104500000D01*
X110250000Y-109530000D02*
X120630000Y-109530000D01*
X110250000Y-103510000D02*
X110250000Y-109530000D01*
X120630000Y-103510000D02*
X110250000Y-103510000D01*
X120630000Y-109530000D02*
X120630000Y-103510000D01*
D10*
G04 #@! TO.C,C3*
X101537500Y-80750000D02*
G75*
G03X101537500Y-80750000I-2537500J0D01*
G01*
X99900000Y-79500000D02*
G75*
G03X99900000Y-79500000I-900000J0D01*
G01*
X98528000Y-78295000D02*
X99472000Y-78295000D01*
X98056000Y-78435000D02*
X99944000Y-78435000D01*
X97767000Y-78575000D02*
X100233000Y-78575000D01*
X99440000Y-78715000D02*
X100452000Y-78715000D01*
X97548000Y-78715000D02*
X98560000Y-78715000D01*
X99628000Y-78855000D02*
X100631000Y-78855000D01*
X97369000Y-78855000D02*
X98372000Y-78855000D01*
X99745000Y-78995000D02*
X100780000Y-78995000D01*
X97220000Y-78995000D02*
X98255000Y-78995000D01*
X99823000Y-79135000D02*
X100908000Y-79135000D01*
X97092000Y-79135000D02*
X98177000Y-79135000D01*
X99871000Y-79275000D02*
X101019000Y-79275000D01*
X96981000Y-79275000D02*
X98129000Y-79275000D01*
X99896000Y-79415000D02*
X101114000Y-79415000D01*
X96886000Y-79415000D02*
X98104000Y-79415000D01*
X99898000Y-79555000D02*
X101196000Y-79555000D01*
X96804000Y-79555000D02*
X98102000Y-79555000D01*
X99879000Y-79695000D02*
X101266000Y-79695000D01*
X96734000Y-79695000D02*
X98121000Y-79695000D01*
X99835000Y-79835000D02*
X101327000Y-79835000D01*
X96673000Y-79835000D02*
X98165000Y-79835000D01*
X99764000Y-79975000D02*
X101377000Y-79975000D01*
X96623000Y-79975000D02*
X98236000Y-79975000D01*
X99657000Y-80115000D02*
X101418000Y-80115000D01*
X96582000Y-80115000D02*
X98343000Y-80115000D01*
X99490000Y-80255000D02*
X101451000Y-80255000D01*
X96549000Y-80255000D02*
X98510000Y-80255000D01*
X99095000Y-80395000D02*
X101475000Y-80395000D01*
X96525000Y-80395000D02*
X98905000Y-80395000D01*
X96509000Y-80535000D02*
X101491000Y-80535000D01*
X96501000Y-80675000D02*
X101499000Y-80675000D01*
G04 #@! TO.C,C2*
X120630000Y-63290000D02*
X120630000Y-66290000D01*
X118130000Y-66290000D02*
X118130000Y-63290000D01*
G04 #@! TO.C,J8*
X80642857Y-71214285D02*
X80595238Y-71166666D01*
X80547619Y-71023809D01*
X80547619Y-70928571D01*
X80595238Y-70785714D01*
X80690476Y-70690476D01*
X80785714Y-70642857D01*
X80976190Y-70595238D01*
X81119047Y-70595238D01*
X81309523Y-70642857D01*
X81404761Y-70690476D01*
X81500000Y-70785714D01*
X81547619Y-70928571D01*
X81547619Y-71023809D01*
X81500000Y-71166666D01*
X81452380Y-71214285D01*
X80547619Y-71785714D02*
X80595238Y-71690476D01*
X80642857Y-71642857D01*
X80738095Y-71595238D01*
X81023809Y-71595238D01*
X81119047Y-71642857D01*
X81166666Y-71690476D01*
X81214285Y-71785714D01*
X81214285Y-71928571D01*
X81166666Y-72023809D01*
X81119047Y-72071428D01*
X81023809Y-72119047D01*
X80738095Y-72119047D01*
X80642857Y-72071428D01*
X80595238Y-72023809D01*
X80547619Y-71928571D01*
X80547619Y-71785714D01*
X81214285Y-72547619D02*
X80547619Y-72547619D01*
X81119047Y-72547619D02*
X81166666Y-72595238D01*
X81214285Y-72690476D01*
X81214285Y-72833333D01*
X81166666Y-72928571D01*
X81071428Y-72976190D01*
X80547619Y-72976190D01*
X81214285Y-73452380D02*
X80547619Y-73452380D01*
X81119047Y-73452380D02*
X81166666Y-73500000D01*
X81214285Y-73595238D01*
X81214285Y-73738095D01*
X81166666Y-73833333D01*
X81071428Y-73880952D01*
X80547619Y-73880952D01*
X80452380Y-74119047D02*
X80452380Y-74880952D01*
X81547619Y-75309523D02*
X81547619Y-75404761D01*
X81500000Y-75500000D01*
X81452380Y-75547619D01*
X81357142Y-75595238D01*
X81166666Y-75642857D01*
X80928571Y-75642857D01*
X80738095Y-75595238D01*
X80642857Y-75547619D01*
X80595238Y-75500000D01*
X80547619Y-75404761D01*
X80547619Y-75309523D01*
X80595238Y-75214285D01*
X80642857Y-75166666D01*
X80738095Y-75119047D01*
X80928571Y-75071428D01*
X81166666Y-75071428D01*
X81357142Y-75119047D01*
X81452380Y-75166666D01*
X81500000Y-75214285D01*
X81547619Y-75309523D01*
X80547619Y-76595238D02*
X80547619Y-76023809D01*
X80547619Y-76309523D02*
X81547619Y-76309523D01*
X81404761Y-76214285D01*
X81309523Y-76119047D01*
X81261904Y-76023809D01*
X80547619Y-76928571D02*
X81214285Y-77452380D01*
X81214285Y-76928571D02*
X80547619Y-77452380D01*
X81547619Y-78023809D02*
X81547619Y-78119047D01*
X81500000Y-78214285D01*
X81452380Y-78261904D01*
X81357142Y-78309523D01*
X81166666Y-78357142D01*
X80928571Y-78357142D01*
X80738095Y-78309523D01*
X80642857Y-78261904D01*
X80595238Y-78214285D01*
X80547619Y-78119047D01*
X80547619Y-78023809D01*
X80595238Y-77928571D01*
X80642857Y-77880952D01*
X80738095Y-77833333D01*
X80928571Y-77785714D01*
X81166666Y-77785714D01*
X81357142Y-77833333D01*
X81452380Y-77880952D01*
X81500000Y-77928571D01*
X81547619Y-78023809D01*
X81452380Y-78738095D02*
X81500000Y-78785714D01*
X81547619Y-78880952D01*
X81547619Y-79119047D01*
X81500000Y-79214285D01*
X81452380Y-79261904D01*
X81357142Y-79309523D01*
X81261904Y-79309523D01*
X81119047Y-79261904D01*
X80547619Y-78690476D01*
X80547619Y-79309523D01*
X80452380Y-79500000D02*
X80452380Y-80261904D01*
X81071428Y-80833333D02*
X81071428Y-80500000D01*
X80547619Y-80500000D02*
X81547619Y-80500000D01*
X81547619Y-80976190D01*
X80595238Y-81738095D02*
X80547619Y-81642857D01*
X80547619Y-81452380D01*
X80595238Y-81357142D01*
X80690476Y-81309523D01*
X81071428Y-81309523D01*
X81166666Y-81357142D01*
X81214285Y-81452380D01*
X81214285Y-81642857D01*
X81166666Y-81738095D01*
X81071428Y-81785714D01*
X80976190Y-81785714D01*
X80880952Y-81309523D01*
X80547619Y-82214285D02*
X81214285Y-82214285D01*
X81119047Y-82214285D02*
X81166666Y-82261904D01*
X81214285Y-82357142D01*
X81214285Y-82500000D01*
X81166666Y-82595238D01*
X81071428Y-82642857D01*
X80547619Y-82642857D01*
X81071428Y-82642857D02*
X81166666Y-82690476D01*
X81214285Y-82785714D01*
X81214285Y-82928571D01*
X81166666Y-83023809D01*
X81071428Y-83071428D01*
X80547619Y-83071428D01*
X80547619Y-83976190D02*
X81071428Y-83976190D01*
X81166666Y-83928571D01*
X81214285Y-83833333D01*
X81214285Y-83642857D01*
X81166666Y-83547619D01*
X80595238Y-83976190D02*
X80547619Y-83880952D01*
X80547619Y-83642857D01*
X80595238Y-83547619D01*
X80690476Y-83500000D01*
X80785714Y-83500000D01*
X80880952Y-83547619D01*
X80928571Y-83642857D01*
X80928571Y-83880952D01*
X80976190Y-83976190D01*
X80547619Y-84595238D02*
X80595238Y-84500000D01*
X80690476Y-84452380D01*
X81547619Y-84452380D01*
X80595238Y-85357142D02*
X80547619Y-85261904D01*
X80547619Y-85071428D01*
X80595238Y-84976190D01*
X80690476Y-84928571D01*
X81071428Y-84928571D01*
X81166666Y-84976190D01*
X81214285Y-85071428D01*
X81214285Y-85261904D01*
X81166666Y-85357142D01*
X81071428Y-85404761D01*
X80976190Y-85404761D01*
X80880952Y-84928571D01*
G04 #@! TO.C,J14*
X129857142Y-74285714D02*
X129904761Y-74333333D01*
X129952380Y-74476190D01*
X129952380Y-74571428D01*
X129904761Y-74714285D01*
X129809523Y-74809523D01*
X129714285Y-74857142D01*
X129523809Y-74904761D01*
X129380952Y-74904761D01*
X129190476Y-74857142D01*
X129095238Y-74809523D01*
X129000000Y-74714285D01*
X128952380Y-74571428D01*
X128952380Y-74476190D01*
X129000000Y-74333333D01*
X129047619Y-74285714D01*
X129952380Y-73714285D02*
X129904761Y-73809523D01*
X129857142Y-73857142D01*
X129761904Y-73904761D01*
X129476190Y-73904761D01*
X129380952Y-73857142D01*
X129333333Y-73809523D01*
X129285714Y-73714285D01*
X129285714Y-73571428D01*
X129333333Y-73476190D01*
X129380952Y-73428571D01*
X129476190Y-73380952D01*
X129761904Y-73380952D01*
X129857142Y-73428571D01*
X129904761Y-73476190D01*
X129952380Y-73571428D01*
X129952380Y-73714285D01*
X129285714Y-72952380D02*
X129952380Y-72952380D01*
X129380952Y-72952380D02*
X129333333Y-72904761D01*
X129285714Y-72809523D01*
X129285714Y-72666666D01*
X129333333Y-72571428D01*
X129428571Y-72523809D01*
X129952380Y-72523809D01*
X129285714Y-72047619D02*
X129952380Y-72047619D01*
X129380952Y-72047619D02*
X129333333Y-72000000D01*
X129285714Y-71904761D01*
X129285714Y-71761904D01*
X129333333Y-71666666D01*
X129428571Y-71619047D01*
X129952380Y-71619047D01*
X130047619Y-71380952D02*
X130047619Y-70619047D01*
X128952380Y-70190476D02*
X128952380Y-70095238D01*
X129000000Y-70000000D01*
X129047619Y-69952380D01*
X129142857Y-69904761D01*
X129333333Y-69857142D01*
X129571428Y-69857142D01*
X129761904Y-69904761D01*
X129857142Y-69952380D01*
X129904761Y-70000000D01*
X129952380Y-70095238D01*
X129952380Y-70190476D01*
X129904761Y-70285714D01*
X129857142Y-70333333D01*
X129761904Y-70380952D01*
X129571428Y-70428571D01*
X129333333Y-70428571D01*
X129142857Y-70380952D01*
X129047619Y-70333333D01*
X129000000Y-70285714D01*
X128952380Y-70190476D01*
X129952380Y-68904761D02*
X129952380Y-69476190D01*
X129952380Y-69190476D02*
X128952380Y-69190476D01*
X129095238Y-69285714D01*
X129190476Y-69380952D01*
X129238095Y-69476190D01*
X129952380Y-68571428D02*
X129285714Y-68047619D01*
X129285714Y-68571428D02*
X129952380Y-68047619D01*
X128952380Y-67476190D02*
X128952380Y-67380952D01*
X129000000Y-67285714D01*
X129047619Y-67238095D01*
X129142857Y-67190476D01*
X129333333Y-67142857D01*
X129571428Y-67142857D01*
X129761904Y-67190476D01*
X129857142Y-67238095D01*
X129904761Y-67285714D01*
X129952380Y-67380952D01*
X129952380Y-67476190D01*
X129904761Y-67571428D01*
X129857142Y-67619047D01*
X129761904Y-67666666D01*
X129571428Y-67714285D01*
X129333333Y-67714285D01*
X129142857Y-67666666D01*
X129047619Y-67619047D01*
X129000000Y-67571428D01*
X128952380Y-67476190D01*
X128952380Y-66285714D02*
X128952380Y-66476190D01*
X129000000Y-66571428D01*
X129047619Y-66619047D01*
X129190476Y-66714285D01*
X129380952Y-66761904D01*
X129761904Y-66761904D01*
X129857142Y-66714285D01*
X129904761Y-66666666D01*
X129952380Y-66571428D01*
X129952380Y-66380952D01*
X129904761Y-66285714D01*
X129857142Y-66238095D01*
X129761904Y-66190476D01*
X129523809Y-66190476D01*
X129428571Y-66238095D01*
X129380952Y-66285714D01*
X129333333Y-66380952D01*
X129333333Y-66571428D01*
X129380952Y-66666666D01*
X129428571Y-66714285D01*
X129523809Y-66761904D01*
X130047619Y-66000000D02*
X130047619Y-65238095D01*
X129428571Y-64666666D02*
X129428571Y-65000000D01*
X129952380Y-65000000D02*
X128952380Y-65000000D01*
X128952380Y-64523809D01*
X129904761Y-63761904D02*
X129952380Y-63857142D01*
X129952380Y-64047619D01*
X129904761Y-64142857D01*
X129809523Y-64190476D01*
X129428571Y-64190476D01*
X129333333Y-64142857D01*
X129285714Y-64047619D01*
X129285714Y-63857142D01*
X129333333Y-63761904D01*
X129428571Y-63714285D01*
X129523809Y-63714285D01*
X129619047Y-64190476D01*
X129952380Y-63285714D02*
X129285714Y-63285714D01*
X129380952Y-63285714D02*
X129333333Y-63238095D01*
X129285714Y-63142857D01*
X129285714Y-63000000D01*
X129333333Y-62904761D01*
X129428571Y-62857142D01*
X129952380Y-62857142D01*
X129428571Y-62857142D02*
X129333333Y-62809523D01*
X129285714Y-62714285D01*
X129285714Y-62571428D01*
X129333333Y-62476190D01*
X129428571Y-62428571D01*
X129952380Y-62428571D01*
X129952380Y-61523809D02*
X129428571Y-61523809D01*
X129333333Y-61571428D01*
X129285714Y-61666666D01*
X129285714Y-61857142D01*
X129333333Y-61952380D01*
X129904761Y-61523809D02*
X129952380Y-61619047D01*
X129952380Y-61857142D01*
X129904761Y-61952380D01*
X129809523Y-62000000D01*
X129714285Y-62000000D01*
X129619047Y-61952380D01*
X129571428Y-61857142D01*
X129571428Y-61619047D01*
X129523809Y-61523809D01*
X129952380Y-60904761D02*
X129904761Y-61000000D01*
X129809523Y-61047619D01*
X128952380Y-61047619D01*
X129904761Y-60142857D02*
X129952380Y-60238095D01*
X129952380Y-60428571D01*
X129904761Y-60523809D01*
X129809523Y-60571428D01*
X129428571Y-60571428D01*
X129333333Y-60523809D01*
X129285714Y-60428571D01*
X129285714Y-60238095D01*
X129333333Y-60142857D01*
X129428571Y-60095238D01*
X129523809Y-60095238D01*
X129619047Y-60571428D01*
G04 #@! TO.C,J12*
X85595238Y-62952380D02*
X85595238Y-61952380D01*
X86261904Y-61952380D02*
X86452380Y-61952380D01*
X86547619Y-62000000D01*
X86642857Y-62095238D01*
X86690476Y-62285714D01*
X86690476Y-62619047D01*
X86642857Y-62809523D01*
X86547619Y-62904761D01*
X86452380Y-62952380D01*
X86261904Y-62952380D01*
X86166666Y-62904761D01*
X86071428Y-62809523D01*
X86023809Y-62619047D01*
X86023809Y-62285714D01*
X86071428Y-62095238D01*
X86166666Y-62000000D01*
X86261904Y-61952380D01*
X87690476Y-62952380D02*
X87357142Y-62476190D01*
X87119047Y-62952380D02*
X87119047Y-61952380D01*
X87500000Y-61952380D01*
X87595238Y-62000000D01*
X87642857Y-62047619D01*
X87690476Y-62142857D01*
X87690476Y-62285714D01*
X87642857Y-62380952D01*
X87595238Y-62428571D01*
X87500000Y-62476190D01*
X87119047Y-62476190D01*
X88119047Y-62428571D02*
X88452380Y-62428571D01*
X88595238Y-62952380D02*
X88119047Y-62952380D01*
X88119047Y-61952380D01*
X88595238Y-61952380D01*
X89357142Y-62428571D02*
X89023809Y-62428571D01*
X89023809Y-62952380D02*
X89023809Y-61952380D01*
X89500000Y-61952380D01*
G04 #@! TO.C,J11*
X85333333Y-86761904D02*
X85333333Y-87238095D01*
X85047619Y-86666666D02*
X86047619Y-87000000D01*
X85047619Y-87333333D01*
X86047619Y-87857142D02*
X86047619Y-87952380D01*
X86000000Y-88047619D01*
X85952380Y-88095238D01*
X85857142Y-88142857D01*
X85666666Y-88190476D01*
X85428571Y-88190476D01*
X85238095Y-88142857D01*
X85142857Y-88095238D01*
X85095238Y-88047619D01*
X85047619Y-87952380D01*
X85047619Y-87857142D01*
X85095238Y-87761904D01*
X85142857Y-87714285D01*
X85238095Y-87666666D01*
X85428571Y-87619047D01*
X85666666Y-87619047D01*
X85857142Y-87666666D01*
X85952380Y-87714285D01*
X86000000Y-87761904D01*
X86047619Y-87857142D01*
X85428571Y-88619047D02*
X85428571Y-89380952D01*
X85333333Y-89809523D02*
X85333333Y-90285714D01*
X85047619Y-89714285D02*
X86047619Y-90047619D01*
X85047619Y-90380952D01*
X86047619Y-91190476D02*
X86047619Y-90714285D01*
X85571428Y-90666666D01*
X85619047Y-90714285D01*
X85666666Y-90809523D01*
X85666666Y-91047619D01*
X85619047Y-91142857D01*
X85571428Y-91190476D01*
X85476190Y-91238095D01*
X85238095Y-91238095D01*
X85142857Y-91190476D01*
X85095238Y-91142857D01*
X85047619Y-91047619D01*
X85047619Y-90809523D01*
X85095238Y-90714285D01*
X85142857Y-90666666D01*
G04 #@! TO.C,J6*
X129952380Y-92404761D02*
X128952380Y-92404761D01*
X128952380Y-92166666D01*
X129000000Y-92023809D01*
X129095238Y-91928571D01*
X129190476Y-91880952D01*
X129380952Y-91833333D01*
X129523809Y-91833333D01*
X129714285Y-91880952D01*
X129809523Y-91928571D01*
X129904761Y-92023809D01*
X129952380Y-92166666D01*
X129952380Y-92404761D01*
X129952380Y-91404761D02*
X128952380Y-91404761D01*
X129000000Y-90404761D02*
X128952380Y-90500000D01*
X128952380Y-90642857D01*
X129000000Y-90785714D01*
X129095238Y-90880952D01*
X129190476Y-90928571D01*
X129380952Y-90976190D01*
X129523809Y-90976190D01*
X129714285Y-90928571D01*
X129809523Y-90880952D01*
X129904761Y-90785714D01*
X129952380Y-90642857D01*
X129952380Y-90547619D01*
X129904761Y-90404761D01*
X129857142Y-90357142D01*
X129523809Y-90357142D01*
X129523809Y-90547619D01*
X129952380Y-89928571D02*
X128952380Y-89928571D01*
X128952380Y-89595238D02*
X128952380Y-89023809D01*
X129952380Y-89309523D02*
X128952380Y-89309523D01*
X129666666Y-88738095D02*
X129666666Y-88261904D01*
X129952380Y-88833333D02*
X128952380Y-88500000D01*
X129952380Y-88166666D01*
X129952380Y-87357142D02*
X129952380Y-87833333D01*
X128952380Y-87833333D01*
X129952380Y-86261904D02*
X128952380Y-86261904D01*
X128952380Y-86023809D01*
X129000000Y-85880952D01*
X129095238Y-85785714D01*
X129190476Y-85738095D01*
X129380952Y-85690476D01*
X129523809Y-85690476D01*
X129714285Y-85738095D01*
X129809523Y-85785714D01*
X129904761Y-85880952D01*
X129952380Y-86023809D01*
X129952380Y-86261904D01*
X128952380Y-85071428D02*
X128952380Y-84976190D01*
X129000000Y-84880952D01*
X129047619Y-84833333D01*
X129142857Y-84785714D01*
X129333333Y-84738095D01*
X129571428Y-84738095D01*
X129761904Y-84785714D01*
X129857142Y-84833333D01*
X129904761Y-84880952D01*
X129952380Y-84976190D01*
X129952380Y-85071428D01*
X129904761Y-85166666D01*
X129857142Y-85214285D01*
X129761904Y-85261904D01*
X129571428Y-85309523D01*
X129333333Y-85309523D01*
X129142857Y-85261904D01*
X129047619Y-85214285D01*
X129000000Y-85166666D01*
X128952380Y-85071428D01*
X129571428Y-84309523D02*
X129571428Y-83547619D01*
X129952380Y-83071428D02*
X128952380Y-83071428D01*
X128952380Y-82833333D01*
X129000000Y-82690476D01*
X129095238Y-82595238D01*
X129190476Y-82547619D01*
X129380952Y-82500000D01*
X129523809Y-82500000D01*
X129714285Y-82547619D01*
X129809523Y-82595238D01*
X129904761Y-82690476D01*
X129952380Y-82833333D01*
X129952380Y-83071428D01*
X128952380Y-82166666D02*
X128952380Y-81500000D01*
X129952380Y-81928571D01*
G04 #@! TO.C,A1*
X120595238Y-34666666D02*
X121071428Y-34666666D01*
X120500000Y-34952380D02*
X120833333Y-33952380D01*
X121166666Y-34952380D01*
X121500000Y-34952380D02*
X121500000Y-34285714D01*
X121500000Y-34476190D02*
X121547619Y-34380952D01*
X121595238Y-34333333D01*
X121690476Y-34285714D01*
X121785714Y-34285714D01*
X122547619Y-34952380D02*
X122547619Y-33952380D01*
X122547619Y-34904761D02*
X122452380Y-34952380D01*
X122261904Y-34952380D01*
X122166666Y-34904761D01*
X122119047Y-34857142D01*
X122071428Y-34761904D01*
X122071428Y-34476190D01*
X122119047Y-34380952D01*
X122166666Y-34333333D01*
X122261904Y-34285714D01*
X122452380Y-34285714D01*
X122547619Y-34333333D01*
X123452380Y-34285714D02*
X123452380Y-34952380D01*
X123023809Y-34285714D02*
X123023809Y-34809523D01*
X123071428Y-34904761D01*
X123166666Y-34952380D01*
X123309523Y-34952380D01*
X123404761Y-34904761D01*
X123452380Y-34857142D01*
X123928571Y-34952380D02*
X123928571Y-34285714D01*
X123928571Y-33952380D02*
X123880952Y-34000000D01*
X123928571Y-34047619D01*
X123976190Y-34000000D01*
X123928571Y-33952380D01*
X123928571Y-34047619D01*
X124404761Y-34285714D02*
X124404761Y-34952380D01*
X124404761Y-34380952D02*
X124452380Y-34333333D01*
X124547619Y-34285714D01*
X124690476Y-34285714D01*
X124785714Y-34333333D01*
X124833333Y-34428571D01*
X124833333Y-34952380D01*
X125452380Y-34952380D02*
X125357142Y-34904761D01*
X125309523Y-34857142D01*
X125261904Y-34761904D01*
X125261904Y-34476190D01*
X125309523Y-34380952D01*
X125357142Y-34333333D01*
X125452380Y-34285714D01*
X125595238Y-34285714D01*
X125690476Y-34333333D01*
X125738095Y-34380952D01*
X125785714Y-34476190D01*
X125785714Y-34761904D01*
X125738095Y-34857142D01*
X125690476Y-34904761D01*
X125595238Y-34952380D01*
X125452380Y-34952380D01*
X125976190Y-35047619D02*
X126738095Y-35047619D01*
X126976190Y-33952380D02*
X126976190Y-34761904D01*
X127023809Y-34857142D01*
X127071428Y-34904761D01*
X127166666Y-34952380D01*
X127357142Y-34952380D01*
X127452380Y-34904761D01*
X127500000Y-34857142D01*
X127547619Y-34761904D01*
X127547619Y-33952380D01*
X128023809Y-34952380D02*
X128023809Y-33952380D01*
X128595238Y-34952380D01*
X128595238Y-33952380D01*
X129261904Y-33952380D02*
X129452380Y-33952380D01*
X129547619Y-34000000D01*
X129642857Y-34095238D01*
X129690476Y-34285714D01*
X129690476Y-34619047D01*
X129642857Y-34809523D01*
X129547619Y-34904761D01*
X129452380Y-34952380D01*
X129261904Y-34952380D01*
X129166666Y-34904761D01*
X129071428Y-34809523D01*
X129023809Y-34619047D01*
X129023809Y-34285714D01*
X129071428Y-34095238D01*
X129166666Y-34000000D01*
X129261904Y-33952380D01*
X129880952Y-35047619D02*
X130642857Y-35047619D01*
X131452380Y-34952380D02*
X131119047Y-34476190D01*
X130880952Y-34952380D02*
X130880952Y-33952380D01*
X131261904Y-33952380D01*
X131357142Y-34000000D01*
X131404761Y-34047619D01*
X131452380Y-34142857D01*
X131452380Y-34285714D01*
X131404761Y-34380952D01*
X131357142Y-34428571D01*
X131261904Y-34476190D01*
X130880952Y-34476190D01*
X131785714Y-33952380D02*
X132404761Y-33952380D01*
X132071428Y-34333333D01*
X132214285Y-34333333D01*
X132309523Y-34380952D01*
X132357142Y-34428571D01*
X132404761Y-34523809D01*
X132404761Y-34761904D01*
X132357142Y-34857142D01*
X132309523Y-34904761D01*
X132214285Y-34952380D01*
X131928571Y-34952380D01*
X131833333Y-34904761D01*
X131785714Y-34857142D01*
G04 #@! TO.C,C1*
X91333333Y-61857142D02*
X91285714Y-61904761D01*
X91142857Y-61952380D01*
X91047619Y-61952380D01*
X90904761Y-61904761D01*
X90809523Y-61809523D01*
X90761904Y-61714285D01*
X90714285Y-61523809D01*
X90714285Y-61380952D01*
X90761904Y-61190476D01*
X90809523Y-61095238D01*
X90904761Y-61000000D01*
X91047619Y-60952380D01*
X91142857Y-60952380D01*
X91285714Y-61000000D01*
X91333333Y-61047619D01*
X92285714Y-61952380D02*
X91714285Y-61952380D01*
X92000000Y-61952380D02*
X92000000Y-60952380D01*
X91904761Y-61095238D01*
X91809523Y-61190476D01*
X91714285Y-61238095D01*
X90452380Y-68952380D02*
X89880952Y-68952380D01*
X90166666Y-68952380D02*
X90166666Y-67952380D01*
X90071428Y-68095238D01*
X89976190Y-68190476D01*
X89880952Y-68238095D01*
X91071428Y-67952380D02*
X91166666Y-67952380D01*
X91261904Y-68000000D01*
X91309523Y-68047619D01*
X91357142Y-68142857D01*
X91404761Y-68333333D01*
X91404761Y-68571428D01*
X91357142Y-68761904D01*
X91309523Y-68857142D01*
X91261904Y-68904761D01*
X91166666Y-68952380D01*
X91071428Y-68952380D01*
X90976190Y-68904761D01*
X90928571Y-68857142D01*
X90880952Y-68761904D01*
X90833333Y-68571428D01*
X90833333Y-68333333D01*
X90880952Y-68142857D01*
X90928571Y-68047619D01*
X90976190Y-68000000D01*
X91071428Y-67952380D01*
X92023809Y-67952380D02*
X92119047Y-67952380D01*
X92214285Y-68000000D01*
X92261904Y-68047619D01*
X92309523Y-68142857D01*
X92357142Y-68333333D01*
X92357142Y-68571428D01*
X92309523Y-68761904D01*
X92261904Y-68857142D01*
X92214285Y-68904761D01*
X92119047Y-68952380D01*
X92023809Y-68952380D01*
X91928571Y-68904761D01*
X91880952Y-68857142D01*
X91833333Y-68761904D01*
X91785714Y-68571428D01*
X91785714Y-68333333D01*
X91833333Y-68142857D01*
X91880952Y-68047619D01*
X91928571Y-68000000D01*
X92023809Y-67952380D01*
X92785714Y-68285714D02*
X92785714Y-68952380D01*
X92785714Y-68380952D02*
X92833333Y-68333333D01*
X92928571Y-68285714D01*
X93071428Y-68285714D01*
X93166666Y-68333333D01*
X93214285Y-68428571D01*
X93214285Y-68952380D01*
X94023809Y-68428571D02*
X93690476Y-68428571D01*
X93690476Y-68952380D02*
X93690476Y-67952380D01*
X94166666Y-67952380D01*
G04 #@! TO.C,R5*
X96952380Y-68417746D02*
X96476190Y-68751080D01*
X96952380Y-68989175D02*
X95952380Y-68989175D01*
X95952380Y-68608222D01*
X96000000Y-68512984D01*
X96047619Y-68465365D01*
X96142857Y-68417746D01*
X96285714Y-68417746D01*
X96380952Y-68465365D01*
X96428571Y-68512984D01*
X96476190Y-68608222D01*
X96476190Y-68989175D01*
X95952380Y-67512984D02*
X95952380Y-67989175D01*
X96428571Y-68036794D01*
X96380952Y-67989175D01*
X96333333Y-67893937D01*
X96333333Y-67655841D01*
X96380952Y-67560603D01*
X96428571Y-67512984D01*
X96523809Y-67465365D01*
X96761904Y-67465365D01*
X96857142Y-67512984D01*
X96904761Y-67560603D01*
X96952380Y-67655841D01*
X96952380Y-67893937D01*
X96904761Y-67989175D01*
X96857142Y-68036794D01*
X98880952Y-69476190D02*
X98833333Y-69571428D01*
X98785714Y-69619047D01*
X98690476Y-69666666D01*
X98642857Y-69666666D01*
X98547619Y-69619047D01*
X98500000Y-69571428D01*
X98452380Y-69476190D01*
X98452380Y-69285714D01*
X98500000Y-69190476D01*
X98547619Y-69142857D01*
X98642857Y-69095238D01*
X98690476Y-69095238D01*
X98785714Y-69142857D01*
X98833333Y-69190476D01*
X98880952Y-69285714D01*
X98880952Y-69476190D01*
X98928571Y-69571428D01*
X98976190Y-69619047D01*
X99071428Y-69666666D01*
X99261904Y-69666666D01*
X99357142Y-69619047D01*
X99404761Y-69571428D01*
X99452380Y-69476190D01*
X99452380Y-69285714D01*
X99404761Y-69190476D01*
X99357142Y-69142857D01*
X99261904Y-69095238D01*
X99071428Y-69095238D01*
X98976190Y-69142857D01*
X98928571Y-69190476D01*
X98880952Y-69285714D01*
X98547619Y-68714285D02*
X98500000Y-68666666D01*
X98452380Y-68571428D01*
X98452380Y-68333333D01*
X98500000Y-68238095D01*
X98547619Y-68190476D01*
X98642857Y-68142857D01*
X98738095Y-68142857D01*
X98880952Y-68190476D01*
X99452380Y-68761904D01*
X99452380Y-68142857D01*
X99452380Y-67714285D02*
X98452380Y-67714285D01*
X99071428Y-67619047D02*
X99452380Y-67333333D01*
X98785714Y-67333333D02*
X99166666Y-67714285D01*
G04 #@! TO.C,U1*
X107309523Y-47952380D02*
X106833333Y-47952380D01*
X106833333Y-46952380D01*
X107642857Y-47952380D02*
X107642857Y-46952380D01*
X107976190Y-47666666D01*
X108309523Y-46952380D01*
X108309523Y-47952380D01*
X108690476Y-46952380D02*
X109309523Y-46952380D01*
X108976190Y-47333333D01*
X109119047Y-47333333D01*
X109214285Y-47380952D01*
X109261904Y-47428571D01*
X109309523Y-47523809D01*
X109309523Y-47761904D01*
X109261904Y-47857142D01*
X109214285Y-47904761D01*
X109119047Y-47952380D01*
X108833333Y-47952380D01*
X108738095Y-47904761D01*
X108690476Y-47857142D01*
X109690476Y-47047619D02*
X109738095Y-47000000D01*
X109833333Y-46952380D01*
X110071428Y-46952380D01*
X110166666Y-47000000D01*
X110214285Y-47047619D01*
X110261904Y-47142857D01*
X110261904Y-47238095D01*
X110214285Y-47380952D01*
X109642857Y-47952380D01*
X110261904Y-47952380D01*
X111119047Y-47285714D02*
X111119047Y-47952380D01*
X110880952Y-46904761D02*
X110642857Y-47619047D01*
X111261904Y-47619047D01*
G04 #@! TO.C,RV1*
X114744761Y-86558380D02*
X114173333Y-86558380D01*
X114459047Y-86558380D02*
X114459047Y-85558380D01*
X114363809Y-85701238D01*
X114268571Y-85796476D01*
X114173333Y-85844095D01*
X115173333Y-86558380D02*
X115173333Y-85558380D01*
X115268571Y-86177428D02*
X115554285Y-86558380D01*
X115554285Y-85891714D02*
X115173333Y-86272666D01*
X115982857Y-86177428D02*
X116744761Y-86177428D01*
X117744761Y-86558380D02*
X117173333Y-86558380D01*
X117459047Y-86558380D02*
X117459047Y-85558380D01*
X117363809Y-85701238D01*
X117268571Y-85796476D01*
X117173333Y-85844095D01*
X118363809Y-85558380D02*
X118459047Y-85558380D01*
X118554285Y-85606000D01*
X118601904Y-85653619D01*
X118649523Y-85748857D01*
X118697142Y-85939333D01*
X118697142Y-86177428D01*
X118649523Y-86367904D01*
X118601904Y-86463142D01*
X118554285Y-86510761D01*
X118459047Y-86558380D01*
X118363809Y-86558380D01*
X118268571Y-86510761D01*
X118220952Y-86463142D01*
X118173333Y-86367904D01*
X118125714Y-86177428D01*
X118125714Y-85939333D01*
X118173333Y-85748857D01*
X118220952Y-85653619D01*
X118268571Y-85606000D01*
X118363809Y-85558380D01*
X119125714Y-86558380D02*
X119125714Y-85558380D01*
X119220952Y-86177428D02*
X119506666Y-86558380D01*
X119506666Y-85891714D02*
X119125714Y-86272666D01*
G04 #@! TO.C,R6*
X106452380Y-94166666D02*
X105976190Y-94500000D01*
X106452380Y-94738095D02*
X105452380Y-94738095D01*
X105452380Y-94357142D01*
X105500000Y-94261904D01*
X105547619Y-94214285D01*
X105642857Y-94166666D01*
X105785714Y-94166666D01*
X105880952Y-94214285D01*
X105928571Y-94261904D01*
X105976190Y-94357142D01*
X105976190Y-94738095D01*
X105452380Y-93309523D02*
X105452380Y-93500000D01*
X105500000Y-93595238D01*
X105547619Y-93642857D01*
X105690476Y-93738095D01*
X105880952Y-93785714D01*
X106261904Y-93785714D01*
X106357142Y-93738095D01*
X106404761Y-93690476D01*
X106452380Y-93595238D01*
X106452380Y-93404761D01*
X106404761Y-93309523D01*
X106357142Y-93261904D01*
X106261904Y-93214285D01*
X106023809Y-93214285D01*
X105928571Y-93261904D01*
X105880952Y-93309523D01*
X105833333Y-93404761D01*
X105833333Y-93595238D01*
X105880952Y-93690476D01*
X105928571Y-93738095D01*
X106023809Y-93785714D01*
X109452380Y-94690476D02*
X109452380Y-95261904D01*
X109452380Y-94976190D02*
X108452380Y-94976190D01*
X108595238Y-95071428D01*
X108690476Y-95166666D01*
X108738095Y-95261904D01*
X108452380Y-94071428D02*
X108452380Y-93976190D01*
X108500000Y-93880952D01*
X108547619Y-93833333D01*
X108642857Y-93785714D01*
X108833333Y-93738095D01*
X109071428Y-93738095D01*
X109261904Y-93785714D01*
X109357142Y-93833333D01*
X109404761Y-93880952D01*
X109452380Y-93976190D01*
X109452380Y-94071428D01*
X109404761Y-94166666D01*
X109357142Y-94214285D01*
X109261904Y-94261904D01*
X109071428Y-94309523D01*
X108833333Y-94309523D01*
X108642857Y-94261904D01*
X108547619Y-94214285D01*
X108500000Y-94166666D01*
X108452380Y-94071428D01*
X109452380Y-93309523D02*
X108452380Y-93309523D01*
X109452380Y-92738095D02*
X108880952Y-93166666D01*
X108452380Y-92738095D02*
X109023809Y-93309523D01*
G04 #@! TO.C,R4*
X91952380Y-40166666D02*
X91476190Y-40500000D01*
X91952380Y-40738095D02*
X90952380Y-40738095D01*
X90952380Y-40357142D01*
X91000000Y-40261904D01*
X91047619Y-40214285D01*
X91142857Y-40166666D01*
X91285714Y-40166666D01*
X91380952Y-40214285D01*
X91428571Y-40261904D01*
X91476190Y-40357142D01*
X91476190Y-40738095D01*
X91285714Y-39309523D02*
X91952380Y-39309523D01*
X90904761Y-39547619D02*
X91619047Y-39785714D01*
X91619047Y-39166666D01*
X94452380Y-41166666D02*
X94452380Y-41738095D01*
X94452380Y-41452380D02*
X93452380Y-41452380D01*
X93595238Y-41547619D01*
X93690476Y-41642857D01*
X93738095Y-41738095D01*
X93452380Y-40547619D02*
X93452380Y-40452380D01*
X93500000Y-40357142D01*
X93547619Y-40309523D01*
X93642857Y-40261904D01*
X93833333Y-40214285D01*
X94071428Y-40214285D01*
X94261904Y-40261904D01*
X94357142Y-40309523D01*
X94404761Y-40357142D01*
X94452380Y-40452380D01*
X94452380Y-40547619D01*
X94404761Y-40642857D01*
X94357142Y-40690476D01*
X94261904Y-40738095D01*
X94071428Y-40785714D01*
X93833333Y-40785714D01*
X93642857Y-40738095D01*
X93547619Y-40690476D01*
X93500000Y-40642857D01*
X93452380Y-40547619D01*
X93452380Y-39595238D02*
X93452380Y-39500000D01*
X93500000Y-39404761D01*
X93547619Y-39357142D01*
X93642857Y-39309523D01*
X93833333Y-39261904D01*
X94071428Y-39261904D01*
X94261904Y-39309523D01*
X94357142Y-39357142D01*
X94404761Y-39404761D01*
X94452380Y-39500000D01*
X94452380Y-39595238D01*
X94404761Y-39690476D01*
X94357142Y-39738095D01*
X94261904Y-39785714D01*
X94071428Y-39833333D01*
X93833333Y-39833333D01*
X93642857Y-39785714D01*
X93547619Y-39738095D01*
X93500000Y-39690476D01*
X93452380Y-39595238D01*
X94452380Y-38833333D02*
X93452380Y-38833333D01*
X94452380Y-38261904D02*
X93880952Y-38690476D01*
X93452380Y-38261904D02*
X94023809Y-38833333D01*
G04 #@! TO.C,R3*
X84452380Y-40167746D02*
X83976190Y-40501080D01*
X84452380Y-40739175D02*
X83452380Y-40739175D01*
X83452380Y-40358222D01*
X83500000Y-40262984D01*
X83547619Y-40215365D01*
X83642857Y-40167746D01*
X83785714Y-40167746D01*
X83880952Y-40215365D01*
X83928571Y-40262984D01*
X83976190Y-40358222D01*
X83976190Y-40739175D01*
X83452380Y-39834413D02*
X83452380Y-39215365D01*
X83833333Y-39548699D01*
X83833333Y-39405841D01*
X83880952Y-39310603D01*
X83928571Y-39262984D01*
X84023809Y-39215365D01*
X84261904Y-39215365D01*
X84357142Y-39262984D01*
X84404761Y-39310603D01*
X84452380Y-39405841D01*
X84452380Y-39691556D01*
X84404761Y-39786794D01*
X84357142Y-39834413D01*
X86952380Y-41166666D02*
X86952380Y-41738095D01*
X86952380Y-41452380D02*
X85952380Y-41452380D01*
X86095238Y-41547619D01*
X86190476Y-41642857D01*
X86238095Y-41738095D01*
X85952380Y-40547619D02*
X85952380Y-40452380D01*
X86000000Y-40357142D01*
X86047619Y-40309523D01*
X86142857Y-40261904D01*
X86333333Y-40214285D01*
X86571428Y-40214285D01*
X86761904Y-40261904D01*
X86857142Y-40309523D01*
X86904761Y-40357142D01*
X86952380Y-40452380D01*
X86952380Y-40547619D01*
X86904761Y-40642857D01*
X86857142Y-40690476D01*
X86761904Y-40738095D01*
X86571428Y-40785714D01*
X86333333Y-40785714D01*
X86142857Y-40738095D01*
X86047619Y-40690476D01*
X86000000Y-40642857D01*
X85952380Y-40547619D01*
X85952380Y-39595238D02*
X85952380Y-39500000D01*
X86000000Y-39404761D01*
X86047619Y-39357142D01*
X86142857Y-39309523D01*
X86333333Y-39261904D01*
X86571428Y-39261904D01*
X86761904Y-39309523D01*
X86857142Y-39357142D01*
X86904761Y-39404761D01*
X86952380Y-39500000D01*
X86952380Y-39595238D01*
X86904761Y-39690476D01*
X86857142Y-39738095D01*
X86761904Y-39785714D01*
X86571428Y-39833333D01*
X86333333Y-39833333D01*
X86142857Y-39785714D01*
X86047619Y-39738095D01*
X86000000Y-39690476D01*
X85952380Y-39595238D01*
X86952380Y-38833333D02*
X85952380Y-38833333D01*
X86952380Y-38261904D02*
X86380952Y-38690476D01*
X85952380Y-38261904D02*
X86523809Y-38833333D01*
G04 #@! TO.C,R2*
X98952380Y-94166666D02*
X98476190Y-94500000D01*
X98952380Y-94738095D02*
X97952380Y-94738095D01*
X97952380Y-94357142D01*
X98000000Y-94261904D01*
X98047619Y-94214285D01*
X98142857Y-94166666D01*
X98285714Y-94166666D01*
X98380952Y-94214285D01*
X98428571Y-94261904D01*
X98476190Y-94357142D01*
X98476190Y-94738095D01*
X98047619Y-93785714D02*
X98000000Y-93738095D01*
X97952380Y-93642857D01*
X97952380Y-93404761D01*
X98000000Y-93309523D01*
X98047619Y-93261904D01*
X98142857Y-93214285D01*
X98238095Y-93214285D01*
X98380952Y-93261904D01*
X98952380Y-93833333D01*
X98952380Y-93214285D01*
X100547619Y-95238095D02*
X100500000Y-95190476D01*
X100452380Y-95095238D01*
X100452380Y-94857142D01*
X100500000Y-94761904D01*
X100547619Y-94714285D01*
X100642857Y-94666666D01*
X100738095Y-94666666D01*
X100880952Y-94714285D01*
X101452380Y-95285714D01*
X101452380Y-94666666D01*
X100547619Y-94285714D02*
X100500000Y-94238095D01*
X100452380Y-94142857D01*
X100452380Y-93904761D01*
X100500000Y-93809523D01*
X100547619Y-93761904D01*
X100642857Y-93714285D01*
X100738095Y-93714285D01*
X100880952Y-93761904D01*
X101452380Y-94333333D01*
X101452380Y-93714285D01*
X100452380Y-93095238D02*
X100452380Y-93000000D01*
X100500000Y-92904761D01*
X100547619Y-92857142D01*
X100642857Y-92809523D01*
X100833333Y-92761904D01*
X101071428Y-92761904D01*
X101261904Y-92809523D01*
X101357142Y-92857142D01*
X101404761Y-92904761D01*
X101452380Y-93000000D01*
X101452380Y-93095238D01*
X101404761Y-93190476D01*
X101357142Y-93238095D01*
X101261904Y-93285714D01*
X101071428Y-93333333D01*
X100833333Y-93333333D01*
X100642857Y-93285714D01*
X100547619Y-93238095D01*
X100500000Y-93190476D01*
X100452380Y-93095238D01*
G04 #@! TO.C,R1*
X91952380Y-94166666D02*
X91476190Y-94500000D01*
X91952380Y-94738095D02*
X90952380Y-94738095D01*
X90952380Y-94357142D01*
X91000000Y-94261904D01*
X91047619Y-94214285D01*
X91142857Y-94166666D01*
X91285714Y-94166666D01*
X91380952Y-94214285D01*
X91428571Y-94261904D01*
X91476190Y-94357142D01*
X91476190Y-94738095D01*
X91952380Y-93214285D02*
X91952380Y-93785714D01*
X91952380Y-93500000D02*
X90952380Y-93500000D01*
X91095238Y-93595238D01*
X91190476Y-93690476D01*
X91238095Y-93785714D01*
X94952380Y-94595238D02*
X94952380Y-95166666D01*
X94952380Y-94880952D02*
X93952380Y-94880952D01*
X94095238Y-94976190D01*
X94190476Y-95071428D01*
X94238095Y-95166666D01*
X93952380Y-93976190D02*
X93952380Y-93880952D01*
X94000000Y-93785714D01*
X94047619Y-93738095D01*
X94142857Y-93690476D01*
X94333333Y-93642857D01*
X94571428Y-93642857D01*
X94761904Y-93690476D01*
X94857142Y-93738095D01*
X94904761Y-93785714D01*
X94952380Y-93880952D01*
X94952380Y-93976190D01*
X94904761Y-94071428D01*
X94857142Y-94119047D01*
X94761904Y-94166666D01*
X94571428Y-94214285D01*
X94333333Y-94214285D01*
X94142857Y-94166666D01*
X94047619Y-94119047D01*
X94000000Y-94071428D01*
X93952380Y-93976190D01*
X94952380Y-93214285D02*
X93952380Y-93214285D01*
X94571428Y-93119047D02*
X94952380Y-92833333D01*
X94285714Y-92833333D02*
X94666666Y-93214285D01*
G04 #@! TO.C,J4*
X81964761Y-110452380D02*
X82155238Y-110452380D01*
X82250476Y-110500000D01*
X82345714Y-110595238D01*
X82393333Y-110785714D01*
X82393333Y-111119047D01*
X82345714Y-111309523D01*
X82250476Y-111404761D01*
X82155238Y-111452380D01*
X81964761Y-111452380D01*
X81869523Y-111404761D01*
X81774285Y-111309523D01*
X81726666Y-111119047D01*
X81726666Y-110785714D01*
X81774285Y-110595238D01*
X81869523Y-110500000D01*
X81964761Y-110452380D01*
X83298095Y-111452380D02*
X82821904Y-111452380D01*
X82821904Y-110452380D01*
X83631428Y-110928571D02*
X83964761Y-110928571D01*
X84107619Y-111452380D02*
X83631428Y-111452380D01*
X83631428Y-110452380D01*
X84107619Y-110452380D01*
X84536190Y-111452380D02*
X84536190Y-110452380D01*
X84774285Y-110452380D01*
X84917142Y-110500000D01*
X85012380Y-110595238D01*
X85060000Y-110690476D01*
X85107619Y-110880952D01*
X85107619Y-111023809D01*
X85060000Y-111214285D01*
X85012380Y-111309523D01*
X84917142Y-111404761D01*
X84774285Y-111452380D01*
X84536190Y-111452380D01*
X86298095Y-111452380D02*
X86298095Y-110452380D01*
X86631428Y-111166666D01*
X86964761Y-110452380D01*
X86964761Y-111452380D01*
X87583809Y-111452380D02*
X87488571Y-111404761D01*
X87440952Y-111357142D01*
X87393333Y-111261904D01*
X87393333Y-110976190D01*
X87440952Y-110880952D01*
X87488571Y-110833333D01*
X87583809Y-110785714D01*
X87726666Y-110785714D01*
X87821904Y-110833333D01*
X87869523Y-110880952D01*
X87917142Y-110976190D01*
X87917142Y-111261904D01*
X87869523Y-111357142D01*
X87821904Y-111404761D01*
X87726666Y-111452380D01*
X87583809Y-111452380D01*
X88345714Y-110785714D02*
X88345714Y-111452380D01*
X88345714Y-110880952D02*
X88393333Y-110833333D01*
X88488571Y-110785714D01*
X88631428Y-110785714D01*
X88726666Y-110833333D01*
X88774285Y-110928571D01*
X88774285Y-111452380D01*
X89250476Y-111452380D02*
X89250476Y-110785714D01*
X89250476Y-110452380D02*
X89202857Y-110500000D01*
X89250476Y-110547619D01*
X89298095Y-110500000D01*
X89250476Y-110452380D01*
X89250476Y-110547619D01*
X89583809Y-110785714D02*
X89964761Y-110785714D01*
X89726666Y-110452380D02*
X89726666Y-111309523D01*
X89774285Y-111404761D01*
X89869523Y-111452380D01*
X89964761Y-111452380D01*
X90440952Y-111452380D02*
X90345714Y-111404761D01*
X90298095Y-111357142D01*
X90250476Y-111261904D01*
X90250476Y-110976190D01*
X90298095Y-110880952D01*
X90345714Y-110833333D01*
X90440952Y-110785714D01*
X90583809Y-110785714D01*
X90679047Y-110833333D01*
X90726666Y-110880952D01*
X90774285Y-110976190D01*
X90774285Y-111261904D01*
X90726666Y-111357142D01*
X90679047Y-111404761D01*
X90583809Y-111452380D01*
X90440952Y-111452380D01*
X91202857Y-111452380D02*
X91202857Y-110785714D01*
X91202857Y-110976190D02*
X91250476Y-110880952D01*
X91298095Y-110833333D01*
X91393333Y-110785714D01*
X91488571Y-110785714D01*
G04 #@! TO.C,J3*
X129285714Y-111452380D02*
X128952380Y-110976190D01*
X128714285Y-111452380D02*
X128714285Y-110452380D01*
X129095238Y-110452380D01*
X129190476Y-110500000D01*
X129238095Y-110547619D01*
X129285714Y-110642857D01*
X129285714Y-110785714D01*
X129238095Y-110880952D01*
X129190476Y-110928571D01*
X129095238Y-110976190D01*
X128714285Y-110976190D01*
X130095238Y-111404761D02*
X130000000Y-111452380D01*
X129809523Y-111452380D01*
X129714285Y-111404761D01*
X129666666Y-111309523D01*
X129666666Y-110928571D01*
X129714285Y-110833333D01*
X129809523Y-110785714D01*
X130000000Y-110785714D01*
X130095238Y-110833333D01*
X130142857Y-110928571D01*
X130142857Y-111023809D01*
X129666666Y-111119047D01*
X130714285Y-111452380D02*
X130619047Y-111404761D01*
X130571428Y-111309523D01*
X130571428Y-110452380D01*
X131523809Y-111452380D02*
X131523809Y-110928571D01*
X131476190Y-110833333D01*
X131380952Y-110785714D01*
X131190476Y-110785714D01*
X131095238Y-110833333D01*
X131523809Y-111404761D02*
X131428571Y-111452380D01*
X131190476Y-111452380D01*
X131095238Y-111404761D01*
X131047619Y-111309523D01*
X131047619Y-111214285D01*
X131095238Y-111119047D01*
X131190476Y-111071428D01*
X131428571Y-111071428D01*
X131523809Y-111023809D01*
X131904761Y-110785714D02*
X132142857Y-111452380D01*
X132380952Y-110785714D02*
X132142857Y-111452380D01*
X132047619Y-111690476D01*
X132000000Y-111738095D01*
X131904761Y-111785714D01*
G04 #@! TO.C,J2*
X96496666Y-110452380D02*
X97068095Y-110452380D01*
X96782380Y-111452380D02*
X96782380Y-110452380D01*
X97401428Y-111452380D02*
X97401428Y-110452380D01*
X97830000Y-111452380D02*
X97830000Y-110928571D01*
X97782380Y-110833333D01*
X97687142Y-110785714D01*
X97544285Y-110785714D01*
X97449047Y-110833333D01*
X97401428Y-110880952D01*
X98687142Y-111404761D02*
X98591904Y-111452380D01*
X98401428Y-111452380D01*
X98306190Y-111404761D01*
X98258571Y-111309523D01*
X98258571Y-110928571D01*
X98306190Y-110833333D01*
X98401428Y-110785714D01*
X98591904Y-110785714D01*
X98687142Y-110833333D01*
X98734761Y-110928571D01*
X98734761Y-111023809D01*
X98258571Y-111119047D01*
X99163333Y-111452380D02*
X99163333Y-110785714D01*
X99163333Y-110976190D02*
X99210952Y-110880952D01*
X99258571Y-110833333D01*
X99353809Y-110785714D01*
X99449047Y-110785714D01*
X99782380Y-111452380D02*
X99782380Y-110785714D01*
X99782380Y-110880952D02*
X99830000Y-110833333D01*
X99925238Y-110785714D01*
X100068095Y-110785714D01*
X100163333Y-110833333D01*
X100210952Y-110928571D01*
X100210952Y-111452380D01*
X100210952Y-110928571D02*
X100258571Y-110833333D01*
X100353809Y-110785714D01*
X100496666Y-110785714D01*
X100591904Y-110833333D01*
X100639523Y-110928571D01*
X100639523Y-111452380D01*
X101115714Y-111452380D02*
X101115714Y-110785714D01*
X101115714Y-110452380D02*
X101068095Y-110500000D01*
X101115714Y-110547619D01*
X101163333Y-110500000D01*
X101115714Y-110452380D01*
X101115714Y-110547619D01*
X101544285Y-111404761D02*
X101639523Y-111452380D01*
X101830000Y-111452380D01*
X101925238Y-111404761D01*
X101972857Y-111309523D01*
X101972857Y-111261904D01*
X101925238Y-111166666D01*
X101830000Y-111119047D01*
X101687142Y-111119047D01*
X101591904Y-111071428D01*
X101544285Y-110976190D01*
X101544285Y-110928571D01*
X101591904Y-110833333D01*
X101687142Y-110785714D01*
X101830000Y-110785714D01*
X101925238Y-110833333D01*
X102258571Y-110785714D02*
X102639523Y-110785714D01*
X102401428Y-110452380D02*
X102401428Y-111309523D01*
X102449047Y-111404761D01*
X102544285Y-111452380D01*
X102639523Y-111452380D01*
X103115714Y-111452380D02*
X103020476Y-111404761D01*
X102972857Y-111357142D01*
X102925238Y-111261904D01*
X102925238Y-110976190D01*
X102972857Y-110880952D01*
X103020476Y-110833333D01*
X103115714Y-110785714D01*
X103258571Y-110785714D01*
X103353809Y-110833333D01*
X103401428Y-110880952D01*
X103449047Y-110976190D01*
X103449047Y-111261904D01*
X103401428Y-111357142D01*
X103353809Y-111404761D01*
X103258571Y-111452380D01*
X103115714Y-111452380D01*
X103877619Y-111452380D02*
X103877619Y-110785714D01*
X103877619Y-110976190D02*
X103925238Y-110880952D01*
X103972857Y-110833333D01*
X104068095Y-110785714D01*
X104163333Y-110785714D01*
G04 #@! TO.C,J1*
X110380952Y-110452380D02*
X110571428Y-110452380D01*
X110666666Y-110500000D01*
X110761904Y-110595238D01*
X110809523Y-110785714D01*
X110809523Y-111119047D01*
X110761904Y-111309523D01*
X110666666Y-111404761D01*
X110571428Y-111452380D01*
X110380952Y-111452380D01*
X110285714Y-111404761D01*
X110190476Y-111309523D01*
X110142857Y-111119047D01*
X110142857Y-110785714D01*
X110190476Y-110595238D01*
X110285714Y-110500000D01*
X110380952Y-110452380D01*
X111238095Y-110785714D02*
X111238095Y-111785714D01*
X111238095Y-110833333D02*
X111333333Y-110785714D01*
X111523809Y-110785714D01*
X111619047Y-110833333D01*
X111666666Y-110880952D01*
X111714285Y-110976190D01*
X111714285Y-111261904D01*
X111666666Y-111357142D01*
X111619047Y-111404761D01*
X111523809Y-111452380D01*
X111333333Y-111452380D01*
X111238095Y-111404761D01*
X112000000Y-110785714D02*
X112380952Y-110785714D01*
X112142857Y-110452380D02*
X112142857Y-111309523D01*
X112190476Y-111404761D01*
X112285714Y-111452380D01*
X112380952Y-111452380D01*
X112714285Y-111452380D02*
X112714285Y-110785714D01*
X112714285Y-110452380D02*
X112666666Y-110500000D01*
X112714285Y-110547619D01*
X112761904Y-110500000D01*
X112714285Y-110452380D01*
X112714285Y-110547619D01*
X113619047Y-111404761D02*
X113523809Y-111452380D01*
X113333333Y-111452380D01*
X113238095Y-111404761D01*
X113190476Y-111357142D01*
X113142857Y-111261904D01*
X113142857Y-110976190D01*
X113190476Y-110880952D01*
X113238095Y-110833333D01*
X113333333Y-110785714D01*
X113523809Y-110785714D01*
X113619047Y-110833333D01*
X114476190Y-111452380D02*
X114476190Y-110928571D01*
X114428571Y-110833333D01*
X114333333Y-110785714D01*
X114142857Y-110785714D01*
X114047619Y-110833333D01*
X114476190Y-111404761D02*
X114380952Y-111452380D01*
X114142857Y-111452380D01*
X114047619Y-111404761D01*
X114000000Y-111309523D01*
X114000000Y-111214285D01*
X114047619Y-111119047D01*
X114142857Y-111071428D01*
X114380952Y-111071428D01*
X114476190Y-111023809D01*
X115095238Y-111452380D02*
X115000000Y-111404761D01*
X114952380Y-111309523D01*
X114952380Y-110452380D01*
X116190476Y-111404761D02*
X116333333Y-111452380D01*
X116571428Y-111452380D01*
X116666666Y-111404761D01*
X116714285Y-111357142D01*
X116761904Y-111261904D01*
X116761904Y-111166666D01*
X116714285Y-111071428D01*
X116666666Y-111023809D01*
X116571428Y-110976190D01*
X116380952Y-110928571D01*
X116285714Y-110880952D01*
X116238095Y-110833333D01*
X116190476Y-110738095D01*
X116190476Y-110642857D01*
X116238095Y-110547619D01*
X116285714Y-110500000D01*
X116380952Y-110452380D01*
X116619047Y-110452380D01*
X116761904Y-110500000D01*
X117571428Y-111404761D02*
X117476190Y-111452380D01*
X117285714Y-111452380D01*
X117190476Y-111404761D01*
X117142857Y-111309523D01*
X117142857Y-110928571D01*
X117190476Y-110833333D01*
X117285714Y-110785714D01*
X117476190Y-110785714D01*
X117571428Y-110833333D01*
X117619047Y-110928571D01*
X117619047Y-111023809D01*
X117142857Y-111119047D01*
X118047619Y-110785714D02*
X118047619Y-111452380D01*
X118047619Y-110880952D02*
X118095238Y-110833333D01*
X118190476Y-110785714D01*
X118333333Y-110785714D01*
X118428571Y-110833333D01*
X118476190Y-110928571D01*
X118476190Y-111452380D01*
X118904761Y-111404761D02*
X119000000Y-111452380D01*
X119190476Y-111452380D01*
X119285714Y-111404761D01*
X119333333Y-111309523D01*
X119333333Y-111261904D01*
X119285714Y-111166666D01*
X119190476Y-111119047D01*
X119047619Y-111119047D01*
X118952380Y-111071428D01*
X118904761Y-110976190D01*
X118904761Y-110928571D01*
X118952380Y-110833333D01*
X119047619Y-110785714D01*
X119190476Y-110785714D01*
X119285714Y-110833333D01*
X119904761Y-111452380D02*
X119809523Y-111404761D01*
X119761904Y-111357142D01*
X119714285Y-111261904D01*
X119714285Y-110976190D01*
X119761904Y-110880952D01*
X119809523Y-110833333D01*
X119904761Y-110785714D01*
X120047619Y-110785714D01*
X120142857Y-110833333D01*
X120190476Y-110880952D01*
X120238095Y-110976190D01*
X120238095Y-111261904D01*
X120190476Y-111357142D01*
X120142857Y-111404761D01*
X120047619Y-111452380D01*
X119904761Y-111452380D01*
X120666666Y-111452380D02*
X120666666Y-110785714D01*
X120666666Y-110976190D02*
X120714285Y-110880952D01*
X120761904Y-110833333D01*
X120857142Y-110785714D01*
X120952380Y-110785714D01*
G04 #@! TO.C,C3*
X95357142Y-80916666D02*
X95404761Y-80964285D01*
X95452380Y-81107142D01*
X95452380Y-81202380D01*
X95404761Y-81345238D01*
X95309523Y-81440476D01*
X95214285Y-81488095D01*
X95023809Y-81535714D01*
X94880952Y-81535714D01*
X94690476Y-81488095D01*
X94595238Y-81440476D01*
X94500000Y-81345238D01*
X94452380Y-81202380D01*
X94452380Y-81107142D01*
X94500000Y-80964285D01*
X94547619Y-80916666D01*
X94452380Y-80583333D02*
X94452380Y-79964285D01*
X94833333Y-80297619D01*
X94833333Y-80154761D01*
X94880952Y-80059523D01*
X94928571Y-80011904D01*
X95023809Y-79964285D01*
X95261904Y-79964285D01*
X95357142Y-80011904D01*
X95404761Y-80059523D01*
X95452380Y-80154761D01*
X95452380Y-80440476D01*
X95404761Y-80535714D01*
X95357142Y-80583333D01*
X103157142Y-81416666D02*
X103204761Y-81464285D01*
X103252380Y-81607142D01*
X103252380Y-81702380D01*
X103204761Y-81845238D01*
X103109523Y-81940476D01*
X103014285Y-81988095D01*
X102823809Y-82035714D01*
X102680952Y-82035714D01*
X102490476Y-81988095D01*
X102395238Y-81940476D01*
X102300000Y-81845238D01*
X102252380Y-81702380D01*
X102252380Y-81607142D01*
X102300000Y-81464285D01*
X102347619Y-81416666D01*
X103252380Y-80988095D02*
X102252380Y-80988095D01*
X102252380Y-80607142D01*
X102300000Y-80511904D01*
X102347619Y-80464285D01*
X102442857Y-80416666D01*
X102585714Y-80416666D01*
X102680952Y-80464285D01*
X102728571Y-80511904D01*
X102776190Y-80607142D01*
X102776190Y-80988095D01*
X103252380Y-79464285D02*
X103252380Y-80035714D01*
X103252380Y-79750000D02*
X102252380Y-79750000D01*
X102395238Y-79845238D01*
X102490476Y-79940476D01*
X102538095Y-80035714D01*
G04 #@! TO.C,C2*
X118833333Y-61857142D02*
X118785714Y-61904761D01*
X118642857Y-61952380D01*
X118547619Y-61952380D01*
X118404761Y-61904761D01*
X118309523Y-61809523D01*
X118261904Y-61714285D01*
X118214285Y-61523809D01*
X118214285Y-61380952D01*
X118261904Y-61190476D01*
X118309523Y-61095238D01*
X118404761Y-61000000D01*
X118547619Y-60952380D01*
X118642857Y-60952380D01*
X118785714Y-61000000D01*
X118833333Y-61047619D01*
X119214285Y-61047619D02*
X119261904Y-61000000D01*
X119357142Y-60952380D01*
X119595238Y-60952380D01*
X119690476Y-61000000D01*
X119738095Y-61047619D01*
X119785714Y-61142857D01*
X119785714Y-61238095D01*
X119738095Y-61380952D01*
X119166666Y-61952380D01*
X119785714Y-61952380D01*
X117952380Y-68952380D02*
X117380952Y-68952380D01*
X117666666Y-68952380D02*
X117666666Y-67952380D01*
X117571428Y-68095238D01*
X117476190Y-68190476D01*
X117380952Y-68238095D01*
X118571428Y-67952380D02*
X118666666Y-67952380D01*
X118761904Y-68000000D01*
X118809523Y-68047619D01*
X118857142Y-68142857D01*
X118904761Y-68333333D01*
X118904761Y-68571428D01*
X118857142Y-68761904D01*
X118809523Y-68857142D01*
X118761904Y-68904761D01*
X118666666Y-68952380D01*
X118571428Y-68952380D01*
X118476190Y-68904761D01*
X118428571Y-68857142D01*
X118380952Y-68761904D01*
X118333333Y-68571428D01*
X118333333Y-68333333D01*
X118380952Y-68142857D01*
X118428571Y-68047619D01*
X118476190Y-68000000D01*
X118571428Y-67952380D01*
X119523809Y-67952380D02*
X119619047Y-67952380D01*
X119714285Y-68000000D01*
X119761904Y-68047619D01*
X119809523Y-68142857D01*
X119857142Y-68333333D01*
X119857142Y-68571428D01*
X119809523Y-68761904D01*
X119761904Y-68857142D01*
X119714285Y-68904761D01*
X119619047Y-68952380D01*
X119523809Y-68952380D01*
X119428571Y-68904761D01*
X119380952Y-68857142D01*
X119333333Y-68761904D01*
X119285714Y-68571428D01*
X119285714Y-68333333D01*
X119333333Y-68142857D01*
X119380952Y-68047619D01*
X119428571Y-68000000D01*
X119523809Y-67952380D01*
X120285714Y-68285714D02*
X120285714Y-68952380D01*
X120285714Y-68380952D02*
X120333333Y-68333333D01*
X120428571Y-68285714D01*
X120571428Y-68285714D01*
X120666666Y-68333333D01*
X120714285Y-68428571D01*
X120714285Y-68952380D01*
X121523809Y-68428571D02*
X121190476Y-68428571D01*
X121190476Y-68952380D02*
X121190476Y-67952380D01*
X121666666Y-67952380D01*
G04 #@! TD*
M02*
