solid rat
facet normal 1.0 0.0 0.0
  outer loop
    vertex 2.3250000000000184 15.499999999999972 2.499999999999996
    vertex 2.3250000000000184 3.199999999999994 3.700000000000005
    vertex 2.3250000000000184 3.199999999999994 2.5000000000000044
  endloop
endfacet
facet normal 1.0 0.0 0.0
  outer loop
    vertex 2.3250000000000184 3.199999999999994 3.700000000000005
    vertex 2.3250000000000184 15.499999999999972 2.499999999999996
    vertex 2.3250000000000184 15.499999999999972 3.6999999999999966
  endloop
endfacet
facet normal 0.0 1.0 0.0
  outer loop
    vertex 2.3250000000000184 3.199999999999994 2.5000000000000044
    vertex 16.27500000000003 3.199999999999994 3.700000000000022
    vertex 16.27500000000003 3.199999999999994 2.499999999999996
  endloop
endfacet
facet normal 0.0 1.0 0.0
  outer loop
    vertex 16.27500000000003 3.199999999999994 3.700000000000022
    vertex 2.3250000000000184 3.199999999999994 2.5000000000000044
    vertex 2.3250000000000184 3.199999999999994 3.700000000000005
  endloop
endfacet
facet normal -1.0 0.0 0.0
  outer loop
    vertex 16.27500000000003 15.499999999999972 3.7000000000000135
    vertex 16.27500000000003 3.199999999999994 2.499999999999996
    vertex 16.27500000000003 3.199999999999994 3.700000000000022
  endloop
endfacet
facet normal -1.0 0.0 0.0
  outer loop
    vertex 16.27500000000003 3.199999999999994 2.499999999999996
    vertex 16.27500000000003 15.499999999999972 3.7000000000000135
    vertex 16.27500000000003 15.499999999999972 2.499999999999996
  endloop
endfacet
facet normal 0.0 -1.0 0.0
  outer loop
    vertex 16.27500000000003 15.499999999999972 3.7000000000000135
    vertex 2.3250000000000184 15.499999999999972 2.499999999999996
    vertex 16.27500000000003 15.499999999999972 2.499999999999996
  endloop
endfacet
facet normal 0.0 -1.0 0.0
  outer loop
    vertex 2.3250000000000184 15.499999999999972 2.499999999999996
    vertex 16.27500000000003 15.499999999999972 3.7000000000000135
    vertex 2.3250000000000184 15.499999999999972 3.6999999999999966
  endloop
endfacet
facet normal -3.3910913659236604e-16 8.7903301596865e-16 -1.0
  outer loop
    vertex 15.800000000000022 18.799999999999965 1.973976537783528e-14
    vertex 2.8000000000000007 15.99999999999997 1.6919798895287383e-14
    vertex 2.8000000000000007 18.799999999999965 2.1149748619109232e-14
  endloop
endfacet
facet normal -3.3910913659236604e-16 8.7903301596865e-16 -1.0
  outer loop
    vertex 2.8000000000000007 15.99999999999997 1.6919798895287383e-14
    vertex 15.800000000000022 18.799999999999965 1.973976537783528e-14
    vertex 3.0 15.79999999999997 1.6919798895287383e-14
  endloop
endfacet
facet normal -3.3910913659236604e-16 8.7903301596865e-16 -1.0
  outer loop
    vertex 2.8000000000000007 15.99999999999997 1.6919798895287383e-14
    vertex 3.0 15.79999999999997 1.6919798895287383e-14
    vertex 2.8000000000000007 2.799999999999995 1.6919798895287383e-14
  endloop
endfacet
facet normal -3.3910913659236604e-16 8.7903301596865e-16 -1.0
  outer loop
    vertex 2.8000000000000007 2.799999999999995 1.6919798895287383e-14
    vertex 3.0 15.79999999999997 1.6919798895287383e-14
    vertex 2.8000000000000007 0.0 1.4099832412739488e-14
  endloop
endfacet
facet normal -3.3910913659236604e-16 8.7903301596865e-16 -1.0
  outer loop
    vertex 3.0 15.79999999999997 1.6919798895287383e-14
    vertex 15.800000000000022 18.799999999999965 1.973976537783528e-14
    vertex 15.600000000000023 15.79999999999997 2.255973186038318e-14
  endloop
endfacet
facet normal -3.3910913659236604e-16 8.7903301596865e-16 -1.0
  outer loop
    vertex 15.600000000000023 15.79999999999997 2.255973186038318e-14
    vertex 15.800000000000022 18.799999999999965 1.973976537783528e-14
    vertex 15.600000000000023 2.9999999999999947 0.0
  endloop
endfacet
facet normal -3.3910913659236604e-16 8.7903301596865e-16 -1.0
  outer loop
    vertex 18.600000000000023 15.99999999999997 1.8329782136561334e-14
    vertex 15.800000000000022 2.799999999999995 0.0
    vertex 15.800000000000022 15.99999999999997 2.255973186038318e-14
  endloop
endfacet
facet normal -3.3910913659236604e-16 8.7903301596865e-16 -1.0
  outer loop
    vertex 15.800000000000022 2.799999999999995 0.0
    vertex 18.600000000000023 15.99999999999997 1.8329782136561334e-14
    vertex 18.600000000000023 2.799999999999995 2.8199664825478975e-15
  endloop
endfacet
facet normal -3.3910913659236604e-16 8.7903301596865e-16 -1.0
  outer loop
    vertex 2.8000000000000007 0.0 1.4099832412739488e-14
    vertex 3.0 2.9999999999999947 1.6919798895287383e-14
    vertex 15.800000000000022 0.0 2.8199664825478975e-15
  endloop
endfacet
facet normal -3.3910913659236604e-16 8.7903301596865e-16 -1.0
  outer loop
    vertex 3.0 2.9999999999999947 1.6919798895287383e-14
    vertex 2.8000000000000007 0.0 1.4099832412739488e-14
    vertex 3.0 15.79999999999997 1.6919798895287383e-14
  endloop
endfacet
facet normal -3.3910913659236604e-16 8.7903301596865e-16 -1.0
  outer loop
    vertex 15.800000000000022 0.0 2.8199664825478975e-15
    vertex 3.0 2.9999999999999947 1.6919798895287383e-14
    vertex 15.600000000000023 2.9999999999999947 0.0
  endloop
endfacet
facet normal -3.3910913659236604e-16 8.7903301596865e-16 -1.0
  outer loop
    vertex 15.800000000000022 0.0 2.8199664825478975e-15
    vertex 15.600000000000023 2.9999999999999947 0.0
    vertex 15.800000000000022 18.799999999999965 1.973976537783528e-14
  endloop
endfacet
facet normal -3.3910913659236604e-16 8.7903301596865e-16 -1.0
  outer loop
    vertex 15.800000000000022 0.0 2.8199664825478975e-15
    vertex 15.800000000000022 18.799999999999965 1.973976537783528e-14
    vertex 15.800000000000022 15.99999999999997 2.255973186038318e-14
  endloop
endfacet
facet normal -3.3910913659236604e-16 8.7903301596865e-16 -1.0
  outer loop
    vertex 15.800000000000022 0.0 2.8199664825478975e-15
    vertex 15.800000000000022 15.99999999999997 2.255973186038318e-14
    vertex 15.800000000000022 2.799999999999995 0.0
  endloop
endfacet
facet normal -3.3910913659236604e-16 8.7903301596865e-16 -1.0
  outer loop
    vertex 2.8000000000000007 15.99999999999997 1.6919798895287383e-14
    vertex 0.0 2.799999999999995 1.5509815654013436e-14
    vertex 0.0 15.99999999999997 2.255973186038318e-14
  endloop
endfacet
facet normal -3.3910913659236604e-16 8.7903301596865e-16 -1.0
  outer loop
    vertex 0.0 2.799999999999995 1.5509815654013436e-14
    vertex 2.8000000000000007 15.99999999999997 1.6919798895287383e-14
    vertex 2.8000000000000007 2.799999999999995 1.6919798895287383e-14
  endloop
endfacet
facet normal 1.0 0.0 0.0
  outer loop
    vertex 15.800000000000022 2.799999999999995 0.0
    vertex 15.800000000000022 0.0 4.700000000000028
    vertex 15.800000000000022 0.0 2.8199664825478975e-15
  endloop
endfacet
facet normal 1.0 0.0 0.0
  outer loop
    vertex 15.800000000000022 0.0 4.700000000000028
    vertex 15.800000000000022 2.799999999999995 0.0
    vertex 15.800000000000022 2.799999999999995 4.700000000000028
  endloop
endfacet
facet normal 0.0 1.0 0.0
  outer loop
    vertex 15.800000000000022 15.99999999999997 2.255973186038318e-14
    vertex 18.60000000000005 15.99999999999997 4.70000000000001
    vertex 18.600000000000023 15.99999999999997 1.8329782136561334e-14
  endloop
endfacet
facet normal 0.0 1.0 0.0
  outer loop
    vertex 18.60000000000005 15.99999999999997 4.70000000000001
    vertex 15.800000000000022 15.99999999999997 2.255973186038318e-14
    vertex 15.800000000000038 15.99999999999997 4.700000000000015
  endloop
endfacet
facet normal -1.5335440844601705e-30 -1.0 5.371364728662704e-15
  outer loop
    vertex 2.8000000000000007 2.799999999999995 1.6919798895287383e-14
    vertex 0.0 2.8000000000000176 4.699999999999983
    vertex 0.0 2.799999999999995 1.5509815654013436e-14
  endloop
endfacet
facet normal -1.5335440844601705e-30 -1.0 5.371364728662704e-15
  outer loop
    vertex 0.0 2.8000000000000176 4.699999999999983
    vertex 2.8000000000000007 2.799999999999995 1.6919798895287383e-14
    vertex 2.8000000000000007 2.8000000000000176 4.699999999999983
  endloop
endfacet
facet normal 0.0 -1.0 0.0
  outer loop
    vertex 18.600000000000023 2.799999999999995 2.8199664825478975e-15
    vertex 15.800000000000022 2.799999999999995 4.700000000000028
    vertex 15.800000000000022 2.799999999999995 0.0
  endloop
endfacet
facet normal 0.0 -1.0 0.0
  outer loop
    vertex 15.800000000000022 2.799999999999995 4.700000000000028
    vertex 18.600000000000023 2.799999999999995 2.8199664825478975e-15
    vertex 18.600000000000023 2.799999999999995 4.700000000000028
  endloop
endfacet
facet normal -1.0 0.0 0.0
  outer loop
    vertex 2.8000000000000007 2.255973186038318e-14 4.699999999999977
    vertex 2.8000000000000007 2.799999999999995 1.6919798895287383e-14
    vertex 2.8000000000000007 0.0 1.4099832412739488e-14
  endloop
endfacet
facet normal -1.0 0.0 0.0
  outer loop
    vertex 2.8000000000000007 2.799999999999995 1.6919798895287383e-14
    vertex 2.8000000000000007 2.255973186038318e-14 4.699999999999977
    vertex 2.8000000000000007 2.8000000000000176 4.699999999999983
  endloop
endfacet
facet normal 1.0 -4.025553221707938e-30 -4.028523546497003e-15
  outer loop
    vertex 15.800000000000022 18.799999999999965 1.973976537783528e-14
    vertex 15.800000000000038 15.99999999999997 4.700000000000015
    vertex 15.800000000000022 15.99999999999997 2.255973186038318e-14
  endloop
endfacet
facet normal 1.0 -4.025553221707938e-30 -4.028523546497003e-15
  outer loop
    vertex 15.800000000000038 15.99999999999997 4.700000000000015
    vertex 15.800000000000022 18.799999999999965 1.973976537783528e-14
    vertex 15.800000000000038 18.799999999999965 4.700000000000013
  endloop
endfacet
facet normal 0.0 1.0 0.0
  outer loop
    vertex 0.0 15.99999999999997 2.255973186038318e-14
    vertex 2.8000000000000007 15.99999999999997 4.699999999999963
    vertex 2.8000000000000007 15.99999999999997 1.6919798895287383e-14
  endloop
endfacet
facet normal 0.0 1.0 0.0
  outer loop
    vertex 2.8000000000000007 15.99999999999997 4.699999999999963
    vertex 0.0 15.99999999999997 2.255973186038318e-14
    vertex 0.0 15.99999999999997 4.699999999999968
  endloop
endfacet
facet normal -1.0 0.0 0.0
  outer loop
    vertex 2.8000000000000007 18.799999999999965 4.699999999999968
    vertex 2.8000000000000007 15.99999999999997 1.6919798895287383e-14
    vertex 2.8000000000000007 15.99999999999997 4.699999999999963
  endloop
endfacet
facet normal -1.0 0.0 0.0
  outer loop
    vertex 2.8000000000000007 15.99999999999997 1.6919798895287383e-14
    vertex 2.8000000000000007 18.799999999999965 4.699999999999968
    vertex 2.8000000000000007 18.799999999999965 2.1149748619109232e-14
  endloop
endfacet
facet normal -4.440091456896321e-16 8.144789556601423e-16 -1.0
  outer loop
    vertex 3.0 15.79999999999997 1.5000000000000178
    vertex 3.9999999999999982 14.799999999999972 1.5000000000000204
    vertex 3.0 2.9999999999999947 1.5000000000000178
  endloop
endfacet
facet normal -4.440091456896321e-16 8.144789556601423e-16 -1.0
  outer loop
    vertex 3.9999999999999982 14.799999999999972 1.5000000000000204
    vertex 3.0 15.79999999999997 1.5000000000000178
    vertex 15.600000000000023 15.79999999999997 1.5000000000000233
  endloop
endfacet
facet normal -4.440091456896321e-16 8.144789556601423e-16 -1.0
  outer loop
    vertex 3.9999999999999982 14.799999999999972 1.5000000000000204
    vertex 15.600000000000023 15.79999999999997 1.5000000000000233
    vertex 14.600000000000025 14.799999999999972 1.5000000000000149
  endloop
endfacet
facet normal -4.440091456896321e-16 8.144789556601423e-16 -1.0
  outer loop
    vertex 14.600000000000025 14.799999999999972 1.5000000000000149
    vertex 15.600000000000023 15.79999999999997 1.5000000000000233
    vertex 14.600000000000025 3.9999999999999925 1.5000000000000064
  endloop
endfacet
facet normal -4.440091456896321e-16 8.144789556601423e-16 -1.0
  outer loop
    vertex 3.0 2.9999999999999947 1.5000000000000178
    vertex 3.9999999999999982 3.9999999999999925 1.500000000000012
    vertex 15.600000000000023 2.9999999999999947 1.5000000000000007
  endloop
endfacet
facet normal -4.440091456896321e-16 8.144789556601423e-16 -1.0
  outer loop
    vertex 3.9999999999999982 3.9999999999999925 1.500000000000012
    vertex 3.0 2.9999999999999947 1.5000000000000178
    vertex 3.9999999999999982 14.799999999999972 1.5000000000000204
  endloop
endfacet
facet normal -4.440091456896321e-16 8.144789556601423e-16 -1.0
  outer loop
    vertex 15.600000000000023 2.9999999999999947 1.5000000000000007
    vertex 3.9999999999999982 3.9999999999999925 1.500000000000012
    vertex 14.600000000000025 3.9999999999999925 1.5000000000000064
  endloop
endfacet
facet normal -4.440091456896321e-16 8.144789556601423e-16 -1.0
  outer loop
    vertex 15.600000000000023 2.9999999999999947 1.5000000000000007
    vertex 14.600000000000025 3.9999999999999925 1.5000000000000064
    vertex 15.600000000000023 15.79999999999997 1.5000000000000233
  endloop
endfacet
facet normal -1.0 -3.731636678394606e-31 4.440091456896321e-16
  outer loop
    vertex 14.600000000000025 14.799999999999972 2.500000000000016
    vertex 14.600000000000025 3.9999999999999925 1.5000000000000064
    vertex 14.600000000000025 3.9999999999999925 2.5000000000000075
  endloop
endfacet
facet normal -1.0 -3.731636678394606e-31 4.440091456896321e-16
  outer loop
    vertex 14.600000000000025 3.9999999999999925 1.5000000000000064
    vertex 14.600000000000025 14.799999999999972 2.500000000000016
    vertex 14.600000000000025 14.799999999999972 1.5000000000000149
  endloop
endfacet
facet normal -3.758036150986814e-31 -1.0 -8.144789556601424e-16
  outer loop
    vertex 14.600000000000025 14.799999999999972 2.500000000000016
    vertex 3.9999999999999982 14.799999999999972 1.5000000000000204
    vertex 14.600000000000025 14.799999999999972 1.5000000000000149
  endloop
endfacet
facet normal -3.758036150986814e-31 -1.0 -8.144789556601424e-16
  outer loop
    vertex 3.9999999999999982 14.799999999999972 1.5000000000000204
    vertex 14.600000000000025 14.799999999999972 2.500000000000016
    vertex 3.9999999999999982 14.799999999999972 2.5000000000000213
  endloop
endfacet
facet normal 1.0 3.731636678394606e-31 -4.440091456896321e-16
  outer loop
    vertex 3.9999999999999982 14.799999999999972 1.5000000000000204
    vertex 3.9999999999999982 3.9999999999999925 2.500000000000013
    vertex 3.9999999999999982 3.9999999999999925 1.500000000000012
  endloop
endfacet
facet normal 1.0 3.731636678394606e-31 -4.440091456896321e-16
  outer loop
    vertex 3.9999999999999982 3.9999999999999925 2.500000000000013
    vertex 3.9999999999999982 14.799999999999972 1.5000000000000204
    vertex 3.9999999999999982 14.799999999999972 2.5000000000000213
  endloop
endfacet
facet normal 3.758036150986814e-31 1.0 8.144789556601424e-16
  outer loop
    vertex 3.9999999999999982 3.9999999999999925 1.500000000000012
    vertex 14.600000000000025 3.9999999999999925 2.5000000000000075
    vertex 14.600000000000025 3.9999999999999925 1.5000000000000064
  endloop
endfacet
facet normal 3.758036150986814e-31 1.0 8.144789556601424e-16
  outer loop
    vertex 14.600000000000025 3.9999999999999925 2.5000000000000075
    vertex 3.9999999999999982 3.9999999999999925 1.500000000000012
    vertex 3.9999999999999982 3.9999999999999925 2.500000000000013
  endloop
endfacet
facet normal 3.8717304858286575e-16 9.672141136787777e-17 1.0
  outer loop
    vertex 2.3250000000000184 3.199999999999994 2.5000000000000044
    vertex 3.9999999999999982 3.9999999999999925 2.500000000000013
    vertex 2.3250000000000184 15.499999999999972 2.499999999999996
  endloop
endfacet
facet normal 3.8717304858286575e-16 9.672141136787777e-17 1.0
  outer loop
    vertex 3.9999999999999982 3.9999999999999925 2.500000000000013
    vertex 2.3250000000000184 3.199999999999994 2.5000000000000044
    vertex 16.27500000000003 3.199999999999994 2.499999999999996
  endloop
endfacet
facet normal 3.8717304858286575e-16 9.672141136787777e-17 1.0
  outer loop
    vertex 3.9999999999999982 3.9999999999999925 2.500000000000013
    vertex 16.27500000000003 3.199999999999994 2.499999999999996
    vertex 14.600000000000025 3.9999999999999925 2.5000000000000075
  endloop
endfacet
facet normal 3.8717304858286575e-16 9.672141136787777e-17 1.0
  outer loop
    vertex 14.600000000000025 3.9999999999999925 2.5000000000000075
    vertex 16.27500000000003 3.199999999999994 2.499999999999996
    vertex 14.600000000000025 14.799999999999972 2.500000000000016
  endloop
endfacet
facet normal 3.8717304858286575e-16 9.672141136787777e-17 1.0
  outer loop
    vertex 2.3250000000000184 15.499999999999972 2.499999999999996
    vertex 3.9999999999999982 14.799999999999972 2.5000000000000213
    vertex 16.27500000000003 15.499999999999972 2.499999999999996
  endloop
endfacet
facet normal 3.8717304858286575e-16 9.672141136787777e-17 1.0
  outer loop
    vertex 3.9999999999999982 14.799999999999972 2.5000000000000213
    vertex 2.3250000000000184 15.499999999999972 2.499999999999996
    vertex 3.9999999999999982 3.9999999999999925 2.500000000000013
  endloop
endfacet
facet normal 3.8717304858286575e-16 9.672141136787777e-17 1.0
  outer loop
    vertex 16.27500000000003 15.499999999999972 2.499999999999996
    vertex 3.9999999999999982 14.799999999999972 2.5000000000000213
    vertex 14.600000000000025 14.799999999999972 2.500000000000016
  endloop
endfacet
facet normal 3.8717304858286575e-16 9.672141136787777e-17 1.0
  outer loop
    vertex 16.27500000000003 15.499999999999972 2.499999999999996
    vertex 14.600000000000025 14.799999999999972 2.500000000000016
    vertex 16.27500000000003 3.199999999999994 2.499999999999996
  endloop
endfacet
facet normal -8.67681994630125e-16 -1.0 2.6856823643313152e-15
  outer loop
    vertex 15.800000000000022 0.0 4.700000000000028
    vertex 2.8000000000000007 0.0 1.4099832412739488e-14
    vertex 15.800000000000022 0.0 2.8199664825478975e-15
  endloop
endfacet
facet normal -8.67681994630125e-16 -1.0 2.6856823643313152e-15
  outer loop
    vertex 2.8000000000000007 0.0 1.4099832412739488e-14
    vertex 15.800000000000022 0.0 4.700000000000028
    vertex 2.8000000000000007 2.255973186038318e-14 4.699999999999977
  endloop
endfacet
facet normal 0.0 1.0 0.0
  outer loop
    vertex 2.8000000000000007 18.799999999999965 2.1149748619109232e-14
    vertex 15.800000000000038 18.799999999999965 4.700000000000013
    vertex 15.800000000000022 18.799999999999965 1.973976537783528e-14
  endloop
endfacet
facet normal 0.0 1.0 0.0
  outer loop
    vertex 15.800000000000038 18.799999999999965 4.700000000000013
    vertex 2.8000000000000007 18.799999999999965 2.1149748619109232e-14
    vertex 2.8000000000000007 18.799999999999965 4.699999999999968
  endloop
endfacet
facet normal 1.0 0.0 0.0
  outer loop
    vertex 3.0 15.79999999999997 1.6919798895287383e-14
    vertex 3.0 2.9999999999999947 1.5000000000000178
    vertex 3.0 2.9999999999999947 1.6919798895287383e-14
  endloop
endfacet
facet normal 1.0 0.0 0.0
  outer loop
    vertex 3.0 2.9999999999999947 1.5000000000000178
    vertex 3.0 15.79999999999997 1.6919798895287383e-14
    vertex 3.0 15.79999999999997 1.5000000000000178
  endloop
endfacet
facet normal 0.0 -1.0 0.0
  outer loop
    vertex 15.600000000000023 15.79999999999997 2.255973186038318e-14
    vertex 3.0 15.79999999999997 1.5000000000000178
    vertex 3.0 15.79999999999997 1.6919798895287383e-14
  endloop
endfacet
facet normal 0.0 -1.0 0.0
  outer loop
    vertex 3.0 15.79999999999997 1.5000000000000178
    vertex 15.600000000000023 15.79999999999997 2.255973186038318e-14
    vertex 15.600000000000023 15.79999999999997 1.5000000000000233
  endloop
endfacet
facet normal -1.0 0.0 0.0
  outer loop
    vertex 0.0 2.8000000000000176 4.699999999999983
    vertex 0.0 15.99999999999997 2.255973186038318e-14
    vertex 0.0 2.799999999999995 1.5509815654013436e-14
  endloop
endfacet
facet normal -1.0 0.0 0.0
  outer loop
    vertex 0.0 15.99999999999997 2.255973186038318e-14
    vertex 0.0 2.8000000000000176 4.699999999999983
    vertex 0.0 15.99999999999997 4.699999999999968
  endloop
endfacet
facet normal 0.0 1.0 0.0
  outer loop
    vertex 3.0 2.9999999999999947 1.6919798895287383e-14
    vertex 15.600000000000023 2.9999999999999947 1.5000000000000007
    vertex 15.600000000000023 2.9999999999999947 0.0
  endloop
endfacet
facet normal 0.0 1.0 0.0
  outer loop
    vertex 15.600000000000023 2.9999999999999947 1.5000000000000007
    vertex 3.0 2.9999999999999947 1.6919798895287383e-14
    vertex 3.0 2.9999999999999947 1.5000000000000178
  endloop
endfacet
facet normal -1.0 0.0 0.0
  outer loop
    vertex 15.600000000000023 15.79999999999997 1.5000000000000233
    vertex 15.600000000000023 2.9999999999999947 0.0
    vertex 15.600000000000023 2.9999999999999947 1.5000000000000007
  endloop
endfacet
facet normal -1.0 0.0 0.0
  outer loop
    vertex 15.600000000000023 2.9999999999999947 0.0
    vertex 15.600000000000023 15.79999999999997 1.5000000000000233
    vertex 15.600000000000023 15.79999999999997 2.255973186038318e-14
  endloop
endfacet
facet normal 0.0 -1.0 0.0
  outer loop
    vertex 2.3250000000000184 15.499999999999972 3.6999999999999966
    vertex 1.8250000000000024 15.499999999999972 4.699999999999992
    vertex 1.8250000000000248 15.499999999999972 3.699999999999994
  endloop
endfacet
facet normal 0.0 -1.0 0.0
  outer loop
    vertex 1.8250000000000024 15.499999999999972 4.699999999999992
    vertex 2.3250000000000184 15.499999999999972 3.6999999999999966
    vertex 16.27500000000003 15.499999999999972 3.7000000000000135
  endloop
endfacet
facet normal 0.0 -1.0 0.0
  outer loop
    vertex 1.8250000000000024 15.499999999999972 4.699999999999992
    vertex 16.27500000000003 15.499999999999972 3.7000000000000135
    vertex 16.77500000000003 15.499999999999972 3.7000000000000166
  endloop
endfacet
facet normal 0.0 -1.0 0.0
  outer loop
    vertex 1.8250000000000024 15.499999999999972 4.699999999999992
    vertex 16.77500000000003 15.499999999999972 3.7000000000000166
    vertex 16.77500000000003 15.499999999999972 4.700000000000014
  endloop
endfacet
facet normal 1.0 -1.0681691221772361e-15 -3.357102955414144e-15
  outer loop
    vertex 18.600000000000023 15.99999999999997 1.8329782136561334e-14
    vertex 18.600000000000023 2.799999999999995 4.700000000000028
    vertex 18.600000000000023 2.799999999999995 2.8199664825478975e-15
  endloop
endfacet
facet normal 1.0 -1.0681691221772361e-15 -3.357102955414144e-15
  outer loop
    vertex 18.600000000000023 2.799999999999995 4.700000000000028
    vertex 18.600000000000023 15.99999999999997 1.8329782136561334e-14
    vertex 18.60000000000005 15.99999999999997 4.70000000000001
  endloop
endfacet
facet normal -6.344924585732781e-15 8.310876828647273e-16 1.0
  outer loop
    vertex 16.77500000000003 3.199999999999994 3.700000000000025
    vertex 16.27500000000003 15.499999999999972 3.7000000000000135
    vertex 16.27500000000003 3.199999999999994 3.700000000000022
  endloop
endfacet
facet normal -6.344924585732781e-15 8.310876828647273e-16 1.0
  outer loop
    vertex 16.27500000000003 15.499999999999972 3.7000000000000135
    vertex 16.77500000000003 3.199999999999994 3.700000000000025
    vertex 16.77500000000003 15.499999999999972 3.7000000000000166
  endloop
endfacet
facet normal 1.0 1.935884260400591e-29 2.255973186038322e-14
  outer loop
    vertex 1.8250000000000248 15.499999999999972 3.699999999999994
    vertex 1.8250000000000024 3.199999999999994 4.700000000000004
    vertex 1.8250000000000248 3.199999999999994 3.700000000000005
  endloop
endfacet
facet normal 1.0 1.935884260400591e-29 2.255973186038322e-14
  outer loop
    vertex 1.8250000000000024 3.199999999999994 4.700000000000004
    vertex 1.8250000000000248 15.499999999999972 3.699999999999994
    vertex 1.8250000000000024 15.499999999999972 4.699999999999992
  endloop
endfacet
facet normal -2.8806823773640553e-15 8.21051671463587e-16 1.0
  outer loop
    vertex 15.800000000000022 0.0 4.700000000000028
    vertex 2.8000000000000007 2.8000000000000176 4.699999999999983
    vertex 2.8000000000000007 2.255973186038318e-14 4.699999999999977
  endloop
endfacet
facet normal -2.8806823773640553e-15 8.21051671463587e-16 1.0
  outer loop
    vertex 0.0 2.8000000000000176 4.699999999999983
    vertex 1.8250000000000024 3.199999999999994 4.700000000000004
    vertex 0.0 15.99999999999997 4.699999999999968
  endloop
endfacet
facet normal -2.8806823773640553e-15 8.21051671463587e-16 1.0
  outer loop
    vertex 1.8250000000000024 3.199999999999994 4.700000000000004
    vertex 0.0 2.8000000000000176 4.699999999999983
    vertex 2.8000000000000007 2.8000000000000176 4.699999999999983
  endloop
endfacet
facet normal -2.8806823773640553e-15 8.21051671463587e-16 1.0
  outer loop
    vertex 1.8250000000000024 3.199999999999994 4.700000000000004
    vertex 2.8000000000000007 2.8000000000000176 4.699999999999983
    vertex 16.77500000000003 3.199999999999994 4.700000000000023
  endloop
endfacet
facet normal -2.8806823773640553e-15 8.21051671463587e-16 1.0
  outer loop
    vertex 16.77500000000003 3.199999999999994 4.700000000000023
    vertex 2.8000000000000007 2.8000000000000176 4.699999999999983
    vertex 15.800000000000022 2.799999999999995 4.700000000000028
  endloop
endfacet
facet normal -2.8806823773640553e-15 8.21051671463587e-16 1.0
  outer loop
    vertex 15.800000000000022 2.799999999999995 4.700000000000028
    vertex 2.8000000000000007 2.8000000000000176 4.699999999999983
    vertex 15.800000000000022 0.0 4.700000000000028
  endloop
endfacet
facet normal -2.8806823773640553e-15 8.21051671463587e-16 1.0
  outer loop
    vertex 16.77500000000003 3.199999999999994 4.700000000000023
    vertex 15.800000000000022 2.799999999999995 4.700000000000028
    vertex 18.600000000000023 2.799999999999995 4.700000000000028
  endloop
endfacet
facet normal -2.8806823773640553e-15 8.21051671463587e-16 1.0
  outer loop
    vertex 16.77500000000003 3.199999999999994 4.700000000000023
    vertex 18.600000000000023 2.799999999999995 4.700000000000028
    vertex 16.77500000000003 15.499999999999972 4.700000000000014
  endloop
endfacet
facet normal -2.8806823773640553e-15 8.21051671463587e-16 1.0
  outer loop
    vertex 0.0 15.99999999999997 4.699999999999968
    vertex 1.8250000000000024 15.499999999999972 4.699999999999992
    vertex 2.8000000000000007 15.99999999999997 4.699999999999963
  endloop
endfacet
facet normal -2.8806823773640553e-15 8.21051671463587e-16 1.0
  outer loop
    vertex 1.8250000000000024 15.499999999999972 4.699999999999992
    vertex 0.0 15.99999999999997 4.699999999999968
    vertex 1.8250000000000024 3.199999999999994 4.700000000000004
  endloop
endfacet
facet normal -2.8806823773640553e-15 8.21051671463587e-16 1.0
  outer loop
    vertex 2.8000000000000007 15.99999999999997 4.699999999999963
    vertex 1.8250000000000024 15.499999999999972 4.699999999999992
    vertex 16.77500000000003 15.499999999999972 4.700000000000014
  endloop
endfacet
facet normal -2.8806823773640553e-15 8.21051671463587e-16 1.0
  outer loop
    vertex 2.8000000000000007 15.99999999999997 4.699999999999963
    vertex 16.77500000000003 15.499999999999972 4.700000000000014
    vertex 2.8000000000000007 18.799999999999965 4.699999999999968
  endloop
endfacet
facet normal -2.8806823773640553e-15 8.21051671463587e-16 1.0
  outer loop
    vertex 2.8000000000000007 18.799999999999965 4.699999999999968
    vertex 16.77500000000003 15.499999999999972 4.700000000000014
    vertex 15.800000000000038 15.99999999999997 4.700000000000015
  endloop
endfacet
facet normal -2.8806823773640553e-15 8.21051671463587e-16 1.0
  outer loop
    vertex 15.800000000000038 15.99999999999997 4.700000000000015
    vertex 16.77500000000003 15.499999999999972 4.700000000000014
    vertex 18.60000000000005 15.99999999999997 4.70000000000001
  endloop
endfacet
facet normal -2.8806823773640553e-15 8.21051671463587e-16 1.0
  outer loop
    vertex 18.60000000000005 15.99999999999997 4.70000000000001
    vertex 16.77500000000003 15.499999999999972 4.700000000000014
    vertex 18.600000000000023 2.799999999999995 4.700000000000028
  endloop
endfacet
facet normal -2.8806823773640553e-15 8.21051671463587e-16 1.0
  outer loop
    vertex 15.800000000000038 18.799999999999965 4.700000000000013
    vertex 2.8000000000000007 18.799999999999965 4.699999999999968
    vertex 15.800000000000038 15.99999999999997 4.700000000000015
  endloop
endfacet
facet normal -3.524958103184918e-16 8.454167808451537e-16 1.0
  outer loop
    vertex 2.3250000000000184 3.199999999999994 3.700000000000005
    vertex 1.8250000000000248 15.499999999999972 3.699999999999994
    vertex 1.8250000000000248 3.199999999999994 3.700000000000005
  endloop
endfacet
facet normal -3.524958103184918e-16 8.454167808451537e-16 1.0
  outer loop
    vertex 1.8250000000000248 15.499999999999972 3.699999999999994
    vertex 2.3250000000000184 3.199999999999994 3.700000000000005
    vertex 2.3250000000000184 15.499999999999972 3.6999999999999966
  endloop
endfacet
facet normal -1.0 0.0 0.0
  outer loop
    vertex 16.77500000000003 15.499999999999972 4.700000000000014
    vertex 16.77500000000003 3.199999999999994 3.700000000000025
    vertex 16.77500000000003 3.199999999999994 4.700000000000023
  endloop
endfacet
facet normal -1.0 0.0 0.0
  outer loop
    vertex 16.77500000000003 3.199999999999994 3.700000000000025
    vertex 16.77500000000003 15.499999999999972 4.700000000000014
    vertex 16.77500000000003 15.499999999999972 3.7000000000000166
  endloop
endfacet
facet normal 0.0 1.0 0.0
  outer loop
    vertex 1.8250000000000024 3.199999999999994 4.700000000000004
    vertex 2.3250000000000184 3.199999999999994 3.700000000000005
    vertex 1.8250000000000248 3.199999999999994 3.700000000000005
  endloop
endfacet
facet normal 0.0 1.0 0.0
  outer loop
    vertex 2.3250000000000184 3.199999999999994 3.700000000000005
    vertex 1.8250000000000024 3.199999999999994 4.700000000000004
    vertex 16.27500000000003 3.199999999999994 3.700000000000022
  endloop
endfacet
facet normal 0.0 1.0 0.0
  outer loop
    vertex 16.27500000000003 3.199999999999994 3.700000000000022
    vertex 1.8250000000000024 3.199999999999994 4.700000000000004
    vertex 16.77500000000003 3.199999999999994 3.700000000000025
  endloop
endfacet
facet normal 0.0 1.0 0.0
  outer loop
    vertex 16.77500000000003 3.199999999999994 3.700000000000025
    vertex 1.8250000000000024 3.199999999999994 4.700000000000004
    vertex 16.77500000000003 3.199999999999994 4.700000000000023
  endloop
endfacet
endsolid rat
