M48
;DRILL file {KiCad (5.0.1-3-g963ef8bb5)} date Monday, March 18, 2019 at 05:38:40 PM
;FORMAT={-:-/ absolute / inch / decimal}
FMAT,2
INCH,TZ
T1C0.0080
T2C0.0197
%
G90
G05
M72
T1
X5.847Y-4.0256
X5.8667Y-4.065
X5.8864Y-4.0256
X5.9061Y-4.065
X5.9257Y-4.0256
X5.9454Y-4.065
X5.9651Y-4.0256
X5.9848Y-4.065
X6.0045Y-4.0256
X6.0242Y-4.065
X6.0439Y-4.0256
X6.0635Y-4.065
X6.0832Y-4.0256
X6.1029Y-4.065
X6.1226Y-4.0256
X6.1423Y-4.065
X6.162Y-4.0256
X6.1816Y-4.065
X6.2013Y-4.0256
X6.221Y-4.065
T2
X6.1969Y-3.937
X5.8701Y-3.937
T0
M30
