solid back
facet normal 1.0 -0.0 -0.0
  outer loop
    vertex 68.69999999999999 17.5 0.0
    vertex 68.69999999999999 9.5 3.0
    vertex 68.69999999999999 9.5 0.0
  endloop
endfacet
facet normal 1.0 -0.0 -0.0
  outer loop
    vertex 68.69999999999999 9.5 3.0
    vertex 68.69999999999999 17.5 0.0
    vertex 68.69999999999999 17.5 3.0
  endloop
endfacet
facet normal 0.0 -1.0 0.0
  outer loop
    vertex 82.0 17.5 3.0
    vertex 68.69999999999999 17.5 0.0
    vertex 82.0 17.5 0.0
  endloop
endfacet
facet normal 0.0 -1.0 0.0
  outer loop
    vertex 68.69999999999999 17.5 0.0
    vertex 82.0 17.5 3.0
    vertex 68.69999999999999 17.5 3.0
  endloop
endfacet
facet normal -1.0 0.0 0.0
  outer loop
    vertex 82.0 17.5 3.0
    vertex 82.0 9.5 0.0
    vertex 82.0 9.5 3.0
  endloop
endfacet
facet normal -1.0 0.0 0.0
  outer loop
    vertex 82.0 9.5 0.0
    vertex 82.0 17.5 3.0
    vertex 82.0 17.5 0.0
  endloop
endfacet
facet normal 0.0 1.0 0.0
  outer loop
    vertex 68.69999999999999 9.5 3.0
    vertex 82.0 9.5 0.0
    vertex 68.69999999999999 9.5 0.0
  endloop
endfacet
facet normal 0.0 1.0 0.0
  outer loop
    vertex 82.0 9.5 0.0
    vertex 68.69999999999999 9.5 3.0
    vertex 82.0 9.5 3.0
  endloop
endfacet
facet normal 1.0 -0.0 -0.0
  outer loop
    vertex 12.024999618530273 2.4999999999999996 0.0
    vertex 12.024999618530273 0.49999999999999994 3.0
    vertex 12.024999618530273 0.49999999999999994 0.0
  endloop
endfacet
facet normal 1.0 -0.0 -0.0
  outer loop
    vertex 12.024999618530273 0.49999999999999994 3.0
    vertex 12.024999618530273 2.4999999999999996 0.0
    vertex 12.024999618530273 2.4999999999999996 3.0
  endloop
endfacet
facet normal 0.0 -1.0 0.0
  outer loop
    vertex 22.02499961853027 2.4999999999999996 3.0
    vertex 12.024999618530273 2.4999999999999996 0.0
    vertex 22.02499961853027 2.4999999999999996 0.0
  endloop
endfacet
facet normal 0.0 -1.0 0.0
  outer loop
    vertex 12.024999618530273 2.4999999999999996 0.0
    vertex 22.02499961853027 2.4999999999999996 3.0
    vertex 12.024999618530273 2.4999999999999996 3.0
  endloop
endfacet
facet normal -1.0 0.0 0.0
  outer loop
    vertex 22.02499961853027 2.4999999999999996 3.0
    vertex 22.02499961853027 0.49999999999999994 0.0
    vertex 22.02499961853027 0.49999999999999994 3.0
  endloop
endfacet
facet normal -1.0 0.0 0.0
  outer loop
    vertex 22.02499961853027 0.49999999999999994 0.0
    vertex 22.02499961853027 2.4999999999999996 3.0
    vertex 22.02499961853027 2.4999999999999996 0.0
  endloop
endfacet
facet normal -0.0 1.0 -0.0
  outer loop
    vertex 12.024999618530273 0.49999999999999994 3.0
    vertex 22.02499961853027 0.49999999999999994 0.0
    vertex 12.024999618530273 0.49999999999999994 0.0
  endloop
endfacet
facet normal -0.0 1.0 -0.0
  outer loop
    vertex 22.02499961853027 0.49999999999999994 0.0
    vertex 12.024999618530273 0.49999999999999994 3.0
    vertex 22.02499961853027 0.49999999999999994 3.0
  endloop
endfacet
facet normal 1.0 -0.0 -0.0
  outer loop
    vertex 67.58100128173828 2.4999999999999996 0.0
    vertex 67.58100128173828 0.49999999999999994 3.0
    vertex 67.58100128173828 0.49999999999999994 0.0
  endloop
endfacet
facet normal 1.0 -0.0 -0.0
  outer loop
    vertex 67.58100128173828 0.49999999999999994 3.0
    vertex 67.58100128173828 2.4999999999999996 0.0
    vertex 67.58100128173828 2.4999999999999996 3.0
  endloop
endfacet
facet normal 0.0 -1.0 0.0
  outer loop
    vertex 77.58100128173828 2.4999999999999996 3.0
    vertex 67.58100128173828 2.4999999999999996 0.0
    vertex 77.58100128173828 2.4999999999999996 0.0
  endloop
endfacet
facet normal 0.0 -1.0 0.0
  outer loop
    vertex 67.58100128173828 2.4999999999999996 0.0
    vertex 77.58100128173828 2.4999999999999996 3.0
    vertex 67.58100128173828 2.4999999999999996 3.0
  endloop
endfacet
facet normal -1.0 0.0 0.0
  outer loop
    vertex 77.58100128173828 2.4999999999999996 3.0
    vertex 77.58100128173828 0.49999999999999994 0.0
    vertex 77.58100128173828 0.49999999999999994 3.0
  endloop
endfacet
facet normal -1.0 0.0 0.0
  outer loop
    vertex 77.58100128173828 0.49999999999999994 0.0
    vertex 77.58100128173828 2.4999999999999996 3.0
    vertex 77.58100128173828 2.4999999999999996 0.0
  endloop
endfacet
facet normal -0.0 1.0 -0.0
  outer loop
    vertex 67.58100128173828 0.49999999999999994 3.0
    vertex 77.58100128173828 0.49999999999999994 0.0
    vertex 67.58100128173828 0.49999999999999994 0.0
  endloop
endfacet
facet normal -0.0 1.0 -0.0
  outer loop
    vertex 77.58100128173828 0.49999999999999994 0.0
    vertex 67.58100128173828 0.49999999999999994 3.0
    vertex 77.58100128173828 0.49999999999999994 3.0
  endloop
endfacet
facet normal 1.0 -0.0 -0.0
  outer loop
    vertex 87.5 25.922000885009762 0.0
    vertex 87.5 15.92199993133545 3.0
    vertex 87.5 15.92199993133545 0.0
  endloop
endfacet
facet normal 1.0 -0.0 -0.0
  outer loop
    vertex 87.5 15.92199993133545 3.0
    vertex 87.5 25.922000885009762 0.0
    vertex 87.5 25.922000885009762 3.0
  endloop
endfacet
facet normal 0.0 -1.0 0.0
  outer loop
    vertex 89.5 25.922000885009762 3.0
    vertex 87.5 25.922000885009762 0.0
    vertex 89.5 25.922000885009762 0.0
  endloop
endfacet
facet normal 0.0 -1.0 0.0
  outer loop
    vertex 87.5 25.922000885009762 0.0
    vertex 89.5 25.922000885009762 3.0
    vertex 87.5 25.922000885009762 3.0
  endloop
endfacet
facet normal -1.0 0.0 0.0
  outer loop
    vertex 89.5 25.922000885009762 3.0
    vertex 89.5 15.92199993133545 0.0
    vertex 89.5 15.92199993133545 3.0
  endloop
endfacet
facet normal -1.0 0.0 0.0
  outer loop
    vertex 89.5 15.92199993133545 0.0
    vertex 89.5 25.922000885009762 3.0
    vertex 89.5 25.922000885009762 0.0
  endloop
endfacet
facet normal -0.0 1.0 -0.0
  outer loop
    vertex 87.5 15.92199993133545 3.0
    vertex 89.5 15.92199993133545 0.0
    vertex 87.5 15.92199993133545 0.0
  endloop
endfacet
facet normal -0.0 1.0 -0.0
  outer loop
    vertex 89.5 15.92199993133545 0.0
    vertex 87.5 15.92199993133545 3.0
    vertex 89.5 15.92199993133545 3.0
  endloop
endfacet
facet normal 1.0 -0.0 -0.0
  outer loop
    vertex 67.58100128173828 44.5 0.0
    vertex 67.58100128173828 42.49999999999999 3.0
    vertex 67.58100128173828 42.49999999999999 0.0
  endloop
endfacet
facet normal 1.0 -0.0 -0.0
  outer loop
    vertex 67.58100128173828 42.49999999999999 3.0
    vertex 67.58100128173828 44.5 0.0
    vertex 67.58100128173828 44.5 3.0
  endloop
endfacet
facet normal 1.0 -0.0 -0.0
  outer loop
    vertex 12.024999618530273 44.5 0.0
    vertex 12.024999618530273 42.49999999999999 3.0
    vertex 12.024999618530273 42.49999999999999 0.0
  endloop
endfacet
facet normal 1.0 -0.0 -0.0
  outer loop
    vertex 12.024999618530273 42.49999999999999 3.0
    vertex 12.024999618530273 44.5 0.0
    vertex 12.024999618530273 44.5 3.0
  endloop
endfacet
facet normal -0.7933530480667544 0.6087618098428892 0.0
  outer loop
    vertex 1.1715729236602783 43.828426361083984 3.0
    vertex 0.5358983874320983 42.99999999999999 0.0
    vertex 0.5358983874320983 42.99999999999999 3.0
  endloop
endfacet
facet normal -0.7933530480667544 0.6087618098428892 0.0
  outer loop
    vertex 0.5358983874320983 42.99999999999999 0.0
    vertex 1.1715729236602783 43.828426361083984 3.0
    vertex 1.1715729236602783 43.828426361083984 0.0
  endloop
endfacet
facet normal -0.6087608682597654 0.7933537705687272 -0.0
  outer loop
    vertex 1.1715729236602783 43.828426361083984 3.0
    vertex 1.9999999999999998 44.464099884033196 0.0
    vertex 1.1715729236602783 43.828426361083984 0.0
  endloop
endfacet
facet normal -0.6087608682597654 0.7933537705687272 -0.0
  outer loop
    vertex 1.9999999999999998 44.464099884033196 0.0
    vertex 1.1715729236602783 43.828426361083984 3.0
    vertex 1.9999999999999998 44.464099884033196 3.0
  endloop
endfacet
facet normal -0.3826859703677646 0.9238784812320735 -0.0
  outer loop
    vertex 1.9999999999999998 44.464099884033196 3.0
    vertex 2.964723825454712 44.86370468139648 0.0
    vertex 1.9999999999999998 44.464099884033196 0.0
  endloop
endfacet
facet normal -0.3826859703677646 0.9238784812320735 -0.0
  outer loop
    vertex 2.964723825454712 44.86370468139648 0.0
    vertex 1.9999999999999998 44.464099884033196 3.0
    vertex 2.964723825454712 44.86370468139648 3.0
  endloop
endfacet
facet normal -1.0 -7.894918918946175e-16 0.0
  outer loop
    vertex -3.2369167567679324e-14 41.0 3.0
    vertex 0.0 0.0 0.0
    vertex 0.0 0.0 3.0
  endloop
endfacet
facet normal -1.0 -7.894918918946175e-16 0.0
  outer loop
    vertex 0.0 0.0 0.0
    vertex -3.2369167567679324e-14 41.0 3.0
    vertex -3.2369167567679324e-14 41.0 0.0
  endloop
endfacet
facet normal 0.1305246315045854 0.99144506684465 -0.0
  outer loop
    vertex 85.99999999999999 45.0 3.0
    vertex 87.0352783203125 44.86370468139648 0.0
    vertex 85.99999999999999 45.0 0.0
  endloop
endfacet
facet normal 0.1305246315045854 0.99144506684465 -0.0
  outer loop
    vertex 87.0352783203125 44.86370468139648 0.0
    vertex 85.99999999999999 45.0 3.0
    vertex 87.0352783203125 44.86370468139648 3.0
  endloop
endfacet
facet normal 0.3826866968961702 0.9238781802914813 -0.0
  outer loop
    vertex 87.0352783203125 44.86370468139648 3.0
    vertex 88.0 44.464099884033196 0.0
    vertex 87.0352783203125 44.86370468139648 0.0
  endloop
endfacet
facet normal 0.3826866968961702 0.9238781802914813 -0.0
  outer loop
    vertex 88.0 44.464099884033196 0.0
    vertex 87.0352783203125 44.86370468139648 3.0
    vertex 88.0 44.464099884033196 3.0
  endloop
endfacet
facet normal 0.6087594347226275 0.7933548705567939 -0.0
  outer loop
    vertex 88.0 44.464099884033196 3.0
    vertex 88.82843017578124 43.828426361083984 0.0
    vertex 88.0 44.464099884033196 0.0
  endloop
endfacet
facet normal 0.6087594347226275 0.7933548705567939 -0.0
  outer loop
    vertex 88.82843017578124 43.828426361083984 0.0
    vertex 88.0 44.464099884033196 3.0
    vertex 88.82843017578124 43.828426361083984 3.0
  endloop
endfacet
facet normal 0.7933535167242218 0.608761199076707 -0.0
  outer loop
    vertex 88.82843017578124 43.828426361083984 0.0
    vertex 89.46410369873047 42.99999999999999 3.0
    vertex 89.46410369873047 42.99999999999999 0.0
  endloop
endfacet
facet normal 0.7933535167242218 0.608761199076707 -0.0
  outer loop
    vertex 89.46410369873047 42.99999999999999 3.0
    vertex 88.82843017578124 43.828426361083984 0.0
    vertex 88.82843017578124 43.828426361083984 3.0
  endloop
endfacet
facet normal 0.9238812984826165 0.38267916890533066 -0.0
  outer loop
    vertex 89.46410369873047 42.99999999999999 0.0
    vertex 89.86370086669922 42.035274505615234 3.0
    vertex 89.86370086669922 42.035274505615234 0.0
  endloop
endfacet
facet normal 0.9238812984826165 0.38267916890533066 -0.0
  outer loop
    vertex 89.86370086669922 42.035274505615234 3.0
    vertex 89.46410369873047 42.99999999999999 0.0
    vertex 89.46410369873047 42.99999999999999 3.0
  endloop
endfacet
facet normal 0.9914445318451888 0.13052869521401983 -0.0
  outer loop
    vertex 89.86370086669922 42.035274505615234 0.0
    vertex 90.0 41.0 3.0
    vertex 90.0 41.0 0.0
  endloop
endfacet
facet normal 0.9914445318451888 0.13052869521401983 -0.0
  outer loop
    vertex 90.0 41.0 3.0
    vertex 89.86370086669922 42.035274505615234 0.0
    vertex 89.86370086669922 42.035274505615234 3.0
  endloop
endfacet
facet normal 1.0 -0.0 -0.0
  outer loop
    vertex 90.0 41.0 0.0
    vertex 90.0 0.0 3.0
    vertex 90.0 0.0 0.0
  endloop
endfacet
facet normal 1.0 -0.0 -0.0
  outer loop
    vertex 90.0 0.0 3.0
    vertex 90.0 41.0 0.0
    vertex 90.0 41.0 3.0
  endloop
endfacet
facet normal -0.0 1.0 -0.0
  outer loop
    vertex 3.9999999999999996 45.0 3.0
    vertex 85.99999999999999 45.0 0.0
    vertex 3.9999999999999996 45.0 0.0
  endloop
endfacet
facet normal -0.0 1.0 -0.0
  outer loop
    vertex 85.99999999999999 45.0 0.0
    vertex 3.9999999999999996 45.0 3.0
    vertex 85.99999999999999 45.0 3.0
  endloop
endfacet
facet normal -0.1305248974277389 0.9914450318355922 -0.0
  outer loop
    vertex 2.964723825454712 44.86370468139648 3.0
    vertex 3.9999999999999996 45.0 0.0
    vertex 2.964723825454712 44.86370468139648 0.0
  endloop
endfacet
facet normal -0.1305248974277389 0.9914450318355922 -0.0
  outer loop
    vertex 3.9999999999999996 45.0 0.0
    vertex 2.964723825454712 44.86370468139648 3.0
    vertex 3.9999999999999996 45.0 3.0
  endloop
endfacet
facet normal 1.0 -0.0 -0.0
  outer loop
    vertex 0.49999999999999994 25.922000885009762 0.0
    vertex 0.49999999999999994 15.92199993133545 3.0
    vertex 0.49999999999999994 15.92199993133545 0.0
  endloop
endfacet
facet normal 1.0 -0.0 -0.0
  outer loop
    vertex 0.49999999999999994 15.92199993133545 3.0
    vertex 0.49999999999999994 25.922000885009762 0.0
    vertex 0.49999999999999994 25.922000885009762 3.0
  endloop
endfacet
facet normal -0.9914448347091382 0.13052639475818523 0.0
  outer loop
    vertex 0.13629668951034543 42.035274505615234 3.0
    vertex -3.2369167567679324e-14 41.0 0.0
    vertex -3.2369167567679324e-14 41.0 3.0
  endloop
endfacet
facet normal -0.9914448347091382 0.13052639475818523 0.0
  outer loop
    vertex -3.2369167567679324e-14 41.0 0.0
    vertex 0.13629668951034543 42.035274505615234 3.0
    vertex 0.13629668951034543 42.035274505615234 0.0
  endloop
endfacet
facet normal -0.9238797647187746 0.3826828717661424 0.0
  outer loop
    vertex 0.5358983874320983 42.99999999999999 3.0
    vertex 0.13629668951034543 42.035274505615234 0.0
    vertex 0.13629668951034543 42.035274505615234 3.0
  endloop
endfacet
facet normal -0.9238797647187746 0.3826828717661424 0.0
  outer loop
    vertex 0.13629668951034543 42.035274505615234 0.0
    vertex 0.5358983874320983 42.99999999999999 3.0
    vertex 0.5358983874320983 42.99999999999999 0.0
  endloop
endfacet
facet normal -1.0 0.0 0.0
  outer loop
    vertex 22.02499961853027 44.5 3.0
    vertex 22.02499961853027 42.49999999999999 0.0
    vertex 22.02499961853027 42.49999999999999 3.0
  endloop
endfacet
facet normal -1.0 0.0 0.0
  outer loop
    vertex 22.02499961853027 42.49999999999999 0.0
    vertex 22.02499961853027 44.5 3.0
    vertex 22.02499961853027 44.5 0.0
  endloop
endfacet
facet normal -0.0 1.0 -0.0
  outer loop
    vertex 12.024999618530273 42.49999999999999 3.0
    vertex 22.02499961853027 42.49999999999999 0.0
    vertex 12.024999618530273 42.49999999999999 0.0
  endloop
endfacet
facet normal -0.0 1.0 -0.0
  outer loop
    vertex 22.02499961853027 42.49999999999999 0.0
    vertex 12.024999618530273 42.49999999999999 3.0
    vertex 22.02499961853027 42.49999999999999 3.0
  endloop
endfacet
facet normal 0.0 -1.0 0.0
  outer loop
    vertex 77.58100128173828 44.5 3.0
    vertex 67.58100128173828 44.5 0.0
    vertex 77.58100128173828 44.5 0.0
  endloop
endfacet
facet normal 0.0 -1.0 0.0
  outer loop
    vertex 67.58100128173828 44.5 0.0
    vertex 77.58100128173828 44.5 3.0
    vertex 67.58100128173828 44.5 3.0
  endloop
endfacet
facet normal -1.0 0.0 0.0
  outer loop
    vertex 77.58100128173828 44.5 3.0
    vertex 77.58100128173828 42.49999999999999 0.0
    vertex 77.58100128173828 42.49999999999999 3.0
  endloop
endfacet
facet normal -1.0 0.0 0.0
  outer loop
    vertex 77.58100128173828 42.49999999999999 0.0
    vertex 77.58100128173828 44.5 3.0
    vertex 77.58100128173828 44.5 0.0
  endloop
endfacet
facet normal -0.0 1.0 -0.0
  outer loop
    vertex 67.58100128173828 42.49999999999999 3.0
    vertex 77.58100128173828 42.49999999999999 0.0
    vertex 67.58100128173828 42.49999999999999 0.0
  endloop
endfacet
facet normal -0.0 1.0 -0.0
  outer loop
    vertex 77.58100128173828 42.49999999999999 0.0
    vertex 67.58100128173828 42.49999999999999 3.0
    vertex 77.58100128173828 42.49999999999999 3.0
  endloop
endfacet
facet normal 0.0 -1.0 0.0
  outer loop
    vertex 2.4999999999999996 25.922000885009762 3.0
    vertex 0.49999999999999994 25.922000885009762 0.0
    vertex 2.4999999999999996 25.922000885009762 0.0
  endloop
endfacet
facet normal 0.0 -1.0 0.0
  outer loop
    vertex 0.49999999999999994 25.922000885009762 0.0
    vertex 2.4999999999999996 25.922000885009762 3.0
    vertex 0.49999999999999994 25.922000885009762 3.0
  endloop
endfacet
facet normal -1.0 0.0 0.0
  outer loop
    vertex 2.4999999999999996 25.922000885009762 3.0
    vertex 2.4999999999999996 15.92199993133545 0.0
    vertex 2.4999999999999996 15.92199993133545 3.0
  endloop
endfacet
facet normal -1.0 0.0 0.0
  outer loop
    vertex 2.4999999999999996 15.92199993133545 0.0
    vertex 2.4999999999999996 25.922000885009762 3.0
    vertex 2.4999999999999996 25.922000885009762 0.0
  endloop
endfacet
facet normal -0.0 1.0 -0.0
  outer loop
    vertex 0.49999999999999994 15.92199993133545 3.0
    vertex 2.4999999999999996 15.92199993133545 0.0
    vertex 0.49999999999999994 15.92199993133545 0.0
  endloop
endfacet
facet normal -0.0 1.0 -0.0
  outer loop
    vertex 2.4999999999999996 15.92199993133545 0.0
    vertex 0.49999999999999994 15.92199993133545 3.0
    vertex 2.4999999999999996 15.92199993133545 3.0
  endloop
endfacet
facet normal 1.0 -4.747777355727214e-19 3.3214716802882306e-16
  outer loop
    vertex 9.22499961853027 34.29264043425212 0.0
    vertex 9.22499961853027 14.29264043425211 3.0
    vertex 9.22499961853027 14.29264043425211 0.0
  endloop
endfacet
facet normal 1.0 -4.747777355727214e-19 3.3214716802882306e-16
  outer loop
    vertex 9.22499961853027 14.29264043425211 3.0
    vertex 9.22499961853027 34.29264043425212 0.0
    vertex 9.22499961853027 34.29264043425212 1.5
  endloop
endfacet
facet normal 1.0 -4.747777355727214e-19 3.3214716802882306e-16
  outer loop
    vertex 9.22499961853027 14.29264043425211 3.0
    vertex 9.22499961853027 34.29264043425212 1.5
    vertex 9.22499961853027 40.29264043425213 3.0
  endloop
endfacet
facet normal 1.0 -4.747777355727214e-19 3.3214716802882306e-16
  outer loop
    vertex 9.22499961853027 40.29264043425213 3.0
    vertex 9.22499961853027 34.29264043425212 1.5
    vertex 9.22499961853027 40.29264043425213 1.5
  endloop
endfacet
facet normal -1.0 0.0 0.0
  outer loop
    vertex 24.52499961853027 40.29264043425213 3.0
    vertex 24.52499961853027 14.29264043425211 0.0
    vertex 24.52499961853027 14.29264043425211 3.0
  endloop
endfacet
facet normal -1.0 0.0 0.0
  outer loop
    vertex 24.52499961853027 14.29264043425211 0.0
    vertex 24.52499961853027 40.29264043425213 3.0
    vertex 24.52499961853027 34.29264043425212 1.5
  endloop
endfacet
facet normal -1.0 0.0 0.0
  outer loop
    vertex 24.52499961853027 34.29264043425212 1.5
    vertex 24.52499961853027 40.29264043425213 3.0
    vertex 24.52499961853027 40.29264043425213 1.5
  endloop
endfacet
facet normal -1.0 0.0 0.0
  outer loop
    vertex 24.52499961853027 34.29264043425212 0.0
    vertex 24.52499961853027 14.29264043425211 0.0
    vertex 24.52499961853027 34.29264043425212 1.5
  endloop
endfacet
facet normal 0.0 1.0 0.0
  outer loop
    vertex 9.22499961853027 14.29264043425211 0.0
    vertex 11.72499961853027 14.29264043425211 1.5
    vertex 24.52499961853027 14.29264043425211 0.0
  endloop
endfacet
facet normal 0.0 1.0 0.0
  outer loop
    vertex 11.72499961853027 14.29264043425211 1.5
    vertex 9.22499961853027 14.29264043425211 0.0
    vertex 9.22499961853027 14.29264043425211 3.0
  endloop
endfacet
facet normal 0.0 1.0 0.0
  outer loop
    vertex 11.72499961853027 14.29264043425211 1.5
    vertex 9.22499961853027 14.29264043425211 3.0
    vertex 11.72499961853027 14.29264043425211 3.0
  endloop
endfacet
facet normal 0.0 1.0 0.0
  outer loop
    vertex 24.52499961853027 14.29264043425211 0.0
    vertex 22.02499961853027 14.29264043425211 1.5
    vertex 24.52499961853027 14.29264043425211 3.0
  endloop
endfacet
facet normal 0.0 1.0 0.0
  outer loop
    vertex 22.02499961853027 14.29264043425211 1.5
    vertex 24.52499961853027 14.29264043425211 0.0
    vertex 11.72499961853027 14.29264043425211 1.5
  endloop
endfacet
facet normal 0.0 1.0 0.0
  outer loop
    vertex 24.52499961853027 14.29264043425211 3.0
    vertex 22.02499961853027 14.29264043425211 1.5
    vertex 22.02499961853027 14.29264043425211 3.0
  endloop
endfacet
facet normal 0.0 -1.0 0.0
  outer loop
    vertex 24.52499961853027 34.29264043425212 1.5
    vertex 9.22499961853027 34.29264043425212 0.0
    vertex 24.52499961853027 34.29264043425212 0.0
  endloop
endfacet
facet normal 0.0 -1.0 0.0
  outer loop
    vertex 9.22499961853027 34.29264043425212 0.0
    vertex 24.52499961853027 34.29264043425212 1.5
    vertex 9.22499961853027 34.29264043425212 1.5
  endloop
endfacet
facet normal 0.0 -1.0 0.0
  outer loop
    vertex 90.0 0.0 3.0
    vertex 0.0 0.0 0.0
    vertex 90.0 0.0 0.0
  endloop
endfacet
facet normal 0.0 -1.0 0.0
  outer loop
    vertex 0.0 0.0 0.0
    vertex 90.0 0.0 3.0
    vertex 0.0 0.0 3.0
  endloop
endfacet
facet normal -0.0 -0.0 1.0
  outer loop
    vertex 11.72499961853027 14.29264043425211 3.0
    vertex 9.22499961853027 14.29264043425211 3.0
    vertex 11.72499961853027 6.29264043425211 3.0
  endloop
endfacet
facet normal -0.0 -0.0 1.0
  outer loop
    vertex 82.0 36.7720266529214 3.0
    vertex 67.58100128173828 42.49999999999999 3.0
    vertex 61.0 36.7720266529214 3.0
  endloop
endfacet
facet normal -0.0 -0.0 1.0
  outer loop
    vertex 67.58100128173828 42.49999999999999 3.0
    vertex 82.0 36.7720266529214 3.0
    vertex 77.58100128173828 42.49999999999999 3.0
  endloop
endfacet
facet normal -0.0 -0.0 1.0
  outer loop
    vertex 77.58100128173828 42.49999999999999 3.0
    vertex 82.0 36.7720266529214 3.0
    vertex 77.58100128173828 44.5 3.0
  endloop
endfacet
facet normal -0.0 -0.0 1.0
  outer loop
    vertex 3.9999999999999996 45.0 3.0
    vertex 12.024999618530273 44.5 3.0
    vertex 85.99999999999999 45.0 3.0
  endloop
endfacet
facet normal -0.0 -0.0 1.0
  outer loop
    vertex 12.024999618530273 44.5 3.0
    vertex 3.9999999999999996 45.0 3.0
    vertex 9.22499961853027 40.29264043425213 3.0
  endloop
endfacet
facet normal -0.0 -0.0 1.0
  outer loop
    vertex 9.22499961853027 40.29264043425213 3.0
    vertex 3.9999999999999996 45.0 3.0
    vertex 9.22499961853027 14.29264043425211 3.0
  endloop
endfacet
facet normal -0.0 -0.0 1.0
  outer loop
    vertex 12.024999618530273 44.5 3.0
    vertex 9.22499961853027 40.29264043425213 3.0
    vertex 12.024999618530273 42.49999999999999 3.0
  endloop
endfacet
facet normal -0.0 -0.0 1.0
  outer loop
    vertex 85.99999999999999 45.0 3.0
    vertex 12.024999618530273 44.5 3.0
    vertex 22.02499961853027 44.5 3.0
  endloop
endfacet
facet normal -0.0 -0.0 1.0
  outer loop
    vertex 85.99999999999999 45.0 3.0
    vertex 22.02499961853027 44.5 3.0
    vertex 67.58100128173828 44.5 3.0
  endloop
endfacet
facet normal -0.0 -0.0 1.0
  outer loop
    vertex 67.58100128173828 44.5 3.0
    vertex 22.02499961853027 44.5 3.0
    vertex 24.52499961853027 40.29264043425213 3.0
  endloop
endfacet
facet normal -0.0 -0.0 1.0
  outer loop
    vertex 67.58100128173828 44.5 3.0
    vertex 24.52499961853027 40.29264043425213 3.0
    vertex 61.0 36.7720266529214 3.0
  endloop
endfacet
facet normal -0.0 -0.0 1.0
  outer loop
    vertex 61.0 36.7720266529214 3.0
    vertex 24.52499961853027 40.29264043425213 3.0
    vertex 51.49999999999999 17.5 3.0
  endloop
endfacet
facet normal -0.0 -0.0 1.0
  outer loop
    vertex 51.49999999999999 17.5 3.0
    vertex 24.52499961853027 40.29264043425213 3.0
    vertex 51.49999999999999 6.499999999999999 3.0
  endloop
endfacet
facet normal -0.0 -0.0 1.0
  outer loop
    vertex 61.0 36.7720266529214 3.0
    vertex 51.49999999999999 17.5 3.0
    vertex 61.0 17.5 3.0
  endloop
endfacet
facet normal -0.0 -0.0 1.0
  outer loop
    vertex 61.0 36.7720266529214 3.0
    vertex 61.0 17.5 3.0
    vertex 61.0 23.772026652921397 3.0
  endloop
endfacet
facet normal -0.0 -0.0 1.0
  outer loop
    vertex 67.58100128173828 44.5 3.0
    vertex 61.0 36.7720266529214 3.0
    vertex 67.58100128173828 42.49999999999999 3.0
  endloop
endfacet
facet normal -0.0 -0.0 1.0
  outer loop
    vertex 85.99999999999999 45.0 3.0
    vertex 67.58100128173828 44.5 3.0
    vertex 77.58100128173828 44.5 3.0
  endloop
endfacet
facet normal -0.0 -0.0 1.0
  outer loop
    vertex 85.99999999999999 45.0 3.0
    vertex 77.58100128173828 44.5 3.0
    vertex 82.0 36.7720266529214 3.0
  endloop
endfacet
facet normal -0.0 -0.0 1.0
  outer loop
    vertex 61.0 23.772026652921397 3.0
    vertex 68.69999999999999 17.5 3.0
    vertex 82.0 23.772026652921397 3.0
  endloop
endfacet
facet normal -0.0 -0.0 1.0
  outer loop
    vertex 68.69999999999999 17.5 3.0
    vertex 61.0 23.772026652921397 3.0
    vertex 67.58100128173828 2.4999999999999996 3.0
  endloop
endfacet
facet normal -0.0 -0.0 1.0
  outer loop
    vertex 67.58100128173828 2.4999999999999996 3.0
    vertex 61.0 23.772026652921397 3.0
    vertex 67.58100128173828 0.49999999999999994 3.0
  endloop
endfacet
facet normal -0.0 -0.0 1.0
  outer loop
    vertex 68.69999999999999 17.5 3.0
    vertex 67.58100128173828 2.4999999999999996 3.0
    vertex 68.69999999999999 9.5 3.0
  endloop
endfacet
facet normal -0.0 -0.0 1.0
  outer loop
    vertex 82.0 23.772026652921397 3.0
    vertex 68.69999999999999 17.5 3.0
    vertex 82.0 17.5 3.0
  endloop
endfacet
facet normal -0.0 -0.0 1.0
  outer loop
    vertex 77.58100128173828 2.4999999999999996 3.0
    vertex 68.69999999999999 9.5 3.0
    vertex 67.58100128173828 2.4999999999999996 3.0
  endloop
endfacet
facet normal -0.0 -0.0 1.0
  outer loop
    vertex 68.69999999999999 9.5 3.0
    vertex 77.58100128173828 2.4999999999999996 3.0
    vertex 82.0 9.5 3.0
  endloop
endfacet
facet normal -0.0 -0.0 1.0
  outer loop
    vertex 0.0 0.0 3.0
    vertex 0.13629668951034543 42.035274505615234 3.0
    vertex -3.2369167567679324e-14 41.0 3.0
  endloop
endfacet
facet normal -0.0 -0.0 1.0
  outer loop
    vertex 0.13629668951034543 42.035274505615234 3.0
    vertex 0.0 0.0 3.0
    vertex 0.49999999999999994 15.92199993133545 3.0
  endloop
endfacet
facet normal -0.0 -0.0 1.0
  outer loop
    vertex 0.49999999999999994 15.92199993133545 3.0
    vertex 0.0 0.0 3.0
    vertex 12.024999618530273 0.49999999999999994 3.0
  endloop
endfacet
facet normal -0.0 -0.0 1.0
  outer loop
    vertex 12.024999618530273 0.49999999999999994 3.0
    vertex 0.0 0.0 3.0
    vertex 90.0 0.0 3.0
  endloop
endfacet
facet normal -0.0 -0.0 1.0
  outer loop
    vertex 0.49999999999999994 15.92199993133545 3.0
    vertex 12.024999618530273 0.49999999999999994 3.0
    vertex 2.4999999999999996 15.92199993133545 3.0
  endloop
endfacet
facet normal -0.0 -0.0 1.0
  outer loop
    vertex 2.4999999999999996 15.92199993133545 3.0
    vertex 12.024999618530273 0.49999999999999994 3.0
    vertex 2.4999999999999996 25.922000885009762 3.0
  endloop
endfacet
facet normal -0.0 -0.0 1.0
  outer loop
    vertex 2.4999999999999996 25.922000885009762 3.0
    vertex 12.024999618530273 0.49999999999999994 3.0
    vertex 2.964723825454712 44.86370468139648 3.0
  endloop
endfacet
facet normal -0.0 -0.0 1.0
  outer loop
    vertex 2.964723825454712 44.86370468139648 3.0
    vertex 12.024999618530273 0.49999999999999994 3.0
    vertex 9.22499961853027 14.29264043425211 3.0
  endloop
endfacet
facet normal -0.0 -0.0 1.0
  outer loop
    vertex 2.964723825454712 44.86370468139648 3.0
    vertex 9.22499961853027 14.29264043425211 3.0
    vertex 3.9999999999999996 45.0 3.0
  endloop
endfacet
facet normal -0.0 -0.0 1.0
  outer loop
    vertex 9.22499961853027 14.29264043425211 3.0
    vertex 12.024999618530273 0.49999999999999994 3.0
    vertex 11.72499961853027 6.29264043425211 3.0
  endloop
endfacet
facet normal -0.0 -0.0 1.0
  outer loop
    vertex 12.024999618530273 0.49999999999999994 3.0
    vertex 90.0 0.0 3.0
    vertex 22.02499961853027 0.49999999999999994 3.0
  endloop
endfacet
facet normal -0.0 -0.0 1.0
  outer loop
    vertex 22.02499961853027 0.49999999999999994 3.0
    vertex 90.0 0.0 3.0
    vertex 67.58100128173828 0.49999999999999994 3.0
  endloop
endfacet
facet normal -0.0 -0.0 1.0
  outer loop
    vertex 22.02499961853027 0.49999999999999994 3.0
    vertex 67.58100128173828 0.49999999999999994 3.0
    vertex 22.02499961853027 2.4999999999999996 3.0
  endloop
endfacet
facet normal -0.0 -0.0 1.0
  outer loop
    vertex 22.02499961853027 2.4999999999999996 3.0
    vertex 67.58100128173828 0.49999999999999994 3.0
    vertex 24.52499961853027 14.29264043425211 3.0
  endloop
endfacet
facet normal -0.0 -0.0 1.0
  outer loop
    vertex 24.52499961853027 14.29264043425211 3.0
    vertex 67.58100128173828 0.49999999999999994 3.0
    vertex 51.49999999999999 6.499999999999999 3.0
  endloop
endfacet
facet normal -0.0 -0.0 1.0
  outer loop
    vertex 24.52499961853027 14.29264043425211 3.0
    vertex 51.49999999999999 6.499999999999999 3.0
    vertex 24.52499961853027 40.29264043425213 3.0
  endloop
endfacet
facet normal -0.0 -0.0 1.0
  outer loop
    vertex 51.49999999999999 6.499999999999999 3.0
    vertex 67.58100128173828 0.49999999999999994 3.0
    vertex 61.0 6.499999999999999 3.0
  endloop
endfacet
facet normal -0.0 -0.0 1.0
  outer loop
    vertex 61.0 6.499999999999999 3.0
    vertex 67.58100128173828 0.49999999999999994 3.0
    vertex 61.0 17.5 3.0
  endloop
endfacet
facet normal -0.0 -0.0 1.0
  outer loop
    vertex 61.0 17.5 3.0
    vertex 67.58100128173828 0.49999999999999994 3.0
    vertex 61.0 23.772026652921397 3.0
  endloop
endfacet
facet normal -0.0 -0.0 1.0
  outer loop
    vertex 67.58100128173828 0.49999999999999994 3.0
    vertex 90.0 0.0 3.0
    vertex 77.58100128173828 0.49999999999999994 3.0
  endloop
endfacet
facet normal -0.0 -0.0 1.0
  outer loop
    vertex 77.58100128173828 0.49999999999999994 3.0
    vertex 90.0 0.0 3.0
    vertex 77.58100128173828 2.4999999999999996 3.0
  endloop
endfacet
facet normal -0.0 -0.0 1.0
  outer loop
    vertex 77.58100128173828 2.4999999999999996 3.0
    vertex 90.0 0.0 3.0
    vertex 82.0 9.5 3.0
  endloop
endfacet
facet normal -0.0 -0.0 1.0
  outer loop
    vertex 82.0 9.5 3.0
    vertex 90.0 0.0 3.0
    vertex 82.0 17.5 3.0
  endloop
endfacet
facet normal -0.0 -0.0 1.0
  outer loop
    vertex 82.0 17.5 3.0
    vertex 90.0 0.0 3.0
    vertex 82.0 23.772026652921397 3.0
  endloop
endfacet
facet normal -0.0 -0.0 1.0
  outer loop
    vertex 82.0 23.772026652921397 3.0
    vertex 90.0 0.0 3.0
    vertex 82.0 24.772026652921394 3.0
  endloop
endfacet
facet normal -0.0 -0.0 1.0
  outer loop
    vertex 82.0 24.772026652921394 3.0
    vertex 90.0 0.0 3.0
    vertex 82.0 36.7720266529214 3.0
  endloop
endfacet
facet normal -0.0 -0.0 1.0
  outer loop
    vertex 82.0 36.7720266529214 3.0
    vertex 90.0 0.0 3.0
    vertex 87.5 15.92199993133545 3.0
  endloop
endfacet
facet normal -0.0 -0.0 1.0
  outer loop
    vertex 82.0 36.7720266529214 3.0
    vertex 87.5 15.92199993133545 3.0
    vertex 85.99999999999999 45.0 3.0
  endloop
endfacet
facet normal -0.0 -0.0 1.0
  outer loop
    vertex 85.99999999999999 45.0 3.0
    vertex 87.5 15.92199993133545 3.0
    vertex 87.0352783203125 44.86370468139648 3.0
  endloop
endfacet
facet normal -0.0 -0.0 1.0
  outer loop
    vertex 87.5 15.92199993133545 3.0
    vertex 90.0 0.0 3.0
    vertex 89.5 15.92199993133545 3.0
  endloop
endfacet
facet normal -0.0 -0.0 1.0
  outer loop
    vertex 89.5 15.92199993133545 3.0
    vertex 90.0 0.0 3.0
    vertex 89.5 25.922000885009762 3.0
  endloop
endfacet
facet normal -0.0 -0.0 1.0
  outer loop
    vertex 89.5 25.922000885009762 3.0
    vertex 90.0 0.0 3.0
    vertex 89.86370086669922 42.035274505615234 3.0
  endloop
endfacet
facet normal -0.0 -0.0 1.0
  outer loop
    vertex 89.86370086669922 42.035274505615234 3.0
    vertex 90.0 0.0 3.0
    vertex 90.0 41.0 3.0
  endloop
endfacet
facet normal -0.0 -0.0 1.0
  outer loop
    vertex 87.0352783203125 44.86370468139648 3.0
    vertex 87.5 25.922000885009762 3.0
    vertex 88.0 44.464099884033196 3.0
  endloop
endfacet
facet normal -0.0 -0.0 1.0
  outer loop
    vertex 87.5 25.922000885009762 3.0
    vertex 87.0352783203125 44.86370468139648 3.0
    vertex 87.5 15.92199993133545 3.0
  endloop
endfacet
facet normal -0.0 -0.0 1.0
  outer loop
    vertex 88.0 44.464099884033196 3.0
    vertex 87.5 25.922000885009762 3.0
    vertex 89.5 25.922000885009762 3.0
  endloop
endfacet
facet normal -0.0 -0.0 1.0
  outer loop
    vertex 88.0 44.464099884033196 3.0
    vertex 89.5 25.922000885009762 3.0
    vertex 88.82843017578124 43.828426361083984 3.0
  endloop
endfacet
facet normal -0.0 -0.0 1.0
  outer loop
    vertex 88.82843017578124 43.828426361083984 3.0
    vertex 89.5 25.922000885009762 3.0
    vertex 89.46410369873047 42.99999999999999 3.0
  endloop
endfacet
facet normal -0.0 -0.0 1.0
  outer loop
    vertex 89.46410369873047 42.99999999999999 3.0
    vertex 89.5 25.922000885009762 3.0
    vertex 89.86370086669922 42.035274505615234 3.0
  endloop
endfacet
facet normal -0.0 -0.0 1.0
  outer loop
    vertex 24.52499961853027 40.29264043425213 3.0
    vertex 12.024999618530273 42.49999999999999 3.0
    vertex 9.22499961853027 40.29264043425213 3.0
  endloop
endfacet
facet normal -0.0 -0.0 1.0
  outer loop
    vertex 12.024999618530273 42.49999999999999 3.0
    vertex 24.52499961853027 40.29264043425213 3.0
    vertex 22.02499961853027 42.49999999999999 3.0
  endloop
endfacet
facet normal -0.0 -0.0 1.0
  outer loop
    vertex 22.02499961853027 42.49999999999999 3.0
    vertex 24.52499961853027 40.29264043425213 3.0
    vertex 22.02499961853027 44.5 3.0
  endloop
endfacet
facet normal -0.0 -0.0 1.0
  outer loop
    vertex 11.72499961853027 6.29264043425211 3.0
    vertex 12.024999618530273 2.4999999999999996 3.0
    vertex 22.02499961853027 6.29264043425211 3.0
  endloop
endfacet
facet normal -0.0 -0.0 1.0
  outer loop
    vertex 12.024999618530273 2.4999999999999996 3.0
    vertex 11.72499961853027 6.29264043425211 3.0
    vertex 12.024999618530273 0.49999999999999994 3.0
  endloop
endfacet
facet normal -0.0 -0.0 1.0
  outer loop
    vertex 22.02499961853027 6.29264043425211 3.0
    vertex 12.024999618530273 2.4999999999999996 3.0
    vertex 22.02499961853027 2.4999999999999996 3.0
  endloop
endfacet
facet normal -0.0 -0.0 1.0
  outer loop
    vertex 22.02499961853027 6.29264043425211 3.0
    vertex 22.02499961853027 2.4999999999999996 3.0
    vertex 22.02499961853027 14.29264043425211 3.0
  endloop
endfacet
facet normal -0.0 -0.0 1.0
  outer loop
    vertex 22.02499961853027 14.29264043425211 3.0
    vertex 22.02499961853027 2.4999999999999996 3.0
    vertex 24.52499961853027 14.29264043425211 3.0
  endloop
endfacet
facet normal -0.0 -0.0 1.0
  outer loop
    vertex 0.13629668951034543 42.035274505615234 3.0
    vertex 0.49999999999999994 25.922000885009762 3.0
    vertex 0.5358983874320983 42.99999999999999 3.0
  endloop
endfacet
facet normal -0.0 -0.0 1.0
  outer loop
    vertex 0.49999999999999994 25.922000885009762 3.0
    vertex 0.13629668951034543 42.035274505615234 3.0
    vertex 0.49999999999999994 15.92199993133545 3.0
  endloop
endfacet
facet normal -0.0 -0.0 1.0
  outer loop
    vertex 0.5358983874320983 42.99999999999999 3.0
    vertex 0.49999999999999994 25.922000885009762 3.0
    vertex 2.4999999999999996 25.922000885009762 3.0
  endloop
endfacet
facet normal -0.0 -0.0 1.0
  outer loop
    vertex 0.5358983874320983 42.99999999999999 3.0
    vertex 2.4999999999999996 25.922000885009762 3.0
    vertex 1.1715729236602783 43.828426361083984 3.0
  endloop
endfacet
facet normal -0.0 -0.0 1.0
  outer loop
    vertex 1.1715729236602783 43.828426361083984 3.0
    vertex 2.4999999999999996 25.922000885009762 3.0
    vertex 1.9999999999999998 44.464099884033196 3.0
  endloop
endfacet
facet normal -0.0 -0.0 1.0
  outer loop
    vertex 1.9999999999999998 44.464099884033196 3.0
    vertex 2.4999999999999996 25.922000885009762 3.0
    vertex 2.964723825454712 44.86370468139648 3.0
  endloop
endfacet
facet normal -0.0 -0.0 1.0
  outer loop
    vertex 24.52499961853027 34.29264043425212 1.5
    vertex 9.22499961853027 40.29264043425213 1.5
    vertex 9.22499961853027 34.29264043425212 1.5
  endloop
endfacet
facet normal -0.0 -0.0 1.0
  outer loop
    vertex 9.22499961853027 40.29264043425213 1.5
    vertex 24.52499961853027 34.29264043425212 1.5
    vertex 24.52499961853027 40.29264043425213 1.5
  endloop
endfacet
facet normal -0.0 -0.0 1.0
  outer loop
    vertex 22.02499961853027 6.29264043425211 1.5
    vertex 11.72499961853027 14.29264043425211 1.5
    vertex 11.72499961853027 6.29264043425211 1.5
  endloop
endfacet
facet normal -0.0 -0.0 1.0
  outer loop
    vertex 11.72499961853027 14.29264043425211 1.5
    vertex 22.02499961853027 6.29264043425211 1.5
    vertex 22.02499961853027 14.29264043425211 1.5
  endloop
endfacet
facet normal 0.0 -1.0 0.0
  outer loop
    vertex 24.52499961853027 40.29264043425213 3.0
    vertex 9.22499961853027 40.29264043425213 1.5
    vertex 24.52499961853027 40.29264043425213 1.5
  endloop
endfacet
facet normal 0.0 -1.0 0.0
  outer loop
    vertex 9.22499961853027 40.29264043425213 1.5
    vertex 24.52499961853027 40.29264043425213 3.0
    vertex 9.22499961853027 40.29264043425213 3.0
  endloop
endfacet
facet normal 0.0 0.0 -1.0
  outer loop
    vertex 67.58100128173828 2.4999999999999996 0.0
    vertex 68.69999999999999 9.5 0.0
    vertex 77.58100128173828 2.4999999999999996 0.0
  endloop
endfacet
facet normal 0.0 0.0 -1.0
  outer loop
    vertex 68.69999999999999 9.5 0.0
    vertex 67.58100128173828 2.4999999999999996 0.0
    vertex 68.69999999999999 17.5 0.0
  endloop
endfacet
facet normal 0.0 0.0 -1.0
  outer loop
    vertex 77.58100128173828 2.4999999999999996 0.0
    vertex 68.69999999999999 9.5 0.0
    vertex 82.0 9.5 0.0
  endloop
endfacet
facet normal 0.0 0.0 -1.0
  outer loop
    vertex 77.58100128173828 2.4999999999999996 0.0
    vertex 82.0 9.5 0.0
    vertex 77.58100128173828 0.49999999999999994 0.0
  endloop
endfacet
facet normal 0.0 0.0 -1.0
  outer loop
    vertex 3.9999999999999996 45.0 0.0
    vertex 12.024999618530273 44.5 0.0
    vertex 9.22499961853027 34.29264043425212 0.0
  endloop
endfacet
facet normal 0.0 0.0 -1.0
  outer loop
    vertex 12.024999618530273 44.5 0.0
    vertex 3.9999999999999996 45.0 0.0
    vertex 85.99999999999999 45.0 0.0
  endloop
endfacet
facet normal 0.0 0.0 -1.0
  outer loop
    vertex 12.024999618530273 44.5 0.0
    vertex 85.99999999999999 45.0 0.0
    vertex 22.02499961853027 44.5 0.0
  endloop
endfacet
facet normal 0.0 0.0 -1.0
  outer loop
    vertex 22.02499961853027 44.5 0.0
    vertex 85.99999999999999 45.0 0.0
    vertex 67.58100128173828 44.5 0.0
  endloop
endfacet
facet normal 0.0 0.0 -1.0
  outer loop
    vertex 22.02499961853027 44.5 0.0
    vertex 67.58100128173828 44.5 0.0
    vertex 22.02499961853027 42.49999999999999 0.0
  endloop
endfacet
facet normal 0.0 0.0 -1.0
  outer loop
    vertex 22.02499961853027 42.49999999999999 0.0
    vertex 67.58100128173828 44.5 0.0
    vertex 24.52499961853027 34.29264043425212 0.0
  endloop
endfacet
facet normal 0.0 0.0 -1.0
  outer loop
    vertex 24.52499961853027 34.29264043425212 0.0
    vertex 67.58100128173828 44.5 0.0
    vertex 24.52499961853027 14.29264043425211 0.0
  endloop
endfacet
facet normal 0.0 0.0 -1.0
  outer loop
    vertex 24.52499961853027 14.29264043425211 0.0
    vertex 67.58100128173828 44.5 0.0
    vertex 61.0 36.7720266529214 0.0
  endloop
endfacet
facet normal 0.0 0.0 -1.0
  outer loop
    vertex 24.52499961853027 14.29264043425211 0.0
    vertex 61.0 36.7720266529214 0.0
    vertex 51.49999999999999 17.5 0.0
  endloop
endfacet
facet normal 0.0 0.0 -1.0
  outer loop
    vertex 67.58100128173828 44.5 0.0
    vertex 85.99999999999999 45.0 0.0
    vertex 77.58100128173828 44.5 0.0
  endloop
endfacet
facet normal 0.0 0.0 -1.0
  outer loop
    vertex 77.58100128173828 44.5 0.0
    vertex 85.99999999999999 45.0 0.0
    vertex 77.58100128173828 42.49999999999999 0.0
  endloop
endfacet
facet normal 0.0 0.0 -1.0
  outer loop
    vertex 77.58100128173828 42.49999999999999 0.0
    vertex 85.99999999999999 45.0 0.0
    vertex 82.0 36.7720266529214 0.0
  endloop
endfacet
facet normal 0.0 0.0 -1.0
  outer loop
    vertex 82.0 36.7720266529214 0.0
    vertex 85.99999999999999 45.0 0.0
    vertex 82.0 24.772026652921394 0.0
  endloop
endfacet
facet normal 0.0 0.0 -1.0
  outer loop
    vertex 82.0 24.772026652921394 0.0
    vertex 85.99999999999999 45.0 0.0
    vertex 82.0 23.772026652921397 0.0
  endloop
endfacet
facet normal 0.0 0.0 -1.0
  outer loop
    vertex 82.0 23.772026652921397 0.0
    vertex 85.99999999999999 45.0 0.0
    vertex 82.0 17.5 0.0
  endloop
endfacet
facet normal 0.0 0.0 -1.0
  outer loop
    vertex 82.0 17.5 0.0
    vertex 85.99999999999999 45.0 0.0
    vertex 82.0 9.5 0.0
  endloop
endfacet
facet normal 0.0 0.0 -1.0
  outer loop
    vertex 88.0 44.464099884033196 0.0
    vertex 87.5 25.922000885009762 0.0
    vertex 87.0352783203125 44.86370468139648 0.0
  endloop
endfacet
facet normal 0.0 0.0 -1.0
  outer loop
    vertex 87.5 25.922000885009762 0.0
    vertex 88.0 44.464099884033196 0.0
    vertex 89.5 25.922000885009762 0.0
  endloop
endfacet
facet normal 0.0 0.0 -1.0
  outer loop
    vertex 89.5 25.922000885009762 0.0
    vertex 88.0 44.464099884033196 0.0
    vertex 88.82843017578124 43.828426361083984 0.0
  endloop
endfacet
facet normal 0.0 0.0 -1.0
  outer loop
    vertex 89.5 25.922000885009762 0.0
    vertex 88.82843017578124 43.828426361083984 0.0
    vertex 89.46410369873047 42.99999999999999 0.0
  endloop
endfacet
facet normal 0.0 0.0 -1.0
  outer loop
    vertex 89.5 25.922000885009762 0.0
    vertex 89.46410369873047 42.99999999999999 0.0
    vertex 89.86370086669922 42.035274505615234 0.0
  endloop
endfacet
facet normal 0.0 0.0 -1.0
  outer loop
    vertex 89.5 25.922000885009762 0.0
    vertex 89.86370086669922 42.035274505615234 0.0
    vertex 89.5 15.92199993133545 0.0
  endloop
endfacet
facet normal 0.0 0.0 -1.0
  outer loop
    vertex 0.13629668951034543 42.035274505615234 0.0
    vertex 0.0 0.0 0.0
    vertex -3.2369167567679324e-14 41.0 0.0
  endloop
endfacet
facet normal 0.0 0.0 -1.0
  outer loop
    vertex 0.0 0.0 0.0
    vertex 0.13629668951034543 42.035274505615234 0.0
    vertex 0.49999999999999994 15.92199993133545 0.0
  endloop
endfacet
facet normal 0.0 0.0 -1.0
  outer loop
    vertex 0.0 0.0 0.0
    vertex 0.49999999999999994 15.92199993133545 0.0
    vertex 12.024999618530273 0.49999999999999994 0.0
  endloop
endfacet
facet normal 0.0 0.0 -1.0
  outer loop
    vertex 0.0 0.0 0.0
    vertex 12.024999618530273 0.49999999999999994 0.0
    vertex 90.0 0.0 0.0
  endloop
endfacet
facet normal 0.0 0.0 -1.0
  outer loop
    vertex 0.49999999999999994 15.92199993133545 0.0
    vertex 0.13629668951034543 42.035274505615234 0.0
    vertex 0.49999999999999994 25.922000885009762 0.0
  endloop
endfacet
facet normal 0.0 0.0 -1.0
  outer loop
    vertex 12.024999618530273 0.49999999999999994 0.0
    vertex 0.49999999999999994 15.92199993133545 0.0
    vertex 2.4999999999999996 15.92199993133545 0.0
  endloop
endfacet
facet normal 0.0 0.0 -1.0
  outer loop
    vertex 12.024999618530273 0.49999999999999994 0.0
    vertex 2.4999999999999996 15.92199993133545 0.0
    vertex 2.964723825454712 44.86370468139648 0.0
  endloop
endfacet
facet normal 0.0 0.0 -1.0
  outer loop
    vertex 12.024999618530273 0.49999999999999994 0.0
    vertex 2.964723825454712 44.86370468139648 0.0
    vertex 9.22499961853027 14.29264043425211 0.0
  endloop
endfacet
facet normal 0.0 0.0 -1.0
  outer loop
    vertex 9.22499961853027 14.29264043425211 0.0
    vertex 2.964723825454712 44.86370468139648 0.0
    vertex 3.9999999999999996 45.0 0.0
  endloop
endfacet
facet normal 0.0 0.0 -1.0
  outer loop
    vertex 9.22499961853027 14.29264043425211 0.0
    vertex 3.9999999999999996 45.0 0.0
    vertex 9.22499961853027 34.29264043425212 0.0
  endloop
endfacet
facet normal 0.0 0.0 -1.0
  outer loop
    vertex 12.024999618530273 0.49999999999999994 0.0
    vertex 9.22499961853027 14.29264043425211 0.0
    vertex 12.024999618530273 2.4999999999999996 0.0
  endloop
endfacet
facet normal 0.0 0.0 -1.0
  outer loop
    vertex 90.0 0.0 0.0
    vertex 12.024999618530273 0.49999999999999994 0.0
    vertex 22.02499961853027 0.49999999999999994 0.0
  endloop
endfacet
facet normal 0.0 0.0 -1.0
  outer loop
    vertex 90.0 0.0 0.0
    vertex 22.02499961853027 0.49999999999999994 0.0
    vertex 67.58100128173828 0.49999999999999994 0.0
  endloop
endfacet
facet normal 0.0 0.0 -1.0
  outer loop
    vertex 67.58100128173828 0.49999999999999994 0.0
    vertex 22.02499961853027 0.49999999999999994 0.0
    vertex 24.52499961853027 14.29264043425211 0.0
  endloop
endfacet
facet normal 0.0 0.0 -1.0
  outer loop
    vertex 67.58100128173828 0.49999999999999994 0.0
    vertex 24.52499961853027 14.29264043425211 0.0
    vertex 51.49999999999999 6.499999999999999 0.0
  endloop
endfacet
facet normal 0.0 0.0 -1.0
  outer loop
    vertex 51.49999999999999 6.499999999999999 0.0
    vertex 24.52499961853027 14.29264043425211 0.0
    vertex 51.49999999999999 17.5 0.0
  endloop
endfacet
facet normal 0.0 0.0 -1.0
  outer loop
    vertex 67.58100128173828 0.49999999999999994 0.0
    vertex 51.49999999999999 6.499999999999999 0.0
    vertex 61.0 6.499999999999999 0.0
  endloop
endfacet
facet normal 0.0 0.0 -1.0
  outer loop
    vertex 67.58100128173828 0.49999999999999994 0.0
    vertex 61.0 6.499999999999999 0.0
    vertex 67.58100128173828 2.4999999999999996 0.0
  endloop
endfacet
facet normal 0.0 0.0 -1.0
  outer loop
    vertex 90.0 0.0 0.0
    vertex 67.58100128173828 0.49999999999999994 0.0
    vertex 77.58100128173828 0.49999999999999994 0.0
  endloop
endfacet
facet normal 0.0 0.0 -1.0
  outer loop
    vertex 90.0 0.0 0.0
    vertex 77.58100128173828 0.49999999999999994 0.0
    vertex 82.0 9.5 0.0
  endloop
endfacet
facet normal 0.0 0.0 -1.0
  outer loop
    vertex 90.0 0.0 0.0
    vertex 82.0 9.5 0.0
    vertex 87.5 15.92199993133545 0.0
  endloop
endfacet
facet normal 0.0 0.0 -1.0
  outer loop
    vertex 87.5 15.92199993133545 0.0
    vertex 82.0 9.5 0.0
    vertex 85.99999999999999 45.0 0.0
  endloop
endfacet
facet normal 0.0 0.0 -1.0
  outer loop
    vertex 87.5 15.92199993133545 0.0
    vertex 85.99999999999999 45.0 0.0
    vertex 87.0352783203125 44.86370468139648 0.0
  endloop
endfacet
facet normal 0.0 0.0 -1.0
  outer loop
    vertex 87.5 15.92199993133545 0.0
    vertex 87.0352783203125 44.86370468139648 0.0
    vertex 87.5 25.922000885009762 0.0
  endloop
endfacet
facet normal 0.0 0.0 -1.0
  outer loop
    vertex 90.0 0.0 0.0
    vertex 87.5 15.92199993133545 0.0
    vertex 89.5 15.92199993133545 0.0
  endloop
endfacet
facet normal 0.0 0.0 -1.0
  outer loop
    vertex 90.0 0.0 0.0
    vertex 89.5 15.92199993133545 0.0
    vertex 89.86370086669922 42.035274505615234 0.0
  endloop
endfacet
facet normal 0.0 0.0 -1.0
  outer loop
    vertex 90.0 0.0 0.0
    vertex 89.86370086669922 42.035274505615234 0.0
    vertex 90.0 41.0 0.0
  endloop
endfacet
facet normal 0.0 0.0 -1.0
  outer loop
    vertex 61.0 36.7720266529214 0.0
    vertex 61.0 17.5 0.0
    vertex 51.49999999999999 17.5 0.0
  endloop
endfacet
facet normal 0.0 0.0 -1.0
  outer loop
    vertex 61.0 17.5 0.0
    vertex 61.0 36.7720266529214 0.0
    vertex 61.0 23.772026652921397 0.0
  endloop
endfacet
facet normal 0.0 0.0 -1.0
  outer loop
    vertex 61.0 17.5 0.0
    vertex 61.0 23.772026652921397 0.0
    vertex 82.0 23.772026652921397 0.0
  endloop
endfacet
facet normal 0.0 0.0 -1.0
  outer loop
    vertex 61.0 17.5 0.0
    vertex 82.0 23.772026652921397 0.0
    vertex 68.69999999999999 17.5 0.0
  endloop
endfacet
facet normal 0.0 0.0 -1.0
  outer loop
    vertex 61.0 17.5 0.0
    vertex 68.69999999999999 17.5 0.0
    vertex 61.0 6.499999999999999 0.0
  endloop
endfacet
facet normal 0.0 0.0 -1.0
  outer loop
    vertex 61.0 6.499999999999999 0.0
    vertex 68.69999999999999 17.5 0.0
    vertex 67.58100128173828 2.4999999999999996 0.0
  endloop
endfacet
facet normal 0.0 0.0 -1.0
  outer loop
    vertex 68.69999999999999 17.5 0.0
    vertex 82.0 23.772026652921397 0.0
    vertex 82.0 17.5 0.0
  endloop
endfacet
facet normal 0.0 0.0 -1.0
  outer loop
    vertex 61.0 36.7720266529214 0.0
    vertex 67.58100128173828 42.49999999999999 0.0
    vertex 82.0 36.7720266529214 0.0
  endloop
endfacet
facet normal 0.0 0.0 -1.0
  outer loop
    vertex 67.58100128173828 42.49999999999999 0.0
    vertex 61.0 36.7720266529214 0.0
    vertex 67.58100128173828 44.5 0.0
  endloop
endfacet
facet normal 0.0 0.0 -1.0
  outer loop
    vertex 82.0 36.7720266529214 0.0
    vertex 67.58100128173828 42.49999999999999 0.0
    vertex 77.58100128173828 42.49999999999999 0.0
  endloop
endfacet
facet normal 0.0 0.0 -1.0
  outer loop
    vertex 24.52499961853027 14.29264043425211 0.0
    vertex 12.024999618530273 2.4999999999999996 0.0
    vertex 9.22499961853027 14.29264043425211 0.0
  endloop
endfacet
facet normal 0.0 0.0 -1.0
  outer loop
    vertex 12.024999618530273 2.4999999999999996 0.0
    vertex 24.52499961853027 14.29264043425211 0.0
    vertex 22.02499961853027 2.4999999999999996 0.0
  endloop
endfacet
facet normal 0.0 0.0 -1.0
  outer loop
    vertex 22.02499961853027 2.4999999999999996 0.0
    vertex 24.52499961853027 14.29264043425211 0.0
    vertex 22.02499961853027 0.49999999999999994 0.0
  endloop
endfacet
facet normal 0.0 0.0 -1.0
  outer loop
    vertex 9.22499961853027 34.29264043425212 0.0
    vertex 12.024999618530273 42.49999999999999 0.0
    vertex 24.52499961853027 34.29264043425212 0.0
  endloop
endfacet
facet normal 0.0 0.0 -1.0
  outer loop
    vertex 12.024999618530273 42.49999999999999 0.0
    vertex 9.22499961853027 34.29264043425212 0.0
    vertex 12.024999618530273 44.5 0.0
  endloop
endfacet
facet normal 0.0 0.0 -1.0
  outer loop
    vertex 24.52499961853027 34.29264043425212 0.0
    vertex 12.024999618530273 42.49999999999999 0.0
    vertex 22.02499961853027 42.49999999999999 0.0
  endloop
endfacet
facet normal 0.0 0.0 -1.0
  outer loop
    vertex 0.5358983874320983 42.99999999999999 0.0
    vertex 0.49999999999999994 25.922000885009762 0.0
    vertex 0.13629668951034543 42.035274505615234 0.0
  endloop
endfacet
facet normal 0.0 0.0 -1.0
  outer loop
    vertex 0.49999999999999994 25.922000885009762 0.0
    vertex 0.5358983874320983 42.99999999999999 0.0
    vertex 2.4999999999999996 25.922000885009762 0.0
  endloop
endfacet
facet normal 0.0 0.0 -1.0
  outer loop
    vertex 2.4999999999999996 25.922000885009762 0.0
    vertex 0.5358983874320983 42.99999999999999 0.0
    vertex 1.1715729236602783 43.828426361083984 0.0
  endloop
endfacet
facet normal 0.0 0.0 -1.0
  outer loop
    vertex 2.4999999999999996 25.922000885009762 0.0
    vertex 1.1715729236602783 43.828426361083984 0.0
    vertex 1.9999999999999998 44.464099884033196 0.0
  endloop
endfacet
facet normal 0.0 0.0 -1.0
  outer loop
    vertex 2.4999999999999996 25.922000885009762 0.0
    vertex 1.9999999999999998 44.464099884033196 0.0
    vertex 2.964723825454712 44.86370468139648 0.0
  endloop
endfacet
facet normal 0.0 0.0 -1.0
  outer loop
    vertex 2.4999999999999996 25.922000885009762 0.0
    vertex 2.964723825454712 44.86370468139648 0.0
    vertex 2.4999999999999996 15.92199993133545 0.0
  endloop
endfacet
facet normal 0.0 -1.0 0.0
  outer loop
    vertex 22.02499961853027 44.5 3.0
    vertex 12.024999618530273 44.5 0.0
    vertex 22.02499961853027 44.5 0.0
  endloop
endfacet
facet normal 0.0 -1.0 0.0
  outer loop
    vertex 12.024999618530273 44.5 0.0
    vertex 22.02499961853027 44.5 3.0
    vertex 12.024999618530273 44.5 3.0
  endloop
endfacet
facet normal 0.0 1.0 0.0
  outer loop
    vertex 11.72499961853027 6.29264043425211 3.0
    vertex 22.02499961853027 6.29264043425211 1.5
    vertex 11.72499961853027 6.29264043425211 1.5
  endloop
endfacet
facet normal 0.0 1.0 0.0
  outer loop
    vertex 22.02499961853027 6.29264043425211 1.5
    vertex 11.72499961853027 6.29264043425211 3.0
    vertex 22.02499961853027 6.29264043425211 3.0
  endloop
endfacet
facet normal 1.0 -0.0 -0.0
  outer loop
    vertex 11.72499961853027 14.29264043425211 1.5
    vertex 11.72499961853027 6.29264043425211 3.0
    vertex 11.72499961853027 6.29264043425211 1.5
  endloop
endfacet
facet normal 1.0 -0.0 -0.0
  outer loop
    vertex 11.72499961853027 6.29264043425211 3.0
    vertex 11.72499961853027 14.29264043425211 1.5
    vertex 11.72499961853027 14.29264043425211 3.0
  endloop
endfacet
facet normal -1.0 0.0 0.0
  outer loop
    vertex 22.02499961853027 14.29264043425211 3.0
    vertex 22.02499961853027 6.29264043425211 1.5
    vertex 22.02499961853027 6.29264043425211 3.0
  endloop
endfacet
facet normal -1.0 0.0 0.0
  outer loop
    vertex 22.02499961853027 6.29264043425211 1.5
    vertex 22.02499961853027 14.29264043425211 3.0
    vertex 22.02499961853027 14.29264043425211 1.5
  endloop
endfacet
facet normal -1.0 -0.0 -0.0
  outer loop
    vertex 82.0 24.772026652921394 3.0
    vertex 82.0 23.772026652921397 0.0
    vertex 82.0 23.772026652921397 3.0
  endloop
endfacet
facet normal -1.0 -0.0 -0.0
  outer loop
    vertex 82.0 23.772026652921397 0.0
    vertex 82.0 24.772026652921394 3.0
    vertex 82.0 24.772026652921394 0.0
  endloop
endfacet
facet normal 0.0 1.0 0.0
  outer loop
    vertex 61.0 23.772026652921397 3.0
    vertex 82.0 23.772026652921397 0.0
    vertex 61.0 23.772026652921397 0.0
  endloop
endfacet
facet normal 0.0 1.0 0.0
  outer loop
    vertex 82.0 23.772026652921397 0.0
    vertex 61.0 23.772026652921397 3.0
    vertex 82.0 23.772026652921397 3.0
  endloop
endfacet
facet normal 1.0 -0.0 -0.0
  outer loop
    vertex 61.0 36.7720266529214 0.0
    vertex 61.0 23.772026652921397 3.0
    vertex 61.0 23.772026652921397 0.0
  endloop
endfacet
facet normal 1.0 -0.0 -0.0
  outer loop
    vertex 61.0 23.772026652921397 3.0
    vertex 61.0 36.7720266529214 0.0
    vertex 61.0 36.7720266529214 3.0
  endloop
endfacet
facet normal 0.0 -1.0 -0.0
  outer loop
    vertex 82.0 36.7720266529214 3.0
    vertex 61.0 36.7720266529214 0.0
    vertex 82.0 36.7720266529214 0.0
  endloop
endfacet
facet normal 0.0 -1.0 -0.0
  outer loop
    vertex 61.0 36.7720266529214 0.0
    vertex 82.0 36.7720266529214 3.0
    vertex 61.0 36.7720266529214 3.0
  endloop
endfacet
facet normal -1.0 -0.0 -0.0
  outer loop
    vertex 82.0 36.7720266529214 3.0
    vertex 82.0 24.772026652921394 0.0
    vertex 82.0 24.772026652921394 3.0
  endloop
endfacet
facet normal -1.0 -0.0 -0.0
  outer loop
    vertex 82.0 24.772026652921394 0.0
    vertex 82.0 36.7720266529214 3.0
    vertex 82.0 36.7720266529214 0.0
  endloop
endfacet
facet normal 1.0 0.0 0.0
  outer loop
    vertex 51.49999999999999 17.5 0.0
    vertex 51.49999999999999 6.499999999999999 3.0
    vertex 51.49999999999999 6.499999999999999 0.0
  endloop
endfacet
facet normal 1.0 0.0 0.0
  outer loop
    vertex 51.49999999999999 6.499999999999999 3.0
    vertex 51.49999999999999 17.5 0.0
    vertex 51.49999999999999 17.5 3.0
  endloop
endfacet
facet normal -0.0 1.0 -0.0
  outer loop
    vertex 51.49999999999999 6.499999999999999 3.0
    vertex 61.0 6.499999999999999 0.0
    vertex 51.49999999999999 6.499999999999999 0.0
  endloop
endfacet
facet normal -0.0 1.0 -0.0
  outer loop
    vertex 61.0 6.499999999999999 0.0
    vertex 51.49999999999999 6.499999999999999 3.0
    vertex 61.0 6.499999999999999 3.0
  endloop
endfacet
facet normal -1.0 0.0 -0.0
  outer loop
    vertex 61.0 17.5 3.0
    vertex 61.0 6.499999999999999 0.0
    vertex 61.0 6.499999999999999 3.0
  endloop
endfacet
facet normal -1.0 0.0 -0.0
  outer loop
    vertex 61.0 6.499999999999999 0.0
    vertex 61.0 17.5 3.0
    vertex 61.0 17.5 0.0
  endloop
endfacet
facet normal -0.0 -1.0 -0.0
  outer loop
    vertex 61.0 17.5 3.0
    vertex 51.49999999999999 17.5 0.0
    vertex 61.0 17.5 0.0
  endloop
endfacet
facet normal -0.0 -1.0 -0.0
  outer loop
    vertex 51.49999999999999 17.5 0.0
    vertex 61.0 17.5 3.0
    vertex 51.49999999999999 17.5 3.0
  endloop
endfacet
endsolid back
