G04 #@! TF.GenerationSoftware,KiCad,Pcbnew,(5.0.1-3-g963ef8bb5)*
G04 #@! TF.CreationDate,2019-03-18T17:39:01-03:00*
G04 #@! TF.ProjectId,CapaceteV3,436170616365746556332E6B69636164,rev?*
G04 #@! TF.SameCoordinates,Original*
G04 #@! TF.FileFunction,Copper,L2,Bot,Signal*
G04 #@! TF.FilePolarity,Positive*
%FSLAX46Y46*%
G04 Gerber Fmt 4.6, Leading zero omitted, Abs format (unit mm)*
G04 Created by KiCad (PCBNEW (5.0.1-3-g963ef8bb5)) date Monday, March 18, 2019 at 05:39:01 PM*
%MOMM*%
%LPD*%
G01*
G04 APERTURE LIST*
G04 #@! TA.AperFunction,ComponentPad*
%ADD10C,1.000000*%
G04 #@! TD*
G04 #@! TA.AperFunction,SMDPad,CuDef*
%ADD11R,0.300000X3.500000*%
G04 #@! TD*
G04 #@! TA.AperFunction,ComponentPad*
%ADD12C,0.304800*%
G04 #@! TD*
G04 #@! TA.AperFunction,Conductor*
%ADD13C,0.250000*%
G04 #@! TD*
G04 APERTURE END LIST*
D10*
G04 #@! TO.P,REF\002A\002A,1*
G04 #@! TO.N,N/C*
X157400000Y-100000000D03*
G04 #@! TD*
G04 #@! TO.P,REF\002A\002A,1*
G04 #@! TO.N,N/C*
X149100000Y-100000000D03*
G04 #@! TD*
D11*
G04 #@! TO.P,Edge2,1*
G04 #@! TO.N,Net-(Edge1-Pad20)*
X158003240Y-106677400D03*
G04 #@! TO.P,Edge2,2*
G04 #@! TO.N,Net-(Edge1-Pad19)*
X157503240Y-106677400D03*
G04 #@! TO.P,Edge2,3*
G04 #@! TO.N,Net-(Edge1-Pad18)*
X157003240Y-106677400D03*
G04 #@! TO.P,Edge2,4*
G04 #@! TO.N,Net-(Edge1-Pad17)*
X156503240Y-106677400D03*
G04 #@! TO.P,Edge2,5*
G04 #@! TO.N,Net-(Edge1-Pad16)*
X156003240Y-106677400D03*
G04 #@! TO.P,Edge2,6*
G04 #@! TO.N,Net-(Edge1-Pad15)*
X155503240Y-106677400D03*
G04 #@! TO.P,Edge2,7*
G04 #@! TO.N,Net-(Edge1-Pad14)*
X155003240Y-106677400D03*
G04 #@! TO.P,Edge2,8*
G04 #@! TO.N,Net-(Edge1-Pad13)*
X154503240Y-106677400D03*
G04 #@! TO.P,Edge2,9*
G04 #@! TO.N,Net-(Edge1-Pad12)*
X154003240Y-106677400D03*
G04 #@! TO.P,Edge2,10*
G04 #@! TO.N,Net-(Edge1-Pad11)*
X153503240Y-106677400D03*
G04 #@! TO.P,Edge2,11*
G04 #@! TO.N,Net-(Edge1-Pad10)*
X153003240Y-106677400D03*
G04 #@! TO.P,Edge2,12*
G04 #@! TO.N,Net-(Edge1-Pad9)*
X152503240Y-106677400D03*
G04 #@! TO.P,Edge2,13*
G04 #@! TO.N,Net-(Edge1-Pad8)*
X152003240Y-106677400D03*
G04 #@! TO.P,Edge2,14*
G04 #@! TO.N,Net-(Edge1-Pad7)*
X151503240Y-106677400D03*
G04 #@! TO.P,Edge2,15*
G04 #@! TO.N,Net-(Edge1-Pad6)*
X151003240Y-106677400D03*
G04 #@! TO.P,Edge2,16*
G04 #@! TO.N,Net-(Edge1-Pad5)*
X150503240Y-106677400D03*
G04 #@! TO.P,Edge2,17*
G04 #@! TO.N,Net-(Edge1-Pad4)*
X150003240Y-106677400D03*
G04 #@! TO.P,Edge2,18*
G04 #@! TO.N,Net-(Edge1-Pad3)*
X149503240Y-106677400D03*
G04 #@! TO.P,Edge2,19*
G04 #@! TO.N,Net-(Edge1-Pad2)*
X149003240Y-106677400D03*
G04 #@! TO.P,Edge2,20*
G04 #@! TO.N,Net-(Edge1-Pad1)*
X148503240Y-106677400D03*
G04 #@! TD*
D12*
G04 #@! TO.P,Holes1,1*
G04 #@! TO.N,Net-(Edge1-Pad1)*
X148513800Y-102250000D03*
G04 #@! TO.P,Holes1,2*
G04 #@! TO.N,Net-(Edge1-Pad2)*
X149013800Y-103250000D03*
G04 #@! TO.P,Holes1,3*
G04 #@! TO.N,Net-(Edge1-Pad3)*
X149513800Y-102250000D03*
G04 #@! TO.P,Holes1,4*
G04 #@! TO.N,Net-(Edge1-Pad4)*
X150013800Y-103250000D03*
G04 #@! TO.P,Holes1,5*
G04 #@! TO.N,Net-(Edge1-Pad5)*
X150513800Y-102250000D03*
G04 #@! TO.P,Holes1,6*
G04 #@! TO.N,Net-(Edge1-Pad6)*
X151013800Y-103250000D03*
G04 #@! TO.P,Holes1,7*
G04 #@! TO.N,Net-(Edge1-Pad7)*
X151513800Y-102250000D03*
G04 #@! TO.P,Holes1,8*
G04 #@! TO.N,Net-(Edge1-Pad8)*
X152013800Y-103250000D03*
G04 #@! TO.P,Holes1,9*
G04 #@! TO.N,Net-(Edge1-Pad9)*
X152513800Y-102250000D03*
G04 #@! TO.P,Holes1,10*
G04 #@! TO.N,Net-(Edge1-Pad10)*
X153013800Y-103250000D03*
G04 #@! TO.P,Holes1,11*
G04 #@! TO.N,Net-(Edge1-Pad11)*
X153513800Y-102250000D03*
G04 #@! TO.P,Holes1,12*
G04 #@! TO.N,Net-(Edge1-Pad12)*
X154013800Y-103250000D03*
G04 #@! TO.P,Holes1,13*
G04 #@! TO.N,Net-(Edge1-Pad13)*
X154513800Y-102250000D03*
G04 #@! TO.P,Holes1,14*
G04 #@! TO.N,Net-(Edge1-Pad14)*
X155013800Y-103250000D03*
G04 #@! TO.P,Holes1,15*
G04 #@! TO.N,Net-(Edge1-Pad15)*
X155513800Y-102250000D03*
G04 #@! TO.P,Holes1,16*
G04 #@! TO.N,Net-(Edge1-Pad16)*
X156013800Y-103250000D03*
G04 #@! TO.P,Holes1,17*
G04 #@! TO.N,Net-(Edge1-Pad17)*
X156513800Y-102250000D03*
G04 #@! TO.P,Holes1,18*
G04 #@! TO.N,Net-(Edge1-Pad18)*
X157013800Y-103250000D03*
G04 #@! TO.P,Holes1,19*
G04 #@! TO.N,Net-(Edge1-Pad19)*
X157513800Y-102250000D03*
G04 #@! TO.P,Holes1,20*
G04 #@! TO.N,Net-(Edge1-Pad20)*
X158013800Y-103250000D03*
G04 #@! TD*
D13*
G04 #@! TO.N,Net-(Edge1-Pad1)*
X148513800Y-106666840D02*
X148503240Y-106677400D01*
X148513800Y-102250000D02*
X148513800Y-106666840D01*
G04 #@! TO.N,Net-(Edge1-Pad2)*
X149003240Y-103260560D02*
X149013800Y-103250000D01*
X149003240Y-106677400D02*
X149003240Y-103260560D01*
G04 #@! TO.N,Net-(Edge1-Pad3)*
X149513800Y-106666840D02*
X149503240Y-106677400D01*
X149513800Y-102250000D02*
X149513800Y-106666840D01*
G04 #@! TO.N,Net-(Edge1-Pad4)*
X150003240Y-103260560D02*
X150013800Y-103250000D01*
X150003240Y-106677400D02*
X150003240Y-103260560D01*
G04 #@! TO.N,Net-(Edge1-Pad5)*
X150513800Y-106666840D02*
X150503240Y-106677400D01*
X150513800Y-102250000D02*
X150513800Y-106666840D01*
G04 #@! TO.N,Net-(Edge1-Pad6)*
X151003240Y-103260560D02*
X151013800Y-103250000D01*
X151003240Y-106677400D02*
X151003240Y-103260560D01*
G04 #@! TO.N,Net-(Edge1-Pad7)*
X151513800Y-106666840D02*
X151503240Y-106677400D01*
X151513800Y-102250000D02*
X151513800Y-106666840D01*
G04 #@! TO.N,Net-(Edge1-Pad8)*
X152003240Y-103260560D02*
X152013800Y-103250000D01*
X152003240Y-106677400D02*
X152003240Y-103260560D01*
G04 #@! TO.N,Net-(Edge1-Pad9)*
X152513800Y-106666840D02*
X152503240Y-106677400D01*
X152513800Y-102250000D02*
X152513800Y-106666840D01*
G04 #@! TO.N,Net-(Edge1-Pad10)*
X153003240Y-103260560D02*
X153013800Y-103250000D01*
X153003240Y-106677400D02*
X153003240Y-103260560D01*
G04 #@! TO.N,Net-(Edge1-Pad11)*
X153513800Y-106666840D02*
X153503240Y-106677400D01*
X153513800Y-102250000D02*
X153513800Y-106666840D01*
G04 #@! TO.N,Net-(Edge1-Pad12)*
X154003240Y-103260560D02*
X154013800Y-103250000D01*
X154003240Y-106677400D02*
X154003240Y-103260560D01*
G04 #@! TO.N,Net-(Edge1-Pad13)*
X154513800Y-106666840D02*
X154503240Y-106677400D01*
X154513800Y-102250000D02*
X154513800Y-106666840D01*
G04 #@! TO.N,Net-(Edge1-Pad14)*
X155003240Y-103260560D02*
X155013800Y-103250000D01*
X155003240Y-106677400D02*
X155003240Y-103260560D01*
G04 #@! TO.N,Net-(Edge1-Pad15)*
X155513800Y-106666840D02*
X155503240Y-106677400D01*
X155513800Y-102250000D02*
X155513800Y-106666840D01*
G04 #@! TO.N,Net-(Edge1-Pad16)*
X156003240Y-103260560D02*
X156013800Y-103250000D01*
X156003240Y-106677400D02*
X156003240Y-103260560D01*
G04 #@! TO.N,Net-(Edge1-Pad17)*
X156513800Y-106666840D02*
X156503240Y-106677400D01*
X156513800Y-102250000D02*
X156513800Y-106666840D01*
G04 #@! TO.N,Net-(Edge1-Pad18)*
X157003240Y-103260560D02*
X157013800Y-103250000D01*
X157003240Y-106677400D02*
X157003240Y-103260560D01*
G04 #@! TO.N,Net-(Edge1-Pad19)*
X157513800Y-106666840D02*
X157503240Y-106677400D01*
X157513800Y-102250000D02*
X157513800Y-106666840D01*
G04 #@! TO.N,Net-(Edge1-Pad20)*
X158003240Y-103260560D02*
X158013800Y-103250000D01*
X158003240Y-106677400D02*
X158003240Y-103260560D01*
G04 #@! TD*
M02*
