M48
;DRILL file {KiCad (5.0.1-3-g963ef8bb5)} date Monday, March 18, 2019 at 05:32:31 PM
;FORMAT={-:-/ absolute / inch / decimal}
FMAT,2
INCH,TZ
T1C0.0201
T2C0.0315
T3C0.0315
T4C0.0394
T5C0.0394
T6C0.0472
%
G90
G05
M72
T1
X4.5Y-3.15
X4.6Y-3.25
X4.7Y-3.15
T2
X3.2874Y-2.3622
X3.2874Y-2.4622
X3.2874Y-2.5622
X3.2874Y-2.6622
X3.2874Y-2.7622
X3.2874Y-2.8622
X3.2874Y-2.9622
X3.2874Y-3.0622
X3.2874Y-3.2622
X3.2874Y-3.3622
X3.2874Y-3.4622
X3.2874Y-3.5622
X3.2874Y-3.6622
X3.2874Y-3.7622
X5.1874Y-2.0024
X5.1874Y-2.1024
X5.1874Y-2.2024
X5.1874Y-2.3024
X5.1874Y-2.4024
X5.1874Y-2.5024
X5.1874Y-2.6024
X5.1874Y-2.7024
X5.1874Y-2.8024
X5.1874Y-2.9024
X5.1874Y-3.0622
X5.1874Y-3.1622
X5.1874Y-3.2622
X5.1874Y-3.3622
X5.1874Y-3.4622
X5.1874Y-3.5622
X5.1874Y-3.6622
X5.1874Y-3.7622
X3.8976Y-3.1299
X3.8976Y-3.2283
X4.15Y-2.
X4.15Y-2.1
X4.15Y-2.2
X4.15Y-2.3
X4.15Y-2.4
X4.15Y-2.5
X4.15Y-2.6
X4.45Y-2.
X4.45Y-2.1
X4.45Y-2.2
X4.45Y-2.3
X4.45Y-2.4
X4.45Y-2.5
X4.45Y-2.6
X4.7Y-2.6
X3.6122Y-2.5984
T3
X4.7Y-2.5016
X3.6122Y-2.5
T4
X3.0906Y-2.7559
X3.0906Y-2.8559
X3.0906Y-2.4606
X3.0906Y-2.5606
X3.0906Y-2.2067
X3.0906Y-2.3067
X3.0886Y-1.9469
X3.0886Y-2.0469
X3.0906Y-3.0118
X3.0906Y-3.1118
X5.374Y-3.0598
X5.374Y-3.1598
X5.374Y-3.2598
X5.374Y-3.3598
X5.374Y-3.4598
X5.374Y-3.5598
X5.374Y-3.6598
X5.374Y-3.7598
X5.374Y-2.0047
X5.374Y-2.1047
X5.374Y-2.2047
X5.374Y-2.3937
X5.374Y-2.4937
X5.374Y-2.5937
X5.374Y-2.6937
X5.374Y-2.7937
X5.374Y-2.8937
X3.0906Y-3.2598
X3.0906Y-3.3598
X3.0906Y-3.4598
X3.0906Y-3.5598
X3.0906Y-3.6598
X3.0906Y-3.7598
X4.7047Y-2.0047
X4.7047Y-2.1047
X4.7047Y-2.2047
X5.374Y-1.5945
X5.374Y-1.6945
X5.374Y-1.7945
X3.0906Y-1.6929
X3.0906Y-1.7929
T5
X4.2815Y-3.5008
X4.2815Y-3.9008
X3.9764Y-3.5008
X3.9764Y-3.9008
X3.7106Y-3.5008
X3.7106Y-3.9008
X3.8976Y-2.4969
X3.8976Y-2.8969
X3.4Y-1.3846
X3.4Y-1.7846
X3.7008Y-1.3846
X3.7008Y-1.7846
T6
X3.9Y-4.2
X4.Y-4.2
X5.0394Y-4.1929
X5.1394Y-4.1929
X5.2394Y-4.1929
X3.2579Y-4.1929
X3.3579Y-4.1929
X3.4579Y-4.1929
X3.5579Y-4.1929
X4.3949Y-4.1929
X4.4949Y-4.1929
X4.5949Y-4.1929
X4.6949Y-4.1929
T0
M30
