G04 #@! TF.GenerationSoftware,KiCad,Pcbnew,(5.0.1-3-g963ef8bb5)*
G04 #@! TF.CreationDate,2019-03-18T17:32:53-03:00*
G04 #@! TF.ProjectId,NNC_monitor,4E4E435F6D6F6E69746F722E6B696361,rev?*
G04 #@! TF.SameCoordinates,Original*
G04 #@! TF.FileFunction,Copper,L1,Top,Signal*
G04 #@! TF.FilePolarity,Positive*
%FSLAX46Y46*%
G04 Gerber Fmt 4.6, Leading zero omitted, Abs format (unit mm)*
G04 Created by KiCad (PCBNEW (5.0.1-3-g963ef8bb5)) date Monday, March 18, 2019 at 05:32:53 PM*
%MOMM*%
%LPD*%
G01*
G04 APERTURE LIST*
G04 #@! TA.AperFunction,ComponentPad*
%ADD10R,1.700000X1.700000*%
G04 #@! TD*
G04 #@! TA.AperFunction,ComponentPad*
%ADD11O,1.700000X1.700000*%
G04 #@! TD*
G04 #@! TA.AperFunction,ComponentPad*
%ADD12O,1.600000X1.600000*%
G04 #@! TD*
G04 #@! TA.AperFunction,ComponentPad*
%ADD13R,1.600000X1.600000*%
G04 #@! TD*
G04 #@! TA.AperFunction,ComponentPad*
%ADD14C,1.300000*%
G04 #@! TD*
G04 #@! TA.AperFunction,ComponentPad*
%ADD15R,1.300000X1.300000*%
G04 #@! TD*
G04 #@! TA.AperFunction,ComponentPad*
%ADD16C,1.998980*%
G04 #@! TD*
G04 #@! TA.AperFunction,ComponentPad*
%ADD17C,1.510000*%
G04 #@! TD*
G04 #@! TA.AperFunction,ComponentPad*
%ADD18R,1.510000X1.510000*%
G04 #@! TD*
G04 #@! TA.AperFunction,ComponentPad*
%ADD19O,1.740000X2.200000*%
G04 #@! TD*
G04 #@! TA.AperFunction,Conductor*
%ADD20C,0.100000*%
G04 #@! TD*
G04 #@! TA.AperFunction,ComponentPad*
%ADD21C,1.740000*%
G04 #@! TD*
G04 #@! TA.AperFunction,Conductor*
%ADD22C,1.000000*%
G04 #@! TD*
G04 #@! TA.AperFunction,Conductor*
%ADD23C,0.250000*%
G04 #@! TD*
G04 #@! TA.AperFunction,Conductor*
%ADD24C,0.254000*%
G04 #@! TD*
G04 APERTURE END LIST*
D10*
G04 #@! TO.P,J13,1*
G04 #@! TO.N,3V3*
X78500000Y-56050000D03*
D11*
G04 #@! TO.P,J13,2*
X78500000Y-58590000D03*
G04 #@! TD*
G04 #@! TO.P,J15,3*
G04 #@! TO.N,Net-(J15-Pad3)*
X119500000Y-50920000D03*
G04 #@! TO.P,J15,2*
G04 #@! TO.N,Net-(J15-Pad2)*
X119500000Y-53460000D03*
D10*
G04 #@! TO.P,J15,1*
G04 #@! TO.N,Net-(J15-Pad1)*
X119500000Y-56000000D03*
G04 #@! TD*
D11*
G04 #@! TO.P,J8,2*
G04 #@! TO.N,+5V*
X78500000Y-79040000D03*
D10*
G04 #@! TO.P,J8,1*
X78500000Y-76500000D03*
G04 #@! TD*
G04 #@! TO.P,J10,1*
G04 #@! TO.N,+5V*
X78500000Y-70000000D03*
D11*
G04 #@! TO.P,J10,2*
X78500000Y-72540000D03*
G04 #@! TD*
G04 #@! TO.P,J14,6*
G04 #@! TO.N,D13*
X136500000Y-60800000D03*
G04 #@! TO.P,J14,5*
G04 #@! TO.N,D12*
X136500000Y-63340000D03*
G04 #@! TO.P,J14,4*
G04 #@! TO.N,D11*
X136500000Y-65880000D03*
G04 #@! TO.P,J14,3*
G04 #@! TO.N,D10*
X136500000Y-68420000D03*
G04 #@! TO.P,J14,2*
G04 #@! TO.N,D9*
X136500000Y-70960000D03*
D10*
G04 #@! TO.P,J14,1*
G04 #@! TO.N,D8*
X136500000Y-73500000D03*
G04 #@! TD*
D11*
G04 #@! TO.P,J12,2*
G04 #@! TO.N,RESET*
X78500000Y-65040000D03*
D10*
G04 #@! TO.P,J12,1*
G04 #@! TO.N,IOREF*
X78500000Y-62500000D03*
G04 #@! TD*
D11*
G04 #@! TO.P,J11,6*
G04 #@! TO.N,A0*
X78500000Y-82800000D03*
G04 #@! TO.P,J11,5*
G04 #@! TO.N,A1*
X78500000Y-85340000D03*
G04 #@! TO.P,J11,4*
G04 #@! TO.N,A2*
X78500000Y-87880000D03*
G04 #@! TO.P,J11,3*
G04 #@! TO.N,A3*
X78500000Y-90420000D03*
G04 #@! TO.P,J11,2*
G04 #@! TO.N,A4_SDA*
X78500000Y-92960000D03*
D10*
G04 #@! TO.P,J11,1*
G04 #@! TO.N,A5_SCL*
X78500000Y-95500000D03*
G04 #@! TD*
D11*
G04 #@! TO.P,J9,2*
G04 #@! TO.N,3V3*
X78450000Y-51990000D03*
D10*
G04 #@! TO.P,J9,1*
X78450000Y-49450000D03*
G04 #@! TD*
D11*
G04 #@! TO.P,J8,2*
G04 #@! TO.N,+5V*
X78500000Y-45540000D03*
D10*
G04 #@! TO.P,J8,1*
X78500000Y-43000000D03*
G04 #@! TD*
D11*
G04 #@! TO.P,J7,3*
G04 #@! TO.N,GND*
X136500000Y-45580000D03*
G04 #@! TO.P,J7,2*
X136500000Y-43040000D03*
D10*
G04 #@! TO.P,J7,1*
X136500000Y-40500000D03*
G04 #@! TD*
D11*
G04 #@! TO.P,J6,8*
G04 #@! TO.N,D7*
X136500000Y-77720000D03*
G04 #@! TO.P,J6,7*
G04 #@! TO.N,D6*
X136500000Y-80260000D03*
G04 #@! TO.P,J6,6*
G04 #@! TO.N,D5*
X136500000Y-82800000D03*
G04 #@! TO.P,J6,5*
G04 #@! TO.N,D4*
X136500000Y-85340000D03*
G04 #@! TO.P,J6,4*
G04 #@! TO.N,D3*
X136500000Y-87880000D03*
G04 #@! TO.P,J6,3*
G04 #@! TO.N,D2*
X136500000Y-90420000D03*
G04 #@! TO.P,J6,2*
G04 #@! TO.N,D1_TX*
X136500000Y-92960000D03*
D10*
G04 #@! TO.P,J6,1*
G04 #@! TO.N,D0_RX*
X136500000Y-95500000D03*
G04 #@! TD*
D11*
G04 #@! TO.P,J5,3*
G04 #@! TO.N,SCL*
X136500000Y-50920000D03*
G04 #@! TO.P,J5,2*
G04 #@! TO.N,SDA*
X136500000Y-53460000D03*
D10*
G04 #@! TO.P,J5,1*
G04 #@! TO.N,AREF*
X136500000Y-56000000D03*
G04 #@! TD*
D12*
G04 #@! TO.P,A1,32*
G04 #@! TO.N,SCL*
X131760000Y-50860000D03*
G04 #@! TO.P,A1,31*
G04 #@! TO.N,SDA*
X131760000Y-53400000D03*
D13*
G04 #@! TO.P,A1,1*
G04 #@! TO.N,Net-(A1-Pad1)*
X83500000Y-60000000D03*
D12*
G04 #@! TO.P,A1,17*
G04 #@! TO.N,D2*
X131760000Y-90480000D03*
G04 #@! TO.P,A1,2*
G04 #@! TO.N,IOREF*
X83500000Y-62540000D03*
G04 #@! TO.P,A1,18*
G04 #@! TO.N,D3*
X131760000Y-87940000D03*
G04 #@! TO.P,A1,3*
G04 #@! TO.N,RESET*
X83500000Y-65080000D03*
G04 #@! TO.P,A1,19*
G04 #@! TO.N,D4*
X131760000Y-85400000D03*
G04 #@! TO.P,A1,4*
G04 #@! TO.N,3V3*
X83500000Y-67620000D03*
G04 #@! TO.P,A1,20*
G04 #@! TO.N,D5*
X131760000Y-82860000D03*
G04 #@! TO.P,A1,5*
G04 #@! TO.N,+5V*
X83500000Y-70160000D03*
G04 #@! TO.P,A1,21*
G04 #@! TO.N,D6*
X131760000Y-80320000D03*
G04 #@! TO.P,A1,6*
G04 #@! TO.N,Net-(A1-Pad6)*
X83500000Y-72700000D03*
G04 #@! TO.P,A1,22*
G04 #@! TO.N,D7*
X131760000Y-77780000D03*
G04 #@! TO.P,A1,7*
G04 #@! TO.N,Net-(A1-Pad7)*
X83500000Y-75240000D03*
G04 #@! TO.P,A1,23*
G04 #@! TO.N,D8*
X131760000Y-73720000D03*
G04 #@! TO.P,A1,8*
G04 #@! TO.N,Net-(A1-Pad8)*
X83500000Y-77780000D03*
G04 #@! TO.P,A1,24*
G04 #@! TO.N,D9*
X131760000Y-71180000D03*
G04 #@! TO.P,A1,9*
G04 #@! TO.N,A0*
X83500000Y-82860000D03*
G04 #@! TO.P,A1,25*
G04 #@! TO.N,D10*
X131760000Y-68640000D03*
G04 #@! TO.P,A1,10*
G04 #@! TO.N,A1*
X83500000Y-85400000D03*
G04 #@! TO.P,A1,26*
G04 #@! TO.N,D11*
X131760000Y-66100000D03*
G04 #@! TO.P,A1,11*
G04 #@! TO.N,A2*
X83500000Y-87940000D03*
G04 #@! TO.P,A1,27*
G04 #@! TO.N,D12*
X131760000Y-63560000D03*
G04 #@! TO.P,A1,12*
G04 #@! TO.N,A3*
X83500000Y-90480000D03*
G04 #@! TO.P,A1,28*
G04 #@! TO.N,D13*
X131760000Y-61020000D03*
G04 #@! TO.P,A1,13*
G04 #@! TO.N,A4_SDA*
X83500000Y-93020000D03*
G04 #@! TO.P,A1,29*
G04 #@! TO.N,GND*
X131760000Y-58480000D03*
G04 #@! TO.P,A1,14*
G04 #@! TO.N,A5_SCL*
X83500000Y-95560000D03*
G04 #@! TO.P,A1,30*
G04 #@! TO.N,AREF*
X131760000Y-55940000D03*
G04 #@! TO.P,A1,15*
G04 #@! TO.N,D0_RX*
X131760000Y-95560000D03*
G04 #@! TO.P,A1,16*
G04 #@! TO.N,D1_TX*
X131760000Y-93020000D03*
G04 #@! TD*
D14*
G04 #@! TO.P,C1,2*
G04 #@! TO.N,Net-(C1-Pad2)*
X91750000Y-63500000D03*
D15*
G04 #@! TO.P,C1,1*
G04 #@! TO.N,Net-(C1-Pad1)*
X91750000Y-66000000D03*
G04 #@! TD*
D16*
G04 #@! TO.P,R5,2*
G04 #@! TO.N,Net-(C1-Pad2)*
X99000000Y-63420000D03*
G04 #@! TO.P,R5,1*
G04 #@! TO.N,Net-(C1-Pad1)*
X99000000Y-73580000D03*
G04 #@! TD*
D12*
G04 #@! TO.P,U1,14*
G04 #@! TO.N,Net-(J15-Pad2)*
X113030000Y-50800000D03*
G04 #@! TO.P,U1,13*
G04 #@! TO.N,Net-(J15-Pad3)*
X113030000Y-53340000D03*
G04 #@! TO.P,U1,12*
G04 #@! TO.N,Net-(J15-Pad1)*
X113030000Y-55880000D03*
G04 #@! TO.P,U1,11*
G04 #@! TO.N,GND*
X113030000Y-58420000D03*
G04 #@! TO.P,U1,10*
G04 #@! TO.N,Net-(U1-Pad1)*
X113030000Y-60960000D03*
G04 #@! TO.P,U1,9*
G04 #@! TO.N,Net-(C2-Pad2)*
X113030000Y-63500000D03*
G04 #@! TO.P,U1,8*
G04 #@! TO.N,A0*
X113030000Y-66040000D03*
G04 #@! TO.P,U1,7*
G04 #@! TO.N,Net-(C1-Pad1)*
X105410000Y-66040000D03*
G04 #@! TO.P,U1,6*
G04 #@! TO.N,Net-(C1-Pad2)*
X105410000Y-63500000D03*
G04 #@! TO.P,U1,5*
G04 #@! TO.N,Net-(U1-Pad1)*
X105410000Y-60960000D03*
G04 #@! TO.P,U1,4*
G04 #@! TO.N,+5V*
X105410000Y-58420000D03*
G04 #@! TO.P,U1,3*
G04 #@! TO.N,Net-(R3-Pad2)*
X105410000Y-55880000D03*
G04 #@! TO.P,U1,2*
G04 #@! TO.N,Net-(U1-Pad1)*
X105410000Y-53340000D03*
G04 #@! TO.P,U1,1*
X105410000Y-50800000D03*
G04 #@! TD*
D17*
G04 #@! TO.P,RV1,2*
G04 #@! TO.N,Net-(C2-Pad2)*
X116840000Y-82550000D03*
D18*
G04 #@! TO.P,RV1,1*
G04 #@! TO.N,Net-(C1-Pad1)*
X114300000Y-80010000D03*
D17*
G04 #@! TO.P,RV1,3*
G04 #@! TO.N,A0*
X119380000Y-80010000D03*
G04 #@! TD*
D16*
G04 #@! TO.P,R6,2*
G04 #@! TO.N,A1*
X108750000Y-99080000D03*
G04 #@! TO.P,R6,1*
G04 #@! TO.N,+5V*
X108750000Y-88920000D03*
G04 #@! TD*
G04 #@! TO.P,R4,2*
G04 #@! TO.N,GND*
X94000000Y-45330000D03*
G04 #@! TO.P,R4,1*
G04 #@! TO.N,Net-(R3-Pad2)*
X94000000Y-35170000D03*
G04 #@! TD*
G04 #@! TO.P,R3,2*
G04 #@! TO.N,Net-(R3-Pad2)*
X86360000Y-35170000D03*
G04 #@! TO.P,R3,1*
G04 #@! TO.N,+5V*
X86360000Y-45330000D03*
G04 #@! TD*
G04 #@! TO.P,R2,2*
G04 #@! TO.N,Net-(J1-Pad2)*
X101000000Y-99080000D03*
G04 #@! TO.P,R2,1*
G04 #@! TO.N,+5V*
X101000000Y-88920000D03*
G04 #@! TD*
G04 #@! TO.P,R1,2*
G04 #@! TO.N,Net-(C3-Pad1)*
X94250000Y-99080000D03*
G04 #@! TO.P,R1,1*
G04 #@! TO.N,+5V*
X94250000Y-88920000D03*
G04 #@! TD*
D19*
G04 #@! TO.P,J4,4*
G04 #@! TO.N,GND*
X90370000Y-106500000D03*
G04 #@! TO.P,J4,3*
G04 #@! TO.N,A5_SCL*
X87830000Y-106500000D03*
G04 #@! TO.P,J4,2*
G04 #@! TO.N,A4_SDA*
X85290000Y-106500000D03*
D20*
G04 #@! TD*
G04 #@! TO.N,+5V*
G04 #@! TO.C,J4*
G36*
X83394505Y-105401204D02*
X83418773Y-105404804D01*
X83442572Y-105410765D01*
X83465671Y-105419030D01*
X83487850Y-105429520D01*
X83508893Y-105442132D01*
X83528599Y-105456747D01*
X83546777Y-105473223D01*
X83563253Y-105491401D01*
X83577868Y-105511107D01*
X83590480Y-105532150D01*
X83600970Y-105554329D01*
X83609235Y-105577428D01*
X83615196Y-105601227D01*
X83618796Y-105625495D01*
X83620000Y-105649999D01*
X83620000Y-107350001D01*
X83618796Y-107374505D01*
X83615196Y-107398773D01*
X83609235Y-107422572D01*
X83600970Y-107445671D01*
X83590480Y-107467850D01*
X83577868Y-107488893D01*
X83563253Y-107508599D01*
X83546777Y-107526777D01*
X83528599Y-107543253D01*
X83508893Y-107557868D01*
X83487850Y-107570480D01*
X83465671Y-107580970D01*
X83442572Y-107589235D01*
X83418773Y-107595196D01*
X83394505Y-107598796D01*
X83370001Y-107600000D01*
X82129999Y-107600000D01*
X82105495Y-107598796D01*
X82081227Y-107595196D01*
X82057428Y-107589235D01*
X82034329Y-107580970D01*
X82012150Y-107570480D01*
X81991107Y-107557868D01*
X81971401Y-107543253D01*
X81953223Y-107526777D01*
X81936747Y-107508599D01*
X81922132Y-107488893D01*
X81909520Y-107467850D01*
X81899030Y-107445671D01*
X81890765Y-107422572D01*
X81884804Y-107398773D01*
X81881204Y-107374505D01*
X81880000Y-107350001D01*
X81880000Y-105649999D01*
X81881204Y-105625495D01*
X81884804Y-105601227D01*
X81890765Y-105577428D01*
X81899030Y-105554329D01*
X81909520Y-105532150D01*
X81922132Y-105511107D01*
X81936747Y-105491401D01*
X81953223Y-105473223D01*
X81971401Y-105456747D01*
X81991107Y-105442132D01*
X82012150Y-105429520D01*
X82034329Y-105419030D01*
X82057428Y-105410765D01*
X82081227Y-105404804D01*
X82105495Y-105401204D01*
X82129999Y-105400000D01*
X83370001Y-105400000D01*
X83394505Y-105401204D01*
X83394505Y-105401204D01*
G37*
D21*
G04 #@! TO.P,J4,1*
G04 #@! TO.N,+5V*
X82750000Y-106500000D03*
G04 #@! TD*
D19*
G04 #@! TO.P,J3,3*
G04 #@! TO.N,GND*
X133080000Y-106500000D03*
G04 #@! TO.P,J3,2*
G04 #@! TO.N,D2*
X130540000Y-106500000D03*
D20*
G04 #@! TD*
G04 #@! TO.N,+5V*
G04 #@! TO.C,J3*
G36*
X128644505Y-105401204D02*
X128668773Y-105404804D01*
X128692572Y-105410765D01*
X128715671Y-105419030D01*
X128737850Y-105429520D01*
X128758893Y-105442132D01*
X128778599Y-105456747D01*
X128796777Y-105473223D01*
X128813253Y-105491401D01*
X128827868Y-105511107D01*
X128840480Y-105532150D01*
X128850970Y-105554329D01*
X128859235Y-105577428D01*
X128865196Y-105601227D01*
X128868796Y-105625495D01*
X128870000Y-105649999D01*
X128870000Y-107350001D01*
X128868796Y-107374505D01*
X128865196Y-107398773D01*
X128859235Y-107422572D01*
X128850970Y-107445671D01*
X128840480Y-107467850D01*
X128827868Y-107488893D01*
X128813253Y-107508599D01*
X128796777Y-107526777D01*
X128778599Y-107543253D01*
X128758893Y-107557868D01*
X128737850Y-107570480D01*
X128715671Y-107580970D01*
X128692572Y-107589235D01*
X128668773Y-107595196D01*
X128644505Y-107598796D01*
X128620001Y-107600000D01*
X127379999Y-107600000D01*
X127355495Y-107598796D01*
X127331227Y-107595196D01*
X127307428Y-107589235D01*
X127284329Y-107580970D01*
X127262150Y-107570480D01*
X127241107Y-107557868D01*
X127221401Y-107543253D01*
X127203223Y-107526777D01*
X127186747Y-107508599D01*
X127172132Y-107488893D01*
X127159520Y-107467850D01*
X127149030Y-107445671D01*
X127140765Y-107422572D01*
X127134804Y-107398773D01*
X127131204Y-107374505D01*
X127130000Y-107350001D01*
X127130000Y-105649999D01*
X127131204Y-105625495D01*
X127134804Y-105601227D01*
X127140765Y-105577428D01*
X127149030Y-105554329D01*
X127159520Y-105532150D01*
X127172132Y-105511107D01*
X127186747Y-105491401D01*
X127203223Y-105473223D01*
X127221401Y-105456747D01*
X127241107Y-105442132D01*
X127262150Y-105429520D01*
X127284329Y-105419030D01*
X127307428Y-105410765D01*
X127331227Y-105404804D01*
X127355495Y-105401204D01*
X127379999Y-105400000D01*
X128620001Y-105400000D01*
X128644505Y-105401204D01*
X128644505Y-105401204D01*
G37*
D21*
G04 #@! TO.P,J3,1*
G04 #@! TO.N,+5V*
X128000000Y-106500000D03*
G04 #@! TD*
D19*
G04 #@! TO.P,J2,2*
G04 #@! TO.N,GND*
X101600000Y-106680000D03*
D20*
G04 #@! TD*
G04 #@! TO.N,A1*
G04 #@! TO.C,J2*
G36*
X99704505Y-105581204D02*
X99728773Y-105584804D01*
X99752572Y-105590765D01*
X99775671Y-105599030D01*
X99797850Y-105609520D01*
X99818893Y-105622132D01*
X99838599Y-105636747D01*
X99856777Y-105653223D01*
X99873253Y-105671401D01*
X99887868Y-105691107D01*
X99900480Y-105712150D01*
X99910970Y-105734329D01*
X99919235Y-105757428D01*
X99925196Y-105781227D01*
X99928796Y-105805495D01*
X99930000Y-105829999D01*
X99930000Y-107530001D01*
X99928796Y-107554505D01*
X99925196Y-107578773D01*
X99919235Y-107602572D01*
X99910970Y-107625671D01*
X99900480Y-107647850D01*
X99887868Y-107668893D01*
X99873253Y-107688599D01*
X99856777Y-107706777D01*
X99838599Y-107723253D01*
X99818893Y-107737868D01*
X99797850Y-107750480D01*
X99775671Y-107760970D01*
X99752572Y-107769235D01*
X99728773Y-107775196D01*
X99704505Y-107778796D01*
X99680001Y-107780000D01*
X98439999Y-107780000D01*
X98415495Y-107778796D01*
X98391227Y-107775196D01*
X98367428Y-107769235D01*
X98344329Y-107760970D01*
X98322150Y-107750480D01*
X98301107Y-107737868D01*
X98281401Y-107723253D01*
X98263223Y-107706777D01*
X98246747Y-107688599D01*
X98232132Y-107668893D01*
X98219520Y-107647850D01*
X98209030Y-107625671D01*
X98200765Y-107602572D01*
X98194804Y-107578773D01*
X98191204Y-107554505D01*
X98190000Y-107530001D01*
X98190000Y-105829999D01*
X98191204Y-105805495D01*
X98194804Y-105781227D01*
X98200765Y-105757428D01*
X98209030Y-105734329D01*
X98219520Y-105712150D01*
X98232132Y-105691107D01*
X98246747Y-105671401D01*
X98263223Y-105653223D01*
X98281401Y-105636747D01*
X98301107Y-105622132D01*
X98322150Y-105609520D01*
X98344329Y-105599030D01*
X98367428Y-105590765D01*
X98391227Y-105584804D01*
X98415495Y-105581204D01*
X98439999Y-105580000D01*
X99680001Y-105580000D01*
X99704505Y-105581204D01*
X99704505Y-105581204D01*
G37*
D21*
G04 #@! TO.P,J2,1*
G04 #@! TO.N,A1*
X99060000Y-106680000D03*
G04 #@! TD*
D19*
G04 #@! TO.P,J1,4*
G04 #@! TO.N,GND*
X111630000Y-106500000D03*
G04 #@! TO.P,J1,3*
X114170000Y-106500000D03*
G04 #@! TO.P,J1,2*
G04 #@! TO.N,Net-(J1-Pad2)*
X116710000Y-106500000D03*
D20*
G04 #@! TD*
G04 #@! TO.N,Net-(C3-Pad1)*
G04 #@! TO.C,J1*
G36*
X119894505Y-105401204D02*
X119918773Y-105404804D01*
X119942572Y-105410765D01*
X119965671Y-105419030D01*
X119987850Y-105429520D01*
X120008893Y-105442132D01*
X120028599Y-105456747D01*
X120046777Y-105473223D01*
X120063253Y-105491401D01*
X120077868Y-105511107D01*
X120090480Y-105532150D01*
X120100970Y-105554329D01*
X120109235Y-105577428D01*
X120115196Y-105601227D01*
X120118796Y-105625495D01*
X120120000Y-105649999D01*
X120120000Y-107350001D01*
X120118796Y-107374505D01*
X120115196Y-107398773D01*
X120109235Y-107422572D01*
X120100970Y-107445671D01*
X120090480Y-107467850D01*
X120077868Y-107488893D01*
X120063253Y-107508599D01*
X120046777Y-107526777D01*
X120028599Y-107543253D01*
X120008893Y-107557868D01*
X119987850Y-107570480D01*
X119965671Y-107580970D01*
X119942572Y-107589235D01*
X119918773Y-107595196D01*
X119894505Y-107598796D01*
X119870001Y-107600000D01*
X118629999Y-107600000D01*
X118605495Y-107598796D01*
X118581227Y-107595196D01*
X118557428Y-107589235D01*
X118534329Y-107580970D01*
X118512150Y-107570480D01*
X118491107Y-107557868D01*
X118471401Y-107543253D01*
X118453223Y-107526777D01*
X118436747Y-107508599D01*
X118422132Y-107488893D01*
X118409520Y-107467850D01*
X118399030Y-107445671D01*
X118390765Y-107422572D01*
X118384804Y-107398773D01*
X118381204Y-107374505D01*
X118380000Y-107350001D01*
X118380000Y-105649999D01*
X118381204Y-105625495D01*
X118384804Y-105601227D01*
X118390765Y-105577428D01*
X118399030Y-105554329D01*
X118409520Y-105532150D01*
X118422132Y-105511107D01*
X118436747Y-105491401D01*
X118453223Y-105473223D01*
X118471401Y-105456747D01*
X118491107Y-105442132D01*
X118512150Y-105429520D01*
X118534329Y-105419030D01*
X118557428Y-105410765D01*
X118581227Y-105404804D01*
X118605495Y-105401204D01*
X118629999Y-105400000D01*
X119870001Y-105400000D01*
X119894505Y-105401204D01*
X119894505Y-105401204D01*
G37*
D21*
G04 #@! TO.P,J1,1*
G04 #@! TO.N,Net-(C3-Pad1)*
X119250000Y-106500000D03*
G04 #@! TD*
D14*
G04 #@! TO.P,C3,2*
G04 #@! TO.N,Net-(C1-Pad2)*
X99000000Y-79500000D03*
D15*
G04 #@! TO.P,C3,1*
G04 #@! TO.N,Net-(C3-Pad1)*
X99000000Y-82000000D03*
G04 #@! TD*
D14*
G04 #@! TO.P,C2,2*
G04 #@! TO.N,Net-(C2-Pad2)*
X119380000Y-63540000D03*
D15*
G04 #@! TO.P,C2,1*
G04 #@! TO.N,A0*
X119380000Y-66040000D03*
G04 #@! TD*
D22*
G04 #@! TO.N,Net-(A1-Pad6)*
X81800000Y-72700000D02*
X83500000Y-72700000D01*
X81500000Y-73000000D02*
X81800000Y-72700000D01*
X81500000Y-76500000D02*
X81500000Y-73000000D01*
X78500000Y-76500000D02*
X81500000Y-76500000D01*
X78500000Y-76500000D02*
X78500000Y-79040000D01*
G04 #@! TO.N,Net-(C1-Pad2)*
X91750000Y-63500000D02*
X105410000Y-63500000D01*
G04 #@! TO.N,Net-(C1-Pad1)*
X91750000Y-66000000D02*
X91750000Y-73000000D01*
X92330000Y-73580000D02*
X99000000Y-73580000D01*
X91750000Y-73000000D02*
X92330000Y-73580000D01*
X105410000Y-66040000D02*
X99210000Y-66040000D01*
X99000000Y-66250000D02*
X99000000Y-73580000D01*
X99210000Y-66040000D02*
X99000000Y-66250000D01*
G04 #@! TO.N,Net-(C2-Pad2)*
X113070000Y-63540000D02*
X113030000Y-63500000D01*
X119380000Y-63540000D02*
X113070000Y-63540000D01*
X116840000Y-82550000D02*
X123450000Y-82550000D01*
X123450000Y-82550000D02*
X123500000Y-82500000D01*
X123450000Y-82550000D02*
X123450000Y-63550000D01*
X123440000Y-63540000D02*
X119380000Y-63540000D01*
X123450000Y-63550000D02*
X123440000Y-63540000D01*
G04 #@! TO.N,Net-(C3-Pad1)*
X99000000Y-83650000D02*
X97250000Y-85400000D01*
X99000000Y-82000000D02*
X99000000Y-83650000D01*
X97250000Y-96080000D02*
X94250000Y-99080000D01*
X97250000Y-91750000D02*
X118500000Y-91750000D01*
X97250000Y-85400000D02*
X97250000Y-91750000D01*
X97250000Y-91750000D02*
X97250000Y-96080000D01*
X118500000Y-91750000D02*
X119250000Y-92500000D01*
X119250000Y-92500000D02*
X119250000Y-106500000D01*
G04 #@! TO.N,Net-(J1-Pad2)*
X103916508Y-94750000D02*
X116500000Y-94750000D01*
X101000000Y-97666508D02*
X103916508Y-94750000D01*
X101000000Y-99080000D02*
X101000000Y-97666508D01*
X116710000Y-94960000D02*
X116710000Y-106500000D01*
X116500000Y-94750000D02*
X116710000Y-94960000D01*
G04 #@! TO.N,Net-(U1-Pad1)*
X105410000Y-50800000D02*
X105410000Y-53340000D01*
X103160000Y-53340000D02*
X103160000Y-60660000D01*
X103460000Y-60960000D02*
X105410000Y-60960000D01*
X103160000Y-60660000D02*
X103460000Y-60960000D01*
X103160000Y-53340000D02*
X105410000Y-53340000D01*
X105410000Y-53340000D02*
X108840000Y-53340000D01*
X113030000Y-60960000D02*
X109040000Y-60960000D01*
X108840000Y-60760000D02*
X109040000Y-60960000D01*
X108840000Y-53340000D02*
X108840000Y-60760000D01*
G04 #@! TO.N,SCL*
X131820000Y-50920000D02*
X131760000Y-50860000D01*
X136500000Y-50920000D02*
X131820000Y-50920000D01*
G04 #@! TO.N,SDA*
X131820000Y-53460000D02*
X131760000Y-53400000D01*
X136500000Y-53460000D02*
X131820000Y-53460000D01*
G04 #@! TO.N,D2*
X130330000Y-90170000D02*
X132080000Y-90170000D01*
X129750000Y-104610000D02*
X129750000Y-90750000D01*
X130540000Y-105400000D02*
X129750000Y-104610000D01*
X129750000Y-90750000D02*
X130330000Y-90170000D01*
X131820000Y-90420000D02*
X131760000Y-90480000D01*
X136500000Y-90420000D02*
X131820000Y-90420000D01*
G04 #@! TO.N,IOREF*
X83460000Y-62500000D02*
X83500000Y-62540000D01*
X78500000Y-62500000D02*
X83460000Y-62500000D01*
G04 #@! TO.N,D3*
X131820000Y-87880000D02*
X131760000Y-87940000D01*
X136500000Y-87880000D02*
X131820000Y-87880000D01*
G04 #@! TO.N,RESET*
X83460000Y-65040000D02*
X83500000Y-65080000D01*
X78500000Y-65040000D02*
X83460000Y-65040000D01*
G04 #@! TO.N,D4*
X131820000Y-85340000D02*
X131760000Y-85400000D01*
X136500000Y-85340000D02*
X131820000Y-85340000D01*
G04 #@! TO.N,3V3*
X87960000Y-54540000D02*
X78500000Y-54540000D01*
X88000000Y-54500000D02*
X87960000Y-54540000D01*
X87380000Y-67620000D02*
X88000000Y-67000000D01*
X88000000Y-67000000D02*
X88000000Y-54500000D01*
X83500000Y-67620000D02*
X87380000Y-67620000D01*
X78450000Y-51990000D02*
X78450000Y-49450000D01*
D23*
X78450000Y-58540000D02*
X78500000Y-58590000D01*
D22*
X78450000Y-51990000D02*
X78450000Y-58540000D01*
G04 #@! TO.N,D5*
X131820000Y-82800000D02*
X131760000Y-82860000D01*
X136500000Y-82800000D02*
X131820000Y-82800000D01*
G04 #@! TO.N,+5V*
X128000000Y-106500000D02*
X125000000Y-103500000D01*
X120920000Y-88920000D02*
X123500000Y-91500000D01*
X108750000Y-88920000D02*
X120920000Y-88920000D01*
X123500000Y-102000000D02*
X128000000Y-106500000D01*
X123500000Y-91500000D02*
X123500000Y-102000000D01*
G04 #@! TO.N,D6*
X131820000Y-80260000D02*
X131760000Y-80320000D01*
X136500000Y-80260000D02*
X131820000Y-80260000D01*
G04 #@! TO.N,D7*
X131820000Y-77720000D02*
X131760000Y-77780000D01*
X136500000Y-77720000D02*
X131820000Y-77720000D01*
G04 #@! TO.N,D8*
X131980000Y-73500000D02*
X131760000Y-73720000D01*
X136500000Y-73500000D02*
X131980000Y-73500000D01*
G04 #@! TO.N,D9*
X131980000Y-70960000D02*
X131760000Y-71180000D01*
X136500000Y-70960000D02*
X131980000Y-70960000D01*
G04 #@! TO.N,A0*
X119380000Y-66040000D02*
X113030000Y-66040000D01*
X103070000Y-76000000D02*
X119380000Y-76000000D01*
X88700000Y-82550000D02*
X95250000Y-76000000D01*
X83820000Y-82550000D02*
X88700000Y-82550000D01*
X119380000Y-76000000D02*
X119380000Y-66040000D01*
X95250000Y-76000000D02*
X103070000Y-76000000D01*
X119380000Y-80010000D02*
X119380000Y-76000000D01*
X83440000Y-82800000D02*
X83500000Y-82860000D01*
X78500000Y-82800000D02*
X83440000Y-82800000D01*
G04 #@! TO.N,D10*
X131980000Y-68420000D02*
X131760000Y-68640000D01*
X136500000Y-68420000D02*
X131980000Y-68420000D01*
G04 #@! TO.N,A1*
X99060000Y-106680000D02*
X99060000Y-104440000D01*
X99060000Y-104440000D02*
X102000000Y-101500000D01*
X106330000Y-101500000D02*
X108750000Y-99080000D01*
X102000000Y-101500000D02*
X106330000Y-101500000D01*
X102000000Y-101500000D02*
X92250000Y-101500000D01*
X92250000Y-101500000D02*
X90000000Y-99250000D01*
X90000000Y-91270000D02*
X83820000Y-85090000D01*
X90000000Y-99250000D02*
X90000000Y-91270000D01*
X83440000Y-85340000D02*
X83500000Y-85400000D01*
X78500000Y-85340000D02*
X83440000Y-85340000D01*
G04 #@! TO.N,D11*
X131980000Y-65880000D02*
X131760000Y-66100000D01*
X136500000Y-65880000D02*
X131980000Y-65880000D01*
G04 #@! TO.N,A2*
X83440000Y-87880000D02*
X83500000Y-87940000D01*
X78500000Y-87880000D02*
X83440000Y-87880000D01*
G04 #@! TO.N,D12*
X131980000Y-63340000D02*
X131760000Y-63560000D01*
X136500000Y-63340000D02*
X131980000Y-63340000D01*
G04 #@! TO.N,A3*
X83440000Y-90420000D02*
X83500000Y-90480000D01*
X78500000Y-90420000D02*
X83440000Y-90420000D01*
G04 #@! TO.N,D13*
X131980000Y-60800000D02*
X131760000Y-61020000D01*
X136500000Y-60800000D02*
X131980000Y-60800000D01*
G04 #@! TO.N,A4_SDA*
X83820000Y-92710000D02*
X87710000Y-92710000D01*
X83440000Y-92960000D02*
X83500000Y-93020000D01*
X78500000Y-92960000D02*
X83440000Y-92960000D01*
X87830000Y-92830000D02*
X87830000Y-106500000D01*
X87710000Y-92710000D02*
X87830000Y-92830000D01*
G04 #@! TO.N,A5_SCL*
X83820000Y-95250000D02*
X84951370Y-95250000D01*
X83440000Y-95500000D02*
X83500000Y-95560000D01*
X78500000Y-95500000D02*
X83440000Y-95500000D01*
X85290000Y-95588630D02*
X85290000Y-106500000D01*
X84951370Y-95250000D02*
X85290000Y-95588630D01*
G04 #@! TO.N,AREF*
X131820000Y-56000000D02*
X131760000Y-55940000D01*
X136500000Y-56000000D02*
X131820000Y-56000000D01*
G04 #@! TO.N,D0_RX*
X131820000Y-95500000D02*
X131760000Y-95560000D01*
X136500000Y-95500000D02*
X131820000Y-95500000D01*
G04 #@! TO.N,D1_TX*
X131820000Y-92960000D02*
X131760000Y-93020000D01*
X136500000Y-92960000D02*
X131820000Y-92960000D01*
G04 #@! TO.N,Net-(J15-Pad3)*
X119380000Y-53340000D02*
X119500000Y-53460000D01*
X113030000Y-53340000D02*
X119380000Y-53340000D01*
G04 #@! TO.N,Net-(J15-Pad2)*
X119380000Y-50800000D02*
X119500000Y-50920000D01*
X113030000Y-50800000D02*
X119380000Y-50800000D01*
G04 #@! TO.N,Net-(J15-Pad1)*
X119380000Y-55880000D02*
X119500000Y-56000000D01*
X113030000Y-55880000D02*
X119380000Y-55880000D01*
G04 #@! TD*
D24*
G04 #@! TO.N,GND*
G36*
X139340000Y-112840000D02*
X97227106Y-112840000D01*
X75660000Y-112823164D01*
X75660000Y-82800000D01*
X76985908Y-82800000D01*
X77101161Y-83379418D01*
X77429375Y-83870625D01*
X77727761Y-84070000D01*
X77429375Y-84269375D01*
X77101161Y-84760582D01*
X76985908Y-85340000D01*
X77101161Y-85919418D01*
X77429375Y-86410625D01*
X77727761Y-86610000D01*
X77429375Y-86809375D01*
X77101161Y-87300582D01*
X76985908Y-87880000D01*
X77101161Y-88459418D01*
X77429375Y-88950625D01*
X77727761Y-89150000D01*
X77429375Y-89349375D01*
X77101161Y-89840582D01*
X76985908Y-90420000D01*
X77101161Y-90999418D01*
X77429375Y-91490625D01*
X77727761Y-91690000D01*
X77429375Y-91889375D01*
X77101161Y-92380582D01*
X76985908Y-92960000D01*
X77101161Y-93539418D01*
X77429375Y-94030625D01*
X77447619Y-94042816D01*
X77402235Y-94051843D01*
X77192191Y-94192191D01*
X77051843Y-94402235D01*
X77002560Y-94650000D01*
X77002560Y-96350000D01*
X77051843Y-96597765D01*
X77192191Y-96807809D01*
X77402235Y-96948157D01*
X77650000Y-96997440D01*
X79350000Y-96997440D01*
X79597765Y-96948157D01*
X79807809Y-96807809D01*
X79923277Y-96635000D01*
X82525920Y-96635000D01*
X82940091Y-96911740D01*
X83358667Y-96995000D01*
X83641333Y-96995000D01*
X84059909Y-96911740D01*
X84155000Y-96848202D01*
X84155001Y-105240525D01*
X84004586Y-105015414D01*
X83713436Y-104820873D01*
X83370001Y-104752560D01*
X82129999Y-104752560D01*
X81786564Y-104820873D01*
X81495414Y-105015414D01*
X81300873Y-105306564D01*
X81232560Y-105649999D01*
X81232560Y-107350001D01*
X81300873Y-107693436D01*
X81495414Y-107984586D01*
X81786564Y-108179127D01*
X82129999Y-108247440D01*
X83370001Y-108247440D01*
X83713436Y-108179127D01*
X84004586Y-107984586D01*
X84161413Y-107749878D01*
X84204956Y-107815044D01*
X84702779Y-108147678D01*
X85290000Y-108264484D01*
X85877222Y-108147678D01*
X86375044Y-107815044D01*
X86560000Y-107538237D01*
X86744956Y-107815044D01*
X87242779Y-108147678D01*
X87830000Y-108264484D01*
X88417222Y-108147678D01*
X88915044Y-107815044D01*
X89107159Y-107527522D01*
X89399509Y-107890533D01*
X89917500Y-108173584D01*
X90009969Y-108191302D01*
X90243000Y-108070246D01*
X90243000Y-106627000D01*
X90497000Y-106627000D01*
X90497000Y-108070246D01*
X90730031Y-108191302D01*
X90822500Y-108173584D01*
X91340491Y-107890533D01*
X91710734Y-107430802D01*
X91876862Y-106864380D01*
X91720582Y-106627000D01*
X90497000Y-106627000D01*
X90243000Y-106627000D01*
X90223000Y-106627000D01*
X90223000Y-106373000D01*
X90243000Y-106373000D01*
X90243000Y-104929754D01*
X90497000Y-104929754D01*
X90497000Y-106373000D01*
X91720582Y-106373000D01*
X91876862Y-106135620D01*
X91710734Y-105569198D01*
X91340491Y-105109467D01*
X90822500Y-104826416D01*
X90730031Y-104808698D01*
X90497000Y-104929754D01*
X90243000Y-104929754D01*
X90009969Y-104808698D01*
X89917500Y-104826416D01*
X89399509Y-105109467D01*
X89107160Y-105472477D01*
X88965000Y-105259720D01*
X88965000Y-99743957D01*
X89181711Y-100068289D01*
X89276481Y-100131613D01*
X91368391Y-102223524D01*
X91431711Y-102318289D01*
X91526475Y-102381608D01*
X91526476Y-102381609D01*
X91807145Y-102569146D01*
X92250000Y-102657235D01*
X92361783Y-102635000D01*
X99259869Y-102635000D01*
X98336480Y-103558389D01*
X98241712Y-103621711D01*
X98128121Y-103791712D01*
X97990854Y-103997146D01*
X97902765Y-104440000D01*
X97925001Y-104551788D01*
X97925001Y-105115508D01*
X97805414Y-105195414D01*
X97610873Y-105486564D01*
X97542560Y-105829999D01*
X97542560Y-107530001D01*
X97610873Y-107873436D01*
X97805414Y-108164586D01*
X98096564Y-108359127D01*
X98439999Y-108427440D01*
X99680001Y-108427440D01*
X100023436Y-108359127D01*
X100314586Y-108164586D01*
X100491737Y-107899462D01*
X100629509Y-108070533D01*
X101147500Y-108353584D01*
X101239969Y-108371302D01*
X101473000Y-108250246D01*
X101473000Y-106807000D01*
X101727000Y-106807000D01*
X101727000Y-108250246D01*
X101960031Y-108371302D01*
X102052500Y-108353584D01*
X102570491Y-108070533D01*
X102940734Y-107610802D01*
X103106862Y-107044380D01*
X102988359Y-106864380D01*
X110123138Y-106864380D01*
X110289266Y-107430802D01*
X110659509Y-107890533D01*
X111177500Y-108173584D01*
X111269969Y-108191302D01*
X111503000Y-108070246D01*
X111503000Y-106627000D01*
X111757000Y-106627000D01*
X111757000Y-108070246D01*
X111990031Y-108191302D01*
X112082500Y-108173584D01*
X112600491Y-107890533D01*
X112900000Y-107518632D01*
X113199509Y-107890533D01*
X113717500Y-108173584D01*
X113809969Y-108191302D01*
X114043000Y-108070246D01*
X114043000Y-106627000D01*
X111757000Y-106627000D01*
X111503000Y-106627000D01*
X110279418Y-106627000D01*
X110123138Y-106864380D01*
X102988359Y-106864380D01*
X102950582Y-106807000D01*
X101727000Y-106807000D01*
X101473000Y-106807000D01*
X101453000Y-106807000D01*
X101453000Y-106553000D01*
X101473000Y-106553000D01*
X101473000Y-105109754D01*
X101727000Y-105109754D01*
X101727000Y-106553000D01*
X102950582Y-106553000D01*
X103106862Y-106315620D01*
X103054070Y-106135620D01*
X110123138Y-106135620D01*
X110279418Y-106373000D01*
X111503000Y-106373000D01*
X111503000Y-104929754D01*
X111757000Y-104929754D01*
X111757000Y-106373000D01*
X114043000Y-106373000D01*
X114043000Y-104929754D01*
X113809969Y-104808698D01*
X113717500Y-104826416D01*
X113199509Y-105109467D01*
X112900000Y-105481368D01*
X112600491Y-105109467D01*
X112082500Y-104826416D01*
X111990031Y-104808698D01*
X111757000Y-104929754D01*
X111503000Y-104929754D01*
X111269969Y-104808698D01*
X111177500Y-104826416D01*
X110659509Y-105109467D01*
X110289266Y-105569198D01*
X110123138Y-106135620D01*
X103054070Y-106135620D01*
X102940734Y-105749198D01*
X102570491Y-105289467D01*
X102052500Y-105006416D01*
X101960031Y-104988698D01*
X101727000Y-105109754D01*
X101473000Y-105109754D01*
X101239969Y-104988698D01*
X101147500Y-105006416D01*
X100629509Y-105289467D01*
X100491737Y-105460538D01*
X100314586Y-105195414D01*
X100195000Y-105115509D01*
X100195000Y-104910131D01*
X102470132Y-102635000D01*
X106218217Y-102635000D01*
X106330000Y-102657235D01*
X106441783Y-102635000D01*
X106772855Y-102569146D01*
X107148289Y-102318289D01*
X107211613Y-102223518D01*
X108720642Y-100714490D01*
X109075120Y-100714490D01*
X109675864Y-100465654D01*
X110135654Y-100005864D01*
X110384490Y-99405120D01*
X110384490Y-98754880D01*
X110135654Y-98154136D01*
X109675864Y-97694346D01*
X109075120Y-97445510D01*
X108424880Y-97445510D01*
X107824136Y-97694346D01*
X107364346Y-98154136D01*
X107115510Y-98754880D01*
X107115510Y-99109358D01*
X105859869Y-100365000D01*
X102111783Y-100365000D01*
X102040664Y-100350854D01*
X102385654Y-100005864D01*
X102634490Y-99405120D01*
X102634490Y-98754880D01*
X102385654Y-98154136D01*
X102251579Y-98020061D01*
X104386640Y-95885000D01*
X115575000Y-95885000D01*
X115575001Y-105259719D01*
X115432840Y-105472477D01*
X115140491Y-105109467D01*
X114622500Y-104826416D01*
X114530031Y-104808698D01*
X114297000Y-104929754D01*
X114297000Y-106373000D01*
X114317000Y-106373000D01*
X114317000Y-106627000D01*
X114297000Y-106627000D01*
X114297000Y-108070246D01*
X114530031Y-108191302D01*
X114622500Y-108173584D01*
X115140491Y-107890533D01*
X115432841Y-107527522D01*
X115624956Y-107815044D01*
X116122778Y-108147678D01*
X116710000Y-108264484D01*
X117297221Y-108147678D01*
X117795044Y-107815044D01*
X117838587Y-107749878D01*
X117995414Y-107984586D01*
X118286564Y-108179127D01*
X118629999Y-108247440D01*
X119870001Y-108247440D01*
X120213436Y-108179127D01*
X120504586Y-107984586D01*
X120699127Y-107693436D01*
X120767440Y-107350001D01*
X120767440Y-105649999D01*
X120699127Y-105306564D01*
X120504586Y-105015414D01*
X120385000Y-104935509D01*
X120385000Y-92611782D01*
X120407235Y-92499999D01*
X120319146Y-92057145D01*
X120242779Y-91942854D01*
X120068289Y-91681711D01*
X119973521Y-91618389D01*
X119381613Y-91026481D01*
X119318289Y-90931711D01*
X118942855Y-90680854D01*
X118611783Y-90615000D01*
X118500000Y-90592765D01*
X118388217Y-90615000D01*
X98385000Y-90615000D01*
X98385000Y-88594880D01*
X99365510Y-88594880D01*
X99365510Y-89245120D01*
X99614346Y-89845864D01*
X100074136Y-90305654D01*
X100674880Y-90554490D01*
X101325120Y-90554490D01*
X101925864Y-90305654D01*
X102385654Y-89845864D01*
X102634490Y-89245120D01*
X102634490Y-88594880D01*
X107115510Y-88594880D01*
X107115510Y-89245120D01*
X107364346Y-89845864D01*
X107824136Y-90305654D01*
X108424880Y-90554490D01*
X109075120Y-90554490D01*
X109675864Y-90305654D01*
X109926518Y-90055000D01*
X120449869Y-90055000D01*
X122365000Y-91970132D01*
X122365001Y-101888212D01*
X122342765Y-102000000D01*
X122430854Y-102442854D01*
X122430855Y-102442855D01*
X122681712Y-102818289D01*
X122776480Y-102881611D01*
X126482560Y-106587692D01*
X126482560Y-107350001D01*
X126550873Y-107693436D01*
X126745414Y-107984586D01*
X127036564Y-108179127D01*
X127379999Y-108247440D01*
X128620001Y-108247440D01*
X128963436Y-108179127D01*
X129254586Y-107984586D01*
X129411413Y-107749878D01*
X129454956Y-107815044D01*
X129952779Y-108147678D01*
X130540000Y-108264484D01*
X131127222Y-108147678D01*
X131625044Y-107815044D01*
X131817159Y-107527522D01*
X132109509Y-107890533D01*
X132627500Y-108173584D01*
X132719969Y-108191302D01*
X132953000Y-108070246D01*
X132953000Y-106627000D01*
X133207000Y-106627000D01*
X133207000Y-108070246D01*
X133440031Y-108191302D01*
X133532500Y-108173584D01*
X134050491Y-107890533D01*
X134420734Y-107430802D01*
X134586862Y-106864380D01*
X134430582Y-106627000D01*
X133207000Y-106627000D01*
X132953000Y-106627000D01*
X132933000Y-106627000D01*
X132933000Y-106373000D01*
X132953000Y-106373000D01*
X132953000Y-104929754D01*
X133207000Y-104929754D01*
X133207000Y-106373000D01*
X134430582Y-106373000D01*
X134586862Y-106135620D01*
X134420734Y-105569198D01*
X134050491Y-105109467D01*
X133532500Y-104826416D01*
X133440031Y-104808698D01*
X133207000Y-104929754D01*
X132953000Y-104929754D01*
X132719969Y-104808698D01*
X132627500Y-104826416D01*
X132109509Y-105109467D01*
X131817160Y-105472477D01*
X131666929Y-105247642D01*
X131609146Y-104957145D01*
X131421608Y-104676476D01*
X130885000Y-104139869D01*
X130885000Y-96701203D01*
X131200091Y-96911740D01*
X131618667Y-96995000D01*
X131901333Y-96995000D01*
X132319909Y-96911740D01*
X132734080Y-96635000D01*
X135076723Y-96635000D01*
X135192191Y-96807809D01*
X135402235Y-96948157D01*
X135650000Y-96997440D01*
X137350000Y-96997440D01*
X137597765Y-96948157D01*
X137807809Y-96807809D01*
X137948157Y-96597765D01*
X137997440Y-96350000D01*
X137997440Y-94650000D01*
X137948157Y-94402235D01*
X137807809Y-94192191D01*
X137597765Y-94051843D01*
X137552381Y-94042816D01*
X137570625Y-94030625D01*
X137898839Y-93539418D01*
X138014092Y-92960000D01*
X137898839Y-92380582D01*
X137570625Y-91889375D01*
X137272239Y-91690000D01*
X137570625Y-91490625D01*
X137898839Y-90999418D01*
X138014092Y-90420000D01*
X137898839Y-89840582D01*
X137570625Y-89349375D01*
X137272239Y-89150000D01*
X137570625Y-88950625D01*
X137898839Y-88459418D01*
X138014092Y-87880000D01*
X137898839Y-87300582D01*
X137570625Y-86809375D01*
X137272239Y-86610000D01*
X137570625Y-86410625D01*
X137898839Y-85919418D01*
X138014092Y-85340000D01*
X137898839Y-84760582D01*
X137570625Y-84269375D01*
X137272239Y-84070000D01*
X137570625Y-83870625D01*
X137898839Y-83379418D01*
X138014092Y-82800000D01*
X137898839Y-82220582D01*
X137570625Y-81729375D01*
X137272239Y-81530000D01*
X137570625Y-81330625D01*
X137898839Y-80839418D01*
X138014092Y-80260000D01*
X137898839Y-79680582D01*
X137570625Y-79189375D01*
X137272239Y-78990000D01*
X137570625Y-78790625D01*
X137898839Y-78299418D01*
X138014092Y-77720000D01*
X137898839Y-77140582D01*
X137570625Y-76649375D01*
X137079418Y-76321161D01*
X136646256Y-76235000D01*
X136353744Y-76235000D01*
X135920582Y-76321161D01*
X135525719Y-76585000D01*
X132554487Y-76585000D01*
X132319909Y-76428260D01*
X131901333Y-76345000D01*
X131618667Y-76345000D01*
X131200091Y-76428260D01*
X130725423Y-76745423D01*
X130408260Y-77220091D01*
X130296887Y-77780000D01*
X130408260Y-78339909D01*
X130725423Y-78814577D01*
X131077758Y-79050000D01*
X130725423Y-79285423D01*
X130408260Y-79760091D01*
X130296887Y-80320000D01*
X130408260Y-80879909D01*
X130725423Y-81354577D01*
X131077758Y-81590000D01*
X130725423Y-81825423D01*
X130408260Y-82300091D01*
X130296887Y-82860000D01*
X130408260Y-83419909D01*
X130725423Y-83894577D01*
X131077758Y-84130000D01*
X130725423Y-84365423D01*
X130408260Y-84840091D01*
X130296887Y-85400000D01*
X130408260Y-85959909D01*
X130725423Y-86434577D01*
X131077758Y-86670000D01*
X130725423Y-86905423D01*
X130408260Y-87380091D01*
X130296887Y-87940000D01*
X130408260Y-88499909D01*
X130725423Y-88974577D01*
X130815852Y-89035000D01*
X130441783Y-89035000D01*
X130330000Y-89012765D01*
X130218217Y-89035000D01*
X129887145Y-89100854D01*
X129511711Y-89351711D01*
X129448387Y-89446482D01*
X129026480Y-89868389D01*
X128931712Y-89931711D01*
X128751876Y-90200854D01*
X128680854Y-90307146D01*
X128592765Y-90750000D01*
X128615001Y-90861788D01*
X128615000Y-104498217D01*
X128592765Y-104610000D01*
X128621168Y-104752792D01*
X128620001Y-104752560D01*
X127857692Y-104752560D01*
X127328655Y-104223523D01*
X124635000Y-101529869D01*
X124635000Y-91611783D01*
X124657235Y-91500000D01*
X124569146Y-91057145D01*
X124485334Y-90931712D01*
X124318289Y-90681711D01*
X124223521Y-90618390D01*
X121801613Y-88196482D01*
X121738289Y-88101711D01*
X121362855Y-87850854D01*
X121031783Y-87785000D01*
X120920000Y-87762765D01*
X120808217Y-87785000D01*
X109926518Y-87785000D01*
X109675864Y-87534346D01*
X109075120Y-87285510D01*
X108424880Y-87285510D01*
X107824136Y-87534346D01*
X107364346Y-87994136D01*
X107115510Y-88594880D01*
X102634490Y-88594880D01*
X102385654Y-87994136D01*
X101925864Y-87534346D01*
X101325120Y-87285510D01*
X100674880Y-87285510D01*
X100074136Y-87534346D01*
X99614346Y-87994136D01*
X99365510Y-88594880D01*
X98385000Y-88594880D01*
X98385000Y-85870131D01*
X99723521Y-84531611D01*
X99818289Y-84468289D01*
X100069146Y-84092855D01*
X100135000Y-83761783D01*
X100157235Y-83650000D01*
X100135000Y-83538217D01*
X100135000Y-83067115D01*
X100248157Y-82897765D01*
X100297440Y-82650000D01*
X100297440Y-81350000D01*
X100248157Y-81102235D01*
X100107809Y-80892191D01*
X99897765Y-80751843D01*
X99650000Y-80702560D01*
X99454631Y-80702560D01*
X99727894Y-80589371D01*
X100089371Y-80227894D01*
X100285000Y-79755602D01*
X100285000Y-79255000D01*
X112897560Y-79255000D01*
X112897560Y-80765000D01*
X112946843Y-81012765D01*
X113087191Y-81222809D01*
X113297235Y-81363157D01*
X113545000Y-81412440D01*
X115055000Y-81412440D01*
X115302765Y-81363157D01*
X115512809Y-81222809D01*
X115653157Y-81012765D01*
X115702440Y-80765000D01*
X115702440Y-79255000D01*
X115653157Y-79007235D01*
X115512809Y-78797191D01*
X115302765Y-78656843D01*
X115055000Y-78607560D01*
X113545000Y-78607560D01*
X113297235Y-78656843D01*
X113087191Y-78797191D01*
X112946843Y-79007235D01*
X112897560Y-79255000D01*
X100285000Y-79255000D01*
X100285000Y-79244398D01*
X100089371Y-78772106D01*
X99727894Y-78410629D01*
X99255602Y-78215000D01*
X98744398Y-78215000D01*
X98272106Y-78410629D01*
X97910629Y-78772106D01*
X97715000Y-79244398D01*
X97715000Y-79755602D01*
X97910629Y-80227894D01*
X98272106Y-80589371D01*
X98545369Y-80702560D01*
X98350000Y-80702560D01*
X98102235Y-80751843D01*
X97892191Y-80892191D01*
X97751843Y-81102235D01*
X97702560Y-81350000D01*
X97702560Y-82650000D01*
X97751843Y-82897765D01*
X97865000Y-83067115D01*
X97865000Y-83179868D01*
X96526482Y-84518387D01*
X96431711Y-84581711D01*
X96220945Y-84897146D01*
X96180854Y-84957146D01*
X96092765Y-85400000D01*
X96115000Y-85511783D01*
X96115001Y-91638212D01*
X96092765Y-91750000D01*
X96115000Y-91861783D01*
X96115001Y-95609867D01*
X94279359Y-97445510D01*
X93924880Y-97445510D01*
X93324136Y-97694346D01*
X92864346Y-98154136D01*
X92615510Y-98754880D01*
X92615510Y-99405120D01*
X92864346Y-100005864D01*
X93223482Y-100365000D01*
X92720133Y-100365000D01*
X91135000Y-98779869D01*
X91135000Y-91381783D01*
X91157235Y-91270000D01*
X91069146Y-90827145D01*
X90927395Y-90615000D01*
X90818289Y-90451711D01*
X90723521Y-90388389D01*
X88930012Y-88594880D01*
X92615510Y-88594880D01*
X92615510Y-89245120D01*
X92864346Y-89845864D01*
X93324136Y-90305654D01*
X93924880Y-90554490D01*
X94575120Y-90554490D01*
X95175864Y-90305654D01*
X95635654Y-89845864D01*
X95884490Y-89245120D01*
X95884490Y-88594880D01*
X95635654Y-87994136D01*
X95175864Y-87534346D01*
X94575120Y-87285510D01*
X93924880Y-87285510D01*
X93324136Y-87534346D01*
X92864346Y-87994136D01*
X92615510Y-88594880D01*
X88930012Y-88594880D01*
X84543523Y-84208392D01*
X84304222Y-84048495D01*
X84534577Y-83894577D01*
X84674612Y-83685000D01*
X88588217Y-83685000D01*
X88700000Y-83707235D01*
X88811783Y-83685000D01*
X89142855Y-83619146D01*
X89518289Y-83368289D01*
X89581613Y-83273518D01*
X95720132Y-77135000D01*
X118245001Y-77135000D01*
X118245000Y-79179243D01*
X118201615Y-79222628D01*
X117990000Y-79733512D01*
X117990000Y-80286488D01*
X118201615Y-80797372D01*
X118592628Y-81188385D01*
X119103512Y-81400000D01*
X119656488Y-81400000D01*
X120167372Y-81188385D01*
X120558385Y-80797372D01*
X120770000Y-80286488D01*
X120770000Y-79733512D01*
X120558385Y-79222628D01*
X120515000Y-79179243D01*
X120515000Y-76111782D01*
X120537235Y-76000000D01*
X120515000Y-75888217D01*
X120515000Y-67107115D01*
X120628157Y-66937765D01*
X120677440Y-66690000D01*
X120677440Y-65390000D01*
X120628157Y-65142235D01*
X120487809Y-64932191D01*
X120277765Y-64791843D01*
X120030000Y-64742560D01*
X119834631Y-64742560D01*
X119997735Y-64675000D01*
X122315001Y-64675000D01*
X122315000Y-81415000D01*
X117670757Y-81415000D01*
X117627372Y-81371615D01*
X117116488Y-81160000D01*
X116563512Y-81160000D01*
X116052628Y-81371615D01*
X115661615Y-81762628D01*
X115450000Y-82273512D01*
X115450000Y-82826488D01*
X115661615Y-83337372D01*
X116052628Y-83728385D01*
X116563512Y-83940000D01*
X117116488Y-83940000D01*
X117627372Y-83728385D01*
X117670757Y-83685000D01*
X123338217Y-83685000D01*
X123450000Y-83707235D01*
X123561783Y-83685000D01*
X123892855Y-83619146D01*
X124268289Y-83368289D01*
X124331613Y-83273518D01*
X124381608Y-83223523D01*
X124569146Y-82942854D01*
X124657235Y-82500000D01*
X124585000Y-82136850D01*
X124585000Y-63661782D01*
X124607235Y-63549999D01*
X124519146Y-63107146D01*
X124519146Y-63107145D01*
X124268289Y-62731711D01*
X124262294Y-62727706D01*
X124258289Y-62721711D01*
X123882855Y-62470854D01*
X123551783Y-62405000D01*
X123440000Y-62382765D01*
X123328217Y-62405000D01*
X119997735Y-62405000D01*
X119635602Y-62255000D01*
X119124398Y-62255000D01*
X118762265Y-62405000D01*
X113974148Y-62405000D01*
X113712242Y-62230000D01*
X114064577Y-61994577D01*
X114381740Y-61519909D01*
X114481178Y-61020000D01*
X130296887Y-61020000D01*
X130408260Y-61579909D01*
X130725423Y-62054577D01*
X131077758Y-62290000D01*
X130725423Y-62525423D01*
X130408260Y-63000091D01*
X130296887Y-63560000D01*
X130408260Y-64119909D01*
X130725423Y-64594577D01*
X131077758Y-64830000D01*
X130725423Y-65065423D01*
X130408260Y-65540091D01*
X130296887Y-66100000D01*
X130408260Y-66659909D01*
X130725423Y-67134577D01*
X131077758Y-67370000D01*
X130725423Y-67605423D01*
X130408260Y-68080091D01*
X130296887Y-68640000D01*
X130408260Y-69199909D01*
X130725423Y-69674577D01*
X131077758Y-69910000D01*
X130725423Y-70145423D01*
X130408260Y-70620091D01*
X130296887Y-71180000D01*
X130408260Y-71739909D01*
X130725423Y-72214577D01*
X131077758Y-72450000D01*
X130725423Y-72685423D01*
X130408260Y-73160091D01*
X130296887Y-73720000D01*
X130408260Y-74279909D01*
X130725423Y-74754577D01*
X131200091Y-75071740D01*
X131618667Y-75155000D01*
X131901333Y-75155000D01*
X132319909Y-75071740D01*
X132794577Y-74754577D01*
X132874476Y-74635000D01*
X135076723Y-74635000D01*
X135192191Y-74807809D01*
X135402235Y-74948157D01*
X135650000Y-74997440D01*
X137350000Y-74997440D01*
X137597765Y-74948157D01*
X137807809Y-74807809D01*
X137948157Y-74597765D01*
X137997440Y-74350000D01*
X137997440Y-72650000D01*
X137948157Y-72402235D01*
X137807809Y-72192191D01*
X137597765Y-72051843D01*
X137552381Y-72042816D01*
X137570625Y-72030625D01*
X137898839Y-71539418D01*
X138014092Y-70960000D01*
X137898839Y-70380582D01*
X137570625Y-69889375D01*
X137272239Y-69690000D01*
X137570625Y-69490625D01*
X137898839Y-68999418D01*
X138014092Y-68420000D01*
X137898839Y-67840582D01*
X137570625Y-67349375D01*
X137272239Y-67150000D01*
X137570625Y-66950625D01*
X137898839Y-66459418D01*
X138014092Y-65880000D01*
X137898839Y-65300582D01*
X137570625Y-64809375D01*
X137272239Y-64610000D01*
X137570625Y-64410625D01*
X137898839Y-63919418D01*
X138014092Y-63340000D01*
X137898839Y-62760582D01*
X137570625Y-62269375D01*
X137272239Y-62070000D01*
X137570625Y-61870625D01*
X137898839Y-61379418D01*
X138014092Y-60800000D01*
X137898839Y-60220582D01*
X137570625Y-59729375D01*
X137079418Y-59401161D01*
X136646256Y-59315000D01*
X136353744Y-59315000D01*
X135920582Y-59401161D01*
X135525719Y-59665000D01*
X132546230Y-59665000D01*
X132615134Y-59632389D01*
X132991041Y-59217423D01*
X133151904Y-58829039D01*
X133029915Y-58607000D01*
X131887000Y-58607000D01*
X131887000Y-58627000D01*
X131633000Y-58627000D01*
X131633000Y-58607000D01*
X130490085Y-58607000D01*
X130368096Y-58829039D01*
X130528959Y-59217423D01*
X130904866Y-59632389D01*
X131109108Y-59729053D01*
X130725423Y-59985423D01*
X130408260Y-60460091D01*
X130296887Y-61020000D01*
X114481178Y-61020000D01*
X114493113Y-60960000D01*
X114381740Y-60400091D01*
X114064577Y-59925423D01*
X113680892Y-59669053D01*
X113885134Y-59572389D01*
X114261041Y-59157423D01*
X114421904Y-58769039D01*
X114299915Y-58547000D01*
X113157000Y-58547000D01*
X113157000Y-58567000D01*
X112903000Y-58567000D01*
X112903000Y-58547000D01*
X111760085Y-58547000D01*
X111638096Y-58769039D01*
X111798959Y-59157423D01*
X112174866Y-59572389D01*
X112379108Y-59669053D01*
X112145717Y-59825000D01*
X109975000Y-59825000D01*
X109975000Y-53451783D01*
X109997235Y-53340000D01*
X109909146Y-52897145D01*
X109658289Y-52521711D01*
X109282855Y-52270854D01*
X108951783Y-52205000D01*
X108840000Y-52182765D01*
X108728217Y-52205000D01*
X106545000Y-52205000D01*
X106545000Y-51684283D01*
X106761740Y-51359909D01*
X106873113Y-50800000D01*
X111566887Y-50800000D01*
X111678260Y-51359909D01*
X111995423Y-51834577D01*
X112347758Y-52070000D01*
X111995423Y-52305423D01*
X111678260Y-52780091D01*
X111566887Y-53340000D01*
X111678260Y-53899909D01*
X111995423Y-54374577D01*
X112347758Y-54610000D01*
X111995423Y-54845423D01*
X111678260Y-55320091D01*
X111566887Y-55880000D01*
X111678260Y-56439909D01*
X111995423Y-56914577D01*
X112379108Y-57170947D01*
X112174866Y-57267611D01*
X111798959Y-57682577D01*
X111638096Y-58070961D01*
X111760085Y-58293000D01*
X112903000Y-58293000D01*
X112903000Y-58273000D01*
X113157000Y-58273000D01*
X113157000Y-58293000D01*
X114299915Y-58293000D01*
X114421904Y-58070961D01*
X114261041Y-57682577D01*
X113885134Y-57267611D01*
X113680892Y-57170947D01*
X113914283Y-57015000D01*
X118035380Y-57015000D01*
X118051843Y-57097765D01*
X118192191Y-57307809D01*
X118402235Y-57448157D01*
X118650000Y-57497440D01*
X120350000Y-57497440D01*
X120597765Y-57448157D01*
X120807809Y-57307809D01*
X120948157Y-57097765D01*
X120997440Y-56850000D01*
X120997440Y-55150000D01*
X120948157Y-54902235D01*
X120807809Y-54692191D01*
X120597765Y-54551843D01*
X120552381Y-54542816D01*
X120570625Y-54530625D01*
X120898839Y-54039418D01*
X121014092Y-53460000D01*
X120898839Y-52880582D01*
X120570625Y-52389375D01*
X120272239Y-52190000D01*
X120570625Y-51990625D01*
X120898839Y-51499418D01*
X121014092Y-50920000D01*
X121002158Y-50860000D01*
X130296887Y-50860000D01*
X130408260Y-51419909D01*
X130725423Y-51894577D01*
X131077758Y-52130000D01*
X130725423Y-52365423D01*
X130408260Y-52840091D01*
X130296887Y-53400000D01*
X130408260Y-53959909D01*
X130725423Y-54434577D01*
X131077758Y-54670000D01*
X130725423Y-54905423D01*
X130408260Y-55380091D01*
X130296887Y-55940000D01*
X130408260Y-56499909D01*
X130725423Y-56974577D01*
X131109108Y-57230947D01*
X130904866Y-57327611D01*
X130528959Y-57742577D01*
X130368096Y-58130961D01*
X130490085Y-58353000D01*
X131633000Y-58353000D01*
X131633000Y-58333000D01*
X131887000Y-58333000D01*
X131887000Y-58353000D01*
X133029915Y-58353000D01*
X133151904Y-58130961D01*
X132991041Y-57742577D01*
X132615134Y-57327611D01*
X132410892Y-57230947D01*
X132554487Y-57135000D01*
X135076723Y-57135000D01*
X135192191Y-57307809D01*
X135402235Y-57448157D01*
X135650000Y-57497440D01*
X137350000Y-57497440D01*
X137597765Y-57448157D01*
X137807809Y-57307809D01*
X137948157Y-57097765D01*
X137997440Y-56850000D01*
X137997440Y-55150000D01*
X137948157Y-54902235D01*
X137807809Y-54692191D01*
X137597765Y-54551843D01*
X137552381Y-54542816D01*
X137570625Y-54530625D01*
X137898839Y-54039418D01*
X138014092Y-53460000D01*
X137898839Y-52880582D01*
X137570625Y-52389375D01*
X137272239Y-52190000D01*
X137570625Y-51990625D01*
X137898839Y-51499418D01*
X138014092Y-50920000D01*
X137898839Y-50340582D01*
X137570625Y-49849375D01*
X137079418Y-49521161D01*
X136646256Y-49435000D01*
X136353744Y-49435000D01*
X135920582Y-49521161D01*
X135525719Y-49785000D01*
X132734080Y-49785000D01*
X132319909Y-49508260D01*
X131901333Y-49425000D01*
X131618667Y-49425000D01*
X131200091Y-49508260D01*
X130725423Y-49825423D01*
X130408260Y-50300091D01*
X130296887Y-50860000D01*
X121002158Y-50860000D01*
X120898839Y-50340582D01*
X120570625Y-49849375D01*
X120079418Y-49521161D01*
X119646256Y-49435000D01*
X119353744Y-49435000D01*
X118920582Y-49521161D01*
X118705312Y-49665000D01*
X113914283Y-49665000D01*
X113589909Y-49448260D01*
X113171333Y-49365000D01*
X112888667Y-49365000D01*
X112470091Y-49448260D01*
X111995423Y-49765423D01*
X111678260Y-50240091D01*
X111566887Y-50800000D01*
X106873113Y-50800000D01*
X106761740Y-50240091D01*
X106444577Y-49765423D01*
X105969909Y-49448260D01*
X105551333Y-49365000D01*
X105268667Y-49365000D01*
X104850091Y-49448260D01*
X104375423Y-49765423D01*
X104058260Y-50240091D01*
X103946887Y-50800000D01*
X104058260Y-51359909D01*
X104275000Y-51684284D01*
X104275001Y-52205000D01*
X103271783Y-52205000D01*
X103160000Y-52182765D01*
X102717145Y-52270854D01*
X102341711Y-52521711D01*
X102090854Y-52897145D01*
X102002765Y-53340000D01*
X102025000Y-53451783D01*
X102025001Y-60548212D01*
X102002765Y-60660000D01*
X102090854Y-61102854D01*
X102090855Y-61102855D01*
X102341712Y-61478289D01*
X102436480Y-61541611D01*
X102578387Y-61683518D01*
X102641711Y-61778289D01*
X103017145Y-62029146D01*
X103144996Y-62054577D01*
X103459999Y-62117235D01*
X103571782Y-62095000D01*
X104525717Y-62095000D01*
X104727758Y-62230000D01*
X104525717Y-62365000D01*
X100256518Y-62365000D01*
X99925864Y-62034346D01*
X99325120Y-61785510D01*
X98674880Y-61785510D01*
X98074136Y-62034346D01*
X97743482Y-62365000D01*
X92367735Y-62365000D01*
X92005602Y-62215000D01*
X91494398Y-62215000D01*
X91022106Y-62410629D01*
X90660629Y-62772106D01*
X90465000Y-63244398D01*
X90465000Y-63755602D01*
X90660629Y-64227894D01*
X91022106Y-64589371D01*
X91295369Y-64702560D01*
X91100000Y-64702560D01*
X90852235Y-64751843D01*
X90642191Y-64892191D01*
X90501843Y-65102235D01*
X90452560Y-65350000D01*
X90452560Y-66650000D01*
X90501843Y-66897765D01*
X90615000Y-67067115D01*
X90615001Y-72888212D01*
X90592765Y-73000000D01*
X90680854Y-73442854D01*
X90680855Y-73442855D01*
X90931712Y-73818289D01*
X91026480Y-73881611D01*
X91448387Y-74303518D01*
X91511711Y-74398289D01*
X91865974Y-74635000D01*
X91887145Y-74649146D01*
X92330000Y-74737235D01*
X92441783Y-74715000D01*
X97823482Y-74715000D01*
X97973482Y-74865000D01*
X95361783Y-74865000D01*
X95250000Y-74842765D01*
X95138217Y-74865000D01*
X94807145Y-74930854D01*
X94431711Y-75181711D01*
X94368389Y-75276479D01*
X88229869Y-81415000D01*
X83708217Y-81415000D01*
X83649638Y-81426652D01*
X83641333Y-81425000D01*
X83358667Y-81425000D01*
X82940091Y-81508260D01*
X82705513Y-81665000D01*
X79474281Y-81665000D01*
X79079418Y-81401161D01*
X78646256Y-81315000D01*
X78353744Y-81315000D01*
X77920582Y-81401161D01*
X77429375Y-81729375D01*
X77101161Y-82220582D01*
X76985908Y-82800000D01*
X75660000Y-82800000D01*
X75660000Y-72540000D01*
X76985908Y-72540000D01*
X77101161Y-73119418D01*
X77429375Y-73610625D01*
X77920582Y-73938839D01*
X78353744Y-74025000D01*
X78646256Y-74025000D01*
X79079418Y-73938839D01*
X79570625Y-73610625D01*
X79898839Y-73119418D01*
X80014092Y-72540000D01*
X79898839Y-71960582D01*
X79570625Y-71469375D01*
X79552381Y-71457184D01*
X79597765Y-71448157D01*
X79807809Y-71307809D01*
X79948157Y-71097765D01*
X79997440Y-70850000D01*
X79997440Y-69150000D01*
X79948157Y-68902235D01*
X79807809Y-68692191D01*
X79597765Y-68551843D01*
X79350000Y-68502560D01*
X77650000Y-68502560D01*
X77402235Y-68551843D01*
X77192191Y-68692191D01*
X77051843Y-68902235D01*
X77002560Y-69150000D01*
X77002560Y-70850000D01*
X77051843Y-71097765D01*
X77192191Y-71307809D01*
X77402235Y-71448157D01*
X77447619Y-71457184D01*
X77429375Y-71469375D01*
X77101161Y-71960582D01*
X76985908Y-72540000D01*
X75660000Y-72540000D01*
X75660000Y-51990000D01*
X76935908Y-51990000D01*
X77051161Y-52569418D01*
X77315000Y-52964281D01*
X77315000Y-54660132D01*
X77192191Y-54742191D01*
X77051843Y-54952235D01*
X77002560Y-55200000D01*
X77002560Y-56900000D01*
X77051843Y-57147765D01*
X77192191Y-57357809D01*
X77315001Y-57439869D01*
X77315001Y-57690548D01*
X77101161Y-58010582D01*
X76985908Y-58590000D01*
X77101161Y-59169418D01*
X77429375Y-59660625D01*
X77920582Y-59988839D01*
X78353744Y-60075000D01*
X78646256Y-60075000D01*
X79079418Y-59988839D01*
X79570625Y-59660625D01*
X79898839Y-59169418D01*
X80014092Y-58590000D01*
X79898839Y-58010582D01*
X79585000Y-57540889D01*
X79585000Y-57500696D01*
X79597765Y-57498157D01*
X79807809Y-57357809D01*
X79948157Y-57147765D01*
X79997440Y-56900000D01*
X79997440Y-55675000D01*
X86865001Y-55675000D01*
X86865000Y-66485000D01*
X84384283Y-66485000D01*
X84182242Y-66350000D01*
X84534577Y-66114577D01*
X84851740Y-65639909D01*
X84963113Y-65080000D01*
X84851740Y-64520091D01*
X84534577Y-64045423D01*
X84182242Y-63810000D01*
X84534577Y-63574577D01*
X84851740Y-63099909D01*
X84963113Y-62540000D01*
X84851740Y-61980091D01*
X84534577Y-61505423D01*
X84413894Y-61424785D01*
X84547765Y-61398157D01*
X84757809Y-61257809D01*
X84898157Y-61047765D01*
X84947440Y-60800000D01*
X84947440Y-59200000D01*
X84898157Y-58952235D01*
X84757809Y-58742191D01*
X84547765Y-58601843D01*
X84300000Y-58552560D01*
X82700000Y-58552560D01*
X82452235Y-58601843D01*
X82242191Y-58742191D01*
X82101843Y-58952235D01*
X82052560Y-59200000D01*
X82052560Y-60800000D01*
X82101843Y-61047765D01*
X82242191Y-61257809D01*
X82402612Y-61365000D01*
X79923277Y-61365000D01*
X79807809Y-61192191D01*
X79597765Y-61051843D01*
X79350000Y-61002560D01*
X77650000Y-61002560D01*
X77402235Y-61051843D01*
X77192191Y-61192191D01*
X77051843Y-61402235D01*
X77002560Y-61650000D01*
X77002560Y-63350000D01*
X77051843Y-63597765D01*
X77192191Y-63807809D01*
X77402235Y-63948157D01*
X77447619Y-63957184D01*
X77429375Y-63969375D01*
X77101161Y-64460582D01*
X76985908Y-65040000D01*
X77101161Y-65619418D01*
X77429375Y-66110625D01*
X77920582Y-66438839D01*
X78353744Y-66525000D01*
X78646256Y-66525000D01*
X79079418Y-66438839D01*
X79474281Y-66175000D01*
X82555852Y-66175000D01*
X82817758Y-66350000D01*
X82465423Y-66585423D01*
X82148260Y-67060091D01*
X82036887Y-67620000D01*
X82148260Y-68179909D01*
X82465423Y-68654577D01*
X82817758Y-68890000D01*
X82465423Y-69125423D01*
X82148260Y-69600091D01*
X82036887Y-70160000D01*
X82148260Y-70719909D01*
X82465423Y-71194577D01*
X82817758Y-71430000D01*
X82615717Y-71565000D01*
X81911782Y-71565000D01*
X81799999Y-71542765D01*
X81539480Y-71594585D01*
X81357145Y-71630854D01*
X80981711Y-71881711D01*
X80918387Y-71976482D01*
X80776480Y-72118389D01*
X80681712Y-72181711D01*
X80557064Y-72368260D01*
X80430854Y-72557146D01*
X80342765Y-73000000D01*
X80365001Y-73111788D01*
X80365000Y-75365000D01*
X79923277Y-75365000D01*
X79807809Y-75192191D01*
X79597765Y-75051843D01*
X79350000Y-75002560D01*
X77650000Y-75002560D01*
X77402235Y-75051843D01*
X77192191Y-75192191D01*
X77051843Y-75402235D01*
X77002560Y-75650000D01*
X77002560Y-77350000D01*
X77051843Y-77597765D01*
X77192191Y-77807809D01*
X77365001Y-77923278D01*
X77365001Y-78065718D01*
X77101161Y-78460582D01*
X76985908Y-79040000D01*
X77101161Y-79619418D01*
X77429375Y-80110625D01*
X77920582Y-80438839D01*
X78353744Y-80525000D01*
X78646256Y-80525000D01*
X79079418Y-80438839D01*
X79570625Y-80110625D01*
X79898839Y-79619418D01*
X80014092Y-79040000D01*
X79898839Y-78460582D01*
X79635000Y-78065719D01*
X79635000Y-77923277D01*
X79807809Y-77807809D01*
X79923277Y-77635000D01*
X81388217Y-77635000D01*
X81500000Y-77657235D01*
X81611783Y-77635000D01*
X81942855Y-77569146D01*
X82099671Y-77464365D01*
X82036887Y-77780000D01*
X82148260Y-78339909D01*
X82465423Y-78814577D01*
X82940091Y-79131740D01*
X83358667Y-79215000D01*
X83641333Y-79215000D01*
X84059909Y-79131740D01*
X84534577Y-78814577D01*
X84851740Y-78339909D01*
X84963113Y-77780000D01*
X84851740Y-77220091D01*
X84534577Y-76745423D01*
X84182242Y-76510000D01*
X84534577Y-76274577D01*
X84851740Y-75799909D01*
X84963113Y-75240000D01*
X84851740Y-74680091D01*
X84534577Y-74205423D01*
X84182242Y-73970000D01*
X84534577Y-73734577D01*
X84851740Y-73259909D01*
X84963113Y-72700000D01*
X84851740Y-72140091D01*
X84534577Y-71665423D01*
X84182242Y-71430000D01*
X84534577Y-71194577D01*
X84851740Y-70719909D01*
X84963113Y-70160000D01*
X84851740Y-69600091D01*
X84534577Y-69125423D01*
X84182242Y-68890000D01*
X84384283Y-68755000D01*
X87268217Y-68755000D01*
X87380000Y-68777235D01*
X87491783Y-68755000D01*
X87822855Y-68689146D01*
X88198289Y-68438289D01*
X88261613Y-68343518D01*
X88723519Y-67881612D01*
X88818289Y-67818289D01*
X89069146Y-67442855D01*
X89135000Y-67111783D01*
X89135000Y-67111782D01*
X89157235Y-67000001D01*
X89135000Y-66888219D01*
X89135000Y-54611783D01*
X89157235Y-54500000D01*
X89082349Y-54123523D01*
X89069146Y-54057145D01*
X88818289Y-53681711D01*
X88442855Y-53430854D01*
X88000000Y-53342765D01*
X87687123Y-53405000D01*
X79585000Y-53405000D01*
X79585000Y-52964281D01*
X79848839Y-52569418D01*
X79964092Y-51990000D01*
X79848839Y-51410582D01*
X79585000Y-51015719D01*
X79585000Y-50873277D01*
X79757809Y-50757809D01*
X79898157Y-50547765D01*
X79947440Y-50300000D01*
X79947440Y-48600000D01*
X79898157Y-48352235D01*
X79757809Y-48142191D01*
X79547765Y-48001843D01*
X79300000Y-47952560D01*
X77600000Y-47952560D01*
X77352235Y-48001843D01*
X77142191Y-48142191D01*
X77001843Y-48352235D01*
X76952560Y-48600000D01*
X76952560Y-50300000D01*
X77001843Y-50547765D01*
X77142191Y-50757809D01*
X77315000Y-50873277D01*
X77315000Y-51015718D01*
X77051161Y-51410582D01*
X76935908Y-51990000D01*
X75660000Y-51990000D01*
X75660000Y-45540000D01*
X76985908Y-45540000D01*
X77101161Y-46119418D01*
X77429375Y-46610625D01*
X77920582Y-46938839D01*
X78353744Y-47025000D01*
X78646256Y-47025000D01*
X79079418Y-46938839D01*
X79570625Y-46610625D01*
X79898839Y-46119418D01*
X80014092Y-45540000D01*
X79907651Y-45004880D01*
X84725510Y-45004880D01*
X84725510Y-45655120D01*
X84974346Y-46255864D01*
X85434136Y-46715654D01*
X86034880Y-46964490D01*
X86685120Y-46964490D01*
X87285864Y-46715654D01*
X87519355Y-46482163D01*
X93027443Y-46482163D01*
X93126042Y-46748965D01*
X93735582Y-46975401D01*
X94385377Y-46951341D01*
X94873958Y-46748965D01*
X94972557Y-46482163D01*
X94000000Y-45509605D01*
X93027443Y-46482163D01*
X87519355Y-46482163D01*
X87745654Y-46255864D01*
X87994490Y-45655120D01*
X87994490Y-45065582D01*
X92354599Y-45065582D01*
X92378659Y-45715377D01*
X92581035Y-46203958D01*
X92847837Y-46302557D01*
X93820395Y-45330000D01*
X94179605Y-45330000D01*
X95152163Y-46302557D01*
X95418965Y-46203958D01*
X95518177Y-45936890D01*
X135058524Y-45936890D01*
X135228355Y-46346924D01*
X135618642Y-46775183D01*
X136143108Y-47021486D01*
X136373000Y-46900819D01*
X136373000Y-45707000D01*
X136627000Y-45707000D01*
X136627000Y-46900819D01*
X136856892Y-47021486D01*
X137381358Y-46775183D01*
X137771645Y-46346924D01*
X137941476Y-45936890D01*
X137820155Y-45707000D01*
X136627000Y-45707000D01*
X136373000Y-45707000D01*
X135179845Y-45707000D01*
X135058524Y-45936890D01*
X95518177Y-45936890D01*
X95645401Y-45594418D01*
X95621341Y-44944623D01*
X95418965Y-44456042D01*
X95152163Y-44357443D01*
X94179605Y-45330000D01*
X93820395Y-45330000D01*
X92847837Y-44357443D01*
X92581035Y-44456042D01*
X92354599Y-45065582D01*
X87994490Y-45065582D01*
X87994490Y-45004880D01*
X87745654Y-44404136D01*
X87519355Y-44177837D01*
X93027443Y-44177837D01*
X94000000Y-45150395D01*
X94972557Y-44177837D01*
X94873958Y-43911035D01*
X94264418Y-43684599D01*
X93614623Y-43708659D01*
X93126042Y-43911035D01*
X93027443Y-44177837D01*
X87519355Y-44177837D01*
X87285864Y-43944346D01*
X86685120Y-43695510D01*
X86034880Y-43695510D01*
X85434136Y-43944346D01*
X84974346Y-44404136D01*
X84725510Y-45004880D01*
X79907651Y-45004880D01*
X79898839Y-44960582D01*
X79570625Y-44469375D01*
X79552381Y-44457184D01*
X79597765Y-44448157D01*
X79807809Y-44307809D01*
X79948157Y-44097765D01*
X79997440Y-43850000D01*
X79997440Y-43396890D01*
X135058524Y-43396890D01*
X135228355Y-43806924D01*
X135618642Y-44235183D01*
X135777954Y-44310000D01*
X135618642Y-44384817D01*
X135228355Y-44813076D01*
X135058524Y-45223110D01*
X135179845Y-45453000D01*
X136373000Y-45453000D01*
X136373000Y-43167000D01*
X136627000Y-43167000D01*
X136627000Y-45453000D01*
X137820155Y-45453000D01*
X137941476Y-45223110D01*
X137771645Y-44813076D01*
X137381358Y-44384817D01*
X137222046Y-44310000D01*
X137381358Y-44235183D01*
X137771645Y-43806924D01*
X137941476Y-43396890D01*
X137820155Y-43167000D01*
X136627000Y-43167000D01*
X136373000Y-43167000D01*
X135179845Y-43167000D01*
X135058524Y-43396890D01*
X79997440Y-43396890D01*
X79997440Y-42150000D01*
X79948157Y-41902235D01*
X79807809Y-41692191D01*
X79597765Y-41551843D01*
X79350000Y-41502560D01*
X77650000Y-41502560D01*
X77402235Y-41551843D01*
X77192191Y-41692191D01*
X77051843Y-41902235D01*
X77002560Y-42150000D01*
X77002560Y-43850000D01*
X77051843Y-44097765D01*
X77192191Y-44307809D01*
X77402235Y-44448157D01*
X77447619Y-44457184D01*
X77429375Y-44469375D01*
X77101161Y-44960582D01*
X76985908Y-45540000D01*
X75660000Y-45540000D01*
X75660000Y-40785750D01*
X135015000Y-40785750D01*
X135015000Y-41476310D01*
X135111673Y-41709699D01*
X135290302Y-41888327D01*
X135499878Y-41975136D01*
X135228355Y-42273076D01*
X135058524Y-42683110D01*
X135179845Y-42913000D01*
X136373000Y-42913000D01*
X136373000Y-40627000D01*
X136627000Y-40627000D01*
X136627000Y-42913000D01*
X137820155Y-42913000D01*
X137941476Y-42683110D01*
X137771645Y-42273076D01*
X137500122Y-41975136D01*
X137709698Y-41888327D01*
X137888327Y-41709699D01*
X137985000Y-41476310D01*
X137985000Y-40785750D01*
X137826250Y-40627000D01*
X136627000Y-40627000D01*
X136373000Y-40627000D01*
X135173750Y-40627000D01*
X135015000Y-40785750D01*
X75660000Y-40785750D01*
X75660000Y-39523690D01*
X135015000Y-39523690D01*
X135015000Y-40214250D01*
X135173750Y-40373000D01*
X136373000Y-40373000D01*
X136373000Y-39173750D01*
X136627000Y-39173750D01*
X136627000Y-40373000D01*
X137826250Y-40373000D01*
X137985000Y-40214250D01*
X137985000Y-39523690D01*
X137888327Y-39290301D01*
X137709698Y-39111673D01*
X137476309Y-39015000D01*
X136785750Y-39015000D01*
X136627000Y-39173750D01*
X136373000Y-39173750D01*
X136214250Y-39015000D01*
X135523691Y-39015000D01*
X135290302Y-39111673D01*
X135111673Y-39290301D01*
X135015000Y-39523690D01*
X75660000Y-39523690D01*
X75660000Y-34844880D01*
X84725510Y-34844880D01*
X84725510Y-35495120D01*
X84974346Y-36095864D01*
X85434136Y-36555654D01*
X86034880Y-36804490D01*
X86685120Y-36804490D01*
X87285864Y-36555654D01*
X87745654Y-36095864D01*
X87994490Y-35495120D01*
X87994490Y-34844880D01*
X92365510Y-34844880D01*
X92365510Y-35495120D01*
X92614346Y-36095864D01*
X93074136Y-36555654D01*
X93674880Y-36804490D01*
X94325120Y-36804490D01*
X94925864Y-36555654D01*
X95385654Y-36095864D01*
X95634490Y-35495120D01*
X95634490Y-34844880D01*
X95385654Y-34244136D01*
X94925864Y-33784346D01*
X94325120Y-33535510D01*
X93674880Y-33535510D01*
X93074136Y-33784346D01*
X92614346Y-34244136D01*
X92365510Y-34844880D01*
X87994490Y-34844880D01*
X87745654Y-34244136D01*
X87285864Y-33784346D01*
X86685120Y-33535510D01*
X86034880Y-33535510D01*
X85434136Y-33784346D01*
X84974346Y-34244136D01*
X84725510Y-34844880D01*
X75660000Y-34844880D01*
X75660000Y-25660000D01*
X139340001Y-25660000D01*
X139340000Y-112840000D01*
X139340000Y-112840000D01*
G37*
X139340000Y-112840000D02*
X97227106Y-112840000D01*
X75660000Y-112823164D01*
X75660000Y-82800000D01*
X76985908Y-82800000D01*
X77101161Y-83379418D01*
X77429375Y-83870625D01*
X77727761Y-84070000D01*
X77429375Y-84269375D01*
X77101161Y-84760582D01*
X76985908Y-85340000D01*
X77101161Y-85919418D01*
X77429375Y-86410625D01*
X77727761Y-86610000D01*
X77429375Y-86809375D01*
X77101161Y-87300582D01*
X76985908Y-87880000D01*
X77101161Y-88459418D01*
X77429375Y-88950625D01*
X77727761Y-89150000D01*
X77429375Y-89349375D01*
X77101161Y-89840582D01*
X76985908Y-90420000D01*
X77101161Y-90999418D01*
X77429375Y-91490625D01*
X77727761Y-91690000D01*
X77429375Y-91889375D01*
X77101161Y-92380582D01*
X76985908Y-92960000D01*
X77101161Y-93539418D01*
X77429375Y-94030625D01*
X77447619Y-94042816D01*
X77402235Y-94051843D01*
X77192191Y-94192191D01*
X77051843Y-94402235D01*
X77002560Y-94650000D01*
X77002560Y-96350000D01*
X77051843Y-96597765D01*
X77192191Y-96807809D01*
X77402235Y-96948157D01*
X77650000Y-96997440D01*
X79350000Y-96997440D01*
X79597765Y-96948157D01*
X79807809Y-96807809D01*
X79923277Y-96635000D01*
X82525920Y-96635000D01*
X82940091Y-96911740D01*
X83358667Y-96995000D01*
X83641333Y-96995000D01*
X84059909Y-96911740D01*
X84155000Y-96848202D01*
X84155001Y-105240525D01*
X84004586Y-105015414D01*
X83713436Y-104820873D01*
X83370001Y-104752560D01*
X82129999Y-104752560D01*
X81786564Y-104820873D01*
X81495414Y-105015414D01*
X81300873Y-105306564D01*
X81232560Y-105649999D01*
X81232560Y-107350001D01*
X81300873Y-107693436D01*
X81495414Y-107984586D01*
X81786564Y-108179127D01*
X82129999Y-108247440D01*
X83370001Y-108247440D01*
X83713436Y-108179127D01*
X84004586Y-107984586D01*
X84161413Y-107749878D01*
X84204956Y-107815044D01*
X84702779Y-108147678D01*
X85290000Y-108264484D01*
X85877222Y-108147678D01*
X86375044Y-107815044D01*
X86560000Y-107538237D01*
X86744956Y-107815044D01*
X87242779Y-108147678D01*
X87830000Y-108264484D01*
X88417222Y-108147678D01*
X88915044Y-107815044D01*
X89107159Y-107527522D01*
X89399509Y-107890533D01*
X89917500Y-108173584D01*
X90009969Y-108191302D01*
X90243000Y-108070246D01*
X90243000Y-106627000D01*
X90497000Y-106627000D01*
X90497000Y-108070246D01*
X90730031Y-108191302D01*
X90822500Y-108173584D01*
X91340491Y-107890533D01*
X91710734Y-107430802D01*
X91876862Y-106864380D01*
X91720582Y-106627000D01*
X90497000Y-106627000D01*
X90243000Y-106627000D01*
X90223000Y-106627000D01*
X90223000Y-106373000D01*
X90243000Y-106373000D01*
X90243000Y-104929754D01*
X90497000Y-104929754D01*
X90497000Y-106373000D01*
X91720582Y-106373000D01*
X91876862Y-106135620D01*
X91710734Y-105569198D01*
X91340491Y-105109467D01*
X90822500Y-104826416D01*
X90730031Y-104808698D01*
X90497000Y-104929754D01*
X90243000Y-104929754D01*
X90009969Y-104808698D01*
X89917500Y-104826416D01*
X89399509Y-105109467D01*
X89107160Y-105472477D01*
X88965000Y-105259720D01*
X88965000Y-99743957D01*
X89181711Y-100068289D01*
X89276481Y-100131613D01*
X91368391Y-102223524D01*
X91431711Y-102318289D01*
X91526475Y-102381608D01*
X91526476Y-102381609D01*
X91807145Y-102569146D01*
X92250000Y-102657235D01*
X92361783Y-102635000D01*
X99259869Y-102635000D01*
X98336480Y-103558389D01*
X98241712Y-103621711D01*
X98128121Y-103791712D01*
X97990854Y-103997146D01*
X97902765Y-104440000D01*
X97925001Y-104551788D01*
X97925001Y-105115508D01*
X97805414Y-105195414D01*
X97610873Y-105486564D01*
X97542560Y-105829999D01*
X97542560Y-107530001D01*
X97610873Y-107873436D01*
X97805414Y-108164586D01*
X98096564Y-108359127D01*
X98439999Y-108427440D01*
X99680001Y-108427440D01*
X100023436Y-108359127D01*
X100314586Y-108164586D01*
X100491737Y-107899462D01*
X100629509Y-108070533D01*
X101147500Y-108353584D01*
X101239969Y-108371302D01*
X101473000Y-108250246D01*
X101473000Y-106807000D01*
X101727000Y-106807000D01*
X101727000Y-108250246D01*
X101960031Y-108371302D01*
X102052500Y-108353584D01*
X102570491Y-108070533D01*
X102940734Y-107610802D01*
X103106862Y-107044380D01*
X102988359Y-106864380D01*
X110123138Y-106864380D01*
X110289266Y-107430802D01*
X110659509Y-107890533D01*
X111177500Y-108173584D01*
X111269969Y-108191302D01*
X111503000Y-108070246D01*
X111503000Y-106627000D01*
X111757000Y-106627000D01*
X111757000Y-108070246D01*
X111990031Y-108191302D01*
X112082500Y-108173584D01*
X112600491Y-107890533D01*
X112900000Y-107518632D01*
X113199509Y-107890533D01*
X113717500Y-108173584D01*
X113809969Y-108191302D01*
X114043000Y-108070246D01*
X114043000Y-106627000D01*
X111757000Y-106627000D01*
X111503000Y-106627000D01*
X110279418Y-106627000D01*
X110123138Y-106864380D01*
X102988359Y-106864380D01*
X102950582Y-106807000D01*
X101727000Y-106807000D01*
X101473000Y-106807000D01*
X101453000Y-106807000D01*
X101453000Y-106553000D01*
X101473000Y-106553000D01*
X101473000Y-105109754D01*
X101727000Y-105109754D01*
X101727000Y-106553000D01*
X102950582Y-106553000D01*
X103106862Y-106315620D01*
X103054070Y-106135620D01*
X110123138Y-106135620D01*
X110279418Y-106373000D01*
X111503000Y-106373000D01*
X111503000Y-104929754D01*
X111757000Y-104929754D01*
X111757000Y-106373000D01*
X114043000Y-106373000D01*
X114043000Y-104929754D01*
X113809969Y-104808698D01*
X113717500Y-104826416D01*
X113199509Y-105109467D01*
X112900000Y-105481368D01*
X112600491Y-105109467D01*
X112082500Y-104826416D01*
X111990031Y-104808698D01*
X111757000Y-104929754D01*
X111503000Y-104929754D01*
X111269969Y-104808698D01*
X111177500Y-104826416D01*
X110659509Y-105109467D01*
X110289266Y-105569198D01*
X110123138Y-106135620D01*
X103054070Y-106135620D01*
X102940734Y-105749198D01*
X102570491Y-105289467D01*
X102052500Y-105006416D01*
X101960031Y-104988698D01*
X101727000Y-105109754D01*
X101473000Y-105109754D01*
X101239969Y-104988698D01*
X101147500Y-105006416D01*
X100629509Y-105289467D01*
X100491737Y-105460538D01*
X100314586Y-105195414D01*
X100195000Y-105115509D01*
X100195000Y-104910131D01*
X102470132Y-102635000D01*
X106218217Y-102635000D01*
X106330000Y-102657235D01*
X106441783Y-102635000D01*
X106772855Y-102569146D01*
X107148289Y-102318289D01*
X107211613Y-102223518D01*
X108720642Y-100714490D01*
X109075120Y-100714490D01*
X109675864Y-100465654D01*
X110135654Y-100005864D01*
X110384490Y-99405120D01*
X110384490Y-98754880D01*
X110135654Y-98154136D01*
X109675864Y-97694346D01*
X109075120Y-97445510D01*
X108424880Y-97445510D01*
X107824136Y-97694346D01*
X107364346Y-98154136D01*
X107115510Y-98754880D01*
X107115510Y-99109358D01*
X105859869Y-100365000D01*
X102111783Y-100365000D01*
X102040664Y-100350854D01*
X102385654Y-100005864D01*
X102634490Y-99405120D01*
X102634490Y-98754880D01*
X102385654Y-98154136D01*
X102251579Y-98020061D01*
X104386640Y-95885000D01*
X115575000Y-95885000D01*
X115575001Y-105259719D01*
X115432840Y-105472477D01*
X115140491Y-105109467D01*
X114622500Y-104826416D01*
X114530031Y-104808698D01*
X114297000Y-104929754D01*
X114297000Y-106373000D01*
X114317000Y-106373000D01*
X114317000Y-106627000D01*
X114297000Y-106627000D01*
X114297000Y-108070246D01*
X114530031Y-108191302D01*
X114622500Y-108173584D01*
X115140491Y-107890533D01*
X115432841Y-107527522D01*
X115624956Y-107815044D01*
X116122778Y-108147678D01*
X116710000Y-108264484D01*
X117297221Y-108147678D01*
X117795044Y-107815044D01*
X117838587Y-107749878D01*
X117995414Y-107984586D01*
X118286564Y-108179127D01*
X118629999Y-108247440D01*
X119870001Y-108247440D01*
X120213436Y-108179127D01*
X120504586Y-107984586D01*
X120699127Y-107693436D01*
X120767440Y-107350001D01*
X120767440Y-105649999D01*
X120699127Y-105306564D01*
X120504586Y-105015414D01*
X120385000Y-104935509D01*
X120385000Y-92611782D01*
X120407235Y-92499999D01*
X120319146Y-92057145D01*
X120242779Y-91942854D01*
X120068289Y-91681711D01*
X119973521Y-91618389D01*
X119381613Y-91026481D01*
X119318289Y-90931711D01*
X118942855Y-90680854D01*
X118611783Y-90615000D01*
X118500000Y-90592765D01*
X118388217Y-90615000D01*
X98385000Y-90615000D01*
X98385000Y-88594880D01*
X99365510Y-88594880D01*
X99365510Y-89245120D01*
X99614346Y-89845864D01*
X100074136Y-90305654D01*
X100674880Y-90554490D01*
X101325120Y-90554490D01*
X101925864Y-90305654D01*
X102385654Y-89845864D01*
X102634490Y-89245120D01*
X102634490Y-88594880D01*
X107115510Y-88594880D01*
X107115510Y-89245120D01*
X107364346Y-89845864D01*
X107824136Y-90305654D01*
X108424880Y-90554490D01*
X109075120Y-90554490D01*
X109675864Y-90305654D01*
X109926518Y-90055000D01*
X120449869Y-90055000D01*
X122365000Y-91970132D01*
X122365001Y-101888212D01*
X122342765Y-102000000D01*
X122430854Y-102442854D01*
X122430855Y-102442855D01*
X122681712Y-102818289D01*
X122776480Y-102881611D01*
X126482560Y-106587692D01*
X126482560Y-107350001D01*
X126550873Y-107693436D01*
X126745414Y-107984586D01*
X127036564Y-108179127D01*
X127379999Y-108247440D01*
X128620001Y-108247440D01*
X128963436Y-108179127D01*
X129254586Y-107984586D01*
X129411413Y-107749878D01*
X129454956Y-107815044D01*
X129952779Y-108147678D01*
X130540000Y-108264484D01*
X131127222Y-108147678D01*
X131625044Y-107815044D01*
X131817159Y-107527522D01*
X132109509Y-107890533D01*
X132627500Y-108173584D01*
X132719969Y-108191302D01*
X132953000Y-108070246D01*
X132953000Y-106627000D01*
X133207000Y-106627000D01*
X133207000Y-108070246D01*
X133440031Y-108191302D01*
X133532500Y-108173584D01*
X134050491Y-107890533D01*
X134420734Y-107430802D01*
X134586862Y-106864380D01*
X134430582Y-106627000D01*
X133207000Y-106627000D01*
X132953000Y-106627000D01*
X132933000Y-106627000D01*
X132933000Y-106373000D01*
X132953000Y-106373000D01*
X132953000Y-104929754D01*
X133207000Y-104929754D01*
X133207000Y-106373000D01*
X134430582Y-106373000D01*
X134586862Y-106135620D01*
X134420734Y-105569198D01*
X134050491Y-105109467D01*
X133532500Y-104826416D01*
X133440031Y-104808698D01*
X133207000Y-104929754D01*
X132953000Y-104929754D01*
X132719969Y-104808698D01*
X132627500Y-104826416D01*
X132109509Y-105109467D01*
X131817160Y-105472477D01*
X131666929Y-105247642D01*
X131609146Y-104957145D01*
X131421608Y-104676476D01*
X130885000Y-104139869D01*
X130885000Y-96701203D01*
X131200091Y-96911740D01*
X131618667Y-96995000D01*
X131901333Y-96995000D01*
X132319909Y-96911740D01*
X132734080Y-96635000D01*
X135076723Y-96635000D01*
X135192191Y-96807809D01*
X135402235Y-96948157D01*
X135650000Y-96997440D01*
X137350000Y-96997440D01*
X137597765Y-96948157D01*
X137807809Y-96807809D01*
X137948157Y-96597765D01*
X137997440Y-96350000D01*
X137997440Y-94650000D01*
X137948157Y-94402235D01*
X137807809Y-94192191D01*
X137597765Y-94051843D01*
X137552381Y-94042816D01*
X137570625Y-94030625D01*
X137898839Y-93539418D01*
X138014092Y-92960000D01*
X137898839Y-92380582D01*
X137570625Y-91889375D01*
X137272239Y-91690000D01*
X137570625Y-91490625D01*
X137898839Y-90999418D01*
X138014092Y-90420000D01*
X137898839Y-89840582D01*
X137570625Y-89349375D01*
X137272239Y-89150000D01*
X137570625Y-88950625D01*
X137898839Y-88459418D01*
X138014092Y-87880000D01*
X137898839Y-87300582D01*
X137570625Y-86809375D01*
X137272239Y-86610000D01*
X137570625Y-86410625D01*
X137898839Y-85919418D01*
X138014092Y-85340000D01*
X137898839Y-84760582D01*
X137570625Y-84269375D01*
X137272239Y-84070000D01*
X137570625Y-83870625D01*
X137898839Y-83379418D01*
X138014092Y-82800000D01*
X137898839Y-82220582D01*
X137570625Y-81729375D01*
X137272239Y-81530000D01*
X137570625Y-81330625D01*
X137898839Y-80839418D01*
X138014092Y-80260000D01*
X137898839Y-79680582D01*
X137570625Y-79189375D01*
X137272239Y-78990000D01*
X137570625Y-78790625D01*
X137898839Y-78299418D01*
X138014092Y-77720000D01*
X137898839Y-77140582D01*
X137570625Y-76649375D01*
X137079418Y-76321161D01*
X136646256Y-76235000D01*
X136353744Y-76235000D01*
X135920582Y-76321161D01*
X135525719Y-76585000D01*
X132554487Y-76585000D01*
X132319909Y-76428260D01*
X131901333Y-76345000D01*
X131618667Y-76345000D01*
X131200091Y-76428260D01*
X130725423Y-76745423D01*
X130408260Y-77220091D01*
X130296887Y-77780000D01*
X130408260Y-78339909D01*
X130725423Y-78814577D01*
X131077758Y-79050000D01*
X130725423Y-79285423D01*
X130408260Y-79760091D01*
X130296887Y-80320000D01*
X130408260Y-80879909D01*
X130725423Y-81354577D01*
X131077758Y-81590000D01*
X130725423Y-81825423D01*
X130408260Y-82300091D01*
X130296887Y-82860000D01*
X130408260Y-83419909D01*
X130725423Y-83894577D01*
X131077758Y-84130000D01*
X130725423Y-84365423D01*
X130408260Y-84840091D01*
X130296887Y-85400000D01*
X130408260Y-85959909D01*
X130725423Y-86434577D01*
X131077758Y-86670000D01*
X130725423Y-86905423D01*
X130408260Y-87380091D01*
X130296887Y-87940000D01*
X130408260Y-88499909D01*
X130725423Y-88974577D01*
X130815852Y-89035000D01*
X130441783Y-89035000D01*
X130330000Y-89012765D01*
X130218217Y-89035000D01*
X129887145Y-89100854D01*
X129511711Y-89351711D01*
X129448387Y-89446482D01*
X129026480Y-89868389D01*
X128931712Y-89931711D01*
X128751876Y-90200854D01*
X128680854Y-90307146D01*
X128592765Y-90750000D01*
X128615001Y-90861788D01*
X128615000Y-104498217D01*
X128592765Y-104610000D01*
X128621168Y-104752792D01*
X128620001Y-104752560D01*
X127857692Y-104752560D01*
X127328655Y-104223523D01*
X124635000Y-101529869D01*
X124635000Y-91611783D01*
X124657235Y-91500000D01*
X124569146Y-91057145D01*
X124485334Y-90931712D01*
X124318289Y-90681711D01*
X124223521Y-90618390D01*
X121801613Y-88196482D01*
X121738289Y-88101711D01*
X121362855Y-87850854D01*
X121031783Y-87785000D01*
X120920000Y-87762765D01*
X120808217Y-87785000D01*
X109926518Y-87785000D01*
X109675864Y-87534346D01*
X109075120Y-87285510D01*
X108424880Y-87285510D01*
X107824136Y-87534346D01*
X107364346Y-87994136D01*
X107115510Y-88594880D01*
X102634490Y-88594880D01*
X102385654Y-87994136D01*
X101925864Y-87534346D01*
X101325120Y-87285510D01*
X100674880Y-87285510D01*
X100074136Y-87534346D01*
X99614346Y-87994136D01*
X99365510Y-88594880D01*
X98385000Y-88594880D01*
X98385000Y-85870131D01*
X99723521Y-84531611D01*
X99818289Y-84468289D01*
X100069146Y-84092855D01*
X100135000Y-83761783D01*
X100157235Y-83650000D01*
X100135000Y-83538217D01*
X100135000Y-83067115D01*
X100248157Y-82897765D01*
X100297440Y-82650000D01*
X100297440Y-81350000D01*
X100248157Y-81102235D01*
X100107809Y-80892191D01*
X99897765Y-80751843D01*
X99650000Y-80702560D01*
X99454631Y-80702560D01*
X99727894Y-80589371D01*
X100089371Y-80227894D01*
X100285000Y-79755602D01*
X100285000Y-79255000D01*
X112897560Y-79255000D01*
X112897560Y-80765000D01*
X112946843Y-81012765D01*
X113087191Y-81222809D01*
X113297235Y-81363157D01*
X113545000Y-81412440D01*
X115055000Y-81412440D01*
X115302765Y-81363157D01*
X115512809Y-81222809D01*
X115653157Y-81012765D01*
X115702440Y-80765000D01*
X115702440Y-79255000D01*
X115653157Y-79007235D01*
X115512809Y-78797191D01*
X115302765Y-78656843D01*
X115055000Y-78607560D01*
X113545000Y-78607560D01*
X113297235Y-78656843D01*
X113087191Y-78797191D01*
X112946843Y-79007235D01*
X112897560Y-79255000D01*
X100285000Y-79255000D01*
X100285000Y-79244398D01*
X100089371Y-78772106D01*
X99727894Y-78410629D01*
X99255602Y-78215000D01*
X98744398Y-78215000D01*
X98272106Y-78410629D01*
X97910629Y-78772106D01*
X97715000Y-79244398D01*
X97715000Y-79755602D01*
X97910629Y-80227894D01*
X98272106Y-80589371D01*
X98545369Y-80702560D01*
X98350000Y-80702560D01*
X98102235Y-80751843D01*
X97892191Y-80892191D01*
X97751843Y-81102235D01*
X97702560Y-81350000D01*
X97702560Y-82650000D01*
X97751843Y-82897765D01*
X97865000Y-83067115D01*
X97865000Y-83179868D01*
X96526482Y-84518387D01*
X96431711Y-84581711D01*
X96220945Y-84897146D01*
X96180854Y-84957146D01*
X96092765Y-85400000D01*
X96115000Y-85511783D01*
X96115001Y-91638212D01*
X96092765Y-91750000D01*
X96115000Y-91861783D01*
X96115001Y-95609867D01*
X94279359Y-97445510D01*
X93924880Y-97445510D01*
X93324136Y-97694346D01*
X92864346Y-98154136D01*
X92615510Y-98754880D01*
X92615510Y-99405120D01*
X92864346Y-100005864D01*
X93223482Y-100365000D01*
X92720133Y-100365000D01*
X91135000Y-98779869D01*
X91135000Y-91381783D01*
X91157235Y-91270000D01*
X91069146Y-90827145D01*
X90927395Y-90615000D01*
X90818289Y-90451711D01*
X90723521Y-90388389D01*
X88930012Y-88594880D01*
X92615510Y-88594880D01*
X92615510Y-89245120D01*
X92864346Y-89845864D01*
X93324136Y-90305654D01*
X93924880Y-90554490D01*
X94575120Y-90554490D01*
X95175864Y-90305654D01*
X95635654Y-89845864D01*
X95884490Y-89245120D01*
X95884490Y-88594880D01*
X95635654Y-87994136D01*
X95175864Y-87534346D01*
X94575120Y-87285510D01*
X93924880Y-87285510D01*
X93324136Y-87534346D01*
X92864346Y-87994136D01*
X92615510Y-88594880D01*
X88930012Y-88594880D01*
X84543523Y-84208392D01*
X84304222Y-84048495D01*
X84534577Y-83894577D01*
X84674612Y-83685000D01*
X88588217Y-83685000D01*
X88700000Y-83707235D01*
X88811783Y-83685000D01*
X89142855Y-83619146D01*
X89518289Y-83368289D01*
X89581613Y-83273518D01*
X95720132Y-77135000D01*
X118245001Y-77135000D01*
X118245000Y-79179243D01*
X118201615Y-79222628D01*
X117990000Y-79733512D01*
X117990000Y-80286488D01*
X118201615Y-80797372D01*
X118592628Y-81188385D01*
X119103512Y-81400000D01*
X119656488Y-81400000D01*
X120167372Y-81188385D01*
X120558385Y-80797372D01*
X120770000Y-80286488D01*
X120770000Y-79733512D01*
X120558385Y-79222628D01*
X120515000Y-79179243D01*
X120515000Y-76111782D01*
X120537235Y-76000000D01*
X120515000Y-75888217D01*
X120515000Y-67107115D01*
X120628157Y-66937765D01*
X120677440Y-66690000D01*
X120677440Y-65390000D01*
X120628157Y-65142235D01*
X120487809Y-64932191D01*
X120277765Y-64791843D01*
X120030000Y-64742560D01*
X119834631Y-64742560D01*
X119997735Y-64675000D01*
X122315001Y-64675000D01*
X122315000Y-81415000D01*
X117670757Y-81415000D01*
X117627372Y-81371615D01*
X117116488Y-81160000D01*
X116563512Y-81160000D01*
X116052628Y-81371615D01*
X115661615Y-81762628D01*
X115450000Y-82273512D01*
X115450000Y-82826488D01*
X115661615Y-83337372D01*
X116052628Y-83728385D01*
X116563512Y-83940000D01*
X117116488Y-83940000D01*
X117627372Y-83728385D01*
X117670757Y-83685000D01*
X123338217Y-83685000D01*
X123450000Y-83707235D01*
X123561783Y-83685000D01*
X123892855Y-83619146D01*
X124268289Y-83368289D01*
X124331613Y-83273518D01*
X124381608Y-83223523D01*
X124569146Y-82942854D01*
X124657235Y-82500000D01*
X124585000Y-82136850D01*
X124585000Y-63661782D01*
X124607235Y-63549999D01*
X124519146Y-63107146D01*
X124519146Y-63107145D01*
X124268289Y-62731711D01*
X124262294Y-62727706D01*
X124258289Y-62721711D01*
X123882855Y-62470854D01*
X123551783Y-62405000D01*
X123440000Y-62382765D01*
X123328217Y-62405000D01*
X119997735Y-62405000D01*
X119635602Y-62255000D01*
X119124398Y-62255000D01*
X118762265Y-62405000D01*
X113974148Y-62405000D01*
X113712242Y-62230000D01*
X114064577Y-61994577D01*
X114381740Y-61519909D01*
X114481178Y-61020000D01*
X130296887Y-61020000D01*
X130408260Y-61579909D01*
X130725423Y-62054577D01*
X131077758Y-62290000D01*
X130725423Y-62525423D01*
X130408260Y-63000091D01*
X130296887Y-63560000D01*
X130408260Y-64119909D01*
X130725423Y-64594577D01*
X131077758Y-64830000D01*
X130725423Y-65065423D01*
X130408260Y-65540091D01*
X130296887Y-66100000D01*
X130408260Y-66659909D01*
X130725423Y-67134577D01*
X131077758Y-67370000D01*
X130725423Y-67605423D01*
X130408260Y-68080091D01*
X130296887Y-68640000D01*
X130408260Y-69199909D01*
X130725423Y-69674577D01*
X131077758Y-69910000D01*
X130725423Y-70145423D01*
X130408260Y-70620091D01*
X130296887Y-71180000D01*
X130408260Y-71739909D01*
X130725423Y-72214577D01*
X131077758Y-72450000D01*
X130725423Y-72685423D01*
X130408260Y-73160091D01*
X130296887Y-73720000D01*
X130408260Y-74279909D01*
X130725423Y-74754577D01*
X131200091Y-75071740D01*
X131618667Y-75155000D01*
X131901333Y-75155000D01*
X132319909Y-75071740D01*
X132794577Y-74754577D01*
X132874476Y-74635000D01*
X135076723Y-74635000D01*
X135192191Y-74807809D01*
X135402235Y-74948157D01*
X135650000Y-74997440D01*
X137350000Y-74997440D01*
X137597765Y-74948157D01*
X137807809Y-74807809D01*
X137948157Y-74597765D01*
X137997440Y-74350000D01*
X137997440Y-72650000D01*
X137948157Y-72402235D01*
X137807809Y-72192191D01*
X137597765Y-72051843D01*
X137552381Y-72042816D01*
X137570625Y-72030625D01*
X137898839Y-71539418D01*
X138014092Y-70960000D01*
X137898839Y-70380582D01*
X137570625Y-69889375D01*
X137272239Y-69690000D01*
X137570625Y-69490625D01*
X137898839Y-68999418D01*
X138014092Y-68420000D01*
X137898839Y-67840582D01*
X137570625Y-67349375D01*
X137272239Y-67150000D01*
X137570625Y-66950625D01*
X137898839Y-66459418D01*
X138014092Y-65880000D01*
X137898839Y-65300582D01*
X137570625Y-64809375D01*
X137272239Y-64610000D01*
X137570625Y-64410625D01*
X137898839Y-63919418D01*
X138014092Y-63340000D01*
X137898839Y-62760582D01*
X137570625Y-62269375D01*
X137272239Y-62070000D01*
X137570625Y-61870625D01*
X137898839Y-61379418D01*
X138014092Y-60800000D01*
X137898839Y-60220582D01*
X137570625Y-59729375D01*
X137079418Y-59401161D01*
X136646256Y-59315000D01*
X136353744Y-59315000D01*
X135920582Y-59401161D01*
X135525719Y-59665000D01*
X132546230Y-59665000D01*
X132615134Y-59632389D01*
X132991041Y-59217423D01*
X133151904Y-58829039D01*
X133029915Y-58607000D01*
X131887000Y-58607000D01*
X131887000Y-58627000D01*
X131633000Y-58627000D01*
X131633000Y-58607000D01*
X130490085Y-58607000D01*
X130368096Y-58829039D01*
X130528959Y-59217423D01*
X130904866Y-59632389D01*
X131109108Y-59729053D01*
X130725423Y-59985423D01*
X130408260Y-60460091D01*
X130296887Y-61020000D01*
X114481178Y-61020000D01*
X114493113Y-60960000D01*
X114381740Y-60400091D01*
X114064577Y-59925423D01*
X113680892Y-59669053D01*
X113885134Y-59572389D01*
X114261041Y-59157423D01*
X114421904Y-58769039D01*
X114299915Y-58547000D01*
X113157000Y-58547000D01*
X113157000Y-58567000D01*
X112903000Y-58567000D01*
X112903000Y-58547000D01*
X111760085Y-58547000D01*
X111638096Y-58769039D01*
X111798959Y-59157423D01*
X112174866Y-59572389D01*
X112379108Y-59669053D01*
X112145717Y-59825000D01*
X109975000Y-59825000D01*
X109975000Y-53451783D01*
X109997235Y-53340000D01*
X109909146Y-52897145D01*
X109658289Y-52521711D01*
X109282855Y-52270854D01*
X108951783Y-52205000D01*
X108840000Y-52182765D01*
X108728217Y-52205000D01*
X106545000Y-52205000D01*
X106545000Y-51684283D01*
X106761740Y-51359909D01*
X106873113Y-50800000D01*
X111566887Y-50800000D01*
X111678260Y-51359909D01*
X111995423Y-51834577D01*
X112347758Y-52070000D01*
X111995423Y-52305423D01*
X111678260Y-52780091D01*
X111566887Y-53340000D01*
X111678260Y-53899909D01*
X111995423Y-54374577D01*
X112347758Y-54610000D01*
X111995423Y-54845423D01*
X111678260Y-55320091D01*
X111566887Y-55880000D01*
X111678260Y-56439909D01*
X111995423Y-56914577D01*
X112379108Y-57170947D01*
X112174866Y-57267611D01*
X111798959Y-57682577D01*
X111638096Y-58070961D01*
X111760085Y-58293000D01*
X112903000Y-58293000D01*
X112903000Y-58273000D01*
X113157000Y-58273000D01*
X113157000Y-58293000D01*
X114299915Y-58293000D01*
X114421904Y-58070961D01*
X114261041Y-57682577D01*
X113885134Y-57267611D01*
X113680892Y-57170947D01*
X113914283Y-57015000D01*
X118035380Y-57015000D01*
X118051843Y-57097765D01*
X118192191Y-57307809D01*
X118402235Y-57448157D01*
X118650000Y-57497440D01*
X120350000Y-57497440D01*
X120597765Y-57448157D01*
X120807809Y-57307809D01*
X120948157Y-57097765D01*
X120997440Y-56850000D01*
X120997440Y-55150000D01*
X120948157Y-54902235D01*
X120807809Y-54692191D01*
X120597765Y-54551843D01*
X120552381Y-54542816D01*
X120570625Y-54530625D01*
X120898839Y-54039418D01*
X121014092Y-53460000D01*
X120898839Y-52880582D01*
X120570625Y-52389375D01*
X120272239Y-52190000D01*
X120570625Y-51990625D01*
X120898839Y-51499418D01*
X121014092Y-50920000D01*
X121002158Y-50860000D01*
X130296887Y-50860000D01*
X130408260Y-51419909D01*
X130725423Y-51894577D01*
X131077758Y-52130000D01*
X130725423Y-52365423D01*
X130408260Y-52840091D01*
X130296887Y-53400000D01*
X130408260Y-53959909D01*
X130725423Y-54434577D01*
X131077758Y-54670000D01*
X130725423Y-54905423D01*
X130408260Y-55380091D01*
X130296887Y-55940000D01*
X130408260Y-56499909D01*
X130725423Y-56974577D01*
X131109108Y-57230947D01*
X130904866Y-57327611D01*
X130528959Y-57742577D01*
X130368096Y-58130961D01*
X130490085Y-58353000D01*
X131633000Y-58353000D01*
X131633000Y-58333000D01*
X131887000Y-58333000D01*
X131887000Y-58353000D01*
X133029915Y-58353000D01*
X133151904Y-58130961D01*
X132991041Y-57742577D01*
X132615134Y-57327611D01*
X132410892Y-57230947D01*
X132554487Y-57135000D01*
X135076723Y-57135000D01*
X135192191Y-57307809D01*
X135402235Y-57448157D01*
X135650000Y-57497440D01*
X137350000Y-57497440D01*
X137597765Y-57448157D01*
X137807809Y-57307809D01*
X137948157Y-57097765D01*
X137997440Y-56850000D01*
X137997440Y-55150000D01*
X137948157Y-54902235D01*
X137807809Y-54692191D01*
X137597765Y-54551843D01*
X137552381Y-54542816D01*
X137570625Y-54530625D01*
X137898839Y-54039418D01*
X138014092Y-53460000D01*
X137898839Y-52880582D01*
X137570625Y-52389375D01*
X137272239Y-52190000D01*
X137570625Y-51990625D01*
X137898839Y-51499418D01*
X138014092Y-50920000D01*
X137898839Y-50340582D01*
X137570625Y-49849375D01*
X137079418Y-49521161D01*
X136646256Y-49435000D01*
X136353744Y-49435000D01*
X135920582Y-49521161D01*
X135525719Y-49785000D01*
X132734080Y-49785000D01*
X132319909Y-49508260D01*
X131901333Y-49425000D01*
X131618667Y-49425000D01*
X131200091Y-49508260D01*
X130725423Y-49825423D01*
X130408260Y-50300091D01*
X130296887Y-50860000D01*
X121002158Y-50860000D01*
X120898839Y-50340582D01*
X120570625Y-49849375D01*
X120079418Y-49521161D01*
X119646256Y-49435000D01*
X119353744Y-49435000D01*
X118920582Y-49521161D01*
X118705312Y-49665000D01*
X113914283Y-49665000D01*
X113589909Y-49448260D01*
X113171333Y-49365000D01*
X112888667Y-49365000D01*
X112470091Y-49448260D01*
X111995423Y-49765423D01*
X111678260Y-50240091D01*
X111566887Y-50800000D01*
X106873113Y-50800000D01*
X106761740Y-50240091D01*
X106444577Y-49765423D01*
X105969909Y-49448260D01*
X105551333Y-49365000D01*
X105268667Y-49365000D01*
X104850091Y-49448260D01*
X104375423Y-49765423D01*
X104058260Y-50240091D01*
X103946887Y-50800000D01*
X104058260Y-51359909D01*
X104275000Y-51684284D01*
X104275001Y-52205000D01*
X103271783Y-52205000D01*
X103160000Y-52182765D01*
X102717145Y-52270854D01*
X102341711Y-52521711D01*
X102090854Y-52897145D01*
X102002765Y-53340000D01*
X102025000Y-53451783D01*
X102025001Y-60548212D01*
X102002765Y-60660000D01*
X102090854Y-61102854D01*
X102090855Y-61102855D01*
X102341712Y-61478289D01*
X102436480Y-61541611D01*
X102578387Y-61683518D01*
X102641711Y-61778289D01*
X103017145Y-62029146D01*
X103144996Y-62054577D01*
X103459999Y-62117235D01*
X103571782Y-62095000D01*
X104525717Y-62095000D01*
X104727758Y-62230000D01*
X104525717Y-62365000D01*
X100256518Y-62365000D01*
X99925864Y-62034346D01*
X99325120Y-61785510D01*
X98674880Y-61785510D01*
X98074136Y-62034346D01*
X97743482Y-62365000D01*
X92367735Y-62365000D01*
X92005602Y-62215000D01*
X91494398Y-62215000D01*
X91022106Y-62410629D01*
X90660629Y-62772106D01*
X90465000Y-63244398D01*
X90465000Y-63755602D01*
X90660629Y-64227894D01*
X91022106Y-64589371D01*
X91295369Y-64702560D01*
X91100000Y-64702560D01*
X90852235Y-64751843D01*
X90642191Y-64892191D01*
X90501843Y-65102235D01*
X90452560Y-65350000D01*
X90452560Y-66650000D01*
X90501843Y-66897765D01*
X90615000Y-67067115D01*
X90615001Y-72888212D01*
X90592765Y-73000000D01*
X90680854Y-73442854D01*
X90680855Y-73442855D01*
X90931712Y-73818289D01*
X91026480Y-73881611D01*
X91448387Y-74303518D01*
X91511711Y-74398289D01*
X91865974Y-74635000D01*
X91887145Y-74649146D01*
X92330000Y-74737235D01*
X92441783Y-74715000D01*
X97823482Y-74715000D01*
X97973482Y-74865000D01*
X95361783Y-74865000D01*
X95250000Y-74842765D01*
X95138217Y-74865000D01*
X94807145Y-74930854D01*
X94431711Y-75181711D01*
X94368389Y-75276479D01*
X88229869Y-81415000D01*
X83708217Y-81415000D01*
X83649638Y-81426652D01*
X83641333Y-81425000D01*
X83358667Y-81425000D01*
X82940091Y-81508260D01*
X82705513Y-81665000D01*
X79474281Y-81665000D01*
X79079418Y-81401161D01*
X78646256Y-81315000D01*
X78353744Y-81315000D01*
X77920582Y-81401161D01*
X77429375Y-81729375D01*
X77101161Y-82220582D01*
X76985908Y-82800000D01*
X75660000Y-82800000D01*
X75660000Y-72540000D01*
X76985908Y-72540000D01*
X77101161Y-73119418D01*
X77429375Y-73610625D01*
X77920582Y-73938839D01*
X78353744Y-74025000D01*
X78646256Y-74025000D01*
X79079418Y-73938839D01*
X79570625Y-73610625D01*
X79898839Y-73119418D01*
X80014092Y-72540000D01*
X79898839Y-71960582D01*
X79570625Y-71469375D01*
X79552381Y-71457184D01*
X79597765Y-71448157D01*
X79807809Y-71307809D01*
X79948157Y-71097765D01*
X79997440Y-70850000D01*
X79997440Y-69150000D01*
X79948157Y-68902235D01*
X79807809Y-68692191D01*
X79597765Y-68551843D01*
X79350000Y-68502560D01*
X77650000Y-68502560D01*
X77402235Y-68551843D01*
X77192191Y-68692191D01*
X77051843Y-68902235D01*
X77002560Y-69150000D01*
X77002560Y-70850000D01*
X77051843Y-71097765D01*
X77192191Y-71307809D01*
X77402235Y-71448157D01*
X77447619Y-71457184D01*
X77429375Y-71469375D01*
X77101161Y-71960582D01*
X76985908Y-72540000D01*
X75660000Y-72540000D01*
X75660000Y-51990000D01*
X76935908Y-51990000D01*
X77051161Y-52569418D01*
X77315000Y-52964281D01*
X77315000Y-54660132D01*
X77192191Y-54742191D01*
X77051843Y-54952235D01*
X77002560Y-55200000D01*
X77002560Y-56900000D01*
X77051843Y-57147765D01*
X77192191Y-57357809D01*
X77315001Y-57439869D01*
X77315001Y-57690548D01*
X77101161Y-58010582D01*
X76985908Y-58590000D01*
X77101161Y-59169418D01*
X77429375Y-59660625D01*
X77920582Y-59988839D01*
X78353744Y-60075000D01*
X78646256Y-60075000D01*
X79079418Y-59988839D01*
X79570625Y-59660625D01*
X79898839Y-59169418D01*
X80014092Y-58590000D01*
X79898839Y-58010582D01*
X79585000Y-57540889D01*
X79585000Y-57500696D01*
X79597765Y-57498157D01*
X79807809Y-57357809D01*
X79948157Y-57147765D01*
X79997440Y-56900000D01*
X79997440Y-55675000D01*
X86865001Y-55675000D01*
X86865000Y-66485000D01*
X84384283Y-66485000D01*
X84182242Y-66350000D01*
X84534577Y-66114577D01*
X84851740Y-65639909D01*
X84963113Y-65080000D01*
X84851740Y-64520091D01*
X84534577Y-64045423D01*
X84182242Y-63810000D01*
X84534577Y-63574577D01*
X84851740Y-63099909D01*
X84963113Y-62540000D01*
X84851740Y-61980091D01*
X84534577Y-61505423D01*
X84413894Y-61424785D01*
X84547765Y-61398157D01*
X84757809Y-61257809D01*
X84898157Y-61047765D01*
X84947440Y-60800000D01*
X84947440Y-59200000D01*
X84898157Y-58952235D01*
X84757809Y-58742191D01*
X84547765Y-58601843D01*
X84300000Y-58552560D01*
X82700000Y-58552560D01*
X82452235Y-58601843D01*
X82242191Y-58742191D01*
X82101843Y-58952235D01*
X82052560Y-59200000D01*
X82052560Y-60800000D01*
X82101843Y-61047765D01*
X82242191Y-61257809D01*
X82402612Y-61365000D01*
X79923277Y-61365000D01*
X79807809Y-61192191D01*
X79597765Y-61051843D01*
X79350000Y-61002560D01*
X77650000Y-61002560D01*
X77402235Y-61051843D01*
X77192191Y-61192191D01*
X77051843Y-61402235D01*
X77002560Y-61650000D01*
X77002560Y-63350000D01*
X77051843Y-63597765D01*
X77192191Y-63807809D01*
X77402235Y-63948157D01*
X77447619Y-63957184D01*
X77429375Y-63969375D01*
X77101161Y-64460582D01*
X76985908Y-65040000D01*
X77101161Y-65619418D01*
X77429375Y-66110625D01*
X77920582Y-66438839D01*
X78353744Y-66525000D01*
X78646256Y-66525000D01*
X79079418Y-66438839D01*
X79474281Y-66175000D01*
X82555852Y-66175000D01*
X82817758Y-66350000D01*
X82465423Y-66585423D01*
X82148260Y-67060091D01*
X82036887Y-67620000D01*
X82148260Y-68179909D01*
X82465423Y-68654577D01*
X82817758Y-68890000D01*
X82465423Y-69125423D01*
X82148260Y-69600091D01*
X82036887Y-70160000D01*
X82148260Y-70719909D01*
X82465423Y-71194577D01*
X82817758Y-71430000D01*
X82615717Y-71565000D01*
X81911782Y-71565000D01*
X81799999Y-71542765D01*
X81539480Y-71594585D01*
X81357145Y-71630854D01*
X80981711Y-71881711D01*
X80918387Y-71976482D01*
X80776480Y-72118389D01*
X80681712Y-72181711D01*
X80557064Y-72368260D01*
X80430854Y-72557146D01*
X80342765Y-73000000D01*
X80365001Y-73111788D01*
X80365000Y-75365000D01*
X79923277Y-75365000D01*
X79807809Y-75192191D01*
X79597765Y-75051843D01*
X79350000Y-75002560D01*
X77650000Y-75002560D01*
X77402235Y-75051843D01*
X77192191Y-75192191D01*
X77051843Y-75402235D01*
X77002560Y-75650000D01*
X77002560Y-77350000D01*
X77051843Y-77597765D01*
X77192191Y-77807809D01*
X77365001Y-77923278D01*
X77365001Y-78065718D01*
X77101161Y-78460582D01*
X76985908Y-79040000D01*
X77101161Y-79619418D01*
X77429375Y-80110625D01*
X77920582Y-80438839D01*
X78353744Y-80525000D01*
X78646256Y-80525000D01*
X79079418Y-80438839D01*
X79570625Y-80110625D01*
X79898839Y-79619418D01*
X80014092Y-79040000D01*
X79898839Y-78460582D01*
X79635000Y-78065719D01*
X79635000Y-77923277D01*
X79807809Y-77807809D01*
X79923277Y-77635000D01*
X81388217Y-77635000D01*
X81500000Y-77657235D01*
X81611783Y-77635000D01*
X81942855Y-77569146D01*
X82099671Y-77464365D01*
X82036887Y-77780000D01*
X82148260Y-78339909D01*
X82465423Y-78814577D01*
X82940091Y-79131740D01*
X83358667Y-79215000D01*
X83641333Y-79215000D01*
X84059909Y-79131740D01*
X84534577Y-78814577D01*
X84851740Y-78339909D01*
X84963113Y-77780000D01*
X84851740Y-77220091D01*
X84534577Y-76745423D01*
X84182242Y-76510000D01*
X84534577Y-76274577D01*
X84851740Y-75799909D01*
X84963113Y-75240000D01*
X84851740Y-74680091D01*
X84534577Y-74205423D01*
X84182242Y-73970000D01*
X84534577Y-73734577D01*
X84851740Y-73259909D01*
X84963113Y-72700000D01*
X84851740Y-72140091D01*
X84534577Y-71665423D01*
X84182242Y-71430000D01*
X84534577Y-71194577D01*
X84851740Y-70719909D01*
X84963113Y-70160000D01*
X84851740Y-69600091D01*
X84534577Y-69125423D01*
X84182242Y-68890000D01*
X84384283Y-68755000D01*
X87268217Y-68755000D01*
X87380000Y-68777235D01*
X87491783Y-68755000D01*
X87822855Y-68689146D01*
X88198289Y-68438289D01*
X88261613Y-68343518D01*
X88723519Y-67881612D01*
X88818289Y-67818289D01*
X89069146Y-67442855D01*
X89135000Y-67111783D01*
X89135000Y-67111782D01*
X89157235Y-67000001D01*
X89135000Y-66888219D01*
X89135000Y-54611783D01*
X89157235Y-54500000D01*
X89082349Y-54123523D01*
X89069146Y-54057145D01*
X88818289Y-53681711D01*
X88442855Y-53430854D01*
X88000000Y-53342765D01*
X87687123Y-53405000D01*
X79585000Y-53405000D01*
X79585000Y-52964281D01*
X79848839Y-52569418D01*
X79964092Y-51990000D01*
X79848839Y-51410582D01*
X79585000Y-51015719D01*
X79585000Y-50873277D01*
X79757809Y-50757809D01*
X79898157Y-50547765D01*
X79947440Y-50300000D01*
X79947440Y-48600000D01*
X79898157Y-48352235D01*
X79757809Y-48142191D01*
X79547765Y-48001843D01*
X79300000Y-47952560D01*
X77600000Y-47952560D01*
X77352235Y-48001843D01*
X77142191Y-48142191D01*
X77001843Y-48352235D01*
X76952560Y-48600000D01*
X76952560Y-50300000D01*
X77001843Y-50547765D01*
X77142191Y-50757809D01*
X77315000Y-50873277D01*
X77315000Y-51015718D01*
X77051161Y-51410582D01*
X76935908Y-51990000D01*
X75660000Y-51990000D01*
X75660000Y-45540000D01*
X76985908Y-45540000D01*
X77101161Y-46119418D01*
X77429375Y-46610625D01*
X77920582Y-46938839D01*
X78353744Y-47025000D01*
X78646256Y-47025000D01*
X79079418Y-46938839D01*
X79570625Y-46610625D01*
X79898839Y-46119418D01*
X80014092Y-45540000D01*
X79907651Y-45004880D01*
X84725510Y-45004880D01*
X84725510Y-45655120D01*
X84974346Y-46255864D01*
X85434136Y-46715654D01*
X86034880Y-46964490D01*
X86685120Y-46964490D01*
X87285864Y-46715654D01*
X87519355Y-46482163D01*
X93027443Y-46482163D01*
X93126042Y-46748965D01*
X93735582Y-46975401D01*
X94385377Y-46951341D01*
X94873958Y-46748965D01*
X94972557Y-46482163D01*
X94000000Y-45509605D01*
X93027443Y-46482163D01*
X87519355Y-46482163D01*
X87745654Y-46255864D01*
X87994490Y-45655120D01*
X87994490Y-45065582D01*
X92354599Y-45065582D01*
X92378659Y-45715377D01*
X92581035Y-46203958D01*
X92847837Y-46302557D01*
X93820395Y-45330000D01*
X94179605Y-45330000D01*
X95152163Y-46302557D01*
X95418965Y-46203958D01*
X95518177Y-45936890D01*
X135058524Y-45936890D01*
X135228355Y-46346924D01*
X135618642Y-46775183D01*
X136143108Y-47021486D01*
X136373000Y-46900819D01*
X136373000Y-45707000D01*
X136627000Y-45707000D01*
X136627000Y-46900819D01*
X136856892Y-47021486D01*
X137381358Y-46775183D01*
X137771645Y-46346924D01*
X137941476Y-45936890D01*
X137820155Y-45707000D01*
X136627000Y-45707000D01*
X136373000Y-45707000D01*
X135179845Y-45707000D01*
X135058524Y-45936890D01*
X95518177Y-45936890D01*
X95645401Y-45594418D01*
X95621341Y-44944623D01*
X95418965Y-44456042D01*
X95152163Y-44357443D01*
X94179605Y-45330000D01*
X93820395Y-45330000D01*
X92847837Y-44357443D01*
X92581035Y-44456042D01*
X92354599Y-45065582D01*
X87994490Y-45065582D01*
X87994490Y-45004880D01*
X87745654Y-44404136D01*
X87519355Y-44177837D01*
X93027443Y-44177837D01*
X94000000Y-45150395D01*
X94972557Y-44177837D01*
X94873958Y-43911035D01*
X94264418Y-43684599D01*
X93614623Y-43708659D01*
X93126042Y-43911035D01*
X93027443Y-44177837D01*
X87519355Y-44177837D01*
X87285864Y-43944346D01*
X86685120Y-43695510D01*
X86034880Y-43695510D01*
X85434136Y-43944346D01*
X84974346Y-44404136D01*
X84725510Y-45004880D01*
X79907651Y-45004880D01*
X79898839Y-44960582D01*
X79570625Y-44469375D01*
X79552381Y-44457184D01*
X79597765Y-44448157D01*
X79807809Y-44307809D01*
X79948157Y-44097765D01*
X79997440Y-43850000D01*
X79997440Y-43396890D01*
X135058524Y-43396890D01*
X135228355Y-43806924D01*
X135618642Y-44235183D01*
X135777954Y-44310000D01*
X135618642Y-44384817D01*
X135228355Y-44813076D01*
X135058524Y-45223110D01*
X135179845Y-45453000D01*
X136373000Y-45453000D01*
X136373000Y-43167000D01*
X136627000Y-43167000D01*
X136627000Y-45453000D01*
X137820155Y-45453000D01*
X137941476Y-45223110D01*
X137771645Y-44813076D01*
X137381358Y-44384817D01*
X137222046Y-44310000D01*
X137381358Y-44235183D01*
X137771645Y-43806924D01*
X137941476Y-43396890D01*
X137820155Y-43167000D01*
X136627000Y-43167000D01*
X136373000Y-43167000D01*
X135179845Y-43167000D01*
X135058524Y-43396890D01*
X79997440Y-43396890D01*
X79997440Y-42150000D01*
X79948157Y-41902235D01*
X79807809Y-41692191D01*
X79597765Y-41551843D01*
X79350000Y-41502560D01*
X77650000Y-41502560D01*
X77402235Y-41551843D01*
X77192191Y-41692191D01*
X77051843Y-41902235D01*
X77002560Y-42150000D01*
X77002560Y-43850000D01*
X77051843Y-44097765D01*
X77192191Y-44307809D01*
X77402235Y-44448157D01*
X77447619Y-44457184D01*
X77429375Y-44469375D01*
X77101161Y-44960582D01*
X76985908Y-45540000D01*
X75660000Y-45540000D01*
X75660000Y-40785750D01*
X135015000Y-40785750D01*
X135015000Y-41476310D01*
X135111673Y-41709699D01*
X135290302Y-41888327D01*
X135499878Y-41975136D01*
X135228355Y-42273076D01*
X135058524Y-42683110D01*
X135179845Y-42913000D01*
X136373000Y-42913000D01*
X136373000Y-40627000D01*
X136627000Y-40627000D01*
X136627000Y-42913000D01*
X137820155Y-42913000D01*
X137941476Y-42683110D01*
X137771645Y-42273076D01*
X137500122Y-41975136D01*
X137709698Y-41888327D01*
X137888327Y-41709699D01*
X137985000Y-41476310D01*
X137985000Y-40785750D01*
X137826250Y-40627000D01*
X136627000Y-40627000D01*
X136373000Y-40627000D01*
X135173750Y-40627000D01*
X135015000Y-40785750D01*
X75660000Y-40785750D01*
X75660000Y-39523690D01*
X135015000Y-39523690D01*
X135015000Y-40214250D01*
X135173750Y-40373000D01*
X136373000Y-40373000D01*
X136373000Y-39173750D01*
X136627000Y-39173750D01*
X136627000Y-40373000D01*
X137826250Y-40373000D01*
X137985000Y-40214250D01*
X137985000Y-39523690D01*
X137888327Y-39290301D01*
X137709698Y-39111673D01*
X137476309Y-39015000D01*
X136785750Y-39015000D01*
X136627000Y-39173750D01*
X136373000Y-39173750D01*
X136214250Y-39015000D01*
X135523691Y-39015000D01*
X135290302Y-39111673D01*
X135111673Y-39290301D01*
X135015000Y-39523690D01*
X75660000Y-39523690D01*
X75660000Y-34844880D01*
X84725510Y-34844880D01*
X84725510Y-35495120D01*
X84974346Y-36095864D01*
X85434136Y-36555654D01*
X86034880Y-36804490D01*
X86685120Y-36804490D01*
X87285864Y-36555654D01*
X87745654Y-36095864D01*
X87994490Y-35495120D01*
X87994490Y-34844880D01*
X92365510Y-34844880D01*
X92365510Y-35495120D01*
X92614346Y-36095864D01*
X93074136Y-36555654D01*
X93674880Y-36804490D01*
X94325120Y-36804490D01*
X94925864Y-36555654D01*
X95385654Y-36095864D01*
X95634490Y-35495120D01*
X95634490Y-34844880D01*
X95385654Y-34244136D01*
X94925864Y-33784346D01*
X94325120Y-33535510D01*
X93674880Y-33535510D01*
X93074136Y-33784346D01*
X92614346Y-34244136D01*
X92365510Y-34844880D01*
X87994490Y-34844880D01*
X87745654Y-34244136D01*
X87285864Y-33784346D01*
X86685120Y-33535510D01*
X86034880Y-33535510D01*
X85434136Y-33784346D01*
X84974346Y-34244136D01*
X84725510Y-34844880D01*
X75660000Y-34844880D01*
X75660000Y-25660000D01*
X139340001Y-25660000D01*
X139340000Y-112840000D01*
G04 #@! TD*
M02*
