G04 #@! TF.GenerationSoftware,KiCad,Pcbnew,(5.1.5-0-10_14)*
G04 #@! TF.CreationDate,2019-12-07T21:20:26-03:00*
G04 #@! TF.ProjectId,flavio,666c6176-696f-42e6-9b69-6361645f7063,rev?*
G04 #@! TF.SameCoordinates,Original*
G04 #@! TF.FileFunction,Soldermask,Bot*
G04 #@! TF.FilePolarity,Negative*
%FSLAX46Y46*%
G04 Gerber Fmt 4.6, Leading zero omitted, Abs format (unit mm)*
G04 Created by KiCad (PCBNEW (5.1.5-0-10_14)) date 2019-12-07 21:20:26*
%MOMM*%
%LPD*%
G04 APERTURE LIST*
%ADD10C,0.100000*%
%ADD11C,0.150000*%
%ADD12C,0.300000*%
%ADD13C,0.400000*%
G04 APERTURE END LIST*
D10*
D11*
X177002200Y-166007200D02*
X177002200Y-198007200D01*
X285002200Y-198007200D01*
X285002200Y-166007200D01*
X177002200Y-166007200D01*
D10*
D11*
X10000000Y-10000000D02*
X10000000Y-200007200D01*
X287002200Y-200007200D01*
X287002200Y-10000000D01*
X10000000Y-10000000D01*
D10*
D11*
X12000000Y-12000000D02*
X12000000Y-198007200D01*
X285002200Y-198007200D01*
X285002200Y-12000000D01*
X12000000Y-12000000D01*
D10*
D11*
X60000000Y-12000000D02*
X60000000Y-10000000D01*
D10*
D11*
X110000000Y-12000000D02*
X110000000Y-10000000D01*
D10*
D11*
X160000000Y-12000000D02*
X160000000Y-10000000D01*
D10*
D11*
X210000000Y-12000000D02*
X210000000Y-10000000D01*
D10*
D11*
X260000000Y-12000000D02*
X260000000Y-10000000D01*
D10*
D11*
X36065476Y-11588095D02*
X35322619Y-11588095D01*
X35694047Y-11588095D02*
X35694047Y-10288095D01*
X35570238Y-10473809D01*
X35446428Y-10597619D01*
X35322619Y-10659523D01*
D10*
D11*
X85322619Y-10411904D02*
X85384523Y-10350000D01*
X85508333Y-10288095D01*
X85817857Y-10288095D01*
X85941666Y-10350000D01*
X86003571Y-10411904D01*
X86065476Y-10535714D01*
X86065476Y-10659523D01*
X86003571Y-10845238D01*
X85260714Y-11588095D01*
X86065476Y-11588095D01*
D10*
D11*
X135260714Y-10288095D02*
X136065476Y-10288095D01*
X135632142Y-10783333D01*
X135817857Y-10783333D01*
X135941666Y-10845238D01*
X136003571Y-10907142D01*
X136065476Y-11030952D01*
X136065476Y-11340476D01*
X136003571Y-11464285D01*
X135941666Y-11526190D01*
X135817857Y-11588095D01*
X135446428Y-11588095D01*
X135322619Y-11526190D01*
X135260714Y-11464285D01*
D10*
D11*
X185941666Y-10721428D02*
X185941666Y-11588095D01*
X185632142Y-10226190D02*
X185322619Y-11154761D01*
X186127380Y-11154761D01*
D10*
D11*
X236003571Y-10288095D02*
X235384523Y-10288095D01*
X235322619Y-10907142D01*
X235384523Y-10845238D01*
X235508333Y-10783333D01*
X235817857Y-10783333D01*
X235941666Y-10845238D01*
X236003571Y-10907142D01*
X236065476Y-11030952D01*
X236065476Y-11340476D01*
X236003571Y-11464285D01*
X235941666Y-11526190D01*
X235817857Y-11588095D01*
X235508333Y-11588095D01*
X235384523Y-11526190D01*
X235322619Y-11464285D01*
D10*
D11*
X285941666Y-10288095D02*
X285694047Y-10288095D01*
X285570238Y-10350000D01*
X285508333Y-10411904D01*
X285384523Y-10597619D01*
X285322619Y-10845238D01*
X285322619Y-11340476D01*
X285384523Y-11464285D01*
X285446428Y-11526190D01*
X285570238Y-11588095D01*
X285817857Y-11588095D01*
X285941666Y-11526190D01*
X286003571Y-11464285D01*
X286065476Y-11340476D01*
X286065476Y-11030952D01*
X286003571Y-10907142D01*
X285941666Y-10845238D01*
X285817857Y-10783333D01*
X285570238Y-10783333D01*
X285446428Y-10845238D01*
X285384523Y-10907142D01*
X285322619Y-11030952D01*
D10*
D11*
X60000000Y-198007200D02*
X60000000Y-200007200D01*
D10*
D11*
X110000000Y-198007200D02*
X110000000Y-200007200D01*
D10*
D11*
X160000000Y-198007200D02*
X160000000Y-200007200D01*
D10*
D11*
X210000000Y-198007200D02*
X210000000Y-200007200D01*
D10*
D11*
X260000000Y-198007200D02*
X260000000Y-200007200D01*
D10*
D11*
X36065476Y-199595295D02*
X35322619Y-199595295D01*
X35694047Y-199595295D02*
X35694047Y-198295295D01*
X35570238Y-198481009D01*
X35446428Y-198604819D01*
X35322619Y-198666723D01*
D10*
D11*
X85322619Y-198419104D02*
X85384523Y-198357200D01*
X85508333Y-198295295D01*
X85817857Y-198295295D01*
X85941666Y-198357200D01*
X86003571Y-198419104D01*
X86065476Y-198542914D01*
X86065476Y-198666723D01*
X86003571Y-198852438D01*
X85260714Y-199595295D01*
X86065476Y-199595295D01*
D10*
D11*
X135260714Y-198295295D02*
X136065476Y-198295295D01*
X135632142Y-198790533D01*
X135817857Y-198790533D01*
X135941666Y-198852438D01*
X136003571Y-198914342D01*
X136065476Y-199038152D01*
X136065476Y-199347676D01*
X136003571Y-199471485D01*
X135941666Y-199533390D01*
X135817857Y-199595295D01*
X135446428Y-199595295D01*
X135322619Y-199533390D01*
X135260714Y-199471485D01*
D10*
D11*
X185941666Y-198728628D02*
X185941666Y-199595295D01*
X185632142Y-198233390D02*
X185322619Y-199161961D01*
X186127380Y-199161961D01*
D10*
D11*
X236003571Y-198295295D02*
X235384523Y-198295295D01*
X235322619Y-198914342D01*
X235384523Y-198852438D01*
X235508333Y-198790533D01*
X235817857Y-198790533D01*
X235941666Y-198852438D01*
X236003571Y-198914342D01*
X236065476Y-199038152D01*
X236065476Y-199347676D01*
X236003571Y-199471485D01*
X235941666Y-199533390D01*
X235817857Y-199595295D01*
X235508333Y-199595295D01*
X235384523Y-199533390D01*
X235322619Y-199471485D01*
D10*
D11*
X285941666Y-198295295D02*
X285694047Y-198295295D01*
X285570238Y-198357200D01*
X285508333Y-198419104D01*
X285384523Y-198604819D01*
X285322619Y-198852438D01*
X285322619Y-199347676D01*
X285384523Y-199471485D01*
X285446428Y-199533390D01*
X285570238Y-199595295D01*
X285817857Y-199595295D01*
X285941666Y-199533390D01*
X286003571Y-199471485D01*
X286065476Y-199347676D01*
X286065476Y-199038152D01*
X286003571Y-198914342D01*
X285941666Y-198852438D01*
X285817857Y-198790533D01*
X285570238Y-198790533D01*
X285446428Y-198852438D01*
X285384523Y-198914342D01*
X285322619Y-199038152D01*
D10*
D11*
X10000000Y-60000000D02*
X12000000Y-60000000D01*
D10*
D11*
X10000000Y-110000000D02*
X12000000Y-110000000D01*
D10*
D11*
X10000000Y-160000000D02*
X12000000Y-160000000D01*
D10*
D11*
X10690476Y-35216666D02*
X11309523Y-35216666D01*
X10566666Y-35588095D02*
X11000000Y-34288095D01*
X11433333Y-35588095D01*
D10*
D11*
X11092857Y-84907142D02*
X11278571Y-84969047D01*
X11340476Y-85030952D01*
X11402380Y-85154761D01*
X11402380Y-85340476D01*
X11340476Y-85464285D01*
X11278571Y-85526190D01*
X11154761Y-85588095D01*
X10659523Y-85588095D01*
X10659523Y-84288095D01*
X11092857Y-84288095D01*
X11216666Y-84350000D01*
X11278571Y-84411904D01*
X11340476Y-84535714D01*
X11340476Y-84659523D01*
X11278571Y-84783333D01*
X11216666Y-84845238D01*
X11092857Y-84907142D01*
X10659523Y-84907142D01*
D10*
D11*
X11402380Y-135464285D02*
X11340476Y-135526190D01*
X11154761Y-135588095D01*
X11030952Y-135588095D01*
X10845238Y-135526190D01*
X10721428Y-135402380D01*
X10659523Y-135278571D01*
X10597619Y-135030952D01*
X10597619Y-134845238D01*
X10659523Y-134597619D01*
X10721428Y-134473809D01*
X10845238Y-134350000D01*
X11030952Y-134288095D01*
X11154761Y-134288095D01*
X11340476Y-134350000D01*
X11402380Y-134411904D01*
D10*
D11*
X10659523Y-185588095D02*
X10659523Y-184288095D01*
X10969047Y-184288095D01*
X11154761Y-184350000D01*
X11278571Y-184473809D01*
X11340476Y-184597619D01*
X11402380Y-184845238D01*
X11402380Y-185030952D01*
X11340476Y-185278571D01*
X11278571Y-185402380D01*
X11154761Y-185526190D01*
X10969047Y-185588095D01*
X10659523Y-185588095D01*
D10*
D11*
X287002200Y-60000000D02*
X285002200Y-60000000D01*
D10*
D11*
X287002200Y-110000000D02*
X285002200Y-110000000D01*
D10*
D11*
X287002200Y-160000000D02*
X285002200Y-160000000D01*
D10*
D11*
X285692676Y-35216666D02*
X286311723Y-35216666D01*
X285568866Y-35588095D02*
X286002200Y-34288095D01*
X286435533Y-35588095D01*
D10*
D11*
X286095057Y-84907142D02*
X286280771Y-84969047D01*
X286342676Y-85030952D01*
X286404580Y-85154761D01*
X286404580Y-85340476D01*
X286342676Y-85464285D01*
X286280771Y-85526190D01*
X286156961Y-85588095D01*
X285661723Y-85588095D01*
X285661723Y-84288095D01*
X286095057Y-84288095D01*
X286218866Y-84350000D01*
X286280771Y-84411904D01*
X286342676Y-84535714D01*
X286342676Y-84659523D01*
X286280771Y-84783333D01*
X286218866Y-84845238D01*
X286095057Y-84907142D01*
X285661723Y-84907142D01*
D10*
D11*
X286404580Y-135464285D02*
X286342676Y-135526190D01*
X286156961Y-135588095D01*
X286033152Y-135588095D01*
X285847438Y-135526190D01*
X285723628Y-135402380D01*
X285661723Y-135278571D01*
X285599819Y-135030952D01*
X285599819Y-134845238D01*
X285661723Y-134597619D01*
X285723628Y-134473809D01*
X285847438Y-134350000D01*
X286033152Y-134288095D01*
X286156961Y-134288095D01*
X286342676Y-134350000D01*
X286404580Y-134411904D01*
D10*
D11*
X285661723Y-185588095D02*
X285661723Y-184288095D01*
X285971247Y-184288095D01*
X286156961Y-184350000D01*
X286280771Y-184473809D01*
X286342676Y-184597619D01*
X286404580Y-184845238D01*
X286404580Y-185030952D01*
X286342676Y-185278571D01*
X286280771Y-185402380D01*
X286156961Y-185526190D01*
X285971247Y-185588095D01*
X285661723Y-185588095D01*
D10*
D11*
X200434342Y-193785771D02*
X200434342Y-192285771D01*
X200791485Y-192285771D01*
X201005771Y-192357200D01*
X201148628Y-192500057D01*
X201220057Y-192642914D01*
X201291485Y-192928628D01*
X201291485Y-193142914D01*
X201220057Y-193428628D01*
X201148628Y-193571485D01*
X201005771Y-193714342D01*
X200791485Y-193785771D01*
X200434342Y-193785771D01*
X202577200Y-193785771D02*
X202577200Y-193000057D01*
X202505771Y-192857200D01*
X202362914Y-192785771D01*
X202077200Y-192785771D01*
X201934342Y-192857200D01*
X202577200Y-193714342D02*
X202434342Y-193785771D01*
X202077200Y-193785771D01*
X201934342Y-193714342D01*
X201862914Y-193571485D01*
X201862914Y-193428628D01*
X201934342Y-193285771D01*
X202077200Y-193214342D01*
X202434342Y-193214342D01*
X202577200Y-193142914D01*
X203077200Y-192785771D02*
X203648628Y-192785771D01*
X203291485Y-192285771D02*
X203291485Y-193571485D01*
X203362914Y-193714342D01*
X203505771Y-193785771D01*
X203648628Y-193785771D01*
X204720057Y-193714342D02*
X204577200Y-193785771D01*
X204291485Y-193785771D01*
X204148628Y-193714342D01*
X204077200Y-193571485D01*
X204077200Y-193000057D01*
X204148628Y-192857200D01*
X204291485Y-192785771D01*
X204577200Y-192785771D01*
X204720057Y-192857200D01*
X204791485Y-193000057D01*
X204791485Y-193142914D01*
X204077200Y-193285771D01*
X205434342Y-193642914D02*
X205505771Y-193714342D01*
X205434342Y-193785771D01*
X205362914Y-193714342D01*
X205434342Y-193642914D01*
X205434342Y-193785771D01*
X205434342Y-192857200D02*
X205505771Y-192928628D01*
X205434342Y-193000057D01*
X205362914Y-192928628D01*
X205434342Y-192857200D01*
X205434342Y-193000057D01*
D10*
D11*
X177002200Y-194507200D02*
X285002200Y-194507200D01*
D10*
D11*
X178434342Y-196585771D02*
X178434342Y-195085771D01*
X179291485Y-196585771D02*
X178648628Y-195728628D01*
X179291485Y-195085771D02*
X178434342Y-195942914D01*
X179934342Y-196585771D02*
X179934342Y-195585771D01*
X179934342Y-195085771D02*
X179862914Y-195157200D01*
X179934342Y-195228628D01*
X180005771Y-195157200D01*
X179934342Y-195085771D01*
X179934342Y-195228628D01*
X181505771Y-196442914D02*
X181434342Y-196514342D01*
X181220057Y-196585771D01*
X181077200Y-196585771D01*
X180862914Y-196514342D01*
X180720057Y-196371485D01*
X180648628Y-196228628D01*
X180577200Y-195942914D01*
X180577200Y-195728628D01*
X180648628Y-195442914D01*
X180720057Y-195300057D01*
X180862914Y-195157200D01*
X181077200Y-195085771D01*
X181220057Y-195085771D01*
X181434342Y-195157200D01*
X181505771Y-195228628D01*
X182791485Y-196585771D02*
X182791485Y-195800057D01*
X182720057Y-195657200D01*
X182577200Y-195585771D01*
X182291485Y-195585771D01*
X182148628Y-195657200D01*
X182791485Y-196514342D02*
X182648628Y-196585771D01*
X182291485Y-196585771D01*
X182148628Y-196514342D01*
X182077200Y-196371485D01*
X182077200Y-196228628D01*
X182148628Y-196085771D01*
X182291485Y-196014342D01*
X182648628Y-196014342D01*
X182791485Y-195942914D01*
X184148628Y-196585771D02*
X184148628Y-195085771D01*
X184148628Y-196514342D02*
X184005771Y-196585771D01*
X183720057Y-196585771D01*
X183577200Y-196514342D01*
X183505771Y-196442914D01*
X183434342Y-196300057D01*
X183434342Y-195871485D01*
X183505771Y-195728628D01*
X183577200Y-195657200D01*
X183720057Y-195585771D01*
X184005771Y-195585771D01*
X184148628Y-195657200D01*
X186005771Y-195800057D02*
X186505771Y-195800057D01*
X186720057Y-196585771D02*
X186005771Y-196585771D01*
X186005771Y-195085771D01*
X186720057Y-195085771D01*
X187362914Y-196442914D02*
X187434342Y-196514342D01*
X187362914Y-196585771D01*
X187291485Y-196514342D01*
X187362914Y-196442914D01*
X187362914Y-196585771D01*
X188077200Y-196585771D02*
X188077200Y-195085771D01*
X188434342Y-195085771D01*
X188648628Y-195157200D01*
X188791485Y-195300057D01*
X188862914Y-195442914D01*
X188934342Y-195728628D01*
X188934342Y-195942914D01*
X188862914Y-196228628D01*
X188791485Y-196371485D01*
X188648628Y-196514342D01*
X188434342Y-196585771D01*
X188077200Y-196585771D01*
X189577200Y-196442914D02*
X189648628Y-196514342D01*
X189577200Y-196585771D01*
X189505771Y-196514342D01*
X189577200Y-196442914D01*
X189577200Y-196585771D01*
X190220057Y-196157200D02*
X190934342Y-196157200D01*
X190077200Y-196585771D02*
X190577200Y-195085771D01*
X191077200Y-196585771D01*
X191577200Y-196442914D02*
X191648628Y-196514342D01*
X191577200Y-196585771D01*
X191505771Y-196514342D01*
X191577200Y-196442914D01*
X191577200Y-196585771D01*
X194577200Y-195585771D02*
X194577200Y-197085771D01*
X194577200Y-195657200D02*
X194720057Y-195585771D01*
X195005771Y-195585771D01*
X195148628Y-195657200D01*
X195220057Y-195728628D01*
X195291485Y-195871485D01*
X195291485Y-196300057D01*
X195220057Y-196442914D01*
X195148628Y-196514342D01*
X195005771Y-196585771D01*
X194720057Y-196585771D01*
X194577200Y-196514342D01*
X196577200Y-196514342D02*
X196434342Y-196585771D01*
X196148628Y-196585771D01*
X196005771Y-196514342D01*
X195934342Y-196442914D01*
X195862914Y-196300057D01*
X195862914Y-195871485D01*
X195934342Y-195728628D01*
X196005771Y-195657200D01*
X196148628Y-195585771D01*
X196434342Y-195585771D01*
X196577200Y-195657200D01*
X197220057Y-196585771D02*
X197220057Y-195085771D01*
X197220057Y-195657200D02*
X197362914Y-195585771D01*
X197648628Y-195585771D01*
X197791485Y-195657200D01*
X197862914Y-195728628D01*
X197934342Y-195871485D01*
X197934342Y-196300057D01*
X197862914Y-196442914D01*
X197791485Y-196514342D01*
X197648628Y-196585771D01*
X197362914Y-196585771D01*
X197220057Y-196514342D01*
X198577200Y-195585771D02*
X198577200Y-196585771D01*
X198577200Y-195728628D02*
X198648628Y-195657200D01*
X198791485Y-195585771D01*
X199005771Y-195585771D01*
X199148628Y-195657200D01*
X199220057Y-195800057D01*
X199220057Y-196585771D01*
X200505771Y-196514342D02*
X200362914Y-196585771D01*
X200077200Y-196585771D01*
X199934342Y-196514342D01*
X199862914Y-196371485D01*
X199862914Y-195800057D01*
X199934342Y-195657200D01*
X200077200Y-195585771D01*
X200362914Y-195585771D01*
X200505771Y-195657200D01*
X200577200Y-195800057D01*
X200577200Y-195942914D01*
X199862914Y-196085771D01*
X201077200Y-195585771D02*
X201362914Y-196585771D01*
X201648628Y-195871485D01*
X201934342Y-196585771D01*
X202220057Y-195585771D01*
X204362914Y-197157200D02*
X204291485Y-197085771D01*
X204148628Y-196871485D01*
X204077200Y-196728628D01*
X204005771Y-196514342D01*
X203934342Y-196157200D01*
X203934342Y-195871485D01*
X204005771Y-195514342D01*
X204077200Y-195300057D01*
X204148628Y-195157200D01*
X204291485Y-194942914D01*
X204362914Y-194871485D01*
X205648628Y-195085771D02*
X204934342Y-195085771D01*
X204862914Y-195800057D01*
X204934342Y-195728628D01*
X205077200Y-195657200D01*
X205434342Y-195657200D01*
X205577200Y-195728628D01*
X205648628Y-195800057D01*
X205720057Y-195942914D01*
X205720057Y-196300057D01*
X205648628Y-196442914D01*
X205577200Y-196514342D01*
X205434342Y-196585771D01*
X205077200Y-196585771D01*
X204934342Y-196514342D01*
X204862914Y-196442914D01*
X206362914Y-196442914D02*
X206434342Y-196514342D01*
X206362914Y-196585771D01*
X206291485Y-196514342D01*
X206362914Y-196442914D01*
X206362914Y-196585771D01*
X207862914Y-196585771D02*
X207005771Y-196585771D01*
X207434342Y-196585771D02*
X207434342Y-195085771D01*
X207291485Y-195300057D01*
X207148628Y-195442914D01*
X207005771Y-195514342D01*
X208505771Y-196442914D02*
X208577200Y-196514342D01*
X208505771Y-196585771D01*
X208434342Y-196514342D01*
X208505771Y-196442914D01*
X208505771Y-196585771D01*
X209934342Y-195085771D02*
X209220057Y-195085771D01*
X209148628Y-195800057D01*
X209220057Y-195728628D01*
X209362914Y-195657200D01*
X209720057Y-195657200D01*
X209862914Y-195728628D01*
X209934342Y-195800057D01*
X210005771Y-195942914D01*
X210005771Y-196300057D01*
X209934342Y-196442914D01*
X209862914Y-196514342D01*
X209720057Y-196585771D01*
X209362914Y-196585771D01*
X209220057Y-196514342D01*
X209148628Y-196442914D01*
X210648628Y-196014342D02*
X211791485Y-196014342D01*
X212791485Y-195085771D02*
X212934342Y-195085771D01*
X213077200Y-195157200D01*
X213148628Y-195228628D01*
X213220057Y-195371485D01*
X213291485Y-195657200D01*
X213291485Y-196014342D01*
X213220057Y-196300057D01*
X213148628Y-196442914D01*
X213077200Y-196514342D01*
X212934342Y-196585771D01*
X212791485Y-196585771D01*
X212648628Y-196514342D01*
X212577200Y-196442914D01*
X212505771Y-196300057D01*
X212434342Y-196014342D01*
X212434342Y-195657200D01*
X212505771Y-195371485D01*
X212577200Y-195228628D01*
X212648628Y-195157200D01*
X212791485Y-195085771D01*
X213934342Y-196014342D02*
X215077200Y-196014342D01*
X216577200Y-196585771D02*
X215720057Y-196585771D01*
X216148628Y-196585771D02*
X216148628Y-195085771D01*
X216005771Y-195300057D01*
X215862914Y-195442914D01*
X215720057Y-195514342D01*
X217505771Y-195085771D02*
X217648628Y-195085771D01*
X217791485Y-195157200D01*
X217862914Y-195228628D01*
X217934342Y-195371485D01*
X218005771Y-195657200D01*
X218005771Y-196014342D01*
X217934342Y-196300057D01*
X217862914Y-196442914D01*
X217791485Y-196514342D01*
X217648628Y-196585771D01*
X217505771Y-196585771D01*
X217362914Y-196514342D01*
X217291485Y-196442914D01*
X217220057Y-196300057D01*
X217148628Y-196014342D01*
X217148628Y-195657200D01*
X217220057Y-195371485D01*
X217291485Y-195228628D01*
X217362914Y-195157200D01*
X217505771Y-195085771D01*
X218291485Y-196728628D02*
X219434342Y-196728628D01*
X220577200Y-196585771D02*
X219720057Y-196585771D01*
X220148628Y-196585771D02*
X220148628Y-195085771D01*
X220005771Y-195300057D01*
X219862914Y-195442914D01*
X219720057Y-195514342D01*
X221862914Y-195585771D02*
X221862914Y-196585771D01*
X221505771Y-195014342D02*
X221148628Y-196085771D01*
X222077200Y-196085771D01*
X222505771Y-197157200D02*
X222577200Y-197085771D01*
X222720057Y-196871485D01*
X222791485Y-196728628D01*
X222862914Y-196514342D01*
X222934342Y-196157200D01*
X222934342Y-195871485D01*
X222862914Y-195514342D01*
X222791485Y-195300057D01*
X222720057Y-195157200D01*
X222577200Y-194942914D01*
X222505771Y-194871485D01*
D10*
D11*
X177002200Y-191507200D02*
X285002200Y-191507200D01*
D10*
D12*
X264411485Y-193785771D02*
X263911485Y-193071485D01*
X263554342Y-193785771D02*
X263554342Y-192285771D01*
X264125771Y-192285771D01*
X264268628Y-192357200D01*
X264340057Y-192428628D01*
X264411485Y-192571485D01*
X264411485Y-192785771D01*
X264340057Y-192928628D01*
X264268628Y-193000057D01*
X264125771Y-193071485D01*
X263554342Y-193071485D01*
X265625771Y-193714342D02*
X265482914Y-193785771D01*
X265197200Y-193785771D01*
X265054342Y-193714342D01*
X264982914Y-193571485D01*
X264982914Y-193000057D01*
X265054342Y-192857200D01*
X265197200Y-192785771D01*
X265482914Y-192785771D01*
X265625771Y-192857200D01*
X265697200Y-193000057D01*
X265697200Y-193142914D01*
X264982914Y-193285771D01*
X266197200Y-192785771D02*
X266554342Y-193785771D01*
X266911485Y-192785771D01*
X267482914Y-193642914D02*
X267554342Y-193714342D01*
X267482914Y-193785771D01*
X267411485Y-193714342D01*
X267482914Y-193642914D01*
X267482914Y-193785771D01*
X267482914Y-192857200D02*
X267554342Y-192928628D01*
X267482914Y-193000057D01*
X267411485Y-192928628D01*
X267482914Y-192857200D01*
X267482914Y-193000057D01*
D10*
D11*
X178362914Y-193714342D02*
X178577200Y-193785771D01*
X178934342Y-193785771D01*
X179077200Y-193714342D01*
X179148628Y-193642914D01*
X179220057Y-193500057D01*
X179220057Y-193357200D01*
X179148628Y-193214342D01*
X179077200Y-193142914D01*
X178934342Y-193071485D01*
X178648628Y-193000057D01*
X178505771Y-192928628D01*
X178434342Y-192857200D01*
X178362914Y-192714342D01*
X178362914Y-192571485D01*
X178434342Y-192428628D01*
X178505771Y-192357200D01*
X178648628Y-192285771D01*
X179005771Y-192285771D01*
X179220057Y-192357200D01*
X179862914Y-193785771D02*
X179862914Y-192785771D01*
X179862914Y-192285771D02*
X179791485Y-192357200D01*
X179862914Y-192428628D01*
X179934342Y-192357200D01*
X179862914Y-192285771D01*
X179862914Y-192428628D01*
X180434342Y-192785771D02*
X181220057Y-192785771D01*
X180434342Y-193785771D01*
X181220057Y-193785771D01*
X182362914Y-193714342D02*
X182220057Y-193785771D01*
X181934342Y-193785771D01*
X181791485Y-193714342D01*
X181720057Y-193571485D01*
X181720057Y-193000057D01*
X181791485Y-192857200D01*
X181934342Y-192785771D01*
X182220057Y-192785771D01*
X182362914Y-192857200D01*
X182434342Y-193000057D01*
X182434342Y-193142914D01*
X181720057Y-193285771D01*
X183077200Y-193642914D02*
X183148628Y-193714342D01*
X183077200Y-193785771D01*
X183005771Y-193714342D01*
X183077200Y-193642914D01*
X183077200Y-193785771D01*
X183077200Y-192857200D02*
X183148628Y-192928628D01*
X183077200Y-193000057D01*
X183005771Y-192928628D01*
X183077200Y-192857200D01*
X183077200Y-193000057D01*
X184862914Y-193357200D02*
X185577200Y-193357200D01*
X184720057Y-193785771D02*
X185220057Y-192285771D01*
X185720057Y-193785771D01*
X186862914Y-192785771D02*
X186862914Y-193785771D01*
X186505771Y-192214342D02*
X186148628Y-193285771D01*
X187077200Y-193285771D01*
D10*
D11*
X263434342Y-196585771D02*
X263434342Y-195085771D01*
X264791485Y-196585771D02*
X264791485Y-195085771D01*
X264791485Y-196514342D02*
X264648628Y-196585771D01*
X264362914Y-196585771D01*
X264220057Y-196514342D01*
X264148628Y-196442914D01*
X264077200Y-196300057D01*
X264077200Y-195871485D01*
X264148628Y-195728628D01*
X264220057Y-195657200D01*
X264362914Y-195585771D01*
X264648628Y-195585771D01*
X264791485Y-195657200D01*
X265505771Y-196442914D02*
X265577200Y-196514342D01*
X265505771Y-196585771D01*
X265434342Y-196514342D01*
X265505771Y-196442914D01*
X265505771Y-196585771D01*
X265505771Y-195657200D02*
X265577200Y-195728628D01*
X265505771Y-195800057D01*
X265434342Y-195728628D01*
X265505771Y-195657200D01*
X265505771Y-195800057D01*
X268148628Y-196585771D02*
X267291485Y-196585771D01*
X267720057Y-196585771D02*
X267720057Y-195085771D01*
X267577200Y-195300057D01*
X267434342Y-195442914D01*
X267291485Y-195514342D01*
X269862914Y-195014342D02*
X268577200Y-196942914D01*
X271148628Y-196585771D02*
X270291485Y-196585771D01*
X270720057Y-196585771D02*
X270720057Y-195085771D01*
X270577200Y-195300057D01*
X270434342Y-195442914D01*
X270291485Y-195514342D01*
D10*
D11*
X177002200Y-187507200D02*
X285002200Y-187507200D01*
D10*
D13*
X178714580Y-188211961D02*
X179857438Y-188211961D01*
X179036009Y-190211961D02*
X179286009Y-188211961D01*
X180274104Y-190211961D02*
X180440771Y-188878628D01*
X180524104Y-188211961D02*
X180416961Y-188307200D01*
X180500295Y-188402438D01*
X180607438Y-188307200D01*
X180524104Y-188211961D01*
X180500295Y-188402438D01*
X181107438Y-188878628D02*
X181869342Y-188878628D01*
X181476485Y-188211961D02*
X181262200Y-189926247D01*
X181333628Y-190116723D01*
X181512200Y-190211961D01*
X181702676Y-190211961D01*
X182655057Y-190211961D02*
X182476485Y-190116723D01*
X182405057Y-189926247D01*
X182619342Y-188211961D01*
X184190771Y-190116723D02*
X183988390Y-190211961D01*
X183607438Y-190211961D01*
X183428866Y-190116723D01*
X183357438Y-189926247D01*
X183452676Y-189164342D01*
X183571723Y-188973866D01*
X183774104Y-188878628D01*
X184155057Y-188878628D01*
X184333628Y-188973866D01*
X184405057Y-189164342D01*
X184381247Y-189354819D01*
X183405057Y-189545295D01*
X185155057Y-190021485D02*
X185238390Y-190116723D01*
X185131247Y-190211961D01*
X185047914Y-190116723D01*
X185155057Y-190021485D01*
X185131247Y-190211961D01*
X185286009Y-188973866D02*
X185369342Y-189069104D01*
X185262200Y-189164342D01*
X185178866Y-189069104D01*
X185286009Y-188973866D01*
X185262200Y-189164342D01*
D10*
D11*
X178934342Y-185600057D02*
X178434342Y-185600057D01*
X178434342Y-186385771D02*
X178434342Y-184885771D01*
X179148628Y-184885771D01*
X179720057Y-186385771D02*
X179720057Y-185385771D01*
X179720057Y-184885771D02*
X179648628Y-184957200D01*
X179720057Y-185028628D01*
X179791485Y-184957200D01*
X179720057Y-184885771D01*
X179720057Y-185028628D01*
X180648628Y-186385771D02*
X180505771Y-186314342D01*
X180434342Y-186171485D01*
X180434342Y-184885771D01*
X181791485Y-186314342D02*
X181648628Y-186385771D01*
X181362914Y-186385771D01*
X181220057Y-186314342D01*
X181148628Y-186171485D01*
X181148628Y-185600057D01*
X181220057Y-185457200D01*
X181362914Y-185385771D01*
X181648628Y-185385771D01*
X181791485Y-185457200D01*
X181862914Y-185600057D01*
X181862914Y-185742914D01*
X181148628Y-185885771D01*
X182505771Y-186242914D02*
X182577200Y-186314342D01*
X182505771Y-186385771D01*
X182434342Y-186314342D01*
X182505771Y-186242914D01*
X182505771Y-186385771D01*
X182505771Y-185457200D02*
X182577200Y-185528628D01*
X182505771Y-185600057D01*
X182434342Y-185528628D01*
X182505771Y-185457200D01*
X182505771Y-185600057D01*
X184148628Y-185385771D02*
X184720057Y-185385771D01*
X184362914Y-186385771D02*
X184362914Y-185100057D01*
X184434342Y-184957200D01*
X184577200Y-184885771D01*
X184720057Y-184885771D01*
X185434342Y-186385771D02*
X185291485Y-186314342D01*
X185220057Y-186171485D01*
X185220057Y-184885771D01*
X186648628Y-186385771D02*
X186648628Y-185600057D01*
X186577200Y-185457200D01*
X186434342Y-185385771D01*
X186148628Y-185385771D01*
X186005771Y-185457200D01*
X186648628Y-186314342D02*
X186505771Y-186385771D01*
X186148628Y-186385771D01*
X186005771Y-186314342D01*
X185934342Y-186171485D01*
X185934342Y-186028628D01*
X186005771Y-185885771D01*
X186148628Y-185814342D01*
X186505771Y-185814342D01*
X186648628Y-185742914D01*
X187220057Y-185385771D02*
X187577200Y-186385771D01*
X187934342Y-185385771D01*
X188505771Y-186385771D02*
X188505771Y-185385771D01*
X188505771Y-184885771D02*
X188434342Y-184957200D01*
X188505771Y-185028628D01*
X188577200Y-184957200D01*
X188505771Y-184885771D01*
X188505771Y-185028628D01*
X189434342Y-186385771D02*
X189291485Y-186314342D01*
X189220057Y-186242914D01*
X189148628Y-186100057D01*
X189148628Y-185671485D01*
X189220057Y-185528628D01*
X189291485Y-185457200D01*
X189434342Y-185385771D01*
X189648628Y-185385771D01*
X189791485Y-185457200D01*
X189862914Y-185528628D01*
X189934342Y-185671485D01*
X189934342Y-186100057D01*
X189862914Y-186242914D01*
X189791485Y-186314342D01*
X189648628Y-186385771D01*
X189434342Y-186385771D01*
X190577200Y-186242914D02*
X190648628Y-186314342D01*
X190577200Y-186385771D01*
X190505771Y-186314342D01*
X190577200Y-186242914D01*
X190577200Y-186385771D01*
X191291485Y-186385771D02*
X191291485Y-184885771D01*
X191434342Y-185814342D02*
X191862914Y-186385771D01*
X191862914Y-185385771D02*
X191291485Y-185957200D01*
X192505771Y-186385771D02*
X192505771Y-185385771D01*
X192505771Y-184885771D02*
X192434342Y-184957200D01*
X192505771Y-185028628D01*
X192577200Y-184957200D01*
X192505771Y-184885771D01*
X192505771Y-185028628D01*
X193862914Y-186314342D02*
X193720057Y-186385771D01*
X193434342Y-186385771D01*
X193291485Y-186314342D01*
X193220057Y-186242914D01*
X193148628Y-186100057D01*
X193148628Y-185671485D01*
X193220057Y-185528628D01*
X193291485Y-185457200D01*
X193434342Y-185385771D01*
X193720057Y-185385771D01*
X193862914Y-185457200D01*
X195148628Y-186385771D02*
X195148628Y-185600057D01*
X195077200Y-185457200D01*
X194934342Y-185385771D01*
X194648628Y-185385771D01*
X194505771Y-185457200D01*
X195148628Y-186314342D02*
X195005771Y-186385771D01*
X194648628Y-186385771D01*
X194505771Y-186314342D01*
X194434342Y-186171485D01*
X194434342Y-186028628D01*
X194505771Y-185885771D01*
X194648628Y-185814342D01*
X195005771Y-185814342D01*
X195148628Y-185742914D01*
X196505771Y-186385771D02*
X196505771Y-184885771D01*
X196505771Y-186314342D02*
X196362914Y-186385771D01*
X196077200Y-186385771D01*
X195934342Y-186314342D01*
X195862914Y-186242914D01*
X195791485Y-186100057D01*
X195791485Y-185671485D01*
X195862914Y-185528628D01*
X195934342Y-185457200D01*
X196077200Y-185385771D01*
X196362914Y-185385771D01*
X196505771Y-185457200D01*
X196862914Y-186528628D02*
X198005771Y-186528628D01*
X198362914Y-185385771D02*
X198362914Y-186885771D01*
X198362914Y-185457200D02*
X198505771Y-185385771D01*
X198791485Y-185385771D01*
X198934342Y-185457200D01*
X199005771Y-185528628D01*
X199077200Y-185671485D01*
X199077200Y-186100057D01*
X199005771Y-186242914D01*
X198934342Y-186314342D01*
X198791485Y-186385771D01*
X198505771Y-186385771D01*
X198362914Y-186314342D01*
X200362914Y-186314342D02*
X200220057Y-186385771D01*
X199934342Y-186385771D01*
X199791485Y-186314342D01*
X199720057Y-186242914D01*
X199648628Y-186100057D01*
X199648628Y-185671485D01*
X199720057Y-185528628D01*
X199791485Y-185457200D01*
X199934342Y-185385771D01*
X200220057Y-185385771D01*
X200362914Y-185457200D01*
X201005771Y-186385771D02*
X201005771Y-184885771D01*
X201005771Y-185457200D02*
X201148628Y-185385771D01*
X201434342Y-185385771D01*
X201577200Y-185457200D01*
X201648628Y-185528628D01*
X201720057Y-185671485D01*
X201720057Y-186100057D01*
X201648628Y-186242914D01*
X201577200Y-186314342D01*
X201434342Y-186385771D01*
X201148628Y-186385771D01*
X201005771Y-186314342D01*
D10*
D11*
X177002200Y-181507200D02*
X285002200Y-181507200D01*
D10*
D11*
X178362914Y-183614342D02*
X178577200Y-183685771D01*
X178934342Y-183685771D01*
X179077200Y-183614342D01*
X179148628Y-183542914D01*
X179220057Y-183400057D01*
X179220057Y-183257200D01*
X179148628Y-183114342D01*
X179077200Y-183042914D01*
X178934342Y-182971485D01*
X178648628Y-182900057D01*
X178505771Y-182828628D01*
X178434342Y-182757200D01*
X178362914Y-182614342D01*
X178362914Y-182471485D01*
X178434342Y-182328628D01*
X178505771Y-182257200D01*
X178648628Y-182185771D01*
X179005771Y-182185771D01*
X179220057Y-182257200D01*
X179862914Y-183685771D02*
X179862914Y-182185771D01*
X180505771Y-183685771D02*
X180505771Y-182900057D01*
X180434342Y-182757200D01*
X180291485Y-182685771D01*
X180077200Y-182685771D01*
X179934342Y-182757200D01*
X179862914Y-182828628D01*
X181791485Y-183614342D02*
X181648628Y-183685771D01*
X181362914Y-183685771D01*
X181220057Y-183614342D01*
X181148628Y-183471485D01*
X181148628Y-182900057D01*
X181220057Y-182757200D01*
X181362914Y-182685771D01*
X181648628Y-182685771D01*
X181791485Y-182757200D01*
X181862914Y-182900057D01*
X181862914Y-183042914D01*
X181148628Y-183185771D01*
X183077200Y-183614342D02*
X182934342Y-183685771D01*
X182648628Y-183685771D01*
X182505771Y-183614342D01*
X182434342Y-183471485D01*
X182434342Y-182900057D01*
X182505771Y-182757200D01*
X182648628Y-182685771D01*
X182934342Y-182685771D01*
X183077200Y-182757200D01*
X183148628Y-182900057D01*
X183148628Y-183042914D01*
X182434342Y-183185771D01*
X183577200Y-182685771D02*
X184148628Y-182685771D01*
X183791485Y-182185771D02*
X183791485Y-183471485D01*
X183862914Y-183614342D01*
X184005771Y-183685771D01*
X184148628Y-183685771D01*
X184648628Y-183542914D02*
X184720057Y-183614342D01*
X184648628Y-183685771D01*
X184577200Y-183614342D01*
X184648628Y-183542914D01*
X184648628Y-183685771D01*
X184648628Y-182757200D02*
X184720057Y-182828628D01*
X184648628Y-182900057D01*
X184577200Y-182828628D01*
X184648628Y-182757200D01*
X184648628Y-182900057D01*
D10*
D11*
X197002200Y-191507200D02*
X197002200Y-194507200D01*
D10*
D11*
X261002200Y-191507200D02*
X261002200Y-198007200D01*
D10*
G36*
X132653214Y-97808646D02*
G01*
X132653217Y-97808647D01*
X132653216Y-97808647D01*
X132698894Y-97827567D01*
X132739998Y-97855032D01*
X132740000Y-97855034D01*
X132740003Y-97855036D01*
X132774964Y-97889997D01*
X132774966Y-97890000D01*
X132774968Y-97890002D01*
X132802433Y-97931106D01*
X132802433Y-97931107D01*
X132821354Y-97976786D01*
X132831000Y-98025279D01*
X132831000Y-98074721D01*
X132821354Y-98123214D01*
X132821353Y-98123216D01*
X132802433Y-98168894D01*
X132774968Y-98209998D01*
X132774966Y-98210000D01*
X132774964Y-98210003D01*
X132740003Y-98244964D01*
X132740000Y-98244966D01*
X132739998Y-98244968D01*
X132698894Y-98272433D01*
X132666594Y-98285812D01*
X132653214Y-98291354D01*
X132604721Y-98301000D01*
X132555279Y-98301000D01*
X132506786Y-98291354D01*
X132493406Y-98285812D01*
X132461106Y-98272433D01*
X132420002Y-98244968D01*
X132420000Y-98244966D01*
X132419997Y-98244964D01*
X132385036Y-98210003D01*
X132385034Y-98210000D01*
X132385032Y-98209998D01*
X132357567Y-98168894D01*
X132338647Y-98123216D01*
X132338646Y-98123214D01*
X132329000Y-98074721D01*
X132329000Y-98025279D01*
X132338646Y-97976786D01*
X132357567Y-97931107D01*
X132357567Y-97931106D01*
X132385032Y-97890002D01*
X132385034Y-97890000D01*
X132385036Y-97889997D01*
X132419997Y-97855036D01*
X132420000Y-97855034D01*
X132420002Y-97855032D01*
X132461106Y-97827567D01*
X132506784Y-97808647D01*
X132506783Y-97808647D01*
X132506786Y-97808646D01*
X132555279Y-97799000D01*
X132604721Y-97799000D01*
X132653214Y-97808646D01*
G37*
G36*
X130653214Y-97808646D02*
G01*
X130653217Y-97808647D01*
X130653216Y-97808647D01*
X130698894Y-97827567D01*
X130739998Y-97855032D01*
X130740000Y-97855034D01*
X130740003Y-97855036D01*
X130774964Y-97889997D01*
X130774966Y-97890000D01*
X130774968Y-97890002D01*
X130802433Y-97931106D01*
X130802433Y-97931107D01*
X130821354Y-97976786D01*
X130831000Y-98025279D01*
X130831000Y-98074721D01*
X130821354Y-98123214D01*
X130821353Y-98123216D01*
X130802433Y-98168894D01*
X130774968Y-98209998D01*
X130774966Y-98210000D01*
X130774964Y-98210003D01*
X130740003Y-98244964D01*
X130740000Y-98244966D01*
X130739998Y-98244968D01*
X130698894Y-98272433D01*
X130666594Y-98285812D01*
X130653214Y-98291354D01*
X130604721Y-98301000D01*
X130555279Y-98301000D01*
X130506786Y-98291354D01*
X130493406Y-98285812D01*
X130461106Y-98272433D01*
X130420002Y-98244968D01*
X130420000Y-98244966D01*
X130419997Y-98244964D01*
X130385036Y-98210003D01*
X130385034Y-98210000D01*
X130385032Y-98209998D01*
X130357567Y-98168894D01*
X130338647Y-98123216D01*
X130338646Y-98123214D01*
X130329000Y-98074721D01*
X130329000Y-98025279D01*
X130338646Y-97976786D01*
X130357567Y-97931107D01*
X130357567Y-97931106D01*
X130385032Y-97890002D01*
X130385034Y-97890000D01*
X130385036Y-97889997D01*
X130419997Y-97855036D01*
X130420000Y-97855034D01*
X130420002Y-97855032D01*
X130461106Y-97827567D01*
X130506784Y-97808647D01*
X130506783Y-97808647D01*
X130506786Y-97808646D01*
X130555279Y-97799000D01*
X130604721Y-97799000D01*
X130653214Y-97808646D01*
G37*
G36*
X131663214Y-96818646D02*
G01*
X131663217Y-96818647D01*
X131663216Y-96818647D01*
X131708894Y-96837567D01*
X131749998Y-96865032D01*
X131750000Y-96865034D01*
X131750003Y-96865036D01*
X131784964Y-96899997D01*
X131784966Y-96900000D01*
X131784968Y-96900002D01*
X131812433Y-96941106D01*
X131812433Y-96941107D01*
X131831354Y-96986786D01*
X131841000Y-97035279D01*
X131841000Y-97084721D01*
X131831354Y-97133214D01*
X131831353Y-97133216D01*
X131812433Y-97178894D01*
X131784968Y-97219998D01*
X131784966Y-97220000D01*
X131784964Y-97220003D01*
X131750003Y-97254964D01*
X131750000Y-97254966D01*
X131749998Y-97254968D01*
X131708894Y-97282433D01*
X131676594Y-97295812D01*
X131663214Y-97301354D01*
X131614721Y-97311000D01*
X131565279Y-97311000D01*
X131516786Y-97301354D01*
X131503406Y-97295812D01*
X131471106Y-97282433D01*
X131430002Y-97254968D01*
X131430000Y-97254966D01*
X131429997Y-97254964D01*
X131395036Y-97220003D01*
X131395034Y-97220000D01*
X131395032Y-97219998D01*
X131367567Y-97178894D01*
X131348647Y-97133216D01*
X131348646Y-97133214D01*
X131339000Y-97084721D01*
X131339000Y-97035279D01*
X131348646Y-96986786D01*
X131367567Y-96941107D01*
X131367567Y-96941106D01*
X131395032Y-96900002D01*
X131395034Y-96900000D01*
X131395036Y-96899997D01*
X131429997Y-96865036D01*
X131430000Y-96865034D01*
X131430002Y-96865032D01*
X131471106Y-96837567D01*
X131516784Y-96818647D01*
X131516783Y-96818647D01*
X131516786Y-96818646D01*
X131565279Y-96809000D01*
X131614721Y-96809000D01*
X131663214Y-96818646D01*
G37*
G36*
X134653214Y-94608646D02*
G01*
X134653217Y-94608647D01*
X134653216Y-94608647D01*
X134698894Y-94627567D01*
X134739998Y-94655032D01*
X134740000Y-94655034D01*
X134740003Y-94655036D01*
X134774964Y-94689997D01*
X134774966Y-94690000D01*
X134774968Y-94690002D01*
X134802433Y-94731106D01*
X134802433Y-94731107D01*
X134821354Y-94776786D01*
X134831000Y-94825279D01*
X134831000Y-94874721D01*
X134821354Y-94923214D01*
X134821353Y-94923216D01*
X134802433Y-94968894D01*
X134774968Y-95009998D01*
X134774966Y-95010000D01*
X134774964Y-95010003D01*
X134740003Y-95044964D01*
X134740000Y-95044966D01*
X134739998Y-95044968D01*
X134698894Y-95072433D01*
X134666594Y-95085812D01*
X134653214Y-95091354D01*
X134604721Y-95101000D01*
X134555279Y-95101000D01*
X134506786Y-95091354D01*
X134493406Y-95085812D01*
X134461106Y-95072433D01*
X134420002Y-95044968D01*
X134420000Y-95044966D01*
X134419997Y-95044964D01*
X134385036Y-95010003D01*
X134385034Y-95010000D01*
X134385032Y-95009998D01*
X134357567Y-94968894D01*
X134338647Y-94923216D01*
X134338646Y-94923214D01*
X134329000Y-94874721D01*
X134329000Y-94825279D01*
X134338646Y-94776786D01*
X134357567Y-94731107D01*
X134357567Y-94731106D01*
X134385032Y-94690002D01*
X134385034Y-94690000D01*
X134385036Y-94689997D01*
X134419997Y-94655036D01*
X134420000Y-94655034D01*
X134420002Y-94655032D01*
X134461106Y-94627567D01*
X134506784Y-94608647D01*
X134506783Y-94608647D01*
X134506786Y-94608646D01*
X134555279Y-94599000D01*
X134604721Y-94599000D01*
X134653214Y-94608646D01*
G37*
G36*
X133153214Y-94608646D02*
G01*
X133153217Y-94608647D01*
X133153216Y-94608647D01*
X133198894Y-94627567D01*
X133239998Y-94655032D01*
X133240000Y-94655034D01*
X133240003Y-94655036D01*
X133274964Y-94689997D01*
X133274966Y-94690000D01*
X133274968Y-94690002D01*
X133302433Y-94731106D01*
X133302433Y-94731107D01*
X133321354Y-94776786D01*
X133331000Y-94825279D01*
X133331000Y-94874721D01*
X133321354Y-94923214D01*
X133321353Y-94923216D01*
X133302433Y-94968894D01*
X133274968Y-95009998D01*
X133274966Y-95010000D01*
X133274964Y-95010003D01*
X133240003Y-95044964D01*
X133240000Y-95044966D01*
X133239998Y-95044968D01*
X133198894Y-95072433D01*
X133166594Y-95085812D01*
X133153214Y-95091354D01*
X133104721Y-95101000D01*
X133055279Y-95101000D01*
X133006786Y-95091354D01*
X132993406Y-95085812D01*
X132961106Y-95072433D01*
X132920002Y-95044968D01*
X132920000Y-95044966D01*
X132919997Y-95044964D01*
X132885036Y-95010003D01*
X132885034Y-95010000D01*
X132885032Y-95009998D01*
X132857567Y-94968894D01*
X132838647Y-94923216D01*
X132838646Y-94923214D01*
X132829000Y-94874721D01*
X132829000Y-94825279D01*
X132838646Y-94776786D01*
X132857567Y-94731107D01*
X132857567Y-94731106D01*
X132885032Y-94690002D01*
X132885034Y-94690000D01*
X132885036Y-94689997D01*
X132919997Y-94655036D01*
X132920000Y-94655034D01*
X132920002Y-94655032D01*
X132961106Y-94627567D01*
X133006784Y-94608647D01*
X133006783Y-94608647D01*
X133006786Y-94608646D01*
X133055279Y-94599000D01*
X133104721Y-94599000D01*
X133153214Y-94608646D01*
G37*
G36*
X130153214Y-94608646D02*
G01*
X130153217Y-94608647D01*
X130153216Y-94608647D01*
X130198894Y-94627567D01*
X130239998Y-94655032D01*
X130240000Y-94655034D01*
X130240003Y-94655036D01*
X130274964Y-94689997D01*
X130274966Y-94690000D01*
X130274968Y-94690002D01*
X130302433Y-94731106D01*
X130302433Y-94731107D01*
X130321354Y-94776786D01*
X130331000Y-94825279D01*
X130331000Y-94874721D01*
X130321354Y-94923214D01*
X130321353Y-94923216D01*
X130302433Y-94968894D01*
X130274968Y-95009998D01*
X130274966Y-95010000D01*
X130274964Y-95010003D01*
X130240003Y-95044964D01*
X130240000Y-95044966D01*
X130239998Y-95044968D01*
X130198894Y-95072433D01*
X130166594Y-95085812D01*
X130153214Y-95091354D01*
X130104721Y-95101000D01*
X130055279Y-95101000D01*
X130006786Y-95091354D01*
X129993406Y-95085812D01*
X129961106Y-95072433D01*
X129920002Y-95044968D01*
X129920000Y-95044966D01*
X129919997Y-95044964D01*
X129885036Y-95010003D01*
X129885034Y-95010000D01*
X129885032Y-95009998D01*
X129857567Y-94968894D01*
X129838647Y-94923216D01*
X129838646Y-94923214D01*
X129829000Y-94874721D01*
X129829000Y-94825279D01*
X129838646Y-94776786D01*
X129857567Y-94731107D01*
X129857567Y-94731106D01*
X129885032Y-94690002D01*
X129885034Y-94690000D01*
X129885036Y-94689997D01*
X129919997Y-94655036D01*
X129920000Y-94655034D01*
X129920002Y-94655032D01*
X129961106Y-94627567D01*
X130006784Y-94608647D01*
X130006783Y-94608647D01*
X130006786Y-94608646D01*
X130055279Y-94599000D01*
X130104721Y-94599000D01*
X130153214Y-94608646D01*
G37*
G36*
X128663214Y-94608646D02*
G01*
X128663217Y-94608647D01*
X128663216Y-94608647D01*
X128708894Y-94627567D01*
X128749998Y-94655032D01*
X128750000Y-94655034D01*
X128750003Y-94655036D01*
X128784964Y-94689997D01*
X128784966Y-94690000D01*
X128784968Y-94690002D01*
X128812433Y-94731106D01*
X128812433Y-94731107D01*
X128831354Y-94776786D01*
X128841000Y-94825279D01*
X128841000Y-94874721D01*
X128831354Y-94923214D01*
X128831353Y-94923216D01*
X128812433Y-94968894D01*
X128784968Y-95009998D01*
X128784966Y-95010000D01*
X128784964Y-95010003D01*
X128750003Y-95044964D01*
X128750000Y-95044966D01*
X128749998Y-95044968D01*
X128708894Y-95072433D01*
X128676594Y-95085812D01*
X128663214Y-95091354D01*
X128614721Y-95101000D01*
X128565279Y-95101000D01*
X128516786Y-95091354D01*
X128503406Y-95085812D01*
X128471106Y-95072433D01*
X128430002Y-95044968D01*
X128430000Y-95044966D01*
X128429997Y-95044964D01*
X128395036Y-95010003D01*
X128395034Y-95010000D01*
X128395032Y-95009998D01*
X128367567Y-94968894D01*
X128348647Y-94923216D01*
X128348646Y-94923214D01*
X128339000Y-94874721D01*
X128339000Y-94825279D01*
X128348646Y-94776786D01*
X128367567Y-94731107D01*
X128367567Y-94731106D01*
X128395032Y-94690002D01*
X128395034Y-94690000D01*
X128395036Y-94689997D01*
X128429997Y-94655036D01*
X128430000Y-94655034D01*
X128430002Y-94655032D01*
X128471106Y-94627567D01*
X128516784Y-94608647D01*
X128516783Y-94608647D01*
X128516786Y-94608646D01*
X128565279Y-94599000D01*
X128614721Y-94599000D01*
X128663214Y-94608646D01*
G37*
G36*
X131653214Y-92608646D02*
G01*
X131653217Y-92608647D01*
X131653216Y-92608647D01*
X131698894Y-92627567D01*
X131739998Y-92655032D01*
X131740000Y-92655034D01*
X131740003Y-92655036D01*
X131774964Y-92689997D01*
X131774966Y-92690000D01*
X131774968Y-92690002D01*
X131802433Y-92731106D01*
X131802433Y-92731107D01*
X131821354Y-92776786D01*
X131831000Y-92825279D01*
X131831000Y-92874721D01*
X131821354Y-92923214D01*
X131821353Y-92923216D01*
X131802433Y-92968894D01*
X131774968Y-93009998D01*
X131774966Y-93010000D01*
X131774964Y-93010003D01*
X131740003Y-93044964D01*
X131740000Y-93044966D01*
X131739998Y-93044968D01*
X131698894Y-93072433D01*
X131666594Y-93085812D01*
X131653214Y-93091354D01*
X131604721Y-93101000D01*
X131555279Y-93101000D01*
X131506786Y-93091354D01*
X131493406Y-93085812D01*
X131461106Y-93072433D01*
X131420002Y-93044968D01*
X131420000Y-93044966D01*
X131419997Y-93044964D01*
X131385036Y-93010003D01*
X131385034Y-93010000D01*
X131385032Y-93009998D01*
X131357567Y-92968894D01*
X131338647Y-92923216D01*
X131338646Y-92923214D01*
X131329000Y-92874721D01*
X131329000Y-92825279D01*
X131338646Y-92776786D01*
X131357567Y-92731107D01*
X131357567Y-92731106D01*
X131385032Y-92690002D01*
X131385034Y-92690000D01*
X131385036Y-92689997D01*
X131419997Y-92655036D01*
X131420000Y-92655034D01*
X131420002Y-92655032D01*
X131461106Y-92627567D01*
X131506784Y-92608647D01*
X131506783Y-92608647D01*
X131506786Y-92608646D01*
X131555279Y-92599000D01*
X131604721Y-92599000D01*
X131653214Y-92608646D01*
G37*
G36*
X131353214Y-90808646D02*
G01*
X131353217Y-90808647D01*
X131353216Y-90808647D01*
X131398894Y-90827567D01*
X131439998Y-90855032D01*
X131440000Y-90855034D01*
X131440003Y-90855036D01*
X131474964Y-90889997D01*
X131474966Y-90890000D01*
X131474967Y-90890001D01*
X131476069Y-90891650D01*
X131491614Y-90910591D01*
X131510556Y-90926136D01*
X131532167Y-90937687D01*
X131555616Y-90944800D01*
X131580003Y-90947201D01*
X131604389Y-90944799D01*
X131627837Y-90937685D01*
X131649448Y-90926133D01*
X131668389Y-90910588D01*
X131683931Y-90891650D01*
X131685033Y-90890001D01*
X131685034Y-90890000D01*
X131685036Y-90889997D01*
X131719997Y-90855036D01*
X131720000Y-90855034D01*
X131720002Y-90855032D01*
X131761106Y-90827567D01*
X131806784Y-90808647D01*
X131806783Y-90808647D01*
X131806786Y-90808646D01*
X131855279Y-90799000D01*
X131904721Y-90799000D01*
X131953214Y-90808646D01*
X131953217Y-90808647D01*
X131953216Y-90808647D01*
X131998894Y-90827567D01*
X132039998Y-90855032D01*
X132040000Y-90855034D01*
X132040003Y-90855036D01*
X132074964Y-90889997D01*
X132074966Y-90890000D01*
X132074968Y-90890002D01*
X132102433Y-90931106D01*
X132115812Y-90963406D01*
X132121354Y-90976786D01*
X132131000Y-91025279D01*
X132131000Y-91074721D01*
X132121354Y-91123214D01*
X132121353Y-91123216D01*
X132102433Y-91168894D01*
X132074968Y-91209998D01*
X132074967Y-91209999D01*
X132074964Y-91210003D01*
X132040003Y-91244964D01*
X132040000Y-91244966D01*
X132039998Y-91244968D01*
X131998894Y-91272433D01*
X131966594Y-91285812D01*
X131953214Y-91291354D01*
X131904721Y-91301000D01*
X131855279Y-91301000D01*
X131806786Y-91291354D01*
X131793406Y-91285812D01*
X131761106Y-91272433D01*
X131720002Y-91244968D01*
X131720000Y-91244966D01*
X131719997Y-91244964D01*
X131685036Y-91210003D01*
X131685033Y-91209999D01*
X131683931Y-91208350D01*
X131668386Y-91189409D01*
X131649444Y-91173864D01*
X131627833Y-91162313D01*
X131604384Y-91155200D01*
X131579997Y-91152799D01*
X131555611Y-91155201D01*
X131532163Y-91162315D01*
X131510552Y-91173867D01*
X131491611Y-91189412D01*
X131476069Y-91208350D01*
X131474967Y-91209999D01*
X131474964Y-91210003D01*
X131440003Y-91244964D01*
X131440000Y-91244966D01*
X131439998Y-91244968D01*
X131398894Y-91272433D01*
X131366594Y-91285812D01*
X131353214Y-91291354D01*
X131304721Y-91301000D01*
X131255279Y-91301000D01*
X131206786Y-91291354D01*
X131193406Y-91285812D01*
X131161106Y-91272433D01*
X131120002Y-91244968D01*
X131120000Y-91244966D01*
X131119997Y-91244964D01*
X131085036Y-91210003D01*
X131085033Y-91209999D01*
X131085032Y-91209998D01*
X131057567Y-91168894D01*
X131038647Y-91123216D01*
X131038646Y-91123214D01*
X131029000Y-91074721D01*
X131029000Y-91025279D01*
X131038646Y-90976786D01*
X131044188Y-90963406D01*
X131057567Y-90931106D01*
X131085032Y-90890002D01*
X131085034Y-90890000D01*
X131085036Y-90889997D01*
X131119997Y-90855036D01*
X131120000Y-90855034D01*
X131120002Y-90855032D01*
X131161106Y-90827567D01*
X131206784Y-90808647D01*
X131206783Y-90808647D01*
X131206786Y-90808646D01*
X131255279Y-90799000D01*
X131304721Y-90799000D01*
X131353214Y-90808646D01*
G37*
M02*
