%FSLAX45Y45*%
G04 Gerber Fmt 4.5, Leading zero omitted, Abs format (unit mm)*
G04 Created by KiCad (PCBNEW (5.1.5-0-10_14)) date 2019-12-07 21:20:43*
%MOMM*%
%LPD*%
G04 APERTURE LIST*
%TA.AperFunction,Profile*%
%ADD10C,0.050000*%
%TD*%
%ADD11C,0.200000*%
%ADD12C,0.300000*%
G04 APERTURE END LIST*
D10*
X13528000Y-9034000D02*
X12788000Y-9034000D01*
X12788000Y-9874000D02*
X13528000Y-9874000D01*
X13528000Y-9874000D02*
X13528000Y-9034000D01*
X12788000Y-9034000D02*
X12788000Y-9874000D01*
D11*
X13139000Y-9686000D02*
X13179000Y-9726000D01*
X13179000Y-9686000D02*
X13139000Y-9726000D01*
X13038000Y-9785000D02*
X13078000Y-9825000D01*
X13078000Y-9785000D02*
X13038000Y-9825000D01*
X13438000Y-9465000D02*
X13478000Y-9505000D01*
X13478000Y-9465000D02*
X13438000Y-9505000D01*
X13238000Y-9785000D02*
X13278000Y-9825000D01*
X13278000Y-9785000D02*
X13238000Y-9825000D01*
X12988000Y-9465000D02*
X13028000Y-9505000D01*
X13028000Y-9465000D02*
X12988000Y-9505000D01*
X13138000Y-9265000D02*
X13178000Y-9305000D01*
X13178000Y-9265000D02*
X13138000Y-9305000D01*
X13288000Y-9465000D02*
X13328000Y-9505000D01*
X13328000Y-9465000D02*
X13288000Y-9505000D01*
X13168000Y-9085000D02*
X13208000Y-9125000D01*
X13208000Y-9085000D02*
X13168000Y-9125000D01*
X12839000Y-9465000D02*
X12879000Y-9505000D01*
X12879000Y-9465000D02*
X12839000Y-9505000D01*
X13108000Y-9085000D02*
X13148000Y-9125000D01*
X13148000Y-9085000D02*
X13108000Y-9125000D01*
D12*
X13071928Y-10342214D02*
X13071928Y-10042214D01*
X13143357Y-10042214D01*
X13186214Y-10056500D01*
X13214786Y-10085072D01*
X13229071Y-10113643D01*
X13243357Y-10170786D01*
X13243357Y-10213643D01*
X13229071Y-10270786D01*
X13214786Y-10299357D01*
X13186214Y-10327929D01*
X13143357Y-10342214D01*
X13071928Y-10342214D01*
X13371928Y-10342214D02*
X13371928Y-10142214D01*
X13371928Y-10199357D02*
X13386214Y-10170786D01*
X13400500Y-10156500D01*
X13429071Y-10142214D01*
X13457643Y-10142214D01*
X13557643Y-10342214D02*
X13557643Y-10142214D01*
X13557643Y-10042214D02*
X13543357Y-10056500D01*
X13557643Y-10070786D01*
X13571928Y-10056500D01*
X13557643Y-10042214D01*
X13557643Y-10070786D01*
X13743357Y-10342214D02*
X13714786Y-10327929D01*
X13700500Y-10299357D01*
X13700500Y-10042214D01*
X13900500Y-10342214D02*
X13871928Y-10327929D01*
X13857643Y-10299357D01*
X13857643Y-10042214D01*
X14243357Y-10342214D02*
X14243357Y-10042214D01*
X14343357Y-10256500D01*
X14443357Y-10042214D01*
X14443357Y-10342214D01*
X14714786Y-10342214D02*
X14714786Y-10185072D01*
X14700500Y-10156500D01*
X14671928Y-10142214D01*
X14614786Y-10142214D01*
X14586214Y-10156500D01*
X14714786Y-10327929D02*
X14686214Y-10342214D01*
X14614786Y-10342214D01*
X14586214Y-10327929D01*
X14571928Y-10299357D01*
X14571928Y-10270786D01*
X14586214Y-10242214D01*
X14614786Y-10227929D01*
X14686214Y-10227929D01*
X14714786Y-10213643D01*
X14857643Y-10142214D02*
X14857643Y-10442214D01*
X14857643Y-10156500D02*
X14886214Y-10142214D01*
X14943357Y-10142214D01*
X14971928Y-10156500D01*
X14986214Y-10170786D01*
X15000500Y-10199357D01*
X15000500Y-10285072D01*
X14986214Y-10313643D01*
X14971928Y-10327929D01*
X14943357Y-10342214D01*
X14886214Y-10342214D01*
X14857643Y-10327929D01*
X15129071Y-10313643D02*
X15143357Y-10327929D01*
X15129071Y-10342214D01*
X15114786Y-10327929D01*
X15129071Y-10313643D01*
X15129071Y-10342214D01*
X15129071Y-10156500D02*
X15143357Y-10170786D01*
X15129071Y-10185072D01*
X15114786Y-10170786D01*
X15129071Y-10156500D01*
X15129071Y-10185072D01*
X12745500Y-10816500D02*
X12785500Y-10856500D01*
X12785500Y-10816500D02*
X12745500Y-10856500D01*
X13129071Y-10672214D02*
X13157643Y-10672214D01*
X13186214Y-10686500D01*
X13200500Y-10700786D01*
X13214786Y-10729357D01*
X13229071Y-10786500D01*
X13229071Y-10857929D01*
X13214786Y-10915072D01*
X13200500Y-10943643D01*
X13186214Y-10957929D01*
X13157643Y-10972214D01*
X13129071Y-10972214D01*
X13100500Y-10957929D01*
X13086214Y-10943643D01*
X13071928Y-10915072D01*
X13057643Y-10857929D01*
X13057643Y-10786500D01*
X13071928Y-10729357D01*
X13086214Y-10700786D01*
X13100500Y-10686500D01*
X13129071Y-10672214D01*
X13357643Y-10943643D02*
X13371928Y-10957929D01*
X13357643Y-10972214D01*
X13343357Y-10957929D01*
X13357643Y-10943643D01*
X13357643Y-10972214D01*
X13629071Y-10772214D02*
X13629071Y-10972214D01*
X13557643Y-10657929D02*
X13486214Y-10872214D01*
X13671928Y-10872214D01*
X13843357Y-10672214D02*
X13871928Y-10672214D01*
X13900500Y-10686500D01*
X13914786Y-10700786D01*
X13929071Y-10729357D01*
X13943357Y-10786500D01*
X13943357Y-10857929D01*
X13929071Y-10915072D01*
X13914786Y-10943643D01*
X13900500Y-10957929D01*
X13871928Y-10972214D01*
X13843357Y-10972214D01*
X13814786Y-10957929D01*
X13800500Y-10943643D01*
X13786214Y-10915072D01*
X13771928Y-10857929D01*
X13771928Y-10786500D01*
X13786214Y-10729357D01*
X13800500Y-10700786D01*
X13814786Y-10686500D01*
X13843357Y-10672214D01*
X14071928Y-10972214D02*
X14071928Y-10772214D01*
X14071928Y-10800786D02*
X14086214Y-10786500D01*
X14114786Y-10772214D01*
X14157643Y-10772214D01*
X14186214Y-10786500D01*
X14200500Y-10815072D01*
X14200500Y-10972214D01*
X14200500Y-10815072D02*
X14214786Y-10786500D01*
X14243357Y-10772214D01*
X14286214Y-10772214D01*
X14314786Y-10786500D01*
X14329071Y-10815072D01*
X14329071Y-10972214D01*
X14471928Y-10972214D02*
X14471928Y-10772214D01*
X14471928Y-10800786D02*
X14486214Y-10786500D01*
X14514786Y-10772214D01*
X14557643Y-10772214D01*
X14586214Y-10786500D01*
X14600500Y-10815072D01*
X14600500Y-10972214D01*
X14600500Y-10815072D02*
X14614786Y-10786500D01*
X14643357Y-10772214D01*
X14686214Y-10772214D01*
X14714786Y-10786500D01*
X14729071Y-10815072D01*
X14729071Y-10972214D01*
X15314786Y-10657929D02*
X15057643Y-11043643D01*
X15700500Y-10672214D02*
X15729071Y-10672214D01*
X15757643Y-10686500D01*
X15771928Y-10700786D01*
X15786214Y-10729357D01*
X15800500Y-10786500D01*
X15800500Y-10857929D01*
X15786214Y-10915072D01*
X15771928Y-10943643D01*
X15757643Y-10957929D01*
X15729071Y-10972214D01*
X15700500Y-10972214D01*
X15671928Y-10957929D01*
X15657643Y-10943643D01*
X15643357Y-10915072D01*
X15629071Y-10857929D01*
X15629071Y-10786500D01*
X15643357Y-10729357D01*
X15657643Y-10700786D01*
X15671928Y-10686500D01*
X15700500Y-10672214D01*
X15929071Y-10943643D02*
X15943357Y-10957929D01*
X15929071Y-10972214D01*
X15914786Y-10957929D01*
X15929071Y-10943643D01*
X15929071Y-10972214D01*
X16129071Y-10672214D02*
X16157643Y-10672214D01*
X16186214Y-10686500D01*
X16200500Y-10700786D01*
X16214786Y-10729357D01*
X16229071Y-10786500D01*
X16229071Y-10857929D01*
X16214786Y-10915072D01*
X16200500Y-10943643D01*
X16186214Y-10957929D01*
X16157643Y-10972214D01*
X16129071Y-10972214D01*
X16100500Y-10957929D01*
X16086214Y-10943643D01*
X16071928Y-10915072D01*
X16057643Y-10857929D01*
X16057643Y-10786500D01*
X16071928Y-10729357D01*
X16086214Y-10700786D01*
X16100500Y-10686500D01*
X16129071Y-10672214D01*
X16514786Y-10972214D02*
X16343357Y-10972214D01*
X16429071Y-10972214D02*
X16429071Y-10672214D01*
X16400500Y-10715072D01*
X16371928Y-10743643D01*
X16343357Y-10757929D01*
X16771928Y-10672214D02*
X16714786Y-10672214D01*
X16686214Y-10686500D01*
X16671928Y-10700786D01*
X16643357Y-10743643D01*
X16629071Y-10800786D01*
X16629071Y-10915072D01*
X16643357Y-10943643D01*
X16657643Y-10957929D01*
X16686214Y-10972214D01*
X16743357Y-10972214D01*
X16771928Y-10957929D01*
X16786214Y-10943643D01*
X16800500Y-10915072D01*
X16800500Y-10843643D01*
X16786214Y-10815072D01*
X16771928Y-10800786D01*
X16743357Y-10786500D01*
X16686214Y-10786500D01*
X16657643Y-10800786D01*
X16643357Y-10815072D01*
X16629071Y-10843643D01*
X16914786Y-10672214D02*
X16914786Y-10729357D01*
X17029071Y-10672214D02*
X17029071Y-10729357D01*
X17471928Y-11086500D02*
X17457643Y-11072214D01*
X17429071Y-11029357D01*
X17414786Y-11000786D01*
X17400500Y-10957929D01*
X17386214Y-10886500D01*
X17386214Y-10829357D01*
X17400500Y-10757929D01*
X17414786Y-10715072D01*
X17429071Y-10686500D01*
X17457643Y-10643643D01*
X17471928Y-10629357D01*
X17743357Y-10972214D02*
X17571928Y-10972214D01*
X17657643Y-10972214D02*
X17657643Y-10672214D01*
X17629071Y-10715072D01*
X17600500Y-10743643D01*
X17571928Y-10757929D01*
X17929071Y-10672214D02*
X17957643Y-10672214D01*
X17986214Y-10686500D01*
X18000500Y-10700786D01*
X18014786Y-10729357D01*
X18029071Y-10786500D01*
X18029071Y-10857929D01*
X18014786Y-10915072D01*
X18000500Y-10943643D01*
X17986214Y-10957929D01*
X17957643Y-10972214D01*
X17929071Y-10972214D01*
X17900500Y-10957929D01*
X17886214Y-10943643D01*
X17871928Y-10915072D01*
X17857643Y-10857929D01*
X17857643Y-10786500D01*
X17871928Y-10729357D01*
X17886214Y-10700786D01*
X17900500Y-10686500D01*
X17929071Y-10672214D01*
X18386214Y-10972214D02*
X18386214Y-10672214D01*
X18514786Y-10972214D02*
X18514786Y-10815072D01*
X18500500Y-10786500D01*
X18471928Y-10772214D01*
X18429071Y-10772214D01*
X18400500Y-10786500D01*
X18386214Y-10800786D01*
X18700500Y-10972214D02*
X18671928Y-10957929D01*
X18657643Y-10943643D01*
X18643357Y-10915072D01*
X18643357Y-10829357D01*
X18657643Y-10800786D01*
X18671928Y-10786500D01*
X18700500Y-10772214D01*
X18743357Y-10772214D01*
X18771928Y-10786500D01*
X18786214Y-10800786D01*
X18800500Y-10829357D01*
X18800500Y-10915072D01*
X18786214Y-10943643D01*
X18771928Y-10957929D01*
X18743357Y-10972214D01*
X18700500Y-10972214D01*
X18971928Y-10972214D02*
X18943357Y-10957929D01*
X18929071Y-10929357D01*
X18929071Y-10672214D01*
X19200500Y-10957929D02*
X19171928Y-10972214D01*
X19114786Y-10972214D01*
X19086214Y-10957929D01*
X19071928Y-10929357D01*
X19071928Y-10815072D01*
X19086214Y-10786500D01*
X19114786Y-10772214D01*
X19171928Y-10772214D01*
X19200500Y-10786500D01*
X19214786Y-10815072D01*
X19214786Y-10843643D01*
X19071928Y-10872214D01*
X19329071Y-10957929D02*
X19357643Y-10972214D01*
X19414786Y-10972214D01*
X19443357Y-10957929D01*
X19457643Y-10929357D01*
X19457643Y-10915072D01*
X19443357Y-10886500D01*
X19414786Y-10872214D01*
X19371928Y-10872214D01*
X19343357Y-10857929D01*
X19329071Y-10829357D01*
X19329071Y-10815072D01*
X19343357Y-10786500D01*
X19371928Y-10772214D01*
X19414786Y-10772214D01*
X19443357Y-10786500D01*
X19557643Y-11086500D02*
X19571928Y-11072214D01*
X19600500Y-11029357D01*
X19614786Y-11000786D01*
X19629071Y-10957929D01*
X19643357Y-10886500D01*
X19643357Y-10829357D01*
X19629071Y-10757929D01*
X19614786Y-10715072D01*
X19600500Y-10686500D01*
X19571928Y-10643643D01*
X19557643Y-10629357D01*
M02*
