solid OpenSCAD_Model
  facet normal -0.989788 -0.142546 -1.2121e-16
    outer loop
      vertex -19.5 3.5 15
      vertex -19.5 3.5 5
      vertex -19.216 1.528 15
    endloop
  endfacet
  facet normal -0.989788 -0.142546 -1.2121e-16
    outer loop
      vertex -19.216 1.528 15
      vertex -19.5 3.5 5
      vertex -19.5 3.5 -2.38798e-15
    endloop
  endfacet
  facet normal -0.989788 -0.142546 -1.2121e-16
    outer loop
      vertex -19.216 1.528 15
      vertex -19.5 3.5 -2.38798e-15
      vertex -19.216 1.528 -2.3532e-15
    endloop
  endfacet
  facet normal 0 1 0
    outer loop
      vertex -12.5 3.5 20
      vertex -6.2 3.5 20
      vertex -12.5 3.5 15
    endloop
  endfacet
  facet normal 0 1 0
    outer loop
      vertex -12.5 3.5 15
      vertex -6.2 3.5 20
      vertex -6.2 3.5 16
    endloop
  endfacet
  facet normal 0 1 0
    outer loop
      vertex -12.5 3.5 15
      vertex -6.2 3.5 16
      vertex 6.2 3.5 16
    endloop
  endfacet
  facet normal 0 1 0
    outer loop
      vertex 6.2 3.5 16
      vertex 6.2 3.5 20
      vertex 12.5 3.5 20
    endloop
  endfacet
  facet normal 0 1 0
    outer loop
      vertex 6.2 3.5 16
      vertex 12.5 3.5 20
      vertex 12.5 3.5 15
    endloop
  endfacet
  facet normal 0 1 0
    outer loop
      vertex 6.2 3.5 16
      vertex 12.5 3.5 15
      vertex -12.5 3.5 15
    endloop
  endfacet
  facet normal 0 1 0
    outer loop
      vertex 19.5 3.5 5
      vertex 19.5 3.5 15
      vertex 19.5 3.5 6.71785e-15
    endloop
  endfacet
  facet normal 0 1 0
    outer loop
      vertex 12.5 3.5 15
      vertex 19.5 3.5 15
      vertex 19.5 3.5 5
    endloop
  endfacet
  facet normal 0 1 0
    outer loop
      vertex -19.5 3.5 5
      vertex -12.5 3.5 15
      vertex 12.5 3.5 15
    endloop
  endfacet
  facet normal 0 1 0
    outer loop
      vertex -19.5 3.5 5
      vertex 12.5 3.5 15
      vertex 19.5 3.5 5
    endloop
  endfacet
  facet normal 0 1 0
    outer loop
      vertex -12.5 3.5 15
      vertex -19.5 3.5 5
      vertex -19.5 3.5 15
    endloop
  endfacet
  facet normal -1.22461e-16 0 1
    outer loop
      vertex -19.216 1.528 15
      vertex -18.389 -0.284 15
      vertex -17.084 -1.79 15
    endloop
  endfacet
  facet normal -1.22461e-16 0 1
    outer loop
      vertex -13.496 -3.429 15
      vertex -19.216 1.528 15
      vertex -15.408 -2.867 15
    endloop
  endfacet
  facet normal -1.22461e-16 0 1
    outer loop
      vertex -15.408 -2.867 15
      vertex -19.216 1.528 15
      vertex -17.084 -1.79 15
    endloop
  endfacet
  facet normal -1.22461e-16 0 1
    outer loop
      vertex -12.5 -3.429 15
      vertex -19.216 1.528 15
      vertex -13.496 -3.429 15
    endloop
  endfacet
  facet normal -1.22461e-16 0 1
    outer loop
      vertex -12.5 3.5 15
      vertex -19.216 1.528 15
      vertex -12.5 -3.429 15
    endloop
  endfacet
  facet normal -1.22461e-16 0 1
    outer loop
      vertex -19.5 3.5 15
      vertex -19.216 1.528 15
      vertex -12.5 3.5 15
    endloop
  endfacet
  facet normal -0.909729 -0.415202 -1.11406e-16
    outer loop
      vertex -19.216 1.528 15
      vertex -19.216 1.528 -2.3532e-15
      vertex -18.389 -0.284 15
    endloop
  endfacet
  facet normal -0.909729 -0.415202 -1.11406e-16
    outer loop
      vertex -18.389 -0.284 15
      vertex -19.216 1.528 -2.3532e-15
      vertex -18.389 -0.284 -2.25193e-15
    endloop
  endfacet
  facet normal 1.22461e-16 0 -1
    outer loop
      vertex -19.5 3.5 -2.38798e-15
      vertex 0 3.5 0
      vertex -19.216 1.528 -2.3532e-15
    endloop
  endfacet
  facet normal 1.22461e-16 0 -1
    outer loop
      vertex -19.216 1.528 -2.3532e-15
      vertex 0 3.5 0
      vertex 19.5 3.5 2.38798e-15
    endloop
  endfacet
  facet normal 1.22461e-16 0 -1
    outer loop
      vertex -19.216 1.528 -2.3532e-15
      vertex 19.5 3.5 2.38798e-15
      vertex 19.216 1.528 2.3532e-15
    endloop
  endfacet
  facet normal 1.22461e-16 0 -1
    outer loop
      vertex 0.875 1.51554 1.07153e-16
      vertex 19.216 1.528 2.3532e-15
      vertex 18.389 -0.284 2.25193e-15
    endloop
  endfacet
  facet normal 1.22461e-16 0 -1
    outer loop
      vertex 0.875 -1.51554 1.07153e-16
      vertex 15.408 -2.867 1.88687e-15
      vertex 13.496 -3.429 1.65273e-15
    endloop
  endfacet
  facet normal 1.22461e-16 0 -1
    outer loop
      vertex 1.75 0 2.14306e-16
      vertex 15.408 -2.867 1.88687e-15
      vertex 0.875 -1.51554 1.07153e-16
    endloop
  endfacet
  facet normal 1.22461e-16 0 -1
    outer loop
      vertex 1.75 0 2.14306e-16
      vertex 17.084 -1.79 2.09212e-15
      vertex 15.408 -2.867 1.88687e-15
    endloop
  endfacet
  facet normal 1.22461e-16 0 -1
    outer loop
      vertex -12.5 -3.429 -1.53076e-15
      vertex 12.5 -3.5 1.53076e-15
      vertex -12.5 -3.5 -1.53076e-15
    endloop
  endfacet
  facet normal 1.22461e-16 0 -1
    outer loop
      vertex -0.875 -1.51554 -1.07153e-16
      vertex 12.5 -3.5 1.53076e-15
      vertex -12.5 -3.429 -1.53076e-15
    endloop
  endfacet
  facet normal 1.22461e-16 0 -1
    outer loop
      vertex -1.75 0 -2.14306e-16
      vertex -19.216 1.528 -2.3532e-15
      vertex -0.875 1.51554 -1.07153e-16
    endloop
  endfacet
  facet normal 1.22461e-16 0 -1
    outer loop
      vertex -19.216 1.528 -2.3532e-15
      vertex -13.496 -3.429 -1.65273e-15
      vertex -15.408 -2.867 -1.88687e-15
    endloop
  endfacet
  facet normal 1.22461e-16 0 -1
    outer loop
      vertex -19.216 1.528 -2.3532e-15
      vertex -15.408 -2.867 -1.88687e-15
      vertex -17.084 -1.79 -2.09212e-15
    endloop
  endfacet
  facet normal 1.22461e-16 0 -1
    outer loop
      vertex -19.216 1.528 -2.3532e-15
      vertex -17.084 -1.79 -2.09212e-15
      vertex -18.389 -0.284 -2.25193e-15
    endloop
  endfacet
  facet normal 1.22461e-16 0 -1
    outer loop
      vertex 0.875 1.51554 1.07153e-16
      vertex 18.389 -0.284 2.25193e-15
      vertex 1.75 0 2.14306e-16
    endloop
  endfacet
  facet normal 1.22461e-16 0 -1
    outer loop
      vertex 1.75 0 2.14306e-16
      vertex 18.389 -0.284 2.25193e-15
      vertex 17.084 -1.79 2.09212e-15
    endloop
  endfacet
  facet normal 1.22461e-16 0 -1
    outer loop
      vertex -19.216 1.528 -2.3532e-15
      vertex -0.875 -1.51554 -1.07153e-16
      vertex -12.5 -3.429 -1.53076e-15
    endloop
  endfacet
  facet normal 1.22461e-16 0 -1
    outer loop
      vertex -0.875 -1.51554 -1.07153e-16
      vertex -19.216 1.528 -2.3532e-15
      vertex -1.75 0 -2.14306e-16
    endloop
  endfacet
  facet normal 1.22461e-16 0 -1
    outer loop
      vertex -19.216 1.528 -2.3532e-15
      vertex 19.216 1.528 2.3532e-15
      vertex 0.875 1.51554 1.07153e-16
    endloop
  endfacet
  facet normal 1.22461e-16 0 -1
    outer loop
      vertex -19.216 1.528 -2.3532e-15
      vertex 0.875 1.51554 1.07153e-16
      vertex -0.875 1.51554 -1.07153e-16
    endloop
  endfacet
  facet normal 1.22461e-16 0 -1
    outer loop
      vertex -13.496 -3.429 -1.65273e-15
      vertex -19.216 1.528 -2.3532e-15
      vertex -12.5 -3.429 -1.53076e-15
    endloop
  endfacet
  facet normal 1.22461e-16 0 -1
    outer loop
      vertex 0.875 -1.51554 1.07153e-16
      vertex 13.496 -3.429 1.65273e-15
      vertex 12.5 -3.429 1.53076e-15
    endloop
  endfacet
  facet normal 1.22461e-16 0 -1
    outer loop
      vertex 0.875 -1.51554 1.07153e-16
      vertex 12.5 -3.429 1.53076e-15
      vertex 12.5 -3.5 1.53076e-15
    endloop
  endfacet
  facet normal 1.22461e-16 0 -1
    outer loop
      vertex 0.875 -1.51554 1.07153e-16
      vertex 12.5 -3.5 1.53076e-15
      vertex -0.875 -1.51554 -1.07153e-16
    endloop
  endfacet
  facet normal 0 -1 0
    outer loop
      vertex -19.5 3.5 -2.38798e-15
      vertex -19.5 3.5 5
      vertex -19.5 3.5 -4.32987e-15
    endloop
  endfacet
  facet normal 0 -1 0
    outer loop
      vertex 0 3.5 0
      vertex -19.5 3.5 -2.38798e-15
      vertex -19.5 3.5 -4.32987e-15
    endloop
  endfacet
  facet normal -1.57009e-16 0.707107 0.707107
    outer loop
      vertex -19.5 8.5 -4.32987e-15
      vertex -19.5 3.5 5
      vertex 19.5 3.5 5
    endloop
  endfacet
  facet normal -1.57009e-16 0.707107 0.707107
    outer loop
      vertex -19.5 8.5 -4.32987e-15
      vertex 19.5 3.5 5
      vertex 19.5 8.5 4.32987e-15
    endloop
  endfacet
  facet normal -1 0 -1.22461e-16
    outer loop
      vertex -12.5 -3.5 20
      vertex -12.5 3.5 20
      vertex -12.5 -3.5 15
    endloop
  endfacet
  facet normal -1 0 -1.22461e-16
    outer loop
      vertex -12.5 -3.429 15
      vertex -12.5 3.5 20
      vertex -12.5 3.5 15
    endloop
  endfacet
  facet normal -1 0 -1.22461e-16
    outer loop
      vertex -12.5 -3.5 15
      vertex -12.5 3.5 20
      vertex -12.5 -3.429 15
    endloop
  endfacet
  facet normal 1 0 2.22045e-16
    outer loop
      vertex 19.5 8.5 4.32987e-15
      vertex 19.5 3.5 5
      vertex 19.5 3.5 6.71785e-15
    endloop
  endfacet
  facet normal 1 0 2.22045e-16
    outer loop
      vertex 19.5 3.5 4.32987e-15
      vertex 19.5 8.5 4.32987e-15
      vertex 19.5 3.5 6.71785e-15
    endloop
  endfacet
  facet normal 0.989788 -0.142546 1.2121e-16
    outer loop
      vertex 19.5 3.5 15
      vertex 19.216 1.528 15
      vertex 19.216 1.528 2.3532e-15
    endloop
  endfacet
  facet normal 0.989788 -0.142546 1.2121e-16
    outer loop
      vertex 19.5 3.5 6.71785e-15
      vertex 19.5 3.5 15
      vertex 19.216 1.528 2.3532e-15
    endloop
  endfacet
  facet normal 0.989788 -0.142546 1.2121e-16
    outer loop
      vertex 19.5 3.5 2.38798e-15
      vertex 19.5 3.5 4.32987e-15
      vertex 19.216 1.528 2.3532e-15
    endloop
  endfacet
  facet normal 0.989788 -0.142546 1.2121e-16
    outer loop
      vertex 19.5 3.5 4.32987e-15
      vertex 19.5 3.5 6.71785e-15
      vertex 19.216 1.528 2.3532e-15
    endloop
  endfacet
  facet normal -1.22461e-16 0 1
    outer loop
      vertex 13.496 -3.429 15
      vertex 15.408 -2.867 15
      vertex 17.084 -1.79 15
    endloop
  endfacet
  facet normal -1.22461e-16 0 1
    outer loop
      vertex 19.216 1.528 15
      vertex 13.496 -3.429 15
      vertex 18.389 -0.284 15
    endloop
  endfacet
  facet normal -1.22461e-16 0 1
    outer loop
      vertex 18.389 -0.284 15
      vertex 13.496 -3.429 15
      vertex 17.084 -1.79 15
    endloop
  endfacet
  facet normal -1.22461e-16 0 1
    outer loop
      vertex 19.5 3.5 15
      vertex 13.496 -3.429 15
      vertex 19.216 1.528 15
    endloop
  endfacet
  facet normal -1.22461e-16 0 1
    outer loop
      vertex 12.5 3.5 15
      vertex 13.496 -3.429 15
      vertex 19.5 3.5 15
    endloop
  endfacet
  facet normal -1.22461e-16 0 1
    outer loop
      vertex 12.5 -3.429 15
      vertex 13.496 -3.429 15
      vertex 12.5 3.5 15
    endloop
  endfacet
  facet normal 1 0 1.22461e-16
    outer loop
      vertex 12.5 3.5 20
      vertex 12.5 -3.5 20
      vertex 12.5 -3.5 15
    endloop
  endfacet
  facet normal 1 0 1.22461e-16
    outer loop
      vertex 12.5 3.5 15
      vertex 12.5 3.5 20
      vertex 12.5 -3.429 15
    endloop
  endfacet
  facet normal 1 0 1.22461e-16
    outer loop
      vertex 12.5 -3.429 15
      vertex 12.5 3.5 20
      vertex 12.5 -3.5 15
    endloop
  endfacet
  facet normal -1.22461e-16 0 1
    outer loop
      vertex 6.2 3.5 20
      vertex 6.2 -3.5 20
      vertex 12.5 -3.5 20
    endloop
  endfacet
  facet normal -1.22461e-16 0 1
    outer loop
      vertex 12.5 3.5 20
      vertex 6.2 3.5 20
      vertex 12.5 -3.5 20
    endloop
  endfacet
  facet normal -1 0 -1.22461e-16
    outer loop
      vertex 6.2 3.5 16
      vertex 6.2 -3.5 16
      vertex 6.2 3.5 20
    endloop
  endfacet
  facet normal -1 0 -1.22461e-16
    outer loop
      vertex 6.2 3.5 20
      vertex 6.2 -3.5 16
      vertex 6.2 -3.5 20
    endloop
  endfacet
  facet normal -1.22461e-16 0 1
    outer loop
      vertex -0.875 1.51554 16
      vertex 6.2 3.5 16
      vertex -6.2 3.5 16
    endloop
  endfacet
  facet normal -1.22461e-16 0 1
    outer loop
      vertex -6.2 -3.5 16
      vertex -1.75 0 16
      vertex -6.2 3.5 16
    endloop
  endfacet
  facet normal -1.22461e-16 0 1
    outer loop
      vertex 0.875 1.51554 16
      vertex 6.2 3.5 16
      vertex -0.875 1.51554 16
    endloop
  endfacet
  facet normal -1.22461e-16 0 1
    outer loop
      vertex 6.2 -3.5 16
      vertex 6.2 3.5 16
      vertex 0.875 1.51554 16
    endloop
  endfacet
  facet normal -1.22461e-16 0 1
    outer loop
      vertex 6.2 -3.5 16
      vertex 0.875 1.51554 16
      vertex 1.75 0 16
    endloop
  endfacet
  facet normal -1.22461e-16 0 1
    outer loop
      vertex -6.2 -3.5 16
      vertex 6.2 -3.5 16
      vertex 0.875 -1.51554 16
    endloop
  endfacet
  facet normal -1.22461e-16 0 1
    outer loop
      vertex -6.2 -3.5 16
      vertex -0.875 -1.51554 16
      vertex -1.75 0 16
    endloop
  endfacet
  facet normal -1.22461e-16 0 1
    outer loop
      vertex -6.2 -3.5 16
      vertex 0.875 -1.51554 16
      vertex -0.875 -1.51554 16
    endloop
  endfacet
  facet normal -1.22461e-16 0 1
    outer loop
      vertex -1.75 0 16
      vertex -0.875 1.51554 16
      vertex -6.2 3.5 16
    endloop
  endfacet
  facet normal -1.22461e-16 0 1
    outer loop
      vertex 1.75 0 16
      vertex 0.875 -1.51554 16
      vertex 6.2 -3.5 16
    endloop
  endfacet
  facet normal 1 0 1.22461e-16
    outer loop
      vertex -6.2 -3.5 16
      vertex -6.2 3.5 16
      vertex -6.2 3.5 20
    endloop
  endfacet
  facet normal 1 0 1.22461e-16
    outer loop
      vertex -6.2 -3.5 20
      vertex -6.2 -3.5 16
      vertex -6.2 3.5 20
    endloop
  endfacet
  facet normal -1.22461e-16 0 1
    outer loop
      vertex -12.5 3.5 20
      vertex -12.5 -3.5 20
      vertex -6.2 -3.5 20
    endloop
  endfacet
  facet normal -1.22461e-16 0 1
    outer loop
      vertex -6.2 3.5 20
      vertex -12.5 3.5 20
      vertex -6.2 -3.5 20
    endloop
  endfacet
  facet normal -1 0 -1.22461e-16
    outer loop
      vertex -12.5 -3.5 15
      vertex -12.5 -3.429 15
      vertex -12.5 -3.5 -1.53076e-15
    endloop
  endfacet
  facet normal -1 0 -1.22461e-16
    outer loop
      vertex -12.5 -3.5 -1.53076e-15
      vertex -12.5 -3.429 15
      vertex -12.5 -3.429 -1.53076e-15
    endloop
  endfacet
  facet normal 0 -1 0
    outer loop
      vertex -12.5 -3.429 15
      vertex -13.496 -3.429 15
      vertex -13.496 -3.429 -1.65273e-15
    endloop
  endfacet
  facet normal 0 -1 0
    outer loop
      vertex -12.5 -3.429 -1.53076e-15
      vertex -12.5 -3.429 15
      vertex -13.496 -3.429 -1.65273e-15
    endloop
  endfacet
  facet normal -0.282003 -0.959413 -3.45343e-17
    outer loop
      vertex -13.496 -3.429 15
      vertex -15.408 -2.867 15
      vertex -15.408 -2.867 -1.88687e-15
    endloop
  endfacet
  facet normal -0.282003 -0.959413 -3.45343e-17
    outer loop
      vertex -13.496 -3.429 -1.65273e-15
      vertex -13.496 -3.429 15
      vertex -15.408 -2.867 -1.88687e-15
    endloop
  endfacet
  facet normal -0.540605 -0.841276 -6.62029e-17
    outer loop
      vertex -15.408 -2.867 15
      vertex -17.084 -1.79 15
      vertex -17.084 -1.79 -2.09212e-15
    endloop
  endfacet
  facet normal -0.540605 -0.841276 -6.62029e-17
    outer loop
      vertex -15.408 -2.867 -1.88687e-15
      vertex -15.408 -2.867 15
      vertex -17.084 -1.79 -2.09212e-15
    endloop
  endfacet
  facet normal -0.755739 -0.654873 -9.25482e-17
    outer loop
      vertex -18.389 -0.284 15
      vertex -18.389 -0.284 -2.25193e-15
      vertex -17.084 -1.79 15
    endloop
  endfacet
  facet normal -0.755739 -0.654873 -9.25482e-17
    outer loop
      vertex -17.084 -1.79 15
      vertex -18.389 -0.284 -2.25193e-15
      vertex -17.084 -1.79 -2.09212e-15
    endloop
  endfacet
  facet normal 0 -1 0
    outer loop
      vertex -6.2 -3.5 20
      vertex -12.5 -3.5 20
      vertex -12.5 -3.5 15
    endloop
  endfacet
  facet normal 0 -1 0
    outer loop
      vertex -6.2 -3.5 16
      vertex -6.2 -3.5 20
      vertex -12.5 -3.5 -1.53076e-15
    endloop
  endfacet
  facet normal 0 -1 0
    outer loop
      vertex -12.5 -3.5 -1.53076e-15
      vertex -6.2 -3.5 20
      vertex -12.5 -3.5 15
    endloop
  endfacet
  facet normal 0 -1 0
    outer loop
      vertex 6.2 -3.5 16
      vertex -6.2 -3.5 16
      vertex 12.5 -3.5 1.53076e-15
    endloop
  endfacet
  facet normal 0 -1 0
    outer loop
      vertex 12.5 -3.5 20
      vertex 6.2 -3.5 20
      vertex 12.5 -3.5 15
    endloop
  endfacet
  facet normal 0 -1 0
    outer loop
      vertex 12.5 -3.5 15
      vertex 6.2 -3.5 16
      vertex 12.5 -3.5 1.53076e-15
    endloop
  endfacet
  facet normal 0 -1 0
    outer loop
      vertex 12.5 -3.5 1.53076e-15
      vertex -6.2 -3.5 16
      vertex -12.5 -3.5 -1.53076e-15
    endloop
  endfacet
  facet normal 0 -1 0
    outer loop
      vertex 6.2 -3.5 20
      vertex 6.2 -3.5 16
      vertex 12.5 -3.5 15
    endloop
  endfacet
  facet normal 1 0 1.22461e-16
    outer loop
      vertex 12.5 -3.429 15
      vertex 12.5 -3.5 15
      vertex 12.5 -3.5 1.53076e-15
    endloop
  endfacet
  facet normal 1 0 1.22461e-16
    outer loop
      vertex 12.5 -3.429 1.53076e-15
      vertex 12.5 -3.429 15
      vertex 12.5 -3.5 1.53076e-15
    endloop
  endfacet
  facet normal 0 -1 0
    outer loop
      vertex 13.496 -3.429 15
      vertex 12.5 -3.429 15
      vertex 12.5 -3.429 1.53076e-15
    endloop
  endfacet
  facet normal 0 -1 0
    outer loop
      vertex 13.496 -3.429 1.65273e-15
      vertex 13.496 -3.429 15
      vertex 12.5 -3.429 1.53076e-15
    endloop
  endfacet
  facet normal 0.282003 -0.959413 3.45343e-17
    outer loop
      vertex 15.408 -2.867 15
      vertex 13.496 -3.429 15
      vertex 13.496 -3.429 1.65273e-15
    endloop
  endfacet
  facet normal 0.282003 -0.959413 3.45343e-17
    outer loop
      vertex 15.408 -2.867 1.88687e-15
      vertex 15.408 -2.867 15
      vertex 13.496 -3.429 1.65273e-15
    endloop
  endfacet
  facet normal 0.540605 -0.841276 6.62029e-17
    outer loop
      vertex 17.084 -1.79 15
      vertex 15.408 -2.867 15
      vertex 15.408 -2.867 1.88687e-15
    endloop
  endfacet
  facet normal 0.540605 -0.841276 6.62029e-17
    outer loop
      vertex 17.084 -1.79 2.09212e-15
      vertex 17.084 -1.79 15
      vertex 15.408 -2.867 1.88687e-15
    endloop
  endfacet
  facet normal 0.755739 -0.654873 9.25482e-17
    outer loop
      vertex 18.389 -0.284 15
      vertex 17.084 -1.79 15
      vertex 17.084 -1.79 2.09212e-15
    endloop
  endfacet
  facet normal 0.755739 -0.654873 9.25482e-17
    outer loop
      vertex 18.389 -0.284 2.25193e-15
      vertex 18.389 -0.284 15
      vertex 17.084 -1.79 2.09212e-15
    endloop
  endfacet
  facet normal 0.909729 -0.415202 1.11406e-16
    outer loop
      vertex 19.216 1.528 15
      vertex 18.389 -0.284 15
      vertex 18.389 -0.284 2.25193e-15
    endloop
  endfacet
  facet normal 0.909729 -0.415202 1.11406e-16
    outer loop
      vertex 19.216 1.528 2.3532e-15
      vertex 19.216 1.528 15
      vertex 18.389 -0.284 2.25193e-15
    endloop
  endfacet
  facet normal 0 1 0
    outer loop
      vertex 19.5 3.5 4.32987e-15
      vertex 19.5 3.5 2.38798e-15
      vertex 0 3.5 0
    endloop
  endfacet
  facet normal 2.22045e-16 0 -1
    outer loop
      vertex -19.5 3.5 -4.32987e-15
      vertex -19.5 8.5 -4.32987e-15
      vertex 0 3.5 0
    endloop
  endfacet
  facet normal 2.22045e-16 0 -1
    outer loop
      vertex 0 3.5 0
      vertex -19.5 8.5 -4.32987e-15
      vertex 19.5 8.5 4.32987e-15
    endloop
  endfacet
  facet normal 2.22045e-16 0 -1
    outer loop
      vertex 0 3.5 0
      vertex 19.5 8.5 4.32987e-15
      vertex 19.5 3.5 4.32987e-15
    endloop
  endfacet
  facet normal 0.866025 0.5 1.06054e-16
    outer loop
      vertex -0.875 -1.51554 16
      vertex -0.875 -1.51554 -1.07153e-16
      vertex -1.75 0 -2.14306e-16
    endloop
  endfacet
  facet normal 0.866025 0.5 1.06054e-16
    outer loop
      vertex -1.75 0 16
      vertex -0.875 -1.51554 16
      vertex -1.75 0 -2.14306e-16
    endloop
  endfacet
  facet normal 0.866025 -0.5 1.06054e-16
    outer loop
      vertex -1.75 0 -2.14306e-16
      vertex -0.875 1.51554 -1.07153e-16
      vertex -0.875 1.51554 16
    endloop
  endfacet
  facet normal 0.866025 -0.5 1.06054e-16
    outer loop
      vertex -1.75 0 16
      vertex -1.75 0 -2.14306e-16
      vertex -0.875 1.51554 16
    endloop
  endfacet
  facet normal 0 -1 0
    outer loop
      vertex -0.875 1.51554 -1.07153e-16
      vertex 0.875 1.51554 1.07153e-16
      vertex 0.875 1.51554 16
    endloop
  endfacet
  facet normal 0 -1 0
    outer loop
      vertex -0.875 1.51554 16
      vertex -0.875 1.51554 -1.07153e-16
      vertex 0.875 1.51554 16
    endloop
  endfacet
  facet normal -0.866025 -0.5 -1.06054e-16
    outer loop
      vertex 1.75 0 2.14306e-16
      vertex 1.75 0 16
      vertex 0.875 1.51554 1.07153e-16
    endloop
  endfacet
  facet normal -0.866025 -0.5 -1.06054e-16
    outer loop
      vertex 0.875 1.51554 1.07153e-16
      vertex 1.75 0 16
      vertex 0.875 1.51554 16
    endloop
  endfacet
  facet normal -0.866025 0.5 -1.06054e-16
    outer loop
      vertex 1.75 0 2.14306e-16
      vertex 0.875 -1.51554 1.07153e-16
      vertex 1.75 0 16
    endloop
  endfacet
  facet normal -0.866025 0.5 -1.06054e-16
    outer loop
      vertex 1.75 0 16
      vertex 0.875 -1.51554 1.07153e-16
      vertex 0.875 -1.51554 16
    endloop
  endfacet
  facet normal 0 1 0
    outer loop
      vertex 0.875 -1.51554 1.07153e-16
      vertex -0.875 -1.51554 -1.07153e-16
      vertex 0.875 -1.51554 16
    endloop
  endfacet
  facet normal 0 1 0
    outer loop
      vertex 0.875 -1.51554 16
      vertex -0.875 -1.51554 -1.07153e-16
      vertex -0.875 -1.51554 16
    endloop
  endfacet
  facet normal -1 0 -2.22045e-16
    outer loop
      vertex -19.5 3.5 -4.32987e-15
      vertex -19.5 3.5 5
      vertex -19.5 8.5 -4.32987e-15
    endloop
  endfacet
endsolid OpenSCAD_Model
