solid Support piece2
facet normal -0.30822553485592685 -0.9513133130902657 -2.250590643986909e-16
  outer loop
    vertex 6.40249584679032 16.896180699861226 6.830322184002056
    vertex 5.8809763684534815 17.065153022582102 0.0
    vertex 6.402495846790321 16.896180699861226 0.0
  endloop
endfacet
facet normal -0.30822553485592685 -0.9513133130902657 -2.250590643986909e-16
  outer loop
    vertex 5.8809763684534815 17.065153022582102 0.0
    vertex 6.40249584679032 16.896180699861226 6.830322184002056
    vertex 5.8809763684534815 17.065153022582102 7.332877317672097
  endloop
endfacet
facet normal 0.4547317288876977 -0.8906284605506415 2.364715768034441e-17
  outer loop
    vertex 4.797358702031207 16.978963164485055 7.022909294684618
    vertex 4.309107267149585 16.729674680060985 0.0
    vertex 4.797358702031207 16.978963164485055 0.0
  endloop
endfacet
facet normal 0.4547317288876977 -0.8906284605506415 2.364715768034441e-17
  outer loop
    vertex 4.309107267149585 16.729674680060985 0.0
    vertex 4.797358702031207 16.978963164485055 7.022909294684618
    vertex 4.309107267149585 16.729674680060985 6.552412457435055
  endloop
endfacet
facet normal -0.05150500115175329 -0.9986727366141311 -1.3030013661270342e-16
  outer loop
    vertex 5.8809763684534815 17.065153022582102 7.332877317672097
    vertex 5.5 17.0848012893031 0.0
    vertex 5.8809763684534815 17.065153022582102 0.0
  endloop
endfacet
facet normal -0.05150500115175329 -0.9986727366141311 -1.3030013661270342e-16
  outer loop
    vertex 5.5 17.0848012893031 0.0
    vertex 5.8809763684534815 17.065153022582102 7.332877317672097
    vertex 5.333493980199757 17.093388579640745 0.0
  endloop
endfacet
facet normal -0.05150500115175329 -0.9986727366141311 -1.3030013661270342e-16
  outer loop
    vertex 5.333493980199757 17.093388579640745 0.0
    vertex 5.8809763684534815 17.065153022582102 7.332877317672097
    vertex 5.333493980199754 17.093388579640745 7.539548744556127
  endloop
endfacet
facet normal -0.05150500115175329 -0.9986727366141311 -1.3030013661270342e-16
  outer loop
    vertex 5.333493980199754 17.093388579640745 7.539548744556127
    vertex 5.8809763684534815 17.065153022582102 7.332877317672097
    vertex 5.5 17.0848012893031 7.7
  endloop
endfacet
facet normal 0.20872551326486366 -0.977974263522471 4.1222571159214146e-17
  outer loop
    vertex 5.333493980199754 17.093388579640745 7.539548744556127
    vertex 4.797358702031207 16.978963164485055 0.0
    vertex 5.333493980199757 17.093388579640745 0.0
  endloop
endfacet
facet normal 0.20872551326486366 -0.977974263522471 4.1222571159214146e-17
  outer loop
    vertex 4.797358702031207 16.978963164485055 0.0
    vertex 5.333493980199754 17.093388579640745 7.539548744556127
    vertex 4.797358702031207 16.978963164485055 7.022909294684618
  endloop
endfacet
facet normal 3.0763270718704336e-15 -1.3535839116229897e-15 -1.0
  outer loop
    vertex 0.0 25.000000000000004 0.0
    vertex 3.4348469774179007 15.380976368453478 0.0
    vertex 3.4066114203592623 14.833493980199759 0.0
  endloop
endfacet
facet normal 3.0763270718704336e-15 -1.3535839116229897e-15 -1.0
  outer loop
    vertex 3.4348469774179007 15.380976368453478 0.0
    vertex 0.0 25.000000000000004 0.0
    vertex 3.6038193001387757 15.90249584679032 0.0
  endloop
endfacet
facet normal 3.0763270718704336e-15 -1.3535839116229897e-15 -1.0
  outer loop
    vertex 3.6038193001387757 15.90249584679032 0.0
    vertex 0.0 25.000000000000004 0.0
    vertex 3.9020132039684268 16.36251172461332 0.0
  endloop
endfacet
facet normal 3.0763270718704336e-15 -1.3535839116229897e-15 -1.0
  outer loop
    vertex 3.9020132039684268 16.36251172461332 0.0
    vertex 0.0 25.000000000000004 0.0
    vertex 11.0 25.000000000000004 0.0
  endloop
endfacet
facet normal 3.0763270718704336e-15 -1.3535839116229897e-15 -1.0
  outer loop
    vertex 3.9020132039684268 16.36251172461332 0.0
    vertex 11.0 25.000000000000004 0.0
    vertex 4.309107267149585 16.729674680060985 0.0
  endloop
endfacet
facet normal 3.0763270718704336e-15 -1.3535839116229897e-15 -1.0
  outer loop
    vertex 4.309107267149585 16.729674680060985 0.0
    vertex 11.0 25.000000000000004 0.0
    vertex 4.797358702031207 16.978963164485055 0.0
  endloop
endfacet
facet normal 3.0763270718704336e-15 -1.3535839116229897e-15 -1.0
  outer loop
    vertex 4.797358702031207 16.978963164485055 0.0
    vertex 11.0 25.000000000000004 0.0
    vertex 5.333493980199757 17.093388579640745 0.0
  endloop
endfacet
facet normal 3.0763270718704336e-15 -1.3535839116229897e-15 -1.0
  outer loop
    vertex 5.333493980199757 17.093388579640745 0.0
    vertex 11.0 25.000000000000004 0.0
    vertex 5.5 17.0848012893031 0.0
  endloop
endfacet
facet normal 3.0763270718704336e-15 -1.3535839116229897e-15 -1.0
  outer loop
    vertex 5.5 17.0848012893031 0.0
    vertex 11.0 25.000000000000004 0.0
    vertex 5.8809763684534815 17.065153022582102 0.0
  endloop
endfacet
facet normal 3.0763270718704336e-15 -1.3535839116229897e-15 -1.0
  outer loop
    vertex 5.8809763684534815 17.065153022582102 0.0
    vertex 11.0 25.000000000000004 0.0
    vertex 6.402495846790321 16.896180699861226 0.0
  endloop
endfacet
facet normal 3.0763270718704336e-15 -1.3535839116229897e-15 -1.0
  outer loop
    vertex 6.402495846790321 16.896180699861226 0.0
    vertex 11.0 25.000000000000004 0.0
    vertex 6.862511724613303 16.597986796031577 0.0
  endloop
endfacet
facet normal 3.0763270718704336e-15 -1.3535839116229897e-15 -1.0
  outer loop
    vertex 6.862511724613303 16.597986796031577 0.0
    vertex 11.0 25.000000000000004 0.0
    vertex 7.229674680060975 16.190892732850426 0.0
  endloop
endfacet
facet normal 3.0763270718704336e-15 -1.3535839116229897e-15 -1.0
  outer loop
    vertex 7.229674680060975 16.190892732850426 0.0
    vertex 11.0 25.000000000000004 0.0
    vertex 7.478963164485054 15.7026412979688 0.0
  endloop
endfacet
facet normal 3.0763270718704336e-15 -1.3535839116229897e-15 -1.0
  outer loop
    vertex 7.478963164485054 15.7026412979688 0.0
    vertex 11.0 25.000000000000004 0.0
    vertex 7.5933885796407345 15.166506019800254 0.0
  endloop
endfacet
facet normal 3.0763270718704336e-15 -1.3535839116229897e-15 -1.0
  outer loop
    vertex -2.3259172365896548e-15 0.0 0.0
    vertex 3.7703253199390216 13.809107267149587 0.0
    vertex 11.000000000000014 0.0 6.767919558114953e-14
  endloop
endfacet
facet normal 3.0763270718704336e-15 -1.3535839116229897e-15 -1.0
  outer loop
    vertex 3.7703253199390216 13.809107267149587 0.0
    vertex -2.3259172365896548e-15 0.0 0.0
    vertex 3.5210368355149395 14.297358702031213 0.0
  endloop
endfacet
facet normal 3.0763270718704336e-15 -1.3535839116229897e-15 -1.0
  outer loop
    vertex 3.5210368355149395 14.297358702031213 0.0
    vertex -2.3259172365896548e-15 0.0 0.0
    vertex 0.0 25.000000000000004 0.0
  endloop
endfacet
facet normal 3.0763270718704336e-15 -1.3535839116229897e-15 -1.0
  outer loop
    vertex 3.5210368355149395 14.297358702031213 0.0
    vertex 0.0 25.000000000000004 0.0
    vertex 3.4066114203592623 14.833493980199759 0.0
  endloop
endfacet
facet normal 3.0763270718704336e-15 -1.3535839116229897e-15 -1.0
  outer loop
    vertex 11.000000000000014 0.0 6.767919558114953e-14
    vertex 3.7703253199390216 13.809107267149587 0.0
    vertex 4.137488275386696 13.402013203968423 0.0
  endloop
endfacet
facet normal 3.0763270718704336e-15 -1.3535839116229897e-15 -1.0
  outer loop
    vertex 11.000000000000014 0.0 6.767919558114953e-14
    vertex 4.137488275386696 13.402013203968423 0.0
    vertex 4.59750415320968 13.103819300138777 0.0
  endloop
endfacet
facet normal 3.0763270718704336e-15 -1.3535839116229897e-15 -1.0
  outer loop
    vertex 11.000000000000014 0.0 6.767919558114953e-14
    vertex 4.59750415320968 13.103819300138777 0.0
    vertex 5.119023631546519 12.9348469774179 0.0
  endloop
endfacet
facet normal 3.0763270718704336e-15 -1.3535839116229897e-15 -1.0
  outer loop
    vertex 11.000000000000014 0.0 6.767919558114953e-14
    vertex 5.119023631546519 12.9348469774179 0.0
    vertex 5.666506019800248 12.906611420359262 0.0
  endloop
endfacet
facet normal 3.0763270718704336e-15 -1.3535839116229897e-15 -1.0
  outer loop
    vertex 11.000000000000014 0.0 6.767919558114953e-14
    vertex 5.666506019800248 12.906611420359262 0.0
    vertex 6.202641297968797 13.021036835514947 0.0
  endloop
endfacet
facet normal 3.0763270718704336e-15 -1.3535839116229897e-15 -1.0
  outer loop
    vertex 11.000000000000014 0.0 6.767919558114953e-14
    vertex 6.202641297968797 13.021036835514947 0.0
    vertex 6.690892732850417 13.270325319939024 0.0
  endloop
endfacet
facet normal 3.0763270718704336e-15 -1.3535839116229897e-15 -1.0
  outer loop
    vertex 11.000000000000014 0.0 6.767919558114953e-14
    vertex 6.690892732850417 13.270325319939024 0.0
    vertex 7.097986796031577 13.6374882753867 0.0
  endloop
endfacet
facet normal 3.0763270718704336e-15 -1.3535839116229897e-15 -1.0
  outer loop
    vertex 11.000000000000014 0.0 6.767919558114953e-14
    vertex 7.097986796031577 13.6374882753867 0.0
    vertex 7.396180699861225 14.09750415320968 0.0
  endloop
endfacet
facet normal 3.0763270718704336e-15 -1.3535839116229897e-15 -1.0
  outer loop
    vertex 11.000000000000014 0.0 6.767919558114953e-14
    vertex 7.396180699861225 14.09750415320968 0.0
    vertex 7.5651530225820975 14.619023631546524 0.0
  endloop
endfacet
facet normal 3.0763270718704336e-15 -1.3535839116229897e-15 -1.0
  outer loop
    vertex 11.000000000000014 0.0 6.767919558114953e-14
    vertex 7.5651530225820975 14.619023631546524 0.0
    vertex 7.5933885796407345 15.166506019800254 0.0
  endloop
endfacet
facet normal 3.0763270718704336e-15 -1.3535839116229897e-15 -1.0
  outer loop
    vertex 11.000000000000014 0.0 6.767919558114953e-14
    vertex 7.5933885796407345 15.166506019800254 0.0
    vertex 11.0 25.000000000000004 0.0
  endloop
endfacet
facet normal -0.6938932410409328 -2.0770958971426902e-18 0.720077891646251
  outer loop
    vertex 5.5 0.0 7.7
    vertex 0.0 25.000000000000004 2.4
    vertex 0.0 0.0 2.4
  endloop
endfacet
facet normal -0.6938932410409328 -2.0770958971426902e-18 0.720077891646251
  outer loop
    vertex 0.0 25.000000000000004 2.4
    vertex 5.5 0.0 7.7
    vertex 3.406611420359261 14.833493980199759 5.682734641437105
  endloop
endfacet
facet normal -0.6938932410409328 -2.0770958971426902e-18 0.720077891646251
  outer loop
    vertex 3.406611420359261 14.833493980199759 5.682734641437105
    vertex 5.5 0.0 7.7
    vertex 3.521036835514941 14.297358702031207 5.792999132405307
  endloop
endfacet
facet normal -0.6938932410409328 -2.0770958971426902e-18 0.720077891646251
  outer loop
    vertex 3.521036835514941 14.297358702031207 5.792999132405307
    vertex 5.5 0.0 7.7
    vertex 3.7703253199390216 13.809107267149587 6.033222581032149
  endloop
endfacet
facet normal -0.6938932410409328 -2.0770958971426902e-18 0.720077891646251
  outer loop
    vertex 3.7703253199390216 13.809107267149587 6.033222581032149
    vertex 5.5 0.0 7.7
    vertex 4.137488275386696 13.402013203968423 6.387034156281726
  endloop
endfacet
facet normal -0.6938932410409328 -2.0770958971426902e-18 0.720077891646251
  outer loop
    vertex 4.137488275386696 13.402013203968423 6.387034156281726
    vertex 5.5 0.0 7.7
    vertex 4.5975041532096785 13.103819300138777 6.830322184002055
  endloop
endfacet
facet normal -0.6938932410409328 -2.0770958971426902e-18 0.720077891646251
  outer loop
    vertex 4.5975041532096785 13.103819300138777 6.830322184002055
    vertex 5.5 0.0 7.7
    vertex 5.119023631546519 12.9348469774179 7.332877317672099
  endloop
endfacet
facet normal -0.6938932410409328 -2.0770958971426902e-18 0.720077891646251
  outer loop
    vertex 5.119023631546519 12.9348469774179 7.332877317672099
    vertex 5.5 0.0 7.7
    vertex 5.5 12.915198710696899 7.6999999999999975
  endloop
endfacet
facet normal -0.6938932410409328 -2.0770958971426902e-18 0.720077891646251
  outer loop
    vertex 0.0 25.000000000000004 2.4
    vertex 3.4348469774179007 15.380976368453489 5.709943450966341
    vertex 5.5 25.000000000000004 7.7
  endloop
endfacet
facet normal -0.6938932410409328 -2.0770958971426902e-18 0.720077891646251
  outer loop
    vertex 3.4348469774179007 15.380976368453489 5.709943450966341
    vertex 0.0 25.000000000000004 2.4
    vertex 3.406611420359261 14.833493980199759 5.682734641437105
  endloop
endfacet
facet normal -0.6938932410409328 -2.0770958971426902e-18 0.720077891646251
  outer loop
    vertex 5.5 25.000000000000004 7.7
    vertex 3.4348469774179007 15.380976368453489 5.709943450966341
    vertex 3.603819300138777 15.90249584679032 5.872771325588276
  endloop
endfacet
facet normal -0.6938932410409328 -2.0770958971426902e-18 0.720077891646251
  outer loop
    vertex 5.5 25.000000000000004 7.7
    vertex 3.603819300138777 15.90249584679032 5.872771325588276
    vertex 3.9020132039684254 16.362511724613306 6.160121814733211
  endloop
endfacet
facet normal -0.6938932410409328 -2.0770958971426902e-18 0.720077891646251
  outer loop
    vertex 5.5 25.000000000000004 7.7
    vertex 3.9020132039684254 16.362511724613306 6.160121814733211
    vertex 4.309107267149585 16.729674680060985 6.552412457435055
  endloop
endfacet
facet normal -0.6938932410409328 -2.0770958971426902e-18 0.720077891646251
  outer loop
    vertex 5.5 25.000000000000004 7.7
    vertex 4.309107267149585 16.729674680060985 6.552412457435055
    vertex 4.797358702031207 16.978963164485055 7.022909294684618
  endloop
endfacet
facet normal -0.6938932410409328 -2.0770958971426902e-18 0.720077891646251
  outer loop
    vertex 5.5 25.000000000000004 7.7
    vertex 4.797358702031207 16.978963164485055 7.022909294684618
    vertex 5.333493980199754 17.093388579640745 7.539548744556127
  endloop
endfacet
facet normal -0.6938932410409328 -2.0770958971426902e-18 0.720077891646251
  outer loop
    vertex 5.5 25.000000000000004 7.7
    vertex 5.333493980199754 17.093388579640745 7.539548744556127
    vertex 5.5 17.0848012893031 7.7
  endloop
endfacet
facet normal -0.9779742635224715 -0.20872551326486039 3.9384057680407585e-17
  outer loop
    vertex 7.478963164485057 15.702641297968794 5.792999132405306
    vertex 7.5933885796407345 15.166506019800254 0.0
    vertex 7.5933885796407345 15.166506019800254 5.68273464143711
  endloop
endfacet
facet normal -0.9779742635224715 -0.20872551326486039 3.9384057680407585e-17
  outer loop
    vertex 7.5933885796407345 15.166506019800254 0.0
    vertex 7.478963164485057 15.702641297968794 5.792999132405306
    vertex 7.478963164485054 15.7026412979688 0.0
  endloop
endfacet
facet normal -0.9513133130902693 0.3082255348559154 8.974518944163887e-18
  outer loop
    vertex 7.396180699861228 14.097504153209687 5.872771325588271
    vertex 7.5651530225820975 14.619023631546524 0.0
    vertex 7.396180699861225 14.09750415320968 0.0
  endloop
endfacet
facet normal -0.9513133130902693 0.3082255348559154 8.974518944163887e-18
  outer loop
    vertex 7.5651530225820975 14.619023631546524 0.0
    vertex 7.396180699861228 14.097504153209687 5.872771325588271
    vertex 7.5651530225820975 14.619023631546524 5.709943450966341
  endloop
endfacet
facet normal -0.9986727366141311 0.05150500115175373 1.2828651625971465e-17
  outer loop
    vertex 7.5933885796407345 15.166506019800254 5.68273464143711
    vertex 7.5651530225820975 14.619023631546524 0.0
    vertex 7.5651530225820975 14.619023631546524 5.709943450966341
  endloop
endfacet
facet normal -0.9986727366141311 0.05150500115175373 1.2828651625971465e-17
  outer loop
    vertex 7.5651530225820975 14.619023631546524 0.0
    vertex 7.5933885796407345 15.166506019800254 5.68273464143711
    vertex 7.5933885796407345 15.166506019800254 0.0
  endloop
endfacet
facet normal 0.0 1.0 0.0
  outer loop
    vertex 0.0 25.000000000000004 2.4
    vertex 11.0 25.000000000000004 0.0
    vertex 0.0 25.000000000000004 0.0
  endloop
endfacet
facet normal 0.0 1.0 0.0
  outer loop
    vertex 11.0 25.000000000000004 0.0
    vertex 0.0 25.000000000000004 2.4
    vertex 11.0 25.000000000000004 2.4
  endloop
endfacet
facet normal 0.0 1.0 0.0
  outer loop
    vertex 11.0 25.000000000000004 2.4
    vertex 0.0 25.000000000000004 2.4
    vertex 5.5 25.000000000000004 7.7
  endloop
endfacet
facet normal -1.0 4.651834473179309e-17 4.845660909561781e-16
  outer loop
    vertex 0.0 25.000000000000004 2.4
    vertex -2.3259172365896548e-15 0.0 0.0
    vertex 0.0 0.0 2.4
  endloop
endfacet
facet normal -1.0 4.651834473179309e-17 4.845660909561781e-16
  outer loop
    vertex -2.3259172365896548e-15 0.0 0.0
    vertex 0.0 25.000000000000004 2.4
    vertex 0.0 25.000000000000004 0.0
  endloop
endfacet
facet normal -5.639932965095786e-15 0.0 1.0
  outer loop
    vertex 10.999999999999824 -6.109644177859413 35.000000000000064
    vertex -1.9175772081325702e-13 0.0 35.0
    vertex -1.9175772081325702e-13 -6.109644177859413 35.0
  endloop
endfacet
facet normal -5.639932965095786e-15 0.0 1.0
  outer loop
    vertex -1.9175772081325702e-13 0.0 35.0
    vertex 10.999999999999824 -6.109644177859413 35.000000000000064
    vertex 10.999999999999824 0.0 35.000000000000064
  endloop
endfacet
facet normal 3.7591609974633325e-15 -0.7135798760512103 -0.7005738793979829
  outer loop
    vertex 10.999999999999876 -6.714602381145331 25.61943336712637
    vertex -1.5459789437222643e-13 -9.183569884004838 28.134236696903482
    vertex -1.4098693064650385e-13 -6.714602381145331 25.619433367126316
  endloop
endfacet
facet normal 3.7591609974633325e-15 -0.7135798760512103 -0.7005738793979829
  outer loop
    vertex -1.5459789437222643e-13 -9.183569884004838 28.134236696903482
    vertex 10.999999999999876 -6.714602381145331 25.61943336712637
    vertex 10.999999999999861 -9.183569884004838 28.13423669690354
  endloop
endfacet
facet normal -4.933819739010699e-17 -0.9999577101185472 0.009196628429586663
  outer loop
    vertex 10.999999999999929 -4.1322658126272795 15.614878599202026
    vertex -1.1155223040886303e-13 -4.099854988592511 19.138936750839083
    vertex -8.683890625594776e-14 -4.1322658126272795 15.614878599201967
  endloop
endfacet
facet normal -4.933819739010699e-17 -0.9999577101185472 0.009196628429586663
  outer loop
    vertex -1.1155223040886303e-13 -4.099854988592511 19.138936750839083
    vertex 10.999999999999929 -4.1322658126272795 15.614878599202026
    vertex 10.999999999999906 -4.099854988592511 19.13893675083914
  endloop
endfacet
facet normal -2.795700336779156e-15 -0.8613904654579828 0.5079433689084638
  outer loop
    vertex 10.999999999999964 -6.865763303096522 9.183569884004905
    vertex -6.846082671222361e-14 -5.075665630306257 12.219288355718826
    vertex -5.2030494562286926e-14 -6.865763303096522 9.183569884004832
  endloop
endfacet
facet normal -2.795700336779156e-15 -0.8613904654579828 0.5079433689084638
  outer loop
    vertex -6.846082671222361e-14 -5.075665630306257 12.219288355718826
    vertex 10.999999999999964 -6.865763303096522 9.183569884004905
    vertex 10.999999999999947 -5.075665630306257 12.219288355718886
  endloop
endfacet
facet normal 0.0 1.0 0.0
  outer loop
    vertex -1.9175772081325702e-13 0.0 35.0
    vertex 5.5 0.0 7.7
    vertex 0.0 0.0 2.4
  endloop
endfacet
facet normal 0.0 1.0 0.0
  outer loop
    vertex 5.5 0.0 7.7
    vertex 10.999999999999824 0.0 35.000000000000064
    vertex 11.0 0.0 2.4
  endloop
endfacet
facet normal 0.0 1.0 0.0
  outer loop
    vertex 10.999999999999824 0.0 35.000000000000064
    vertex 5.5 0.0 7.7
    vertex -1.9175772081325702e-13 0.0 35.0
  endloop
endfacet
facet normal 4.6204798871124935e-15 -0.5079433689084647 -0.8613904654579823
  outer loop
    vertex -1.5459789437222643e-13 -9.183569884004838 28.134236696903482
    vertex 10.99999999999985 -12.219288355718824 29.924334369693803
    vertex -1.6428650667894235e-13 -12.219288355718824 29.924334369693746
  endloop
endfacet
facet normal 4.6204798871124935e-15 -0.5079433689084647 -0.8613904654579823
  outer loop
    vertex 10.99999999999985 -12.219288355718824 29.924334369693803
    vertex -1.5459789437222643e-13 -9.183569884004838 28.134236696903482
    vertex 10.999999999999861 -9.183569884004838 28.13423669690354
  endloop
endfacet
facet normal 4.939021615650711e-17 0.9999577101185472 -0.009196628429588264
  outer loop
    vertex -1.0724473179389904e-13 -30.86773418737272 19.38512140079804
    vertex 10.999999999999927 -30.900145011407492 15.861063249160987
    vertex -9.381127357117554e-14 -30.900145011407492 15.861063249160928
  endloop
endfacet
facet normal 4.939021615650711e-17 0.9999577101185472 -0.009196628429588264
  outer loop
    vertex 10.999999999999927 -30.900145011407492 15.861063249160987
    vertex -1.0724473179389904e-13 -30.86773418737272 19.38512140079804
    vertex 10.99999999999991 -30.86773418737272 19.385121400798102
  endloop
endfacet
facet normal 1.4332253150665795e-15 0.9635047148120729 -0.2676913605907111
  outer loop
    vertex -1.2562281133762313e-13 -29.924334369693742 22.780711644281176
    vertex 10.99999999999991 -30.86773418737272 19.385121400798102
    vertex -1.0724473179389904e-13 -30.86773418737272 19.38512140079804
  endloop
endfacet
facet normal 1.4332253150665795e-15 0.9635047148120729 -0.2676913605907111
  outer loop
    vertex 10.99999999999991 -30.86773418737272 19.385121400798102
    vertex -1.2562281133762313e-13 -29.924334369693742 22.780711644281176
    vertex 10.999999999999892 -29.924334369693742 22.78071164428124
  endloop
endfacet
facet normal 2.716113541042278e-15 0.8613904654579831 -0.5079433689084631
  outer loop
    vertex -1.4205314348755982e-13 -28.134236696903482 25.816430115995168
    vertex 10.999999999999892 -29.924334369693742 22.78071164428124
    vertex -1.2562281133762313e-13 -29.924334369693742 22.780711644281176
  endloop
endfacet
facet normal 2.716113541042278e-15 0.8613904654579831 -0.5079433689084631
  outer loop
    vertex 10.999999999999892 -29.924334369693742 22.78071164428124
    vertex -1.4205314348755982e-13 -28.134236696903482 25.816430115995168
    vertex 10.999999999999874 -28.134236696903482 25.816430115995217
  endloop
endfacet
facet normal 4.667067377494678e-15 0.49201434121008397 -0.8705870938875716
  outer loop
    vertex 10.99999999999985 -22.55130407137755 30.019358097701584
    vertex -1.6105596122519443e-13 -25.619433367126312 28.285397618854667
    vertex -1.6480080714120212e-13 -22.55130407137755 30.01935809770152
  endloop
endfacet
facet normal 4.667067377494678e-15 0.49201434121008397 -0.8705870938875716
  outer loop
    vertex -1.6105596122519443e-13 -25.619433367126312 28.285397618854667
    vertex 10.99999999999985 -22.55130407137755 30.019358097701584
    vertex 10.999999999999867 -25.619433367126312 28.285397618854724
  endloop
endfacet
facet normal -4.021406740035857e-15 -0.7005738793979813 0.7135798760512119
  outer loop
    vertex -4.4307542754844015e-14 -9.380566632873686 6.714602381145337
    vertex 10.999999999999964 -6.865763303096522 9.183569884004905
    vertex -5.2030494562286926e-14 -6.865763303096522 9.183569884004832
  endloop
endfacet
facet normal -4.021406740035857e-15 -0.7005738793979813 0.7135798760512119
  outer loop
    vertex 10.999999999999964 -6.865763303096522 9.183569884004905
    vertex -4.4307542754844015e-14 -9.380566632873686 6.714602381145337
    vertex 10.999999999999979 -9.380566632873686 6.71460238114541
  endloop
endfacet
facet normal 0.0 -1.0 0.0
  outer loop
    vertex 11.000000000000014 -35.0 6.767919558114953e-14
    vertex -1.9175772081325702e-13 -35.0 35.0
    vertex -2.3259172365896548e-15 -35.0 0.0
  endloop
endfacet
facet normal 0.0 -1.0 0.0
  outer loop
    vertex -1.9175772081325702e-13 -35.0 35.0
    vertex 11.000000000000014 -35.0 6.767919558114953e-14
    vertex 10.999999999999824 -35.0 35.000000000000064
  endloop
endfacet
facet normal 0.0 1.0 0.0
  outer loop
    vertex -2.1995738563873607e-13 -22.55130407137755 40.00000000000001
    vertex 10.99999999999985 -22.55130407137755 30.019358097701584
    vertex -1.6480080714120212e-13 -22.55130407137755 30.01935809770152
  endloop
endfacet
facet normal 0.0 1.0 0.0
  outer loop
    vertex 10.99999999999985 -22.55130407137755 30.019358097701584
    vertex -2.1995738563873607e-13 -22.55130407137755 40.00000000000001
    vertex 10.999999999999801 -22.55130407137755 40.000000000000064
  endloop
endfacet
facet normal 3.828718977248566e-15 0.7005738793979813 -0.7135798760512119
  outer loop
    vertex 10.999999999999867 -25.619433367126312 28.285397618854724
    vertex -1.4205314348755982e-13 -28.134236696903482 25.816430115995168
    vertex -1.6105596122519443e-13 -25.619433367126312 28.285397618854667
  endloop
endfacet
facet normal 3.828718977248566e-15 0.7005738793979813 -0.7135798760512119
  outer loop
    vertex -1.4205314348755982e-13 -28.134236696903482 25.816430115995168
    vertex 10.999999999999867 -25.619433367126312 28.285397618854724
    vertex 10.999999999999874 -28.134236696903482 25.816430115995217
  endloop
endfacet
facet normal 0.0 -1.0 0.0
  outer loop
    vertex 10.99999999999985 -12.219288355718824 29.924334369693803
    vertex -2.1995738563873607e-13 -12.219288355718824 40.00000000000001
    vertex -1.6428650667894235e-13 -12.219288355718824 29.924334369693746
  endloop
endfacet
facet normal 0.0 -1.0 0.0
  outer loop
    vertex -2.1995738563873607e-13 -12.219288355718824 40.00000000000001
    vertex 10.99999999999985 -12.219288355718824 29.924334369693803
    vertex 10.999999999999801 -12.219288355718824 40.000000000000064
  endloop
endfacet
facet normal 0.6697487286665456 -0.7425877998254118 -8.713084822260902e-17
  outer loop
    vertex 4.309107267149585 16.729674680060985 6.552412457435055
    vertex 3.9020132039684268 16.36251172461332 0.0
    vertex 4.309107267149585 16.729674680060985 0.0
  endloop
endfacet
facet normal 0.6697487286665456 -0.7425877998254118 -8.713084822260902e-17
  outer loop
    vertex 3.9020132039684268 16.36251172461332 0.0
    vertex 4.309107267149585 16.729674680060985 6.552412457435055
    vertex 3.9020132039684254 16.362511724613306 6.160121814733211
  endloop
endfacet
facet normal 1.0 2.8199664825479376e-16 2.9374650859873932e-15
  outer loop
    vertex 11.0 25.000000000000004 0.0
    vertex 11.0 0.0 2.4
    vertex 11.000000000000014 0.0 6.767919558114953e-14
  endloop
endfacet
facet normal 1.0 2.8199664825479376e-16 2.9374650859873932e-15
  outer loop
    vertex 11.0 0.0 2.4
    vertex 11.0 25.000000000000004 0.0
    vertex 11.0 25.000000000000004 2.4
  endloop
endfacet
facet normal 0.8391234593988863 -0.5439410077264314 -1.2062509981710987e-18
  outer loop
    vertex 3.9020132039684268 16.36251172461332 0.0
    vertex 3.603819300138777 15.90249584679032 5.872771325588276
    vertex 3.6038193001387757 15.90249584679032 0.0
  endloop
endfacet
facet normal 0.8391234593988863 -0.5439410077264314 -1.2062509981710987e-18
  outer loop
    vertex 3.603819300138777 15.90249584679032 5.872771325588276
    vertex 3.9020132039684268 16.36251172461332 0.0
    vertex 3.9020132039684254 16.362511724613306 6.160121814733211
  endloop
endfacet
facet normal 0.9513133130902676 -0.3082255348559214 1.7927499042861455e-16
  outer loop
    vertex 3.6038193001387757 15.90249584679032 0.0
    vertex 3.4348469774179007 15.380976368453489 5.709943450966341
    vertex 3.4348469774179007 15.380976368453478 0.0
  endloop
endfacet
facet normal 0.9513133130902676 -0.3082255348559214 1.7927499042861455e-16
  outer loop
    vertex 3.4348469774179007 15.380976368453489 5.709943450966341
    vertex 3.6038193001387757 15.90249584679032 0.0
    vertex 3.603819300138777 15.90249584679032 5.872771325588276
  endloop
endfacet
facet normal 0.9986727366141309 -0.05150500115175839 1.8725942564607581e-16
  outer loop
    vertex 3.4348469774179007 15.380976368453478 0.0
    vertex 3.406611420359261 14.833493980199759 5.682734641437105
    vertex 3.4066114203592623 14.833493980199759 0.0
  endloop
endfacet
facet normal 0.9986727366141309 -0.05150500115175839 1.8725942564607581e-16
  outer loop
    vertex 3.406611420359261 14.833493980199759 5.682734641437105
    vertex 3.4348469774179007 15.380976368453478 0.0
    vertex 3.4348469774179007 15.380976368453489 5.709943450966341
  endloop
endfacet
facet normal 0.977974263522472 0.20872551326485883 -5.1658221998149024e-17
  outer loop
    vertex 3.5210368355149395 14.297358702031213 0.0
    vertex 3.406611420359261 14.833493980199759 5.682734641437105
    vertex 3.521036835514941 14.297358702031207 5.792999132405307
  endloop
endfacet
facet normal 0.977974263522472 0.20872551326485883 -5.1658221998149024e-17
  outer loop
    vertex 3.406611420359261 14.833493980199759 5.682734641437105
    vertex 3.5210368355149395 14.297358702031213 0.0
    vertex 3.4066114203592623 14.833493980199759 0.0
  endloop
endfacet
facet normal 0.8906284605506406 0.4547317288876995 2.6476832220913044e-18
  outer loop
    vertex 3.5210368355149395 14.297358702031213 0.0
    vertex 3.7703253199390216 13.809107267149587 6.033222581032149
    vertex 3.7703253199390216 13.809107267149587 0.0
  endloop
endfacet
facet normal 0.8906284605506406 0.4547317288876995 2.6476832220913044e-18
  outer loop
    vertex 3.7703253199390216 13.809107267149587 6.033222581032149
    vertex 3.5210368355149395 14.297358702031213 0.0
    vertex 3.521036835514941 14.297358702031207 5.792999132405307
  endloop
endfacet
facet normal 0.7425877998254068 0.6697487286665513 1.5652464623845653e-16
  outer loop
    vertex 3.7703253199390216 13.809107267149587 0.0
    vertex 4.137488275386696 13.402013203968423 6.387034156281726
    vertex 4.137488275386696 13.402013203968423 0.0
  endloop
endfacet
facet normal 0.7425877998254068 0.6697487286665513 1.5652464623845653e-16
  outer loop
    vertex 4.137488275386696 13.402013203968423 6.387034156281726
    vertex 3.7703253199390216 13.809107267149587 0.0
    vertex 3.7703253199390216 13.809107267149587 6.033222581032149
  endloop
endfacet
facet normal 0.5439410077264341 0.8391234593988844 4.2040909295266326e-16
  outer loop
    vertex 4.137488275386696 13.402013203968423 6.387034156281726
    vertex 4.59750415320968 13.103819300138777 0.0
    vertex 4.137488275386696 13.402013203968423 0.0
  endloop
endfacet
facet normal 0.5439410077264341 0.8391234593988844 4.2040909295266326e-16
  outer loop
    vertex 4.59750415320968 13.103819300138777 0.0
    vertex 4.137488275386696 13.402013203968423 6.387034156281726
    vertex 4.5975041532096785 13.103819300138777 6.830322184002055
  endloop
endfacet
facet normal 0.30822553485592624 0.9513133130902659 2.1277962695494247e-16
  outer loop
    vertex 4.5975041532096785 13.103819300138777 6.830322184002055
    vertex 5.119023631546519 12.9348469774179 0.0
    vertex 4.59750415320968 13.103819300138777 0.0
  endloop
endfacet
facet normal 0.30822553485592624 0.9513133130902659 2.1277962695494247e-16
  outer loop
    vertex 5.119023631546519 12.9348469774179 0.0
    vertex 4.5975041532096785 13.103819300138777 6.830322184002055
    vertex 5.119023631546519 12.9348469774179 7.332877317672099
  endloop
endfacet
facet normal 0.051505001151751544 0.9986727366141314 1.2731169337463168e-17
  outer loop
    vertex 5.119023631546519 12.9348469774179 7.332877317672099
    vertex 5.666506019800248 12.906611420359262 0.0
    vertex 5.119023631546519 12.9348469774179 0.0
  endloop
endfacet
facet normal 0.051505001151751544 0.9986727366141314 1.2731169337463168e-17
  outer loop
    vertex 5.666506019800248 12.906611420359262 0.0
    vertex 5.119023631546519 12.9348469774179 7.332877317672099
    vertex 5.666506019800247 12.906611420359262 7.539548744556126
  endloop
endfacet
facet normal 0.051505001151751544 0.9986727366141314 1.2731169337463168e-17
  outer loop
    vertex 5.666506019800247 12.906611420359262 7.539548744556126
    vertex 5.119023631546519 12.9348469774179 7.332877317672099
    vertex 5.5 12.915198710696899 7.6999999999999975
  endloop
endfacet
facet normal -0.20872551326486546 0.9779742635224705 -1.841333692465099e-16
  outer loop
    vertex 5.666506019800247 12.906611420359262 7.539548744556126
    vertex 6.202641297968797 13.021036835514947 0.0
    vertex 5.666506019800248 12.906611420359262 0.0
  endloop
endfacet
facet normal -0.20872551326486546 0.9779742635224705 -1.841333692465099e-16
  outer loop
    vertex 6.202641297968797 13.021036835514947 0.0
    vertex 5.666506019800247 12.906611420359262 7.539548744556126
    vertex 6.202641297968798 13.021036835514947 7.022909294684611
  endloop
endfacet
facet normal -0.4547317288877011 0.8906284605506397 -5.153295683169431e-17
  outer loop
    vertex 6.202641297968798 13.021036835514947 7.022909294684611
    vertex 6.690892732850417 13.270325319939024 0.0
    vertex 6.202641297968797 13.021036835514947 0.0
  endloop
endfacet
facet normal -0.4547317288877011 0.8906284605506397 -5.153295683169431e-17
  outer loop
    vertex 6.690892732850417 13.270325319939024 0.0
    vertex 6.202641297968798 13.021036835514947 7.022909294684611
    vertex 6.690892732850419 13.270325319939024 6.55241245743505
  endloop
endfacet
facet normal -0.6697487286665518 0.7425877998254062 2.397242776842704e-16
  outer loop
    vertex 6.690892732850419 13.270325319939024 6.55241245743505
    vertex 7.097986796031577 13.6374882753867 0.0
    vertex 6.690892732850417 13.270325319939024 0.0
  endloop
endfacet
facet normal -0.6697487286665518 0.7425877998254062 2.397242776842704e-16
  outer loop
    vertex 7.097986796031577 13.6374882753867 0.0
    vertex 6.690892732850419 13.270325319939024 6.55241245743505
    vertex 7.0979867960315755 13.637488275386694 6.160121814733207
  endloop
endfacet
facet normal -0.8391234593988849 0.5439410077264334 -2.5029708212050434e-17
  outer loop
    vertex 7.396180699861228 14.097504153209687 5.872771325588271
    vertex 7.097986796031577 13.6374882753867 0.0
    vertex 7.0979867960315755 13.637488275386694 6.160121814733207
  endloop
endfacet
facet normal -0.8391234593988849 0.5439410077264334 -2.5029708212050434e-17
  outer loop
    vertex 7.097986796031577 13.6374882753867 0.0
    vertex 7.396180699861228 14.097504153209687 5.872771325588271
    vertex 7.396180699861225 14.09750415320968 0.0
  endloop
endfacet
facet normal -5.639932965095787e-15 0.0 1.0
  outer loop
    vertex 10.999999999999801 -28.775652035688775 40.000000000000064
    vertex -2.1995738563873607e-13 -22.55130407137755 40.00000000000001
    vertex -2.1995738563873607e-13 -28.775652035688775 40.00000000000001
  endloop
endfacet
facet normal -5.639932965095787e-15 0.0 1.0
  outer loop
    vertex -2.1995738563873607e-13 -22.55130407137755 40.00000000000001
    vertex 10.999999999999801 -28.775652035688775 40.000000000000064
    vertex 10.999999999999801 -22.55130407137755 40.000000000000064
  endloop
endfacet
facet normal 0.0 -1.0 0.0
  outer loop
    vertex 10.999999999999824 -28.775652035688775 35.000000000000064
    vertex -2.1995738563873607e-13 -28.775652035688775 40.00000000000001
    vertex -1.9175772081325702e-13 -28.775652035688775 35.0
  endloop
endfacet
facet normal 0.0 -1.0 0.0
  outer loop
    vertex -2.1995738563873607e-13 -28.775652035688775 40.00000000000001
    vertex 10.999999999999824 -28.775652035688775 35.000000000000064
    vertex 10.999999999999801 -28.775652035688775 40.000000000000064
  endloop
endfacet
facet normal -5.639932965095786e-15 2.1303750000651955e-31 1.0
  outer loop
    vertex 10.999999999999801 -12.219288355718824 40.000000000000064
    vertex -2.1995738563873607e-13 -6.109644177859413 40.00000000000001
    vertex -2.1995738563873607e-13 -12.219288355718824 40.00000000000001
  endloop
endfacet
facet normal -5.639932965095786e-15 2.1303750000651955e-31 1.0
  outer loop
    vertex -2.1995738563873607e-13 -6.109644177859413 40.00000000000001
    vertex 10.999999999999801 -12.219288355718824 40.000000000000064
    vertex 10.999999999999801 -6.109644177859413 40.000000000000064
  endloop
endfacet
facet normal 1.2015172190883634e-45 1.0 -2.1303750000651955e-31
  outer loop
    vertex -2.1995738563873607e-13 -6.109644177859413 40.00000000000001
    vertex 10.999999999999824 -6.109644177859413 35.000000000000064
    vertex -1.9175772081325702e-13 -6.109644177859413 35.0
  endloop
endfacet
facet normal 1.2015172190883634e-45 1.0 -2.1303750000651955e-31
  outer loop
    vertex 10.999999999999824 -6.109644177859413 35.000000000000064
    vertex -2.1995738563873607e-13 -6.109644177859413 40.00000000000001
    vertex 10.999999999999801 -6.109644177859413 40.000000000000064
  endloop
endfacet
facet normal -5.639932965095786e-15 0.0 1.0
  outer loop
    vertex 10.999999999999824 -35.0 35.000000000000064
    vertex -1.9175772081325702e-13 -28.775652035688775 35.0
    vertex -1.9175772081325702e-13 -35.0 35.0
  endloop
endfacet
facet normal -5.639932965095786e-15 0.0 1.0
  outer loop
    vertex -1.9175772081325702e-13 -28.775652035688775 35.0
    vertex 10.999999999999824 -35.0 35.000000000000064
    vertex 10.999999999999824 -28.775652035688775 35.000000000000064
  endloop
endfacet
facet normal -1.0 6.062207966743863e-17 -5.462362691255416e-15
  outer loop
    vertex -2.1995738563873607e-13 -22.55130407137755 40.00000000000001
    vertex -1.9175772081325702e-13 -28.775652035688775 35.0
    vertex -2.1995738563873607e-13 -28.775652035688775 40.00000000000001
  endloop
endfacet
facet normal -1.0 6.062207966743863e-17 -5.462362691255416e-15
  outer loop
    vertex -1.9175772081325702e-13 -28.775652035688775 35.0
    vertex -2.1995738563873607e-13 -22.55130407137755 40.00000000000001
    vertex -1.4205314348755982e-13 -28.134236696903482 25.816430115995168
  endloop
endfacet
facet normal -1.0 6.062207966743863e-17 -5.462362691255416e-15
  outer loop
    vertex -1.4205314348755982e-13 -28.134236696903482 25.816430115995168
    vertex -2.1995738563873607e-13 -22.55130407137755 40.00000000000001
    vertex -1.6105596122519443e-13 -25.619433367126312 28.285397618854667
  endloop
endfacet
facet normal -1.0 6.062207966743863e-17 -5.462362691255416e-15
  outer loop
    vertex -1.6105596122519443e-13 -25.619433367126312 28.285397618854667
    vertex -2.1995738563873607e-13 -22.55130407137755 40.00000000000001
    vertex -1.6480080714120212e-13 -22.55130407137755 30.01935809770152
  endloop
endfacet
facet normal -1.0 6.062207966743863e-17 -5.462362691255416e-15
  outer loop
    vertex -1.9175772081325702e-13 -28.775652035688775 35.0
    vertex -2.3259172365896548e-15 -35.0 0.0
    vertex -1.9175772081325702e-13 -35.0 35.0
  endloop
endfacet
facet normal -1.0 6.062207966743863e-17 -5.462362691255416e-15
  outer loop
    vertex -2.3259172365896548e-15 -35.0 0.0
    vertex -1.9175772081325702e-13 -28.775652035688775 35.0
    vertex -1.0724473179389904e-13 -30.86773418737272 19.38512140079804
  endloop
endfacet
facet normal -1.0 6.062207966743863e-17 -5.462362691255416e-15
  outer loop
    vertex -2.3259172365896548e-15 -35.0 0.0
    vertex -1.0724473179389904e-13 -30.86773418737272 19.38512140079804
    vertex -9.381127357117554e-14 -30.900145011407492 15.861063249160928
  endloop
endfacet
facet normal -1.0 6.062207966743863e-17 -5.462362691255416e-15
  outer loop
    vertex -1.0724473179389904e-13 -30.86773418737272 19.38512140079804
    vertex -1.9175772081325702e-13 -28.775652035688775 35.0
    vertex -1.2562281133762313e-13 -29.924334369693742 22.780711644281176
  endloop
endfacet
facet normal -1.0 6.062207966743863e-17 -5.462362691255416e-15
  outer loop
    vertex -1.2562281133762313e-13 -29.924334369693742 22.780711644281176
    vertex -1.9175772081325702e-13 -28.775652035688775 35.0
    vertex -1.4205314348755982e-13 -28.134236696903482 25.816430115995168
  endloop
endfacet
facet normal -1.0 6.062207966743863e-17 -5.462362691255416e-15
  outer loop
    vertex -2.1995738563873607e-13 -6.109644177859413 40.00000000000001
    vertex -1.6428650667894235e-13 -12.219288355718824 29.924334369693746
    vertex -2.1995738563873607e-13 -12.219288355718824 40.00000000000001
  endloop
endfacet
facet normal -1.0 6.062207966743863e-17 -5.462362691255416e-15
  outer loop
    vertex -1.6428650667894235e-13 -12.219288355718824 29.924334369693746
    vertex -2.1995738563873607e-13 -6.109644177859413 40.00000000000001
    vertex -1.5459789437222643e-13 -9.183569884004838 28.134236696903482
  endloop
endfacet
facet normal -1.0 6.062207966743863e-17 -5.462362691255416e-15
  outer loop
    vertex -1.5459789437222643e-13 -9.183569884004838 28.134236696903482
    vertex -2.1995738563873607e-13 -6.109644177859413 40.00000000000001
    vertex -1.4098693064650385e-13 -6.714602381145331 25.619433367126316
  endloop
endfacet
facet normal -1.0 6.062207966743863e-17 -5.462362691255416e-15
  outer loop
    vertex -1.4098693064650385e-13 -6.714602381145331 25.619433367126316
    vertex -2.1995738563873607e-13 -6.109644177859413 40.00000000000001
    vertex -1.9175772081325702e-13 -6.109644177859413 35.0
  endloop
endfacet
facet normal -1.0 6.062207966743863e-17 -5.462362691255416e-15
  outer loop
    vertex -1.4098693064650385e-13 -6.714602381145331 25.619433367126316
    vertex -1.9175772081325702e-13 -6.109644177859413 35.0
    vertex -1.2438118018650094e-13 -4.980641902298482 22.551304071377555
  endloop
endfacet
facet normal -1.0 6.062207966743863e-17 -5.462362691255416e-15
  outer loop
    vertex -1.2438118018650094e-13 -4.980641902298482 22.551304071377555
    vertex -1.9175772081325702e-13 -6.109644177859413 35.0
    vertex -1.9175772081325702e-13 0.0 35.0
  endloop
endfacet
facet normal -1.0 6.062207966743863e-17 -5.462362691255416e-15
  outer loop
    vertex -1.2438118018650094e-13 -4.980641902298482 22.551304071377555
    vertex -1.9175772081325702e-13 0.0 35.0
    vertex -1.1155223040886303e-13 -4.099854988592511 19.138936750839083
  endloop
endfacet
facet normal -1.0 6.062207966743863e-17 -5.462362691255416e-15
  outer loop
    vertex -2.3259172365896548e-15 -35.0 0.0
    vertex -2.469113340070946e-14 -19.385121400798038 4.132265812627285
    vertex -2.3259172365896548e-15 0.0 0.0
  endloop
endfacet
facet normal -1.0 6.062207966743863e-17 -5.462362691255416e-15
  outer loop
    vertex -2.469113340070946e-14 -19.385121400798038 4.132265812627285
    vertex -2.3259172365896548e-15 -35.0 0.0
    vertex -2.979713137090449e-14 -22.780711644281176 5.075665630306257
  endloop
endfacet
facet normal -1.0 6.062207966743863e-17 -5.462362691255416e-15
  outer loop
    vertex -2.979713137090449e-14 -22.780711644281176 5.075665630306257
    vertex -2.3259172365896548e-15 -35.0 0.0
    vertex -3.948574367762029e-14 -25.81643011599517 6.865763303096522
  endloop
endfacet
facet normal -1.0 6.062207966743863e-17 -5.462362691255416e-15
  outer loop
    vertex -3.948574367762029e-14 -25.81643011599517 6.865763303096522
    vertex -2.3259172365896548e-15 -35.0 0.0
    vertex -5.309670740334309e-14 -28.285397618854667 9.380566632873691
  endloop
endfacet
facet normal -1.0 6.062207966743863e-17 -5.462362691255416e-15
  outer loop
    vertex -5.309670740334309e-14 -28.285397618854667 9.380566632873691
    vertex -2.3259172365896548e-15 -35.0 0.0
    vertex -6.97024578633459e-14 -30.01935809770152 12.448695928622456
  endloop
endfacet
facet normal -1.0 6.062207966743863e-17 -5.462362691255416e-15
  outer loop
    vertex -6.97024578633459e-14 -30.01935809770152 12.448695928622456
    vertex -2.3259172365896548e-15 -35.0 0.0
    vertex -9.381127357117554e-14 -30.900145011407492 15.861063249160928
  endloop
endfacet
facet normal -1.0 6.062207966743863e-17 -5.462362691255416e-15
  outer loop
    vertex -2.3259172365896548e-15 0.0 0.0
    vertex -2.469113340070946e-14 -19.385121400798038 4.132265812627285
    vertex -2.4515715090643306e-14 -15.86106324916093 4.099854988592505
  endloop
endfacet
facet normal -1.0 6.062207966743863e-17 -5.462362691255416e-15
  outer loop
    vertex -2.3259172365896548e-15 0.0 0.0
    vertex -2.4515715090643306e-14 -15.86106324916093 4.099854988592505
    vertex -2.928283090864463e-14 -12.448695928622447 4.980641902298476
  endloop
endfacet
facet normal -1.0 6.062207966743863e-17 -5.462362691255416e-15
  outer loop
    vertex -2.3259172365896548e-15 0.0 0.0
    vertex -2.928283090864463e-14 -12.448695928622447 4.980641902298476
    vertex -4.4307542754844015e-14 -9.380566632873686 6.714602381145337
  endloop
endfacet
facet normal -1.0 6.062207966743863e-17 -5.462362691255416e-15
  outer loop
    vertex -2.3259172365896548e-15 0.0 0.0
    vertex -4.4307542754844015e-14 -9.380566632873686 6.714602381145337
    vertex -5.2030494562286926e-14 -6.865763303096522 9.183569884004832
  endloop
endfacet
facet normal -1.0 6.062207966743863e-17 -5.462362691255416e-15
  outer loop
    vertex -2.3259172365896548e-15 0.0 0.0
    vertex -5.2030494562286926e-14 -6.865763303096522 9.183569884004832
    vertex -6.846082671222361e-14 -5.075665630306257 12.219288355718826
  endloop
endfacet
facet normal -1.0 6.062207966743863e-17 -5.462362691255416e-15
  outer loop
    vertex -2.3259172365896548e-15 0.0 0.0
    vertex -6.846082671222361e-14 -5.075665630306257 12.219288355718826
    vertex -8.683890625594776e-14 -4.1322658126272795 15.614878599201967
  endloop
endfacet
facet normal -1.0 6.062207966743863e-17 -5.462362691255416e-15
  outer loop
    vertex -2.3259172365896548e-15 0.0 0.0
    vertex -8.683890625594776e-14 -4.1322658126272795 15.614878599201967
    vertex -1.1155223040886303e-13 -4.099854988592511 19.138936750839083
  endloop
endfacet
facet normal -1.0 6.062207966743863e-17 -5.462362691255416e-15
  outer loop
    vertex -2.3259172365896548e-15 0.0 0.0
    vertex -1.1155223040886303e-13 -4.099854988592511 19.138936750839083
    vertex -1.9175772081325702e-13 0.0 35.0
  endloop
endfacet
facet normal -1.0 6.062207966743863e-17 -5.462362691255416e-15
  outer loop
    vertex -2.3259172365896548e-15 0.0 0.0
    vertex -1.9175772081325702e-13 0.0 35.0
    vertex 0.0 0.0 2.4
  endloop
endfacet
facet normal -4.861491382897016e-15 0.5079433689084636 0.8613904654579828
  outer loop
    vertex 10.999999999999977 -25.81643011599517 6.865763303096596
    vertex -2.979713137090449e-14 -22.780711644281176 5.075665630306257
    vertex -3.948574367762029e-14 -25.81643011599517 6.865763303096522
  endloop
endfacet
facet normal -4.861491382897016e-15 0.5079433689084636 0.8613904654579828
  outer loop
    vertex -2.979713137090449e-14 -22.780711644281176 5.075665630306257
    vertex 10.999999999999977 -25.81643011599517 6.865763303096596
    vertex 10.999999999999988 -22.780711644281176 5.07566563030633
  endloop
endfacet
facet normal -4.905987080420119e-15 -0.492014341210085 0.8705870938875707
  outer loop
    vertex -2.928283090864463e-14 -12.448695928622447 4.980641902298476
    vertex 10.999999999999979 -9.380566632873686 6.71460238114541
    vertex -4.4307542754844015e-14 -9.380566632873686 6.714602381145337
  endloop
endfacet
facet normal -4.905987080420119e-15 -0.492014341210085 0.8705870938875707
  outer loop
    vertex 10.999999999999979 -9.380566632873686 6.71460238114541
    vertex -2.928283090864463e-14 -12.448695928622447 4.980641902298476
    vertex 10.999999999999988 -12.448695928622447 4.98064190229855
  endloop
endfacet
facet normal 1.0 3.5099773164756935e-17 5.374610988691376e-15
  outer loop
    vertex 11.000000000000014 -35.0 6.767919558114953e-14
    vertex 10.999999999999927 -30.900145011407492 15.861063249160987
    vertex 10.999999999999824 -35.0 35.000000000000064
  endloop
endfacet
facet normal 1.0 3.5099773164756935e-17 5.374610988691376e-15
  outer loop
    vertex 10.999999999999927 -30.900145011407492 15.861063249160987
    vertex 11.000000000000014 -35.0 6.767919558114953e-14
    vertex 10.999999999999954 -30.01935809770152 12.448695928622515
  endloop
endfacet
facet normal 1.0 3.5099773164756935e-17 5.374610988691376e-15
  outer loop
    vertex 10.999999999999954 -30.01935809770152 12.448695928622515
    vertex 11.000000000000014 -35.0 6.767919558114953e-14
    vertex 10.999999999999963 -28.285397618854667 9.380566632873766
  endloop
endfacet
facet normal 1.0 3.5099773164756935e-17 5.374610988691376e-15
  outer loop
    vertex 10.999999999999963 -28.285397618854667 9.380566632873766
    vertex 11.000000000000014 -35.0 6.767919558114953e-14
    vertex 10.999999999999977 -25.81643011599517 6.865763303096596
  endloop
endfacet
facet normal 1.0 3.5099773164756935e-17 5.374610988691376e-15
  outer loop
    vertex 10.999999999999977 -25.81643011599517 6.865763303096596
    vertex 11.000000000000014 -35.0 6.767919558114953e-14
    vertex 10.999999999999988 -22.780711644281176 5.07566563030633
  endloop
endfacet
facet normal 1.0 3.5099773164756935e-17 5.374610988691376e-15
  outer loop
    vertex 10.999999999999988 -22.780711644281176 5.07566563030633
    vertex 11.000000000000014 -35.0 6.767919558114953e-14
    vertex 10.999999999999991 -19.385121400798038 4.132265812627359
  endloop
endfacet
facet normal 1.0 3.5099773164756935e-17 5.374610988691376e-15
  outer loop
    vertex 10.999999999999991 -19.385121400798038 4.132265812627359
    vertex 11.000000000000014 -35.0 6.767919558114953e-14
    vertex 11.000000000000014 0.0 6.767919558114953e-14
  endloop
endfacet
facet normal 1.0 3.5099773164756935e-17 5.374610988691376e-15
  outer loop
    vertex 10.999999999999991 -19.385121400798038 4.132265812627359
    vertex 11.000000000000014 0.0 6.767919558114953e-14
    vertex 10.999999999999998 -15.86106324916093 4.099854988592578
  endloop
endfacet
facet normal 1.0 3.5099773164756935e-17 5.374610988691376e-15
  outer loop
    vertex 10.999999999999998 -15.86106324916093 4.099854988592578
    vertex 11.000000000000014 0.0 6.767919558114953e-14
    vertex 10.999999999999988 -12.448695928622447 4.98064190229855
  endloop
endfacet
facet normal 1.0 3.5099773164756935e-17 5.374610988691376e-15
  outer loop
    vertex 10.999999999999988 -12.448695928622447 4.98064190229855
    vertex 11.000000000000014 0.0 6.767919558114953e-14
    vertex 10.999999999999979 -9.380566632873686 6.71460238114541
  endloop
endfacet
facet normal 1.0 3.5099773164756935e-17 5.374610988691376e-15
  outer loop
    vertex 10.999999999999979 -9.380566632873686 6.71460238114541
    vertex 11.000000000000014 0.0 6.767919558114953e-14
    vertex 10.999999999999964 -6.865763303096522 9.183569884004905
  endloop
endfacet
facet normal 1.0 3.5099773164756935e-17 5.374610988691376e-15
  outer loop
    vertex 10.999999999999964 -6.865763303096522 9.183569884004905
    vertex 11.000000000000014 0.0 6.767919558114953e-14
    vertex 10.999999999999947 -5.075665630306257 12.219288355718886
  endloop
endfacet
facet normal 1.0 3.5099773164756935e-17 5.374610988691376e-15
  outer loop
    vertex 10.999999999999947 -5.075665630306257 12.219288355718886
    vertex 11.000000000000014 0.0 6.767919558114953e-14
    vertex 10.999999999999929 -4.1322658126272795 15.614878599202026
  endloop
endfacet
facet normal 1.0 3.5099773164756935e-17 5.374610988691376e-15
  outer loop
    vertex 10.999999999999929 -4.1322658126272795 15.614878599202026
    vertex 11.000000000000014 0.0 6.767919558114953e-14
    vertex 10.999999999999906 -4.099854988592511 19.13893675083914
  endloop
endfacet
facet normal 1.0 3.5099773164756935e-17 5.374610988691376e-15
  outer loop
    vertex 10.999999999999899 -4.980641902298482 22.551304071377615
    vertex 10.999999999999824 -6.109644177859413 35.000000000000064
    vertex 10.999999999999876 -6.714602381145331 25.61943336712637
  endloop
endfacet
facet normal 1.0 3.5099773164756935e-17 5.374610988691376e-15
  outer loop
    vertex 10.999999999999824 -6.109644177859413 35.000000000000064
    vertex 10.999999999999899 -4.980641902298482 22.551304071377615
    vertex 10.999999999999824 0.0 35.000000000000064
  endloop
endfacet
facet normal 1.0 3.5099773164756935e-17 5.374610988691376e-15
  outer loop
    vertex 10.999999999999824 0.0 35.000000000000064
    vertex 10.999999999999899 -4.980641902298482 22.551304071377615
    vertex 10.999999999999906 -4.099854988592511 19.13893675083914
  endloop
endfacet
facet normal 1.0 3.5099773164756935e-17 5.374610988691376e-15
  outer loop
    vertex 10.999999999999824 0.0 35.000000000000064
    vertex 10.999999999999906 -4.099854988592511 19.13893675083914
    vertex 11.000000000000014 0.0 6.767919558114953e-14
  endloop
endfacet
facet normal 1.0 3.5099773164756935e-17 5.374610988691376e-15
  outer loop
    vertex 10.999999999999824 0.0 35.000000000000064
    vertex 11.000000000000014 0.0 6.767919558114953e-14
    vertex 11.0 0.0 2.4
  endloop
endfacet
facet normal 1.0 3.5099773164756935e-17 5.374610988691376e-15
  outer loop
    vertex 10.999999999999861 -9.183569884004838 28.13423669690354
    vertex 10.999999999999801 -12.219288355718824 40.000000000000064
    vertex 10.99999999999985 -12.219288355718824 29.924334369693803
  endloop
endfacet
facet normal 1.0 3.5099773164756935e-17 5.374610988691376e-15
  outer loop
    vertex 10.999999999999801 -12.219288355718824 40.000000000000064
    vertex 10.999999999999861 -9.183569884004838 28.13423669690354
    vertex 10.999999999999801 -6.109644177859413 40.000000000000064
  endloop
endfacet
facet normal 1.0 3.5099773164756935e-17 5.374610988691376e-15
  outer loop
    vertex 10.999999999999801 -6.109644177859413 40.000000000000064
    vertex 10.999999999999861 -9.183569884004838 28.13423669690354
    vertex 10.999999999999876 -6.714602381145331 25.61943336712637
  endloop
endfacet
facet normal 1.0 3.5099773164756935e-17 5.374610988691376e-15
  outer loop
    vertex 10.999999999999801 -6.109644177859413 40.000000000000064
    vertex 10.999999999999876 -6.714602381145331 25.61943336712637
    vertex 10.999999999999824 -6.109644177859413 35.000000000000064
  endloop
endfacet
facet normal 1.0 3.5099773164756935e-17 5.374610988691376e-15
  outer loop
    vertex 10.999999999999824 -35.0 35.000000000000064
    vertex 10.99999999999991 -30.86773418737272 19.385121400798102
    vertex 10.999999999999824 -28.775652035688775 35.000000000000064
  endloop
endfacet
facet normal 1.0 3.5099773164756935e-17 5.374610988691376e-15
  outer loop
    vertex 10.99999999999991 -30.86773418737272 19.385121400798102
    vertex 10.999999999999824 -35.0 35.000000000000064
    vertex 10.999999999999927 -30.900145011407492 15.861063249160987
  endloop
endfacet
facet normal 1.0 3.5099773164756935e-17 5.374610988691376e-15
  outer loop
    vertex 10.999999999999824 -28.775652035688775 35.000000000000064
    vertex 10.99999999999991 -30.86773418737272 19.385121400798102
    vertex 10.999999999999892 -29.924334369693742 22.78071164428124
  endloop
endfacet
facet normal 1.0 3.5099773164756935e-17 5.374610988691376e-15
  outer loop
    vertex 10.999999999999824 -28.775652035688775 35.000000000000064
    vertex 10.999999999999892 -29.924334369693742 22.78071164428124
    vertex 10.999999999999874 -28.134236696903482 25.816430115995217
  endloop
endfacet
facet normal 1.0 3.5099773164756935e-17 5.374610988691376e-15
  outer loop
    vertex 10.999999999999824 -28.775652035688775 35.000000000000064
    vertex 10.999999999999874 -28.134236696903482 25.816430115995217
    vertex 10.999999999999801 -28.775652035688775 40.000000000000064
  endloop
endfacet
facet normal 1.0 3.5099773164756935e-17 5.374610988691376e-15
  outer loop
    vertex 10.999999999999801 -28.775652035688775 40.000000000000064
    vertex 10.999999999999874 -28.134236696903482 25.816430115995217
    vertex 10.999999999999801 -22.55130407137755 40.000000000000064
  endloop
endfacet
facet normal 1.0 3.5099773164756935e-17 5.374610988691376e-15
  outer loop
    vertex 10.999999999999801 -22.55130407137755 40.000000000000064
    vertex 10.999999999999874 -28.134236696903482 25.816430115995217
    vertex 10.999999999999867 -25.619433367126312 28.285397618854724
  endloop
endfacet
facet normal 1.0 3.5099773164756935e-17 5.374610988691376e-15
  outer loop
    vertex 10.999999999999801 -22.55130407137755 40.000000000000064
    vertex 10.999999999999867 -25.619433367126312 28.285397618854724
    vertex 10.99999999999985 -22.55130407137755 30.019358097701584
  endloop
endfacet
facet normal 6.152654143740859e-15 0.0 -1.0
  outer loop
    vertex 11.000000000000014 0.0 6.767919558114953e-14
    vertex -2.3259172365896548e-15 -35.0 0.0
    vertex -2.3259172365896548e-15 0.0 0.0
  endloop
endfacet
facet normal 6.152654143740859e-15 0.0 -1.0
  outer loop
    vertex -2.3259172365896548e-15 -35.0 0.0
    vertex 11.000000000000014 0.0 6.767919558114953e-14
    vertex 11.000000000000014 -35.0 6.767919558114953e-14
  endloop
endfacet
facet normal -2.7085911447495184e-15 0.8705870938875716 0.49201434121008375
  outer loop
    vertex -6.97024578633459e-14 -30.01935809770152 12.448695928622456
    vertex 10.999999999999963 -28.285397618854667 9.380566632873766
    vertex -5.309670740334309e-14 -28.285397618854667 9.380566632873691
  endloop
endfacet
facet normal -2.7085911447495184e-15 0.8705870938875716 0.49201434121008375
  outer loop
    vertex 10.999999999999963 -28.285397618854667 9.380566632873766
    vertex -6.97024578633459e-14 -30.01935809770152 12.448695928622456
    vertex 10.999999999999954 -30.01935809770152 12.448695928622515
  endloop
endfacet
facet normal -5.4371872879487116e-15 0.2676913605907093 0.9635047148120733
  outer loop
    vertex 10.999999999999988 -22.780711644281176 5.07566563030633
    vertex -2.469113340070946e-14 -19.385121400798038 4.132265812627285
    vertex -2.979713137090449e-14 -22.780711644281176 5.075665630306257
  endloop
endfacet
facet normal -5.4371872879487116e-15 0.2676913605907093 0.9635047148120733
  outer loop
    vertex -2.469113340070946e-14 -19.385121400798038 4.132265812627285
    vertex 10.999999999999988 -22.780711644281176 5.07566563030633
    vertex 10.999999999999991 -19.385121400798038 4.132265812627359
  endloop
endfacet
facet normal -1.3371523295924555e-15 0.968265239988691 0.2499248387608615
  outer loop
    vertex -9.381127357117554e-14 -30.900145011407492 15.861063249160928
    vertex 10.999999999999954 -30.01935809770152 12.448695928622515
    vertex -6.97024578633459e-14 -30.01935809770152 12.448695928622456
  endloop
endfacet
facet normal -1.3371523295924555e-15 0.968265239988691 0.2499248387608615
  outer loop
    vertex 10.999999999999954 -30.01935809770152 12.448695928622515
    vertex -9.381127357117554e-14 -30.900145011407492 15.861063249160928
    vertex 10.999999999999927 -30.900145011407492 15.861063249160987
  endloop
endfacet
facet normal -5.4632167761218015e-15 -0.24992483876086075 0.9682652399886913
  outer loop
    vertex -2.4515715090643306e-14 -15.86106324916093 4.099854988592505
    vertex 10.999999999999988 -12.448695928622447 4.98064190229855
    vertex -2.928283090864463e-14 -12.448695928622447 4.980641902298476
  endloop
endfacet
facet normal -5.4632167761218015e-15 -0.24992483876086075 0.9682652399886913
  outer loop
    vertex 10.999999999999988 -12.448695928622447 4.98064190229855
    vertex -2.4515715090643306e-14 -15.86106324916093 4.099854988592505
    vertex 10.999999999999998 -15.86106324916093 4.099854988592578
  endloop
endfacet
facet normal -5.63969996051341e-15 0.009196628429589876 0.999957710118547
  outer loop
    vertex 10.999999999999991 -19.385121400798038 4.132265812627359
    vertex -2.4515715090643306e-14 -15.86106324916093 4.099854988592505
    vertex -2.469113340070946e-14 -19.385121400798038 4.132265812627285
  endloop
endfacet
facet normal -5.63969996051341e-15 0.009196628429589876 0.999957710118547
  outer loop
    vertex -2.4515715090643306e-14 -15.86106324916093 4.099854988592505
    vertex 10.999999999999991 -19.385121400798038 4.132265812627359
    vertex 10.999999999999998 -15.86106324916093 4.099854988592578
  endloop
endfacet
facet normal -3.955322609583947e-15 0.7135798760512126 0.7005738793979804
  outer loop
    vertex -5.309670740334309e-14 -28.285397618854667 9.380566632873691
    vertex 10.999999999999977 -25.81643011599517 6.865763303096596
    vertex -3.948574367762029e-14 -25.81643011599517 6.865763303096522
  endloop
endfacet
facet normal -3.955322609583947e-15 0.7135798760512126 0.7005738793979804
  outer loop
    vertex 10.999999999999977 -25.81643011599517 6.865763303096596
    vertex -5.309670740334309e-14 -28.285397618854667 9.380566632873691
    vertex 10.999999999999963 -28.285397618854667 9.380566632873766
  endloop
endfacet
facet normal -0.8906284605506406 -0.4547317288876995 -5.44245995652104e-18
  outer loop
    vertex 7.229674680060975 16.190892732850426 6.033222581032153
    vertex 7.478963164485054 15.7026412979688 0.0
    vertex 7.478963164485057 15.702641297968794 5.792999132405306
  endloop
endfacet
facet normal -0.8906284605506406 -0.4547317288876995 -5.44245995652104e-18
  outer loop
    vertex 7.478963164485054 15.7026412979688 0.0
    vertex 7.229674680060975 16.190892732850426 6.033222581032153
    vertex 7.229674680060975 16.190892732850426 0.0
  endloop
endfacet
facet normal -0.7425877998254065 -0.6697487286665516 8.729566582859951e-17
  outer loop
    vertex 6.862511724613305 16.597986796031577 6.387034156281726
    vertex 7.229674680060975 16.190892732850426 0.0
    vertex 7.229674680060975 16.190892732850426 6.033222581032153
  endloop
endfacet
facet normal -0.7425877998254065 -0.6697487286665516 8.729566582859951e-17
  outer loop
    vertex 7.229674680060975 16.190892732850426 0.0
    vertex 6.862511724613305 16.597986796031577 6.387034156281726
    vertex 6.862511724613303 16.597986796031577 0.0
  endloop
endfacet
facet normal -0.54394100772643 -0.8391234593988871 -1.2489872042562781e-18
  outer loop
    vertex 6.862511724613305 16.597986796031577 6.387034156281726
    vertex 6.402495846790321 16.896180699861226 0.0
    vertex 6.862511724613303 16.597986796031577 0.0
  endloop
endfacet
facet normal -0.54394100772643 -0.8391234593988871 -1.2489872042562781e-18
  outer loop
    vertex 6.402495846790321 16.896180699861226 0.0
    vertex 6.862511724613305 16.597986796031577 6.387034156281726
    vertex 6.40249584679032 16.896180699861226 6.830322184002056
  endloop
endfacet
facet normal -1.4386169631477724e-15 -0.9635047148120731 0.26769136059071064
  outer loop
    vertex 10.999999999999947 -5.075665630306257 12.219288355718886
    vertex -8.683890625594776e-14 -4.1322658126272795 15.614878599201967
    vertex -6.846082671222361e-14 -5.075665630306257 12.219288355718826
  endloop
endfacet
facet normal -1.4386169631477724e-15 -0.9635047148120731 0.26769136059071064
  outer loop
    vertex -8.683890625594776e-14 -4.1322658126272795 15.614878599201967
    vertex 10.999999999999947 -5.075665630306257 12.219288355718886
    vertex 10.999999999999929 -4.1322658126272795 15.614878599202026
  endloop
endfacet
facet normal 2.632134983458194e-15 -0.8705870938875725 -0.4920143412100823
  outer loop
    vertex 10.999999999999899 -4.980641902298482 22.551304071377615
    vertex -1.4098693064650385e-13 -6.714602381145331 25.619433367126316
    vertex -1.2438118018650094e-13 -4.980641902298482 22.551304071377555
  endloop
endfacet
facet normal 2.632134983458194e-15 -0.8705870938875725 -0.4920143412100823
  outer loop
    vertex -1.4098693064650385e-13 -6.714602381145331 25.619433367126316
    vertex 10.999999999999899 -4.980641902298482 22.551304071377615
    vertex 10.999999999999876 -6.714602381145331 25.61943336712637
  endloop
endfacet
facet normal 1.337855934602432e-15 -0.968265239988691 -0.24992483876086155
  outer loop
    vertex 10.999999999999906 -4.099854988592511 19.13893675083914
    vertex -1.2438118018650094e-13 -4.980641902298482 22.551304071377555
    vertex -1.1155223040886303e-13 -4.099854988592511 19.138936750839083
  endloop
endfacet
facet normal 1.337855934602432e-15 -0.968265239988691 -0.24992483876086155
  outer loop
    vertex -1.2438118018650094e-13 -4.980641902298482 22.551304071377555
    vertex 10.999999999999906 -4.099854988592511 19.13893675083914
    vertex 10.999999999999899 -4.980641902298482 22.551304071377615
  endloop
endfacet
facet normal 0.6938932410409328 -2.078628062382109e-18 0.720077891646251
  outer loop
    vertex 11.0 0.0 2.4
    vertex 5.5 12.915198710696899 7.6999999999999975
    vertex 5.5 0.0 7.7
  endloop
endfacet
facet normal 0.6938932410409328 -2.078628062382109e-18 0.720077891646251
  outer loop
    vertex 5.5 12.915198710696899 7.6999999999999975
    vertex 11.0 0.0 2.4
    vertex 5.666506019800247 12.906611420359262 7.539548744556126
  endloop
endfacet
facet normal 0.6938932410409328 -2.078628062382109e-18 0.720077891646251
  outer loop
    vertex 5.666506019800247 12.906611420359262 7.539548744556126
    vertex 11.0 0.0 2.4
    vertex 6.202641297968798 13.021036835514947 7.022909294684611
  endloop
endfacet
facet normal 0.6938932410409328 -2.078628062382109e-18 0.720077891646251
  outer loop
    vertex 6.202641297968798 13.021036835514947 7.022909294684611
    vertex 11.0 0.0 2.4
    vertex 6.690892732850419 13.270325319939024 6.55241245743505
  endloop
endfacet
facet normal 0.6938932410409328 -2.078628062382109e-18 0.720077891646251
  outer loop
    vertex 6.690892732850419 13.270325319939024 6.55241245743505
    vertex 11.0 0.0 2.4
    vertex 7.0979867960315755 13.637488275386694 6.160121814733207
  endloop
endfacet
facet normal 0.6938932410409328 -2.078628062382109e-18 0.720077891646251
  outer loop
    vertex 7.0979867960315755 13.637488275386694 6.160121814733207
    vertex 11.0 0.0 2.4
    vertex 7.396180699861228 14.097504153209687 5.872771325588271
  endloop
endfacet
facet normal 0.6938932410409328 -2.078628062382109e-18 0.720077891646251
  outer loop
    vertex 7.396180699861228 14.097504153209687 5.872771325588271
    vertex 11.0 0.0 2.4
    vertex 7.5651530225820975 14.619023631546524 5.709943450966341
  endloop
endfacet
facet normal 0.6938932410409328 -2.078628062382109e-18 0.720077891646251
  outer loop
    vertex 7.5651530225820975 14.619023631546524 5.709943450966341
    vertex 11.0 0.0 2.4
    vertex 7.5933885796407345 15.166506019800254 5.68273464143711
  endloop
endfacet
facet normal 0.6938932410409328 -2.078628062382109e-18 0.720077891646251
  outer loop
    vertex 5.8809763684534815 17.065153022582102 7.332877317672097
    vertex 5.5 25.000000000000004 7.7
    vertex 5.5 17.0848012893031 7.7
  endloop
endfacet
facet normal 0.6938932410409328 -2.078628062382109e-18 0.720077891646251
  outer loop
    vertex 5.5 25.000000000000004 7.7
    vertex 5.8809763684534815 17.065153022582102 7.332877317672097
    vertex 11.0 25.000000000000004 2.4
  endloop
endfacet
facet normal 0.6938932410409328 -2.078628062382109e-18 0.720077891646251
  outer loop
    vertex 11.0 25.000000000000004 2.4
    vertex 5.8809763684534815 17.065153022582102 7.332877317672097
    vertex 6.40249584679032 16.896180699861226 6.830322184002056
  endloop
endfacet
facet normal 0.6938932410409328 -2.078628062382109e-18 0.720077891646251
  outer loop
    vertex 11.0 25.000000000000004 2.4
    vertex 6.40249584679032 16.896180699861226 6.830322184002056
    vertex 6.862511724613305 16.597986796031577 6.387034156281726
  endloop
endfacet
facet normal 0.6938932410409328 -2.078628062382109e-18 0.720077891646251
  outer loop
    vertex 11.0 25.000000000000004 2.4
    vertex 6.862511724613305 16.597986796031577 6.387034156281726
    vertex 7.229674680060975 16.190892732850426 6.033222581032153
  endloop
endfacet
facet normal 0.6938932410409328 -2.078628062382109e-18 0.720077891646251
  outer loop
    vertex 11.0 25.000000000000004 2.4
    vertex 7.229674680060975 16.190892732850426 6.033222581032153
    vertex 7.478963164485057 15.702641297968794 5.792999132405306
  endloop
endfacet
facet normal 0.6938932410409328 -2.078628062382109e-18 0.720077891646251
  outer loop
    vertex 11.0 25.000000000000004 2.4
    vertex 7.478963164485057 15.702641297968794 5.792999132405306
    vertex 7.5933885796407345 15.166506019800254 5.68273464143711
  endloop
endfacet
facet normal 0.6938932410409328 -2.078628062382109e-18 0.720077891646251
  outer loop
    vertex 11.0 25.000000000000004 2.4
    vertex 7.5933885796407345 15.166506019800254 5.68273464143711
    vertex 11.0 0.0 2.4
  endloop
endfacet
endsolid Support piece2
