solid Support piece
facet normal 0.0 1.0 0.0
  outer loop
    vertex 0.0 0.0 12.999999999999998
    vertex 5.5 0.0 7.7
    vertex 0.0 0.0 2.4
  endloop
endfacet
facet normal 0.0 1.0 0.0
  outer loop
    vertex 5.5 0.0 7.7
    vertex 11.0 0.0 12.999999999999998
    vertex 11.0 0.0 2.4
  endloop
endfacet
facet normal 0.0 1.0 0.0
  outer loop
    vertex 11.0 0.0 12.999999999999998
    vertex 5.5 0.0 7.7
    vertex 0.0 0.0 12.999999999999998
  endloop
endfacet
facet normal 0.0 0.0 -1.0
  outer loop
    vertex 11.0 0.0 0.0
    vertex 0.0 -11.0 0.0
    vertex 0.0 0.0 0.0
  endloop
endfacet
facet normal 0.0 0.0 -1.0
  outer loop
    vertex 0.0 -11.0 0.0
    vertex 11.0 0.0 0.0
    vertex 11.0 -11.0 0.0
  endloop
endfacet
facet normal 1.0 1.8956168264050136e-17 4.934575206605861e-17
  outer loop
    vertex 11.0 -11.0 0.0
    vertex 11.000000000000002 -9.460826426680686 4.440823896744316
    vertex 11.0 -11.0 12.999999999999998
  endloop
endfacet
facet normal 1.0 1.8956168264050136e-17 4.934575206605861e-17
  outer loop
    vertex 11.000000000000002 -9.460826426680686 4.440823896744316
    vertex 11.0 -11.0 0.0
    vertex 11.000000000000002 -9.051729591339075 3.451777133706794
  endloop
endfacet
facet normal 1.0 1.8956168264050136e-17 4.934575206605861e-17
  outer loop
    vertex 11.000000000000002 -9.051729591339075 3.451777133706794
    vertex 11.0 -11.0 0.0
    vertex 11.000000000000002 -8.400588253858377 2.602313374158825
  endloop
endfacet
facet normal 1.0 1.8956168264050136e-17 4.934575206605861e-17
  outer loop
    vertex 11.000000000000002 -8.400588253858377 2.602313374158825
    vertex 11.0 -11.0 0.0
    vertex 11.000000000000002 -7.55177662032596 1.9503221695083675
  endloop
endfacet
facet normal 1.0 1.8956168264050136e-17 4.934575206605861e-17
  outer loop
    vertex 11.000000000000002 -7.55177662032596 1.9503221695083675
    vertex 11.0 -11.0 0.0
    vertex 11.000000000000002 -6.563139800839512 1.5402356428859407
  endloop
endfacet
facet normal 1.0 1.8956168264050136e-17 4.934575206605861e-17
  outer loop
    vertex 11.000000000000002 -6.563139800839512 1.5402356428859407
    vertex 11.0 -11.0 0.0
    vertex 11.0 0.0 0.0
  endloop
endfacet
facet normal 1.0 1.8956168264050136e-17 4.934575206605861e-17
  outer loop
    vertex 11.0 -11.0 12.999999999999998
    vertex 11.000000000000002 -9.460826426680686 4.440823896744316
    vertex 11.000000000000002 -9.599999486619165 5.502051760847442
  endloop
endfacet
facet normal 1.0 1.8956168264050136e-17 4.934575206605861e-17
  outer loop
    vertex 11.000000000000002 -6.563139800839512 1.5402356428859407
    vertex 11.0 0.0 0.0
    vertex 11.000000000000002 -5.502051760847442 1.4000005133808349
  endloop
endfacet
facet normal 1.0 1.8956168264050136e-17 4.934575206605861e-17
  outer loop
    vertex 11.000000000000002 -5.502051760847442 1.4000005133808349
    vertex 11.0 0.0 0.0
    vertex 11.000000000000002 -4.440823896744313 1.5391735733193128
  endloop
endfacet
facet normal 1.0 1.8956168264050136e-17 4.934575206605861e-17
  outer loop
    vertex 11.000000000000002 -4.440823896744313 1.5391735733193128
    vertex 11.0 0.0 0.0
    vertex 11.000000000000002 -3.4517771337067913 1.9482704086609255
  endloop
endfacet
facet normal 1.0 1.8956168264050136e-17 4.934575206605861e-17
  outer loop
    vertex 11.000000000000002 -3.4517771337067913 1.9482704086609255
    vertex 11.0 0.0 0.0
    vertex 11.000000000000002 -2.6023133741588227 2.599411746141626
  endloop
endfacet
facet normal 1.0 1.8956168264050136e-17 4.934575206605861e-17
  outer loop
    vertex 11.000000000000002 -2.6023133741588227 2.599411746141626
    vertex 11.0 0.0 0.0
    vertex 11.000000000000002 -1.9503221695083657 3.448223379674044
  endloop
endfacet
facet normal 1.0 1.8956168264050136e-17 4.934575206605861e-17
  outer loop
    vertex 11.000000000000002 -1.9503221695083657 3.448223379674044
    vertex 11.0 0.0 0.0
    vertex 11.000000000000002 -1.5402356428859403 4.436860199160491
  endloop
endfacet
facet normal 1.0 1.8956168264050136e-17 4.934575206605861e-17
  outer loop
    vertex 11.000000000000002 -1.5402356428859403 4.436860199160491
    vertex 11.0 0.0 0.0
    vertex 11.000000000000002 -1.4000005133808344 5.497948239152559
  endloop
endfacet
facet normal 1.0 1.8956168264050136e-17 4.934575206605861e-17
  outer loop
    vertex 11.000000000000002 -4.490121336907443 9.481857075645372
    vertex 11.0 -4.5 12.999999999999998
    vertex 11.0 -4.5 11.0
  endloop
endfacet
facet normal 1.0 1.8956168264050136e-17 4.934575206605861e-17
  outer loop
    vertex 11.0 -4.5 12.999999999999998
    vertex 11.000000000000002 -4.490121336907443 9.481857075645372
    vertex 11.0 0.0 12.999999999999998
  endloop
endfacet
facet normal 1.0 1.8956168264050136e-17 4.934575206605861e-17
  outer loop
    vertex 11.0 0.0 12.999999999999998
    vertex 11.000000000000002 -4.490121336907443 9.481857075645372
    vertex 11.000000000000002 -4.43686019916049 9.459764357114059
  endloop
endfacet
facet normal 1.0 1.8956168264050136e-17 4.934575206605861e-17
  outer loop
    vertex 11.0 0.0 12.999999999999998
    vertex 11.000000000000002 -4.43686019916049 9.459764357114059
    vertex 11.000000000000002 -3.4482233796740425 9.049677830491632
  endloop
endfacet
facet normal 1.0 1.8956168264050136e-17 4.934575206605861e-17
  outer loop
    vertex 11.0 0.0 12.999999999999998
    vertex 11.000000000000002 -3.4482233796740425 9.049677830491632
    vertex 11.000000000000002 -2.5994117461416257 8.397686625841176
  endloop
endfacet
facet normal 1.0 1.8956168264050136e-17 4.934575206605861e-17
  outer loop
    vertex 11.0 0.0 12.999999999999998
    vertex 11.000000000000002 -2.5994117461416257 8.397686625841176
    vertex 11.000000000000002 -1.9482704086609255 7.548222866293209
  endloop
endfacet
facet normal 1.0 1.8956168264050136e-17 4.934575206605861e-17
  outer loop
    vertex 11.0 0.0 12.999999999999998
    vertex 11.000000000000002 -1.9482704086609255 7.548222866293209
    vertex 11.000000000000002 -1.5391735733193135 6.559176103255686
  endloop
endfacet
facet normal 1.0 1.8956168264050136e-17 4.934575206605861e-17
  outer loop
    vertex 11.0 0.0 12.999999999999998
    vertex 11.000000000000002 -1.5391735733193135 6.559176103255686
    vertex 11.000000000000002 -1.4000005133808344 5.497948239152559
  endloop
endfacet
facet normal 1.0 1.8956168264050136e-17 4.934575206605861e-17
  outer loop
    vertex 11.0 0.0 12.999999999999998
    vertex 11.000000000000002 -1.4000005133808344 5.497948239152559
    vertex 11.0 0.0 0.0
  endloop
endfacet
facet normal 1.0 1.8956168264050136e-17 4.934575206605861e-17
  outer loop
    vertex 11.0 0.0 12.999999999999998
    vertex 11.0 0.0 0.0
    vertex 11.0 0.0 2.4
  endloop
endfacet
facet normal 1.0 1.8956168264050136e-17 4.934575206605861e-17
  outer loop
    vertex 11.0 -11.0 12.999999999999998
    vertex 11.000000000000002 -9.049677830491634 7.551776620325955
    vertex 11.0 -6.499999999999999 12.999999999999998
  endloop
endfacet
facet normal 1.0 1.8956168264050136e-17 4.934575206605861e-17
  outer loop
    vertex 11.000000000000002 -9.049677830491634 7.551776620325955
    vertex 11.0 -11.0 12.999999999999998
    vertex 11.000000000000002 -9.459764357114059 6.563139800839508
  endloop
endfacet
facet normal 1.0 1.8956168264050136e-17 4.934575206605861e-17
  outer loop
    vertex 11.000000000000002 -9.459764357114059 6.563139800839508
    vertex 11.0 -11.0 12.999999999999998
    vertex 11.000000000000002 -9.599999486619165 5.502051760847442
  endloop
endfacet
facet normal 1.0 1.8956168264050136e-17 4.934575206605861e-17
  outer loop
    vertex 11.0 -6.499999999999999 12.999999999999998
    vertex 11.000000000000002 -9.049677830491634 7.551776620325955
    vertex 11.000000000000002 -8.39768662584118 8.400588253858372
  endloop
endfacet
facet normal 1.0 1.8956168264050136e-17 4.934575206605861e-17
  outer loop
    vertex 11.0 -6.499999999999999 12.999999999999998
    vertex 11.000000000000002 -8.39768662584118 8.400588253858372
    vertex 11.000000000000002 -7.548222866293212 9.051729591339072
  endloop
endfacet
facet normal 1.0 1.8956168264050136e-17 4.934575206605861e-17
  outer loop
    vertex 11.0 -6.499999999999999 12.999999999999998
    vertex 11.000000000000002 -7.548222866293212 9.051729591339072
    vertex 11.000000000000002 -6.559176103255691 9.460826426680685
  endloop
endfacet
facet normal 1.0 1.8956168264050136e-17 4.934575206605861e-17
  outer loop
    vertex 11.0 -6.499999999999999 12.999999999999998
    vertex 11.000000000000002 -6.559176103255691 9.460826426680685
    vertex 11.000000000000002 -6.506577205681758 9.48258277162222
  endloop
endfacet
facet normal 1.0 1.8956168264050136e-17 4.934575206605861e-17
  outer loop
    vertex 11.0 -6.499999999999999 12.999999999999998
    vertex 11.000000000000002 -6.506577205681758 9.48258277162222
    vertex 11.0 -6.499999999999999 11.0
  endloop
endfacet
facet normal -0.0 -1.0 -0.0
  outer loop
    vertex 11.0 -11.0 12.999999999999998
    vertex 0.0 -11.0 0.0
    vertex 11.0 -11.0 0.0
  endloop
endfacet
facet normal -0.0 -1.0 -0.0
  outer loop
    vertex 0.0 -11.0 0.0
    vertex 11.0 -11.0 12.999999999999998
    vertex 0.0 -11.0 12.999999999999998
  endloop
endfacet
facet normal -1.1981302246487472e-20 -0.9999788296888118 -0.006506932779326525
  outer loop
    vertex 11.0 -4.5 11.0
    vertex 1.3224377969586064e-15 -4.490121336907443 9.481857075645372
    vertex 11.000000000000002 -4.490121336907443 9.481857075645372
  endloop
endfacet
facet normal -1.1981302246487472e-20 -0.9999788296888118 -0.006506932779326525
  outer loop
    vertex 1.3224377969586064e-15 -4.490121336907443 9.481857075645372
    vertex 11.0 -4.5 11.0
    vertex 0.0 -4.5 11.0
  endloop
endfacet
facet normal -1.0 -1.8938881375879987e-17 -5.033444130232888e-17
  outer loop
    vertex 0.0 -11.0 12.999999999999998
    vertex 1.4099832412739487e-15 -9.459764357114059 6.563139800839508
    vertex 0.0 -11.0 0.0
  endloop
endfacet
facet normal -1.0 -1.8938881375879987e-17 -5.033444130232888e-17
  outer loop
    vertex 1.4099832412739487e-15 -9.459764357114059 6.563139800839508
    vertex 0.0 -11.0 12.999999999999998
    vertex 1.4099832412739487e-15 -9.049677830491634 7.551776620325955
  endloop
endfacet
facet normal -1.0 -1.8938881375879987e-17 -5.033444130232888e-17
  outer loop
    vertex 1.4099832412739487e-15 -9.049677830491634 7.551776620325955
    vertex 0.0 -11.0 12.999999999999998
    vertex 0.0 -6.499999999999999 12.999999999999998
  endloop
endfacet
facet normal -1.0 -1.8938881375879987e-17 -5.033444130232888e-17
  outer loop
    vertex 0.0 -11.0 0.0
    vertex 1.4099832412739487e-15 -9.459764357114059 6.563139800839508
    vertex 1.4099832412739487e-15 -9.599999486619165 5.502051760847442
  endloop
endfacet
facet normal -1.0 -1.8938881375879987e-17 -5.033444130232888e-17
  outer loop
    vertex 1.4099832412739487e-15 -9.049677830491634 7.551776620325955
    vertex 0.0 -6.499999999999999 12.999999999999998
    vertex 1.4099832412739487e-15 -8.39768662584118 8.400588253858372
  endloop
endfacet
facet normal -1.0 -1.8938881375879987e-17 -5.033444130232888e-17
  outer loop
    vertex 1.4099832412739487e-15 -8.39768662584118 8.400588253858372
    vertex 0.0 -6.499999999999999 12.999999999999998
    vertex 1.4099832412739487e-15 -7.548222866293212 9.051729591339072
  endloop
endfacet
facet normal -1.0 -1.8938881375879987e-17 -5.033444130232888e-17
  outer loop
    vertex 1.4099832412739487e-15 -7.548222866293212 9.051729591339072
    vertex 0.0 -6.499999999999999 12.999999999999998
    vertex 1.4099832412739487e-15 -6.559176103255691 9.460826426680685
  endloop
endfacet
facet normal -1.0 -1.8938881375879987e-17 -5.033444130232888e-17
  outer loop
    vertex 1.4099832412739487e-15 -6.559176103255691 9.460826426680685
    vertex 0.0 -6.499999999999999 12.999999999999998
    vertex 1.3225025472396519e-15 -6.506577205681758 9.48258277162222
  endloop
endfacet
facet normal -1.0 -1.8938881375879987e-17 -5.033444130232888e-17
  outer loop
    vertex 1.3225025472396519e-15 -6.506577205681758 9.48258277162222
    vertex 0.0 -6.499999999999999 12.999999999999998
    vertex 0.0 -6.499999999999999 11.0
  endloop
endfacet
facet normal -1.0 -1.8938881375879987e-17 -5.033444130232888e-17
  outer loop
    vertex 0.0 0.0 12.999999999999998
    vertex 0.0 -4.5 11.0
    vertex 0.0 -4.5 12.999999999999998
  endloop
endfacet
facet normal -1.0 -1.8938881375879987e-17 -5.033444130232888e-17
  outer loop
    vertex 0.0 -4.5 11.0
    vertex 0.0 0.0 12.999999999999998
    vertex 1.3224377969586064e-15 -4.490121336907443 9.481857075645372
  endloop
endfacet
facet normal -1.0 -1.8938881375879987e-17 -5.033444130232888e-17
  outer loop
    vertex 1.3224377969586064e-15 -4.490121336907443 9.481857075645372
    vertex 0.0 0.0 12.999999999999998
    vertex 1.4099832412739487e-15 -4.43686019916049 9.459764357114059
  endloop
endfacet
facet normal -1.0 -1.8938881375879987e-17 -5.033444130232888e-17
  outer loop
    vertex 1.4099832412739487e-15 -4.43686019916049 9.459764357114059
    vertex 0.0 0.0 12.999999999999998
    vertex 1.4099832412739487e-15 -3.4482233796740425 9.049677830491632
  endloop
endfacet
facet normal -1.0 -1.8938881375879987e-17 -5.033444130232888e-17
  outer loop
    vertex 1.4099832412739487e-15 -3.4482233796740425 9.049677830491632
    vertex 0.0 0.0 12.999999999999998
    vertex 1.4099832412739487e-15 -2.5994117461416257 8.397686625841176
  endloop
endfacet
facet normal -1.0 -1.8938881375879987e-17 -5.033444130232888e-17
  outer loop
    vertex 1.4099832412739487e-15 -2.5994117461416257 8.397686625841176
    vertex 0.0 0.0 12.999999999999998
    vertex 1.4099832412739487e-15 -1.9482704086609255 7.548222866293209
  endloop
endfacet
facet normal -1.0 -1.8938881375879987e-17 -5.033444130232888e-17
  outer loop
    vertex 1.4099832412739487e-15 -1.9482704086609255 7.548222866293209
    vertex 0.0 0.0 12.999999999999998
    vertex 1.4099832412739487e-15 -1.5391735733193135 6.559176103255686
  endloop
endfacet
facet normal -1.0 -1.8938881375879987e-17 -5.033444130232888e-17
  outer loop
    vertex 1.4099832412739487e-15 -1.5391735733193135 6.559176103255686
    vertex 0.0 0.0 12.999999999999998
    vertex 1.4099832412739487e-15 -1.4000005133808344 5.497948239152559
  endloop
endfacet
facet normal -1.0 -1.8938881375879987e-17 -5.033444130232888e-17
  outer loop
    vertex 0.0 -11.0 0.0
    vertex 1.4099832412739487e-15 -6.563139800839512 1.5402356428859407
    vertex 0.0 0.0 0.0
  endloop
endfacet
facet normal -1.0 -1.8938881375879987e-17 -5.033444130232888e-17
  outer loop
    vertex 1.4099832412739487e-15 -6.563139800839512 1.5402356428859407
    vertex 0.0 -11.0 0.0
    vertex 1.4099832412739487e-15 -7.55177662032596 1.9503221695083675
  endloop
endfacet
facet normal -1.0 -1.8938881375879987e-17 -5.033444130232888e-17
  outer loop
    vertex 1.4099832412739487e-15 -7.55177662032596 1.9503221695083675
    vertex 0.0 -11.0 0.0
    vertex 1.4099832412739487e-15 -8.400588253858377 2.602313374158825
  endloop
endfacet
facet normal -1.0 -1.8938881375879987e-17 -5.033444130232888e-17
  outer loop
    vertex 1.4099832412739487e-15 -8.400588253858377 2.602313374158825
    vertex 0.0 -11.0 0.0
    vertex 1.4099832412739487e-15 -9.051729591339075 3.451777133706794
  endloop
endfacet
facet normal -1.0 -1.8938881375879987e-17 -5.033444130232888e-17
  outer loop
    vertex 1.4099832412739487e-15 -9.051729591339075 3.451777133706794
    vertex 0.0 -11.0 0.0
    vertex 1.4099832412739487e-15 -9.460826426680686 4.440823896744316
  endloop
endfacet
facet normal -1.0 -1.8938881375879987e-17 -5.033444130232888e-17
  outer loop
    vertex 1.4099832412739487e-15 -9.460826426680686 4.440823896744316
    vertex 0.0 -11.0 0.0
    vertex 1.4099832412739487e-15 -9.599999486619165 5.502051760847442
  endloop
endfacet
facet normal -1.0 -1.8938881375879987e-17 -5.033444130232888e-17
  outer loop
    vertex 0.0 0.0 0.0
    vertex 1.4099832412739487e-15 -6.563139800839512 1.5402356428859407
    vertex 1.4099832412739487e-15 -5.502051760847442 1.4000005133808349
  endloop
endfacet
facet normal -1.0 -1.8938881375879987e-17 -5.033444130232888e-17
  outer loop
    vertex 0.0 0.0 0.0
    vertex 1.4099832412739487e-15 -5.502051760847442 1.4000005133808349
    vertex 1.4099832412739487e-15 -4.440823896744313 1.5391735733193128
  endloop
endfacet
facet normal -1.0 -1.8938881375879987e-17 -5.033444130232888e-17
  outer loop
    vertex 0.0 0.0 0.0
    vertex 1.4099832412739487e-15 -4.440823896744313 1.5391735733193128
    vertex 1.4099832412739487e-15 -3.4517771337067913 1.9482704086609255
  endloop
endfacet
facet normal -1.0 -1.8938881375879987e-17 -5.033444130232888e-17
  outer loop
    vertex 0.0 0.0 0.0
    vertex 1.4099832412739487e-15 -3.4517771337067913 1.9482704086609255
    vertex 1.4099832412739487e-15 -2.6023133741588227 2.599411746141626
  endloop
endfacet
facet normal -1.0 -1.8938881375879987e-17 -5.033444130232888e-17
  outer loop
    vertex 0.0 0.0 0.0
    vertex 1.4099832412739487e-15 -2.6023133741588227 2.599411746141626
    vertex 1.4099832412739487e-15 -1.9503221695083657 3.448223379674044
  endloop
endfacet
facet normal -1.0 -1.8938881375879987e-17 -5.033444130232888e-17
  outer loop
    vertex 0.0 0.0 0.0
    vertex 1.4099832412739487e-15 -1.9503221695083657 3.448223379674044
    vertex 1.4099832412739487e-15 -1.5402356428859403 4.436860199160491
  endloop
endfacet
facet normal -1.0 -1.8938881375879987e-17 -5.033444130232888e-17
  outer loop
    vertex 0.0 0.0 0.0
    vertex 1.4099832412739487e-15 -1.5402356428859403 4.436860199160491
    vertex 1.4099832412739487e-15 -1.4000005133808344 5.497948239152559
  endloop
endfacet
facet normal -1.0 -1.8938881375879987e-17 -5.033444130232888e-17
  outer loop
    vertex 0.0 0.0 0.0
    vertex 1.4099832412739487e-15 -1.4000005133808344 5.497948239152559
    vertex 0.0 0.0 12.999999999999998
  endloop
endfacet
facet normal -1.0 -1.8938881375879987e-17 -5.033444130232888e-17
  outer loop
    vertex 0.0 0.0 0.0
    vertex 0.0 0.0 12.999999999999998
    vertex 0.0 0.0 2.4
  endloop
endfacet
facet normal -5.906429819866295e-19 -0.38314572099685107 -0.9236879107587168
  outer loop
    vertex 11.000000000000002 -3.4482233796740425 9.049677830491632
    vertex 1.4099832412739487e-15 -4.43686019916049 9.459764357114059
    vertex 1.4099832412739487e-15 -3.4482233796740425 9.049677830491632
  endloop
endfacet
facet normal -5.906429819866295e-19 -0.38314572099685107 -0.9236879107587168
  outer loop
    vertex 1.4099832412739487e-15 -4.43686019916049 9.459764357114059
    vertex 11.000000000000002 -4.490121336907443 9.481857075645372
    vertex 1.3224377969586064e-15 -4.490121336907443 9.481857075645372
  endloop
endfacet
facet normal -5.906429819866295e-19 -0.38314572099685107 -0.9236879107587168
  outer loop
    vertex 11.000000000000002 -4.490121336907443 9.481857075645372
    vertex 1.4099832412739487e-15 -4.43686019916049 9.459764357114059
    vertex 11.000000000000002 -3.4482233796740425 9.049677830491632
  endloop
endfacet
facet normal -5.906429819866295e-19 -0.38314572099685107 -0.9236879107587168
  outer loop
    vertex 11.000000000000002 -4.490121336907443 9.481857075645372
    vertex 11.000000000000002 -3.4482233796740425 9.049677830491632
    vertex 11.000000000000002 -4.43686019916049 9.459764357114059
  endloop
endfacet
facet normal 1.440530671989801e-18 -0.609158370178317 -0.7930485987893153
  outer loop
    vertex 11.000000000000002 -2.5994117461416257 8.397686625841176
    vertex 1.4099832412739487e-15 -3.4482233796740425 9.049677830491632
    vertex 1.4099832412739487e-15 -2.5994117461416257 8.397686625841176
  endloop
endfacet
facet normal 1.440530671989801e-18 -0.609158370178317 -0.7930485987893153
  outer loop
    vertex 1.4099832412739487e-15 -3.4482233796740425 9.049677830491632
    vertex 11.000000000000002 -2.5994117461416257 8.397686625841176
    vertex 11.000000000000002 -3.4482233796740425 9.049677830491632
  endloop
endfacet
facet normal 1.1053684768754457e-18 -0.7936578831139359 -0.6083643353871971
  outer loop
    vertex 11.000000000000002 -2.5994117461416257 8.397686625841176
    vertex 1.4099832412739487e-15 -1.9482704086609255 7.548222866293209
    vertex 11.000000000000002 -1.9482704086609255 7.548222866293209
  endloop
endfacet
facet normal 1.1053684768754457e-18 -0.7936578831139359 -0.6083643353871971
  outer loop
    vertex 1.4099832412739487e-15 -1.9482704086609255 7.548222866293209
    vertex 11.000000000000002 -2.5994117461416257 8.397686625841176
    vertex 1.4099832412739487e-15 -2.5994117461416257 8.397686625841176
  endloop
endfacet
facet normal 6.948772467698064e-19 -0.9240709228970054 -0.3822210478980413
  outer loop
    vertex 11.000000000000002 -1.9482704086609255 7.548222866293209
    vertex 1.4099832412739487e-15 -1.5391735733193135 6.559176103255686
    vertex 11.000000000000002 -1.5391735733193135 6.559176103255686
  endloop
endfacet
facet normal 6.948772467698064e-19 -0.9240709228970054 -0.3822210478980413
  outer loop
    vertex 1.4099832412739487e-15 -1.5391735733193135 6.559176103255686
    vertex 11.000000000000002 -1.9482704086609255 7.548222866293209
    vertex 1.4099832412739487e-15 -1.9482704086609255 7.548222866293209
  endloop
endfacet
facet normal 2.3703128063575143e-19 -0.9915100563840478 -0.13003002764478144
  outer loop
    vertex 11.000000000000002 -1.5391735733193135 6.559176103255686
    vertex 1.4099832412739487e-15 -1.4000005133808344 5.497948239152559
    vertex 11.000000000000002 -1.4000005133808344 5.497948239152559
  endloop
endfacet
facet normal 2.3703128063575143e-19 -0.9915100563840478 -0.13003002764478144
  outer loop
    vertex 1.4099832412739487e-15 -1.4000005133808344 5.497948239152559
    vertex 11.000000000000002 -1.5391735733193135 6.559176103255686
    vertex 1.4099832412739487e-15 -1.5391735733193135 6.559176103255686
  endloop
endfacet
facet normal -2.3696797556091976e-19 -0.9913794180763587 0.13102232410769044
  outer loop
    vertex 11.000000000000002 -1.4000005133808344 5.497948239152559
    vertex 1.4099832412739487e-15 -1.5402356428859403 4.436860199160491
    vertex 11.000000000000002 -1.5402356428859403 4.436860199160491
  endloop
endfacet
facet normal -2.3696797556091976e-19 -0.9913794180763587 0.13102232410769044
  outer loop
    vertex 1.4099832412739487e-15 -1.5402356428859403 4.436860199160491
    vertex 11.000000000000002 -1.4000005133808344 5.497948239152559
    vertex 1.4099832412739487e-15 -1.4000005133808344 5.497948239152559
  endloop
endfacet
facet normal -6.948182558312067e-19 -0.9236879107587175 0.3831457209968497
  outer loop
    vertex 11.000000000000002 -1.5402356428859403 4.436860199160491
    vertex 1.4099832412739487e-15 -1.9503221695083657 3.448223379674044
    vertex 11.000000000000002 -1.9503221695083657 3.448223379674044
  endloop
endfacet
facet normal -6.948182558312067e-19 -0.9236879107587175 0.3831457209968497
  outer loop
    vertex 1.4099832412739487e-15 -1.9503221695083657 3.448223379674044
    vertex 11.000000000000002 -1.5402356428859403 4.436860199160491
    vertex 1.4099832412739487e-15 -1.5402356428859403 4.436860199160491
  endloop
endfacet
facet normal -1.105317820208059e-18 -0.7930485987893151 0.6091583701783174
  outer loop
    vertex 11.000000000000002 -1.9503221695083657 3.448223379674044
    vertex 1.4099832412739487e-15 -2.6023133741588227 2.599411746141626
    vertex 11.000000000000002 -2.6023133741588227 2.599411746141626
  endloop
endfacet
facet normal -1.105317820208059e-18 -0.7930485987893151 0.6091583701783174
  outer loop
    vertex 1.4099832412739487e-15 -2.6023133741588227 2.599411746141626
    vertex 11.000000000000002 -1.9503221695083657 3.448223379674044
    vertex 1.4099832412739487e-15 -1.9503221695083657 3.448223379674044
  endloop
endfacet
facet normal -1.4404918017617939e-18 -0.6083643353871974 0.7936578831139358
  outer loop
    vertex 11.000000000000002 -3.4517771337067913 1.9482704086609255
    vertex 1.4099832412739487e-15 -2.6023133741588227 2.599411746141626
    vertex 1.4099832412739487e-15 -3.4517771337067913 1.9482704086609255
  endloop
endfacet
facet normal -1.4404918017617939e-18 -0.6083643353871974 0.7936578831139358
  outer loop
    vertex 1.4099832412739487e-15 -2.6023133741588227 2.599411746141626
    vertex 11.000000000000002 -3.4517771337067913 1.9482704086609255
    vertex 11.000000000000002 -2.6023133741588227 2.599411746141626
  endloop
endfacet
facet normal -1.6774986475507201e-18 -0.38222104789804184 0.9240709228970053
  outer loop
    vertex 11.000000000000002 -4.440823896744313 1.5391735733193128
    vertex 1.4099832412739487e-15 -3.4517771337067913 1.9482704086609255
    vertex 1.4099832412739487e-15 -4.440823896744313 1.5391735733193128
  endloop
endfacet
facet normal -1.6774986475507201e-18 -0.38222104789804184 0.9240709228970053
  outer loop
    vertex 1.4099832412739487e-15 -3.4517771337067913 1.9482704086609255
    vertex 11.000000000000002 -4.440823896744313 1.5391735733193128
    vertex 11.000000000000002 -3.4517771337067913 1.9482704086609255
  endloop
endfacet
facet normal -1.8001867327066538e-18 -0.1300300276447803 0.9915100563840479
  outer loop
    vertex 11.000000000000002 -5.502051760847442 1.4000005133808349
    vertex 1.4099832412739487e-15 -4.440823896744313 1.5391735733193128
    vertex 1.4099832412739487e-15 -5.502051760847442 1.4000005133808349
  endloop
endfacet
facet normal -1.8001867327066538e-18 -0.1300300276447803 0.9915100563840479
  outer loop
    vertex 1.4099832412739487e-15 -4.440823896744313 1.5391735733193128
    vertex 11.000000000000002 -5.502051760847442 1.4000005133808349
    vertex 11.000000000000002 -4.440823896744313 1.5391735733193128
  endloop
endfacet
facet normal -1.8001950669778658e-18 0.13102232410769027 0.9913794180763587
  outer loop
    vertex 11.000000000000002 -6.563139800839512 1.5402356428859407
    vertex 1.4099832412739487e-15 -5.502051760847442 1.4000005133808349
    vertex 1.4099832412739487e-15 -6.563139800839512 1.5402356428859407
  endloop
endfacet
facet normal -1.8001950669778658e-18 0.13102232410769027 0.9913794180763587
  outer loop
    vertex 1.4099832412739487e-15 -5.502051760847442 1.4000005133808349
    vertex 11.000000000000002 -6.563139800839512 1.5402356428859407
    vertex 11.000000000000002 -5.502051760847442 1.4000005133808349
  endloop
endfacet
facet normal -1.6775230823975447e-18 0.38314572099685057 0.923687910758717
  outer loop
    vertex 11.000000000000002 -7.55177662032596 1.9503221695083675
    vertex 1.4099832412739487e-15 -6.563139800839512 1.5402356428859407
    vertex 1.4099832412739487e-15 -7.55177662032596 1.9503221695083675
  endloop
endfacet
facet normal -1.6775230823975447e-18 0.38314572099685057 0.923687910758717
  outer loop
    vertex 1.4099832412739487e-15 -6.563139800839512 1.5402356428859407
    vertex 11.000000000000002 -7.55177662032596 1.9503221695083675
    vertex 11.000000000000002 -6.563139800839512 1.5402356428859407
  endloop
endfacet
facet normal -1.4405306719898002e-18 0.609158370178318 0.7930485987893149
  outer loop
    vertex 11.000000000000002 -8.400588253858377 2.602313374158825
    vertex 1.4099832412739487e-15 -7.55177662032596 1.9503221695083675
    vertex 1.4099832412739487e-15 -8.400588253858377 2.602313374158825
  endloop
endfacet
facet normal -1.4405306719898002e-18 0.609158370178318 0.7930485987893149
  outer loop
    vertex 1.4099832412739487e-15 -7.55177662032596 1.9503221695083675
    vertex 11.000000000000002 -8.400588253858377 2.602313374158825
    vertex 11.000000000000002 -7.55177662032596 1.9503221695083675
  endloop
endfacet
facet normal -1.1053684768754432e-18 0.7936578831139369 0.6083643353871958
  outer loop
    vertex 1.4099832412739487e-15 -9.051729591339075 3.451777133706794
    vertex 11.000000000000002 -8.400588253858377 2.602313374158825
    vertex 1.4099832412739487e-15 -8.400588253858377 2.602313374158825
  endloop
endfacet
facet normal -1.1053684768754432e-18 0.7936578831139369 0.6083643353871958
  outer loop
    vertex 11.000000000000002 -8.400588253858377 2.602313374158825
    vertex 1.4099832412739487e-15 -9.051729591339075 3.451777133706794
    vertex 11.000000000000002 -9.051729591339075 3.451777133706794
  endloop
endfacet
facet normal -6.948772467698069e-19 0.9240709228970053 0.3822210478980415
  outer loop
    vertex 1.4099832412739487e-15 -9.460826426680686 4.440823896744316
    vertex 11.000000000000002 -9.051729591339075 3.451777133706794
    vertex 1.4099832412739487e-15 -9.051729591339075 3.451777133706794
  endloop
endfacet
facet normal -6.948772467698069e-19 0.9240709228970053 0.3822210478980415
  outer loop
    vertex 11.000000000000002 -9.051729591339075 3.451777133706794
    vertex 1.4099832412739487e-15 -9.460826426680686 4.440823896744316
    vertex 11.000000000000002 -9.460826426680686 4.440823896744316
  endloop
endfacet
facet normal -2.370312806357504e-19 0.9915100563840479 0.1300300276447809
  outer loop
    vertex 1.4099832412739487e-15 -9.599999486619165 5.502051760847442
    vertex 11.000000000000002 -9.460826426680686 4.440823896744316
    vertex 1.4099832412739487e-15 -9.460826426680686 4.440823896744316
  endloop
endfacet
facet normal -2.370312806357504e-19 0.9915100563840479 0.1300300276447809
  outer loop
    vertex 11.000000000000002 -9.460826426680686 4.440823896744316
    vertex 1.4099832412739487e-15 -9.599999486619165 5.502051760847442
    vertex 11.000000000000002 -9.599999486619165 5.502051760847442
  endloop
endfacet
facet normal 2.3696797556092e-19 0.9913794180763585 -0.13102232410769057
  outer loop
    vertex 1.4099832412739487e-15 -9.459764357114059 6.563139800839508
    vertex 11.000000000000002 -9.599999486619165 5.502051760847442
    vertex 1.4099832412739487e-15 -9.599999486619165 5.502051760847442
  endloop
endfacet
facet normal 2.3696797556092e-19 0.9913794180763585 -0.13102232410769057
  outer loop
    vertex 11.000000000000002 -9.599999486619165 5.502051760847442
    vertex 1.4099832412739487e-15 -9.459764357114059 6.563139800839508
    vertex 11.000000000000002 -9.459764357114059 6.563139800839508
  endloop
endfacet
facet normal 6.948182558312071e-19 0.9236879107587174 -0.3831457209968499
  outer loop
    vertex 1.4099832412739487e-15 -9.049677830491634 7.551776620325955
    vertex 11.000000000000002 -9.459764357114059 6.563139800839508
    vertex 1.4099832412739487e-15 -9.459764357114059 6.563139800839508
  endloop
endfacet
facet normal 6.948182558312071e-19 0.9236879107587174 -0.3831457209968499
  outer loop
    vertex 11.000000000000002 -9.459764357114059 6.563139800839508
    vertex 1.4099832412739487e-15 -9.049677830491634 7.551776620325955
    vertex 11.000000000000002 -9.049677830491634 7.551776620325955
  endloop
endfacet
facet normal 1.1053178202080567e-18 0.7930485987893161 -0.609158370178316
  outer loop
    vertex 1.4099832412739487e-15 -8.39768662584118 8.400588253858372
    vertex 11.000000000000002 -9.049677830491634 7.551776620325955
    vertex 1.4099832412739487e-15 -9.049677830491634 7.551776620325955
  endloop
endfacet
facet normal 1.1053178202080567e-18 0.7930485987893161 -0.609158370178316
  outer loop
    vertex 11.000000000000002 -9.049677830491634 7.551776620325955
    vertex 1.4099832412739487e-15 -8.39768662584118 8.400588253858372
    vertex 11.000000000000002 -8.39768662584118 8.400588253858372
  endloop
endfacet
facet normal 1.4404918017617931e-18 0.6083643353871976 -0.7936578831139355
  outer loop
    vertex 11.000000000000002 -7.548222866293212 9.051729591339072
    vertex 1.4099832412739487e-15 -8.39768662584118 8.400588253858372
    vertex 1.4099832412739487e-15 -7.548222866293212 9.051729591339072
  endloop
endfacet
facet normal 1.4404918017617931e-18 0.6083643353871976 -0.7936578831139355
  outer loop
    vertex 1.4099832412739487e-15 -8.39768662584118 8.400588253858372
    vertex 11.000000000000002 -7.548222866293212 9.051729591339072
    vertex 11.000000000000002 -8.39768662584118 8.400588253858372
  endloop
endfacet
facet normal 5.3523009363952324e-33 0.3822210478980418 -0.9240709228970052
  outer loop
    vertex 11.000000000000002 -6.506577205681758 9.48258277162222
    vertex 1.4099832412739487e-15 -6.559176103255691 9.460826426680685
    vertex 1.3225025472396519e-15 -6.506577205681758 9.48258277162222
  endloop
endfacet
facet normal 5.3523009363952324e-33 0.3822210478980418 -0.9240709228970052
  outer loop
    vertex 1.4099832412739487e-15 -6.559176103255691 9.460826426680685
    vertex 11.000000000000002 -6.506577205681758 9.48258277162222
    vertex 1.4099832412739487e-15 -7.548222866293212 9.051729591339072
  endloop
endfacet
facet normal 5.3523009363952324e-33 0.3822210478980418 -0.9240709228970052
  outer loop
    vertex 1.4099832412739487e-15 -7.548222866293212 9.051729591339072
    vertex 11.000000000000002 -6.506577205681758 9.48258277162222
    vertex 11.000000000000002 -7.548222866293212 9.051729591339072
  endloop
endfacet
facet normal 5.3523009363952324e-33 0.3822210478980418 -0.9240709228970052
  outer loop
    vertex 11.000000000000002 -7.548222866293212 9.051729591339072
    vertex 11.000000000000002 -6.506577205681758 9.48258277162222
    vertex 11.000000000000002 -6.559176103255691 9.460826426680685
  endloop
endfacet
facet normal 0.0 0.0 1.0
  outer loop
    vertex 11.0 -4.5 12.999999999999998
    vertex 0.0 0.0 12.999999999999998
    vertex 0.0 -4.5 12.999999999999998
  endloop
endfacet
facet normal 0.0 0.0 1.0
  outer loop
    vertex 0.0 0.0 12.999999999999998
    vertex 11.0 -4.5 12.999999999999998
    vertex 11.0 0.0 12.999999999999998
  endloop
endfacet
facet normal 0.0 0.0 1.0
  outer loop
    vertex 11.0 -11.0 12.999999999999998
    vertex 0.0 -6.499999999999999 12.999999999999998
    vertex 0.0 -11.0 12.999999999999998
  endloop
endfacet
facet normal 0.0 0.0 1.0
  outer loop
    vertex 0.0 -6.499999999999999 12.999999999999998
    vertex 11.0 -11.0 12.999999999999998
    vertex 11.0 -6.499999999999999 12.999999999999998
  endloop
endfacet
facet normal 0.0 -1.0 0.0
  outer loop
    vertex 11.0 -4.5 12.999999999999998
    vertex 0.0 -4.5 11.0
    vertex 11.0 -4.5 11.0
  endloop
endfacet
facet normal 0.0 -1.0 0.0
  outer loop
    vertex 0.0 -4.5 11.0
    vertex 11.0 -4.5 12.999999999999998
    vertex 0.0 -4.5 12.999999999999998
  endloop
endfacet
facet normal 0.0 1.0 0.0
  outer loop
    vertex 0.0 -6.499999999999999 12.999999999999998
    vertex 11.0 -6.499999999999999 11.0
    vertex 0.0 -6.499999999999999 11.0
  endloop
endfacet
facet normal 0.0 1.0 0.0
  outer loop
    vertex 11.0 -6.499999999999999 11.0
    vertex 0.0 -6.499999999999999 12.999999999999998
    vertex 11.0 -6.499999999999999 12.999999999999998
  endloop
endfacet
facet normal -7.921534980925918e-21 0.999990606299484 -0.004334433387506596
  outer loop
    vertex 0.0 -6.499999999999999 11.0
    vertex 11.000000000000002 -6.506577205681758 9.48258277162222
    vertex 1.3225025472396519e-15 -6.506577205681758 9.48258277162222
  endloop
endfacet
facet normal -7.921534980925918e-21 0.999990606299484 -0.004334433387506596
  outer loop
    vertex 11.000000000000002 -6.506577205681758 9.48258277162222
    vertex 0.0 -6.499999999999999 11.0
    vertex 11.0 -6.499999999999999 11.0
  endloop
endfacet
facet normal 0.6697487286665456 -0.7425877998254118 -8.713084822260902e-17
  outer loop
    vertex 4.309107267149585 16.72967468006098 6.552412457435055
    vertex 3.9020132039684268 16.362511724613313 0.0
    vertex 4.309107267149585 16.72967468006098 0.0
  endloop
endfacet
facet normal 0.6697487286665456 -0.7425877998254118 -8.713084822260902e-17
  outer loop
    vertex 3.9020132039684268 16.362511724613313 0.0
    vertex 4.309107267149585 16.72967468006098 6.552412457435055
    vertex 3.9020132039684254 16.36251172461331 6.160121814733211
  endloop
endfacet
facet normal 0.8391234593988863 -0.5439410077264314 -1.2062509981710987e-18
  outer loop
    vertex 3.9020132039684268 16.362511724613313 0.0
    vertex 3.603819300138777 15.902495846790327 5.872771325588276
    vertex 3.6038193001387757 15.902495846790323 0.0
  endloop
endfacet
facet normal 0.8391234593988863 -0.5439410077264314 -1.2062509981710987e-18
  outer loop
    vertex 3.603819300138777 15.902495846790327 5.872771325588276
    vertex 3.9020132039684268 16.362511724613313 0.0
    vertex 3.9020132039684254 16.36251172461331 6.160121814733211
  endloop
endfacet
facet normal 0.9513133130902676 -0.3082255348559214 1.7927499042861455e-16
  outer loop
    vertex 3.6038193001387757 15.902495846790323 0.0
    vertex 3.4348469774179007 15.380976368453487 5.709943450966341
    vertex 3.4348469774179007 15.380976368453478 0.0
  endloop
endfacet
facet normal 0.9513133130902676 -0.3082255348559214 1.7927499042861455e-16
  outer loop
    vertex 3.4348469774179007 15.380976368453487 5.709943450966341
    vertex 3.6038193001387757 15.902495846790323 0.0
    vertex 3.603819300138777 15.902495846790327 5.872771325588276
  endloop
endfacet
facet normal 0.9986727366141309 -0.05150500115175839 1.8725942564607581e-16
  outer loop
    vertex 3.4348469774179007 15.380976368453478 0.0
    vertex 3.406611420359261 14.833493980199762 5.682734641437105
    vertex 3.4066114203592623 14.833493980199757 0.0
  endloop
endfacet
facet normal 0.9986727366141309 -0.05150500115175839 1.8725942564607581e-16
  outer loop
    vertex 3.406611420359261 14.833493980199762 5.682734641437105
    vertex 3.4348469774179007 15.380976368453478 0.0
    vertex 3.4348469774179007 15.380976368453487 5.709943450966341
  endloop
endfacet
facet normal 0.977974263522472 0.20872551326485883 -5.1658221998149024e-17
  outer loop
    vertex 3.5210368355149395 14.297358702031213 0.0
    vertex 3.406611420359261 14.833493980199762 5.682734641437105
    vertex 3.521036835514941 14.29735870203121 5.792999132405307
  endloop
endfacet
facet normal 0.977974263522472 0.20872551326485883 -5.1658221998149024e-17
  outer loop
    vertex 3.406611420359261 14.833493980199762 5.682734641437105
    vertex 3.5210368355149395 14.297358702031213 0.0
    vertex 3.4066114203592623 14.833493980199757 0.0
  endloop
endfacet
facet normal 0.8906284605506406 0.4547317288876995 2.6476832220913044e-18
  outer loop
    vertex 3.5210368355149395 14.297358702031213 0.0
    vertex 3.7703253199390216 13.809107267149585 6.033222581032149
    vertex 3.7703253199390216 13.809107267149585 0.0
  endloop
endfacet
facet normal 0.8906284605506406 0.4547317288876995 2.6476832220913044e-18
  outer loop
    vertex 3.7703253199390216 13.809107267149585 6.033222581032149
    vertex 3.5210368355149395 14.297358702031213 0.0
    vertex 3.521036835514941 14.29735870203121 5.792999132405307
  endloop
endfacet
facet normal 0.7425877998254068 0.6697487286665513 1.5652464623845653e-16
  outer loop
    vertex 4.137488275386696 13.402013203968426 0.0
    vertex 3.7703253199390216 13.809107267149585 6.033222581032149
    vertex 4.137488275386696 13.402013203968423 6.387034156281726
  endloop
endfacet
facet normal 0.7425877998254068 0.6697487286665513 1.5652464623845653e-16
  outer loop
    vertex 3.7703253199390216 13.809107267149585 6.033222581032149
    vertex 4.137488275386696 13.402013203968426 0.0
    vertex 3.7703253199390216 13.809107267149585 0.0
  endloop
endfacet
facet normal 0.5439410077264341 0.8391234593988844 4.2040909295266326e-16
  outer loop
    vertex 4.137488275386696 13.402013203968423 6.387034156281726
    vertex 4.59750415320968 13.103819300138777 0.0
    vertex 4.137488275386696 13.402013203968426 0.0
  endloop
endfacet
facet normal 0.5439410077264341 0.8391234593988844 4.2040909295266326e-16
  outer loop
    vertex 4.59750415320968 13.103819300138777 0.0
    vertex 4.137488275386696 13.402013203968423 6.387034156281726
    vertex 4.5975041532096785 13.103819300138774 6.830322184002055
  endloop
endfacet
facet normal 0.30822553485592624 0.9513133130902659 2.1277962695494247e-16
  outer loop
    vertex 4.5975041532096785 13.103819300138774 6.830322184002055
    vertex 5.119023631546519 12.934846977417898 0.0
    vertex 4.59750415320968 13.103819300138777 0.0
  endloop
endfacet
facet normal 0.30822553485592624 0.9513133130902659 2.1277962695494247e-16
  outer loop
    vertex 5.119023631546519 12.934846977417898 0.0
    vertex 4.5975041532096785 13.103819300138774 6.830322184002055
    vertex 5.119023631546519 12.934846977417898 7.332877317672099
  endloop
endfacet
facet normal 0.051505001151751544 0.9986727366141314 1.2731169337463168e-17
  outer loop
    vertex 5.119023631546519 12.934846977417898 7.332877317672099
    vertex 5.666506019800248 12.906611420359262 0.0
    vertex 5.119023631546519 12.934846977417898 0.0
  endloop
endfacet
facet normal 0.051505001151751544 0.9986727366141314 1.2731169337463168e-17
  outer loop
    vertex 5.666506019800248 12.906611420359262 0.0
    vertex 5.119023631546519 12.934846977417898 7.332877317672099
    vertex 5.666506019800247 12.906611420359262 7.539548744556126
  endloop
endfacet
facet normal 0.051505001151751544 0.9986727366141314 1.2731169337463168e-17
  outer loop
    vertex 5.666506019800247 12.906611420359262 7.539548744556126
    vertex 5.119023631546519 12.934846977417898 7.332877317672099
    vertex 5.5 12.915198710696895 7.6999999999999975
  endloop
endfacet
facet normal -0.20872551326486546 0.9779742635224705 -1.841333692465099e-16
  outer loop
    vertex 5.666506019800247 12.906611420359262 7.539548744556126
    vertex 6.202641297968797 13.021036835514943 0.0
    vertex 5.666506019800248 12.906611420359262 0.0
  endloop
endfacet
facet normal -0.20872551326486546 0.9779742635224705 -1.841333692465099e-16
  outer loop
    vertex 6.202641297968797 13.021036835514943 0.0
    vertex 5.666506019800247 12.906611420359262 7.539548744556126
    vertex 6.202641297968798 13.021036835514947 7.022909294684611
  endloop
endfacet
facet normal -0.4547317288877011 0.8906284605506397 -5.153295683169431e-17
  outer loop
    vertex 6.202641297968798 13.021036835514947 7.022909294684611
    vertex 6.690892732850417 13.270325319939024 0.0
    vertex 6.202641297968797 13.021036835514943 0.0
  endloop
endfacet
facet normal -0.4547317288877011 0.8906284605506397 -5.153295683169431e-17
  outer loop
    vertex 6.690892732850417 13.270325319939024 0.0
    vertex 6.202641297968798 13.021036835514947 7.022909294684611
    vertex 6.690892732850419 13.270325319939024 6.55241245743505
  endloop
endfacet
facet normal -0.6697487286665518 0.7425877998254062 2.397242776842704e-16
  outer loop
    vertex 6.690892732850419 13.270325319939024 6.55241245743505
    vertex 7.097986796031577 13.6374882753867 0.0
    vertex 6.690892732850417 13.270325319939024 0.0
  endloop
endfacet
facet normal -0.6697487286665518 0.7425877998254062 2.397242776842704e-16
  outer loop
    vertex 7.097986796031577 13.6374882753867 0.0
    vertex 6.690892732850419 13.270325319939024 6.55241245743505
    vertex 7.0979867960315755 13.637488275386698 6.160121814733207
  endloop
endfacet
facet normal -0.8391234593988849 0.5439410077264334 -2.5029708212050434e-17
  outer loop
    vertex 7.396180699861228 14.097504153209687 5.872771325588271
    vertex 7.097986796031577 13.6374882753867 0.0
    vertex 7.0979867960315755 13.637488275386698 6.160121814733207
  endloop
endfacet
facet normal -0.8391234593988849 0.5439410077264334 -2.5029708212050434e-17
  outer loop
    vertex 7.097986796031577 13.6374882753867 0.0
    vertex 7.396180699861228 14.097504153209687 5.872771325588271
    vertex 7.396180699861225 14.09750415320968 0.0
  endloop
endfacet
facet normal -0.9513133130902693 0.3082255348559154 8.974518944163887e-18
  outer loop
    vertex 7.396180699861228 14.097504153209687 5.872771325588271
    vertex 7.5651530225820975 14.61902363154652 0.0
    vertex 7.396180699861225 14.09750415320968 0.0
  endloop
endfacet
facet normal -0.9513133130902693 0.3082255348559154 8.974518944163887e-18
  outer loop
    vertex 7.5651530225820975 14.61902363154652 0.0
    vertex 7.396180699861228 14.097504153209687 5.872771325588271
    vertex 7.5651530225820975 14.619023631546524 5.709943450966341
  endloop
endfacet
facet normal -0.9986727366141311 0.05150500115175373 1.2828651625971465e-17
  outer loop
    vertex 7.5651530225820975 14.619023631546524 5.709943450966341
    vertex 7.5933885796407345 15.166506019800257 0.0
    vertex 7.5651530225820975 14.61902363154652 0.0
  endloop
endfacet
facet normal -0.9986727366141311 0.05150500115175373 1.2828651625971465e-17
  outer loop
    vertex 7.5933885796407345 15.166506019800257 0.0
    vertex 7.5651530225820975 14.619023631546524 5.709943450966341
    vertex 7.5933885796407345 15.16650601980025 5.68273464143711
  endloop
endfacet
facet normal -0.9779742635224715 -0.20872551326486039 3.9384057680407585e-17
  outer loop
    vertex 7.478963164485057 15.702641297968794 5.792999132405306
    vertex 7.5933885796407345 15.166506019800257 0.0
    vertex 7.5933885796407345 15.16650601980025 5.68273464143711
  endloop
endfacet
facet normal -0.9779742635224715 -0.20872551326486039 3.9384057680407585e-17
  outer loop
    vertex 7.5933885796407345 15.166506019800257 0.0
    vertex 7.478963164485057 15.702641297968794 5.792999132405306
    vertex 7.478963164485054 15.7026412979688 0.0
  endloop
endfacet
facet normal -0.8906284605506406 -0.4547317288876995 -5.44245995652104e-18
  outer loop
    vertex 7.229674680060975 16.190892732850422 6.033222581032153
    vertex 7.478963164485054 15.7026412979688 0.0
    vertex 7.478963164485057 15.702641297968794 5.792999132405306
  endloop
endfacet
facet normal -0.8906284605506406 -0.4547317288876995 -5.44245995652104e-18
  outer loop
    vertex 7.478963164485054 15.7026412979688 0.0
    vertex 7.229674680060975 16.190892732850422 6.033222581032153
    vertex 7.229674680060975 16.190892732850422 0.0
  endloop
endfacet
facet normal -0.7425877998254065 -0.6697487286665516 8.729566582859951e-17
  outer loop
    vertex 6.862511724613305 16.597986796031577 6.387034156281726
    vertex 7.229674680060975 16.190892732850422 0.0
    vertex 7.229674680060975 16.190892732850422 6.033222581032153
  endloop
endfacet
facet normal -0.7425877998254065 -0.6697487286665516 8.729566582859951e-17
  outer loop
    vertex 7.229674680060975 16.190892732850422 0.0
    vertex 6.862511724613305 16.597986796031577 6.387034156281726
    vertex 6.862511724613303 16.597986796031577 0.0
  endloop
endfacet
facet normal -0.54394100772643 -0.8391234593988871 -1.2489872042562781e-18
  outer loop
    vertex 6.862511724613305 16.597986796031577 6.387034156281726
    vertex 6.402495846790321 16.896180699861226 0.0
    vertex 6.862511724613303 16.597986796031577 0.0
  endloop
endfacet
facet normal -0.54394100772643 -0.8391234593988871 -1.2489872042562781e-18
  outer loop
    vertex 6.402495846790321 16.896180699861226 0.0
    vertex 6.862511724613305 16.597986796031577 6.387034156281726
    vertex 6.40249584679032 16.896180699861226 6.830322184002056
  endloop
endfacet
facet normal -0.30822553485592685 -0.9513133130902657 -2.250590643986909e-16
  outer loop
    vertex 6.40249584679032 16.896180699861226 6.830322184002056
    vertex 5.8809763684534815 17.065153022582106 0.0
    vertex 6.402495846790321 16.896180699861226 0.0
  endloop
endfacet
facet normal -0.30822553485592685 -0.9513133130902657 -2.250590643986909e-16
  outer loop
    vertex 5.8809763684534815 17.065153022582106 0.0
    vertex 6.40249584679032 16.896180699861226 6.830322184002056
    vertex 5.8809763684534815 17.065153022582102 7.332877317672097
  endloop
endfacet
facet normal 0.4547317288876977 -0.8906284605506415 2.364715768034441e-17
  outer loop
    vertex 4.797358702031207 16.97896316448506 7.022909294684618
    vertex 4.309107267149585 16.72967468006098 0.0
    vertex 4.797358702031207 16.97896316448506 0.0
  endloop
endfacet
facet normal 0.4547317288876977 -0.8906284605506415 2.364715768034441e-17
  outer loop
    vertex 4.309107267149585 16.72967468006098 0.0
    vertex 4.797358702031207 16.97896316448506 7.022909294684618
    vertex 4.309107267149585 16.72967468006098 6.552412457435055
  endloop
endfacet
facet normal 0.20872551326486366 -0.977974263522471 4.1222571159214146e-17
  outer loop
    vertex 5.333493980199754 17.093388579640738 7.539548744556127
    vertex 4.797358702031207 16.97896316448506 0.0
    vertex 5.333493980199757 17.093388579640738 0.0
  endloop
endfacet
facet normal 0.20872551326486366 -0.977974263522471 4.1222571159214146e-17
  outer loop
    vertex 4.797358702031207 16.97896316448506 0.0
    vertex 5.333493980199754 17.093388579640738 7.539548744556127
    vertex 4.797358702031207 16.97896316448506 7.022909294684618
  endloop
endfacet
facet normal -0.05150500115175329 -0.9986727366141311 -1.3030013661270342e-16
  outer loop
    vertex 5.8809763684534815 17.065153022582102 7.332877317672097
    vertex 5.5 17.0848012893031 0.0
    vertex 5.8809763684534815 17.065153022582106 0.0
  endloop
endfacet
facet normal -0.05150500115175329 -0.9986727366141311 -1.3030013661270342e-16
  outer loop
    vertex 5.5 17.0848012893031 0.0
    vertex 5.8809763684534815 17.065153022582102 7.332877317672097
    vertex 5.333493980199757 17.093388579640738 0.0
  endloop
endfacet
facet normal -0.05150500115175329 -0.9986727366141311 -1.3030013661270342e-16
  outer loop
    vertex 5.333493980199757 17.093388579640738 0.0
    vertex 5.8809763684534815 17.065153022582102 7.332877317672097
    vertex 5.333493980199754 17.093388579640738 7.539548744556127
  endloop
endfacet
facet normal -0.05150500115175329 -0.9986727366141311 -1.3030013661270342e-16
  outer loop
    vertex 5.333493980199754 17.093388579640738 7.539548744556127
    vertex 5.8809763684534815 17.065153022582102 7.332877317672097
    vertex 5.5 17.0848012893031 7.7
  endloop
endfacet
facet normal 0.6938932410409328 -2.078628062382109e-18 0.720077891646251
  outer loop
    vertex 11.0 0.0 2.4
    vertex 5.5 12.915198710696895 7.6999999999999975
    vertex 5.5 0.0 7.7
  endloop
endfacet
facet normal 0.6938932410409328 -2.078628062382109e-18 0.720077891646251
  outer loop
    vertex 5.5 12.915198710696895 7.6999999999999975
    vertex 11.0 0.0 2.4
    vertex 5.666506019800247 12.906611420359262 7.539548744556126
  endloop
endfacet
facet normal 0.6938932410409328 -2.078628062382109e-18 0.720077891646251
  outer loop
    vertex 5.666506019800247 12.906611420359262 7.539548744556126
    vertex 11.0 0.0 2.4
    vertex 6.202641297968798 13.021036835514947 7.022909294684611
  endloop
endfacet
facet normal 0.6938932410409328 -2.078628062382109e-18 0.720077891646251
  outer loop
    vertex 6.202641297968798 13.021036835514947 7.022909294684611
    vertex 11.0 0.0 2.4
    vertex 6.690892732850419 13.270325319939024 6.55241245743505
  endloop
endfacet
facet normal 0.6938932410409328 -2.078628062382109e-18 0.720077891646251
  outer loop
    vertex 6.690892732850419 13.270325319939024 6.55241245743505
    vertex 11.0 0.0 2.4
    vertex 7.0979867960315755 13.637488275386698 6.160121814733207
  endloop
endfacet
facet normal 0.6938932410409328 -2.078628062382109e-18 0.720077891646251
  outer loop
    vertex 7.0979867960315755 13.637488275386698 6.160121814733207
    vertex 11.0 0.0 2.4
    vertex 7.396180699861228 14.097504153209687 5.872771325588271
  endloop
endfacet
facet normal 0.6938932410409328 -2.078628062382109e-18 0.720077891646251
  outer loop
    vertex 7.396180699861228 14.097504153209687 5.872771325588271
    vertex 11.0 0.0 2.4
    vertex 7.5651530225820975 14.619023631546524 5.709943450966341
  endloop
endfacet
facet normal 0.6938932410409328 -2.078628062382109e-18 0.720077891646251
  outer loop
    vertex 7.5651530225820975 14.619023631546524 5.709943450966341
    vertex 11.0 0.0 2.4
    vertex 7.5933885796407345 15.16650601980025 5.68273464143711
  endloop
endfacet
facet normal 0.6938932410409328 -2.078628062382109e-18 0.720077891646251
  outer loop
    vertex 5.8809763684534815 17.065153022582102 7.332877317672097
    vertex 5.5 25.000000000000004 7.7
    vertex 5.5 17.0848012893031 7.7
  endloop
endfacet
facet normal 0.6938932410409328 -2.078628062382109e-18 0.720077891646251
  outer loop
    vertex 5.5 25.000000000000004 7.7
    vertex 5.8809763684534815 17.065153022582102 7.332877317672097
    vertex 11.0 25.000000000000004 2.4
  endloop
endfacet
facet normal 0.6938932410409328 -2.078628062382109e-18 0.720077891646251
  outer loop
    vertex 11.0 25.000000000000004 2.4
    vertex 5.8809763684534815 17.065153022582102 7.332877317672097
    vertex 6.40249584679032 16.896180699861226 6.830322184002056
  endloop
endfacet
facet normal 0.6938932410409328 -2.078628062382109e-18 0.720077891646251
  outer loop
    vertex 11.0 25.000000000000004 2.4
    vertex 6.40249584679032 16.896180699861226 6.830322184002056
    vertex 6.862511724613305 16.597986796031577 6.387034156281726
  endloop
endfacet
facet normal 0.6938932410409328 -2.078628062382109e-18 0.720077891646251
  outer loop
    vertex 11.0 25.000000000000004 2.4
    vertex 6.862511724613305 16.597986796031577 6.387034156281726
    vertex 7.229674680060975 16.190892732850422 6.033222581032153
  endloop
endfacet
facet normal 0.6938932410409328 -2.078628062382109e-18 0.720077891646251
  outer loop
    vertex 11.0 25.000000000000004 2.4
    vertex 7.229674680060975 16.190892732850422 6.033222581032153
    vertex 7.478963164485057 15.702641297968794 5.792999132405306
  endloop
endfacet
facet normal 0.6938932410409328 -2.078628062382109e-18 0.720077891646251
  outer loop
    vertex 11.0 25.000000000000004 2.4
    vertex 7.478963164485057 15.702641297968794 5.792999132405306
    vertex 7.5933885796407345 15.16650601980025 5.68273464143711
  endloop
endfacet
facet normal 0.6938932410409328 -2.078628062382109e-18 0.720077891646251
  outer loop
    vertex 11.0 25.000000000000004 2.4
    vertex 7.5933885796407345 15.16650601980025 5.68273464143711
    vertex 11.0 0.0 2.4
  endloop
endfacet
facet normal 0.0 0.0 -1.0
  outer loop
    vertex 0.0 25.000000000000004 0.0
    vertex 3.4348469774179007 15.380976368453478 0.0
    vertex 0.0 0.0 0.0
  endloop
endfacet
facet normal 0.0 0.0 -1.0
  outer loop
    vertex 3.4348469774179007 15.380976368453478 0.0
    vertex 0.0 25.000000000000004 0.0
    vertex 3.6038193001387757 15.902495846790323 0.0
  endloop
endfacet
facet normal 0.0 0.0 -1.0
  outer loop
    vertex 3.6038193001387757 15.902495846790323 0.0
    vertex 0.0 25.000000000000004 0.0
    vertex 3.9020132039684268 16.362511724613313 0.0
  endloop
endfacet
facet normal 0.0 0.0 -1.0
  outer loop
    vertex 3.9020132039684268 16.362511724613313 0.0
    vertex 0.0 25.000000000000004 0.0
    vertex 11.0 25.000000000000004 0.0
  endloop
endfacet
facet normal 0.0 0.0 -1.0
  outer loop
    vertex 0.0 0.0 0.0
    vertex 3.4348469774179007 15.380976368453478 0.0
    vertex 3.4066114203592623 14.833493980199757 0.0
  endloop
endfacet
facet normal 0.0 0.0 -1.0
  outer loop
    vertex 3.9020132039684268 16.362511724613313 0.0
    vertex 11.0 25.000000000000004 0.0
    vertex 4.309107267149585 16.72967468006098 0.0
  endloop
endfacet
facet normal 0.0 0.0 -1.0
  outer loop
    vertex 4.309107267149585 16.72967468006098 0.0
    vertex 11.0 25.000000000000004 0.0
    vertex 4.797358702031207 16.97896316448506 0.0
  endloop
endfacet
facet normal 0.0 0.0 -1.0
  outer loop
    vertex 4.797358702031207 16.97896316448506 0.0
    vertex 11.0 25.000000000000004 0.0
    vertex 5.333493980199757 17.093388579640738 0.0
  endloop
endfacet
facet normal 0.0 0.0 -1.0
  outer loop
    vertex 5.333493980199757 17.093388579640738 0.0
    vertex 11.0 25.000000000000004 0.0
    vertex 5.5 17.0848012893031 0.0
  endloop
endfacet
facet normal 0.0 0.0 -1.0
  outer loop
    vertex 5.5 17.0848012893031 0.0
    vertex 11.0 25.000000000000004 0.0
    vertex 5.8809763684534815 17.065153022582106 0.0
  endloop
endfacet
facet normal 0.0 0.0 -1.0
  outer loop
    vertex 5.8809763684534815 17.065153022582106 0.0
    vertex 11.0 25.000000000000004 0.0
    vertex 6.402495846790321 16.896180699861226 0.0
  endloop
endfacet
facet normal 0.0 0.0 -1.0
  outer loop
    vertex 6.402495846790321 16.896180699861226 0.0
    vertex 11.0 25.000000000000004 0.0
    vertex 6.862511724613303 16.597986796031577 0.0
  endloop
endfacet
facet normal 0.0 0.0 -1.0
  outer loop
    vertex 6.862511724613303 16.597986796031577 0.0
    vertex 11.0 25.000000000000004 0.0
    vertex 7.229674680060975 16.190892732850422 0.0
  endloop
endfacet
facet normal 0.0 0.0 -1.0
  outer loop
    vertex 7.229674680060975 16.190892732850422 0.0
    vertex 11.0 25.000000000000004 0.0
    vertex 7.478963164485054 15.7026412979688 0.0
  endloop
endfacet
facet normal 0.0 0.0 -1.0
  outer loop
    vertex 7.478963164485054 15.7026412979688 0.0
    vertex 11.0 25.000000000000004 0.0
    vertex 7.5933885796407345 15.166506019800257 0.0
  endloop
endfacet
facet normal 0.0 0.0 -1.0
  outer loop
    vertex 0.0 0.0 0.0
    vertex 3.7703253199390216 13.809107267149585 0.0
    vertex 11.0 0.0 0.0
  endloop
endfacet
facet normal 0.0 0.0 -1.0
  outer loop
    vertex 3.7703253199390216 13.809107267149585 0.0
    vertex 0.0 0.0 0.0
    vertex 3.5210368355149395 14.297358702031213 0.0
  endloop
endfacet
facet normal 0.0 0.0 -1.0
  outer loop
    vertex 3.5210368355149395 14.297358702031213 0.0
    vertex 0.0 0.0 0.0
    vertex 3.4066114203592623 14.833493980199757 0.0
  endloop
endfacet
facet normal 0.0 0.0 -1.0
  outer loop
    vertex 11.0 0.0 0.0
    vertex 3.7703253199390216 13.809107267149585 0.0
    vertex 4.137488275386696 13.402013203968426 0.0
  endloop
endfacet
facet normal 0.0 0.0 -1.0
  outer loop
    vertex 11.0 0.0 0.0
    vertex 4.137488275386696 13.402013203968426 0.0
    vertex 4.59750415320968 13.103819300138777 0.0
  endloop
endfacet
facet normal 0.0 0.0 -1.0
  outer loop
    vertex 11.0 0.0 0.0
    vertex 4.59750415320968 13.103819300138777 0.0
    vertex 5.119023631546519 12.934846977417898 0.0
  endloop
endfacet
facet normal 0.0 0.0 -1.0
  outer loop
    vertex 11.0 0.0 0.0
    vertex 5.119023631546519 12.934846977417898 0.0
    vertex 5.666506019800248 12.906611420359262 0.0
  endloop
endfacet
facet normal 0.0 0.0 -1.0
  outer loop
    vertex 11.0 0.0 0.0
    vertex 5.666506019800248 12.906611420359262 0.0
    vertex 6.202641297968797 13.021036835514943 0.0
  endloop
endfacet
facet normal 0.0 0.0 -1.0
  outer loop
    vertex 11.0 0.0 0.0
    vertex 6.202641297968797 13.021036835514943 0.0
    vertex 6.690892732850417 13.270325319939024 0.0
  endloop
endfacet
facet normal 0.0 0.0 -1.0
  outer loop
    vertex 11.0 0.0 0.0
    vertex 6.690892732850417 13.270325319939024 0.0
    vertex 7.097986796031577 13.6374882753867 0.0
  endloop
endfacet
facet normal 0.0 0.0 -1.0
  outer loop
    vertex 11.0 0.0 0.0
    vertex 7.097986796031577 13.6374882753867 0.0
    vertex 7.396180699861225 14.09750415320968 0.0
  endloop
endfacet
facet normal 0.0 0.0 -1.0
  outer loop
    vertex 11.0 0.0 0.0
    vertex 7.396180699861225 14.09750415320968 0.0
    vertex 7.5651530225820975 14.61902363154652 0.0
  endloop
endfacet
facet normal 0.0 0.0 -1.0
  outer loop
    vertex 11.0 0.0 0.0
    vertex 7.5651530225820975 14.61902363154652 0.0
    vertex 7.5933885796407345 15.166506019800257 0.0
  endloop
endfacet
facet normal 0.0 0.0 -1.0
  outer loop
    vertex 11.0 0.0 0.0
    vertex 7.5933885796407345 15.166506019800257 0.0
    vertex 11.0 25.000000000000004 0.0
  endloop
endfacet
facet normal 0.0 1.0 0.0
  outer loop
    vertex 0.0 25.000000000000004 2.4
    vertex 11.0 25.000000000000004 0.0
    vertex 0.0 25.000000000000004 0.0
  endloop
endfacet
facet normal 0.0 1.0 0.0
  outer loop
    vertex 11.0 25.000000000000004 0.0
    vertex 0.0 25.000000000000004 2.4
    vertex 11.0 25.000000000000004 2.4
  endloop
endfacet
facet normal 0.0 1.0 0.0
  outer loop
    vertex 11.0 25.000000000000004 2.4
    vertex 0.0 25.000000000000004 2.4
    vertex 5.5 25.000000000000004 7.7
  endloop
endfacet
facet normal -1.0 0.0 0.0
  outer loop
    vertex 0.0 25.000000000000004 2.4
    vertex 0.0 0.0 0.0
    vertex 0.0 0.0 2.4
  endloop
endfacet
facet normal -1.0 0.0 0.0
  outer loop
    vertex 0.0 0.0 0.0
    vertex 0.0 25.000000000000004 2.4
    vertex 0.0 25.000000000000004 0.0
  endloop
endfacet
facet normal -0.6938932410409328 -2.0770958971426902e-18 0.720077891646251
  outer loop
    vertex 5.5 0.0 7.7
    vertex 0.0 25.000000000000004 2.4
    vertex 0.0 0.0 2.4
  endloop
endfacet
facet normal -0.6938932410409328 -2.0770958971426902e-18 0.720077891646251
  outer loop
    vertex 0.0 25.000000000000004 2.4
    vertex 5.5 0.0 7.7
    vertex 3.406611420359261 14.833493980199762 5.682734641437105
  endloop
endfacet
facet normal -0.6938932410409328 -2.0770958971426902e-18 0.720077891646251
  outer loop
    vertex 3.406611420359261 14.833493980199762 5.682734641437105
    vertex 5.5 0.0 7.7
    vertex 3.521036835514941 14.29735870203121 5.792999132405307
  endloop
endfacet
facet normal -0.6938932410409328 -2.0770958971426902e-18 0.720077891646251
  outer loop
    vertex 3.521036835514941 14.29735870203121 5.792999132405307
    vertex 5.5 0.0 7.7
    vertex 3.7703253199390216 13.809107267149585 6.033222581032149
  endloop
endfacet
facet normal -0.6938932410409328 -2.0770958971426902e-18 0.720077891646251
  outer loop
    vertex 3.7703253199390216 13.809107267149585 6.033222581032149
    vertex 5.5 0.0 7.7
    vertex 4.137488275386696 13.402013203968423 6.387034156281726
  endloop
endfacet
facet normal -0.6938932410409328 -2.0770958971426902e-18 0.720077891646251
  outer loop
    vertex 4.137488275386696 13.402013203968423 6.387034156281726
    vertex 5.5 0.0 7.7
    vertex 4.5975041532096785 13.103819300138774 6.830322184002055
  endloop
endfacet
facet normal -0.6938932410409328 -2.0770958971426902e-18 0.720077891646251
  outer loop
    vertex 4.5975041532096785 13.103819300138774 6.830322184002055
    vertex 5.5 0.0 7.7
    vertex 5.119023631546519 12.934846977417898 7.332877317672099
  endloop
endfacet
facet normal -0.6938932410409328 -2.0770958971426902e-18 0.720077891646251
  outer loop
    vertex 5.119023631546519 12.934846977417898 7.332877317672099
    vertex 5.5 0.0 7.7
    vertex 5.5 12.915198710696895 7.6999999999999975
  endloop
endfacet
facet normal -0.6938932410409328 -2.0770958971426902e-18 0.720077891646251
  outer loop
    vertex 0.0 25.000000000000004 2.4
    vertex 3.4348469774179007 15.380976368453487 5.709943450966341
    vertex 5.5 25.000000000000004 7.7
  endloop
endfacet
facet normal -0.6938932410409328 -2.0770958971426902e-18 0.720077891646251
  outer loop
    vertex 3.4348469774179007 15.380976368453487 5.709943450966341
    vertex 0.0 25.000000000000004 2.4
    vertex 3.406611420359261 14.833493980199762 5.682734641437105
  endloop
endfacet
facet normal -0.6938932410409328 -2.0770958971426902e-18 0.720077891646251
  outer loop
    vertex 5.5 25.000000000000004 7.7
    vertex 3.4348469774179007 15.380976368453487 5.709943450966341
    vertex 3.603819300138777 15.902495846790327 5.872771325588276
  endloop
endfacet
facet normal -0.6938932410409328 -2.0770958971426902e-18 0.720077891646251
  outer loop
    vertex 5.5 25.000000000000004 7.7
    vertex 3.603819300138777 15.902495846790327 5.872771325588276
    vertex 3.9020132039684254 16.36251172461331 6.160121814733211
  endloop
endfacet
facet normal -0.6938932410409328 -2.0770958971426902e-18 0.720077891646251
  outer loop
    vertex 5.5 25.000000000000004 7.7
    vertex 3.9020132039684254 16.36251172461331 6.160121814733211
    vertex 4.309107267149585 16.72967468006098 6.552412457435055
  endloop
endfacet
facet normal -0.6938932410409328 -2.0770958971426902e-18 0.720077891646251
  outer loop
    vertex 5.5 25.000000000000004 7.7
    vertex 4.309107267149585 16.72967468006098 6.552412457435055
    vertex 4.797358702031207 16.97896316448506 7.022909294684618
  endloop
endfacet
facet normal -0.6938932410409328 -2.0770958971426902e-18 0.720077891646251
  outer loop
    vertex 5.5 25.000000000000004 7.7
    vertex 4.797358702031207 16.97896316448506 7.022909294684618
    vertex 5.333493980199754 17.093388579640738 7.539548744556127
  endloop
endfacet
facet normal -0.6938932410409328 -2.0770958971426902e-18 0.720077891646251
  outer loop
    vertex 5.5 25.000000000000004 7.7
    vertex 5.333493980199754 17.093388579640738 7.539548744556127
    vertex 5.5 17.0848012893031 7.7
  endloop
endfacet
facet normal 1.0 0.0 0.0
  outer loop
    vertex 11.0 25.000000000000004 0.0
    vertex 11.0 0.0 2.4
    vertex 11.0 0.0 0.0
  endloop
endfacet
facet normal 1.0 0.0 0.0
  outer loop
    vertex 11.0 0.0 2.4
    vertex 11.0 25.000000000000004 0.0
    vertex 11.0 25.000000000000004 2.4
  endloop
endfacet
facet normal 0.0 1.0 0.0
  outer loop
    vertex 0.0 0.0 2.4
    vertex 11.0 0.0 0.0
    vertex 0.0 0.0 0.0
  endloop
endfacet
facet normal 0.0 1.0 0.0
  outer loop
    vertex 11.0 0.0 0.0
    vertex 0.0 0.0 2.4
    vertex 11.0 0.0 2.4
  endloop
endfacet
facet normal 0.0 1.0 0.0
  outer loop
    vertex 11.0 0.0 2.4
    vertex 0.0 0.0 2.4
    vertex 5.5 0.0 7.7
  endloop
endfacet
endsolid Support piece
